<?xml version="1.0" encoding="UTF-8" standalone="no"?>
<!DOCTYPE svg PUBLIC "-//W3C//DTD SVG 1.1//EN" "http://www.w3.org/Graphics/SVG/1.1/DTD/svg11.dtd">
<svg width="100%" height="100%" viewBox="0 0 4634 3475" version="1.1" xmlns="http://www.w3.org/2000/svg" xmlns:xlink="http://www.w3.org/1999/xlink" xml:space="preserve" xmlns:serif="http://www.serif.com/" style="fill-rule:evenodd;clip-rule:evenodd;stroke-linecap:round;stroke-linejoin:round;stroke-miterlimit:1.5;">
    <g transform="matrix(2.08333,0,0,2.08333,0,0)">
        <g transform="matrix(1,0,0,1,-24.8,-8.8)">
            <g id="Layer1">
                <path d="M1254.4,529.2L1117.2,490L1019.2,470.4L940.8,450.8L921.2,450.8L842.8,470.4L548.8,529.2L450.8,529.2L431.2,509.6L431.2,411.6L450.8,352.8L470.4,333.2L490,254.8L509.6,215.6L627.2,98L705.6,58.8L744.8,58.8L784,137.2L862.4,215.6L1019.2,294L1136.8,333.2L1215.2,372.4L1254.4,431.2L1274,470.4L1254.4,529.2Z" style="fill:rgb(208,162,72);stroke:rgb(208,162,72);stroke-width:1px;"/>
            </g>
        </g>
        <g transform="matrix(1,0,0,1,-24.8,-8.8)">
            <g id="Layer5">
                <path d="M1274,470.4L1293.6,490L1332.8,568.4L1372,686L1391.6,803.6L1411.2,940.8L1411.2,1332.8L1313.2,1430.8L646.8,1430.8L588,1372L588,823.2L686,725.2L1038.8,725.2L1097.6,784L1097.6,1136.8L1038.8,1195.6L803.6,1195.6L744.8,1136.8L744.8,980L803.6,921.2L980,921.2L999.6,940.8L999.6,980L980,999.6L940.8,999.6L901.6,960.4L842.8,960.4L784,1019.2L784,1097.6L842.8,1156.4L999.6,1156.4L1058.4,1097.6L1058.4,823.2L999.6,764.4L725.2,764.4L627.2,862.4L627.2,1293.6L686,1352.4L1215.2,1352.4L1332.8,1234.8L1332.8,744.8L1313.2,666.4L1293.6,607.6L1254.4,529.2L1274,470.4Z" style="fill:rgb(134,127,119);stroke:rgb(134,127,119);stroke-width:1px;"/>
            </g>
        </g>
        <g transform="matrix(1,0,0,1,-24.8,-8.8)">
            <g id="Layer4">
                <path d="M1078,411.6L882,411.6L862.4,333.2L842.8,333.2L803.6,372.4L784,372.4L744.8,411.6L686,411.6L666.4,392L666.4,274.4L646.8,254.8L627.2,254.8L588,294L548.8,294L509.6,333.2L470.4,333.2L480.2,294L509.6,254.8L548.8,254.8L588,215.6L686,215.6L705.6,235.2L705.6,352.8L725.2,372.4L764.4,333.2L784,333.2L823.2,294L901.6,294L921.2,372.4L1097.6,372.4L1117.2,392L1195.6,411.6L1215.2,372.4L1332.8,254.8L1411.2,215.6L1568,58.8L1646.4,58.8L1862,274.4L1920.8,392L1920.8,1274L1862,1391.6L1803.2,1509.2L1724.8,1587.6L1646.4,1626.8L470.4,1626.8L352.8,1509.2L352.8,705.6L372.4,666.4L470.4,568.4L548.8,529.2L1176,529.2L1254.4,607.6L1254.4,1215.2L1234.8,1254.4L1176,1313.2L705.6,1313.2L666.4,1274L666.4,882L744.8,803.6L940.8,803.6L1019.2,882L1019.2,921.2L803.6,921.2L744.8,980L744.8,1136.8L803.6,1195.6L1038.8,1195.6L1097.6,1136.8L1097.6,784L1038.8,725.2L686,725.2L588,823.2L588,1372L646.8,1430.8L1313.2,1430.8L1411.2,1332.8L1411.2,940.8L1391.6,803.6L1372,686L1332.8,568.4L1293.6,490L1274,470.4L1254.4,450.8L1117.2,450.8L1078,411.6Z" style="fill:rgb(120,59,49);stroke:rgb(120,59,49);stroke-width:1px;"/>
            </g>
        </g>
        <g id="Layer6">
            <g transform="matrix(1,0,0,1,-24.8,-8.8)">
                <path d="M1607.2,607.6L1528.8,607.6L1509.2,627.2L1509.2,666.4L1528.8,686L1607.2,686L1607.2,607.6Z" style="fill:rgb(255,216,0);stroke:rgb(255,216,0);stroke-width:1px;"/>
            </g>
            <g transform="matrix(1,0,0,1,-24.8,-8.8)">
                <path d="M1607.2,764.4L1528.8,764.4L1509.2,784L1509.2,823.2L1528.8,842.8L1607.2,842.8L1607.2,764.4Z" style="fill:rgb(255,216,0);stroke:rgb(255,216,0);stroke-width:1px;"/>
            </g>
            <g transform="matrix(1,0,0,1,-24.8,-8.8)">
                <path d="M1607.2,921.2L1528.8,921.2L1509.2,940.8L1509.2,980L1528.8,999.6L1607.2,999.6L1607.2,921.2Z" style="fill:rgb(255,216,0);stroke:rgb(255,216,0);stroke-width:1px;"/>
            </g>
            <g transform="matrix(1,0,0,1,-24.8,-8.8)">
                <rect x="1548.4" y="1078" width="58.8" height="78.4" style="fill:rgb(255,216,0);stroke:rgb(255,216,0);stroke-width:1px;"/>
            </g>
            <g transform="matrix(1,0,0,1,-24.8,-8.8)">
                <path d="M1607.2,1234.8L1528.8,1234.8L1528.8,1293.6L1587.6,1313.2L1607.2,1254.4L1607.2,1234.8Z" style="fill:rgb(255,216,0);stroke:rgb(255,216,0);stroke-width:1px;"/>
            </g>
            <g transform="matrix(1,0,0,1,-24.8,-8.8)">
                <rect x="1176" y="1528.8" width="117.6" height="39.2" style="fill:rgb(255,216,0);stroke:rgb(255,216,0);stroke-width:1px;"/>
            </g>
            <g transform="matrix(1,0,0,1,-24.8,-8.8)">
                <rect x="1019.2" y="1528.8" width="78.4" height="39.2" style="fill:rgb(255,216,0);stroke:rgb(255,216,0);stroke-width:1px;"/>
            </g>
            <g transform="matrix(1,0,0,1,-24.8,-8.8)">
                <path d="M784,1568L784,1528.8L764.4,1509.2L725.2,1509.2L705.6,1528.8L705.6,1568L784,1568Z" style="fill:rgb(255,216,0);stroke:rgb(255,216,0);stroke-width:1px;"/>
            </g>
            <g transform="matrix(1,0,0,1,-24.8,-8.8)">
                <path d="M627.2,1568L548.8,1568L548.8,1528.8L568.4,1509.2L607.6,1509.2L627.2,1528.8L627.2,1568Z" style="fill:rgb(255,216,0);stroke:rgb(255,216,0);stroke-width:1px;"/>
            </g>
            <g transform="matrix(1,0,0,1,-24.8,-8.8)">
                <path d="M431.2,1234.8L490,1234.8L509.6,1215.2L509.6,1176L490,1156.4L431.2,1156.4L431.2,1234.8Z" style="fill:rgb(255,216,0);stroke:rgb(255,216,0);stroke-width:1px;"/>
            </g>
            <g transform="matrix(1,0,0,1,-24.8,-8.8)">
                <path d="M431.2,1078L490,1078L509.6,1058.4L509.6,1019.2L490,999.6L431.2,999.6L431.2,1078Z" style="fill:rgb(255,216,0);stroke:rgb(255,216,0);stroke-width:1px;"/>
            </g>
            <g transform="matrix(1,0,0,1,-24.8,-8.8)">
                <path d="M431.2,921.2L490,921.2L509.6,901.6L509.6,823.2L490,803.6L431.2,803.6L431.2,921.2Z" style="fill:rgb(255,216,0);stroke:rgb(255,216,0);stroke-width:1px;"/>
            </g>
            <g transform="matrix(1,0,0,1,-24.8,-165.6)">
                <path d="M411.6,882L431.2,901.6L470.4,901.6L509.6,862.4L509.6,842.8L490,803.6L411.6,882Z" style="fill:rgb(255,216,0);stroke:rgb(255,216,0);stroke-width:1px;"/>
            </g>
            <g transform="matrix(1,0,0,1,-24.8,-8.8)">
                <path d="M431.2,1313.2L490,1313.2L509.6,1332.8L509.6,1391.6L490,1411.2L431.2,1411.2L431.2,1313.2Z" style="fill:rgb(255,216,0);stroke:rgb(255,216,0);stroke-width:1px;"/>
            </g>
            <g transform="matrix(1,0,0,1,-24.8,-8.8)">
                <path d="M940.8,568.4L940.8,607.6L921.2,627.2L882,627.2L862.4,607.6L862.4,568.4L940.8,568.4Z" style="fill:rgb(255,216,0);stroke:rgb(255,216,0);stroke-width:1px;"/>
            </g>
            <g transform="matrix(1,0,0,1,132,-8.8)">
                <path d="M940.8,568.4L940.8,607.6L921.2,627.2L882,627.2L862.4,607.6L862.4,568.4L940.8,568.4Z" style="fill:rgb(255,216,0);stroke:rgb(255,216,0);stroke-width:1px;"/>
            </g>
            <g transform="matrix(6.12323e-17,1,-1,6.12323e-17,1758.8,-146)">
                <path d="M940.8,568.4L940.8,588L921.2,607.6L882,607.6L862.4,588L862.4,568.4L940.8,568.4Z" style="fill:rgb(255,216,0);stroke:rgb(255,216,0);stroke-width:1px;"/>
            </g>
            <g transform="matrix(6.12323e-17,1,-1,6.12323e-17,1758.8,10.8)">
                <path d="M940.8,568.4L940.8,588L921.2,607.6L882,607.6L862.4,588L862.4,568.4L940.8,568.4Z" style="fill:rgb(255,216,0);stroke:rgb(255,216,0);stroke-width:1px;"/>
            </g>
            <g transform="matrix(6.12323e-17,1,-1,6.12323e-17,1758.8,167.6)">
                <path d="M940.8,568.4L940.8,588L921.2,607.6L882,607.6L862.4,588L862.4,568.4L940.8,568.4Z" style="fill:rgb(255,216,0);stroke:rgb(255,216,0);stroke-width:1px;"/>
            </g>
            <g transform="matrix(-1,1.22465e-16,-1.22465e-16,-1,1935.2,1833.6)">
                <path d="M940.8,568.4L940.8,588L921.2,607.6L882,607.6L862.4,588L862.4,568.4L940.8,568.4Z" style="fill:rgb(255,216,0);stroke:rgb(255,216,0);stroke-width:1px;"/>
            </g>
            <g transform="matrix(-1,1.22465e-16,-1.22465e-16,-1,1778.4,1833.6)">
                <path d="M940.8,568.4L940.8,588L921.2,607.6L882,607.6L862.4,588L862.4,568.4L940.8,568.4Z" style="fill:rgb(255,216,0);stroke:rgb(255,216,0);stroke-width:1px;"/>
            </g>
            <g transform="matrix(-1,1.22465e-16,-1.22465e-16,-1,1641.2,1833.6)">
                <path d="M940.8,568.4L940.8,588L921.2,607.6L882,607.6L862.4,588L862.4,568.4L940.8,568.4Z" style="fill:rgb(255,216,0);stroke:rgb(255,216,0);stroke-width:1px;"/>
            </g>
            <g transform="matrix(1,0,0,1,-24.8,-8.8)">
                <path d="M705.6,1234.8L725.2,1215.2L725.2,1176L705.6,1156.4L705.6,1234.8Z" style="fill:rgb(255,216,0);stroke:rgb(255,216,0);stroke-width:1px;"/>
            </g>
            <g transform="matrix(1,0,0,1,-24.8,-8.8)">
                <path d="M705.6,1038.8L725.2,1058.4L725.2,1097.6L705.6,1117.2L705.6,1038.8Z" style="fill:rgb(255,216,0);stroke:rgb(255,216,0);stroke-width:1px;"/>
            </g>
            <g transform="matrix(1,0,0,1,-24.8,-8.8)">
                <path d="M705.6,999.6L725.2,980L725.2,921.2L744.8,882L725.2,901.6L705.6,940.8L705.6,999.6Z" style="fill:rgb(255,216,0);stroke:rgb(255,216,0);stroke-width:1px;"/>
            </g>
            <g transform="matrix(1,0,0,1,-181.6,-8.8)">
                <path d="M940.8,568.4L940.8,607.6L921.2,627.2L882,627.2L862.4,607.6L862.4,568.4L940.8,568.4Z" style="fill:rgb(255,216,0);stroke:rgb(255,216,0);stroke-width:1px;"/>
            </g>
            <g transform="matrix(1,0,0,1,-338.4,10.8)">
                <path d="M940.8,548.8L940.8,607.6L921.2,627.2L882,627.2L862.4,607.6L842.8,588L901.6,568.4L940.8,548.8Z" style="fill:rgb(255,216,0);stroke:rgb(255,216,0);stroke-width:1px;"/>
            </g>
            <g transform="matrix(1,0,0,1,-24.8,-8.8)">
                <path d="M1156.4,646.8L1156.4,588L1215.2,666.4L1176,666.4L1156.4,646.8Z" style="fill:rgb(255,216,0);stroke:rgb(255,216,0);stroke-width:1px;"/>
            </g>
            <g transform="matrix(1,0,0,1,-44.4,10.8)">
                <path d="M509.6,1548.4L548.8,1509.2L548.8,1489.6L490,1430.8L470.4,1430.8L431.2,1470L509.6,1548.4Z" style="fill:rgb(255,216,0);stroke:rgb(255,216,0);stroke-width:1px;"/>
            </g>
            <g transform="matrix(1,0,0,1,-24.8,-8.8)">
                <path d="M1136.8,1274L1136.8,1215.2L1156.4,1195.6L1215.2,1195.6" style="fill:rgb(255,216,0);stroke:rgb(255,216,0);stroke-width:1px;"/>
            </g>
            <g transform="matrix(1,0,0,1,-24.8,-8.8)">
                <path d="M1607.2,411.6L1528.8,411.6L1509.2,431.2L1509.2,509.6L1528.8,529.2L1607.2,529.2L1607.2,411.6Z" style="fill:rgb(255,216,0);stroke:rgb(255,216,0);stroke-width:1px;"/>
            </g>
            <g transform="matrix(1,0,0,1,-24.8,-8.8)">
                <path d="M1528.8,254.8L1489.6,274.4L1470,313.6L1509.2,372.4L1528.8,372.4L1607.2,333.2L1528.8,254.8Z" style="fill:rgb(255,216,0);stroke:rgb(255,216,0);stroke-width:1px;"/>
            </g>
            <g transform="matrix(1,0,0,1,-54.2,-126.4)">
                <path d="M1597.4,1568L1577.8,1528.8L1617,1489.6L1675.8,1489.6L1597.4,1568Z" style="fill:rgb(255,216,0);stroke:rgb(255,216,0);stroke-width:1px;"/>
            </g>
            <g transform="matrix(1,0,0,1,-250.2,-8.8)">
                <path d="M1597.4,1568L1597.4,1528.8L1675.8,1470L1715,1489.6L1597.4,1568Z" style="fill:rgb(255,216,0);stroke:rgb(255,216,0);stroke-width:1px;"/>
            </g>
        </g>
        <g id="Layer7">
            <g transform="matrix(1,0,0,1,-24.8,-8.8)">
                <path d="M999.6,1391.6L921.2,1372L842.8,1450.4L842.8,1489.6L803.6,1528.8L803.6,1548.4L999.6,1548.4L1019.2,1528.8L1058.4,1450.4L999.6,1391.6Z" style="fill:rgb(255,137,33);stroke:rgb(255,137,33);stroke-width:1px;"/>
            </g>
            <g transform="matrix(1,0,0,1,-24.8,-8.8)">
                <path d="M1293.6,1117.2L1293.6,1078L1411.2,960.4L1489.6,999.6L1528.8,1058.4L1528.8,1254.4L1509.2,1254.4L1430.8,1176L1411.2,1176L1293.6,1117.2Z" style="fill:rgb(255,137,33);stroke:rgb(255,137,33);stroke-width:1px;"/>
            </g>
            <g transform="matrix(1,0,0,1,-24.8,-8.8)">
                <rect x="1607.2" y="764.4" width="196" height="78.4" style="fill:rgb(255,137,33);stroke:rgb(255,137,33);stroke-width:1px;"/>
            </g>
            <g transform="matrix(1,0,0,1,-24.8,148)">
                <rect x="1607.2" y="764.4" width="196" height="78.4" style="fill:rgb(255,137,33);stroke:rgb(255,137,33);stroke-width:1px;"/>
            </g>
            <g transform="matrix(1,0,0,1,-24.8,304.8)">
                <rect x="1607.2" y="764.4" width="196" height="78.4" style="fill:rgb(255,137,33);stroke:rgb(255,137,33);stroke-width:1px;"/>
            </g>
            <g transform="matrix(1,0,0,1,-24.8,-8.8)">
                <path d="M1607.2,686L1607.2,607.6L1626.8,588L1685.6,568.4L1803.2,568.4L1803.2,686L1607.2,686Z" style="fill:rgb(255,137,33);stroke:rgb(255,137,33);stroke-width:1px;"/>
            </g>
            <g transform="matrix(1,0,0,1,-24.8,-8.8)">
                <path d="M1607.2,529.2L1607.2,411.6L1646.4,392L1705.2,372.4L1764,372.4L1803.2,450.8L1803.2,490L1685.6,529.2L1607.2,529.2Z" style="fill:rgb(255,137,33);stroke:rgb(255,137,33);stroke-width:1px;"/>
            </g>
            <g transform="matrix(1,0,0,1.5,-24.8,-822.2)">
                <rect x="1176" y="1587.6" width="117.6" height="39.2" style="fill:rgb(255,137,33);stroke:rgb(255,137,33);stroke-width:0.78px;"/>
            </g>
            <g transform="matrix(1,0,0,1,-44.4,-28.4)">
                <path d="M1626.8,215.6L1548.4,274.4L1548.4,333.2L1587.6,372.4L1666,352.8L1744.4,333.2L1744.4,313.6L1646.4,215.6L1626.8,215.6Z" style="fill:rgb(255,137,33);stroke:rgb(255,137,33);stroke-width:1px;"/>
            </g>
            <g transform="matrix(1,0,0,0.75,-24.8,397.9)">
                <rect x="1019.2" y="1548.4" width="78.4" height="78.4" style="fill:rgb(255,137,33);stroke:rgb(255,137,33);stroke-width:1.13px;"/>
            </g>
            <g transform="matrix(1,0,0,1,-181.6,-8.8)">
                <rect x="1019.2" y="1587.6" width="78.4" height="39.2" style="fill:rgb(255,137,33);stroke:rgb(255,137,33);stroke-width:1px;"/>
            </g>
            <g transform="matrix(1,0,0,1,-338.4,-8.8)">
                <rect x="1019.2" y="1568" width="78.4" height="58.8" style="fill:rgb(255,137,33);stroke:rgb(255,137,33);stroke-width:1px;"/>
            </g>
            <g transform="matrix(1,0,0,1,-495.2,-8.8)">
                <rect x="1019.2" y="1568" width="78.4" height="58.8" style="fill:rgb(255,137,33);stroke:rgb(255,137,33);stroke-width:1px;"/>
            </g>
            <g transform="matrix(1,0,0,1,-24.8,-8.8)">
                <rect x="352.8" y="1156.4" width="78.4" height="78.4" style="fill:rgb(255,137,33);stroke:rgb(255,137,33);stroke-width:1px;"/>
            </g>
            <g transform="matrix(1,0,0,1,-24.8,-8.8)">
                <rect x="352.8" y="999.6" width="78.4" height="78.4" style="fill:rgb(255,137,33);stroke:rgb(255,137,33);stroke-width:1px;"/>
            </g>
            <g transform="matrix(1,0,0,1,-24.8,-8.8)">
                <rect x="352.8" y="803.6" width="78.4" height="117.6" style="fill:rgb(255,137,33);stroke:rgb(255,137,33);stroke-width:1px;"/>
            </g>
            <g transform="matrix(1,0,0,1,-24.8,-165.6)">
                <path d="M392,882L352.8,862.4L372.4,823.2L431.2,764.4L470.4,725.2L490,784L490,803.6L411.6,882L392,882Z" style="fill:rgb(255,137,33);stroke:rgb(255,137,33);stroke-width:1px;"/>
            </g>
            <g transform="matrix(1,0,0,1,-24.8,-8.8)">
                <path d="M450.8,1607.2L490,1568L411.6,1489.6L372.4,1528.8L450.8,1607.2Z" style="fill:rgb(255,137,33);stroke:rgb(255,137,33);stroke-width:1px;"/>
            </g>
            <g transform="matrix(1,0,0,1,-24.8,-8.8)">
                <path d="M1803.2,1234.8L1607.2,1234.8L1607.2,1254.4L1587.6,1313.2L1626.8,1332.8L1685.6,1352.4L1803.2,1352.4L1803.2,1234.8Z" style="fill:rgb(255,137,33);stroke:rgb(255,137,33);stroke-width:1px;"/>
            </g>
            <g transform="matrix(1,0,0,1,-24.8,-8.8)">
                <path d="M999.6,980L1019.2,960.4L1019.2,882L960.4,823.2L940.8,803.6L940.8,882L999.6,940.8L999.6,980Z" style="fill:rgb(255,137,33);stroke:rgb(255,137,33);stroke-width:1px;"/>
            </g>
            <g transform="matrix(1,0,0,1,-24.8,-8.8)">
                <rect x="352.8" y="1313.2" width="78.4" height="98" style="fill:rgb(255,137,33);stroke:rgb(255,137,33);stroke-width:1px;"/>
            </g>
            <g transform="matrix(1,0,0,1,-24.8,-8.8)">
                <rect x="862.4" y="803.6" width="39.2" height="78.4" style="fill:rgb(255,137,33);stroke:rgb(255,137,33);stroke-width:1px;"/>
            </g>
            <g transform="matrix(1,0,0,1,-24.8,-8.8)">
                <rect x="784" y="803.6" width="39.2" height="78.4" style="fill:rgb(255,137,33);stroke:rgb(255,137,33);stroke-width:1px;"/>
            </g>
            <g transform="matrix(1,0,0,1,-24.8,-8.8)">
                <rect x="666.4" y="1038.8" width="39.2" height="78.4" style="fill:rgb(255,137,33);stroke:rgb(255,137,33);stroke-width:1px;"/>
            </g>
            <g transform="matrix(1,0,0,1,-24.8,-8.8)">
                <rect x="862.4" y="1274" width="78.4" height="39.2" style="fill:rgb(255,137,33);stroke:rgb(255,137,33);stroke-width:1px;"/>
            </g>
            <g transform="matrix(1,0,0,1,-24.8,-8.8)">
                <rect x="1019.2" y="1274" width="78.4" height="39.2" style="fill:rgb(255,137,33);stroke:rgb(255,137,33);stroke-width:1px;"/>
            </g>
            <g transform="matrix(1,0,0,1,-24.8,-8.8)">
                <rect x="1215.2" y="725.2" width="39.2" height="78.4" style="fill:rgb(255,137,33);stroke:rgb(255,137,33);stroke-width:1px;"/>
            </g>
            <g transform="matrix(1,0,0,1,-24.8,-8.8)">
                <rect x="1215.2" y="882" width="39.2" height="78.4" style="fill:rgb(255,137,33);stroke:rgb(255,137,33);stroke-width:1px;"/>
            </g>
            <g transform="matrix(1,0,0,1,-24.8,-8.8)">
                <rect x="1215.2" y="1038.8" width="39.2" height="78.4" style="fill:rgb(255,137,33);stroke:rgb(255,137,33);stroke-width:1px;"/>
            </g>
            <g transform="matrix(1,0,0,1,-24.8,-8.8)">
                <rect x="705.6" y="529.2" width="78.4" height="39.2" style="fill:rgb(255,137,33);stroke:rgb(255,137,33);stroke-width:1px;"/>
            </g>
            <g transform="matrix(1,0,0,1,132,-8.8)">
                <rect x="705.6" y="529.2" width="78.4" height="39.2" style="fill:rgb(255,137,33);stroke:rgb(255,137,33);stroke-width:1px;"/>
            </g>
            <g transform="matrix(1,0,0,1,288.8,-8.8)">
                <rect x="705.6" y="529.2" width="78.4" height="39.2" style="fill:rgb(255,137,33);stroke:rgb(255,137,33);stroke-width:1px;"/>
            </g>
            <g transform="matrix(1,0,0,1,-24.8,-8.8)">
                <path d="M1176,529.2L1254.4,607.6L1254.4,666.4L1215.2,666.4L1156.4,588L1156.4,529.2L1176,529.2Z" style="fill:rgb(255,137,33);stroke:rgb(255,137,33);stroke-width:1px;"/>
            </g>
            <g transform="matrix(1,0,0,1,-24.8,10.8)">
                <path d="M627.2,509.6L627.2,548.8L588,568.4L529.2,588L509.6,548.8L509.6,529.2L548.8,509.6L627.2,509.6Z" style="fill:rgb(255,137,33);stroke:rgb(255,137,33);stroke-width:1px;"/>
            </g>
            <g transform="matrix(1,0,0,1,-24.8,-8.8)">
                <path d="M1254.4,1215.2L1215.2,1195.6L1195.6,1195.6L1136.8,1254.4L1136.8,1274L1176,1313.2L1234.8,1254.4L1254.4,1215.2Z" style="fill:rgb(255,137,33);stroke:rgb(255,137,33);stroke-width:1px;"/>
            </g>
            <g transform="matrix(1,0,0,1,-5.2,-8.8)">
                <rect x="705.6" y="1274" width="78.4" height="39.2" style="fill:rgb(255,137,33);stroke:rgb(255,137,33);stroke-width:1px;"/>
            </g>
            <g transform="matrix(1,0,0,1,-24.8,-8.8)">
                <path d="M666.4,882L744.8,803.6L744.8,882L725.2,901.6L705.6,940.8L705.6,999.6L666.4,999.6L666.4,882Z" style="fill:rgb(255,137,33);stroke:rgb(255,137,33);stroke-width:1px;"/>
            </g>
            <g transform="matrix(1,0,0,1,-24.8,-8.8)">
                <rect x="666.4" y="1156.4" width="39.2" height="78.4" style="fill:rgb(255,137,33);stroke:rgb(255,137,33);stroke-width:1px;"/>
            </g>
            <g transform="matrix(1,0,0,1,4.6,1)">
                <path d="M1626.8,1509.2L1715,1401.4L1675.8,1381.8L1617,1362.2L1538.6,1440.6L1558.2,1479.8L1577.8,1499.4L1626.8,1509.2Z" style="fill:rgb(255,137,33);stroke:rgb(255,137,33);stroke-width:1px;"/>
            </g>
            <g transform="matrix(1,0,0,1,-24.8,-8.8)">
                <path d="M1587.6,1548.4L1489.6,1489.6L1372,1568L1411.2,1626.8L1450.4,1626.8" style="fill:rgb(255,137,33);stroke:rgb(255,137,33);stroke-width:1px;"/>
            </g>
        </g>
        <g id="Layer8">
            <g transform="matrix(1,0,0,1,-24.8,-8.8)">
                <path d="M1430.8,1176L1411.2,1176L1411.2,1078L1450.4,1038.8L1450.4,999.6L1411.2,960.4L1411.2,784L1430.8,764.4L1509.2,764.4L1528.8,784L1528.8,862.4L1509.2,882L1470,882L1450.4,901.6L1568,1019.2L1568,1234.8L1548.4,1254.4L1528.8,1254.4L1528.8,1058.4L1509.2,1038.8L1489.6,1058.4L1489.6,1078L1450.4,1117.2L1450.4,1156.4L1430.8,1176ZM1489.6,842.8L1489.6,803.6L1450.4,803.6L1450.4,842.8L1489.6,842.8Z" style="fill:rgb(214,30,0);stroke:rgb(214,30,0);stroke-width:1px;"/>
            </g>
            <g transform="matrix(6.12323e-17,1,-1,6.12323e-17,2033.2,10.8)">
                <path d="M1450.4,1215.2L1450.4,1019.2L1430.8,999.6L1372,1058.4L1372,1117.2L1352.4,1136.8L1332.8,1136.8L1332.8,1038.8L1372,999.6L1391.6,940.8L1411.2,921.2L1411.2,784L1430.8,764.4L1509.2,764.4L1528.8,784L1528.8,862.4L1509.2,882L1470,882L1450.4,901.6L1568,1019.2L1568,1234.8L1548.4,1254.4L1528.8,1254.4L1528.8,1058.4L1509.2,1038.8L1489.6,1058.4L1489.6,1195.6L1470,1215.2L1450.4,1215.2ZM1489.6,842.8L1489.6,803.6L1450.4,803.6L1450.4,842.8L1489.6,842.8Z" style="fill:rgb(214,30,0);stroke:rgb(214,30,0);stroke-width:1px;"/>
            </g>
            <g transform="matrix(1,0,0,1,-44.4,-28.4)">
                <path d="M1842.4,254.8L1783.6,313.6L1744.4,313.6L1646.4,215.6L1724.8,137.2L1842.4,254.8Z" style="fill:rgb(214,30,0);stroke:rgb(214,30,0);stroke-width:1px;"/>
            </g>
            <g transform="matrix(1,0,0,1,-24.8,-8.8)">
                <path d="M1920.8,490L1803.2,490L1783.6,450.8L1764,411.6L1764,372.4L1822.8,352.8L1881.6,313.6L1920.8,392L1920.8,490Z" style="fill:rgb(214,30,0);stroke:rgb(214,30,0);stroke-width:1px;"/>
            </g>
            <g transform="matrix(1,0,0,1,-24.8,-8.8)">
                <rect x="1803.2" y="568.4" width="117.6" height="117.6" style="fill:rgb(214,30,0);stroke:rgb(214,30,0);stroke-width:1px;"/>
            </g>
            <g transform="matrix(1,0,0,1,-24.8,-8.8)">
                <rect x="1803.2" y="764.4" width="117.6" height="78.4" style="fill:rgb(214,30,0);stroke:rgb(214,30,0);stroke-width:1px;"/>
            </g>
            <g transform="matrix(1,0,0,1,-24.8,-8.8)">
                <rect x="1803.2" y="921.2" width="117.6" height="78.4" style="fill:rgb(214,30,0);stroke:rgb(214,30,0);stroke-width:1px;"/>
            </g>
            <g transform="matrix(1,0,0,1,-24.8,-8.8)">
                <rect x="1803.2" y="1078" width="117.6" height="78.4" style="fill:rgb(214,30,0);stroke:rgb(214,30,0);stroke-width:1px;"/>
            </g>
            <g transform="matrix(1,0,0,1,-24.8,-8.8)">
                <path d="M1803.2,1274L1764,1352.4L1881.6,1352.4L1901.2,1313.2L1920.8,1274L1920.8,1234.8L1803.2,1234.8L1803.2,1274Z" style="fill:rgb(214,30,0);stroke:rgb(214,30,0);stroke-width:1px;"/>
            </g>
            <g transform="matrix(1,0,0,1,53.6,-8.8)">
                <path d="M1372,1626.8L1509.2,1626.8L1509.2,1548.4L1470,1548.4L1450.4,1568L1332.8,1626.8L1372,1626.8Z" style="fill:rgb(214,30,0);stroke:rgb(214,30,0);stroke-width:1px;"/>
            </g>
            <g transform="matrix(1,0,0,1,190.8,-8.8)">
                <path d="M1509.2,1587.6L1587.6,1509.2L1607.2,1470L1587.6,1430.8L1489.6,1391.6L1391.6,1509.2L1489.6,1587.6L1509.2,1587.6Z" style="fill:rgb(214,30,0);stroke:rgb(214,30,0);stroke-width:1px;"/>
            </g>
        </g>
        <g transform="matrix(1,0,0,1,-24.8,-8.8)">
            <g id="Layer2">
                <path d="M1332.8,431.2L1332.8,392L1352.4,372.4L1391.6,372.4L1411.2,392L1411.2,431.2L1391.6,450.8L1352.4,450.8L1332.8,431.2Z" style="fill:rgb(8,182,198);stroke:rgb(8,182,198);stroke-width:1px;"/>
            </g>
        </g>
    </g>
</svg>
