<?xml version="1.0" encoding="UTF-8" standalone="no"?>
<!DOCTYPE svg PUBLIC "-//W3C//DTD SVG 1.1//EN" "http://www.w3.org/Graphics/SVG/1.1/DTD/svg11.dtd">
<svg width="100%" height="100%" viewBox="0 0 4634 3475" version="1.1" xmlns="http://www.w3.org/2000/svg" xmlns:xlink="http://www.w3.org/1999/xlink" xml:space="preserve" xmlns:serif="http://www.serif.com/" style="fill-rule:evenodd;clip-rule:evenodd;stroke-linecap:round;stroke-linejoin:round;stroke-miterlimit:1.5;">
    <g transform="matrix(2.08333,0,0,2.08333,0,0)">
        <g id="Layer8">
            <g transform="matrix(1,0,0,1,-30.5,-11.45)">
                <path d="M799.75,68.55L411.3,68.55L411.3,114.25L365.6,114.25L365.6,502.7L388.45,525.55L457,525.55L502.7,479.85L479.85,388.45L457,434.15L434.15,434.15L411.3,411.3L411.3,342.75L434.15,342.75L479.85,319.9L479.85,274.2L457,297.05L434.15,297.05L411.3,274.2L411.3,228.5L434.15,205.65L799.75,205.65L799.75,68.55Z" style="fill:rgb(11,143,4);stroke:rgb(11,143,4);stroke-width:1px;"/>
            </g>
            <g transform="matrix(-1,0,0,1,2254.5,-11.45)">
                <path d="M799.75,68.55L411.3,68.55L411.3,114.25L365.6,114.25L365.6,502.7L388.45,525.55L457,525.55L502.7,479.85L479.85,388.45L457,434.15L434.15,434.15L411.3,411.3L411.3,342.75L434.15,342.75L479.85,319.9L479.85,274.2L457,297.05L434.15,297.05L411.3,274.2L411.3,228.5L434.15,205.65L799.75,205.65L799.75,68.55Z" style="fill:rgb(11,143,4);stroke:rgb(11,143,4);stroke-width:1px;"/>
            </g>
        </g>
        <g id="Layer16">
            <g transform="matrix(1,0,0,1,-30.5,-11.45)">
                <path d="M914,228.5L914,159.95L822.6,68.55L662.65,68.55L700.678,99.98L695.765,132.527L728.917,150.921L728.329,182.239L754.05,205.65L754.05,228.5L914,228.5Z" style="fill:rgb(1,80,1);stroke:rgb(1,80,1);stroke-width:1px;"/>
            </g>
            <g transform="matrix(-1,0,0,1,2254.5,-11.45)">
                <path d="M914,228.5L914,159.95L822.6,68.55L662.65,68.55L700.678,99.98L695.765,132.527L728.917,150.921L728.329,182.239L754.05,205.65L754.05,228.5L914,228.5Z" style="fill:rgb(1,80,1);stroke:rgb(1,80,1);stroke-width:1px;"/>
            </g>
            <g transform="matrix(1,0,0,1,-30.5,-11.45)">
                <path d="M616.95,205.65L605.766,173.694L574.272,167.829L580.9,139.039L556.523,136.278L562.327,103.744L529.016,96.834L525.55,68.55L411.3,68.55L365.6,114.25L365.6,137.1L379.139,157.268L410.169,157.629L419.003,186.477L442.812,184.624L457,205.65L616.95,205.65Z" style="fill:rgb(1,80,1);stroke:rgb(1,80,1);stroke-width:1px;"/>
            </g>
            <g transform="matrix(-1,0,0,1,2254.5,-11.45)">
                <path d="M616.95,205.65L605.766,173.694L574.272,167.829L580.9,139.039L556.523,136.278L562.327,103.744L529.016,96.834L525.55,68.55L411.3,68.55L365.6,114.25L365.6,137.1L379.139,157.268L410.169,157.629L419.003,186.477L442.812,184.624L457,205.65L616.95,205.65Z" style="fill:rgb(1,80,1);stroke:rgb(1,80,1);stroke-width:1px;"/>
            </g>
        </g>
        <g id="Layer15">
            <g transform="matrix(1,0,0,1,-30.5,-11.45)">
                <path d="M616.95,1073.95L616.95,685.5L571.25,662.65L457,616.95L411.3,754.05L411.3,1028.25L426.533,1073.95L457,1119.65L479.85,1142.5L571.25,1165.35L1096.8,1165.35L1096.8,1119.65L959.7,1119.65L959.7,1073.95L616.95,1073.95Z" style="fill:rgb(78,96,238);stroke:rgb(78,96,238);stroke-width:1px;"/>
            </g>
            <g transform="matrix(-1,0,0,1,2254.5,-11.45)">
                <path d="M616.95,1073.95L616.95,685.5L571.25,662.65L457,616.95L411.3,754.05L411.3,1028.25L426.533,1073.95L457,1119.65L479.85,1142.5L571.25,1165.35L1096.8,1165.35L1096.8,1119.65L959.7,1119.65L959.7,1073.95L616.95,1073.95Z" style="fill:rgb(78,96,238);stroke:rgb(78,96,238);stroke-width:1px;"/>
            </g>
        </g>
        <g id="Layer14">
            <g transform="matrix(1,0,0,1,-30.5,-11.45)">
                <path d="M731.2,434.15L914,251.35L914,205.65L845.45,205.65L708.35,365.6L731.2,434.15Z" style="fill:rgb(67,95,174);stroke:rgb(67,95,174);stroke-width:1px;"/>
            </g>
            <g transform="matrix(-1,0,0,1,2254.5,-11.45)">
                <path d="M731.2,434.15L914,251.35L914,205.65L845.45,205.65L708.35,365.6L731.2,434.15Z" style="fill:rgb(67,95,174);stroke:rgb(67,95,174);stroke-width:1px;"/>
            </g>
            <g transform="matrix(1,0,0,1,-30.5,-11.45)">
                <path d="M868.3,388.45L891.15,342.75L982.55,342.75L1028.25,434.15L1028.25,548.4L936.85,548.4L868.3,388.45Z" style="fill:rgb(67,95,174);stroke:rgb(67,95,174);stroke-width:1px;"/>
            </g>
            <g transform="matrix(-1,0,0,1,2254.5,-11.45)">
                <path d="M868.3,388.45L891.15,342.75L982.55,342.75L1028.25,434.15L1028.25,548.4L936.85,548.4L868.3,388.45Z" style="fill:rgb(67,95,174);stroke:rgb(67,95,174);stroke-width:1px;"/>
            </g>
            <g transform="matrix(1,0,0,1,-30.5,-11.45)">
                <path d="M1073.95,548.4L1073.95,388.45L1096.8,388.45L1142.5,434.15L1188.2,388.45L1211.05,388.45L1211.05,548.4L1073.95,548.4Z" style="fill:rgb(67,95,174);stroke:rgb(67,95,174);stroke-width:1px;"/>
            </g>
            <g transform="matrix(1,0,0,1,-30.5,-11.45)">
                <rect x="822.6" y="639.8" width="68.55" height="137.1" style="fill:rgb(67,95,174);stroke:rgb(67,95,174);stroke-width:1px;"/>
            </g>
            <g transform="matrix(-1,0,0,1,2254.5,-11.45)">
                <rect x="822.6" y="639.8" width="68.55" height="137.1" style="fill:rgb(67,95,174);stroke:rgb(67,95,174);stroke-width:1px;"/>
            </g>
            <g transform="matrix(1,0,0,1,-30.5,-11.45)">
                <path d="M891.15,959.7L982.55,959.7L1005.4,1028.25L891.15,1028.25L891.15,959.7Z" style="fill:rgb(67,95,174);stroke:rgb(67,95,174);stroke-width:1px;"/>
            </g>
            <g transform="matrix(-1,0,0,1,2254.5,-11.45)">
                <path d="M891.15,959.7L982.55,959.7L1005.4,1028.25L891.15,1028.25L891.15,959.7Z" style="fill:rgb(67,95,174);stroke:rgb(67,95,174);stroke-width:1px;"/>
            </g>
        </g>
        <g transform="matrix(1,0,0,1,-30.5,-11.45)">
            <g id="Layer10">
                <path d="M1051.1,891.15L1051.1,1028.25L1005.4,1028.25L959.7,982.55L914,914L891.15,822.6L868.3,754.05L868.3,639.8L891.15,594.1L959.7,548.4L1005.4,525.55L1279.6,525.55L1325.3,548.4L1393.85,594.1L1416.7,639.8L1416.7,754.05L1393.85,822.6L1371,914L1325.3,982.55L1279.6,1028.25L1233.9,1028.25L1233.9,891.15L1188.2,845.45L1096.8,845.45L1051.1,891.15Z" style="fill:rgb(1,32,160);stroke:rgb(1,32,160);stroke-width:1px;"/>
            </g>
        </g>
        <g id="Layer11">
            <g transform="matrix(1,0,0,1,-30.5,-11.45)">
                <path d="M868.3,662.65L959.7,548.4L959.7,457L936.85,388.45L868.3,388.45L822.6,525.55L822.6,662.65L868.3,662.65Z" style="fill:rgb(207,159,77);stroke:rgb(207,159,77);stroke-width:1px;"/>
            </g>
            <g transform="matrix(-1,0,0,1,2254.5,-11.45)">
                <path d="M868.3,662.65L959.7,548.4L959.7,457L936.85,388.45L868.3,388.45L822.6,525.55L822.6,662.65L868.3,662.65Z" style="fill:rgb(207,159,77);stroke:rgb(207,159,77);stroke-width:1px;"/>
            </g>
            <g transform="matrix(1,0,0,1,-30.5,-11.45)">
                <path d="M1005.4,525.55L1005.4,434.15L959.7,342.75L891.15,342.75L914,297.05L959.7,251.35L1005.4,159.95L1073.95,68.55L1096.8,68.55L1096.8,159.95L1051.1,297.05L1051.1,342.75L1096.8,388.45L1096.8,525.55L1005.4,525.55Z" style="fill:rgb(207,159,77);stroke:rgb(207,159,77);stroke-width:1px;"/>
            </g>
            <g transform="matrix(-1,0,0,1,2254.5,-11.45)">
                <path d="M1005.4,525.55L1005.4,434.15L959.7,342.75L891.15,342.75L914,297.05L959.7,251.35L1005.4,159.95L1073.95,68.55L1096.8,68.55L1096.8,159.95L1051.1,297.05L1051.1,342.75L1096.8,388.45L1096.8,525.55L1005.4,525.55Z" style="fill:rgb(207,159,77);stroke:rgb(207,159,77);stroke-width:1px;"/>
            </g>
            <g transform="matrix(1,0,0,1,-30.5,-11.45)">
                <path d="M822.6,731.2L868.3,731.2L959.7,959.7L959.7,982.55L914,1028.25L868.3,1028.25L822.6,982.55L822.6,731.2Z" style="fill:rgb(207,159,77);stroke:rgb(207,159,77);stroke-width:1px;"/>
            </g>
            <g transform="matrix(-1,0,0,1,2254.5,-11.45)">
                <path d="M822.6,731.2L868.3,731.2L959.7,959.7L959.7,982.55L914,1028.25L868.3,1028.25L822.6,982.55L822.6,731.2Z" style="fill:rgb(207,159,77);stroke:rgb(207,159,77);stroke-width:1px;"/>
            </g>
            <g transform="matrix(1,0,0,1,-30.5,-11.45)">
                <path d="M1096.8,1005.4L1096.8,936.85L1119.65,891.15L1165.35,891.15L1188.2,936.85L1188.2,1005.4L1142.5,1073.95L1096.8,1005.4Z" style="fill:rgb(207,159,77);stroke:rgb(207,159,77);stroke-width:1px;"/>
            </g>
            <g transform="matrix(1,0,0,1,-30.5,-11.45)">
                <path d="M1119.65,1530.95L1051.1,1485.25L1051.1,1416.7L1073.95,1393.85L1211.05,1393.85L1233.9,1416.7L1233.9,1485.25L1165.35,1530.95L1119.65,1530.95Z" style="fill:rgb(207,159,77);stroke:rgb(207,159,77);stroke-width:1px;"/>
            </g>
            <g transform="matrix(1,0,0,1,-30.5,-11.45)">
                <path d="M411.3,1599.5L411.3,1233.9L434.15,1211.05L548.4,1211.05L685.5,1348.15L776.9,1348.15L914,1393.85L959.7,1416.7L1005.4,1485.25L1028.25,1485.25L1028.25,1530.95L1005.4,1530.95L959.7,1576.65L799.75,1576.65L685.5,1485.25L594.1,1371L571.25,1348.15L548.4,1348.15L548.4,1599.5L411.3,1599.5Z" style="fill:rgb(207,159,77);stroke:rgb(207,159,77);stroke-width:1px;"/>
            </g>
            <g transform="matrix(-1,0,0,1,2254.5,-11.45)">
                <path d="M411.3,1599.5L411.3,1233.9L434.15,1211.05L548.4,1211.05L685.5,1348.15L776.9,1348.15L914,1393.85L959.7,1416.7L1005.4,1485.25L1028.25,1485.25L1028.25,1530.95L1005.4,1530.95L959.7,1576.65L799.75,1576.65L685.5,1485.25L594.1,1371L571.25,1348.15L548.4,1348.15L548.4,1599.5L411.3,1599.5Z" style="fill:rgb(207,159,77);stroke:rgb(207,159,77);stroke-width:1px;"/>
            </g>
            <g transform="matrix(1,0,0,1,-30.5,-11.45)">
                <path d="M822.6,1211.05L1005.4,1211.05L1005.4,1233.9L914,1302.45L822.6,1233.9L822.6,1211.05Z" style="fill:rgb(207,159,77);stroke:rgb(207,159,77);stroke-width:1px;"/>
            </g>
            <g transform="matrix(-1,0,0,1,2254.5,-11.45)">
                <path d="M822.6,1211.05L1005.4,1211.05L1005.4,1233.9L914,1302.45L822.6,1233.9L822.6,1211.05Z" style="fill:rgb(207,159,77);stroke:rgb(207,159,77);stroke-width:1px;"/>
            </g>
            <g transform="matrix(1,0,0,1,-30.5,-11.45)">
                <path d="M685.5,616.95L685.5,319.9L776.9,205.65L868.3,205.65L868.3,228.5L731.2,365.6L731.2,616.95L685.5,616.95Z" style="fill:rgb(207,159,77);stroke:rgb(207,159,77);stroke-width:1px;"/>
            </g>
            <g transform="matrix(-1,0,0,1,2254.5,-11.45)">
                <path d="M685.5,616.95L685.5,319.9L776.9,205.65L868.3,205.65L868.3,228.5L731.2,365.6L731.2,616.95L685.5,616.95Z" style="fill:rgb(207,159,77);stroke:rgb(207,159,77);stroke-width:1px;"/>
            </g>
        </g>
        <g id="Layer12">
            <g transform="matrix(1,0,0,1,-30.5,-11.45)">
                <rect x="457" y="1325.3" width="91.4" height="228.5" style="fill:rgb(155,111,72);stroke:rgb(155,111,72);stroke-width:1px;"/>
            </g>
            <g transform="matrix(-1,0,0,1,2254.5,-11.45)">
                <rect x="457" y="1325.3" width="91.4" height="228.5" style="fill:rgb(155,111,72);stroke:rgb(155,111,72);stroke-width:1px;"/>
            </g>
        </g>
        <g id="Layer13">
            <g transform="matrix(1,0,0,1,-30.5,-11.45)">
                <rect x="457" y="1256.75" width="91.4" height="91.4" style="fill:rgb(30,1,17);stroke:rgb(30,1,17);stroke-width:1px;"/>
            </g>
            <g transform="matrix(-1,0,0,1,2254.5,-11.45)">
                <rect x="457" y="1256.75" width="91.4" height="91.4" style="fill:rgb(30,1,17);stroke:rgb(30,1,17);stroke-width:1px;"/>
            </g>
            <g transform="matrix(1,0,0,1,-30.5,-11.45)">
                <rect x="457" y="1393.85" width="91.4" height="91.4" style="fill:rgb(30,1,17);stroke:rgb(30,1,17);stroke-width:1px;"/>
            </g>
            <g transform="matrix(-1,0,0,1,2254.5,-11.45)">
                <rect x="457" y="1393.85" width="91.4" height="91.4" style="fill:rgb(30,1,17);stroke:rgb(30,1,17);stroke-width:1px;"/>
            </g>
            <g transform="matrix(1,0,0,1,-30.5,-11.45)">
                <path d="M525.55,1530.95L479.85,1530.95L457,1553.8L411.3,1576.65L365.6,1622.35L548.4,1622.35L548.4,1530.95L525.55,1530.95Z" style="fill:rgb(30,1,17);stroke:rgb(30,1,17);stroke-width:1px;"/>
            </g>
            <g transform="matrix(-1,0,0,1,2254.5,-11.45)">
                <path d="M525.55,1530.95L479.85,1530.95L457,1553.8L411.3,1576.65L365.6,1622.35L548.4,1622.35L548.4,1530.95L525.55,1530.95Z" style="fill:rgb(30,1,17);stroke:rgb(30,1,17);stroke-width:1px;"/>
            </g>
        </g>
        <g id="Layer9">
            <g transform="matrix(1,0,0,1,-30.5,-11.45)">
                <path d="M914,1439.55L776.9,1393.85L685.5,1393.85L731.2,1462.4L822.6,1530.95L959.7,1530.95L959.7,1485.25L914,1439.55Z" style="fill:rgb(158,64,226);stroke:rgb(158,64,226);stroke-width:1px;"/>
            </g>
            <g transform="matrix(-1,0,0,1,2254.5,-11.45)">
                <path d="M914,1439.55L776.9,1393.85L685.5,1393.85L731.2,1462.4L822.6,1530.95L959.7,1530.95L959.7,1485.25L914,1439.55Z" style="fill:rgb(158,64,226);stroke:rgb(158,64,226);stroke-width:1px;"/>
            </g>
            <g transform="matrix(1,0,0,1,-30.5,-11.45)">
                <path d="M616.95,1439.55L639.8,1462.4L639.8,1576.65L594.1,1622.35L548.4,1622.35L548.4,1439.55L616.95,1439.55Z" style="fill:rgb(158,64,226);stroke:rgb(158,64,226);stroke-width:1px;"/>
            </g>
            <g transform="matrix(-1,0,0,1,2254.5,-11.45)">
                <path d="M616.95,1439.55L639.8,1462.4L639.8,1576.65L594.1,1622.35L548.4,1622.35L548.4,1439.55L616.95,1439.55Z" style="fill:rgb(158,64,226);stroke:rgb(158,64,226);stroke-width:1px;"/>
            </g>
            <g transform="matrix(1,0,0,1,-30.5,-11.45)">
                <path d="M731.2,1096.8L685.5,1028.25L685.5,731.2L639.8,685.5L585.703,671.878L594.88,705.41L585.098,728.731L594.67,754.962L579.611,794.909L584.2,834L589.993,912.223L566.269,949.926L553.288,981.55L560.407,1027.01L586.483,1073.95L616.95,1096.8L669.156,1089.12L695.201,1101.47L731.2,1096.8Z" style="fill:rgb(158,64,226);stroke:rgb(158,64,226);stroke-width:1px;"/>
            </g>
            <g transform="matrix(-1,0,0,1,2254.5,-11.45)">
                <path d="M731.2,1096.8L685.5,1028.25L685.5,731.2L639.8,685.5L585.703,671.878L594.88,705.41L585.098,728.731L594.67,754.962L579.611,794.909L584.2,834L589.993,912.223L566.269,949.926L553.288,981.55L560.407,1027.01L586.483,1073.95L616.95,1096.8L669.156,1089.12L695.201,1101.47L731.2,1096.8Z" style="fill:rgb(158,64,226);stroke:rgb(158,64,226);stroke-width:1px;"/>
            </g>
            <g transform="matrix(1,0,0,1,-30.5,-11.45)">
                <path d="M685.5,616.95L639.8,571.25L616.95,479.85L616.95,342.75L754.05,205.65L776.9,205.65L776.9,251.35L685.5,342.75L685.5,616.95Z" style="fill:rgb(158,64,226);stroke:rgb(158,64,226);stroke-width:1px;"/>
            </g>
            <g transform="matrix(-1,0,0,1,2254.5,-11.45)">
                <path d="M685.5,616.95L639.8,571.25L616.95,479.85L616.95,342.75L754.05,205.65L776.9,205.65L776.9,251.35L685.5,342.75L685.5,616.95Z" style="fill:rgb(158,64,226);stroke:rgb(158,64,226);stroke-width:1px;"/>
            </g>
            <g transform="matrix(1,0,0,1,-30.5,-11.45)">
                <path d="M1051.1,891.15L1005.4,799.75L1005.4,616.95L1096.8,754.05L1096.8,868.3L1073.95,891.15L1051.1,891.15Z" style="fill:rgb(158,64,226);stroke:rgb(158,64,226);stroke-width:1px;"/>
            </g>
            <g transform="matrix(-1,0,0,1,2254.5,-11.45)">
                <path d="M1051.1,891.15L1005.4,799.75L1005.4,616.95L1096.8,754.05L1096.8,868.3L1073.95,891.15L1051.1,891.15Z" style="fill:rgb(158,64,226);stroke:rgb(158,64,226);stroke-width:1px;"/>
            </g>
        </g>
        <g transform="matrix(1,0,0,1,-30.5,-11.45)">
            <g id="Layer17">
                <path d="M1119.65,1348.15L1096.8,1325.3L1096.8,1165.35L1096.8,1142.5L1073.95,1119.65L959.7,1119.65L731.2,1096.8L685.5,1067.42L411.3,1028.25L411.3,936.85L662.65,978.742L685.5,959.7L685.5,914L662.65,887.342L411.3,845.45L411.3,754.05L662.65,816.888L685.5,799.75L685.5,754.05L662.65,719.775L457,616.95L502.7,571.25L708.35,653.51L731.2,685.5L731.2,1005.4L754.05,1032.82L959.7,1073.95L1073.95,1073.95L1119.65,1096.8L1142.5,1165.35L1165.35,1096.8L1211.05,1073.95L1325.3,1073.95L1530.95,1032.82L1553.8,1005.4L1553.8,685.5L1576.65,653.51L1782.3,571.25L1828,616.95L1622.35,719.775L1599.5,754.05L1599.5,799.75L1622.35,816.888L1873.7,754.05L1873.7,845.45L1622.35,887.342L1599.5,914L1599.5,959.7L1622.35,978.742L1873.7,936.85L1873.7,1028.25L1599.5,1067.42L1553.8,1096.8L1325.3,1119.65L1211.05,1119.65L1188.2,1142.5L1188.2,1325.3L1165.35,1348.15L1119.65,1348.15Z" style="fill:rgb(207,159,77);stroke:rgb(207,159,77);stroke-width:1px;"/>
            </g>
        </g>
    </g>
</svg>
