<?xml version="1.0" encoding="UTF-8" standalone="no"?>
<!DOCTYPE svg PUBLIC "-//W3C//DTD SVG 1.1//EN" "http://www.w3.org/Graphics/SVG/1.1/DTD/svg11.dtd">
<svg width="100%" height="100%" viewBox="0 0 4634 3475" version="1.1" xmlns="http://www.w3.org/2000/svg" xmlns:xlink="http://www.w3.org/1999/xlink" xml:space="preserve" xmlns:serif="http://www.serif.com/" style="fill-rule:evenodd;clip-rule:evenodd;stroke-linecap:round;stroke-linejoin:round;stroke-miterlimit:1.5;">
    <g transform="matrix(2.08333,0,0,2.08333,0,0)">
        <g id="Layer3" transform="matrix(-1,0,0,1,2255,-4.2)">
            <g transform="matrix(-1,0,0,1,2324.1,-1.42109e-13)">
                <path d="M933.45,1143L952.5,609.6L990.6,533.4L1104.9,514.35L1219.2,514.35L1333.5,533.4L1371.6,609.6L1390.65,1143L933.45,1143Z" style="fill:rgb(88,50,30);stroke:rgb(88,50,30);stroke-width:1px;"/>
            </g>
            <g transform="matrix(-1,0,0,1,2324.1,-1.42109e-13)">
                <path d="M838.2,1352.55L819.15,1333.5L800.1,1314.45L781.05,1276.35L762,1219.2L762,1085.85L647.7,1085.85L685.8,1257.3L723.9,1333.5L762,1371.6L800.1,1485.9L800.1,1543.05L781.05,1562.1L723.9,1562.1L647.7,1600.2L609.6,1600.2L495.3,1562.1L457.2,1524L457.2,952.5L533.4,876.3L571.5,857.25L628.65,800.1L647.7,762L723.9,685.8L876.3,685.8L857.25,1047.75L838.2,1295.4L838.2,1352.55Z" style="fill:rgb(88,50,30);stroke:rgb(88,50,30);stroke-width:1px;"/>
            </g>
            <g transform="matrix(1,0,0,1,-38.1,-1.42109e-13)">
                <path d="M838.2,1333.5L819.15,1333.5L800.1,1314.45L781.05,1276.35L762,1219.2L762,1085.85L647.7,1085.85L685.8,1257.3L723.9,1333.5L762,1371.6L800.1,1485.9L800.1,1543.05L781.05,1562.1L723.9,1562.1L647.7,1600.2L609.6,1600.2L495.3,1562.1L457.2,1524L457.2,952.5L533.4,876.3L723.9,685.8L876.3,685.8L857.25,1047.75L838.2,1295.4L838.2,1333.5Z" style="fill:rgb(88,50,30);stroke:rgb(88,50,30);stroke-width:1px;"/>
            </g>
        </g>
        <g id="Layer6" transform="matrix(1,0,0,1,-69.1,-4.2)">
            <path d="M895.35,1447.8L895.35,1485.9L914.4,1524L952.5,1562.1L990.6,1562.1L1066.8,1485.9L1066.8,1447.8L895.35,1447.8Z" style="fill:rgb(184,102,6);stroke:rgb(184,102,6);stroke-width:1px;"/>
            <path d="M1257.3,1447.8L1257.3,1485.9L1333.5,1562.1L1371.6,1562.1L1409.7,1524L1428.75,1485.9L1428.75,1447.8L1257.3,1447.8Z" style="fill:rgb(184,102,6);stroke:rgb(184,102,6);stroke-width:1px;"/>
            <path d="M533.4,1409.7L495.3,1409.7L419.1,1371.6L400.05,1352.55L400.05,1333.5L514.35,1333.5L533.4,1352.55L533.4,1409.7Z" style="fill:rgb(184,102,6);stroke:rgb(184,102,6);stroke-width:1px;"/>
            <g transform="matrix(-1,0,0,1,2362.2,-1.42109e-13)">
                <path d="M533.4,1409.7L495.3,1409.7L419.1,1371.6L400.05,1352.55L400.05,1333.5L514.35,1333.5L533.4,1352.55L533.4,1409.7Z" style="fill:rgb(184,102,6);stroke:rgb(184,102,6);stroke-width:1px;"/>
            </g>
            <path d="M495.3,1085.85L476.25,1104.9L400.05,1104.9L400.05,1085.85L457.2,1028.7L495.3,1028.7L495.3,1085.85Z" style="fill:rgb(184,102,6);stroke:rgb(184,102,6);stroke-width:1px;"/>
            <g transform="matrix(-1,0,0,1,2362.2,-1.42109e-13)">
                <path d="M495.3,1085.85L476.25,1104.9L400.05,1104.9L400.05,1085.85L457.2,1028.7L495.3,1028.7L495.3,1085.85Z" style="fill:rgb(184,102,6);stroke:rgb(184,102,6);stroke-width:1px;"/>
            </g>
            <path d="M628.65,819.15L571.5,876.3L533.4,876.3L495.3,800.1L495.3,704.85L514.35,704.85L533.4,723.9L609.6,762L628.65,781.05L628.65,819.15Z" style="fill:rgb(184,102,6);stroke:rgb(184,102,6);stroke-width:1px;"/>
            <g transform="matrix(-1,0,0,1,2362.2,-1.42109e-13)">
                <path d="M628.65,819.15L571.5,876.3L533.4,876.3L495.3,800.1L495.3,704.85L514.35,704.85L533.4,723.9L609.6,762L628.65,781.05L628.65,819.15Z" style="fill:rgb(184,102,6);stroke:rgb(184,102,6);stroke-width:1px;"/>
            </g>
            <path d="M876.3,685.8L876.3,609.6L800.1,533.4L647.7,457.2L514.35,457.2L514.35,476.25L685.8,647.7L781.05,685.8L876.3,685.8Z" style="fill:rgb(184,102,6);stroke:rgb(184,102,6);stroke-width:1px;"/>
            <g transform="matrix(-1,0,0,1,2362.2,-1.42109e-13)">
                <path d="M876.3,685.8L876.3,609.6L838.2,571.5L685.8,495.3L647.7,457.2L571.5,419.1L476.25,419.1L476.25,438.15L685.8,647.7L781.05,685.8L876.3,685.8Z" style="fill:rgb(184,102,6);stroke:rgb(184,102,6);stroke-width:1px;"/>
            </g>
            <path d="M1104.9,666.75L1104.9,457.2L990.6,114.3L971.55,76.2L952.5,76.2L952.5,438.15L971.55,495.3L990.6,533.4L1028.7,571.5L1066.8,647.7L1085.85,666.75L1104.9,666.75Z" style="fill:rgb(184,102,6);stroke:rgb(184,102,6);stroke-width:1px;"/>
            <path d="M1219.2,666.75L1238.25,666.75L1257.3,647.7L1295.4,571.5L1333.5,533.4L1409.7,381L1409.7,76.2L1390.65,76.2L1257.3,342.9L1238.25,419.1L1219.2,495.3L1219.2,666.75Z" style="fill:rgb(184,102,6);stroke:rgb(184,102,6);stroke-width:1px;"/>
        </g>
        <g id="Layer2" transform="matrix(1,0,0,1,-69.1,-4.2)">
            <path d="M1009.65,1162.05L1314.45,1162.05L1524,1333.5L1504.95,1371.6L1428.75,1447.8L1257.3,1447.8L1257.3,1409.7L1181.1,1333.5L1143,1333.5L1066.8,1409.7L1066.8,1447.8L933.45,1447.8L838.2,1352.55L838.2,1295.4L1009.65,1162.05Z" style="fill:rgb(140,129,86);stroke:rgb(140,129,86);stroke-width:1px;"/>
            <path d="M800.1,1009.65L800.1,952.5L781.05,952.5L647.7,1085.85L647.7,1257.3L685.8,1257.3L685.8,1162.05L723.9,1123.95L762,1104.9L781.05,1066.8L800.1,1009.65Z" style="fill:rgb(140,129,86);stroke:rgb(140,129,86);stroke-width:1px;"/>
            <g transform="matrix(-1,0,0,1,2362.2,-1.42109e-13)">
                <path d="M800.1,1028.7L800.1,952.5L781.05,952.5L647.7,1085.85L647.7,1257.3L685.8,1257.3L685.8,1162.05L723.9,1123.95L762,1104.9L781.05,1066.8L800.1,1028.7Z" style="fill:rgb(140,129,86);stroke:rgb(140,129,86);stroke-width:1px;"/>
            </g>
        </g>
        <g id="Layer5" transform="matrix(1,0,0,1,-69.1,-4.2)">
            <path d="M1085.85,1028.7L1085.85,1009.65L1028.7,952.5L1009.65,952.5L990.6,971.55L990.6,1009.65L1009.65,1028.7L1085.85,1028.7Z" style="fill:rgb(21,177,164);stroke:rgb(21,177,164);stroke-width:1px;"/>
            <path d="M1238.25,1028.7L1238.25,1009.65L1295.4,952.5L1314.45,952.5L1333.5,971.55L1333.5,1009.65L1314.45,1028.7L1238.25,1028.7Z" style="fill:rgb(21,177,164);stroke:rgb(21,177,164);stroke-width:1px;"/>
        </g>
        <g id="Layer4" transform="matrix(1,0,0,1,-69.1,-4.2)">
            <path d="M952.5,857.25L971.55,838.2L990.6,819.15L990.6,762L971.55,723.9L952.5,704.85L952.5,857.25Z" style="fill:rgb(223,127,15);stroke:rgb(223,127,15);stroke-width:1px;"/>
            <g transform="matrix(-1,0,0,1,2324.1,-1.42109e-13)">
                <path d="M952.5,857.25L971.55,838.2L990.6,819.15L990.6,762L971.55,723.9L952.5,704.85L952.5,857.25Z" style="fill:rgb(223,127,15);stroke:rgb(223,127,15);stroke-width:1px;"/>
            </g>
            <path d="M1028.7,857.25L1143,971.55L1181.1,971.55L1295.4,857.25L1295.4,781.05L1276.35,781.05L1181.1,876.3L1143,876.3L1047.75,781.05L1028.7,781.05L1028.7,857.25Z" style="fill:rgb(223,127,15);stroke:rgb(223,127,15);stroke-width:1px;"/>
            <path d="M1143,1333.5L1066.8,1409.7L1066.8,1485.9L1112,1562.1L1143,1600.2L1181.1,1600.2L1219.2,1562.1L1257.3,1485.9L1257.3,1409.7L1181.1,1333.5L1143,1333.5Z" style="fill:rgb(223,127,15);stroke:rgb(223,127,15);stroke-width:1px;"/>
            <path d="M723.9,1600.2L666.75,1600.2L647.7,1581.15L647.7,1543.05L704.85,1485.9L723.9,1485.9L723.9,1600.2Z" style="fill:rgb(223,127,15);stroke:rgb(223,127,15);stroke-width:1px;"/>
            <g transform="matrix(-1,0,0,1,2362.2,-1.42109e-13)">
                <path d="M723.9,1600.2L704.85,1619.25L666.75,1619.25L647.7,1600.2L647.7,1524L704.85,1466.85L723.9,1466.85L723.9,1600.2Z" style="fill:rgb(223,127,15);stroke:rgb(223,127,15);stroke-width:1px;"/>
            </g>
            <path d="M609.6,1600.2L552.45,1600.2L533.4,1581.15L533.4,1543.05L590.55,1485.9L609.6,1485.9L609.6,1600.2Z" style="fill:rgb(223,127,15);stroke:rgb(223,127,15);stroke-width:1px;"/>
            <g transform="matrix(-1,0,0,1,2362.2,-1.42109e-13)">
                <path d="M609.6,1600.2L590.55,1619.25L552.45,1619.25L533.4,1600.2L533.4,1524L590.55,1466.85L609.6,1466.85L609.6,1600.2Z" style="fill:rgb(223,127,15);stroke:rgb(223,127,15);stroke-width:1px;"/>
            </g>
            <path d="M495.3,1257.3L400.05,1257.3L400.05,1238.25L457.2,1181.1L476.25,1181.1L495.3,1200.15L495.3,1257.3Z" style="fill:rgb(223,127,15);stroke:rgb(223,127,15);stroke-width:1px;"/>
            <g transform="matrix(-1,0,0,1,2362.2,-1.42109e-13)">
                <path d="M495.3,1257.3L400.05,1257.3L400.05,1238.25L457.2,1181.1L476.25,1162.05L495.3,1181.1L495.3,1257.3Z" style="fill:rgb(223,127,15);stroke:rgb(223,127,15);stroke-width:1px;"/>
            </g>
            <path d="M476.25,952.5L457.2,952.5L419.1,914.4L419.1,819.15L438.15,819.15L495.3,876.3L533.4,876.3L533.4,895.35L476.25,952.5Z" style="fill:rgb(223,127,15);stroke:rgb(223,127,15);stroke-width:1px;"/>
            <g transform="matrix(-1,0,0,1,2362.2,-1.42109e-13)">
                <path d="M476.25,952.5L457.2,952.5L419.1,914.4L419.1,819.15L438.15,819.15L495.3,876.3L533.4,876.3L533.4,895.35L476.25,952.5Z" style="fill:rgb(223,127,15);stroke:rgb(223,127,15);stroke-width:1px;"/>
            </g>
            <path d="M876.3,552.45L800.1,514.35L762,476.25L742.95,438.15L685.8,266.7L685.8,171.45L704.85,171.45L838.2,304.8L876.3,381L952.5,457.2L952.5,533.4L933.45,552.45L876.3,552.45Z" style="fill:rgb(223,127,15);stroke:rgb(223,127,15);stroke-width:1px;"/>
            <g transform="matrix(-1,0,0,1,2362.2,-1.42109e-13)">
                <path d="M876.3,533.4L838.2,514.35L781.05,457.2L742.95,381L704.85,266.7L685.8,228.6L685.8,190.5L704.85,190.5L857.25,342.9L876.3,381L933.45,457.2L952.5,495.3L952.5,514.35L933.45,533.4L876.3,533.4Z" style="fill:rgb(223,127,15);stroke:rgb(223,127,15);stroke-width:1px;"/>
            </g>
            <path d="M1143,609.6L1104.9,419.1L1104.9,266.7L1123.95,152.4L1143,76.2L1162.05,57.15L1181.1,57.15L1200.15,133.35L1219.2,190.5L1219.2,381L1200.15,476.25L1181.1,609.6L1143,609.6Z" style="fill:rgb(223,127,15);stroke:rgb(223,127,15);stroke-width:1px;"/>
            <path d="M800.1,1333.5L704.85,1333.5L685.8,1295.4L685.8,1257.3L704.85,1200.15L723.9,1143L762,1104.9L781.05,1219.2L800.1,1276.35L819.15,1314.45L838.2,1333.5L838.2,1352.55L933.45,1447.8L857.25,1466.85L819.15,1485.9L781.05,1485.9L762,1428.75L762,1409.7L800.1,1333.5Z" style="fill:rgb(223,127,15);stroke:rgb(223,127,15);stroke-width:1px;"/>
            <g transform="matrix(-1,0,0,1,2362.2,-1.42109e-13)">
                <path d="M800.1,1333.5L704.85,1333.5L685.8,1295.4L685.8,1257.3L704.85,1200.15L723.9,1143L762,1104.9L781.05,1219.2L800.1,1276.35L819.15,1314.45L838.2,1333.5L857.25,1371.6L933.45,1447.8L857.25,1466.85L819.15,1485.9L781.05,1485.9L762,1428.75L762,1409.7L800.1,1333.5Z" style="fill:rgb(223,127,15);stroke:rgb(223,127,15);stroke-width:1px;"/>
            </g>
            <path d="M781.05,685.8L781.05,666.75L762,647.7L590.55,647.7L590.55,666.75L609.6,685.8L647.7,762L666.75,762L742.95,685.8L781.05,685.8Z" style="fill:rgb(223,127,15);stroke:rgb(223,127,15);stroke-width:1px;"/>
            <g transform="matrix(-1,0,0,1,2362.2,-1.42109e-13)">
                <path d="M781.05,685.8L781.05,666.75L762,647.7L590.55,647.7L590.55,666.75L609.6,685.8L647.7,762L666.75,762L742.95,685.8L781.05,685.8Z" style="fill:rgb(223,127,15);stroke:rgb(223,127,15);stroke-width:1px;"/>
            </g>
            <path d="M800.1,1485.9L838.2,1485.9L933.45,1581.15L933.45,1600.2L781.05,1600.2L762,1581.15L762,1562.1L781.05,1562.1L800.1,1543.05L800.1,1485.9Z" style="fill:rgb(223,127,15);stroke:rgb(223,127,15);stroke-width:1px;"/>
            <g transform="matrix(-1,0,0,1,2362.2,-1.42109e-13)">
                <path d="M800.1,1485.9L838.2,1485.9L933.45,1581.15L933.45,1600.2L781.05,1600.2L762,1581.15L762,1562.1L781.05,1562.1L800.1,1543.05L800.1,1485.9Z" style="fill:rgb(223,127,15);stroke:rgb(223,127,15);stroke-width:1px;"/>
            </g>
        </g>
        <g id="Layer1" transform="matrix(1,0,0,1,-69.1,-4.2)">
            <path d="M838.2,1320.76L857.25,1297.52L1009.65,1162.05L1009.65,1143L971.55,1066.8L952.5,571.5L933.45,571.5L914.4,609.6L876.3,723.9L857.25,914.4L838.2,1047.75L838.2,1320.76Z" style="fill:rgb(232,193,57);stroke:rgb(232,193,57);stroke-width:1px;"/>
            <g transform="matrix(-1,0,0,1,2324.1,-1.42109e-13)">
                <path d="M810.748,1352.55L1009.65,1162.05L1009.65,1143L971.55,1066.8L952.5,533.4L914.4,571.5L895.35,609.6L838.2,723.9L819.15,971.55L800.1,1047.75L800.1,1333.5L810.748,1352.55Z" style="fill:rgb(232,193,57);stroke:rgb(232,193,57);stroke-width:1px;"/>
            </g>
            <g transform="matrix(1,0,0,1,5.68434e-14,19.05)">
                <path d="M1028.7,1047.75L1066.8,1085.85L1104.9,1104.9L1143,1143L1143,1181.1L1066.8,1257.3L1047.75,1257.3L1028.7,1143L1028.7,1047.75Z" style="fill:rgb(232,193,57);stroke:rgb(232,193,57);stroke-width:1px;"/>
            </g>
            <g transform="matrix(-1,0,0,1,2324.1,19.05)">
                <path d="M1028.7,1047.75L1066.8,1085.85L1104.9,1104.9L1143,1143L1143,1181.1L1066.8,1257.3L1047.75,1257.3L1028.7,1143L1028.7,1047.75Z" style="fill:rgb(232,193,57);stroke:rgb(232,193,57);stroke-width:1px;"/>
            </g>
        </g>
    </g>
</svg>
