<?xml version="1.0" encoding="UTF-8" standalone="no"?>
<!DOCTYPE svg PUBLIC "-//W3C//DTD SVG 1.1//EN" "http://www.w3.org/Graphics/SVG/1.1/DTD/svg11.dtd">
<svg width="100%" height="100%" viewBox="0 0 4634 3475" version="1.1" xmlns="http://www.w3.org/2000/svg" xmlns:xlink="http://www.w3.org/1999/xlink" xml:space="preserve" xmlns:serif="http://www.serif.com/" style="fill-rule:evenodd;clip-rule:evenodd;stroke-linecap:round;stroke-linejoin:round;stroke-miterlimit:1.5;">
    <g transform="matrix(2.08333,0,0,2.08333,0,0)">
        <g id="Layer16">
            <g transform="matrix(0.833083,-0.553148,0.553148,0.833083,-383.789,334.129)">
                <path d="M411.3,731.2L411.3,776.9L434.15,799.75L434.15,776.9L457,754.05L457,731.2L411.3,731.2Z" style="fill:rgb(209,209,195);stroke:rgb(209,209,195);stroke-width:1px;"/>
            </g>
            <g transform="matrix(1,0,0,1,60.9,-80)">
                <path d="M411.3,731.2L411.3,776.9L434.15,799.75L434.15,776.9L457,754.05L457,731.2L411.3,731.2Z" style="fill:rgb(209,209,195);stroke:rgb(209,209,195);stroke-width:1px;"/>
            </g>
            <g transform="matrix(1,0,0,1,152.3,-102.85)">
                <path d="M411.3,731.2L411.3,776.9L434.15,799.75L434.15,776.9L457,754.05L457,731.2L411.3,731.2Z" style="fill:rgb(209,209,195);stroke:rgb(209,209,195);stroke-width:1px;"/>
            </g>
            <g transform="matrix(1,0,0,-1,198,1530.93)">
                <path d="M411.3,731.2L411.3,776.9L434.15,799.75L434.15,776.9L457,754.05L457,731.2L411.3,731.2Z" style="fill:rgb(209,209,195);stroke:rgb(209,209,195);stroke-width:1px;"/>
            </g>
            <g transform="matrix(1,0,0,-1,106.6,1565.2)">
                <path d="M411.3,731.2L411.3,776.9L434.15,799.75L434.15,776.9L457,754.05L457,731.2L411.3,731.2Z" style="fill:rgb(209,209,195);stroke:rgb(209,209,195);stroke-width:1px;"/>
            </g>
        </g>
        <g id="Layer17">
            <g transform="matrix(1,0,0,1,-30.5,-11.45)">
                <path d="M1713.75,776.9L1736.6,662.65L1782.3,616.95L1828,548.4L1896.55,548.4L1828,639.8L1805.15,685.5L1805.15,708.35L1850.85,776.9L1713.75,776.9Z" style="fill:rgb(130,161,128);stroke:rgb(130,161,128);stroke-width:1px;"/>
            </g>
            <g transform="matrix(1,0,0,1,-30.5,217.05)">
                <path d="M1713.75,776.9L1736.6,662.65L1782.3,616.95L1828,548.4L1896.55,548.4L1828,639.8L1805.15,685.5L1805.15,708.35L1850.85,776.9L1713.75,776.9Z" style="fill:rgb(130,161,128);stroke:rgb(130,161,128);stroke-width:1px;"/>
            </g>
            <g transform="matrix(1,0,0,1,-30.5,445.55)">
                <path d="M1713.75,776.9L1736.6,662.65L1782.3,616.95L1828,548.4L1896.55,548.4L1828,639.8L1805.15,685.5L1805.15,708.35L1850.85,776.9L1713.75,776.9Z" style="fill:rgb(130,161,128);stroke:rgb(130,161,128);stroke-width:1px;"/>
            </g>
            <g transform="matrix(1,0,0,1,-30.5,674.05)">
                <path d="M1713.75,776.9L1736.6,662.65L1782.3,616.95L1828,548.4L1896.55,548.4L1828,639.8L1805.15,685.5L1805.15,708.35L1850.85,799.75L1713.75,776.9Z" style="fill:rgb(130,161,128);stroke:rgb(130,161,128);stroke-width:1px;"/>
            </g>
            <g transform="matrix(6.12323e-17,1,-1,6.12323e-17,2414.45,-239.95)">
                <path d="M1713.75,776.9L1736.6,662.65L1759.45,616.95L1782.3,594.1L1841.39,579.083L1815.7,639.8L1805.15,685.5L1828,731.2L1850.85,754.05L1850.85,799.75L1713.75,776.9Z" style="fill:rgb(130,161,128);stroke:rgb(130,161,128);stroke-width:1px;"/>
            </g>
            <g transform="matrix(1,0,0,1,-30.5,-11.45)">
                <path d="M1736.6,525.55L1736.6,479.85L1690.9,479.85L1690.9,434.15L1736.6,434.15L1736.6,388.45L1782.3,342.75L1873.7,297.05L1805.15,388.45L1805.15,457L1850.85,548.4L1736.6,525.55Z" style="fill:rgb(130,161,128);stroke:rgb(130,161,128);stroke-width:1px;"/>
            </g>
            <g transform="matrix(1,0,0,1,-30.5,-11.45)">
                <path d="M1736.6,319.9L1736.6,159.95L1782.3,114.25L1828,91.4L1782.3,159.95L1782.3,251.35L1805.15,319.9L1736.6,319.9Z" style="fill:rgb(130,161,128);stroke:rgb(130,161,128);stroke-width:1px;"/>
            </g>
            <g transform="matrix(1,0,0,1,-30.5,-11.45)">
                <path d="M1416.7,205.65L1325.3,297.05L1325.3,342.75L1371,342.75L1485.25,274.2L1472.29,228.5L1485.25,171.93L1530.95,125.255L1477.43,154.554L1416.7,205.65Z" style="fill:rgb(130,161,128);stroke:rgb(130,161,128);stroke-width:1px;"/>
            </g>
            <g transform="matrix(1,0,0,1,-30.5,-11.45)">
                <path d="M1416.7,982.55L1439.55,914L1508.1,891.15L1508.1,982.55L1416.7,982.55Z" style="fill:rgb(130,161,128);stroke:rgb(130,161,128);stroke-width:1px;"/>
            </g>
            <g transform="matrix(1,0,0,1,-30.5,-11.45)">
                <path d="M1051.1,1051.1L1028.25,1211.05L1096.8,1211.05L1142.5,1165.35L1142.5,1142.5L1051.1,1051.1Z" style="fill:rgb(130,161,128);stroke:rgb(130,161,128);stroke-width:1px;"/>
            </g>
            <g transform="matrix(1,0,0,1,-30.5,-11.45)">
                <path d="M1233.9,1005.4L1233.9,1073.95L1188.2,1119.65L1165.35,1119.65L1073.95,1014.61L1233.9,1005.4Z" style="fill:rgb(130,161,128);stroke:rgb(130,161,128);stroke-width:1px;"/>
            </g>
            <g transform="matrix(1,0,0,1,-30.5,-11.45)">
                <path d="M1233.9,982.55L1233.9,845.45L1211.05,845.45L1073.95,982.55L1211.05,1005.4L1233.9,982.55Z" style="fill:rgb(130,161,128);stroke:rgb(130,161,128);stroke-width:1px;"/>
            </g>
        </g>
        <g id="Layer18">
            <g transform="matrix(1,0,0,1,-30.5,-11.45)">
                <path d="M1325.3,616.95L1325.3,685.5L1348.15,708.35L1371,708.35L1416.7,754.05L1416.7,845.45L1371,891.15L1233.9,891.15L1233.9,982.55L1371,982.55L1462.4,936.85L1508.1,845.45L1508.1,708.35L1416.7,616.95L1325.3,616.95Z" style="fill:rgb(160,160,144);stroke:rgb(160,160,144);stroke-width:1px;"/>
            </g>
            <g transform="matrix(1,0,0,1,-30.5,-11.45)">
                <path d="M1051.1,936.85L1005.4,936.85L868.3,1073.95L822.6,1165.35L822.6,1279.6L868.3,1279.6L868.3,1256.75L891.15,1233.9L914,1256.75L914,1279.6L959.7,1279.6L959.7,1165.35L1005.4,1119.65L1028.25,1096.8L1028.25,1028.25L1051.1,982.55L1051.1,936.85Z" style="fill:rgb(160,160,144);stroke:rgb(160,160,144);stroke-width:1px;"/>
            </g>
        </g>
        <g id="Layer8">
            <g transform="matrix(1,0,0,1,-30.5,-11.45)">
                <path d="M685.5,548.4L708.35,525.55L868.3,342.75L959.7,159.95L982.55,159.95L1005.4,205.65L1005.4,274.2L982.55,323.164L845.45,479.85L845.45,502.7L1005.4,342.75L1096.8,205.65L1119.65,205.65L1142.5,251.35L1142.5,365.6L1119.65,411.3L1051.1,479.85L868.3,571.25L822.6,616.95L708.35,616.95L685.5,548.4Z" style="fill:rgb(225,226,207);stroke:rgb(225,226,207);stroke-width:1px;"/>
            </g>
            <g transform="matrix(1,0,0,1,-30.5,-11.45)">
                <path d="M502.7,845.45L485.463,854.205L474.734,873.954L467.891,910.696L476.643,956.126L481.976,969.803L489.187,964.163L493.196,948.694L503.14,929.713L507.169,899.647L514.814,876.551L542.239,862.023L548.4,845.45L502.7,845.45Z" style="fill:rgb(225,226,207);stroke:rgb(225,226,207);stroke-width:1px;"/>
            </g>
            <g transform="matrix(1,0,0,1,-30.5,-11.45)">
                <path d="M731.2,754.05L766.08,798.97L800.941,855.616L840.585,881.334L899.228,884.182L967.576,854.689L1074.35,736.737L1112,717.973L1197.62,703.551L1195.82,681.666L1112,682.447L1034.72,709.52L956.618,806.819L905.886,834L868.3,845.45L839.203,834L809.567,765.083L776.9,708.35L731.2,708.35L731.2,754.05Z" style="fill:rgb(225,226,207);stroke:rgb(225,226,207);stroke-width:1px;"/>
            </g>
            <g transform="matrix(1,0,0,1,-30.5,-11.45)">
                <path d="M1096.8,525.55L1096.8,479.85L1142.5,434.15L1188.2,388.45L1188.2,365.6L1211.05,319.9L1393.85,137.1L1439.55,114.25L1553.8,114.25L1478.61,153.329L1462.4,182.8L1439.55,228.5L1439.55,251.35L1622.35,251.35L1645.2,228.5L1645.2,159.95L1713.75,91.4L1759.45,68.55L1873.7,68.55L1782.3,114.25L1736.6,159.95L1736.6,297.05L1805.15,274.2L1873.7,274.2L1919.4,297.05L1828,319.9L1759.45,388.45L1736.6,434.15L1736.6,479.85L1782.3,525.55L1873.7,525.55L1919.4,548.4L1850.85,571.25L1782.3,616.95L1736.6,685.5L1736.6,731.2L1759.45,754.05L1873.7,754.05L1919.4,776.9L1850.85,799.75L1782.3,845.45L1736.6,914L1736.6,959.7L1759.45,982.55L1873.7,982.55L1919.4,1005.4L1850.85,1028.25L1782.3,1073.95L1736.6,1142.5L1736.6,1188.2L1759.45,1211.05L1873.7,1211.05L1919.4,1233.9L1850.85,1256.75L1782.3,1302.45L1736.6,1371L1736.6,1416.7L1759.45,1439.55L1850.85,1485.25L1873.7,1553.8L1873.7,1622.35L1828,1576.65L1759.45,1553.8L1690.9,1576.65L1645.2,1622.35L1599.5,1622.35L822.6,1622.35L662.65,1530.95L434.15,1530.95L411.3,1508.1L434.15,1485.25L571.25,1485.25L571.25,1439.55L411.3,1439.55L411.3,1371L434.15,1348.15L457,1371L457,1393.85L548.4,1393.85L457,1302.45L411.3,1256.75L411.3,1211.05L457,1211.05L594.1,1348.15L594.1,1256.75L571.25,1256.75L548.4,1233.9L571.25,1211.05L639.8,1211.05L639.8,1279.6L685.5,1279.6L685.5,1233.9L708.35,1211.05L731.2,1233.9L731.2,1485.25L1462.4,1485.25L1599.5,1371L1645.2,708.35L1462.4,525.55L1096.8,525.55Z" style="fill:rgb(225,226,207);stroke:rgb(225,226,207);stroke-width:1px;"/>
            </g>
            <g transform="matrix(1,0,0,1,-30.5,-11.45)">
                <path d="M1485.25,1165.35L1302.45,1165.35L1279.6,1188.2L1302.45,1211.05L1279.6,1256.75L1233.9,1256.75L1211.05,1279.6L1233.9,1302.45L1165.35,1393.85L1119.65,1393.85L1096.8,1416.7L1119.65,1439.55L1393.85,1439.55L1508.1,1302.45L1508.1,1188.2L1485.25,1165.35Z" style="fill:rgb(225,226,207);stroke:rgb(225,226,207);stroke-width:1px;"/>
            </g>
            <g transform="matrix(1,0,0,1,-30.5,-11.45)">
                <path d="M1508.1,891.15L1416.7,982.55L1371,982.55L1508.1,845.45L1508.1,891.15Z" style="fill:rgb(225,226,207);stroke:rgb(225,226,207);stroke-width:1px;"/>
            </g>
            <g transform="matrix(1,0,0,1,-30.5,-11.45)">
                <path d="M1256.75,822.6L1256.75,776.9L1211.05,776.9L1051.1,936.85L1005.4,982.55L1005.4,1256.75L1028.25,1279.6L1051.1,1256.75L1051.1,1211.05L1051.1,1073.95L1165.35,1188.2L1211.05,1188.2L1211.05,1142.5L1188.2,1119.65L1096.8,1028.25L1256.75,1028.25L1279.6,1005.4L1256.75,982.55L1233.9,982.55L1096.8,982.55L1233.9,845.45L1256.75,822.6Z" style="fill:rgb(225,226,207);stroke:rgb(225,226,207);stroke-width:1px;"/>
            </g>
        </g>
        <g id="Layer14">
            <g transform="matrix(1,0,0,1,-30.5,-11.45)">
                <path d="M365.6,731.2L365.6,708.35L411.3,685.5L502.7,616.95L548.4,586.483L594.1,571.25L639.8,662.65L548.4,685.5L457,708.35L411.3,754.05L388.45,754.05L365.6,731.2Z" style="fill:rgb(160,160,144);stroke:rgb(160,160,144);stroke-width:1px;"/>
            </g>
            <g transform="matrix(1,0,0,1,-30.5,-11.45)">
                <path d="M502.7,845.45L479.85,822.6L502.7,822.6L639.8,799.75L685.5,754.05L685.5,685.5L662.65,662.65L685.5,616.95L776.9,616.95L868.3,571.25L936.85,525.55L1051.1,479.85L1142.5,434.15L1188.2,365.6L1188.2,434.15L1142.5,479.85L1096.8,502.7L1096.8,525.55L1462.4,525.55L1553.8,571.25L1599.5,616.95L1645.2,708.35L1645.2,1302.45L1599.5,1393.85L1508.1,1485.25L1416.7,1530.95L822.6,1530.95L731.2,1485.25L1371,1485.25L1462.4,1439.55L1553.8,1348.15L1553.8,708.35L1508.1,639.8L1416.7,571.25L982.55,571.25L936.85,594.1L845.45,685.5L799.75,708.35L754.05,708.35L731.2,731.2L731.2,776.9L708.35,811.175L639.8,845.45L502.7,845.45Z" style="fill:rgb(160,160,144);stroke:rgb(160,160,144);stroke-width:1px;"/>
            </g>
        </g>
        <g id="Layer15">
            <g transform="matrix(1,0,0,1,-30.5,-11.45)">
                <path d="M685.5,1393.85L685.5,1233.9L639.8,1211.05L639.8,1393.85L685.5,1393.85Z" style="fill:rgb(130,161,128);stroke:rgb(130,161,128);stroke-width:1px;"/>
            </g>
            <g transform="matrix(1,0,0,1,-30.5,-11.45)">
                <path d="M594.1,1348.15L594.1,1256.75L502.7,1256.75L594.1,1348.15Z" style="fill:rgb(130,161,128);stroke:rgb(130,161,128);stroke-width:1px;"/>
            </g>
            <g transform="matrix(1,0,0,1,-30.5,-11.45)">
                <path d="M457,1302.45L457,1393.85L548.4,1393.85L502.7,1348.15L457,1302.45Z" style="fill:rgb(130,161,128);stroke:rgb(130,161,128);stroke-width:1px;"/>
            </g>
            <g transform="matrix(1,0,0,1,-30.5,-11.45)">
                <path d="M434.15,1485.25L411.3,1439.55L594.1,1439.55L594.1,1485.25L434.15,1485.25Z" style="fill:rgb(130,161,128);stroke:rgb(130,161,128);stroke-width:1px;"/>
            </g>
            <g transform="matrix(1,0,0,1,-30.5,-11.45)">
                <path d="M822.6,1256.75L822.6,1371L845.45,1416.7L891.15,1439.55L914,1439.55L891.15,1416.7L868.3,1371L868.3,1256.75L822.6,1256.75Z" style="fill:rgb(130,161,128);stroke:rgb(130,161,128);stroke-width:1px;"/>
            </g>
            <g transform="matrix(1,0,0,1,-30.5,-11.45)">
                <path d="M914,1256.75L914,1325.3L936.85,1371L982.55,1393.85L1005.4,1393.85L982.55,1371L959.7,1325.3L959.7,1256.75L914,1256.75Z" style="fill:rgb(130,161,128);stroke:rgb(130,161,128);stroke-width:1px;"/>
            </g>
            <g transform="matrix(1,0,0,1,-30.5,-11.45)">
                <path d="M1233.9,1256.75L1302.45,1211.05L1462.4,1211.05L1462.4,1233.9L1439.55,1256.75L1233.9,1256.75Z" style="fill:rgb(130,161,128);stroke:rgb(130,161,128);stroke-width:1px;"/>
            </g>
            <g transform="matrix(1,0,0,1,-30.5,-11.45)">
                <path d="M1119.65,1393.85L1233.9,1302.45L1439.55,1302.45L1371,1393.85L1279.6,1393.85L1119.65,1393.85Z" style="fill:rgb(130,161,128);stroke:rgb(130,161,128);stroke-width:1px;"/>
            </g>
        </g>
        <g id="Layer13">
            <g transform="matrix(1,0,0,1,-30.5,-11.45)">
                <path d="M982.55,205.65L959.7,182.8L959.7,159.95L1051.1,114.25L1005.4,205.65L982.55,205.65Z" style="fill:rgb(235,147,129);stroke:rgb(235,147,129);stroke-width:1px;"/>
            </g>
            <g transform="matrix(1,0,0,1,-30.5,-11.45)">
                <path d="M1119.65,251.35L1096.8,228.5L1096.8,205.65L1188.2,159.95L1142.5,251.35L1119.65,251.35Z" style="fill:rgb(235,147,129);stroke:rgb(235,147,129);stroke-width:1px;"/>
            </g>
            <g transform="matrix(1,0,0,1,-30.5,-11.45)">
                <path d="M1243.52,463.904L1216.52,465.419L1275.7,400.667L1344.3,442.142L1321.03,455.191L1278.91,446.979L1243.52,463.904Z" style="fill:rgb(235,147,129);stroke:rgb(235,147,129);stroke-width:1px;"/>
            </g>
            <g transform="matrix(1,0,0,1,-30.5,-11.45)">
                <path d="M1371,388.45L1386.88,298.934L1462.4,297.05L1471.01,320.145L1431.66,327.793L1407.55,350.016L1396.52,390.872L1371,388.45Z" style="fill:rgb(235,147,129);stroke:rgb(235,147,129);stroke-width:1px;"/>
            </g>
            <g transform="matrix(1,0,0,1,-30.5,-11.45)">
                <path d="M1560.73,418.511L1553.8,342.75L1630.81,343.994L1651.78,373.344L1609.39,377.563L1590.44,392.36L1593.63,438.771L1560.73,418.511Z" style="fill:rgb(235,147,129);stroke:rgb(235,147,129);stroke-width:1px;"/>
            </g>
            <g transform="matrix(1,0,0,1,-30.5,-11.45)">
                <path d="M1661.57,665.66L1645.2,571.25L1738.48,589.12L1739.05,608.109L1690.15,616.009L1678.49,661.521L1661.57,665.66Z" style="fill:rgb(235,147,129);stroke:rgb(235,147,129);stroke-width:1px;"/>
            </g>
            <g transform="matrix(1,0,0,1,-30.5,-11.45)">
                <path d="M1657.19,937.029L1654.33,847.776L1718.35,854.397L1718.89,880.235L1693.76,882.919L1683.03,940.608L1657.19,937.029Z" style="fill:rgb(235,147,129);stroke:rgb(235,147,129);stroke-width:1px;"/>
            </g>
            <g transform="matrix(1,0,0,1,-30.5,262.75)">
                <path d="M1649.92,925.17L1673.95,836.915L1737.27,859.601L1726.27,890.252L1703.87,883.744L1679,899.91L1675.85,935.053L1649.92,925.17Z" style="fill:rgb(235,147,129);stroke:rgb(235,147,129);stroke-width:1px;"/>
            </g>
            <g transform="matrix(1,0,0,1,-76.2,491.25)">
                <path d="M1657.74,935.847L1668.85,886.081L1711.56,860.996L1754.49,875.204L1730.58,910.373L1702.27,899.675L1690.73,940.193L1657.74,935.847Z" style="fill:rgb(235,147,129);stroke:rgb(235,147,129);stroke-width:1px;"/>
            </g>
            <g transform="matrix(1,0,0,1,-213.3,674.05)">
                <path d="M1659.84,928.697L1664.17,850.109L1730.65,861.071L1740.43,876.008L1683.08,877.567L1691.9,921.209L1659.84,928.697Z" style="fill:rgb(235,147,129);stroke:rgb(235,147,129);stroke-width:1px;"/>
            </g>
            <g transform="matrix(1,0,0,1,-441.8,674.05)">
                <path d="M1660.5,919.013L1654.09,852.247L1716.86,853.032L1733.46,871.543L1683.06,887.098L1683.97,927.438L1660.5,919.013Z" style="fill:rgb(235,147,129);stroke:rgb(235,147,129);stroke-width:1px;"/>
            </g>
            <g transform="matrix(1,0,0,1,-670.3,674.05)">
                <path d="M1661.59,926.145L1666.35,849.653L1741.21,865.168L1720.87,880.598L1691.03,877.807L1685.12,907.629L1661.59,926.145Z" style="fill:rgb(235,147,129);stroke:rgb(235,147,129);stroke-width:1px;"/>
            </g>
        </g>
        <g transform="matrix(1,0,0,1,-30.5,-11.45)">
            <g id="Layer12">
                <path d="M594.1,571.25L594.1,548.4L616.95,525.55L639.8,479.85L639.8,388.45L685.5,297.05L731.2,205.65L731.2,114.25L776.9,114.25L822.6,251.35L845.45,297.05L845.45,342.75L822.6,365.6L708.35,502.7L685.5,571.25L594.1,571.25Z" style="fill:rgb(207,145,38);stroke:rgb(207,145,38);stroke-width:1px;"/>
            </g>
        </g>
        <g id="Layer11">
            <g transform="matrix(1,0,0,1,-30.5,-11.45)">
                <path d="M639.8,388.45L688.762,387.118L718.494,412.186L710.689,442.714L728.893,456.967L731.2,475.271L708.35,502.7L700.671,525.55L712.219,473.715L689.423,459.596L694.395,426.347L681.071,412.527L639.8,434.15L639.8,388.45Z" style="fill:rgb(148,109,0);stroke:rgb(148,109,0);stroke-width:1px;"/>
            </g>
            <g transform="matrix(1,0,0,1,-30.5,-11.45)">
                <path d="M662.65,342.75L685.5,297.05L713.927,301.665L723.675,317.376L747.72,307.414L760.577,328.549L760.637,352.704L771.305,362.13L797.977,355.889L814.02,336.401L845.45,342.75L803.558,388.45L774.262,379.309L746.289,387.536L733.573,376.944L742.145,357.043L737.779,336.199L713.035,345.998L699.149,332.155L662.65,342.75Z" style="fill:rgb(148,109,0);stroke:rgb(148,109,0);stroke-width:1px;"/>
            </g>
            <g transform="matrix(1,0,0,1,-30.5,-11.45)">
                <path d="M708.35,251.35L731.2,205.65L745.98,192.756L757.584,213.857L777.631,209.798L791.542,240.345L811.822,238.258L822.6,251.35L845.45,297.05L824.529,289.029L799.75,297.05L795.446,272.702L773.022,271.998L771.692,241.22L746.132,255.64L735.711,239.452L708.35,251.35Z" style="fill:rgb(148,109,0);stroke:rgb(148,109,0);stroke-width:1px;"/>
            </g>
        </g>
        <g transform="matrix(1,0,0,1,-30.5,-11.45)">
            <g id="Layer10">
                <path d="M594.1,616.95L594.1,571.25L639.8,525.55L685.5,525.55L731.2,571.25L731.2,616.95L685.5,662.65L639.8,662.65L594.1,616.95Z" style="fill:rgb(32,31,24);stroke:rgb(32,31,24);stroke-width:1px;"/>
            </g>
        </g>
        <g transform="matrix(0.703527,0.710668,-0.710668,0.703527,586.368,-304.442)">
            <g id="Layer9">
                <path d="M630.404,607.878L638.775,566.944L678.631,559.162L702.989,583.275L703.032,599.394L670.726,631.719L654.763,631.992L630.404,607.878Z" style="fill:rgb(223,214,88);stroke:rgb(223,214,88);stroke-width:1px;"/>
            </g>
        </g>
    </g>
</svg>
