<?xml version="1.0" encoding="UTF-8" standalone="no"?>
<!DOCTYPE svg PUBLIC "-//W3C//DTD SVG 1.1//EN" "http://www.w3.org/Graphics/SVG/1.1/DTD/svg11.dtd">
<svg width="100%" height="100%" viewBox="0 0 4634 3475" version="1.1" xmlns="http://www.w3.org/2000/svg" xmlns:xlink="http://www.w3.org/1999/xlink" xml:space="preserve" xmlns:serif="http://www.serif.com/" style="fill-rule:evenodd;clip-rule:evenodd;stroke-linecap:round;stroke-linejoin:round;stroke-miterlimit:1.5;">
    <g transform="matrix(2.08333,0,0,2.08333,0,0)">
        <g id="Layer1" transform="matrix(-1,0,0,1,2252,-2)">
            <path d="M912,988L912,912L988,912L1026,950L1026,988L912,988Z" style="fill:rgb(83,65,57);stroke:rgb(83,65,57);stroke-width:1px;"/>
            <path d="M912,1140L912,1064L988,1064L1026,1102L1026,1140L912,1140Z" style="fill:rgb(83,65,57);stroke:rgb(83,65,57);stroke-width:1px;"/>
            <path d="M912,1292L912,1216L988,1216L1026,1254L1026,1292L912,1292Z" style="fill:rgb(83,65,57);stroke:rgb(83,65,57);stroke-width:1px;"/>
            <path d="M494,1140L494,1482L456,1520L418,1520L380,1482L380,1235L475,1140L494,1140Z" style="fill:rgb(83,65,57);stroke:rgb(83,65,57);stroke-width:1px;"/>
            <path d="M760,342L779,323L817,323L874,342L874,437L855,437L836,418L760,418L760,342Z" style="fill:rgb(83,65,57);stroke:rgb(83,65,57);stroke-width:1px;"/>
            <path d="M779,760L836,817L874,836L874,1558L570,1558L532,1520L532,779L551,760L779,760Z" style="fill:rgb(83,65,57);stroke:rgb(83,65,57);stroke-width:1px;"/>
            <g transform="matrix(-1,0,0,1,2280,0)">
                <path d="M912,988L912,912L988,912L1026,950L1026,988L912,988Z" style="fill:rgb(83,65,57);stroke:rgb(83,65,57);stroke-width:1px;"/>
            </g>
            <g transform="matrix(-1,0,0,1,2280,0)">
                <path d="M912,1140L912,1064L988,1064L1026,1102L1026,1140L912,1140Z" style="fill:rgb(83,65,57);stroke:rgb(83,65,57);stroke-width:1px;"/>
            </g>
            <g transform="matrix(-1,0,0,1,2280,0)">
                <path d="M912,1292L912,1216L988,1216L1026,1254L1026,1292L912,1292Z" style="fill:rgb(83,65,57);stroke:rgb(83,65,57);stroke-width:1px;"/>
            </g>
            <g transform="matrix(-1,0,0,1,2280,0)">
                <path d="M494,1140L494,1482L456,1520L418,1520L380,1482L380,1235L475,1140L494,1140Z" style="fill:rgb(83,65,57);stroke:rgb(83,65,57);stroke-width:1px;"/>
            </g>
            <g transform="matrix(-1,0,0,1,2280,0)">
                <path d="M1064,855L1026,834L988,798L988,703L1102,589L1102,570L1121,589L1159,589L1178,570L1178,589L1292,703L1292,798L1254,834L1216,855L1064,855Z" style="fill:rgb(83,65,57);stroke:rgb(83,65,57);stroke-width:1px;"/>
            </g>
            <g transform="matrix(-1,0,0,1,2280,0)">
                <path d="M760,342L779,323L817,323L874,342L874,437L855,437L836,418L760,418L760,342Z" style="fill:rgb(83,65,57);stroke:rgb(83,65,57);stroke-width:1px;"/>
            </g>
            <g transform="matrix(-1,0,0,1,2280,0)">
                <path d="M779,760L836,817L874,836L874,1558L570,1558L532,1520L532,779L551,760L779,760Z" style="fill:rgb(83,65,57);stroke:rgb(83,65,57);stroke-width:1px;"/>
            </g>
        </g>
        <g id="Layer4" transform="matrix(-1,0,0,1,2252,-2)">
            <path d="M760,760L760,798L684,874L646,874L570,798L570,722L627,665L646,681.286L646,437L665,437L950,722L950,760L912,834L893,855L874,855L874,836L836,817L779,760L760,760Z" style="fill:rgb(63,118,174);stroke:rgb(63,118,174);stroke-width:1px;"/>
            <path d="M494,1140L475,1140L380,1235L380,1064L475,969L494,969L494,1140Z" style="fill:rgb(63,118,174);stroke:rgb(63,118,174);stroke-width:1px;"/>
            <path d="M1102,589L1083,608L1045,608L1007,646L969,646L893,570L874,532L874,342L912,304L950,285L1007,285L1102,551L1102,589Z" style="fill:rgb(63,118,174);stroke:rgb(63,118,174);stroke-width:1px;"/>
            <path d="M760,418L646,304L798,152L874,152L912,190L950,190L988,152L1064,152L1007,266L931,266L874,342L817,323L779,323L760,342L760,418Z" style="fill:rgb(63,118,174);stroke:rgb(63,118,174);stroke-width:1px;"/>
            <g transform="matrix(-1,0,0,1,2280,0)">
                <path d="M760,760L760,798L684,874L646,874L570,798L570,722L627,665L646,681.286L646,437L665,437L950,722L950,760L912,834L893,855L874,855L874,836L836,817L779,760L760,760Z" style="fill:rgb(63,118,174);stroke:rgb(63,118,174);stroke-width:1px;"/>
            </g>
            <g transform="matrix(-1,0,0,1,2280,0)">
                <path d="M494,1140L475,1140L380,1235L380,1064L475,969L494,969L494,1140Z" style="fill:rgb(63,118,174);stroke:rgb(63,118,174);stroke-width:1px;"/>
            </g>
            <g transform="matrix(-1,0,0,1,2280,0)">
                <path d="M1254,855L1311,798L1311,779L1330,779L1368,874L1368,1425L1349,1444L931,1444L912,1425L912,874L950,779L969,779L969,798L1026,855L1064,874L1216,874L1254,855Z" style="fill:rgb(63,118,174);stroke:rgb(63,118,174);stroke-width:1px;"/>
            </g>
            <g transform="matrix(-1,0,0,1,2280,0)">
                <path d="M1102,589L1083,608L1045,608L1007,646L969,646L893,570L874,532L874,342L912,304L950,285L1007,285L1102,551L1102,589Z" style="fill:rgb(63,118,174);stroke:rgb(63,118,174);stroke-width:1px;"/>
            </g>
            <g transform="matrix(-1,0,0,1,2280,0)">
                <path d="M760,418L646,304L798,152L874,152L912,190L950,190L988,152L1064,152L1007,266L931,266L874,342L817,323L779,323L760,342L760,418Z" style="fill:rgb(63,118,174);stroke:rgb(63,118,174);stroke-width:1px;"/>
            </g>
        </g>
        <g id="Layer3" transform="matrix(-1,0,0,1,2252,-2)">
            <path d="M760,418L760,437L798,475L836,494L874,494L874,437L855,437L836,418L760,418Z" style="fill:rgb(137,30,22);stroke:rgb(137,30,22);stroke-width:1px;"/>
            <path d="M950,475L969,475L1045,551L1045,570L969,570L950,551L950,475Z" style="fill:rgb(137,30,22);stroke:rgb(137,30,22);stroke-width:1px;"/>
            <path d="M760,1368L798,1330L836,1330L874,1368L912,1482L912,1615L893,1615L836,1558L798,1482L760,1444L760,1368Z" style="fill:rgb(137,30,22);stroke:rgb(137,30,22);stroke-width:1px;"/>
            <path d="M703,1425L798,1520L798,1615L779,1615L760,1596L722,1577L684,1539L684,1425L703,1425Z" style="fill:rgb(137,30,22);stroke:rgb(137,30,22);stroke-width:1px;"/>
            <path d="M646,1615L627,1615L570,1558L570,1463L589,1463L646,1520L646,1615Z" style="fill:rgb(137,30,22);stroke:rgb(137,30,22);stroke-width:1px;"/>
            <g transform="matrix(-1,0,0,1,2280,0)">
                <path d="M760,418L760,437L798,475L836,494L874,494L874,437L855,437L836,418L760,418Z" style="fill:rgb(137,30,22);stroke:rgb(137,30,22);stroke-width:1px;"/>
            </g>
            <g transform="matrix(-1,0,0,1,2280,0)">
                <path d="M950,475L969,475L1045,551L1045,570L969,570L950,551L950,475Z" style="fill:rgb(137,30,22);stroke:rgb(137,30,22);stroke-width:1px;"/>
            </g>
            <g transform="matrix(-1,0,0,1,2280,0)">
                <path d="M760,1368L798,1330L836,1330L874,1368L912,1482L912,1615L893,1615L836,1558L798,1482L760,1444L760,1368Z" style="fill:rgb(137,30,22);stroke:rgb(137,30,22);stroke-width:1px;"/>
            </g>
            <g transform="matrix(-1,0,0,1,2280,0)">
                <path d="M703,1425L798,1520L798,1615L779,1615L760,1596L722,1577L684,1539L684,1425L703,1425Z" style="fill:rgb(137,30,22);stroke:rgb(137,30,22);stroke-width:1px;"/>
            </g>
            <g transform="matrix(-1,0,0,1,2280,0)">
                <path d="M646,1615L627,1615L570,1558L570,1463L589,1463L646,1520L646,1615Z" style="fill:rgb(137,30,22);stroke:rgb(137,30,22);stroke-width:1px;"/>
            </g>
        </g>
        <g id="Layer2" transform="matrix(-1,0,0,1,2252,-2)">
            <path d="M912,190L874,152L874,114L912,76L950,76L988,114L988,152L950,190L912,190Z" style="fill:rgb(174,168,129);stroke:rgb(174,168,129);stroke-width:1px;"/>
            <g transform="matrix(1,0,0,0.979381,0,19.1959)">
                <path d="M570,931L551,931L475,853.4L475,834L551,834L570,853.4L570,931Z" style="fill:rgb(174,168,129);stroke:rgb(174,168,129);stroke-width:1.01px;"/>
            </g>
            <g transform="matrix(1,0,0,0.979381,228,19.1959)">
                <path d="M570,931L551,931L475,853.4L475,834L551,834L570,853.4L570,931Z" style="fill:rgb(174,168,129);stroke:rgb(174,168,129);stroke-width:1.01px;"/>
            </g>
            <g transform="matrix(1,0,0,0.979381,228,247.196)">
                <path d="M570,931L551,931L475,853.4L475,834L551,834L570,853.4L570,931Z" style="fill:rgb(174,168,129);stroke:rgb(174,168,129);stroke-width:1.01px;"/>
            </g>
            <g transform="matrix(-1,0,0,-0.979381,1406,1880.8)">
                <path d="M570,931L551,931L475,853.4L475,834L551,834L570,853.4L570,931Z" style="fill:rgb(174,168,129);stroke:rgb(174,168,129);stroke-width:1.01px;"/>
            </g>
            <g transform="matrix(-1,0,0,-0.979381,1406,2070.8)">
                <path d="M570,931L551,931L475,853.4L475,834L551,834L570,853.4L570,931Z" style="fill:rgb(174,168,129);stroke:rgb(174,168,129);stroke-width:1.01px;"/>
            </g>
            <g transform="matrix(1,0,0,0.979381,114,513.196)">
                <path d="M570,931L551,931L475,853.4L475,834L551,834L570,853.4L570,931Z" style="fill:rgb(174,168,129);stroke:rgb(174,168,129);stroke-width:1.01px;"/>
            </g>
            <g transform="matrix(1,0,0,0.979381,228,437.196)">
                <path d="M570,931L551,931L475,853.4L475,834L551,834L570,853.4L570,931Z" style="fill:rgb(174,168,129);stroke:rgb(174,168,129);stroke-width:1.01px;"/>
            </g>
            <g transform="matrix(1,0,0,0.979381,0,399.196)">
                <path d="M570,931L551,931L475,853.4L475,834L551,834L570,853.4L570,931Z" style="fill:rgb(174,168,129);stroke:rgb(174,168,129);stroke-width:1.01px;"/>
            </g>
            <g transform="matrix(1,0,0,0.979381,114,323.196)">
                <path d="M570,931L551,931L475,853.4L475,834L551,834L570,853.4L570,931Z" style="fill:rgb(174,168,129);stroke:rgb(174,168,129);stroke-width:1.01px;"/>
            </g>
            <g transform="matrix(1,0,0,0.979381,0,209.196)">
                <path d="M570,931L551,931L475,853.4L475,834L551,834L570,853.4L570,931Z" style="fill:rgb(174,168,129);stroke:rgb(174,168,129);stroke-width:1.01px;"/>
            </g>
            <g transform="matrix(1,0,0,0.979381,114,95.1959)">
                <path d="M570,931L551,931L475,853.4L475,834L551,834L570,853.4L570,931Z" style="fill:rgb(174,168,129);stroke:rgb(174,168,129);stroke-width:1.01px;"/>
            </g>
            <path d="M760,665L741,646L627,646L627,665L741,779L760,779L760,665Z" style="fill:rgb(174,168,129);stroke:rgb(174,168,129);stroke-width:1px;"/>
            <path d="M1083,608L1045,608L1007,646L969,646L893,570L874,532L874,494L836,494L798,475L760,437L760,418L646,304L646,285L684,266L684,228L570,190L494,152L418,152L418,190L456,228L494,304L532,342L399,342L399,361L570,532L437,532L437,551L589,703L608,684L608,380L627,380L988,741L988,703L1083,608Z" style="fill:rgb(174,168,129);stroke:rgb(174,168,129);stroke-width:1px;"/>
            <g transform="matrix(1,0,0,1,0,-19)">
                <path d="M722,228L779,171L779,133L760,114L684,76L551,76L551,95L684,228L722,228Z" style="fill:rgb(174,168,129);stroke:rgb(174,168,129);stroke-width:1px;"/>
            </g>
            <g transform="matrix(-1,0,0,1,2280,0)">
                <path d="M1121,589L1102,570L1064,494L988,418L988,304L1102,76L1121,57L1159,57L1178,76L1292,304L1292,418L1216,494L1178,570L1159,589L1121,589Z" style="fill:rgb(174,168,129);stroke:rgb(174,168,129);stroke-width:1px;"/>
            </g>
            <g transform="matrix(-1,0,0,1,2280,0)">
                <path d="M912,190L874,152L874,114L912,76L950,76L988,114L988,152L950,190L912,190Z" style="fill:rgb(174,168,129);stroke:rgb(174,168,129);stroke-width:1px;"/>
            </g>
            <g transform="matrix(-1,0,0,0.979381,2280,19.1959)">
                <path d="M570,931L551,931L475,853.4L475,834L551,834L570,853.4L570,931Z" style="fill:rgb(174,168,129);stroke:rgb(174,168,129);stroke-width:1.01px;"/>
            </g>
            <g transform="matrix(-1,0,0,0.979381,2052,19.1959)">
                <path d="M570,931L551,931L475,853.4L475,834L551,834L570,853.4L570,931Z" style="fill:rgb(174,168,129);stroke:rgb(174,168,129);stroke-width:1.01px;"/>
            </g>
            <g transform="matrix(-1,0,0,0.979381,2052,247.196)">
                <path d="M570,931L551,931L475,853.4L475,834L551,834L570,853.4L570,931Z" style="fill:rgb(174,168,129);stroke:rgb(174,168,129);stroke-width:1.01px;"/>
            </g>
            <g transform="matrix(1,0,0,-0.979381,874,1880.8)">
                <path d="M570,931L551,931L475,853.4L475,834L551,834L570,853.4L570,931Z" style="fill:rgb(174,168,129);stroke:rgb(174,168,129);stroke-width:1.01px;"/>
            </g>
            <g transform="matrix(1,0,0,-0.979381,874,2070.8)">
                <path d="M570,931L551,931L475,853.4L475,834L551,834L570,853.4L570,931Z" style="fill:rgb(174,168,129);stroke:rgb(174,168,129);stroke-width:1.01px;"/>
            </g>
            <g transform="matrix(-1,0,0,0.979381,2166,513.196)">
                <path d="M570,931L551,931L475,853.4L475,834L551,834L570,853.4L570,931Z" style="fill:rgb(174,168,129);stroke:rgb(174,168,129);stroke-width:1.01px;"/>
            </g>
            <g transform="matrix(-1,0,0,0.979381,2052,437.196)">
                <path d="M570,931L551,931L475,853.4L475,834L551,834L570,853.4L570,931Z" style="fill:rgb(174,168,129);stroke:rgb(174,168,129);stroke-width:1.01px;"/>
            </g>
            <g transform="matrix(-1,0,0,0.979381,2280,399.196)">
                <path d="M570,931L551,931L475,853.4L475,834L551,834L570,853.4L570,931Z" style="fill:rgb(174,168,129);stroke:rgb(174,168,129);stroke-width:1.01px;"/>
            </g>
            <g transform="matrix(-1,0,0,0.979381,2166,323.196)">
                <path d="M570,931L551,931L475,853.4L475,834L551,834L570,853.4L570,931Z" style="fill:rgb(174,168,129);stroke:rgb(174,168,129);stroke-width:1.01px;"/>
            </g>
            <g transform="matrix(-1,0,0,0.979381,2280,209.196)">
                <path d="M570,931L551,931L475,853.4L475,834L551,834L570,853.4L570,931Z" style="fill:rgb(174,168,129);stroke:rgb(174,168,129);stroke-width:1.01px;"/>
            </g>
            <g transform="matrix(-1,0,0,0.979381,2166,95.1959)">
                <path d="M570,931L551,931L475,853.4L475,834L551,834L570,853.4L570,931Z" style="fill:rgb(174,168,129);stroke:rgb(174,168,129);stroke-width:1.01px;"/>
            </g>
            <g transform="matrix(-1,0,0,1,2280,0)">
                <path d="M760,665L741,646L627,646L627,665L741,779L760,779L760,665Z" style="fill:rgb(174,168,129);stroke:rgb(174,168,129);stroke-width:1px;"/>
            </g>
            <g transform="matrix(-1,0,0,1,2280,0)">
                <path d="M1083,608L1045,608L1007,646L969,646L893,570L874,532L874,494L836,494L798,475L760,437L760,418L646,304L646,285L684,266L684,228L570,190L494,152L418,152L418,190L456,228L494,304L532,342L399,342L399,361L570,532L437,532L437,551L589,703L608,684L608,380L627,380L988,741L988,703L1083,608Z" style="fill:rgb(174,168,129);stroke:rgb(174,168,129);stroke-width:1px;"/>
            </g>
            <g transform="matrix(-1,0,0,1,2280,-19)">
                <path d="M722,228L779,171L779,133L760,114L684,76L551,76L551,95L684,228L722,228Z" style="fill:rgb(174,168,129);stroke:rgb(174,168,129);stroke-width:1px;"/>
            </g>
        </g>
        <g id="Layer5" transform="matrix(-1,0,0,1,2252,-2)">
            <path d="M380,1482L380,1596L399,1596L437,1558L475,1596L494,1596L494,1482L456,1520L418,1520L380,1482Z" style="fill:rgb(191,150,23);stroke:rgb(191,150,23);stroke-width:1px;"/>
            <g transform="matrix(-1,0,0,1,2280,0)">
                <path d="M380,1482L380,1596L399,1596L437,1558L475,1596L494,1596L494,1482L456,1520L418,1520L380,1482Z" style="fill:rgb(191,150,23);stroke:rgb(191,150,23);stroke-width:1px;"/>
            </g>
        </g>
    </g>
</svg>
