<?xml version="1.0" encoding="UTF-8" standalone="no"?>
<!DOCTYPE svg PUBLIC "-//W3C//DTD SVG 1.1//EN" "http://www.w3.org/Graphics/SVG/1.1/DTD/svg11.dtd">
<svg width="100%" height="100%" viewBox="0 0 4634 3475" version="1.1" xmlns="http://www.w3.org/2000/svg" xmlns:xlink="http://www.w3.org/1999/xlink" xml:space="preserve" xmlns:serif="http://www.serif.com/" style="fill-rule:evenodd;clip-rule:evenodd;stroke-linecap:round;stroke-linejoin:round;stroke-miterlimit:1.5;">
    <g transform="matrix(2.08333,0,0,2.08333,0,0)">
        <g id="Layer11">
            <g transform="matrix(1,0,0,1,-30.5,-11.45)">
                <path d="M662.65,342.75L754.05,251.35L1713.75,274.2L1850.85,411.3L1599.5,662.65L1530.95,891.15L1348.15,754.05L1073.95,731.2L822.6,479.85L662.65,457L662.65,342.75Z" style="fill:rgb(64,78,34);stroke:rgb(64,78,34);stroke-width:1px;"/>
            </g>
            <g transform="matrix(1,0,0,1,-30.5,-11.45)">
                <path d="M1188.2,1119.65L1393.85,1119.65L1553.8,1530.95L1508.1,1553.8L1485.25,1530.95L1302.45,1530.95L1279.6,1462.4L1188.2,1439.55L1119.65,1439.55L1073.95,1485.25L982.55,1485.25L959.7,1508.1L959.7,1553.8L936.85,1576.65L868.3,1576.65L891.15,1142.5L1119.65,1119.65L1188.2,1119.65Z" style="fill:rgb(64,78,34);stroke:rgb(64,78,34);stroke-width:1px;"/>
            </g>
            <g transform="matrix(1,0,0,1,-30.5,-11.45)">
                <path d="M685.5,1439.55L639.8,1393.85L639.8,1348.15L742.503,1325.3L754.05,1348.15L685.5,1439.55Z" style="fill:rgb(64,78,34);stroke:rgb(64,78,34);stroke-width:1px;"/>
            </g>
            <g transform="matrix(1,0,0,1,-30.5,-11.45)">
                <rect x="639.8" y="1085.4" width="91.4" height="217.05" style="fill:rgb(64,78,34);stroke:rgb(64,78,34);stroke-width:1px;"/>
            </g>
        </g>
        <g id="Layer9">
            <g transform="matrix(1,0,0,1,-30.5,-11.45)">
                <path d="M1599.5,616.95L1576.65,548.4L1599.5,434.15L1645.2,411.3L1645.2,388.45L1759.45,365.6L1828,434.15L1828,479.85L1782.3,479.85L1782.3,525.55L1736.6,525.55L1736.6,571.25L1690.9,571.25L1690.9,616.95L1668.05,639.8L1690.9,708.35L1599.5,616.95Z" style="fill:rgb(238,239,77);stroke:rgb(238,239,77);stroke-width:1px;"/>
            </g>
            <g transform="matrix(1,0,0,1,-30.5,-11.45)">
                <path d="M1690.9,297.05L1668.05,342.75L1599.5,342.75L1576.65,365.6L1553.8,342.75L1530.95,297.05L1690.9,297.05Z" style="fill:rgb(238,239,77);stroke:rgb(238,239,77);stroke-width:1px;"/>
            </g>
            <g transform="matrix(1,0,0,1,-30.5,-11.45)">
                <path d="M1462.4,479.85L1485.25,434.15L1462.4,411.3L1485.25,388.45L1530.95,411.3L1553.8,434.15L1515.52,457L1508.1,479.85L1508.1,525.55L1462.4,479.85Z" style="fill:rgb(238,239,77);stroke:rgb(238,239,77);stroke-width:1px;"/>
            </g>
            <g transform="matrix(1,0,0,1,-30.5,-11.45)">
                <path d="M1325.3,411.3L1348.15,434.15L1393.85,434.15L1416.7,388.45L1416.7,365.6L1462.4,342.75L1473.59,328.09L1462.4,297.05L1393.85,297.05L1371,342.75L1348.15,342.75L1325.3,365.6L1325.3,411.3Z" style="fill:rgb(238,239,77);stroke:rgb(238,239,77);stroke-width:1px;"/>
            </g>
            <g transform="matrix(1,0,0,1,-30.5,-11.45)">
                <path d="M1645.2,754.05L1645.2,799.75L1599.5,799.75L1599.5,845.45L1553.8,845.45L1553.8,891.15L1462.4,799.75L1485.25,754.05L1448.94,708.35L1462.4,685.5L1462.4,662.65L1485.25,639.8L1530.95,662.65L1553.8,662.65L1645.2,754.05Z" style="fill:rgb(238,239,77);stroke:rgb(238,239,77);stroke-width:1px;"/>
            </g>
            <g transform="matrix(1,0,0,1,-30.5,-11.45)">
                <path d="M1371,525.55L1348.15,571.25L1348.15,616.95L1371,639.8L1371,662.65L1416.7,639.8L1416.7,616.95L1439.55,594.1L1462.4,571.25L1416.7,525.55L1371,525.55Z" style="fill:rgb(238,239,77);stroke:rgb(238,239,77);stroke-width:1px;"/>
            </g>
            <g transform="matrix(1,0,0,1,-30.5,-11.45)">
                <path d="M1256.75,708.35L1233.9,685.5L1233.9,639.8L1279.6,616.95L1302.45,639.8L1325.3,639.8L1325.3,685.5L1348.15,708.35L1256.75,708.35Z" style="fill:rgb(238,239,77);stroke:rgb(238,239,77);stroke-width:1px;"/>
            </g>
            <g transform="matrix(1,0,0,1,-30.5,-11.45)">
                <path d="M1485.25,914L1439.55,936.85L1371,936.85L1325.3,936.85L1302.45,1005.4L1233.9,1073.95L1233.9,845.45L1416.7,845.45L1485.25,914Z" style="fill:rgb(238,239,77);stroke:rgb(238,239,77);stroke-width:1px;"/>
            </g>
        </g>
        <g id="Layer18">
            <g transform="matrix(1,0,0,1,-30.5,-11.45)">
                <path d="M1919.4,891.15L1919.4,936.85L1873.7,936.85L1873.7,982.55L1919.4,982.55L1919.4,1028.25L1873.7,1028.25L1873.7,1073.95L1919.4,1073.95L1919.4,1119.65L1873.7,1119.65L1873.7,1165.35L1919.4,1165.35L1919.4,1211.05L1873.7,1211.05L1873.7,1256.75L1919.4,1256.75L1919.4,1302.45L1873.7,1302.45L1873.7,1348.15L1919.4,1348.15L1919.4,1393.85L1873.7,1393.85L1873.7,1439.55L1919.4,1439.55L1919.4,1485.25L1873.7,1485.25L1873.7,1530.95L1828,1530.95L1828,1576.65L1782.3,1576.65L1782.3,1530.95L1736.6,1530.95L1736.6,1576.65L1690.9,1576.65L1690.9,1530.95L1645.2,1530.95L1645.2,1576.65L1599.5,1576.65L1599.5,1530.95L1553.8,1530.95L1553.8,1576.65L1530.95,1576.65L1508.1,1553.8L1508.1,1508.1L1485.25,1462.4L1416.7,1439.55L1416.7,1325.3L1371,1233.9L1325.3,1188.2L1256.75,1165.35L1233.9,1119.65L1439.55,1119.65L1485.25,1142.5L1530.95,1211.05L1576.65,1302.45L1599.5,1371L1599.5,1439.55L1622.35,1462.4L1645.2,1439.55L1645.2,1393.85L1690.9,1393.85L1690.9,1439.55L1713.75,1462.4L1736.6,1439.55L1736.6,1393.85L1782.3,1348.15L1828,1348.15L1850.85,1325.3L1828,1302.45L1782.3,1302.45L1782.3,1211.05L1828,1211.05L1850.85,1188.2L1828,1165.35L1782.3,1165.35L1782.3,1073.95L1828,1073.95L1850.85,1051.1L1828,1028.25L1782.3,1028.25L1782.3,936.85L1828,936.85L1850.85,914L1828,891.15L1919.4,891.15ZM1873.7,1576.65L1873.7,1530.95L1919.4,1530.95L1873.7,1576.65Z" style="fill:rgb(17,23,6);stroke:rgb(17,23,6);stroke-width:1px;"/>
            </g>
            <g transform="matrix(1,0,0,1,-30.5,-11.45)">
                <path d="M1188.2,1211.05L1279.6,1211.05L1325.3,1256.75L1348.15,1302.45L1348.15,1371L1325.3,1393.85L1325.3,1416.7L1371,1439.55L1393.85,1439.55L1416.7,1485.25L1439.55,1485.25L1462.4,1508.1L1462.4,1599.5L1439.55,1622.35L1416.7,1622.35L1416.7,1553.8L1393.85,1530.95L1371,1553.8L1371,1576.65L1302.45,1576.65L1279.6,1530.95L1279.6,1508.1L1256.75,1485.25L1188.2,1485.25L1188.2,1462.4L1165.35,1439.55L1142.5,1439.55L1142.5,1256.75L1188.2,1211.05Z" style="fill:rgb(17,23,6);stroke:rgb(17,23,6);stroke-width:1px;"/>
            </g>
        </g>
        <g id="Layer13">
            <g transform="matrix(1,0,0,1,-30.5,-11.45)">
                <path d="M868.3,297.05L845.45,342.75L868.3,388.45L856.875,411.3L868.3,434.15L685.5,457L662.65,297.05L822.6,251.35L868.3,297.05Z" style="fill:rgb(45,47,17);stroke:rgb(45,47,17);stroke-width:1px;"/>
            </g>
            <g transform="matrix(1,0,0,1,-30.5,-11.45)">
                <path d="M959.7,457L914,411.3L936.85,388.45L936.85,342.75L982.55,365.6L1005.4,411.3L1028.25,434.15L959.7,457Z" style="fill:rgb(45,47,17);stroke:rgb(45,47,17);stroke-width:1px;"/>
            </g>
            <g transform="matrix(1,0,0,1,-30.5,-11.45)">
                <path d="M1119.65,274.2L1142.5,342.75L1142.5,388.45L1165.35,365.6L1177.43,342.75L1200.28,332.418L1188.2,274.2L1119.65,274.2Z" style="fill:rgb(45,47,17);stroke:rgb(45,47,17);stroke-width:1px;"/>
            </g>
            <g transform="matrix(1,0,0,1,-30.5,-11.45)">
                <path d="M1073.95,525.55L1119.65,571.25L1142.5,639.8L1188.2,708.35L1096.8,731.2L868.3,525.55L1028.25,502.7L1073.95,525.55Z" style="fill:rgb(45,47,17);stroke:rgb(45,47,17);stroke-width:1px;"/>
            </g>
            <g transform="matrix(1,0,0,1,-30.5,-11.45)">
                <path d="M1256.75,525.55L1211.05,548.4L1211.05,571.25L1188.2,616.95L1233.9,594.1L1256.75,594.1L1302.45,571.25L1325.3,594.1L1325.3,548.4L1302.45,525.55L1256.75,525.55Z" style="fill:rgb(45,47,17);stroke:rgb(45,47,17);stroke-width:1px;"/>
            </g>
            <g transform="matrix(1,0,0,1,-30.5,-11.45)">
                <path d="M1416.7,845.45L1325.3,845.45L1325.3,891.15L1371,936.85L1325.3,936.85L1279.6,914L1233.9,868.3L1233.9,1073.95L1188.2,1119.65L1165.35,799.75L1371,799.75L1416.7,845.45Z" style="fill:rgb(45,47,17);stroke:rgb(45,47,17);stroke-width:1px;"/>
            </g>
            <g transform="matrix(1,0,0,1,-30.5,-11.45)">
                <path d="M1142.5,1256.75L1256.75,1256.75L1279.6,1279.6L1279.6,1302.45L1142.5,1302.45L1142.5,1256.75Z" style="fill:rgb(45,47,17);stroke:rgb(45,47,17);stroke-width:1px;"/>
            </g>
            <g transform="matrix(1,0,0,1,-30.5,-11.45)">
                <path d="M1142.5,1348.15L1211.05,1348.15L1233.9,1371L1233.9,1393.85L1142.5,1393.85L1142.5,1348.15Z" style="fill:rgb(45,47,17);stroke:rgb(45,47,17);stroke-width:1px;"/>
            </g>
            <g transform="matrix(1,0,0,1,-30.5,-11.45)">
                <path d="M1599.5,1393.85L1599.5,1439.55L1622.35,1462.4L1645.2,1439.55L1645.2,1393.85L1599.5,1393.85Z" style="fill:rgb(45,47,17);stroke:rgb(45,47,17);stroke-width:1px;"/>
            </g>
            <g transform="matrix(1,0,0,1,60.9,-11.45)">
                <path d="M1599.5,1393.85L1599.5,1439.55L1622.35,1462.4L1645.2,1439.55L1645.2,1393.85L1599.5,1393.85Z" style="fill:rgb(45,47,17);stroke:rgb(45,47,17);stroke-width:1px;"/>
            </g>
            <g transform="matrix(6.12323e-17,-1,1,6.12323e-17,357.95,2936.2)">
                <path d="M1599.5,1393.85L1599.5,1439.55L1622.35,1462.4L1645.2,1439.55L1645.2,1393.85L1599.5,1393.85Z" style="fill:rgb(45,47,17);stroke:rgb(45,47,17);stroke-width:1px;"/>
            </g>
            <g transform="matrix(6.12323e-17,-1,1,6.12323e-17,357.95,2799.1)">
                <path d="M1599.5,1393.85L1599.5,1439.55L1622.35,1462.4L1645.2,1439.55L1645.2,1393.85L1599.5,1393.85Z" style="fill:rgb(45,47,17);stroke:rgb(45,47,17);stroke-width:1px;"/>
            </g>
            <g transform="matrix(6.12323e-17,-1,1,6.12323e-17,357.95,2662)">
                <path d="M1599.5,1393.85L1599.5,1439.55L1622.35,1462.4L1645.2,1439.55L1645.2,1393.85L1599.5,1393.85Z" style="fill:rgb(45,47,17);stroke:rgb(45,47,17);stroke-width:1px;"/>
            </g>
            <g transform="matrix(6.12323e-17,-1,1,6.12323e-17,357.95,2524.9)">
                <path d="M1599.5,1393.85L1599.5,1439.55L1622.35,1462.4L1645.2,1439.55L1645.2,1393.85L1599.5,1393.85Z" style="fill:rgb(45,47,17);stroke:rgb(45,47,17);stroke-width:1px;"/>
            </g>
        </g>
        <g id="Layer17">
            <g transform="matrix(1,0,0,1,-30.5,-11.45)">
                <path d="M502.7,685.5L502.7,662.65L525.55,639.8L662.65,639.8L708.35,662.65L731.2,685.5L754.05,685.5L799.75,708.35L822.6,776.9L685.5,776.9L502.7,685.5Z" style="fill:rgb(238,239,77);stroke:rgb(238,239,77);stroke-width:1px;"/>
            </g>
            <g transform="matrix(1,0,0,1,-30.5,-11.45)">
                <path d="M776.9,822.6L799.75,799.75L868.3,799.75L914,845.45L776.9,845.45L776.9,822.6Z" style="fill:rgb(238,239,77);stroke:rgb(238,239,77);stroke-width:1px;"/>
            </g>
        </g>
        <g id="Layer10">
            <g transform="matrix(1,0,0,1,-30.5,-11.45)">
                <path d="M1188.2,365.6L1233.9,342.75L1233.9,388.45L1211.05,388.45L1188.2,365.6Z" style="fill:rgb(106,110,56);stroke:rgb(106,110,56);stroke-width:1px;"/>
            </g>
            <g transform="matrix(1,0,0,1,-99.05,-57.15)">
                <path d="M1553.8,411.3L1553.8,388.45L1599.5,388.45L1576.65,411.3L1599.5,434.15L1576.65,434.15L1553.8,411.3Z" style="fill:rgb(106,110,56);stroke:rgb(106,110,56);stroke-width:1px;"/>
            </g>
            <g transform="matrix(1,0,0,1,-30.5,-11.45)">
                <path d="M1051.1,319.9L1073.95,319.9L1112,365.6L1096.8,388.45L1073.95,411.3L1051.1,365.6L1073.95,342.75L1051.1,319.9Z" style="fill:rgb(106,110,56);stroke:rgb(106,110,56);stroke-width:1px;"/>
            </g>
            <g transform="matrix(1,0,0,1,-30.5,-11.45)">
                <path d="M1393.85,708.35L1393.85,685.5L1416.7,662.65L1439.55,708.35L1416.7,731.2L1393.85,708.35Z" style="fill:rgb(106,110,56);stroke:rgb(106,110,56);stroke-width:1px;"/>
            </g>
            <g transform="matrix(1,0,0,1,-30.5,-11.45)">
                <path d="M1142.5,594.1L1165.35,594.1L1188.2,571.25L1165.35,571.25L1142.5,548.4L1142.5,594.1Z" style="fill:rgb(106,110,56);stroke:rgb(106,110,56);stroke-width:1px;"/>
            </g>
            <g transform="matrix(1,0,0,1,-30.5,-11.45)">
                <rect x="1553.8" y="1530.95" width="45.7" height="45.7" style="fill:rgb(106,110,56);stroke:rgb(106,110,56);stroke-width:1px;"/>
            </g>
            <g transform="matrix(1,0,0,1,-1081.6,-102.85)">
                <rect x="1553.8" y="1530.95" width="45.7" height="45.7" style="fill:rgb(106,110,56);stroke:rgb(106,110,56);stroke-width:1px;"/>
            </g>
            <g transform="matrix(1,0,0,1,-1081.6,-239.95)">
                <rect x="1553.8" y="1530.95" width="45.7" height="45.7" style="fill:rgb(106,110,56);stroke:rgb(106,110,56);stroke-width:1px;"/>
            </g>
            <g transform="matrix(1,0,0,1,-1081.6,-377.05)">
                <rect x="1553.8" y="1530.95" width="45.7" height="45.7" style="fill:rgb(106,110,56);stroke:rgb(106,110,56);stroke-width:1px;"/>
            </g>
            <g transform="matrix(1,0,0,1,-1081.6,-514.15)">
                <rect x="1553.8" y="1530.95" width="45.7" height="45.7" style="fill:rgb(106,110,56);stroke:rgb(106,110,56);stroke-width:1px;"/>
            </g>
            <g transform="matrix(1,0,0,1,-1081.6,-651.25)">
                <rect x="1553.8" y="1530.95" width="45.7" height="45.7" style="fill:rgb(106,110,56);stroke:rgb(106,110,56);stroke-width:1px;"/>
            </g>
            <g transform="matrix(1,0,0,1,38.05,0)">
                <path d="M685.5,971.512L776.9,971.1L776.9,1016.8L662.65,1018.73L662.65,1016.8L616.95,1016.8L616.95,971.1L685.5,971.1L685.5,971.512ZM525.55,1016.8L525.55,971.1L616.95,971.997L616.95,1016.95L525.55,1016.8Z" style="fill:rgb(106,110,56);stroke:rgb(106,110,56);stroke-width:1px;"/>
            </g>
            <g transform="matrix(2,0,0,1,-2498.3,-422.75)">
                <rect x="1553.8" y="1530.95" width="45.7" height="45.7" style="fill:rgb(106,110,56);stroke:rgb(106,110,56);stroke-width:0.63px;"/>
            </g>
            <g transform="matrix(5,0,0,1,-7159.7,-514.15)">
                <path d="M1553.8,1599.5L1549.7,1563.04L1546.88,1510.95L1599.5,1519.55L1599.5,1553.8L1590.36,1599.5L1553.8,1599.5Z" style="fill:rgb(106,110,56);stroke:rgb(106,110,56);stroke-width:0.28px;"/>
            </g>
            <g transform="matrix(2,0,0,1,-2498.3,-331.35)">
                <rect x="1553.8" y="1530.95" width="45.7" height="45.7" style="fill:rgb(106,110,56);stroke:rgb(106,110,56);stroke-width:0.63px;"/>
            </g>
            <g transform="matrix(2,0,0,1,-2498.3,-239.95)">
                <path d="M1553.8,1576.65L1553.8,1530.95L1599.5,1530.95L1605.16,1553.8L1553.8,1576.65Z" style="fill:rgb(106,110,56);stroke:rgb(106,110,56);stroke-width:0.63px;"/>
            </g>
            <g transform="matrix(1,0,0,2,-853.1,-1725.2)">
                <path d="M1508.1,1576.65L1576.65,1530.95L1645.2,1530.95L1645.2,1553.8L1599.5,1576.65L1508.1,1576.65Z" style="fill:rgb(106,110,56);stroke:rgb(106,110,56);stroke-width:0.63px;"/>
            </g>
            <g transform="matrix(1,0,0,1,-30.5,-11.45)">
                <rect x="1645.2" y="1530.95" width="45.7" height="45.7" style="fill:rgb(106,110,56);stroke:rgb(106,110,56);stroke-width:1px;"/>
            </g>
            <g transform="matrix(1,0,0,1,60.9,-11.45)">
                <rect x="1645.2" y="1530.95" width="45.7" height="45.7" style="fill:rgb(106,110,56);stroke:rgb(106,110,56);stroke-width:1px;"/>
            </g>
            <g transform="matrix(1,0,0,1,152.3,-11.45)">
                <rect x="1645.2" y="1530.95" width="45.7" height="45.7" style="fill:rgb(106,110,56);stroke:rgb(106,110,56);stroke-width:1px;"/>
            </g>
            <g transform="matrix(1,0,0,1,198,-57.15)">
                <rect x="1645.2" y="1530.95" width="45.7" height="45.7" style="fill:rgb(106,110,56);stroke:rgb(106,110,56);stroke-width:1px;"/>
            </g>
            <g transform="matrix(1,0,0,1,198,-148.55)">
                <rect x="1645.2" y="1530.95" width="45.7" height="45.7" style="fill:rgb(106,110,56);stroke:rgb(106,110,56);stroke-width:1px;"/>
            </g>
            <g transform="matrix(1,0,0,1,198,-239.95)">
                <rect x="1645.2" y="1530.95" width="45.7" height="45.7" style="fill:rgb(106,110,56);stroke:rgb(106,110,56);stroke-width:1px;"/>
            </g>
            <g transform="matrix(1,0,0,1,198,-331.35)">
                <rect x="1645.2" y="1530.95" width="45.7" height="45.7" style="fill:rgb(106,110,56);stroke:rgb(106,110,56);stroke-width:1px;"/>
            </g>
            <g transform="matrix(1,0,0,1,198,-422.75)">
                <rect x="1645.2" y="1530.95" width="45.7" height="45.7" style="fill:rgb(106,110,56);stroke:rgb(106,110,56);stroke-width:1px;"/>
            </g>
            <g transform="matrix(1,0,0,1,198,-514.15)">
                <rect x="1645.2" y="1530.95" width="45.7" height="45.7" style="fill:rgb(106,110,56);stroke:rgb(106,110,56);stroke-width:1px;"/>
            </g>
            <g transform="matrix(1,0,0,1,198,-605.55)">
                <rect x="1645.2" y="1530.95" width="45.7" height="45.7" style="fill:rgb(106,110,56);stroke:rgb(106,110,56);stroke-width:1px;"/>
            </g>
        </g>
        <g id="Layer14">
            <g transform="matrix(1,0,0,1,-7.65,-11.45)">
                <path d="M1576.65,205.65L1599.5,68.55L1622.35,137.1L1668.05,205.65L1576.65,205.65Z" style="fill:rgb(61,32,115);stroke:rgb(61,32,115);stroke-width:1px;"/>
            </g>
            <g transform="matrix(1,0,0,1,-236.15,-11.45)">
                <path d="M1576.65,205.65L1599.5,68.55L1622.35,137.1L1668.05,205.65L1576.65,205.65Z" style="fill:rgb(61,32,115);stroke:rgb(61,32,115);stroke-width:1px;"/>
            </g>
            <g transform="matrix(1,0,0,1,-464.65,-11.45)">
                <path d="M1576.65,205.65L1599.5,68.55L1622.35,137.1L1668.05,205.65L1576.65,205.65Z" style="fill:rgb(61,32,115);stroke:rgb(61,32,115);stroke-width:1px;"/>
            </g>
            <g transform="matrix(1,0,0,1,-693.15,-11.45)">
                <path d="M1576.65,205.65L1599.5,68.55L1622.35,137.1L1668.05,205.65L1576.65,205.65Z" style="fill:rgb(61,32,115);stroke:rgb(61,32,115);stroke-width:1px;"/>
            </g>
            <g transform="matrix(1,0,0,1,-921.65,-11.45)">
                <path d="M1576.65,205.65L1599.5,68.55L1622.35,137.1L1668.05,205.65L1576.65,205.65Z" style="fill:rgb(61,32,115);stroke:rgb(61,32,115);stroke-width:1px;"/>
            </g>
            <g transform="matrix(1,0,0,1,-30.5,-11.45)">
                <path d="M708.35,228.5L616.95,205.65L548.4,159.95L502.7,114.25L479.85,68.55L479.85,205.65L502.7,251.35L548.4,297.05L594.1,319.9L708.35,228.5Z" style="fill:rgb(61,32,115);stroke:rgb(61,32,115);stroke-width:1px;"/>
            </g>
            <g transform="matrix(1,0,0,1,-30.5,-11.45)">
                <path d="M616.95,388.45L571.25,388.45L548.4,388.45L502.7,365.6L457,297.05L479.85,434.15L525.55,502.7L571.25,525.55L685.5,525.55L616.95,388.45Z" style="fill:rgb(61,32,115);stroke:rgb(61,32,115);stroke-width:1px;"/>
            </g>
            <g transform="matrix(1,0,0,1,-30.5,-11.45)">
                <path d="M1325.3,1119.65L1325.3,1073.95L1371,1028.25L1553.8,1028.25L1462.4,1073.95L1439.55,1096.8L1439.55,1119.65" style="fill:rgb(61,32,115);stroke:rgb(61,32,115);stroke-width:1px;"/>
            </g>
            <g transform="matrix(1,0,0,1,-30.5,-11.45)">
                <path d="M1485.25,1142.5L1576.65,1119.65L1690.9,1119.65L1622.35,1142.5L1576.65,1188.2L1553.8,1211.05L1530.95,1211.05L1485.25,1142.5Z" style="fill:rgb(61,32,115);stroke:rgb(61,32,115);stroke-width:1px;"/>
            </g>
            <g transform="matrix(1,0,0,1,-30.5,-11.45)">
                <path d="M1553.8,1256.75L1622.35,1233.9L1736.6,1256.75L1690.9,1279.6L1645.2,1302.45L1592.4,1348.15L1576.65,1302.45L1553.8,1256.75Z" style="fill:rgb(61,32,115);stroke:rgb(61,32,115);stroke-width:1px;"/>
            </g>
            <g transform="matrix(1,0,0,1,-30.5,-11.45)">
                <path d="M1782.3,845.45L1782.3,754.05L1828,731.2L1828,639.8L1805.15,604.735L1782.3,594.1L1805.15,571.25L1873.7,571.25L1919.4,616.95L1919.4,845.45L1782.3,845.45Z" style="fill:rgb(61,32,115);stroke:rgb(61,32,115);stroke-width:1px;"/>
            </g>
            <g transform="matrix(1,0,0,1,-30.5,-11.45)">
                <path d="M1005.4,1622.35L1005.4,1553.8L1028.25,1530.95L1279.6,1530.95L1302.45,1576.65L1371,1576.65L1371,1622.35L1256.75,1622.35L1233.9,1599.5L1233.9,1576.65L1142.5,1576.65L1142.5,1599.5L1119.65,1622.35L1096.8,1622.35L1096.8,1576.65L1051.1,1576.65L1051.1,1599.5L1028.25,1622.35L1005.4,1622.35Z" style="fill:rgb(61,32,115);stroke:rgb(61,32,115);stroke-width:1px;"/>
            </g>
            <g transform="matrix(1,0,0,1,-30.5,-11.45)">
                <path d="M502.7,1485.25L434.15,1462.4L365.6,1393.85L502.7,1393.85L502.7,1485.25Z" style="fill:rgb(61,32,115);stroke:rgb(61,32,115);stroke-width:1px;"/>
            </g>
            <g transform="matrix(1,0,0,1,-30.5,-194.25)">
                <path d="M502.7,1485.25L434.15,1462.4L365.6,1393.85L502.7,1393.85L502.7,1485.25Z" style="fill:rgb(61,32,115);stroke:rgb(61,32,115);stroke-width:1px;"/>
            </g>
            <g transform="matrix(1,0,0,1,-30.5,-377.05)">
                <path d="M502.7,1485.25L434.15,1462.4L365.6,1393.85L502.7,1393.85L502.7,1485.25Z" style="fill:rgb(61,32,115);stroke:rgb(61,32,115);stroke-width:1px;"/>
            </g>
            <g transform="matrix(1,0,0,1,-30.5,-559.85)">
                <path d="M502.7,1485.25L434.15,1462.4L365.6,1393.85L502.7,1393.85L502.7,1485.25Z" style="fill:rgb(61,32,115);stroke:rgb(61,32,115);stroke-width:1px;"/>
            </g>
            <g transform="matrix(1,0,0,1,-30.5,-11.45)">
                <path d="M1005.4,1073.95L1005.4,868.3L982.55,845.45L776.9,845.45L776.9,936.85L891.15,936.85L959.7,982.55L1005.4,1073.95Z" style="fill:rgb(61,32,115);stroke:rgb(61,32,115);stroke-width:1px;"/>
            </g>
            <g transform="matrix(1,0,0,1,-30.5,-11.45)">
                <path d="M502.7,639.8L525.55,662.65L639.8,662.65L662.65,685.5L708.35,708.35L754.05,754.05L662.65,754.05L502.7,731.2L502.7,639.8Z" style="fill:rgb(61,32,115);stroke:rgb(61,32,115);stroke-width:1px;"/>
            </g>
            <g transform="matrix(1,0,0,1,-30.5,-11.45)">
                <path d="M776.9,639.8L799.75,639.8L822.6,662.65L822.6,731.2L799.75,708.35L731.2,685.5L776.9,639.8Z" style="fill:rgb(61,32,115);stroke:rgb(61,32,115);stroke-width:1px;"/>
            </g>
        </g>
        <g id="Layer15">
            <g transform="matrix(1,0,0,1,-30.5,-11.45)">
                <path d="M1805.15,822.6L1805.15,799.75L1828,799.75L1850.85,809.201L1805.15,822.6Z" style="fill:rgb(32,47,176);stroke:rgb(32,47,176);stroke-width:1px;"/>
            </g>
            <g transform="matrix(1,0,0,1,-30.5,-11.45)">
                <path d="M1850.85,754.05L1873.7,731.2L1873.7,708.35L1896.55,731.2L1850.85,754.05Z" style="fill:rgb(32,47,176);stroke:rgb(32,47,176);stroke-width:1px;"/>
            </g>
            <g transform="matrix(1,0,0,1,-30.5,-11.45)">
                <path d="M1850.85,685.5L1828,662.65L1828,639.8L1850.85,639.8L1850.85,616.95L1873.7,639.8L1850.85,685.5Z" style="fill:rgb(32,47,176);stroke:rgb(32,47,176);stroke-width:1px;"/>
            </g>
            <g transform="matrix(1,0,0,1,-30.5,-11.45)">
                <path d="M1805.15,571.25L1782.3,594.1L1828,571.25L1805.15,571.25Z" style="fill:rgb(32,47,176);stroke:rgb(32,47,176);stroke-width:1px;"/>
            </g>
            <g transform="matrix(1,0,0,1,-30.5,-11.45)">
                <path d="M1873.7,594.1L1873.7,616.95L1896.55,616.95L1873.7,594.1Z" style="fill:rgb(32,47,176);stroke:rgb(32,47,176);stroke-width:1px;"/>
            </g>
            <g transform="matrix(1,0,0,1,-30.5,-11.45)">
                <path d="M1896.55,662.65L1919.4,639.8L1919.4,662.65L1896.55,662.65Z" style="fill:rgb(32,47,176);stroke:rgb(32,47,176);stroke-width:1px;"/>
            </g>
            <g transform="matrix(1,0,0,1,-30.5,-11.45)">
                <path d="M1873.7,799.75L1896.55,754.05L1896.55,776.9L1873.7,799.75Z" style="fill:rgb(32,47,176);stroke:rgb(32,47,176);stroke-width:1px;"/>
            </g>
        </g>
        <g id="Layer8">
            <g transform="matrix(1,0,0,1,-30.5,-11.45)">
                <path d="M914,525.55L1096.8,708.35L1371,708.35L1553.8,891.15L1576.65,891.15L1599.5,914L1576.65,936.85L1508.1,936.85L1371,799.75L1096.8,799.75L1051.1,754.05L822.6,525.55L685.5,525.55L594.1,434.15L594.1,297.05L685.5,205.65L1690.9,205.65L1873.7,388.45L1896.55,388.45L1919.4,411.3L1896.55,434.15L1828,434.15L1690.9,297.05L731.2,297.05L685.5,342.75L685.5,388.45L731.2,434.15L1416.7,434.15L1690.9,708.35L1713.75,708.35L1736.6,731.2L1713.75,754.05L1645.2,754.05L1416.7,525.55L914,525.55Z" style="fill:rgb(17,23,6);stroke:rgb(17,23,6);stroke-width:1px;"/>
            </g>
            <path d="M837.8,971.1L837.8,1016.8L814.95,1016.8L814.95,971.1L837.8,971.1ZM746.4,1016.8L723.55,1016.8L723.55,971.1L746.4,971.1L746.4,1016.8ZM517.9,1565.2L472.2,1519.5L472.2,1473.8L517.9,1473.8L517.9,1428.1L472.2,1428.1L472.2,1336.7L517.9,1336.7L517.9,1291L472.2,1291L472.2,1199.6L517.9,1199.6L517.9,1153.9L472.2,1153.9L472.2,1062.5L517.9,1062.5L517.9,1016.8L472.2,1016.8L472.2,971.1L655,971.1L655,1016.8L632.15,1016.8L632.15,971.1L563.6,971.1L563.6,993.95L609.3,1039.65L609.3,1382.4L655,1428.1L746.4,1428.1L792.1,1382.4L792.1,1153.9L837.8,1108.2L1020.6,1108.2L1066.3,1062.5L1066.3,834L1020.6,742.6L1134.85,788.3L1157.7,834L1157.7,1153.9L1112,1199.6L906.35,1199.6L883.5,1222.45L883.5,1336.7L906.35,1359.55L952.05,1359.55L974.9,1336.7L974.9,1291L952.05,1268.15L929.2,1268.15L929.2,1245.3L1043.45,1245.3L1066.3,1268.15L1066.3,1382.4L1020.6,1428.1L906.35,1428.1L883.5,1450.95L883.5,1519.5L837.8,1565.2L517.9,1565.2Z" style="fill:rgb(17,23,6);stroke:rgb(17,23,6);stroke-width:1px;"/>
            <g transform="matrix(1,0,0,1,-30.5,-11.45)">
                <path d="M502.7,1005.4L502.7,936.85L548.4,936.85L548.4,891.15L502.7,891.15L502.7,822.6L411.3,799.75L365.6,754.05L365.6,434.15L388.45,434.15L457,502.7L457,548.4L479.85,571.25L708.35,571.25L776.9,639.8L776.9,662.65L754.05,685.5L731.2,685.5L708.35,662.65L662.65,639.8L525.55,639.8L502.7,662.65L502.7,708.35L662.65,708.35L685.5,731.2L685.5,754.05L845.45,754.05L868.3,776.9L868.3,799.75L799.75,799.75L776.9,822.6L776.9,891.15L868.3,936.85L868.3,982.55L708.35,982.55L639.8,982.55L594.1,982.55L502.7,1005.4Z" style="fill:rgb(17,23,6);stroke:rgb(17,23,6);stroke-width:1px;"/>
            </g>
        </g>
        <g transform="matrix(1,0,0,1,-30.5,-11.45)">
            <g id="Layer12">
                <path d="M616.95,868.3L662.65,959.7L754.05,959.7L822.6,936.85L776.9,891.15L754.05,868.3L685.5,845.45L594.1,845.45L616.95,868.3Z" style="stroke:black;stroke-width:1px;"/>
            </g>
        </g>
        <g transform="matrix(1,0,0,1,-30.5,-11.45)">
            <g id="Layer16">
                <path d="M685.5,936.85L662.65,914L662.65,891.15L708.35,891.15L754.05,936.85L685.5,936.85Z" style="fill:rgb(167,43,33);stroke:rgb(167,43,33);stroke-width:1px;"/>
            </g>
        </g>
    </g>
</svg>
