<?xml version="1.0" encoding="UTF-8" standalone="no"?>
<!DOCTYPE svg PUBLIC "-//W3C//DTD SVG 1.1//EN" "http://www.w3.org/Graphics/SVG/1.1/DTD/svg11.dtd">
<svg width="100%" height="100%" viewBox="0 0 4634 3475" version="1.1" xmlns="http://www.w3.org/2000/svg" xmlns:xlink="http://www.w3.org/1999/xlink" xml:space="preserve" xmlns:serif="http://www.serif.com/" style="fill-rule:evenodd;clip-rule:evenodd;stroke-linecap:round;stroke-linejoin:round;stroke-miterlimit:1.5;">
    <g transform="matrix(2.08333,0,0,2.08333,0,0)">
        <g id="Layer17">
            <path d="M731.2,1530.95L731.2,1439.55L685.5,1393.85L685.5,1371L662.65,1348.15L479.85,1348.15L457,1371L457,1393.85L411.3,1439.55L411.3,1530.95L731.2,1530.95Z" style="fill:rgb(176,192,175);stroke:rgb(176,192,175);stroke-width:1px;"/>
            <g transform="matrix(-1,0,0,1,2285,0)">
                <path d="M731.2,1530.95L731.2,1439.55L685.5,1393.85L685.5,1371L662.65,1348.15L479.85,1348.15L457,1371L457,1393.85L411.3,1439.55L411.3,1530.95L731.2,1530.95Z" style="fill:rgb(176,192,175);stroke:rgb(176,192,175);stroke-width:1px;"/>
            </g>
            <path d="M776.9,1302.45L776.9,1142.5L799.75,1119.65L822.6,1073.95L822.6,891.15L776.9,845.45L708.35,845.45L708.35,731.2L662.65,731.2L662.65,639.8L616.95,639.8L616.95,502.7L525.55,502.7L525.55,685.5L479.85,685.5L479.85,822.6L434.15,822.6L434.15,845.45L411.3,845.45L365.6,891.15L365.6,1302.45L411.3,1348.15L457,1348.15L502.7,1302.45L639.8,1302.45L685.5,1348.15L731.2,1348.15L776.9,1302.45Z" style="fill:rgb(176,192,175);stroke:rgb(176,192,175);stroke-width:1px;"/>
            <g transform="matrix(-1,0,0,1,2285,0)">
                <path d="M776.9,1302.45L776.9,1142.5L799.75,1119.65L822.6,1073.95L822.6,891.15L776.9,845.45L708.35,845.45L708.35,731.2L662.65,731.2L662.65,639.8L616.95,639.8L616.95,502.7L525.55,502.7L525.55,685.5L479.85,685.5L479.85,822.6L434.15,822.6L434.15,845.45L411.3,845.45L365.6,891.15L365.6,1302.45L411.3,1348.15L457,1348.15L502.7,1302.45L639.8,1302.45L685.5,1348.15L731.2,1348.15L776.9,1302.45Z" style="fill:rgb(176,192,175);stroke:rgb(176,192,175);stroke-width:1px;"/>
            </g>
            <path d="M868.3,1211.05L868.3,959.7L936.85,891.15L1348.15,891.15L1416.7,959.7L1416.7,1211.05L1371,1256.75L914,1256.75L868.3,1211.05Z" style="fill:rgb(176,192,175);stroke:rgb(176,192,175);stroke-width:1px;"/>
            <path d="M1485.25,616.95L1462.4,594.1L1462.4,502.7L1485.25,479.85L1508.1,479.85L1508.1,525.55L1553.8,525.55L1553.8,571.25L1508.1,571.25L1508.1,616.95L1485.25,616.95Z" style="fill:rgb(176,192,175);stroke:rgb(176,192,175);stroke-width:1px;"/>
            <path d="M1439.55,434.15L1416.7,411.3L1416.7,319.9L1439.55,297.05L1462.4,297.05L1462.4,342.75L1508.1,342.75L1508.1,388.45L1462.4,388.45L1462.4,434.15L1439.55,434.15Z" style="fill:rgb(176,192,175);stroke:rgb(176,192,175);stroke-width:1px;"/>
            <path d="M1371,822.6L1371,754.05L1416.7,708.35L1416.7,479.85L1371,388.45L1325.3,342.75L1279.6,342.75L1279.6,594.1L1233.9,594.1L1233.9,845.45L1348.15,845.45L1371,822.6Z" style="fill:rgb(176,192,175);stroke:rgb(176,192,175);stroke-width:1px;"/>
            <path d="M868.3,616.95L868.3,571.25L959.7,525.55L982.55,525.55L1005.4,502.7L1005.4,365.6L982.55,342.75L754.05,342.75L708.35,342.75L685.5,319.9L685.5,228.5L776.9,159.95L868.3,114.25L1302.45,114.25L1325.3,137.1L1325.3,205.65L1279.6,251.35L1279.6,297.05L1233.9,342.75L1233.9,502.7L1211.05,525.55L1119.65,525.55L1028.25,616.95L868.3,616.95Z" style="fill:rgb(176,192,175);stroke:rgb(176,192,175);stroke-width:1px;"/>
        </g>
        <g id="Layer16">
            <path d="M959.7,1485.25L959.7,1371L936.85,1348.15L914,1348.15L914,1279.6L891.15,1256.75L845.45,1256.75L822.6,1279.6L822.6,1348.15L799.75,1348.15L776.9,1371L776.9,1485.25L959.7,1485.25Z" style="fill:rgb(128,144,127);stroke:rgb(128,144,127);stroke-width:1px;"/>
            <g transform="matrix(1,0,0,1,548.4,0)">
                <path d="M959.7,1485.25L959.7,1371L936.85,1348.15L914,1348.15L914,1279.6L891.15,1256.75L845.45,1256.75L822.6,1279.6L822.6,1348.15L799.75,1348.15L776.9,1371L776.9,1485.25L959.7,1485.25Z" style="fill:rgb(128,144,127);stroke:rgb(128,144,127);stroke-width:1px;"/>
            </g>
            <path d="M959.7,1302.45L959.7,1348.15L1051.1,1439.55L1233.9,1439.55L1325.3,1348.15L1325.3,1302.45L959.7,1302.45Z" style="fill:rgb(128,144,127);stroke:rgb(128,144,127);stroke-width:1px;"/>
            <g transform="matrix(1,0,0,1,-22.85,0)">
                <path d="M776.9,274.2L868.3,182.8L914,159.95L1028.25,159.95L1028.25,182.8L1005.4,205.65L982.55,205.65L914,274.2L776.9,274.2Z" style="fill:rgb(128,144,127);stroke:rgb(128,144,127);stroke-width:1px;"/>
            </g>
        </g>
        <g id="Layer8">
            <g transform="matrix(1,0,0,1,22.85,0)">
                <path d="M411.3,1485.25L388.45,1508.1L388.45,1530.95L434.15,1576.65L457,1622.35L479.85,1530.95L479.85,1508.1L457,1485.25L411.3,1485.25Z" style="fill:rgb(49,32,95);stroke:rgb(49,32,95);stroke-width:1px;"/>
            </g>
            <g transform="matrix(-1,0,0,1,2262.15,0)">
                <path d="M411.3,1485.25L388.45,1508.1L388.45,1530.95L434.15,1576.65L457,1622.35L479.85,1530.95L479.85,1508.1L457,1485.25L411.3,1485.25Z" style="fill:rgb(49,32,95);stroke:rgb(49,32,95);stroke-width:1px;"/>
            </g>
            <path d="M662.65,1485.25L708.35,1485.25L731.2,1508.1L731.2,1530.95L708.35,1622.35L685.5,1576.65L639.8,1530.95L639.8,1508.1L662.65,1485.25Z" style="fill:rgb(49,32,95);stroke:rgb(49,32,95);stroke-width:1px;"/>
            <g transform="matrix(-1,0,0,1,2285,0)">
                <path d="M662.65,1485.25L708.35,1485.25L731.2,1508.1L731.2,1530.95L708.35,1622.35L685.5,1576.65L639.8,1530.95L639.8,1508.1L662.65,1485.25Z" style="fill:rgb(49,32,95);stroke:rgb(49,32,95);stroke-width:1px;"/>
            </g>
            <g transform="matrix(1,0,0,1,-114.25,0)">
                <path d="M662.65,1485.25L708.35,1485.25L731.2,1508.1L731.2,1530.95L708.35,1622.35L685.5,1576.65L639.8,1530.95L639.8,1508.1L662.65,1485.25Z" style="fill:rgb(49,32,95);stroke:rgb(49,32,95);stroke-width:1px;"/>
            </g>
            <g transform="matrix(-1,0,0,1,2399.25,0)">
                <path d="M662.65,1485.25L708.35,1485.25L731.2,1508.1L731.2,1530.95L708.35,1622.35L685.5,1576.65L639.8,1530.95L639.8,1508.1L662.65,1485.25Z" style="fill:rgb(49,32,95);stroke:rgb(49,32,95);stroke-width:1px;"/>
            </g>
            <path d="M457,1188.2L457,1096.8L434.15,1073.95L411.3,1073.95L411.3,1096.8L388.45,1119.65L365.6,1119.65L365.6,1165.35L388.45,1165.35L411.3,1188.2L411.3,1211.05L434.15,1211.05L457,1188.2Z" style="fill:rgb(49,32,95);stroke:rgb(49,32,95);stroke-width:1px;"/>
            <g transform="matrix(-1,0,0,1,2285,0)">
                <path d="M457,1188.2L457,1096.8L434.15,1073.95L411.3,1073.95L411.3,1096.8L388.45,1119.65L365.6,1119.65L365.6,1165.35L388.45,1165.35L411.3,1188.2L411.3,1211.05L434.15,1211.05L457,1188.2Z" style="fill:rgb(49,32,95);stroke:rgb(49,32,95);stroke-width:1px;"/>
            </g>
            <path d="M434.15,388.45L479.85,388.45L525.55,342.75L548.4,342.75L548.4,228.5L571.25,205.65L594.1,205.65L616.95,182.8L639.8,68.55L639.8,274.2L616.95,297.05L594.1,297.05L594.1,502.7L571.25,525.55L548.4,525.55L548.4,685.5L525.55,708.35L502.7,708.35L502.7,822.6L479.85,845.45L457,845.45L457,1005.4L434.15,1028.25L411.3,1028.25L411.3,1005.4L388.45,982.55L365.6,982.55L365.6,936.85L388.45,936.85L411.3,914L411.3,662.65L388.45,662.65L365.6,639.8L365.6,525.55L388.45,571.25L434.15,571.25L457,548.4L457,479.85L434.15,479.85L411.3,457L411.3,342.75L434.15,388.45Z" style="fill:rgb(49,32,95);stroke:rgb(49,32,95);stroke-width:1px;"/>
            <g transform="matrix(-1,0,0,1,2285,0)">
                <path d="M434.15,388.45L479.85,388.45L525.55,342.75L548.4,342.75L548.4,228.5L571.25,205.65L594.1,205.65L616.95,182.8L639.8,68.55L639.8,274.2L616.95,297.05L594.1,297.05L594.1,502.7L571.25,525.55L548.4,525.55L548.4,685.5L525.55,708.35L502.7,708.35L502.7,822.6L479.85,845.45L457,845.45L457,1005.4L434.15,1028.25L411.3,1028.25L411.3,1005.4L388.45,982.55L365.6,982.55L365.6,936.85L388.45,936.85L411.3,914L411.3,662.65L388.45,662.65L365.6,639.8L365.6,525.55L388.45,571.25L434.15,571.25L457,548.4L457,479.85L434.15,479.85L411.3,457L411.3,342.75L434.15,388.45Z" style="fill:rgb(49,32,95);stroke:rgb(49,32,95);stroke-width:1px;"/>
            </g>
        </g>
        <g id="Layer9">
            <path d="M548.4,1096.8L548.4,776.9L571.25,754.05L594.1,754.05L594.1,685.5L594.1,662.65L639.8,662.65L639.8,754.05L662.65,754.05L685.5,776.9L685.5,936.85L639.8,982.55L639.8,1028.25L594.1,1073.95L594.1,1119.65L571.25,1119.65L548.4,1096.8Z" style="fill:rgb(145,145,211);stroke:rgb(145,145,211);stroke-width:1px;"/>
            <g transform="matrix(-1,0,0,1,2285,0)">
                <path d="M548.4,1096.8L548.4,776.9L571.25,754.05L594.1,754.05L594.1,685.5L594.1,662.65L639.8,662.65L639.8,754.05L662.65,754.05L685.5,776.9L685.5,936.85L639.8,982.55L639.8,1028.25L594.1,1073.95L594.1,1119.65L571.25,1119.65L548.4,1096.8Z" style="fill:rgb(145,145,211);stroke:rgb(145,145,211);stroke-width:1px;"/>
            </g>
            <path d="M868.3,1005.4L891.15,1028.25L914,1028.25L959.7,1073.95L982.55,1073.95L1028.25,1119.65L1073.95,1119.65L1119.65,1165.35L1165.35,1165.35L1211.05,1119.65L1256.75,1119.65L1302.45,1073.95L1325.3,1073.95L1371,1028.25L1393.85,1028.25L1416.7,1005.4L1416.7,959.7L1393.85,936.85L1348.15,982.55L1325.3,982.55L1279.6,1028.25L1233.9,1028.25L1188.2,1073.95L1096.8,1073.95L1051.1,1028.25L1005.4,1028.25L959.7,982.55L936.85,982.55L891.15,936.85L868.3,959.7L868.3,1005.4Z" style="fill:rgb(145,145,211);stroke:rgb(145,145,211);stroke-width:1px;"/>
            <path d="M1325.3,1165.35L1325.3,1119.65L1302.45,1119.65L1256.75,1165.35L1211.05,1165.35L1165.35,1211.05L1119.65,1211.05L1073.95,1165.35L1028.25,1165.35L982.55,1119.65L959.7,1119.65L959.7,1165.35L1005.4,1211.05L1028.25,1211.05L1073.95,1256.75L1211.05,1256.75L1256.75,1211.05L1279.6,1211.05L1325.3,1165.35Z" style="fill:rgb(145,145,211);stroke:rgb(145,145,211);stroke-width:1px;"/>
        </g>
        <g id="Layer10">
            <path d="M1005.4,891.15L1279.6,891.15L1279.6,936.85L1233.9,982.55L1188.2,1028.25L1096.8,1028.25L1051.1,982.55L1005.4,936.85L1005.4,891.15Z" style="fill:rgb(162,97,48);stroke:rgb(162,97,48);stroke-width:1px;"/>
            <rect x="1051.1" y="799.75" width="182.8" height="45.7" style="fill:rgb(162,97,48);stroke:rgb(162,97,48);stroke-width:1px;"/>
            <path d="M1051.1,754.05L1051.1,708.35L1096.8,662.65L1279.6,662.65L1279.6,708.35L1233.9,754.05L1051.1,754.05Z" style="fill:rgb(162,97,48);stroke:rgb(162,97,48);stroke-width:1px;"/>
            <path d="M1096.8,616.95L1096.8,594.1L1119.65,571.25L1256.75,571.25L1279.6,548.4L1279.6,616.95L1096.8,616.95Z" style="fill:rgb(162,97,48);stroke:rgb(162,97,48);stroke-width:1px;"/>
            <path d="M1233.9,434.15L1233.9,342.75L1142.5,342.75L1142.5,388.45L1188.2,434.15L1233.9,434.15Z" style="fill:rgb(162,97,48);stroke:rgb(162,97,48);stroke-width:1px;"/>
            <path d="M1188.2,251.35L1233.9,205.65L1233.9,159.95L1142.5,159.95L1142.5,251.35L1188.2,251.35Z" style="fill:rgb(162,97,48);stroke:rgb(162,97,48);stroke-width:1px;"/>
        </g>
        <g id="Layer11">
            <rect x="1051.1" y="754.05" width="182.8" height="45.7" style="fill:rgb(180,139,30);stroke:rgb(180,139,30);stroke-width:1px;"/>
            <rect x="1096.8" y="616.95" width="182.8" height="45.7" style="fill:rgb(180,139,30);stroke:rgb(180,139,30);stroke-width:1px;"/>
            <path d="M731.2,845.45L731.2,754.05L685.5,708.35L685.5,662.65L639.8,616.95L639.8,525.55L594.1,479.85L594.1,662.65L616.95,662.65L639.8,685.5L639.8,754.05L662.65,754.05L685.5,776.9L685.5,845.45L731.2,845.45Z" style="fill:rgb(180,139,30);stroke:rgb(180,139,30);stroke-width:1px;"/>
            <g transform="matrix(-1,0,0,1,2285,0)">
                <path d="M731.2,845.45L731.2,754.05L685.5,708.35L685.5,662.65L639.8,616.95L639.8,525.55L594.1,479.85L594.1,662.65L616.95,662.65L639.8,685.5L639.8,754.05L662.65,754.05L685.5,776.9L685.5,845.45L731.2,845.45Z" style="fill:rgb(180,139,30);stroke:rgb(180,139,30);stroke-width:1px;"/>
            </g>
        </g>
        <g id="Layer12">
            <path d="M799.75,251.35L845.45,205.65L891.15,182.8L891.15,228.5L868.3,251.35L799.75,251.35Z" style="fill:rgb(175,63,55);stroke:rgb(175,63,55);stroke-width:1px;"/>
        </g>
        <g id="Layer14">
            <path d="M959.7,365.6L959.7,342.75L799.75,342.75L776.9,365.6L776.9,571.25L822.6,708.35L868.3,799.75L914,845.45L914,548.4L959.7,479.85L959.7,365.6Z" style="fill:rgb(240,113,15);stroke:rgb(240,113,15);stroke-width:1px;"/>
        </g>
        <g id="Layer13">
            <path d="M959.7,342.75L868.3,342.75L822.6,434.15L868.3,594.1L891.15,434.15L959.7,388.45L959.7,342.75Z" style="fill:rgb(179,82,6);stroke:rgb(179,82,6);stroke-width:1px;"/>
        </g>
        <g id="Layer15">
            <path d="M776.9,1622.35L776.9,1553.8L799.75,1530.95L936.85,1530.95L959.7,1553.8L959.7,1622.35L936.85,1622.35L914,1599.5L914,1576.65L868.3,1576.65L868.3,1599.5L845.45,1622.35L776.9,1622.35Z" style="fill:rgb(46,49,48);stroke:rgb(46,49,48);stroke-width:1px;"/>
            <path d="M1371,1576.65L1371,1599.5L1348.15,1622.35L1325.3,1622.35L1325.3,1553.8L1348.15,1530.95L1485.25,1530.95L1508.1,1553.8L1508.1,1622.35L1439.55,1622.35L1416.7,1599.5L1416.7,1576.65L1371,1576.65Z" style="fill:rgb(46,49,48);stroke:rgb(46,49,48);stroke-width:1px;"/>
        </g>
    </g>
</svg>
