<?xml version="1.0" encoding="UTF-8" standalone="no"?>
<!DOCTYPE svg PUBLIC "-//W3C//DTD SVG 1.1//EN" "http://www.w3.org/Graphics/SVG/1.1/DTD/svg11.dtd">
<svg width="100%" height="100%" viewBox="0 0 4634 3475" version="1.1" xmlns="http://www.w3.org/2000/svg" xmlns:xlink="http://www.w3.org/1999/xlink" xml:space="preserve" xmlns:serif="http://www.serif.com/" style="fill-rule:evenodd;clip-rule:evenodd;stroke-linecap:round;stroke-linejoin:round;stroke-miterlimit:1.5;">
    <g transform="matrix(2.08333,0,0,2.08333,0,0)">
        <g id="Layer5">
            <g transform="matrix(1,0,0,1,-72.82,-6.84)">
                <path d="M1719.9,726.18L1719.9,573.3L1624.35,477.75L1605.24,477.75L1605.24,687.96L1681.68,726.18L1719.9,726.18Z" style="fill:rgb(192,186,144);stroke:rgb(192,186,144);stroke-width:1px;"/>
            </g>
            <g transform="matrix(1,0,0,1,-72.82,-6.84)">
                <path d="M802.62,726.18L802.62,515.97L783.51,515.97L726.18,573.3L687.96,649.74L687.96,764.4L726.18,764.4L802.62,726.18Z" style="fill:rgb(192,186,144);stroke:rgb(192,186,144);stroke-width:1px;"/>
            </g>
            <g transform="matrix(1,0,0,1,-72.82,-6.84)">
                <path d="M917.28,707.07L1031.94,592.41L1070.16,592.41L1184.82,707.07L1184.82,955.5L1337.7,1089.27L1337.7,1395.03L840.84,1433.25L840.84,1299.48L955.5,1184.82L1031.94,1146.6L1070.16,1108.38L1070.16,1089.27L1051.05,1070.16L993.72,1051.05L917.28,974.61L917.28,707.07Z" style="fill:rgb(192,186,144);stroke:rgb(192,186,144);stroke-width:1px;"/>
            </g>
            <g transform="matrix(1,0,0,1,-72.82,-6.84)">
                <path d="M1184.82,687.96L1223.04,630.63L1414.14,726.18L1414.14,745.29L1395.03,764.4L1356.81,764.4L1337.7,783.51L1337.7,879.06L1605.24,1146.6L1605.24,1337.7L1528.8,1414.14L1528.8,1452.36L1700.79,1490.58L1834.56,1490.58L1872.78,840.84L1567.02,840.84L1567.02,229.32L1490.58,152.88L974.61,152.88L974.61,305.76L1089.27,305.76L1299.48,343.98L1414.14,343.98L1414.14,401.31L1395.03,420.42L917.28,420.42L840.84,496.86L840.84,821.73L821.73,840.84L573.3,974.61L573.3,1490.58L764.4,1490.58L764.4,1146.6L879.06,1031.94L879.06,726.18L1031.94,573.3L1070.16,573.3L1184.82,687.96Z" style="fill:rgb(192,186,144);stroke:rgb(192,186,144);stroke-width:1px;"/>
            </g>
        </g>
        <g id="Layer4">
            <g transform="matrix(1,0,0,1,-72.82,-6.84)">
                <path d="M535.08,1452.36L515.97,1452.36L496.86,1433.25L496.86,859.95L535.08,859.95L573.3,840.84L573.3,859.95L592.41,879.06L745.29,879.06L764.4,840.84L821.73,840.84L821.73,879.06L802.62,917.28L764.4,955.5L649.74,955.5L573.3,1031.94L573.3,1452.36L535.08,1452.36Z" style="fill:rgb(159,144,201);stroke:rgb(159,144,201);stroke-width:1px;"/>
            </g>
            <g transform="matrix(1,0,0,1,-72.82,-6.84)">
                <path d="M1796.34,1414.14L1853.67,1414.14L1872.78,1395.03L1872.78,802.62L1700.79,802.62L1681.68,840.84L1567.02,840.84L1567.02,879.06L1586.13,898.17L1643.46,917.28L1719.9,955.5L1758.12,993.72L1758.12,1375.92L1796.34,1414.14Z" style="fill:rgb(159,144,201);stroke:rgb(159,144,201);stroke-width:1px;"/>
            </g>
            <g transform="matrix(1,0,0,1,-72.82,-6.84)">
                <path d="M974.61,879.06L955.5,859.95L955.5,840.84L1031.94,764.4L974.61,764.4L955.5,745.29L955.5,726.18L1031.94,649.74L1070.16,649.74L1146.6,726.18L1146.6,745.29L1127.49,764.4L1070.16,764.4L1146.6,840.84L1146.6,859.95L1127.49,879.06L974.61,879.06Z" style="fill:rgb(159,144,201);stroke:rgb(159,144,201);stroke-width:1px;"/>
            </g>
            <g transform="matrix(1,0,0,1,-72.82,-6.84)">
                <path d="M1452.36,726.18L1452.36,611.52L1223.04,611.52L1223.04,630.63L1203.93,649.74L1184.82,687.96L1184.82,955.5L1318.59,1089.27L1318.59,1146.6L1299.48,1184.82L1242.15,1375.92L993.72,1433.25L840.84,1433.25L840.84,1490.58L1184.82,1490.58L1337.7,1414.14L1452.36,1299.48L1490.58,1223.04L1490.58,1108.38L1452.36,1031.94L1299.48,879.06L1299.48,745.29L1318.59,726.18L1452.36,726.18Z" style="fill:rgb(159,144,201);stroke:rgb(159,144,201);stroke-width:1px;"/>
            </g>
            <g transform="matrix(1,0,0,1,-72.82,-6.84)">
                <path d="M1567.02,343.98L1509.69,343.98L1452.36,286.65L1452.36,248.43L1490.58,171.99L1490.58,152.88L1567.02,229.32L1547.91,229.32L1509.69,248.43L1490.58,267.54L1509.69,286.65L1567.02,305.76L1567.02,343.98Z" style="fill:rgb(159,144,201);stroke:rgb(159,144,201);stroke-width:1px;"/>
            </g>
            <g transform="matrix(1,0,0,1,-72.82,-6.84)">
                <path d="M1375.92,152.88L1414.14,152.88L1414.14,267.54L1509.69,363.09L1509.69,382.2L1414.14,382.2L1414.14,363.09L1395.03,343.98L1375.92,343.98L1375.92,152.88Z" style="fill:rgb(159,144,201);stroke:rgb(159,144,201);stroke-width:1px;"/>
            </g>
            <g transform="matrix(1,0,0,1,-72.82,-6.84)">
                <rect x="1299.48" y="152.88" width="38.22" height="191.1" style="fill:rgb(159,144,201);stroke:rgb(159,144,201);stroke-width:1px;"/>
            </g>
            <g transform="matrix(1,0,0,1,-149.26,-6.84)">
                <rect x="1299.48" y="152.88" width="38.22" height="191.1" style="fill:rgb(159,144,201);stroke:rgb(159,144,201);stroke-width:1px;"/>
            </g>
            <g transform="matrix(1,0,0,0.9,-225.7,8.448)">
                <rect x="1299.48" y="152.88" width="38.22" height="191.1" style="fill:rgb(159,144,201);stroke:rgb(159,144,201);stroke-width:1.05px;"/>
            </g>
            <g transform="matrix(1,0,0,1,-302.14,-6.84)">
                <rect x="1299.48" y="152.88" width="38.22" height="191.1" style="fill:rgb(159,144,201);stroke:rgb(159,144,201);stroke-width:1px;"/>
            </g>
        </g>
        <g id="Layer1">
            <g transform="matrix(1,0,0,1,-72.82,-6.84)">
                <path d="M1089.27,1337.7L1108.38,1318.59L1108.38,1242.15L1089.27,1242.15L1012.83,1318.59L1012.83,1337.7L1089.27,1337.7Z" style="fill:rgb(120,111,93);stroke:rgb(120,111,93);stroke-width:1px;"/>
            </g>
            <g transform="matrix(1,0,0,1,-72.82,-6.84)">
                <path d="M936.39,1337.7L936.39,1318.59L879.06,1261.26L840.84,1299.48L840.84,1318.59L859.95,1337.7L936.39,1337.7Z" style="fill:rgb(120,111,93);stroke:rgb(120,111,93);stroke-width:1px;"/>
            </g>
            <g transform="matrix(1,0,0,1,-72.82,-6.84)">
                <path d="M1337.7,1127.49L1337.7,1089.27L1356.81,1070.16L1395.03,1070.16L1414.14,1089.27L1414.14,1127.49L1395.03,1146.6L1356.81,1146.6L1337.7,1127.49Z" style="fill:rgb(120,111,93);stroke:rgb(120,111,93);stroke-width:1px;"/>
            </g>
            <g transform="matrix(1,0,0,1,-72.82,-6.84)">
                <path d="M1318.59,1031.94L1280.37,1031.94L1261.26,1012.83L1261.26,974.61L1280.37,955.5L1318.59,955.5L1337.7,974.61L1337.7,1012.83L1318.59,1031.94Z" style="fill:rgb(120,111,93);stroke:rgb(120,111,93);stroke-width:1px;"/>
            </g>
            <g transform="matrix(1,0,0,1,-72.82,-6.84)">
                <path d="M1184.82,898.17L1184.82,859.95L1203.93,840.84L1242.15,840.84L1261.26,859.95L1261.26,898.17L1242.15,917.28L1203.93,917.28L1184.82,898.17Z" style="fill:rgb(120,111,93);stroke:rgb(120,111,93);stroke-width:1px;"/>
            </g>
            <g transform="matrix(1,0,0,1,-72.82,-6.84)">
                <path d="M1184.82,745.29L1184.82,707.07L1203.93,687.96L1242.15,687.96L1261.26,707.07L1261.26,745.29L1242.15,764.4L1203.93,764.4L1184.82,745.29Z" style="fill:rgb(120,111,93);stroke:rgb(120,111,93);stroke-width:1px;"/>
            </g>
            <g transform="matrix(1,0,0,1,-72.82,-6.84)">
                <path d="M1242.15,649.74L1223.04,630.63L1223.04,592.41L1242.15,573.3L1280.37,573.3L1299.48,592.41L1299.48,630.63L1280.37,649.74L1242.15,649.74Z" style="fill:rgb(120,111,93);stroke:rgb(120,111,93);stroke-width:1px;"/>
            </g>
            <g transform="matrix(1,0,0,1,-72.82,-6.84)">
                <path d="M1375.92,630.63L1375.92,592.41L1395.03,573.3L1433.25,573.3L1452.36,592.41L1452.36,630.63L1433.25,649.74L1395.03,649.74L1375.92,630.63Z" style="fill:rgb(120,111,93);stroke:rgb(120,111,93);stroke-width:1px;"/>
            </g>
            <g transform="matrix(1,0,0,1,-72.82,-6.84)">
                <path d="M1758.12,840.84L1758.12,764.4L1719.9,726.18L1681.68,726.18L1643.46,687.96L1605.24,687.96L1605.24,764.4L1681.68,840.84L1758.12,840.84Z" style="fill:rgb(120,111,93);stroke:rgb(120,111,93);stroke-width:1px;"/>
            </g>
            <g transform="matrix(1,0,0,1,-72.82,-6.84)">
                <path d="M687.96,879.06L726.18,840.84L802.62,802.62L802.62,726.18L764.4,726.18L726.18,764.4L649.74,764.4L611.52,802.62L611.52,879.06L687.96,879.06Z" style="fill:rgb(120,111,93);stroke:rgb(120,111,93);stroke-width:1px;"/>
            </g>
            <g transform="matrix(1,0,0,1,-72.82,-6.84)">
                <path d="M1165.71,1242.15L1146.6,1242.15L1146.6,1146.6L1184.82,1108.38L1261.26,1108.38L1337.7,1184.82L1337.7,1261.26L1299.48,1337.7L1223.04,1414.14L1146.6,1414.14L1070.16,1452.36L1031.94,1452.36L840.84,1452.36L840.84,1375.92L879.06,1375.92L917.28,1395.03L974.61,1414.14L1031.94,1395.03L1070.16,1375.92L1203.93,1356.81L1261.26,1299.48L1261.26,1280.37L1242.15,1261.26L1203.93,1261.26L1203.93,1242.15L1261.26,1184.82L1223.04,1146.6L1184.82,1184.82L1184.82,1223.04L1165.71,1242.15Z" style="fill:rgb(120,111,93);stroke:rgb(120,111,93);stroke-width:1px;"/>
            </g>
        </g>
        <g id="Layer3">
            <g transform="matrix(1,0,0,1,-72.82,-6.84)">
                <path d="M1834.56,1490.58L1739.01,1586.13L1719.9,1586.13L1719.9,1452.36L1834.56,1452.36L1834.56,1490.58Z" style="fill:rgb(135,15,174);stroke:rgb(135,15,174);stroke-width:1px;"/>
            </g>
            <g transform="matrix(1,0,0,1,-72.82,-6.84)">
                <path d="M1643.46,1452.36L1681.68,1471.47L1700.79,1490.58L1700.79,1509.69L1624.35,1586.13L1605.24,1586.13L1586.13,1528.8L1567.02,1509.69L1528.8,1490.58L1528.8,1452.36L1643.46,1452.36Z" style="fill:rgb(135,15,174);stroke:rgb(135,15,174);stroke-width:1px;"/>
            </g>
            <g transform="matrix(1,0,0,1,-72.82,-6.84)">
                <path d="M1490.58,1395.03L1509.69,1452.36L1528.8,1490.58L1586.13,1547.91L1586.13,1567.02L1452.36,1567.02L1414.14,1528.8L1414.14,1452.36L1471.47,1395.03L1490.58,1395.03Z" style="fill:rgb(135,15,174);stroke:rgb(135,15,174);stroke-width:1px;"/>
            </g>
            <g transform="matrix(1,0,0,1,-72.82,-6.84)">
                <path d="M1834.56,1337.7L1968.33,1337.7L1968.33,1318.59L1872.78,1223.04L1834.56,1223.04L1834.56,1337.7Z" style="fill:rgb(135,15,174);stroke:rgb(135,15,174);stroke-width:1px;"/>
            </g>
            <g transform="matrix(-1,0,0,1,2296.82,-6.84)">
                <path d="M1834.56,1337.7L1968.33,1337.7L1968.33,1318.59L1872.78,1223.04L1834.56,1223.04L1834.56,1337.7Z" style="fill:rgb(135,15,174);stroke:rgb(135,15,174);stroke-width:1px;"/>
            </g>
            <g transform="matrix(1,0,0,1,-72.82,-6.84)">
                <path d="M1834.56,1184.82L1911,1184.82L1968.33,1127.49L1968.33,1108.38L1911,1089.27L1865.88,1070.16L1834.56,1070.16L1834.56,1184.82Z" style="fill:rgb(135,15,174);stroke:rgb(135,15,174);stroke-width:1px;"/>
            </g>
            <g transform="matrix(-1,0,0,1,2296.82,-6.84)">
                <path d="M1834.56,1184.82L1911,1184.82L1968.33,1127.49L1968.33,1108.38L1911,1089.27L1865.88,1070.16L1834.56,1070.16L1834.56,1184.82Z" style="fill:rgb(135,15,174);stroke:rgb(135,15,174);stroke-width:1px;"/>
            </g>
            <g transform="matrix(1,0,0,1,-72.82,-6.84)">
                <path d="M1834.56,1031.94L1834.56,917.28L1911,917.28L1949.22,955.5L1949.22,993.72L1911,1031.94L1834.56,1031.94Z" style="fill:rgb(135,15,174);stroke:rgb(135,15,174);stroke-width:1px;"/>
            </g>
            <g transform="matrix(-1,0,0,1,2296.82,-6.84)">
                <path d="M1834.56,1031.94L1834.56,917.28L1911,917.28L1949.22,955.5L1949.22,993.72L1911,1031.94L1834.56,1031.94Z" style="fill:rgb(135,15,174);stroke:rgb(135,15,174);stroke-width:1px;"/>
            </g>
            <g transform="matrix(1,0,0,1,-72.82,-6.84)">
                <path d="M1872.78,859.95L1853.67,859.95L1796.34,802.62L1796.34,229.32L1758.12,191.1L1719.9,191.1L1681.68,229.32L1700.79,248.43L1719.9,248.43L1739.01,229.32L1739.01,210.21L1758.12,229.32L1758.12,267.54L1719.9,305.76L1681.68,305.76L1643.46,267.54L1643.46,152.88L1681.68,114.66L1834.56,114.66L1872.78,152.88L1872.78,859.95Z" style="fill:rgb(135,15,174);stroke:rgb(135,15,174);stroke-width:1px;"/>
            </g>
            <g transform="matrix(1,0,0,1,-72.82,-6.84)">
                <path d="M764.4,1586.13L783.51,1528.8L802.62,1509.69L840.84,1490.58L840.84,1414.14L764.4,1414.14L726.18,1452.36L687.96,1452.36L687.96,1519.5L745.29,1586.13L764.4,1586.13Z" style="fill:rgb(135,15,174);stroke:rgb(135,15,174);stroke-width:1px;"/>
            </g>
            <g transform="matrix(1,0,0,1,-72.82,-6.84)">
                <path d="M649.74,1452.36L649.74,1586.13L630.63,1586.13L535.08,1490.58L535.08,1452.36L573.3,1414.14L611.52,1414.14L649.74,1452.36Z" style="fill:rgb(135,15,174);stroke:rgb(135,15,174);stroke-width:1px;"/>
            </g>
            <g transform="matrix(1,0,0,1,-72.82,-6.84)">
                <path d="M535.08,859.95L573.3,840.84L573.3,267.54L611.52,229.32L630.63,229.32L649.74,248.43L649.74,286.65L611.52,324.87L611.52,343.98L649.74,343.98L687.96,305.76L687.96,152.88L649.74,114.66L573.3,114.66L496.86,191.1L496.86,859.95L535.08,859.95Z" style="fill:rgb(135,15,174);stroke:rgb(135,15,174);stroke-width:1px;"/>
            </g>
            <g transform="matrix(1,0,0,1,-72.82,-6.84)">
                <path d="M1318.59,133.77L1261.26,76.44L1223.04,76.44L1165.71,133.77L1108.38,76.44L1070.16,76.44L1012.83,133.77L1012.83,152.88L1051.05,171.99L1070.16,191.1L1108.38,191.1L1146.6,152.88L1184.82,152.88L1223.04,191.1L1261.26,191.1L1280.37,171.99L1318.59,152.88L1318.59,133.77Z" style="fill:rgb(135,15,174);stroke:rgb(135,15,174);stroke-width:1px;"/>
            </g>
            <g transform="matrix(1,0,0,-1,-72.82,451.8)">
                <path d="M1318.59,133.77L1261.26,76.44L1223.04,76.44L1165.71,133.77L1108.38,76.44L1070.16,76.44L1012.83,133.77L1012.83,152.88L1051.05,171.99L1070.16,191.1L1108.38,191.1L1146.6,152.88L1184.82,152.88L1223.04,191.1L1261.26,191.1L1280.37,171.99L1318.59,152.88L1318.59,133.77Z" style="fill:rgb(135,15,174);stroke:rgb(135,15,174);stroke-width:1px;"/>
            </g>
            <g transform="matrix(1,0,0,1,-72.82,-6.84)">
                <path d="M802.62,401.31L783.51,401.31L726.18,343.98L707.07,305.76L707.07,286.65L726.18,267.54L936.39,267.54L955.5,248.43L955.5,210.21L936.39,191.1L726.18,191.1L707.07,171.99L707.07,152.88L726.18,114.66L783.51,57.33L802.62,57.33L821.73,133.77L898.17,57.33L917.28,57.33L936.39,95.55L1031.94,191.1L1031.94,267.54L936.39,363.09L917.28,401.31L898.17,401.31L821.73,324.87L802.62,401.31Z" style="fill:rgb(135,15,174);stroke:rgb(135,15,174);stroke-width:1px;"/>
            </g>
        </g>
        <g id="Layer2">
            <g transform="matrix(1,0,0,1,-72.82,-6.84)">
                <path d="M1089.27,1414.14L1108.38,1433.25L1108.38,1567.02L1051.05,1624.35L1031.94,1624.35L1031.94,1414.14L1089.27,1414.14Z" style="fill:rgb(196,113,0);stroke:rgb(196,113,0);stroke-width:1px;"/>
            </g>
            <g transform="matrix(1,0,0,1,-72.82,-6.84)">
                <path d="M917.28,1414.14L917.28,1624.35L898.17,1624.35L879.06,1605.24L840.84,1528.8L840.84,1433.25L859.95,1414.14L917.28,1414.14Z" style="fill:rgb(196,113,0);stroke:rgb(196,113,0);stroke-width:1px;"/>
            </g>
        </g>
    </g>
</svg>
