<?xml version="1.0" encoding="UTF-8" standalone="no"?>
<!DOCTYPE svg PUBLIC "-//W3C//DTD SVG 1.1//EN" "http://www.w3.org/Graphics/SVG/1.1/DTD/svg11.dtd">
<svg width="100%" height="100%" viewBox="0 0 4634 3475" version="1.1" xmlns="http://www.w3.org/2000/svg" xmlns:xlink="http://www.w3.org/1999/xlink" xml:space="preserve" xmlns:serif="http://www.serif.com/" style="fill-rule:evenodd;clip-rule:evenodd;stroke-linecap:round;stroke-linejoin:round;stroke-miterlimit:1.5;">
    <g transform="matrix(2.08333,0,0,2.08333,0,0)">
        <g id="Layer3" transform="matrix(1,0,0,1,0.5,-4.5)">
            <path d="M487.5,448.5L565.5,448.5L604.5,429L624,390L624,312L604.5,273L565.5,253.5L487.5,253.5L448.5,273L429,312L429,390L448.5,429L487.5,448.5Z" style="fill:rgb(178,133,56);stroke:rgb(178,133,56);stroke-width:1px;"/>
            <path d="M429,1501.5L429,1423.5L468,1384.5L546,1384.5L585,1423.5L585,1501.5L546,1540.5L468,1540.5L429,1501.5Z" style="fill:rgb(178,133,56);stroke:rgb(178,133,56);stroke-width:1px;"/>
        </g>
        <g id="Layer1" transform="matrix(1,0,0,1,0.5,-4.5)">
            <path d="M312,97.5L604.5,97.5L624,78L877.5,78L897,58.5L1794,58.5L1872,136.5L1872,273L1852.5,292.5L1638,292.5L1560,370.5L1560,799.5L1638,877.5L1794,877.5L1794,1053L1774.5,1053L1716,994.5L1521,994.5L1462.5,1053L1443,1053L1443,877.5L1521,799.5L1521,760.5L1443,682.5L1404,682.5L1404,643.5L1443,643.5L1521,565.5L1521,526.5L1443,448.5L1443,409.5L1482,409.5L1560,331.5L1560,292.5L1482,214.5L1443,214.5L1404,253.5L1404,234L1384.5,214.5L1326,214.5L1326,156L1306.5,136.5L1228.5,136.5L1209,156L1209,214.5L1131,214.5L1131,156L1111.5,136.5L1033.5,136.5L1014,156L1014,214.5L936,214.5L936,156L916.5,136.5L838.5,136.5L819,156L819,214.5L702,214.5L507,156L390,136.5L331.5,117L312,97.5Z" style="fill:rgb(83,53,37);stroke:rgb(83,53,37);stroke-width:1px;"/>
            <path d="M1053,507L1053,429L1072.5,390L1111.5,370.5L1189.5,370.5L1228.5,390L1248,429L1248,507L1228.5,546L1189.5,565.5L1111.5,565.5L1072.5,546L1053,507Z" style="fill:rgb(83,53,37);stroke:rgb(83,53,37);stroke-width:1px;"/>
            <path d="M429,721.5L429,643.5L468,604.5L546,604.5L585,643.5L585,721.5L546,760.5L468,760.5L429,721.5Z" style="fill:rgb(83,53,37);stroke:rgb(83,53,37);stroke-width:1px;"/>
            <path d="M468,370.5L468,331.5L507,292.5L546,292.5L585,331.5L585,370.5L546,409.5L507,409.5L468,370.5Z" style="fill:rgb(83,53,37);stroke:rgb(83,53,37);stroke-width:1px;"/>
            <path d="M468,1482L468,1443L487.5,1423.5L526.5,1423.5L546,1443L546,1482L526.5,1501.5L487.5,1501.5L468,1482Z" style="fill:rgb(83,53,37);stroke:rgb(83,53,37);stroke-width:1px;"/>
            <path d="M663,663L663,507L682.5,468L721.5,429L760.5,409.5L916.5,409.5L955.5,429L994.5,468L1014,507L1014,663L994.5,702L955.5,741L916.5,760.5L760.5,760.5L721.5,741L682.5,702L663,663Z" style="fill:rgb(83,53,37);stroke:rgb(83,53,37);stroke-width:1px;"/>
            <path d="M1599,1111.5L1677,1033.5L1716,1033.5L1755,1072.5L1755,1228.5L1716,1267.5L1696.5,1267.5L1677,1248L1677,1170L1696.5,1150.5L1696.5,1131L1677,1111.5L1657.5,1111.5L1638,1131L1638,1267.5L1677,1306.5L1774.5,1306.5L1794,1287L1794,1111.5L1833,1150.5L1872,1228.5L1911,1384.5L1911,1540.5L1833,1618.5L1735.5,1618.5L1716,1599L1716,1482L1735.5,1462.5L1774.5,1462.5L1794,1443L1794,1404L1774.5,1384.5L1677,1384.5L1599,1306.5L1599,1111.5Z" style="fill:rgb(83,53,37);stroke:rgb(83,53,37);stroke-width:1px;"/>
            <path d="M1852.5,955.5L1891.5,955.5L1911,936L1911,409.5L1833,331.5L1677,331.5L1599,409.5L1599,760.5L1677,838.5L1716,838.5L1794,760.5L1794,487.5L1774.5,468L1735.5,468L1716,487.5L1716,682.5L1735.5,702L1755,702L1735.5,721.5L1696.5,721.5L1677,702L1677,468L1696.5,448.5L1813.5,448.5L1833,468L1833,936L1852.5,955.5Z" style="fill:rgb(83,53,37);stroke:rgb(83,53,37);stroke-width:1px;"/>
            <path d="M1423.5,1150.5L1443,1131L1443,1092L1423.5,1072.5L1423.5,994.5L1404,975L1404,897L1384.5,877.5L1248,877.5L1248,916.5L1345.5,1150.5L1423.5,1150.5Z" style="fill:rgb(83,53,37);stroke:rgb(83,53,37);stroke-width:1px;"/>
            <path d="M916.5,838.5L760.5,838.5L760.5,897L838.5,975L838.5,994.5L858,1033.5L1072.5,1248L1092,1248L1150.5,1306.5L1209,1306.5L1209,1170L1228.5,1170L1287,1228.5L1287,1209L1306.5,1189.5L1306.5,1170L1092,955.5L1072.5,955.5L1014,916.5L936,838.5L916.5,838.5Z" style="fill:rgb(83,53,37);stroke:rgb(83,53,37);stroke-width:1px;"/>
            <path d="M351,994.5L487.5,994.5L624,1131L663,1131L721.5,1150.5L955.5,1384.5L975,1384.5L975,1462.5L936,1501.5L916.5,1501.5L877.5,1462.5L858,1443L702,1287L624,1287L546,1267.5L351,1072.5L351,994.5Z" style="fill:rgb(83,53,37);stroke:rgb(83,53,37);stroke-width:1px;"/>
        </g>
        <g id="Layer2" transform="matrix(1,0,0,1,0.5,-4.5)">
            <path d="M819,214.5L819,156L838.5,136.5L916.5,136.5L936,156L936,214.5L897,253.5L858,253.5L819,214.5Z" style="fill:rgb(178,133,56);stroke:rgb(178,133,56);stroke-width:1px;"/>
            <path d="M1014,214.5L1014,156L1033.5,136.5L1111.5,136.5L1131,156L1131,214.5L1092,253.5L1053,253.5L1014,214.5Z" style="fill:rgb(178,133,56);stroke:rgb(178,133,56);stroke-width:1px;"/>
            <path d="M1209,214.5L1209,156L1228.5,136.5L1306.5,136.5L1326,156L1326,214.5L1287,253.5L1248,253.5L1209,214.5Z" style="fill:rgb(178,133,56);stroke:rgb(178,133,56);stroke-width:1px;"/>
            <path d="M1365,292.5L1443,214.5L1482,214.5L1560,292.5L1560,331.5L1482,409.5L1443,409.5L1365,331.5L1365,292.5Z" style="fill:rgb(178,133,56);stroke:rgb(178,133,56);stroke-width:1px;"/>
            <path d="M1521,526.5L1521,565.5L1443,643.5L1404,643.5L1326,565.5L1326,526.5L1404,448.5L1443,448.5L1521,526.5Z" style="fill:rgb(178,133,56);stroke:rgb(178,133,56);stroke-width:1px;"/>
            <path d="M1521,760.5L1521,799.5L1443,877.5L1404,877.5L1326,799.5L1326,760.5L1404,682.5L1443,682.5L1521,760.5Z" style="fill:rgb(178,133,56);stroke:rgb(178,133,56);stroke-width:1px;"/>
            <path d="M1345.5,1150.5L1248,916.5L1248,877.5L1170,799.5L975,799.5L975,858L1014,897L1053,916.5L1053,936L1092,955.5L1306.5,1170L1306.5,1189.5L1326,1189.5L1345.5,1150.5Z" style="fill:rgb(178,133,56);stroke:rgb(178,133,56);stroke-width:1px;"/>
            <path d="M1677,1540.5L1677,1482L1657.5,1462.5L1521,1462.5L1384.5,1599L1384.5,1618.5L1501.5,1618.5L1579.5,1540.5L1677,1540.5Z" style="fill:rgb(178,133,56);stroke:rgb(178,133,56);stroke-width:1px;"/>
            <path d="M1677,1618.5L1677,1579.5L1657.5,1560L1579.5,1560L1540.5,1599L1540.5,1618.5L1677,1618.5Z" style="fill:rgb(178,133,56);stroke:rgb(178,133,56);stroke-width:1px;"/>
            <path d="M1911,1014L1911,1209L1891.5,1209L1833,1131L1833,1014L1852.5,994.5L1891.5,994.5L1911,1014Z" style="fill:rgb(178,133,56);stroke:rgb(178,133,56);stroke-width:1px;"/>
            <path d="M1092,1345.5L1092,1248L1072.5,1248L858,1033.5L838.5,994.5L721.5,877.5L507,877.5L507,994.5L624,1111.5L741,1150.5L955.5,1365L975,1365L1033.5,1423.5L1053,1423.5L1092,1345.5Z" style="fill:rgb(178,133,56);stroke:rgb(178,133,56);stroke-width:1px;"/>
        </g>
        <g transform="matrix(1,0,0,1,312.5,229.5)">
            <g id="Layer7">
                <path d="M487.5,448.5L565.5,448.5L604.5,429L624,390L624,312L604.5,273L565.5,253.5L487.5,253.5L448.5,273L429,312L429,390L448.5,429L487.5,448.5Z" style="fill:rgb(178,133,56);stroke:rgb(178,133,56);stroke-width:1px;"/>
            </g>
        </g>
        <g id="Layer4" transform="matrix(1,0,0,1,0.5,-4.5)">
            <path d="M1326,1618.5L1365,1579.5L1365,1404L1384.5,1384.5L1521,1384.5L1560,1345.5L1560,1111.5L1618.5,1053L1618.5,1033.5L1501.5,1033.5L1482,1053L1482,1170L1462.5,1189.5L1365,1189.5L1287,1228.5L1326,1267.5L1306.5,1326L1248,1345.5L1209,1306.5L1189.5,1384.5L1131,1384.5L1053,1423.5L1092,1462.5L1092,1521L1072.5,1521L1072.5,1540.5L1014,1540.5L994.5,1482L936,1501.5L975,1540.5L955.5,1618.5L1326,1618.5Z" style="fill:rgb(118,142,140);stroke:rgb(118,142,140);stroke-width:1px;"/>
        </g>
        <g id="Layer5" transform="matrix(1,0,0,1,0.5,-4.5)">
            <path d="M975,1540.5L936,1501.5L916.5,1501.5L858,1423.5L858,1540.5L897,1618.5L955.5,1618.5L975,1599" style="fill:rgb(72,72,72);stroke:rgb(72,72,72);stroke-width:1px;"/>
            <path d="M1072.5,1540.5L1092,1521L1092,1462.5L1053,1423.5L1033.5,1423.5L975,1365L975,1501.5L1014,1540.5L1072.5,1540.5Z" style="fill:rgb(72,72,72);stroke:rgb(72,72,72);stroke-width:1px;"/>
            <path d="M1189.5,1423.5L1209,1404L1209,1345.5L1170,1306.5L1150.5,1306.5L1092,1248L1092,1404L1112,1423.5L1189.5,1423.5Z" style="fill:rgb(72,72,72);stroke:rgb(72,72,72);stroke-width:1px;"/>
            <path d="M1306.5,1345.5L1326,1326L1326,1267.5L1209,1150.5L1209,1306.5L1248,1345.5L1306.5,1345.5Z" style="fill:rgb(72,72,72);stroke:rgb(72,72,72);stroke-width:1px;"/>
        </g>
        <g id="Layer6" transform="matrix(1,0,0,1,0.5,-4.5)">
            <path d="M1209,1228.5L1209,1150.5L1170,1150.5L1131,1189.5L1131,1228.5L1209,1228.5Z" style="fill:rgb(251,158,191);"/>
        </g>
    </g>
</svg>
