<?xml version="1.0" encoding="UTF-8" standalone="no"?>
<!DOCTYPE svg PUBLIC "-//W3C//DTD SVG 1.1//EN" "http://www.w3.org/Graphics/SVG/1.1/DTD/svg11.dtd">
<svg width="100%" height="100%" viewBox="0 0 4634 3475" version="1.1" xmlns="http://www.w3.org/2000/svg" xmlns:xlink="http://www.w3.org/1999/xlink" xml:space="preserve" xmlns:serif="http://www.serif.com/" style="fill-rule:evenodd;clip-rule:evenodd;stroke-linecap:round;stroke-linejoin:round;stroke-miterlimit:1.5;">
    <g transform="matrix(2.08333,0,0,2.08333,0,0)">
        <g id="Layer9">
            <g transform="matrix(1,0,0,1,-30.5,-11.45)">
                <path d="M1051.1,251.35L1051.1,205.65L1142.5,114.25L1188.2,114.25L1279.6,205.65L1279.6,251.35L1051.1,251.35Z" style="fill:rgb(48,62,16);stroke:rgb(48,62,16);stroke-width:1px;"/>
            </g>
            <g transform="matrix(1,0,0,1,609.3,262.75)">
                <path d="M1051.1,251.35L1051.1,205.65L1142.5,114.25L1188.2,114.25L1279.6,205.65L1279.6,251.35L1051.1,251.35Z" style="fill:rgb(48,62,16);stroke:rgb(48,62,16);stroke-width:1px;"/>
            </g>
            <g transform="matrix(1,0,0,1,-670.3,262.75)">
                <path d="M1051.1,251.35L1051.1,205.65L1142.5,114.25L1188.2,114.25L1279.6,205.65L1279.6,251.35L1051.1,251.35Z" style="fill:rgb(48,62,16);stroke:rgb(48,62,16);stroke-width:1px;"/>
            </g>
        </g>
        <g id="Layer10">
            <g transform="matrix(1,0,0,1,-30.5,-11.45)">
                <path d="M1690.9,251.35L1690.9,205.65L1782.3,114.25L1828,114.25L1919.4,205.65L1919.4,251.35L1690.9,251.35Z" style="fill:rgb(0,15,15);stroke:rgb(0,15,15);stroke-width:1px;"/>
            </g>
            <g transform="matrix(1,0,0,1,-990.2,262.75)">
                <path d="M1690.9,251.35L1690.9,205.65L1782.3,114.25L1828,114.25L1919.4,205.65L1919.4,251.35L1690.9,251.35Z" style="fill:rgb(0,15,15);stroke:rgb(0,15,15);stroke-width:1px;"/>
            </g>
            <g transform="matrix(1,0,0,1,-350.4,262.75)">
                <path d="M1690.9,251.35L1690.9,205.65L1782.3,114.25L1828,114.25L1919.4,205.65L1919.4,251.35L1690.9,251.35Z" style="fill:rgb(0,15,15);stroke:rgb(0,15,15);stroke-width:1px;"/>
            </g>
            <g transform="matrix(1,0,0,1,-1310.1,-11.45)">
                <path d="M1690.9,251.35L1690.9,205.65L1782.3,114.25L1828,114.25L1919.4,205.65L1919.4,251.35L1690.9,251.35Z" style="fill:rgb(0,15,15);stroke:rgb(0,15,15);stroke-width:1px;"/>
            </g>
        </g>
        <g id="Layer11">
            <g transform="matrix(1,0,0,1,-30.5,-11.45)">
                <path d="M1371,251.35L1371,205.65L1462.4,114.25L1508.1,114.25L1599.5,205.65L1599.5,251.35L1371,251.35Z" style="fill:rgb(49,63,60);stroke:rgb(0,15,15);stroke-width:1px;"/>
            </g>
            <g transform="matrix(1,0,0,1,-350.4,262.75)">
                <path d="M1371,251.35L1371,205.65L1462.4,114.25L1508.1,114.25L1599.5,205.65L1599.5,251.35L1371,251.35Z" style="fill:rgb(49,63,60);stroke:rgb(0,15,15);stroke-width:1px;"/>
            </g>
            <g transform="matrix(1,0,0,1,-670.3,-11.45)">
                <path d="M1371,251.35L1371,205.65L1462.4,114.25L1508.1,114.25L1599.5,205.65L1599.5,251.35L1371,251.35Z" style="fill:rgb(49,63,60);stroke:rgb(0,15,15);stroke-width:1px;"/>
            </g>
        </g>
        <g id="Layer15">
            <g transform="matrix(1,0,0,1,-30.5,-11.45)">
                <path d="M502.7,1530.95L548.4,1576.65L662.65,1576.65L685.5,1553.8L685.5,1485.25L502.7,1485.25L502.7,1530.95Z" style="fill:rgb(46,80,80);stroke:rgb(46,80,80);stroke-width:1px;"/>
            </g>
            <g transform="matrix(1,0,0,1,-30.5,-11.45)">
                <path d="M914,1348.15L754.05,1576.65L1165.35,1576.65L982.55,1348.15L914,1348.15Z" style="fill:rgb(46,80,80);stroke:rgb(46,80,80);stroke-width:1px;"/>
            </g>
            <g transform="matrix(1,0,0,1,-30.5,-11.45)">
                <path d="M1462.4,1165.35L1416.7,1302.45L1371,1530.95L1371,1576.65L1553.8,1576.65L1599.5,1439.55L1599.5,1073.95L1462.4,1165.35Z" style="fill:rgb(46,80,80);stroke:rgb(46,80,80);stroke-width:1px;"/>
            </g>
            <g transform="matrix(1,0,0,1,-30.5,-11.45)">
                <path d="M1645.2,1576.65L1690.9,1508.1L1782.3,1485.25L1782.3,1576.65L1645.2,1576.65Z" style="fill:rgb(46,80,80);stroke:rgb(46,80,80);stroke-width:1px;"/>
            </g>
            <g transform="matrix(1,0,0,1,-30.5,-11.45)">
                <path d="M1850.85,1439.55L1828,1462.4L1828,1508.1L1873.7,1553.8L1919.4,1553.8L1919.4,1462.4L1896.55,1439.55L1850.85,1439.55Z" style="fill:rgb(46,80,80);stroke:rgb(46,80,80);stroke-width:1px;"/>
            </g>
        </g>
        <g id="Layer14">
            <g transform="matrix(1,0,0,1,-30.5,-11.45)">
                <path d="M1188.2,1576.65L1188.2,1211.05L1142.5,1073.95L1096.8,1028.25L1051.1,982.55L1005.4,1211.05L959.7,1348.15L1142.5,1576.65L1188.2,1576.65Z" style="fill:rgb(97,126,130);stroke:rgb(97,126,130);stroke-width:1px;"/>
            </g>
            <g transform="matrix(1,0,0,1,-30.5,-11.45)">
                <path d="M1462.4,1165.35L1416.7,1302.45L1371,1530.95L1371,1576.65L1233.9,1576.65L1233.9,1530.95L1279.6,1302.45L1325.3,1073.95L1462.4,1165.35Z" style="fill:rgb(97,126,130);stroke:rgb(97,126,130);stroke-width:1px;"/>
            </g>
            <g transform="matrix(1,0,0,1,-30.5,-11.45)">
                <path d="M1599.5,1530.95L1645.2,1439.55L1759.45,1439.55L1782.3,1462.4L1782.3,1508.1L1690.9,1530.95L1668.05,1576.65L1599.5,1576.65L1599.5,1530.95Z" style="fill:rgb(97,126,130);stroke:rgb(97,126,130);stroke-width:1px;"/>
            </g>
            <g transform="matrix(1,0,0,1,-30.5,-11.45)">
                <path d="M1828,1485.25L1873.7,1530.95L1919.4,1530.95L1919.4,1576.65L1828,1576.65L1828,1485.25Z" style="fill:rgb(97,126,130);stroke:rgb(97,126,130);stroke-width:1px;"/>
            </g>
            <g transform="matrix(1,0,0,1,-30.5,-11.45)">
                <path d="M731.2,1073.95L731.2,982.55L616.95,982.55L594.1,959.7L548.4,891.15L502.7,708.35L457,662.65L411.3,685.5L411.3,708.35L434.15,799.75L457,1211.05L502.7,1256.75L594.1,1211.05L731.2,1073.95Z" style="fill:rgb(97,126,130);stroke:rgb(97,126,130);stroke-width:1px;"/>
            </g>
            <g transform="matrix(1,0,0,1,-30.5,-11.45)">
                <path d="M1005.4,845.45L1051.1,891.15L1096.8,914L1142.5,914L1142.5,776.9L1005.4,822.6L1005.4,845.45Z" style="fill:rgb(97,126,130);stroke:rgb(97,126,130);stroke-width:1px;"/>
            </g>
        </g>
        <g transform="matrix(1,0,0,1,-30.5,-11.45)">
            <g id="Layer16">
                <path d="M525.55,1211.05L525.55,1096.8L548.4,1073.95L616.95,1073.95L639.8,1119.65L639.8,1211.05L525.55,1211.05Z" style="fill:rgb(46,80,80);stroke:rgb(46,80,80);stroke-width:1px;"/>
            </g>
        </g>
        <g id="Layer13">
            <g transform="matrix(1,0,0,1,-30.5,-11.45)">
                <path d="M502.7,1256.75L548.4,1302.45L616.95,1302.45L639.8,1325.3L639.8,1348.15L616.95,1371L548.4,1371L479.85,1302.45L457,1325.3L457,1393.85L502.7,1393.85L548.4,1485.25L594.1,1530.95L685.5,1530.95L685.5,1393.85L731.2,1348.15L731.2,1051.1L685.5,1073.95L639.8,1119.65L594.1,1211.05L525.55,1211.05L502.7,1233.9L502.7,1256.75Z" style="fill:rgb(176,192,191);stroke:rgb(176,192,191);stroke-width:1px;"/>
            </g>
            <g transform="matrix(1,0,0,1,-30.5,-11.45)">
                <path d="M822.6,1119.65L822.6,982.55L914,891.15L959.7,891.15L1051.1,936.85L1073.95,1005.4L1051.1,1165.35L1005.4,1211.05L959.7,1348.15L822.6,1119.65Z" style="fill:rgb(176,192,191);stroke:rgb(176,192,191);stroke-width:1px;"/>
            </g>
            <g transform="matrix(1,0,0,1,-30.5,-11.45)">
                <path d="M1325.3,1073.95L1416.7,1165.35L1508.1,1165.35L1599.5,1073.95L1599.5,1051.1L1576.65,1028.25L1348.15,1028.25L1325.3,1051.1L1325.3,1073.95Z" style="fill:rgb(176,192,191);stroke:rgb(176,192,191);stroke-width:1px;"/>
            </g>
        </g>
        <g id="Layer12">
            <g transform="matrix(1,0,0,1,-30.5,-11.45)">
                <path d="M685.5,936.85L754.05,868.3L799.75,799.75L822.6,799.75L822.6,959.7L776.9,1028.25L731.2,1051.1L662.65,1051.1L685.5,936.85Z" style="fill:rgb(161,176,112);stroke:rgb(161,176,112);stroke-width:1px;"/>
            </g>
            <g transform="matrix(1,0,0,1,-30.5,-11.45)">
                <path d="M457,1393.85L365.6,1485.25L365.6,1508.1L388.45,1530.95L525.55,1530.95L548.4,1508.1L548.4,1485.25L502.7,1393.85L457,1393.85Z" style="fill:rgb(161,176,112);stroke:rgb(161,176,112);stroke-width:1px;"/>
            </g>
            <g transform="matrix(1,0,0,1,-30.5,-11.45)">
                <path d="M754.05,1576.65L914,1439.55L936.85,1371L959.7,1348.15L914,1256.75L868.3,1119.65L822.6,1096.8L776.9,1302.45L754.05,1576.65Z" style="fill:rgb(161,176,112);stroke:rgb(161,176,112);stroke-width:1px;"/>
            </g>
            <g transform="matrix(1,0,0,1,-30.5,-11.45)">
                <path d="M914,708.35L1112,708.35L1142.5,731.2L1142.5,799.75L1096.8,845.45L1005.4,845.45L914,754.05L914,708.35Z" style="fill:rgb(161,176,112);stroke:rgb(161,176,112);stroke-width:1px;"/>
            </g>
        </g>
        <g transform="matrix(1,0,0,1,-30.5,-11.45)">
            <g id="Layer8">
                <rect x="548.4" y="1119.65" width="45.7" height="45.7" style="fill:rgb(181,193,136);stroke:rgb(181,193,136);stroke-width:1px;"/>
            </g>
        </g>
    </g>
</svg>
