<?xml version="1.0" encoding="UTF-8" standalone="no"?>
<!DOCTYPE svg PUBLIC "-//W3C//DTD SVG 1.1//EN" "http://www.w3.org/Graphics/SVG/1.1/DTD/svg11.dtd">
<svg width="100%" height="100%" viewBox="0 0 4634 3475" version="1.1" xmlns="http://www.w3.org/2000/svg" xmlns:xlink="http://www.w3.org/1999/xlink" xml:space="preserve" xmlns:serif="http://www.serif.com/" style="fill-rule:evenodd;clip-rule:evenodd;stroke-linecap:round;stroke-linejoin:round;stroke-miterlimit:1.5;">
    <g transform="matrix(2.08333,0,0,2.08333,0,0)">
        <g id="Layer15">
            <g transform="matrix(1,0,0,1,-30.5,11.4)">
                <path d="M1073.95,1485.25L1119.65,1462.4L1165.35,1416.7L1188.2,1348.15L1188.2,1302.45L1211.05,1348.15L1211.05,1416.7L1195.82,1462.4L1165.35,1496.67L1142.5,1508.1L1096.8,1508.1L1073.95,1485.25Z" style="fill:rgb(126,114,207);stroke:rgb(126,114,207);stroke-width:1px;"/>
            </g>
            <g transform="matrix(1,0,0,1,60.9,79.95)">
                <path d="M1051.1,1508.1L1051.1,1462.4L1119.65,1462.4L1165.35,1416.7L1188.2,1371L1188.2,1325.3L1211.05,1371L1211.05,1416.7L1195.82,1462.4L1165.35,1496.67L1142.5,1508.1L1051.1,1508.1Z" style="fill:rgb(126,114,207);stroke:rgb(126,114,207);stroke-width:1px;"/>
            </g>
            <g transform="matrix(1,0,0,1,-99.05,-34.3)">
                <path d="M1096.8,1508.1L1073.95,1462.4L1096.8,1462.4L1129.22,1439.55L1142.5,1416.7L1142.5,1393.85L1165.35,1416.7L1165.35,1439.55L1142.5,1485.25L1096.8,1508.1Z" style="fill:rgb(126,114,207);stroke:rgb(126,114,207);stroke-width:1px;"/>
            </g>
        </g>
        <g id="Layer8">
            <g transform="matrix(1,0,0,1,-7.65,11.4)">
                <path d="M342.75,616.95L319.9,639.8L319.9,982.55L365.6,1165.35L411.3,1211.05L411.3,616.95L342.75,616.95Z" style="fill:rgb(236,241,210);stroke:rgb(236,241,210);stroke-width:1px;"/>
            </g>
            <g transform="matrix(1,0,0,1,-7.65,11.4)">
                <path d="M571.25,502.7L616.95,594.1L616.95,1073.95L548.4,1119.65L708.35,1279.6L708.35,525.55L639.8,479.85L571.25,502.7Z" style="fill:rgb(236,241,210);stroke:rgb(236,241,210);stroke-width:1px;"/>
            </g>
            <g transform="matrix(1,0,0,1,-7.65,11.4)">
                <path d="M1508.1,251.35L1508.1,205.65L1576.65,114.25L1576.65,22.85L1553.8,22.85L1508.1,45.7L1439.55,114.25L1439.55,228.5L1462.4,251.35L1508.1,251.35Z" style="fill:rgb(236,241,210);stroke:rgb(236,241,210);stroke-width:1px;"/>
            </g>
            <g transform="matrix(1,0,0,1,-7.65,11.4)">
                <path d="M548.4,319.9L548.4,274.2L571.25,251.35L776.9,251.35L822.6,159.95L868.3,114.25L959.7,68.55L1096.8,68.55L1188.2,114.25L1233.9,159.95L1279.6,251.35L1325.3,434.15L1348.15,479.85L1416.7,525.55L1645.2,525.55L1645.2,502.7L1668.05,479.85L1759.45,479.85L1782.3,502.7L1782.3,891.15L1919.4,1028.25L1919.4,1096.8L1896.55,1119.65L1599.5,1119.65L1553.8,1073.95L1553.8,685.5L1576.65,662.65L1622.35,662.65L1645.2,685.5L1645.2,731.2L1622.35,754.05L1599.5,754.05L1599.5,799.75L1668.05,799.75L1690.9,776.9L1690.9,639.8L1668.05,616.95L1530.95,616.95L1508.1,639.8L1508.1,776.9L1485.25,799.75L1348.15,799.75L1325.3,776.9L1325.3,708.35L1279.6,708.35L1279.6,1096.8L1256.75,1119.65L1028.25,1119.65L1005.4,1096.8L1005.4,799.75L1233.9,571.25L1233.9,411.3L1211.05,388.45L1028.25,388.45L1005.4,411.3L1005.4,548.4L1028.25,571.25L1096.8,571.25L1096.8,525.55L1073.95,525.55L1051.1,502.7L1051.1,457L1073.95,434.15L1165.35,434.15L1188.2,457L1188.2,548.4L959.7,776.9L959.7,1325.3L982.55,1393.85L1028.25,1485.25L1073.95,1485.25L1119.65,1508.1L1142.5,1530.95L1142.5,1576.65L822.6,1576.65L799.75,1553.8L776.9,1485.25L776.9,525.55L731.2,479.85L594.1,388.45L548.4,319.9Z" style="fill:rgb(236,241,210);stroke:rgb(236,241,210);stroke-width:1px;"/>
            </g>
        </g>
        <g id="Layer14">
            <g transform="matrix(1,0,0,1,15.2,11.4)">
                <rect x="411.3" y="616.95" width="45.7" height="91.4" style="fill:rgb(225,176,45);stroke:rgb(225,176,45);stroke-width:1px;"/>
            </g>
            <g transform="matrix(1,0,0,1,106.6,11.4)">
                <rect x="411.3" y="616.95" width="45.7" height="91.4" style="fill:rgb(225,176,45);stroke:rgb(225,176,45);stroke-width:1px;"/>
            </g>
            <g transform="matrix(1,0,0,1,15.2,11.4)">
                <rect x="411.3" y="982.55" width="45.7" height="45.7" style="fill:rgb(225,176,45);stroke:rgb(225,176,45);stroke-width:1px;"/>
            </g>
            <g transform="matrix(1,0,0,1,106.6,11.4)">
                <rect x="411.3" y="982.55" width="45.7" height="45.7" style="fill:rgb(225,176,45);stroke:rgb(225,176,45);stroke-width:1px;"/>
            </g>
            <g transform="matrix(1,0,0,1,-7.65,11.4)">
                <path d="M685.5,1302.45L685.5,548.4L639.8,502.7L685.5,479.85L731.2,525.55L731.2,1348.15L685.5,1302.45Z" style="fill:rgb(225,176,45);stroke:rgb(225,176,45);stroke-width:1px;"/>
            </g>
            <g transform="matrix(1,0,0,1,-7.65,11.4)">
                <path d="M1051.1,845.45L1073.95,845.45L1096.8,868.3L1096.8,1051.1L1073.95,1073.95L1051.1,1073.95L1051.1,845.45Z" style="fill:rgb(225,176,45);stroke:rgb(225,176,45);stroke-width:1px;"/>
            </g>
            <g transform="matrix(1,0,0,1,-7.65,11.4)">
                <path d="M1165.35,845.45L1211.05,845.45L1233.9,868.3L1233.9,1051.1L1211.05,1073.95L1165.35,1073.95L1142.5,1051.1L1142.5,868.3L1165.35,845.45Z" style="fill:rgb(225,176,45);stroke:rgb(225,176,45);stroke-width:1px;"/>
            </g>
            <g transform="matrix(1,0,0,1,15.2,-34.3)">
                <path d="M1416.7,1530.95L1462.4,1485.25L1508.1,1485.25L1508.1,1439.55L1439.55,1439.55L1416.7,1462.4L1416.7,1530.95Z" style="fill:rgb(225,176,45);stroke:rgb(225,176,45);stroke-width:1px;"/>
            </g>
            <g transform="matrix(1,0,0,1,38.05,57.1)">
                <path d="M1416.7,1530.95L1462.4,1485.25L1508.1,1485.25L1508.1,1439.55L1439.55,1439.55L1416.7,1462.4L1416.7,1530.95Z" style="fill:rgb(225,176,45);stroke:rgb(225,176,45);stroke-width:1px;"/>
            </g>
            <g transform="matrix(1,0,0,1,152.3,102.8)">
                <path d="M1416.7,1530.95L1462.4,1485.25L1508.1,1485.25L1508.1,1439.55L1439.55,1439.55L1416.7,1462.4L1416.7,1530.95Z" style="fill:rgb(225,176,45);stroke:rgb(225,176,45);stroke-width:1px;"/>
            </g>
        </g>
        <g id="Layer12">
            <g transform="matrix(1,0,0,1,-7.65,11.4)">
                <path d="M411.3,319.9L434.15,297.05L548.4,297.05L594.1,342.75L616.95,388.45L434.15,388.45L411.3,365.6L411.3,319.9Z" style="fill:rgb(126,114,207);stroke:rgb(126,114,207);stroke-width:1px;"/>
            </g>
            <g transform="matrix(1,0,0,1,-7.65,11.4)">
                <path d="M754.05,388.45L868.3,388.45L868.3,434.15L822.6,479.85L662.65,479.85L754.05,388.45Z" style="fill:rgb(126,114,207);stroke:rgb(126,114,207);stroke-width:1px;"/>
            </g>
            <g transform="matrix(1,0,0,1,-7.65,11.4)">
                <path d="M548.4,137.1L571.25,114.25L754.05,114.25L776.9,137.1L776.9,182.8L754.05,205.65L571.25,205.65L548.4,182.8L548.4,137.1Z" style="fill:rgb(126,114,207);stroke:rgb(126,114,207);stroke-width:1px;"/>
            </g>
            <g transform="matrix(1,0,0,1,-7.65,11.4)">
                <path d="M616.95,799.75L548.4,799.75L411.3,845.45L411.3,891.15L548.4,891.15L616.95,868.3L616.95,799.75Z" style="fill:rgb(126,114,207);stroke:rgb(126,114,207);stroke-width:1px;"/>
            </g>
            <g transform="matrix(1,0,0,1,-7.65,11.4)">
                <path d="M1325.3,845.45L1325.3,1073.95L1371,1119.65L1462.4,1119.65L1508.1,1073.95L1508.1,845.45L1325.3,845.45Z" style="fill:rgb(126,114,207);stroke:rgb(126,114,207);stroke-width:1px;"/>
            </g>
            <g transform="matrix(1,0,0,1,-7.65,11.4)">
                <path d="M1553.8,1119.65L1485.25,1119.65L1462.4,1142.5L1462.4,1165.35L1553.8,1165.35L1553.8,1119.65Z" style="fill:rgb(126,114,207);stroke:rgb(126,114,207);stroke-width:1px;"/>
            </g>
            <g transform="matrix(1,0,0,1,-7.65,11.4)">
                <path d="M1919.4,1165.35L1919.4,1462.4L1896.55,1508.1L1873.7,1530.95L1713.75,1530.95L1576.65,1508.1L1553.8,1462.4L1553.8,1416.7L1576.65,1391.57L1782.3,1371L1828,1325.3L1828,1165.35L1919.4,1165.35Z" style="fill:rgb(126,114,207);stroke:rgb(126,114,207);stroke-width:1px;"/>
            </g>
            <g transform="matrix(1,0,0,1,-7.65,11.4)">
                <rect x="1828" y="479.85" width="91.4" height="365.6" style="fill:rgb(126,114,207);stroke:rgb(126,114,207);stroke-width:1px;"/>
            </g>
            <g transform="matrix(1,0,0,1,-7.65,11.4)">
                <path d="M1919.4,434.15L1919.4,205.65L1873.7,159.95L1599.5,159.95L1553.8,205.65L1553.8,251.35L1805.15,251.35L1828,274.2L1828,434.15L1919.4,434.15Z" style="fill:rgb(126,114,207);stroke:rgb(126,114,207);stroke-width:1px;"/>
            </g>
        </g>
        <g transform="matrix(1,0,0,1,-7.65,11.4)">
            <g id="Layer13">
                <path d="M319.9,525.55L319.9,548.4L342.75,571.25L571.25,571.25L594.1,594.1L594.1,1051.1L571.25,1073.95L411.3,1073.95L411.3,1119.65L594.1,1119.65L639.8,1073.95L639.8,571.25L594.1,525.55L319.9,525.55Z" style="fill:rgb(211,149,152);stroke:rgb(211,149,152);stroke-width:1px;"/>
            </g>
        </g>
        <g transform="matrix(1,0,0,1,-7.65,11.4)">
            <g id="Layer11">
                <path d="M319.9,502.7L342.75,479.85L411.3,479.85L525.55,434.15L548.4,434.15L594.1,388.45L685.5,342.75L1051.1,114.25L731.2,434.15L685.5,479.85L594.1,525.55L319.9,525.55L319.9,502.7Z" style="fill:rgb(171,62,17);stroke:rgb(171,62,17);stroke-width:1px;"/>
            </g>
        </g>
        <g transform="matrix(1,0,0,1,-7.65,11.4)">
            <g id="Layer10">
                <path d="M411.3,525.55L411.3,457L434.15,434.15L548.4,434.15L571.25,457L571.25,525.55L525.55,525.55L525.55,502.7L502.7,479.85L479.85,479.85L457,502.7L457,525.55L411.3,525.55Z" style="fill:rgb(92,28,4);stroke:rgb(92,28,4);stroke-width:1px;"/>
            </g>
        </g>
        <g transform="matrix(1,0,0,1,-7.65,11.4)">
            <g id="Layer9">
                <path d="M502.7,388.45L502.7,434.15L548.4,434.15L594.1,388.45L502.7,388.45Z" style="fill:rgb(8,0,14);stroke:rgb(8,0,14);stroke-width:1px;"/>
            </g>
        </g>
    </g>
</svg>
