<?xml version="1.0" encoding="UTF-8" standalone="no"?>
<!DOCTYPE svg PUBLIC "-//W3C//DTD SVG 1.1//EN" "http://www.w3.org/Graphics/SVG/1.1/DTD/svg11.dtd">
<svg width="100%" height="100%" viewBox="0 0 4634 3475" version="1.1" xmlns="http://www.w3.org/2000/svg" xmlns:xlink="http://www.w3.org/1999/xlink" xml:space="preserve" xmlns:serif="http://www.serif.com/" style="fill-rule:evenodd;clip-rule:evenodd;stroke-linecap:round;stroke-linejoin:round;stroke-miterlimit:1.5;">
    <g transform="matrix(2.08333,0,0,2.08333,0,0)">
        <g id="Layer5" transform="matrix(1,0,0,1,-14.9,12.7)">
            <path d="M1279.7,1184.2L1623.5,859.5L1623.5,821.3L1298.8,515.7L1298.8,477.5L1508.9,267.4L1508.9,57.3L1489.8,57.3L1260.6,286.5L1241.5,286.5L993.2,38.2L974.1,38.2L974.1,439.3L955,439.3L783.1,267.4L764,267.4L764,573L935.9,744.9L935.9,897.7L1069.6,1184.2L1279.7,1184.2Z" style="fill:rgb(186,211,189);stroke:rgb(186,211,189);stroke-width:1px;"/>
        </g>
        <g id="Layer6" transform="matrix(1,0,0,1,-14.9,12.7)">
            <path d="M1451.6,955L1547.1,859.5L1547.1,821.3L1451.6,725.8L1432.5,725.8L1432.5,955L1451.6,955Z" style="fill:rgb(151,167,160);stroke:rgb(151,167,160);stroke-width:1px;"/>
            <path d="M1184.2,706.7L1165.1,687.6L1165.1,573L1184.2,573L1298.8,687.6L1298.8,706.7L1184.2,706.7Z" style="fill:rgb(151,167,160);stroke:rgb(151,167,160);stroke-width:1px;"/>
            <path d="M840.4,592.1L821.3,573L821.3,458.4L840.4,458.4L955,573L955,592.1L840.4,592.1Z" style="fill:rgb(151,167,160);stroke:rgb(151,167,160);stroke-width:1px;"/>
            <path d="M1375.2,248.3L1375.2,229.2L1489.8,114.6L1508.9,114.6L1508.9,229.2L1489.8,248.3L1375.2,248.3Z" style="fill:rgb(151,167,160);stroke:rgb(151,167,160);stroke-width:1px;"/>
            <path d="M1107.8,248.3L1107.8,229.2L993.2,114.6L974.1,114.6L974.1,229.2L993.2,248.3L1107.8,248.3Z" style="fill:rgb(151,167,160);stroke:rgb(151,167,160);stroke-width:1px;"/>
        </g>
        <g id="Layer1" transform="matrix(1,0,0,1,-14.9,12.7)">
            <path d="M1317.9,477.5L1547.1,248.3L1795.4,248.3L1890.9,343.8L1890.9,1413.4L1871.8,1432.5L1795.4,1432.5L1776.3,1413.4L1757.2,1356.1L1738.1,1317.9L1699.9,1279.7L1699.9,1184.2L1680.8,1165.1L1604.4,1165.1L1585.3,1184.2L1585.3,1260.6L1566.2,1279.7L1375.2,1279.7L1356.1,1298.8L1356.1,1337L1375.2,1356.1L1413.4,1356.1L1432.5,1375.2L1432.5,1470.7L1241.5,1470.7L1203.3,1432.5L1203.3,1279.7L1642.6,859.5L1642.6,821.3L1317.9,515.7L1317.9,477.5Z" style="fill:rgb(120,102,79);stroke:rgb(120,102,79);stroke-width:1px;"/>
            <path d="M1146,1317.9L1279.7,1184.2L1279.7,1088.7L1260.6,1069.6L1222.4,1069.6L1146,1146L1126.9,1146L1126.9,1069.6L1184.2,1012.3L1203.3,974.1L1203.3,802.2L1184.2,783.1L974.1,783.1L955,878.6L897.7,1050.5L859.5,1126.9L821.3,1165.1L821.3,1184.2L840.4,1203.3L878.6,1203.3L993.2,1317.9L1146,1317.9Z" style="fill:rgb(120,102,79);stroke:rgb(120,102,79);stroke-width:1px;"/>
            <path d="M1126.9,687.6L1107.8,706.7L993.2,706.7L974.1,687.6L974.1,458.4L993.2,439.3L1050.5,439.3L1126.9,515.7L1126.9,687.6Z" style="fill:rgb(120,102,79);stroke:rgb(120,102,79);stroke-width:1px;"/>
        </g>
        <g id="Layer7" transform="matrix(1,0,0,1,-14.9,12.7)">
            <path d="M1547.1,611.2L1528,611.2L1432.5,515.7L1432.5,477.5L1528,382L1547.1,382L1547.1,611.2Z" style="fill:rgb(82,69,55);stroke:rgb(82,69,55);stroke-width:1px;"/>
            <path d="M1699.9,611.2L1680.8,611.2L1585.3,515.7L1585.3,477.5L1680.8,382L1699.9,382L1699.9,611.2Z" style="fill:rgb(82,69,55);stroke:rgb(82,69,55);stroke-width:1px;"/>
            <path d="M1738.1,515.7L1738.1,477.5L1833.6,382L1852.7,382L1852.7,611.2L1833.6,611.2L1738.1,515.7Z" style="fill:rgb(82,69,55);stroke:rgb(82,69,55);stroke-width:1px;"/>
            <path d="M1699.9,1184.2L1699.9,1012.3L1661.7,974.1L1523.51,974.1L1356.1,1134.24L1356.1,1260.6L1375.2,1279.7L1566.2,1279.7L1585.3,1260.6L1585.3,1184.2L1604.4,1165.1L1680.8,1165.1L1699.9,1184.2Z" style="fill:rgb(82,69,55);stroke:rgb(82,69,55);stroke-width:1px;"/>
            <path d="M1012.3,878.6L1031.4,859.5L1112,859.5L1126.9,878.6L1126.9,955L1112,974.1L1069.6,974.1L1050.5,993.2L1050.5,1184.2L955,1279.7L916.8,1241.5L1012.3,1146L1012.3,878.6Z" style="fill:rgb(82,69,55);stroke:rgb(82,69,55);stroke-width:1px;"/>
        </g>
        <g id="Layer9" transform="matrix(1,0,0,1,-14.9,12.7)">
            <path d="M1146,1317.9L1146,1356.1L1069.6,1432.5L1031.4,1451.6L974.1,1470.7L935.9,1489.8L897.7,1508.9L764,1508.9L706.7,1489.8L649.4,1470.7L553.9,1375.2L458.4,1279.7L401.1,1203.3L382,1146L362.9,1069.6L362.9,553.9L401.1,401.1L477.5,248.3L515.7,133.7L534.8,95.5L553.9,95.5L573,420.2L592.1,706.7L611.2,840.4L649.4,974.1L706.7,1088.7L744.9,1126.9L821.3,1165.1L821.3,1184.2L840.4,1203.3L878.6,1203.3L993.2,1317.9L1146,1317.9Z" style="fill:rgb(165,144,72);stroke:rgb(165,144,72);stroke-width:1px;"/>
        </g>
        <g id="Layer2" transform="matrix(1,0,0,1,-14.9,12.7)">
            <path d="M1031.4,630.3L1012.3,611.2L1012.3,477.5L1031.4,477.5L1088.7,534.8L1088.7,611.2L1069.6,630.3L1031.4,630.3Z" style="fill:rgb(239,142,140);stroke:rgb(239,142,140);stroke-width:1px;"/>
            <g transform="matrix(1,0,0,1,-19.1,2.27374e-13)">
                <path d="M1031.4,1604.4L1012.3,1585.3L1012.3,1508.9L1050.5,1451.6L1088.7,1432.5L1165.1,1356.1L1165.1,1432.5L1126.9,1585.3L1107.8,1604.4L1031.4,1604.4Z" style="fill:rgb(239,142,140);stroke:rgb(239,142,140);stroke-width:1px;"/>
            </g>
            <path d="M706.7,1585.3L687.6,1604.4L573,1604.4L362.9,1394.3L362.9,1317.9L382,1298.8L458.4,1298.8L706.7,1547.1L706.7,1585.3Z" style="fill:rgb(239,142,140);stroke:rgb(239,142,140);stroke-width:1px;"/>
        </g>
        <g id="Layer3" transform="matrix(1,0,0,1,-14.9,12.7)">
            <path d="M439.3,1432.5L592.1,1585.3L611.2,1585.3L630.3,1566.2L630.3,1547.1L477.5,1394.3L458.4,1394.3L439.3,1413.4L439.3,1432.5Z" style="fill:rgb(48,42,37);stroke:rgb(48,42,37);stroke-width:1px;"/>
            <path d="M1203.3,1528L1222.4,1508.9L1298.8,1508.9L1317.9,1528L1317.9,1585.3L1279.7,1585.3L1279.7,1566.2L1260.6,1547.1L1241.5,1566.2L1241.5,1585.3L1203.3,1585.3L1203.3,1566.2L1203.3,1528Z" style="fill:rgb(48,42,37);stroke:rgb(48,42,37);stroke-width:1px;"/>
            <path d="M1470.7,1451.6L1489.8,1470.7L1623.5,1470.7L1623.5,1432.5L1566.2,1432.5L1547.1,1413.4L1566.2,1394.3L1623.5,1394.3L1623.5,1356.1L1489.8,1356.1L1470.7,1375.2L1470.7,1451.6Z" style="fill:rgb(48,42,37);stroke:rgb(48,42,37);stroke-width:1px;"/>
            <path d="M1776.3,1489.8L1795.4,1470.7L1871.8,1470.7L1890.9,1489.8L1890.9,1585.3L1852.7,1585.3L1852.7,1547.1L1814.5,1547.1L1814.5,1585.3L1776.3,1585.3L1776.3,1489.8Z" style="fill:rgb(48,42,37);stroke:rgb(48,42,37);stroke-width:1px;"/>
            <path d="M1890.9,343.8L1890.9,114.6L1871.8,114.6L1757.2,229.2L1757.2,248.3L1795.4,248.3L1890.9,343.8Z" style="fill:rgb(48,42,37);stroke:rgb(48,42,37);stroke-width:1px;"/>
            <path d="M1031.4,935.9L1031.4,897.7L1050.5,878.6L1088.7,878.6L1107.8,897.7L1107.8,935.9L1088.7,955L1050.5,955L1031.4,935.9Z" style="fill:rgb(48,42,37);stroke:rgb(48,42,37);stroke-width:1px;"/>
        </g>
        <g id="Layer8" transform="matrix(1,0,0,1,-14.9,12.7)">
            <rect x="1050.5" y="897.7" width="38.2" height="38.2" style="fill:rgb(204,192,117);stroke:rgb(204,192,117);stroke-width:1px;"/>
            <path d="M840.4,1203.3L573,1203.3L553.9,1222.4L553.9,1375.2L458.4,1279.7L401.1,1203.3L382,1146L382,1126.9L477.5,1012.3L515.7,1012.3L668.5,1126.9L744.9,1126.9L821.3,1165.1L821.3,1184.2L840.4,1203.3Z" style="fill:rgb(204,192,117);stroke:rgb(204,192,117);stroke-width:1px;"/>
            <path d="M362.9,553.9L401.1,401.1L477.5,248.3L496.6,191L515.7,133.7L534.8,95.5L553.9,95.5L573,420.2L592.1,706.7L592.1,725.8L477.5,592.1L439.3,592.1L362.9,668.5L362.9,553.9Z" style="fill:rgb(204,192,117);stroke:rgb(204,192,117);stroke-width:1px;"/>
            <path d="M362.9,1012.3L362.9,783.1L439.3,706.7L477.5,706.7L611.2,840.4L649.4,974.1L687.6,1050.5L697.15,1069.6L477.5,859.5L439.3,859.5L362.9,1012.3Z" style="fill:rgb(204,192,117);stroke:rgb(204,192,117);stroke-width:1px;"/>
        </g>
        <g id="Layer4" transform="matrix(1,0,0,1,-14.9,12.7)">
            <path d="M592.1,935.9L592.1,897.7L706.7,783.1L744.9,783.1L859.5,897.7L859.5,935.9L592.1,935.9Z" style="fill:rgb(162,48,26);stroke:rgb(162,48,26);stroke-width:1px;"/>
            <path d="M592.1,744.9L592.1,706.7L706.7,592.1L744.9,592.1L859.5,706.7L859.5,744.9L592.1,744.9Z" style="fill:rgb(162,48,26);stroke:rgb(162,48,26);stroke-width:1px;"/>
            <path d="M592.1,248.3L592.1,210.1L706.7,95.5L744.9,95.5L859.5,210.1L859.5,248.3L592.1,248.3Z" style="fill:rgb(162,48,26);stroke:rgb(162,48,26);stroke-width:1px;"/>
        </g>
    </g>
</svg>
