<?xml version="1.0" encoding="UTF-8" standalone="no"?>
<!DOCTYPE svg PUBLIC "-//W3C//DTD SVG 1.1//EN" "http://www.w3.org/Graphics/SVG/1.1/DTD/svg11.dtd">
<svg width="100%" height="100%" viewBox="0 0 4634 3475" version="1.1" xmlns="http://www.w3.org/2000/svg" xmlns:xlink="http://www.w3.org/1999/xlink" xml:space="preserve" xmlns:serif="http://www.serif.com/" style="fill-rule:evenodd;clip-rule:evenodd;stroke-linecap:round;stroke-linejoin:round;stroke-miterlimit:1.5;">
    <g transform="matrix(2.08333,0,0,2.08333,0,0)">
        <g transform="matrix(1,0,0,1,-41.925,-22.875)">
            <g id="Layer13">
                <path d="M868.3,91.4L959.7,137.1L982.55,159.95L1211.05,411.3L1233.9,457L822.6,457L411.3,457L434.15,411.3L662.65,159.95L685.5,137.1L776.9,91.4L868.3,91.4Z" style="fill:rgb(243,174,109);stroke:rgb(243,174,109);stroke-width:1px;"/>
            </g>
        </g>
        <g id="Layer12">
            <g transform="matrix(1,0,0,1,-41.925,-22.875)">
                <path d="M776.9,114.25L685.5,159.95L411.3,457L411.3,594.1L434.15,616.95L616.95,616.95L639.8,639.8L639.8,1233.9L662.65,1279.6L708.35,1325.3L754.05,1348.15L1530.95,1348.15L1576.65,1325.3L1622.35,1279.6L1645.2,1233.9L1645.2,731.2L1668.05,708.35L1713.75,708.35L1736.6,731.2L1736.6,1279.6L1713.75,1325.3L1668.05,1371L1622.35,1393.85L936.85,1393.85L914,1416.7L914,1508.1L936.85,1530.95L1805.15,1530.95L1850.85,1508.1L1896.55,1462.4L1919.4,1416.7L1942.25,594.1L1919.4,548.4L1873.7,502.7L1828,479.85L1485.25,479.85L1439.55,502.7L1393.85,548.4L1371,594.1L1371,1051.1L1348.15,1073.95L1028.25,1073.95L1005.4,1051.1L1005.4,639.8L1028.25,616.95L1211.05,616.95L1233.9,594.1L1233.9,457L959.7,159.95L868.3,114.25L776.9,114.25Z" style="fill:rgb(143,79,14);stroke:rgb(143,79,14);stroke-width:1px;"/>
            </g>
            <g transform="matrix(1,0,0,1,-41.925,-22.875)">
                <path d="M594.1,822.6L571.25,845.45L411.3,845.45L411.3,708.35L502.7,708.35L548.4,754.05L571.25,754.05L594.1,776.9L594.1,822.6Z" style="fill:rgb(143,79,14);stroke:rgb(143,79,14);stroke-width:1px;"/>
            </g>
            <g transform="matrix(-1,0,0,1,1603.27,-22.875)">
                <path d="M594.1,822.6L571.25,845.45L411.3,845.45L411.3,708.35L502.7,708.35L548.4,754.05L571.25,754.05L594.1,776.9L594.1,822.6Z" style="fill:rgb(143,79,14);stroke:rgb(143,79,14);stroke-width:1px;"/>
            </g>
            <g transform="matrix(1,0,0,1,-41.925,-22.875)">
                <path d="M571.25,891.15L594.1,914L594.1,936.85L548.4,982.55L411.3,982.55L411.3,891.15L571.25,891.15Z" style="fill:rgb(143,79,14);stroke:rgb(143,79,14);stroke-width:1px;"/>
            </g>
            <g transform="matrix(-1,0,0,1,1603.27,-22.875)">
                <path d="M571.25,891.15L594.1,914L594.1,936.85L548.4,982.55L411.3,982.55L411.3,891.15L571.25,891.15Z" style="fill:rgb(143,79,14);stroke:rgb(143,79,14);stroke-width:1px;"/>
            </g>
            <g transform="matrix(1,0,0,1,-41.925,-22.875)">
                <path d="M502.7,1302.45L662.65,1302.45L708.35,1348.15L799.75,1393.85L822.6,1393.85L822.6,1439.55L594.1,1439.55L502.7,1348.15L502.7,1302.45Z" style="fill:rgb(143,79,14);stroke:rgb(143,79,14);stroke-width:1px;"/>
            </g>
            <g transform="matrix(1,0,0,-1,-41.925,2901.93)">
                <path d="M502.7,1302.45L662.65,1302.45L708.35,1348.15L799.75,1393.85L822.6,1393.85L822.6,1439.55L594.1,1439.55L502.7,1348.15L502.7,1302.45Z" style="fill:rgb(143,79,14);stroke:rgb(143,79,14);stroke-width:1px;"/>
            </g>
        </g>
        <g id="Layer14">
            <g transform="matrix(1,0,0,1,-41.925,-22.875)">
                <path d="M616.95,616.95L639.8,639.8L639.8,548.4L616.95,525.55L548.4,525.55L457,616.95L616.95,616.95Z" style="fill:rgb(221,127,47);stroke:rgb(221,127,47);stroke-width:1px;"/>
            </g>
            <g transform="matrix(-1,0,0,1,1603.28,-22.875)">
                <path d="M616.95,616.95L639.8,639.8L639.8,548.4L616.95,525.55L548.4,525.55L457,616.95L616.95,616.95Z" style="fill:rgb(221,127,47);stroke:rgb(221,127,47);stroke-width:1px;"/>
            </g>
            <g transform="matrix(1,0,0,1,-41.925,-0.025)">
                <path d="M731.2,365.6L754.05,342.75L891.15,342.75L914,365.6L731.2,365.6Z" style="fill:rgb(221,127,47);stroke:rgb(221,127,47);stroke-width:1px;"/>
            </g>
            <g transform="matrix(1,0,0,1,-41.925,-0.025)">
                <path d="M776.9,274.2L799.75,251.35L845.45,251.35L868.3,274.2L776.9,274.2Z" style="fill:rgb(221,127,47);stroke:rgb(221,127,47);stroke-width:1px;"/>
            </g>
            <g transform="matrix(1,0,0,1,-41.925,-22.875)">
                <path d="M502.7,891.15L502.7,936.85L411.3,982.55L388.45,982.55L365.6,959.7L365.6,914L388.45,891.15L502.7,891.15Z" style="fill:rgb(221,127,47);stroke:rgb(221,127,47);stroke-width:1px;"/>
            </g>
            <g transform="matrix(-1,0,0,1,1603.27,-22.875)">
                <path d="M502.7,891.15L502.7,936.85L411.3,982.55L388.45,982.55L365.6,959.7L365.6,914L388.45,891.15L502.7,891.15Z" style="fill:rgb(221,127,47);stroke:rgb(221,127,47);stroke-width:1px;"/>
            </g>
            <g transform="matrix(1,0,0,1,-41.925,-22.875)">
                <path d="M502.7,822.6L479.85,799.75L434.15,799.75L411.3,776.9L411.3,708.35L388.45,708.35L365.6,731.2L365.6,822.6L388.45,845.45L502.7,845.45L502.7,822.6Z" style="fill:rgb(221,127,47);stroke:rgb(221,127,47);stroke-width:1px;"/>
            </g>
            <g transform="matrix(-1,0,0,1,1603.27,-22.875)">
                <path d="M479.85,799.75L434.15,799.75L411.3,776.9L411.3,708.35L388.45,708.35L365.6,731.2L365.6,822.6L388.45,845.45L502.7,845.45L502.7,822.6L479.85,799.75Z" style="fill:rgb(221,127,47);stroke:rgb(221,127,47);stroke-width:1px;"/>
            </g>
            <g transform="matrix(1,0,0,1,-41.925,-22.875)">
                <path d="M594.1,1393.85L502.7,1302.45L388.45,1302.45L365.6,1325.3L365.6,1348.15L411.3,1393.85L411.3,1416.7L434.15,1439.55L594.1,1439.55L594.1,1393.85Z" style="fill:rgb(221,127,47);stroke:rgb(221,127,47);stroke-width:1px;"/>
            </g>
            <g transform="matrix(1,0,0,-1,-41.925,2901.93)">
                <path d="M594.1,1393.85L502.7,1302.45L388.45,1302.45L365.6,1325.3L365.6,1348.15L411.3,1393.85L411.3,1416.7L434.15,1439.55L594.1,1439.55L594.1,1393.85Z" style="fill:rgb(221,127,47);stroke:rgb(221,127,47);stroke-width:1px;"/>
            </g>
        </g>
        <g id="Layer8">
            <g transform="matrix(1,0,0,1,-41.925,-22.875)">
                <path d="M868.3,639.8L868.3,594.1L891.15,571.25L936.85,571.25L959.7,594.1L959.7,639.8L936.85,662.65L891.15,662.65L868.3,639.8Z" style="fill:rgb(174,95,33);stroke:rgb(174,95,33);stroke-width:1px;"/>
            </g>
            <g transform="matrix(1,0,0,1,-224.725,68.525)">
                <path d="M868.3,639.8L868.3,594.1L891.15,571.25L936.85,571.25L959.7,594.1L959.7,639.8L936.85,662.65L891.15,662.65L868.3,639.8Z" style="fill:rgb(174,95,33);stroke:rgb(174,95,33);stroke-width:1px;"/>
            </g>
            <g transform="matrix(1,0,0,1,-87.625,205.625)">
                <path d="M868.3,639.8L868.3,594.1L891.15,571.25L936.85,571.25L959.7,594.1L959.7,639.8L936.85,662.65L891.15,662.65L868.3,639.8Z" style="fill:rgb(174,95,33);stroke:rgb(174,95,33);stroke-width:1px;"/>
            </g>
            <g transform="matrix(1,0,0,1,-133.325,571.225)">
                <path d="M868.3,639.8L868.3,594.1L891.15,571.25L936.85,571.25L959.7,594.1L959.7,639.8L936.85,662.65L891.15,662.65L868.3,639.8Z" style="fill:rgb(174,95,33);stroke:rgb(174,95,33);stroke-width:1px;"/>
            </g>
            <g transform="matrix(1,0,0,1,3.775,525.525)">
                <path d="M868.3,639.8L868.3,594.1L891.15,571.25L936.85,571.25L959.7,594.1L959.7,639.8L936.85,662.65L891.15,662.65L868.3,639.8Z" style="fill:rgb(174,95,33);stroke:rgb(174,95,33);stroke-width:1px;"/>
            </g>
            <g transform="matrix(1,0,0,1,186.575,616.925)">
                <path d="M868.3,639.8L868.3,594.1L891.15,571.25L936.85,571.25L959.7,594.1L959.7,639.8L936.85,662.65L891.15,662.65L868.3,639.8Z" style="fill:rgb(174,95,33);stroke:rgb(174,95,33);stroke-width:1px;"/>
            </g>
            <g transform="matrix(1,0,0,1,415.075,525.525)">
                <path d="M868.3,639.8L868.3,594.1L891.15,571.25L936.85,571.25L959.7,594.1L959.7,639.8L936.85,662.65L891.15,662.65L868.3,639.8Z" style="fill:rgb(174,95,33);stroke:rgb(174,95,33);stroke-width:1px;"/>
            </g>
            <g transform="matrix(1,0,0,1,597.875,479.825)">
                <path d="M868.3,639.8L868.3,594.1L891.15,571.25L936.85,571.25L959.7,594.1L959.7,639.8L936.85,662.65L891.15,662.65L868.3,639.8Z" style="fill:rgb(174,95,33);stroke:rgb(174,95,33);stroke-width:1px;"/>
            </g>
            <g transform="matrix(1,0,0,1,506.475,205.625)">
                <path d="M868.3,639.8L868.3,594.1L891.15,571.25L936.85,571.25L959.7,594.1L959.7,639.8L936.85,662.65L891.15,662.65L868.3,639.8Z" style="fill:rgb(174,95,33);stroke:rgb(174,95,33);stroke-width:1px;"/>
            </g>
            <g transform="matrix(1,0,0,1,643.575,-22.875)">
                <path d="M868.3,639.8L868.3,594.1L891.15,571.25L936.85,571.25L959.7,594.1L959.7,639.8L936.85,662.65L891.15,662.65L868.3,639.8Z" style="fill:rgb(174,95,33);stroke:rgb(174,95,33);stroke-width:1px;"/>
            </g>
            <g transform="matrix(1,0,0,1,872.075,159.925)">
                <path d="M868.3,639.8L868.3,594.1L891.15,571.25L936.85,571.25L959.7,594.1L959.7,639.8L936.85,662.65L891.15,662.65L868.3,639.8Z" style="fill:rgb(174,95,33);stroke:rgb(174,95,33);stroke-width:1px;"/>
            </g>
            <g transform="matrix(1,0,0,1,826.375,799.725)">
                <path d="M868.3,639.8L868.3,594.1L891.15,571.25L936.85,571.25L959.7,594.1L959.7,639.8L936.85,662.65L891.15,662.65L868.3,639.8Z" style="fill:rgb(174,95,33);stroke:rgb(174,95,33);stroke-width:1px;"/>
            </g>
            <g transform="matrix(1,0,0,1,-41.925,-22.875)">
                <path d="M1371,1530.95L1371,1508.1L1393.85,1485.25L1439.55,1485.25L1462.4,1508.1L1462.4,1530.95L1371,1530.95Z" style="fill:rgb(174,95,33);stroke:rgb(174,95,33);stroke-width:1px;"/>
            </g>
            <g transform="matrix(1,0,0,-1,-407.525,2901.93)">
                <path d="M1371,1530.95L1371,1508.1L1393.85,1485.25L1439.55,1485.25L1462.4,1508.1L1462.4,1530.95L1371,1530.95Z" style="fill:rgb(174,95,33);stroke:rgb(174,95,33);stroke-width:1px;"/>
            </g>
            <g transform="matrix(6.12323e-17,-1,-1,-6.12323e-17,3225.62,2467.78)">
                <path d="M1371,1530.95L1371,1508.1L1393.85,1485.25L1439.55,1485.25L1462.4,1508.1L1462.4,1530.95L1371,1530.95Z" style="fill:rgb(174,95,33);stroke:rgb(174,95,33);stroke-width:1px;"/>
            </g>
            <g transform="matrix(1,0,0,1,-179.025,388.425)">
                <path d="M868.3,639.8L868.3,594.1L891.15,571.25L936.85,571.25L959.7,594.1L959.7,639.8L936.85,662.65L891.15,662.65L868.3,639.8Z" style="fill:rgb(174,95,33);stroke:rgb(174,95,33);stroke-width:1px;"/>
            </g>
        </g>
        <g id="Layer10">
            <g transform="matrix(1,0,0,1,-41.925,-22.875)">
                <path d="M868.3,731.2L891.15,708.35L914,731.2L891.15,754.05L868.3,731.2Z" style="fill:rgb(110,60,21);stroke:rgb(110,60,21);stroke-width:1px;"/>
            </g>
            <g transform="matrix(1,0,0,1,-224.725,114.225)">
                <path d="M868.3,731.2L891.15,708.35L914,731.2L891.15,754.05L868.3,731.2Z" style="fill:rgb(110,60,21);stroke:rgb(110,60,21);stroke-width:1px;"/>
            </g>
            <g transform="matrix(1,0,0,1,-41.925,251.325)">
                <path d="M868.3,731.2L891.15,708.35L914,731.2L891.15,754.05L868.3,731.2Z" style="fill:rgb(110,60,21);stroke:rgb(110,60,21);stroke-width:1px;"/>
            </g>
            <g transform="matrix(1,0,0,1,49.475,525.525)">
                <path d="M868.3,731.2L891.15,708.35L914,731.2L891.15,754.05L868.3,731.2Z" style="fill:rgb(110,60,21);stroke:rgb(110,60,21);stroke-width:1px;"/>
            </g>
            <g transform="matrix(1,0,0,1,277.975,388.425)">
                <path d="M868.3,731.2L891.15,708.35L914,731.2L891.15,754.05L868.3,731.2Z" style="fill:rgb(110,60,21);stroke:rgb(110,60,21);stroke-width:1px;"/>
            </g>
            <g transform="matrix(1,0,0,1,460.775,571.225)">
                <path d="M868.3,731.2L891.15,708.35L914,731.2L891.15,754.05L868.3,731.2Z" style="fill:rgb(110,60,21);stroke:rgb(110,60,21);stroke-width:1px;"/>
            </g>
            <g transform="matrix(1,0,0,1,597.875,479.825)">
                <path d="M868.3,731.2L891.15,708.35L914,731.2L891.15,754.05L868.3,731.2Z" style="fill:rgb(110,60,21);stroke:rgb(110,60,21);stroke-width:1px;"/>
            </g>
            <g transform="matrix(1,0,0,1,552.175,297.025)">
                <path d="M868.3,731.2L891.15,708.35L914,731.2L891.15,754.05L868.3,731.2Z" style="fill:rgb(110,60,21);stroke:rgb(110,60,21);stroke-width:1px;"/>
            </g>
            <g transform="matrix(1,0,0,1,643.575,159.925)">
                <path d="M868.3,731.2L891.15,708.35L914,731.2L891.15,754.05L868.3,731.2Z" style="fill:rgb(110,60,21);stroke:rgb(110,60,21);stroke-width:1px;"/>
            </g>
            <g transform="matrix(1,0,0,1,552.175,-22.875)">
                <path d="M868.3,731.2L891.15,708.35L914,731.2L891.15,754.05L868.3,731.2Z" style="fill:rgb(110,60,21);stroke:rgb(110,60,21);stroke-width:1px;"/>
            </g>
            <g transform="matrix(1,0,0,1,826.375,-205.675)">
                <path d="M868.3,731.2L891.15,708.35L914,731.2L891.15,754.05L868.3,731.2Z" style="fill:rgb(110,60,21);stroke:rgb(110,60,21);stroke-width:1px;"/>
            </g>
            <g transform="matrix(1,0,0,1,917.775,-68.575)">
                <path d="M868.3,731.2L891.15,708.35L914,731.2L891.15,754.05L868.3,731.2Z" style="fill:rgb(110,60,21);stroke:rgb(110,60,21);stroke-width:1px;"/>
            </g>
            <g transform="matrix(1,0,0,1,872.075,205.625)">
                <path d="M868.3,731.2L891.15,708.35L914,731.2L891.15,754.05L868.3,731.2Z" style="fill:rgb(110,60,21);stroke:rgb(110,60,21);stroke-width:1px;"/>
            </g>
            <g transform="matrix(1,0,0,1,963.475,388.425)">
                <path d="M868.3,731.2L891.15,708.35L914,731.2L891.15,754.05L868.3,731.2Z" style="fill:rgb(110,60,21);stroke:rgb(110,60,21);stroke-width:1px;"/>
            </g>
            <g transform="matrix(1,0,0,1,872.075,571.225)">
                <path d="M868.3,731.2L891.15,708.35L914,731.2L891.15,754.05L868.3,731.2Z" style="fill:rgb(110,60,21);stroke:rgb(110,60,21);stroke-width:1px;"/>
            </g>
            <g transform="matrix(1,0,0,1,643.575,708.325)">
                <path d="M868.3,731.2L891.15,708.35L914,731.2L891.15,754.05L868.3,731.2Z" style="fill:rgb(110,60,21);stroke:rgb(110,60,21);stroke-width:1px;"/>
            </g>
            <g transform="matrix(1,0,0,1,323.675,708.325)">
                <path d="M868.3,731.2L891.15,708.35L914,731.2L891.15,754.05L868.3,731.2Z" style="fill:rgb(110,60,21);stroke:rgb(110,60,21);stroke-width:1px;"/>
            </g>
            <g transform="matrix(1,0,0,1,186.575,754.025)">
                <path d="M868.3,731.2L891.15,708.35L914,731.2L891.15,754.05L868.3,731.2Z" style="fill:rgb(110,60,21);stroke:rgb(110,60,21);stroke-width:1px;"/>
            </g>
            <g transform="matrix(1,0,0,1,-179.025,434.125)">
                <path d="M868.3,731.2L891.15,708.35L914,731.2L891.15,754.05L868.3,731.2Z" style="fill:rgb(110,60,21);stroke:rgb(110,60,21);stroke-width:1px;"/>
            </g>
        </g>
        <g id="Layer11">
            <g transform="matrix(1,0,0,1,-41.925,-22.875)">
                <path d="M639.8,274.2L662.65,251.35L685.5,251.35L708.35,274.2L708.35,297.05L685.5,319.9L662.65,319.9L639.8,297.05L639.8,274.2Z" style="fill:rgb(251,217,187);stroke:rgb(251,217,187);stroke-width:1px;"/>
            </g>
            <g transform="matrix(1,0,0,1,266.55,-22.875)">
                <path d="M639.8,274.2L662.65,251.35L685.5,251.35L708.35,274.2L708.35,297.05L685.5,319.9L662.65,319.9L639.8,297.05L639.8,274.2Z" style="fill:rgb(251,217,187);stroke:rgb(251,217,187);stroke-width:1px;"/>
            </g>
        </g>
    </g>
</svg>
