<?xml version="1.0" encoding="UTF-8" standalone="no"?>
<!DOCTYPE svg PUBLIC "-//W3C//DTD SVG 1.1//EN" "http://www.w3.org/Graphics/SVG/1.1/DTD/svg11.dtd">
<svg width="100%" height="100%" viewBox="0 0 4634 3475" version="1.1" xmlns="http://www.w3.org/2000/svg" xmlns:xlink="http://www.w3.org/1999/xlink" xml:space="preserve" xmlns:serif="http://www.serif.com/" style="fill-rule:evenodd;clip-rule:evenodd;stroke-linecap:round;stroke-linejoin:round;stroke-miterlimit:1.5;">
    <g transform="matrix(2.08333,0,0,2.08333,0,0)">
        <g id="Layer15">
            <g transform="matrix(1,0,0,1,-36.2125,-11.45)">
                <path d="M365.6,479.85L365.6,502.7L388.45,571.25L422.641,616.95L434.15,548.4L457,502.7L457,479.85L365.6,479.85Z" style="fill:rgb(44,32,36);stroke:rgb(44,32,36);stroke-width:1px;"/>
            </g>
            <g transform="matrix(6.12323e-17,1,-1,6.12323e-17,1471.89,194.2)">
                <path d="M365.6,479.85L365.6,502.7L388.45,571.25L422.641,616.95L434.15,548.4L457,502.7L457,479.85L365.6,479.85Z" style="fill:rgb(44,32,36);stroke:rgb(44,32,36);stroke-width:1px;"/>
            </g>
            <g transform="matrix(1,0,0,1,-36.2125,-11.45)">
                <path d="M502.7,479.85L502.7,525.55L535.757,594.1L548.4,502.7L548.4,479.85L502.7,479.85Z" style="fill:rgb(44,32,36);stroke:rgb(44,32,36);stroke-width:1px;"/>
            </g>
            <g transform="matrix(6.12323e-17,1,-1,6.12323e-17,1471.89,194.2)">
                <path d="M502.7,479.85L502.7,525.55L535.757,594.1L548.4,502.7L548.4,479.85L502.7,479.85Z" style="fill:rgb(44,32,36);stroke:rgb(44,32,36);stroke-width:1px;"/>
            </g>
            <g transform="matrix(1,0,0,1,694.988,194.2)">
                <path d="M502.7,479.85L502.7,525.55L535.757,594.1L548.4,502.7L548.4,479.85L502.7,479.85Z" style="fill:rgb(44,32,36);stroke:rgb(44,32,36);stroke-width:1px;"/>
            </g>
            <g transform="matrix(1,0,0,1,786.388,194.2)">
                <path d="M502.7,479.85L502.7,525.55L535.757,594.1L548.4,502.7L548.4,479.85L502.7,479.85Z" style="fill:rgb(44,32,36);stroke:rgb(44,32,36);stroke-width:1px;"/>
            </g>
            <g transform="matrix(1,0,0,-1,1243.39,651.2)">
                <path d="M502.7,479.85L502.7,525.55L535.757,594.1L548.4,502.7L548.4,479.85L502.7,479.85Z" style="fill:rgb(44,32,36);stroke:rgb(44,32,36);stroke-width:1px;"/>
            </g>
            <g transform="matrix(1,0,0,-1,1334.79,651.2)">
                <path d="M502.7,479.85L502.7,525.55L535.757,594.1L548.4,502.7L548.4,479.85L502.7,479.85Z" style="fill:rgb(44,32,36);stroke:rgb(44,32,36);stroke-width:1px;"/>
            </g>
        </g>
        <g id="Layer16">
            <g transform="matrix(1,0,0,1,-13.3625,-11.45)">
                <path d="M1348.15,845.45L1233.9,845.45L1188.2,891.15L1211.05,982.55L1233.9,914L1256.75,891.15L1348.15,891.15L1348.15,845.45Z" style="fill:rgb(191,191,152);stroke:rgb(191,191,152);stroke-width:1px;"/>
            </g>
            <g transform="matrix(-1,0,0,1,3059.96,-11.45)">
                <path d="M1348.15,845.45L1233.9,845.45L1188.2,891.15L1211.05,982.55L1233.9,914L1256.75,891.15L1348.15,891.15L1348.15,845.45Z" style="fill:rgb(191,191,152);stroke:rgb(191,191,152);stroke-width:1px;"/>
            </g>
            <g transform="matrix(1,0,0,1,-36.2125,171.35)">
                <path d="M1348.15,845.45L1233.9,845.45L1188.2,891.15L1211.05,982.55L1233.9,914L1256.75,891.15L1348.15,891.15L1348.15,845.45Z" style="fill:rgb(191,191,152);stroke:rgb(191,191,152);stroke-width:1px;"/>
            </g>
            <g transform="matrix(-1,0,0,1,3082.81,171.35)">
                <path d="M1348.15,845.45L1233.9,845.45L1188.2,891.15L1211.05,982.55L1233.9,914L1256.75,891.15L1348.15,891.15L1348.15,845.45Z" style="fill:rgb(191,191,152);stroke:rgb(191,191,152);stroke-width:1px;"/>
            </g>
            <g transform="matrix(1,0,0,1,9.4875,354.15)">
                <path d="M1348.15,845.45L1233.9,845.45L1188.2,891.15L1211.05,982.55L1233.9,914L1256.75,891.15L1348.15,891.15L1348.15,845.45Z" style="fill:rgb(191,191,152);stroke:rgb(191,191,152);stroke-width:1px;"/>
            </g>
            <g transform="matrix(-1,0,0,1,3037.11,354.15)">
                <path d="M1348.15,845.45L1233.9,845.45L1188.2,891.15L1211.05,982.55L1233.9,914L1256.75,891.15L1348.15,891.15L1348.15,845.45Z" style="fill:rgb(191,191,152);stroke:rgb(191,191,152);stroke-width:1px;"/>
            </g>
        </g>
        <g id="Layer8">
            <g transform="matrix(1,0,0,1,-36.2125,-11.45)">
                <path d="M1005.4,1302.45L1028.25,1302.45L1051.1,1279.6L1051.1,1256.75L1005.4,1256.75L1005.4,1302.45Z" style="fill:rgb(240,240,197);stroke:rgb(240,240,197);stroke-width:1px;"/>
            </g>
            <g transform="matrix(-1,0,0,1,1471.89,-11.45)">
                <path d="M1005.4,1302.45L1028.25,1302.45L1051.1,1279.6L1051.1,1256.75L1028.25,1256.75L1005.4,1256.75L1005.4,1302.45Z" style="fill:rgb(240,240,197);stroke:rgb(240,240,197);stroke-width:1px;"/>
            </g>
        </g>
        <g transform="matrix(1,0,0,1,-36.2125,-11.45)">
            <g id="Layer14">
                <path d="M845.45,159.95L1645.2,159.95L1713.75,91.4L845.45,91.4L845.45,159.95Z" style="fill:rgb(191,191,152);stroke:rgb(191,191,152);stroke-width:1px;"/>
            </g>
        </g>
        <g transform="matrix(1,0,0,1,-36.2125,-11.45)">
            <g id="Layer12">
                <path d="M662.65,1371L457,1188.2L457,1096.8L411.3,1073.95L365.6,1005.4L365.6,936.85L411.3,982.55L457,1005.4L457,914L411.3,891.15L365.6,822.6L365.6,708.35L411.3,754.05L457,776.9L548.4,776.9L594.1,731.2L594.1,388.45L639.8,342.75L639.8,274.2L616.95,251.35L525.55,251.35L502.7,274.2L502.7,342.75L548.4,388.45L548.4,502.7L525.55,479.85L502.7,502.7L502.7,457L479.85,434.15L457,457L457,502.7L434.15,479.85L388.45,479.85L365.6,502.7L365.6,388.45L411.3,342.75L411.3,137.1L434.15,114.25L639.8,114.25L731.2,205.65L754.05,205.65L776.9,182.8L776.9,159.95L731.2,114.25L708.35,91.4L708.35,68.55L1713.75,68.55L1713.75,91.4L1690.9,114.25L891.15,114.25L868.3,137.1L868.3,159.95L914,205.65L1668.05,205.65L1713.75,228.5L1782.3,342.75L1805.15,342.75L1828,319.9L1828,251.35L1782.3,205.65L1782.3,159.95L1805.15,182.8L1828,159.95L1828,182.8L1850.85,205.65L1873.7,182.8L1873.7,159.95L1896.55,182.8L1919.4,159.95L1919.4,502.7L1896.55,525.55L1805.15,525.55L1713.75,434.15L1690.9,434.15L1690.9,662.65L1736.6,708.35L1782.3,776.9L1828,914L1828,1142.5L1805.15,1256.75L1782.3,1302.45L1736.6,1348.15L1690.9,1393.85L1645.2,1416.7L1645.2,1599.5L1622.35,1622.35L1256.75,1622.35L1233.9,1599.5L1233.9,1416.7L1256.75,1393.85L1393.85,1393.85L1416.7,1416.7L1416.7,1508.1L1393.85,1530.95L1371,1530.95L1371,1508.1L1348.15,1485.25L1325.3,1508.1L1325.3,1553.8L1348.15,1576.65L1530.95,1576.65L1553.8,1553.8L1553.8,1416.7L1485.25,1393.85L1439.55,1371L1371,1302.45L1325.3,1211.05L1291.03,1142.5L1279.6,1096.8L1279.6,1028.25L1302.45,891.15L1325.3,845.45L1393.85,754.05L1439.55,708.35L1462.4,662.65L1462.4,548.4L1439.55,525.55L1348.15,525.55L1325.3,548.4L1325.3,571.25L1371,616.95L1371,708.35L1348.15,685.5L1325.3,708.35L1325.3,685.5L1302.45,662.65L1279.6,685.5L1279.6,708.35L1256.75,685.5L1233.9,708.35L1233.9,457L1256.75,434.15L1416.7,434.15L1416.7,411.3L1393.85,388.45L1142.5,388.45L936.85,388.45L914,411.3L914,434.15L1188.2,434.15L1211.05,457L1211.05,685.5L1188.2,708.35L1119.65,708.35L1073.95,754.05L1005.4,754.05L1028.25,731.2L1013.68,708.35L1051.1,708.35L1073.95,685.5L1051.1,662.65L1005.4,662.65L1028.25,639.8L1028.25,594.1L1005.4,571.25L1073.95,571.25L1119.65,616.95L1142.5,616.95L1165.35,594.1L1165.35,548.4L1142.5,525.55L936.85,525.55L914,548.4L914,731.2L959.7,776.9L1051.1,776.9L1096.8,754.05L1142.5,708.35L1142.5,834L1096.8,891.15L1051.1,914L1051.1,1005.4L1096.8,982.55L1142.5,936.85L1142.5,1005.4L1096.8,1073.95L1051.1,1096.8L1051.1,1188.2L936.85,1302.45L845.45,1371L754.05,1325.3L662.65,1371Z" style="fill:rgb(175,95,225);stroke:rgb(175,95,225);stroke-width:1px;"/>
            </g>
        </g>
        <g id="Layer13">
            <g transform="matrix(0.965926,-0.258819,0.258819,0.965926,-291.128,175.794)">
                <path d="M594.1,1119.65L594.1,982.55L502.7,1051.1L594.1,1119.65Z" style="fill:rgb(74,23,95);stroke:rgb(74,23,95);stroke-width:1px;"/>
            </g>
            <g transform="matrix(-0.965926,-0.258819,-0.258819,0.965926,1726.8,175.794)">
                <path d="M594.1,1119.65L594.1,982.55L502.7,1051.1L594.1,1119.65Z" style="fill:rgb(74,23,95);stroke:rgb(74,23,95);stroke-width:1px;"/>
            </g>
            <g transform="matrix(1,0,0,1,-36.2125,-11.45)">
                <path d="M479.85,1142.5L457,1165.35L457,1188.2L571.25,1302.45L594.1,1302.45L616.95,1279.6L616.95,1233.9L594.1,1188.2L548.4,1142.5L479.85,1142.5Z" style="fill:rgb(74,23,95);stroke:rgb(74,23,95);stroke-width:1px;"/>
            </g>
            <g transform="matrix(-1,0,0,1,1471.89,-11.45)">
                <path d="M479.85,1142.5L457,1165.35L457,1188.2L571.25,1302.45L594.1,1302.45L616.95,1279.6L616.95,1233.9L594.1,1188.2L548.4,1142.5L479.85,1142.5Z" style="fill:rgb(74,23,95);stroke:rgb(74,23,95);stroke-width:1px;"/>
            </g>
            <g transform="matrix(0.965926,0.258819,-0.258819,0.965926,205.649,-133.292)">
                <path d="M594.1,799.75L502.7,868.3L594.1,936.85L594.1,799.75Z" style="fill:rgb(74,23,95);stroke:rgb(74,23,95);stroke-width:1px;"/>
            </g>
            <g transform="matrix(-0.965926,0.258819,0.258819,0.965926,1230.03,-133.292)">
                <path d="M594.1,799.75L502.7,868.3L594.1,936.85L594.1,799.75Z" style="fill:rgb(74,23,95);stroke:rgb(74,23,95);stroke-width:1px;"/>
            </g>
            <g transform="matrix(0.974144,0.225928,-0.225928,0.974144,1057.55,-121.451)">
                <path d="M594.1,799.75L502.7,868.3L594.1,936.85L594.1,799.75Z" style="fill:rgb(74,23,95);stroke:rgb(74,23,95);stroke-width:1px;"/>
            </g>
            <g transform="matrix(-0.974144,0.225928,0.225928,0.974144,2023.33,-121.451)">
                <path d="M594.1,799.75L502.7,868.3L594.1,936.85L594.1,799.75Z" style="fill:rgb(74,23,95);stroke:rgb(74,23,95);stroke-width:1px;"/>
            </g>
            <g transform="matrix(0.974144,-0.225928,-0.225928,-0.974144,1057.55,2250)">
                <path d="M594.1,799.75L502.7,868.3L594.1,936.85L594.1,799.75Z" style="fill:rgb(74,23,95);stroke:rgb(74,23,95);stroke-width:1px;"/>
            </g>
            <g transform="matrix(-0.974144,-0.225928,0.225928,-0.974144,2023.33,2250)">
                <path d="M594.1,799.75L502.7,868.3L594.1,936.85L594.1,799.75Z" style="fill:rgb(74,23,95);stroke:rgb(74,23,95);stroke-width:1px;"/>
            </g>
            <g transform="matrix(1,0,0,1,832.088,194.2)">
                <path d="M594.1,799.75L502.7,868.3L594.1,936.85L594.1,799.75Z" style="fill:rgb(74,23,95);stroke:rgb(74,23,95);stroke-width:1px;"/>
            </g>
            <g transform="matrix(-1,0,0,1,2248.79,194.2)">
                <path d="M594.1,799.75L502.7,868.3L594.1,936.85L594.1,799.75Z" style="fill:rgb(74,23,95);stroke:rgb(74,23,95);stroke-width:1px;"/>
            </g>
        </g>
        <g transform="matrix(1,0,0,1,-36.2125,-11.45)">
            <g id="Layer11">
                <path d="M685.5,1485.25L639.8,1302.45L754.05,1211.05L868.3,1302.45L834.025,1439.55L799.75,1485.25L685.5,1485.25Z" style="fill:rgb(210,126,179);stroke:rgb(210,126,179);stroke-width:1px;"/>
            </g>
        </g>
        <g id="Layer10">
            <g transform="matrix(1,0,0,1,-36.2125,-11.45)">
                <path d="M639.8,891.15L754.05,799.75L868.3,891.15L868.3,1073.95L857.718,1082.41L754.05,1165.35L639.8,1073.95L639.8,891.15Z" style="fill:rgb(239,80,179);stroke:rgb(239,80,179);stroke-width:1px;"/>
            </g>
            <g transform="matrix(1,0,0,1,-36.2125,-11.45)">
                <path d="M685.5,708.35L731.2,754.05L776.9,754.05L822.6,708.35L822.6,662.65L776.9,616.95L731.2,616.95L685.5,662.65L685.5,708.35Z" style="fill:rgb(239,80,179);stroke:rgb(239,80,179);stroke-width:1px;"/>
            </g>
            <g transform="matrix(1,0,0,1,-36.2125,-194.25)">
                <path d="M685.5,708.35L731.2,754.05L776.9,754.05L822.6,708.35L822.6,662.65L776.9,616.95L731.2,616.95L685.5,662.65L685.5,708.35Z" style="fill:rgb(239,80,179);stroke:rgb(239,80,179);stroke-width:1px;"/>
            </g>
            <g transform="matrix(1,0,0,1,9.4875,-377.05)">
                <path d="M685.5,708.35L731.2,754.05L776.9,754.05L822.6,708.35L822.6,662.65L776.9,616.95L731.2,616.95L685.5,662.65L685.5,708.35Z" style="fill:rgb(239,80,179);stroke:rgb(239,80,179);stroke-width:1px;"/>
            </g>
            <g transform="matrix(1,0,0,1,237.988,-399.9)">
                <path d="M685.5,708.35L731.2,754.05L776.9,754.05L822.6,708.35L822.6,662.65L776.9,616.95L731.2,616.95L685.5,662.65L685.5,708.35Z" style="fill:rgb(239,80,179);stroke:rgb(239,80,179);stroke-width:1px;"/>
            </g>
            <g transform="matrix(1,0,0,1,420.788,-399.9)">
                <path d="M685.5,708.35L731.2,754.05L776.9,754.05L822.6,708.35L822.6,662.65L776.9,616.95L731.2,616.95L685.5,662.65L685.5,708.35Z" style="fill:rgb(239,80,179);stroke:rgb(239,80,179);stroke-width:1px;"/>
            </g>
            <g transform="matrix(1,0,0,1,603.588,-399.9)">
                <path d="M685.5,708.35L731.2,754.05L776.9,754.05L822.6,708.35L822.6,662.65L776.9,616.95L731.2,616.95L685.5,662.65L685.5,708.35Z" style="fill:rgb(239,80,179);stroke:rgb(239,80,179);stroke-width:1px;"/>
            </g>
            <g transform="matrix(1,0,0,1,786.388,-331.35)">
                <path d="M685.5,708.35L731.2,754.05L776.9,754.05L822.6,708.35L822.6,662.65L776.9,616.95L731.2,616.95L685.5,662.65L685.5,708.35Z" style="fill:rgb(239,80,179);stroke:rgb(239,80,179);stroke-width:1px;"/>
            </g>
            <g transform="matrix(1,0,0,1,786.388,-148.55)">
                <path d="M685.5,708.35L731.2,754.05L776.9,754.05L822.6,708.35L822.6,662.65L776.9,616.95L731.2,616.95L685.5,662.65L685.5,708.35Z" style="fill:rgb(239,80,179);stroke:rgb(239,80,179);stroke-width:1px;"/>
            </g>
            <g transform="matrix(1,0,0,1,786.388,34.25)">
                <path d="M685.5,708.35L731.2,754.05L776.9,754.05L822.6,708.35L822.6,662.65L776.9,616.95L731.2,616.95L685.5,662.65L685.5,708.35Z" style="fill:rgb(239,80,179);stroke:rgb(239,80,179);stroke-width:1px;"/>
            </g>
            <g transform="matrix(1,0,0,1,786.388,217.05)">
                <path d="M685.5,708.35L731.2,754.05L776.9,754.05L822.6,708.35L822.6,662.65L776.9,616.95L731.2,616.95L685.5,662.65L685.5,708.35Z" style="fill:rgb(239,80,179);stroke:rgb(239,80,179);stroke-width:1px;"/>
            </g>
            <g transform="matrix(1,0,0,1,786.388,399.85)">
                <path d="M685.5,708.35L731.2,754.05L776.9,754.05L822.6,708.35L822.6,662.65L776.9,616.95L731.2,616.95L685.5,662.65L685.5,708.35Z" style="fill:rgb(239,80,179);stroke:rgb(239,80,179);stroke-width:1px;"/>
            </g>
            <g transform="matrix(1,0,0,1,786.388,582.65)">
                <path d="M685.5,708.35L731.2,754.05L776.9,754.05L822.6,708.35L822.6,662.65L776.9,616.95L731.2,616.95L685.5,662.65L685.5,708.35Z" style="fill:rgb(239,80,179);stroke:rgb(239,80,179);stroke-width:1px;"/>
            </g>
            <g transform="matrix(1,0,0,1,-36.2125,-11.45)">
                <path d="M982.55,1165.35L1028.25,1165.35L1051.1,1188.2L1051.1,1256.75L1028.25,1256.75L1005.4,1279.6L1005.4,1302.45L936.85,1302.45L914,1279.6L914,1233.9L936.85,1188.2L982.55,1165.35Z" style="fill:rgb(239,80,179);stroke:rgb(239,80,179);stroke-width:1px;"/>
            </g>
            <g transform="matrix(-1,0,0,1,1471.89,-11.45)">
                <path d="M982.55,1165.35L1028.25,1165.35L1051.1,1188.2L1051.1,1256.75L1028.25,1256.75L1005.4,1279.6L1005.4,1302.45L936.85,1302.45L914,1279.6L914,1233.9L936.85,1188.2L982.55,1165.35Z" style="fill:rgb(239,80,179);stroke:rgb(239,80,179);stroke-width:1px;"/>
            </g>
            <g transform="matrix(1,0,0,1,-36.2125,-11.45)">
                <path d="M685.5,1485.25L834.023,1439.55L776.9,1622.35L731.2,1622.35L685.5,1485.25Z" style="fill:rgb(239,80,179);stroke:rgb(239,80,179);stroke-width:1px;"/>
            </g>
        </g>
    </g>
</svg>
