<?xml version="1.0" encoding="UTF-8" standalone="no"?>
<!DOCTYPE svg PUBLIC "-//W3C//DTD SVG 1.1//EN" "http://www.w3.org/Graphics/SVG/1.1/DTD/svg11.dtd">
<svg width="100%" height="100%" viewBox="0 0 4045 3034" version="1.1" xmlns="http://www.w3.org/2000/svg" xmlns:xlink="http://www.w3.org/1999/xlink" xml:space="preserve" xmlns:serif="http://www.serif.com/" style="fill-rule:evenodd;clip-rule:evenodd;stroke-linecap:round;stroke-linejoin:round;stroke-miterlimit:1.5;">
    <g transform="matrix(1.81862,0,0,1.81862,0,0)">
        <g id="Layer11">
            <g transform="matrix(0.932096,0.36221,-0.36221,0.932096,578.108,-545.817)">
                <path d="M1736.6,1393.85L1725.17,1325.3L1713.75,1302.45L1713.75,1325.3L1702.33,1371L1690.9,1393.85L1736.6,1393.85Z" style="fill:rgb(128,132,181);"/>
            </g>
            <g transform="matrix(0.920135,0.391602,-0.391602,0.920135,696.078,-542.309)">
                <path d="M1736.6,1393.85L1725.17,1325.3L1713.75,1302.45L1713.75,1325.3L1702.33,1371L1690.9,1393.85L1736.6,1393.85Z" style="fill:rgb(128,132,181);"/>
            </g>
            <g transform="matrix(1,0,0,-1,106.6,2593.45)">
                <path d="M1736.6,1393.85L1725.17,1325.3L1713.75,1302.45L1713.75,1325.3L1702.33,1371L1690.9,1393.85L1736.6,1393.85Z" style="fill:rgb(128,132,181);"/>
            </g>
            <g transform="matrix(1,0,0,-1,15.2,2593.45)">
                <path d="M1736.6,1393.85L1725.17,1325.3L1713.75,1302.45L1713.75,1325.3L1702.33,1371L1690.9,1393.85L1736.6,1393.85Z" style="fill:rgb(128,132,181);"/>
            </g>
        </g>
        <g id="Layer8">
            <g transform="matrix(1,0,0,1,-7.65,-11.45)">
                <path d="M1325.3,1165.35L1279.6,1119.65L1325.3,1119.65L1325.3,1165.35Z" style="fill:rgb(0,15,15);stroke:rgb(0,15,15);stroke-width:1px;"/>
            </g>
            <g transform="matrix(1,0,0,1,15.2,-11.45)">
                <path d="M1371,1256.75L1325.3,1211.05L1371,1211.05L1371,1256.75Z" style="fill:rgb(0,15,15);stroke:rgb(0,15,15);stroke-width:1px;"/>
            </g>
            <g transform="matrix(1,0,0,1,-7.65,-11.45)">
                <path d="M1462.4,1348.15L1416.7,1302.45L1462.4,1302.45L1462.4,1348.15Z" style="fill:rgb(0,15,15);stroke:rgb(0,15,15);stroke-width:1px;"/>
            </g>
            <g transform="matrix(1,0,0,1,-30.5,-11.45)">
                <path d="M1553.8,1439.55L1508.1,1393.85L1553.8,1393.85L1553.8,1439.55Z" style="fill:rgb(0,15,15);stroke:rgb(0,15,15);stroke-width:1px;"/>
            </g>
            <g transform="matrix(1,0,0,1,-30.5,-11.45)">
                <path d="M1919.4,1211.05L1896.55,1256.75L1873.7,1233.9L1828,1211.05L1782.3,1211.05L1713.75,1256.75L1690.9,1302.45L1690.9,1348.15L1713.75,1393.85L1599.5,1393.85L1553.8,1348.15L1508.1,1302.45L1462.4,1256.75L1416.7,1165.35L1371,1096.8L1348.15,1073.95L1165.35,1073.95L1142.5,1096.8L1142.5,1211.05L1188.2,1279.6L1256.75,1348.15L1485.25,1462.4L1713.75,1553.8L1919.4,1622.35L1553.8,1622.35L1371,1576.65L1188.2,1485.25L1119.65,1439.55L1005.4,1348.15L959.7,1302.45L936.85,1302.45L914,1325.3L959.7,1393.85L1028.25,1462.4L1233.9,1599.5L1302.45,1622.35L1188.2,1622.35L1073.95,1599.5L914,1553.8L822.6,1485.25L776.9,1439.55L754.05,1439.55L731.2,1462.4L731.2,1485.25L776.9,1553.8L891.15,1622.35L822.6,1622.35L708.35,1599.5L616.95,1530.95L594.1,1485.25L571.25,1485.25L548.4,1508.1L594.1,1576.65L662.65,1622.35L594.1,1622.35L502.7,1599.5L411.3,1530.95L388.45,1485.25L365.6,1393.85L365.6,388.45L388.45,319.9L457,251.35L548.4,159.95L639.8,114.25L731.2,68.55L1530.95,68.55L1553.8,91.4L1553.8,159.95L1508.1,251.35L1462.4,297.05L1439.55,365.6L1439.55,388.45L1462.4,479.85L1485.25,548.4L1508.1,754.05L1553.8,868.3L1599.5,936.85L1645.2,982.55L1736.6,1028.25L1690.9,891.15L1690.9,754.05L1736.6,662.65L1850.85,548.4L1919.4,502.7L1919.4,548.4L1859.42,708.35L1850.85,754.05L1850.85,776.9L1856.56,822.6L1892.74,1005.4L1904.17,1051.1L1911.78,1073.95L1919.4,1119.65L1919.4,1211.05Z" style="fill:rgb(0,15,15);stroke:rgb(0,15,15);stroke-width:1px;"/>
            </g>
        </g>
        <g id="Layer13">
            <g transform="matrix(1,0,0,1,-30.5,-11.45)">
                <path d="M1462.4,457L1485.25,365.6L1599.5,365.6L1645.2,388.45L1668.05,434.15L1668.05,616.95L1622.35,639.8L1622.35,525.55L1599.5,479.85L1553.8,457L1462.4,457Z" style="fill:rgb(63,15,31);stroke:rgb(63,15,31);stroke-width:1px;"/>
            </g>
            <g transform="matrix(1,0,0,1,-30.5,-11.45)">
                <path d="M1713.75,594.1L1782.3,548.4L1782.3,274.2L1759.45,228.5L1713.75,205.65L1553.8,205.65L1530.95,297.05L1645.2,297.05L1690.9,319.9L1713.75,365.6L1713.75,594.1Z" style="fill:rgb(63,15,31);stroke:rgb(63,15,31);stroke-width:1px;"/>
            </g>
            <g transform="matrix(1,0,0,1,-30.5,-11.45)">
                <path d="M1599.5,159.95L1622.35,68.55L1850.85,68.55L1896.55,91.4L1919.4,137.1L1919.4,479.85L1828,525.55L1828,228.5L1782.3,182.8L1736.6,159.95L1599.5,159.95Z" style="fill:rgb(63,15,31);stroke:rgb(63,15,31);stroke-width:1px;"/>
            </g>
        </g>
        <g id="Layer10">
            <g transform="matrix(1,0,0,1,-30.5,-11.45)">
                <path d="M502.7,1073.95L502.7,982.55L457,982.55L457,1051.1L479.85,1073.95L502.7,1073.95Z" style="fill:rgb(49,47,91);stroke:rgb(49,47,91);stroke-width:1px;"/>
            </g>
            <g transform="matrix(1,0,0,1,-30.5,-11.45)">
                <path d="M479.85,936.85L457,914L457,868.3L479.85,845.45L525.55,845.45L548.4,868.3L548.4,891.15L502.7,936.85L479.85,936.85Z" style="fill:rgb(49,47,91);stroke:rgb(49,47,91);stroke-width:1px;"/>
            </g>
            <g transform="matrix(1,0,0,1,-30.5,-11.45)">
                <path d="M479.85,799.75L457,776.9L457,685.5L479.85,662.65L548.4,662.65L594.1,708.35L594.1,754.05L548.4,799.75L479.85,799.75Z" style="fill:rgb(49,47,91);stroke:rgb(49,47,91);stroke-width:1px;"/>
            </g>
            <g transform="matrix(1,0,0,1,-30.5,-11.45)">
                <path d="M411.3,776.9L411.3,731.2L388.45,708.35L365.6,708.35L365.6,799.75L388.45,799.75L411.3,776.9Z" style="fill:rgb(49,47,91);stroke:rgb(49,47,91);stroke-width:1px;"/>
            </g>
            <g transform="matrix(1,0,0,1,-30.5,-11.45)">
                <path d="M411.3,662.65L434.15,639.8L434.15,594.1L411.3,571.25L365.6,571.25L365.6,662.65L411.3,662.65Z" style="fill:rgb(49,47,91);stroke:rgb(49,47,91);stroke-width:1px;"/>
            </g>
            <g transform="matrix(1,0,0,1,-30.5,-11.45)">
                <path d="M457,502.7L457,434.15L411.3,388.45L365.6,388.45L365.6,525.55L434.15,525.55L457,502.7Z" style="fill:rgb(49,47,91);stroke:rgb(49,47,91);stroke-width:1px;"/>
            </g>
            <g transform="matrix(1,0,0,1,-30.5,-11.45)">
                <path d="M525.55,616.95L502.7,594.1L502.7,571.25L548.4,479.85L616.95,479.85L639.8,502.7L639.8,571.25L594.1,616.95L525.55,616.95Z" style="fill:rgb(49,47,91);stroke:rgb(49,47,91);stroke-width:1px;"/>
            </g>
            <g transform="matrix(1,0,0,1,-30.5,-11.45)">
                <path d="M616.95,434.15L594.1,411.3L594.1,388.45L685.5,297.05L708.35,297.05L731.2,319.9L731.2,388.45L685.5,434.15L616.95,434.15Z" style="fill:rgb(49,47,91);stroke:rgb(49,47,91);stroke-width:1px;"/>
            </g>
            <g transform="matrix(1,0,0,1,-30.5,-11.45)">
                <path d="M571.25,274.2L571.25,251.35L525.55,182.8L388.45,319.9L479.85,342.75L502.7,342.75L571.25,274.2Z" style="fill:rgb(49,47,91);stroke:rgb(49,47,91);stroke-width:1px;"/>
            </g>
            <g transform="matrix(1,0,0,1,-30.5,-11.45)">
                <path d="M594.1,205.65L571.25,148.539L685.5,91.4L708.35,159.95L708.35,182.8L616.95,228.5L594.1,205.65Z" style="fill:rgb(49,47,91);stroke:rgb(49,47,91);stroke-width:1px;"/>
            </g>
            <g transform="matrix(1,0,0,1,-30.5,-11.45)">
                <path d="M822.6,68.55L822.6,137.1L799.75,159.95L754.05,159.95L731.2,137.1L731.2,68.55L822.6,68.55Z" style="fill:rgb(49,47,91);stroke:rgb(49,47,91);stroke-width:1px;"/>
            </g>
            <g transform="matrix(1,0,0,1,-30.5,-11.45)">
                <path d="M799.75,799.75L776.9,822.6L776.9,868.3L799.75,891.15L891.15,891.15L914,868.3L914,822.6L891.15,799.75L799.75,799.75Z" style="fill:rgb(49,47,91);stroke:rgb(49,47,91);stroke-width:1px;"/>
            </g>
            <g transform="matrix(1,0,0,1,-30.5,-11.45)">
                <path d="M914,959.7L914,1051.1L891.15,1073.95L822.6,1073.95L776.9,1028.25L776.9,982.55L822.6,936.85L891.15,936.85L914,959.7Z" style="fill:rgb(49,47,91);stroke:rgb(49,47,91);stroke-width:1px;"/>
            </g>
            <g transform="matrix(1,0,0,1,-30.5,-11.45)">
                <path d="M936.85,1119.65L1005.4,1119.65L1051.1,1165.35L1051.1,1188.2L1028.25,1211.05L936.85,1211.05L914,1188.2L914,1142.5L936.85,1119.65Z" style="fill:rgb(49,47,91);stroke:rgb(49,47,91);stroke-width:1px;"/>
            </g>
            <g transform="matrix(1,0,0,1,-30.5,-11.45)">
                <path d="M1028.25,1256.75L1119.65,1256.75L1142.5,1279.6L1073.95,1348.15L1005.4,1279.6L1028.25,1256.75Z" style="fill:rgb(49,47,91);stroke:rgb(49,47,91);stroke-width:1px;"/>
            </g>
            <g transform="matrix(1,0,0,1,-30.5,-11.45)">
                <path d="M1119.65,1439.55L1188.2,1279.6L1256.75,1348.15L1188.2,1485.25L1119.65,1439.55Z" style="fill:rgb(49,47,91);stroke:rgb(49,47,91);stroke-width:1px;"/>
            </g>
            <g transform="matrix(1,0,0,1,-30.5,-11.45)">
                <path d="M1325.3,1553.8L1348.15,1393.85L1416.7,1508.1L1325.3,1553.8Z" style="fill:rgb(49,47,91);stroke:rgb(49,47,91);stroke-width:1px;"/>
            </g>
            <g transform="matrix(1,0,0,1,-30.5,-11.45)">
                <path d="M1462.4,1599.5L1485.25,1462.4L1576.65,1553.8L1462.4,1599.5Z" style="fill:rgb(49,47,91);stroke:rgb(49,47,91);stroke-width:1px;"/>
            </g>
            <g transform="matrix(1,0,0,1,-30.5,-11.45)">
                <path d="M1645.2,1622.35L1645.2,1526.92L1713.75,1553.8L1736.6,1561.94L1736.6,1622.35L1645.2,1622.35Z" style="fill:rgb(49,47,91);stroke:rgb(49,47,91);stroke-width:1px;"/>
            </g>
        </g>
        <g id="Layer15">
            <g transform="matrix(1,0,0,1,-30.5,-11.45)">
                <path d="M868.3,114.25L868.3,68.55L1005.4,68.55L1005.4,137.1L982.55,159.95L914,159.95L868.3,114.25Z" style="fill:rgb(80,78,63);stroke:rgb(80,78,63);stroke-width:1px;"/>
            </g>
            <g transform="matrix(1,0,0,1,-30.5,-11.45)">
                <path d="M914,228.5L891.15,205.65L822.6,205.65L776.9,251.35L776.9,319.9L799.75,342.75L868.3,342.75L914,251.35L914,228.5Z" style="fill:rgb(80,78,63);stroke:rgb(80,78,63);stroke-width:1px;"/>
            </g>
            <g transform="matrix(1,0,0,1,-30.5,-11.45)">
                <path d="M845.45,616.95L936.85,616.95L959.7,639.8L959.7,708.35L914,754.05L868.3,754.05L822.6,708.35L822.6,639.8L845.45,616.95Z" style="fill:rgb(80,78,63);stroke:rgb(80,78,63);stroke-width:1px;"/>
            </g>
        </g>
        <g id="Layer14">
            <g transform="matrix(1,0,0,1,-30.5,-11.45)">
                <path d="M1112,159.95L1096.8,137.1L1096.8,68.55L1188.2,68.55L1188.2,137.1L1165.35,159.95L1112,159.95Z" style="fill:rgb(143,144,80);stroke:rgb(143,144,80);stroke-width:1px;"/>
            </g>
            <g transform="matrix(1,0,0,1,-30.5,-11.45)">
                <path d="M1279.6,228.5L1256.75,205.65L1165.35,205.65L1142.5,228.5L1142.5,274.2L1165.35,297.05L1233.9,297.05L1279.6,251.35L1279.6,228.5Z" style="fill:rgb(143,144,80);stroke:rgb(143,144,80);stroke-width:1px;"/>
            </g>
            <g transform="matrix(1,0,0,1,-30.5,-11.45)">
                <path d="M1096.8,251.35L1096.8,228.5L1073.95,205.65L982.55,205.65L959.7,228.5L959.7,274.2L982.55,297.05L1051.1,297.05L1096.8,251.35Z" style="fill:rgb(143,144,80);stroke:rgb(143,144,80);stroke-width:1px;"/>
            </g>
            <g transform="matrix(1,0,0,1,-30.5,-11.45)">
                <path d="M914,479.85L959.7,434.15L1005.4,434.15L1051.1,479.85L1051.1,548.4L1028.25,571.25L959.7,571.25L914,525.55L914,479.85Z" style="fill:rgb(143,144,80);stroke:rgb(143,144,80);stroke-width:1px;"/>
            </g>
        </g>
        <g id="Layer9">
            <g transform="matrix(1,0,0,1,-30.5,-11.45)">
                <path d="M1405.28,868.3L1424.32,868.3L1462.4,754.05L1439.55,731.2L1393.85,731.2L1371,754.05L1371,799.75L1405.28,868.3Z" style="fill:rgb(205,207,111);stroke:rgb(205,207,111);stroke-width:1px;"/>
            </g>
            <g transform="matrix(1,0,0,1,-30.5,11.4)">
                <path d="M1462.4,639.8L1462.4,571.25L1439.55,502.7L1371,479.85L1302.45,479.85L1302.45,491.275L1371,525.55L1416.7,571.25L1450.98,639.8L1462.4,639.8Z" style="fill:rgb(205,207,111);stroke:rgb(205,207,111);stroke-width:1px;"/>
            </g>
            <g transform="matrix(1,0,0,1,-30.5,-11.45)">
                <path d="M1508.1,1211.05L1530.95,1165.35L1690.9,1211.05L1690.9,1256.75L1645.2,1302.45L1599.5,1302.45L1508.1,1211.05Z" style="fill:rgb(205,207,111);stroke:rgb(205,207,111);stroke-width:1px;"/>
            </g>
            <g transform="matrix(1,0,0,1,-30.5,-11.45)">
                <path d="M1850.85,1165.35L1850.85,1142.5L1759.45,1119.65L1713.75,1096.8L1624.13,1065.2L1546.18,990.59L1533.03,955.718L1508.1,936.85L1485.25,936.85L1468.28,959.7L1475.26,986.866L1508.59,1013.05L1553.8,1073.95L1576.65,1096.8L1593.47,1146.64L1615.52,1169.69L1713.75,1188.2L1805.15,1188.2L1850.85,1165.35Z" style="fill:rgb(205,207,111);stroke:rgb(205,207,111);stroke-width:1px;"/>
            </g>
            <g transform="matrix(1,0,0,1,-30.5,-11.45)">
                <path d="M1759.45,1073.95L1742.31,1051.1L1759.45,982.55L1736.6,891.15L1736.6,754.05L1782.3,662.65L1850.85,616.95L1828,708.35L1805.15,776.9L1828,868.3L1873.7,959.7L1873.7,1005.4L1850.85,1051.1L1828,1073.95L1759.45,1073.95Z" style="fill:rgb(205,207,111);stroke:rgb(205,207,111);stroke-width:1px;"/>
            </g>
            <g transform="matrix(1,0,0,1,-30.5,-11.45)">
                <path d="M1462.4,68.55L1462.4,137.1L1485.25,159.95L1530.95,159.95L1553.8,137.1L1553.8,91.4L1530.95,68.55L1462.4,68.55Z" style="fill:rgb(205,207,111);stroke:rgb(205,207,111);stroke-width:1px;"/>
            </g>
            <g transform="matrix(1,0,0,1,-30.5,-11.45)">
                <path d="M1462.4,251.35L1462.4,228.5L1439.55,205.65L1371,205.65L1325.3,251.35L1325.3,274.2L1348.15,297.05L1416.7,297.05L1462.4,251.35Z" style="fill:rgb(205,207,111);stroke:rgb(205,207,111);stroke-width:1px;"/>
            </g>
            <g transform="matrix(1,0,0,1,-30.5,-11.45)">
                <path d="M1112,477.251L1086.67,437.867L1092.44,366.971L1132.24,337.621L1191.32,335.739L1231.04,355.733L1274.43,332.888L1342.75,328.191L1371,365.6L1384.99,397.834L1371.58,432.044L1334.42,450.804L1279.6,434.15L1225.13,448.733L1187.41,482.613L1112,477.251Z" style="fill:rgb(205,207,111);stroke:rgb(205,207,111);stroke-width:1px;"/>
            </g>
            <g transform="matrix(1,0,0,1,-30.5,-11.45)">
                <path d="M1302.45,159.95L1279.6,137.1L1279.6,68.55L1371,68.55L1371,137.1L1348.15,159.95L1302.45,159.95Z" style="fill:rgb(205,207,111);stroke:rgb(205,207,111);stroke-width:1px;"/>
            </g>
        </g>
        <g id="Layer12">
            <g transform="matrix(1,0,0,1,-30.5,-11.45)">
                <path d="M1599.5,1393.85L1645.2,1348.15L1690.9,1348.15L1759.45,1393.85L1782.3,1416.7L1782.3,1508.1L1759.45,1530.95L1736.6,1485.25L1668.05,1462.4L1599.5,1393.85Z" style="fill:rgb(83,31,81);stroke:rgb(83,31,81);stroke-width:1px;"/>
            </g>
            <g transform="matrix(1,0,0,1,-30.5,-11.45)">
                <path d="M1302.45,731.2L1211.05,639.8L1211.05,616.95L1302.45,616.95L1325.3,639.8L1325.3,731.2L1302.45,731.2Z" style="fill:rgb(83,31,81);stroke:rgb(83,31,81);stroke-width:1px;"/>
            </g>
            <g transform="matrix(1,0,0,1,-30.5,-11.45)">
                <path d="M1279.6,891.15L1294.83,868.3L1279.6,822.6L1256.75,776.9L1211.05,754.05L1165.35,738.817L1142.5,754.05L1142.5,799.75L1233.9,891.15L1279.6,891.15Z" style="fill:rgb(83,31,81);stroke:rgb(83,31,81);stroke-width:1px;"/>
            </g>
            <g transform="matrix(1,0,0,1,-30.5,-11.45)">
                <path d="M1188.2,914L1119.65,845.45L1096.8,845.45L1096.8,914L1119.65,936.85L1188.2,936.85L1188.2,914Z" style="fill:rgb(83,31,81);stroke:rgb(83,31,81);stroke-width:1px;"/>
            </g>
            <g transform="matrix(1,0,0,1,-30.5,-11.45)">
                <path d="M1211.05,1028.25L1211.05,1016.83L1279.6,982.55L1325.3,936.85L1325.3,914L1348.15,891.15L1371,891.15L1416.7,936.85L1416.7,982.55L1371,1028.25L1211.05,1028.25Z" style="fill:rgb(83,31,81);stroke:rgb(83,31,81);stroke-width:1px;"/>
            </g>
            <g transform="matrix(1,0,0,1,-30.5,-11.45)">
                <path d="M1051.1,936.85L1051.1,914L982.55,845.45L959.7,845.45L959.7,914L982.55,936.85L1051.1,936.85Z" style="fill:rgb(83,31,81);stroke:rgb(83,31,81);stroke-width:1px;"/>
            </g>
            <g transform="matrix(1,0,0,1,-30.5,-11.45)">
                <path d="M1087.01,1119.65L1060.89,1119.65L995.607,1005.4L1005.4,982.55L1142.5,982.55L1152.29,1005.4L1087.01,1119.65Z" style="fill:rgb(83,31,81);stroke:rgb(83,31,81);stroke-width:1px;"/>
            </g>
        </g>
    </g>
</svg>
