<?xml version="1.0" encoding="UTF-8" standalone="no"?>
<!DOCTYPE svg PUBLIC "-//W3C//DTD SVG 1.1//EN" "http://www.w3.org/Graphics/SVG/1.1/DTD/svg11.dtd">
<svg width="100%" height="100%" viewBox="0 0 4634 3475" version="1.1" xmlns="http://www.w3.org/2000/svg" xmlns:xlink="http://www.w3.org/1999/xlink" xml:space="preserve" xmlns:serif="http://www.serif.com/" style="fill-rule:evenodd;clip-rule:evenodd;stroke-linecap:round;stroke-linejoin:round;stroke-miterlimit:1.5;">
    <g transform="matrix(2.08333,0,0,2.08333,0,0)">
        <g id="Layer8">
            <g transform="matrix(1,0,0,1,-30.5,-11.45)">
                <path d="M1051.1,1028.25L1051.1,982.55L1051.1,891.15L1279.6,891.15L1279.6,1028.25L1051.1,1028.25Z" style="fill:rgb(191,152,133);stroke:rgb(191,152,133);stroke-width:1px;"/>
            </g>
            <g transform="matrix(1,0,0,1,-30.5,-11.45)">
                <path d="M685.5,754.05L685.5,799.75L639.8,845.45L594.1,868.3L548.4,868.3L548.4,776.9L571.25,754.05L685.5,754.05Z" style="fill:rgb(191,152,133);stroke:rgb(191,152,133);stroke-width:1px;"/>
            </g>
            <g transform="matrix(1,0,0,1,-30.5,-11.45)">
                <path d="M1142.5,342.75L1142.5,502.7L1165.35,525.55L1348.15,525.55L1371,548.4L1371,708.35L1325.3,754.05L1073.95,754.05L1073.95,731.2L1096.8,708.35L1096.8,342.75L1142.5,342.75Z" style="fill:rgb(191,152,133);stroke:rgb(191,152,133);stroke-width:1px;"/>
            </g>
            <g transform="matrix(1,0,0,1,-30.5,-11.45)">
                <path d="M411.3,1302.45L411.3,1393.85L502.7,1485.25L594.1,1485.25L594.1,1393.85L548.4,1393.85L411.3,1302.45Z" style="fill:rgb(191,152,133);stroke:rgb(191,152,133);stroke-width:1px;"/>
            </g>
            <g transform="matrix(1,0,0,1,-30.5,-11.45)">
                <path d="M1416.7,297.05L1416.7,251.35L1645.2,251.35L1736.6,297.05L1873.7,434.15L1873.7,891.15L1828,1302.45L1782.3,1485.25L1690.9,1576.65L1645.2,1599.5L1530.95,1530.95L1530.95,1302.45L1645.2,1188.2L1645.2,1073.95L1553.8,982.55L1508.1,914L1485.25,845.45L1416.7,776.9L1416.7,479.85L1508.1,388.45L1508.1,342.75L1462.4,297.05L1416.7,297.05Z" style="fill:rgb(191,152,133);stroke:rgb(191,152,133);stroke-width:1px;"/>
            </g>
        </g>
        <g id="Layer15">
            <g transform="matrix(1,0,0,1,-30.5,-11.45)">
                <path d="M1233.9,1439.55L1371,1302.45L1599.5,1302.45L1645.2,1348.15L1645.2,1393.85L1599.5,1439.55L1553.8,1462.4L1553.8,1508.1L1599.5,1530.95L1645.2,1576.65L1645.2,1599.5L1622.35,1622.35L1233.9,1622.35L1233.9,1439.55Z" style="fill:rgb(132,167,59);stroke:rgb(132,167,59);stroke-width:1px;"/>
            </g>
            <g transform="matrix(1,0,0,1,-30.5,-11.45)">
                <path d="M1325.3,159.95L1393.85,137.1L1416.7,91.4L1416.7,68.55L1439.55,68.55L1462.4,91.4L1462.4,205.65L1371,274.2L1325.3,159.95Z" style="fill:rgb(132,167,59);stroke:rgb(132,167,59);stroke-width:1px;"/>
            </g>
        </g>
        <g id="Layer14">
            <g transform="matrix(1,0,0,1,-30.5,-11.45)">
                <path d="M1028.25,342.75L1051.1,365.6L1051.1,708.35L1005.4,754.05L731.2,754.05L479.85,708.35L457,685.5L457,616.95L845.45,616.95L868.3,594.1L868.3,342.75L1028.25,342.75Z" style="fill:rgb(119,119,104);stroke:rgb(119,119,104);stroke-width:1px;"/>
            </g>
            <g transform="matrix(1,0,0,1,-30.5,-11.45)">
                <path d="M1211.05,342.75L1462.4,342.75L1462.4,388.45L1371,479.85L1211.05,479.85L1188.2,457L1188.2,365.6L1211.05,342.75Z" style="fill:rgb(119,119,104);stroke:rgb(119,119,104);stroke-width:1px;"/>
            </g>
            <g transform="matrix(1,0,0,1,-30.5,-11.45)">
                <path d="M868.3,845.45L914,799.75L1416.7,799.75L1462.4,845.45L1462.4,959.7L1439.55,982.55L1279.6,982.55L1188.2,891.15L1142.5,891.15L1051.1,982.55L891.15,982.55L868.3,959.7L868.3,845.45Z" style="fill:rgb(119,119,104);stroke:rgb(119,119,104);stroke-width:1px;"/>
            </g>
            <g transform="matrix(1,0,0,1,-30.5,-11.45)">
                <path d="M1233.9,1622.35L731.2,1622.35L639.8,1530.95L639.8,1211.05L822.6,1028.25L1576.65,1028.25L1599.5,1051.1L1599.5,1211.05L1553.8,1256.75L1348.15,1256.75L1325.3,1279.6L1325.3,1348.15L1233.9,1439.55L1233.9,1622.35ZM776.9,1279.6L822.6,1233.9L868.3,1279.6L822.6,1325.3L776.9,1279.6Z" style="fill:rgb(119,119,104);stroke:rgb(119,119,104);stroke-width:1px;"/>
            </g>
            <g transform="matrix(1,0,0,1,-30.5,-11.45)">
                <path d="M594.1,1530.95L685.5,1622.35L479.85,1622.35L457,1599.5L502.7,1530.95L594.1,1530.95Z" style="fill:rgb(119,119,104);stroke:rgb(119,119,104);stroke-width:1px;"/>
            </g>
            <g transform="matrix(1,0,0,1,-30.5,-11.45)">
                <path d="M411.3,1302.45L411.3,1233.9L434.15,1211.05L525.55,1211.05L548.4,1233.9L548.4,1393.85L502.7,1393.85L411.3,1302.45Z" style="fill:rgb(119,119,104);stroke:rgb(119,119,104);stroke-width:1px;"/>
            </g>
            <g transform="matrix(1,0,0,1,-30.5,-11.45)">
                <path d="M1873.7,1211.05L1896.55,1211.05L1919.4,1233.9L1919.4,1530.95L1828,1622.35L1645.2,1622.35L1782.3,1530.95L1850.85,1371L1873.7,1211.05Z" style="fill:rgb(119,119,104);stroke:rgb(119,119,104);stroke-width:1px;"/>
            </g>
        </g>
        <g transform="matrix(1,0,0,1,-30.5,-11.45)">
            <g id="Layer13">
                <path d="M616.95,1119.65L388.45,1119.65L365.6,1096.8L365.6,982.55L457,891.15L548.4,891.15L639.8,982.55L639.8,1096.8L616.95,1119.65Z" style="fill:rgb(103,153,164);stroke:rgb(103,153,164);stroke-width:1px;"/>
            </g>
        </g>
        <g id="Layer12">
            <g transform="matrix(1,0,0,1,-30.5,-11.45)">
                <rect x="457" y="297.05" width="45.7" height="45.7" style="fill:rgb(211,196,122);stroke:rgb(211,196,122);stroke-width:1px;"/>
            </g>
            <g transform="matrix(1,0,0,1,60.9,-11.45)">
                <rect x="457" y="297.05" width="45.7" height="45.7" style="fill:rgb(211,196,122);stroke:rgb(211,196,122);stroke-width:1px;"/>
            </g>
            <g transform="matrix(1,0,0,1,152.3,-11.45)">
                <rect x="457" y="297.05" width="45.7" height="45.7" style="fill:rgb(211,196,122);stroke:rgb(211,196,122);stroke-width:1px;"/>
            </g>
            <g transform="matrix(1,0,0,1,243.7,-11.45)">
                <rect x="457" y="297.05" width="45.7" height="45.7" style="fill:rgb(211,196,122);stroke:rgb(211,196,122);stroke-width:1px;"/>
            </g>
            <g transform="matrix(1,0,0,1,-30.5,-11.45)">
                <path d="M457,616.95L457,434.15L479.85,434.15L525.55,616.95L457,616.95Z" style="fill:rgb(211,196,122);stroke:rgb(211,196,122);stroke-width:1px;"/>
            </g>
            <g transform="matrix(1,0,0,1,152.3,-11.45)">
                <path d="M457,616.95L457,434.15L479.85,434.15L525.55,616.95L457,616.95Z" style="fill:rgb(211,196,122);stroke:rgb(211,196,122);stroke-width:1px;"/>
            </g>
            <g transform="matrix(1,0,0,1,-30.5,-11.45)">
                <path d="M411.3,1119.65L434.15,1119.65L457,1142.5L457,1256.75L502.7,1302.45L571.25,1302.45L594.1,1279.6L594.1,1233.9L571.25,1211.05L548.4,1188.2L548.4,1142.5L571.25,1119.65L594.1,1119.65L594.1,1096.8L571.25,1073.95L434.15,1073.95L411.3,1096.8L411.3,1119.65Z" style="fill:rgb(211,196,122);stroke:rgb(211,196,122);stroke-width:1px;"/>
            </g>
            <g transform="matrix(1,0,0,1,-53.35,-11.45)">
                <rect x="411.3" y="982.55" width="45.7" height="45.7" style="fill:rgb(211,196,122);stroke:rgb(211,196,122);stroke-width:1px;"/>
            </g>
            <g transform="matrix(1,0,0,1,129.45,-11.45)">
                <rect x="411.3" y="982.55" width="45.7" height="45.7" style="fill:rgb(211,196,122);stroke:rgb(211,196,122);stroke-width:1px;"/>
            </g>
            <g transform="matrix(1,0,0,1,38.05,-57.15)">
                <rect x="411.3" y="982.55" width="45.7" height="45.7" style="fill:rgb(211,196,122);stroke:rgb(211,196,122);stroke-width:1px;"/>
            </g>
            <g transform="matrix(1,0,0,1,-30.5,-11.45)">
                <path d="M1233.9,1530.95L1005.4,1530.95L982.55,1485.25L959.7,1439.55L959.7,1393.85L936.85,1439.55L936.85,1576.65L982.55,1622.35L1233.9,1622.35L1233.9,1530.95Z" style="fill:rgb(211,196,122);stroke:rgb(211,196,122);stroke-width:1px;"/>
            </g>
            <g transform="matrix(1,0,0,1,-30.5,-11.45)">
                <path d="M1233.9,1485.25L1051.1,1485.25L1028.25,1462.4L1028.25,1416.7L1051.1,1371L1051.1,1416.7L1073.95,1439.55L1233.9,1439.55L1233.9,1485.25Z" style="fill:rgb(211,196,122);stroke:rgb(211,196,122);stroke-width:1px;"/>
            </g>
            <g transform="matrix(1,0,0,1,-30.5,-11.45)">
                <path d="M502.7,1530.95L411.3,1530.95L365.6,1576.65L365.6,1622.35L388.45,1599.5L457,1599.5L502.7,1576.65L502.7,1530.95Z" style="fill:rgb(211,196,122);stroke:rgb(211,196,122);stroke-width:1px;"/>
            </g>
            <g transform="matrix(1,0,0,1,-30.5,-11.45)">
                <path d="M1165.35,205.65L1233.9,205.65L1279.6,159.95L1325.3,159.95L1371,205.65L1371,274.2L1348.15,297.05L1165.35,297.05L1165.35,205.65Z" style="fill:rgb(211,196,122);stroke:rgb(211,196,122);stroke-width:1px;"/>
            </g>
        </g>
        <g transform="matrix(1,0,0,1,-30.5,-11.45)">
            <g id="Layer11">
                <path d="M1188.2,297.05L1188.2,159.95L1142.5,114.25L1005.4,114.25L959.7,159.95L936.85,205.65L845.45,205.65L822.6,114.25L776.9,68.55L502.7,68.55L457,114.25L457,297.05L982.55,297.05L982.55,274.2L1028.25,228.5L1073.95,228.5L1119.65,274.2L1119.65,297.05L1188.2,297.05Z" style="fill:rgb(161,16,15);stroke:rgb(161,16,15);stroke-width:1px;"/>
            </g>
        </g>
        <g transform="matrix(1,0,0,1,-30.5,-11.45)">
            <g id="Layer10">
                <path d="M1005.4,297.05L1005.4,274.2L1028.25,251.35L1073.95,251.35L1096.8,274.2L1096.8,297.05L1005.4,297.05Z" style="fill:rgb(29,30,27);stroke:rgb(29,30,27);stroke-width:1px;"/>
            </g>
        </g>
        <g id="Layer9">
            <g transform="matrix(1,0,0,1,-30.5,-11.45)">
                <path d="M1553.8,479.85L1645.2,388.45L1690.9,388.45L1782.3,479.85L1782.3,525.55L1553.8,525.55L1553.8,479.85Z" style="fill:rgb(176,122,116);stroke:rgb(176,122,116);stroke-width:1px;"/>
            </g>
            <g transform="matrix(1,0,0,1,-30.5,217.05)">
                <path d="M1553.8,479.85L1645.2,388.45L1690.9,388.45L1782.3,479.85L1782.3,525.55L1553.8,525.55L1553.8,479.85Z" style="fill:rgb(176,122,116);stroke:rgb(176,122,116);stroke-width:1px;"/>
            </g>
        </g>
    </g>
</svg>
