<?xml version="1.0" encoding="UTF-8" standalone="no"?>
<!DOCTYPE svg PUBLIC "-//W3C//DTD SVG 1.1//EN" "http://www.w3.org/Graphics/SVG/1.1/DTD/svg11.dtd">
<svg width="100%" height="100%" viewBox="0 0 4634 3475" version="1.1" xmlns="http://www.w3.org/2000/svg" xmlns:xlink="http://www.w3.org/1999/xlink" xml:space="preserve" xmlns:serif="http://www.serif.com/" style="fill-rule:evenodd;clip-rule:evenodd;stroke-linecap:round;stroke-linejoin:round;stroke-miterlimit:1.5;">
    <g transform="matrix(2.08333,0,0,2.08333,0,0)">
        <g id="Layer8">
            <g transform="matrix(1,0,0,1,-30.5,-11.45)">
                <path d="M1508.1,68.55L1645.2,68.55L1919.4,342.75L1919.4,479.85L1508.1,68.55Z" style="fill:rgb(194,62,52);stroke:rgb(194,62,52);stroke-width:1px;"/>
            </g>
            <g transform="matrix(-1,0,0,1,2254.5,-11.45)">
                <path d="M1508.1,68.55L1645.2,68.55L1919.4,342.75L1919.4,479.85L1508.1,68.55Z" style="fill:rgb(194,62,52);stroke:rgb(194,62,52);stroke-width:1px;"/>
            </g>
            <g transform="matrix(1,0,0,1,-30.5,-11.45)">
                <path d="M1919.4,571.25L1462.4,114.25L1325.3,114.25L1279.6,159.95L1279.6,205.65L1416.7,205.65L1919.4,708.35L1919.4,571.25Z" style="fill:rgb(194,62,52);stroke:rgb(194,62,52);stroke-width:1px;"/>
            </g>
            <g transform="matrix(-1,0,0,1,2254.5,-11.45)">
                <path d="M1919.4,571.25L1462.4,114.25L1325.3,114.25L1279.6,159.95L1279.6,205.65L1416.7,205.65L1919.4,708.35L1919.4,571.25Z" style="fill:rgb(194,62,52);stroke:rgb(194,62,52);stroke-width:1px;"/>
            </g>
            <g transform="matrix(1,0,0,1,-30.5,-11.45)">
                <path d="M1828,708.35L1690.9,571.25L1645.2,571.25L1599.5,616.95L1553.8,616.95L1530.95,594.1L1508.1,548.4L1462.4,571.25L1439.55,525.55L1393.85,548.4L1348.15,479.85L1325.3,571.25L1371,685.5L1462.4,754.05L1805.15,754.05L1828,731.2L1828,708.35Z" style="fill:rgb(194,62,52);stroke:rgb(194,62,52);stroke-width:1px;"/>
            </g>
            <g transform="matrix(-1,0,0,1,2254.5,-11.45)">
                <path d="M1828,708.35L1690.9,571.25L1645.2,571.25L1599.5,616.95L1553.8,616.95L1530.95,594.1L1508.1,548.4L1462.4,571.25L1439.55,525.55L1393.85,548.4L1348.15,479.85L1325.3,571.25L1371,685.5L1462.4,754.05L1805.15,754.05L1828,731.2L1828,708.35Z" style="fill:rgb(194,62,52);stroke:rgb(194,62,52);stroke-width:1px;"/>
            </g>
            <g transform="matrix(1,0,0,1,-30.5,-11.45)">
                <path d="M914,936.85L822.6,845.45L685.5,845.45L685.5,868.3L708.35,891.15L731.2,891.15L731.2,982.55L776.9,1028.25L891.15,1028.25L914,1005.4L914,936.85Z" style="fill:rgb(194,62,52);stroke:rgb(194,62,52);stroke-width:1px;"/>
            </g>
            <g transform="matrix(-1,0,0,1,2254.5,-11.45)">
                <path d="M914,936.85L822.6,845.45L685.5,845.45L685.5,868.3L708.35,891.15L731.2,891.15L731.2,982.55L776.9,1028.25L891.15,1028.25L914,1005.4L914,936.85Z" style="fill:rgb(194,62,52);stroke:rgb(194,62,52);stroke-width:1px;"/>
            </g>
            <g transform="matrix(1,0,0,1,-30.5,-11.45)">
                <path d="M548.4,845.45L365.6,845.45L365.6,891.15L411.3,936.85L594.1,936.85L594.1,891.15L548.4,845.45Z" style="fill:rgb(194,62,52);stroke:rgb(194,62,52);stroke-width:1px;"/>
            </g>
            <g transform="matrix(-1,0,0,1,2254.5,-11.45)">
                <path d="M548.4,845.45L411.3,845.45L365.6,845.45L365.6,891.15L411.3,936.85L594.1,936.85L594.1,891.15L548.4,845.45Z" style="fill:rgb(194,62,52);stroke:rgb(194,62,52);stroke-width:1px;"/>
            </g>
            <g transform="matrix(1,0,0,1,-30.5,-11.45)">
                <path d="M776.9,1211.05L776.9,1073.95L731.2,1028.25L594.1,1028.25L594.1,1119.65L662.65,1119.65L685.5,1165.35L731.2,1211.05L776.9,1211.05Z" style="fill:rgb(194,62,52);stroke:rgb(194,62,52);stroke-width:1px;"/>
            </g>
            <g transform="matrix(-1,0,0,1,2254.5,-11.45)">
                <path d="M776.9,1211.05L776.9,1073.95L731.2,1028.25L594.1,1028.25L594.1,1119.65L662.65,1119.65L685.5,1165.35L731.2,1211.05L776.9,1211.05Z" style="fill:rgb(194,62,52);stroke:rgb(194,62,52);stroke-width:1px;"/>
            </g>
            <g transform="matrix(1,0,0,1,-30.5,-11.45)">
                <path d="M502.7,1165.35L388.45,1165.35L365.6,1188.2L365.6,1256.75L457,1256.75L457,1211.05L502.7,1165.35Z" style="fill:rgb(194,62,52);stroke:rgb(194,62,52);stroke-width:1px;"/>
            </g>
            <g transform="matrix(-1,0,0,1,2254.5,-11.45)">
                <path d="M502.7,1165.35L388.45,1165.35L365.6,1188.2L365.6,1256.75L457,1256.75L457,1211.05L502.7,1165.35Z" style="fill:rgb(194,62,52);stroke:rgb(194,62,52);stroke-width:1px;"/>
            </g>
            <g transform="matrix(1,0,0,1,-30.5,-11.45)">
                <path d="M639.8,1393.85L776.9,1393.85L776.9,1416.7L822.6,1439.55L868.3,1485.25L754.05,1485.25L708.35,1439.55L639.8,1439.55L639.8,1393.85Z" style="fill:rgb(194,62,52);stroke:rgb(194,62,52);stroke-width:1px;"/>
            </g>
            <g transform="matrix(-1,0,0,1,2254.5,-11.45)">
                <path d="M639.8,1393.85L776.9,1393.85L776.9,1416.7L822.6,1439.55L868.3,1485.25L754.05,1485.25L708.35,1439.55L639.8,1439.55L639.8,1393.85Z" style="fill:rgb(194,62,52);stroke:rgb(194,62,52);stroke-width:1px;"/>
            </g>
        </g>
        <g id="Layer9">
            <g transform="matrix(1,0,0,1,-30.5,-11.45)">
                <path d="M1919.4,479.85L1919.4,571.25L1462.4,114.25L1348.15,114.25L1393.85,68.55L1508.1,68.55L1919.4,479.85Z" style="fill:rgb(215,204,171);stroke:rgb(215,204,171);stroke-width:1px;"/>
            </g>
            <g transform="matrix(-1,0,0,1,2254.5,-11.45)">
                <path d="M1919.4,479.85L1919.4,571.25L1462.4,114.25L1348.15,114.25L1393.85,68.55L1508.1,68.55L1919.4,479.85Z" style="fill:rgb(215,204,171);stroke:rgb(215,204,171);stroke-width:1px;"/>
            </g>
            <g transform="matrix(1,0,0,1,-30.5,-11.45)">
                <path d="M1919.4,708.35L1416.7,205.65L1279.6,205.65L1233.9,297.05L1393.85,297.05L1416.7,388.45L1485.25,388.45L1508.1,479.85L1576.65,479.85L1599.5,571.25L1690.9,571.25L1828,708.35L1828,776.9L1850.85,799.75L1896.55,799.75L1919.4,776.9L1919.4,708.35Z" style="fill:rgb(215,204,171);stroke:rgb(215,204,171);stroke-width:1px;"/>
            </g>
            <g transform="matrix(-1,0,0,1,2254.5,-11.45)">
                <path d="M1919.4,708.35L1416.7,205.65L1279.6,205.65L1233.9,297.05L1393.85,297.05L1416.7,388.45L1485.25,388.45L1508.1,479.85L1576.65,479.85L1599.5,571.25L1690.9,571.25L1828,708.35L1828,776.9L1850.85,799.75L1896.55,799.75L1919.4,776.9L1919.4,708.35Z" style="fill:rgb(215,204,171);stroke:rgb(215,204,171);stroke-width:1px;"/>
            </g>
            <g transform="matrix(1,0,0,1,-30.5,-11.45)">
                <path d="M731.2,891.15L708.35,891.15L685.5,868.3L685.5,845.45L548.4,845.45L594.1,891.15L594.1,936.85L731.2,936.85L731.2,891.15Z" style="fill:rgb(215,204,171);stroke:rgb(215,204,171);stroke-width:1px;"/>
            </g>
            <g transform="matrix(-1,0,0,1,2254.5,-11.45)">
                <path d="M731.2,891.15L708.35,891.15L685.5,868.3L685.5,845.45L548.4,845.45L594.1,891.15L594.1,936.85L731.2,936.85L731.2,891.15Z" style="fill:rgb(215,204,171);stroke:rgb(215,204,171);stroke-width:1px;"/>
            </g>
            <g transform="matrix(1,0,0,1,-53.35,-11.45)">
                <path d="M525.55,1165.35L548.4,1142.5L571.25,1119.65L594.1,1119.65L594.1,1028.25L548.4,1028.25L525.55,1051.1L502.7,1073.95L479.85,1096.8L457,1119.65L434.15,1142.5L411.3,1165.35L525.55,1165.35Z" style="fill:rgb(215,204,171);stroke:rgb(215,204,171);stroke-width:1px;"/>
            </g>
            <g transform="matrix(-1,0,0,1,2277.35,-11.45)">
                <path d="M525.55,1165.35L548.4,1142.5L571.25,1119.65L594.1,1119.65L594.1,1028.25L548.4,1028.25L525.55,1051.1L502.7,1073.95L479.85,1096.8L457,1119.65L434.15,1142.5L411.3,1165.35L525.55,1165.35Z" style="fill:rgb(215,204,171);stroke:rgb(215,204,171);stroke-width:1px;"/>
            </g>
            <g transform="matrix(1,0,0,1,-30.5,-11.45)">
                <path d="M776.9,1393.85L868.3,1393.85L1005.4,1530.95L1005.4,1553.8L982.55,1576.65L936.85,1576.65L914,1553.8L914,1530.95L822.6,1439.55L799.75,1439.55L776.9,1416.7L776.9,1393.85Z" style="fill:rgb(215,204,171);stroke:rgb(215,204,171);stroke-width:1px;"/>
            </g>
            <g transform="matrix(-1,0,0,1,2254.5,-11.45)">
                <path d="M776.9,1393.85L868.3,1393.85L1005.4,1530.95L1005.4,1553.8L982.55,1576.65L936.85,1576.65L914,1553.8L914,1530.95L822.6,1439.55L799.75,1439.55L776.9,1416.7L776.9,1393.85Z" style="fill:rgb(215,204,171);stroke:rgb(215,204,171);stroke-width:1px;"/>
            </g>
        </g>
        <g transform="matrix(1,0,0,1,-30.5,-11.45)">
            <g id="Layer12">
                <path d="M914,1028.25L822.6,1119.65L822.6,1302.45L959.7,1439.55L1325.3,1439.55L1462.4,1302.45L1462.4,1119.65L1371,1028.25L1256.75,1028.25L1233.9,1005.4L1233.9,936.85L1211.05,936.85L1211.05,914L1188.2,891.15L1096.8,891.15L1073.95,914L1073.95,936.85L1051.1,936.85L1051.1,1005.4L1028.25,1028.25L914,1028.25Z" style="fill:rgb(191,176,113);stroke:rgb(191,176,113);stroke-width:1px;"/>
            </g>
        </g>
        <g id="Layer13">
            <g transform="matrix(1,0,0,1,-30.5,-11.45)">
                <path d="M1073.95,1485.25L1211.05,1485.25L1233.9,1508.1L1233.9,1530.95L1211.05,1530.95L1188.2,1576.65L1096.8,1576.65L1073.95,1530.95L1051.1,1530.95L1051.1,1508.1L1073.95,1485.25Z" style="fill:rgb(128,127,61);stroke:rgb(128,127,61);stroke-width:1px;"/>
            </g>
            <g transform="matrix(1,0,0,1,-30.5,-11.45)">
                <path d="M1325.3,1028.25L1325.3,891.15L1233.9,891.15L1233.9,1005.4L1256.75,1028.25L1325.3,1028.25Z" style="fill:rgb(128,127,61);stroke:rgb(128,127,61);stroke-width:1px;"/>
            </g>
            <g transform="matrix(1,0,0,1,-30.5,-11.45)">
                <path d="M1051.1,1005.4L1028.25,1028.25L959.7,1028.25L959.7,891.15L1051.1,891.15L1051.1,1005.4Z" style="fill:rgb(128,127,61);stroke:rgb(128,127,61);stroke-width:1px;"/>
            </g>
            <g transform="matrix(1,0,0,1,-30.5,-11.45)">
                <path d="M959.7,1393.85L868.3,1302.45L868.3,1119.65L914,1073.95L1371,1073.95L1416.7,1119.65L1416.7,1302.45L1325.3,1393.85L959.7,1393.85ZM1211.05,1348.15L1279.6,1348.15L1325.3,1302.45L1325.3,1279.6L1302.45,1256.75L982.55,1256.75L959.7,1279.6L959.7,1302.45L1005.4,1348.15L1073.95,1348.15L1096.8,1302.45L1188.2,1302.45L1211.05,1348.15ZM1073.95,1119.65L982.55,1119.65L959.7,1142.5L959.7,1188.2L982.55,1211.05L1302.45,1211.05L1325.3,1188.2L1325.3,1142.5L1302.45,1119.65L1211.05,1119.65L1188.2,1165.35L1096.8,1165.35L1073.95,1119.65Z" style="fill:rgb(128,127,61);stroke:rgb(128,127,61);stroke-width:1px;"/>
            </g>
            <g transform="matrix(1,0,0,1,-7.65,-11.45)">
                <path d="M1462.4,1302.45L1553.8,1211.05L1690.9,1211.05L1736.6,1256.75L1736.6,1302.45L1690.9,1348.15L1485.25,1348.15L1462.4,1325.3L1462.4,1302.45Z" style="fill:rgb(128,127,61);stroke:rgb(128,127,61);stroke-width:1px;"/>
            </g>
            <g transform="matrix(-1,0,0,1,2231.65,-11.45)">
                <path d="M1462.4,1302.45L1553.8,1211.05L1690.9,1211.05L1736.6,1256.75L1736.6,1302.45L1690.9,1348.15L1485.25,1348.15L1462.4,1325.3L1462.4,1302.45Z" style="fill:rgb(128,127,61);stroke:rgb(128,127,61);stroke-width:1px;"/>
            </g>
        </g>
        <g id="Layer14">
            <g transform="matrix(1,0,0,1,-30.5,-11.45)">
                <rect x="1096.8" y="1165.35" width="91.4" height="45.7" style="fill:rgb(158,144,80);stroke:rgb(158,144,80);stroke-width:1px;"/>
            </g>
            <g transform="matrix(1,0,0,1,-30.5,-11.45)">
                <rect x="1096.8" y="1256.75" width="91.4" height="45.7" style="fill:rgb(158,144,80);stroke:rgb(158,144,80);stroke-width:1px;"/>
            </g>
            <g transform="matrix(1,0,0,1,-19.075,-22.875)">
                <path d="M982.55,1165.35L1005.4,1142.5L1028.25,1142.5L1051.1,1165.35L1051.1,1188.2L1028.25,1211.05L1005.4,1211.05L982.55,1188.2L982.55,1165.35Z" style="fill:rgb(158,144,80);stroke:rgb(158,144,80);stroke-width:1px;"/>
            </g>
            <g transform="matrix(1,0,0,1,-19.075,114.225)">
                <path d="M982.55,1165.35L1005.4,1142.5L1028.25,1142.5L1051.1,1165.35L1051.1,1188.2L1028.25,1211.05L1005.4,1211.05L982.55,1188.2L982.55,1165.35Z" style="fill:rgb(158,144,80);stroke:rgb(158,144,80);stroke-width:1px;"/>
            </g>
            <g transform="matrix(1,0,0,1,209.425,114.225)">
                <path d="M982.55,1165.35L1005.4,1142.5L1028.25,1142.5L1051.1,1165.35L1051.1,1188.2L1028.25,1211.05L1005.4,1211.05L982.55,1188.2L982.55,1165.35Z" style="fill:rgb(158,144,80);stroke:rgb(158,144,80);stroke-width:1px;"/>
            </g>
            <g transform="matrix(1,0,0,1,209.425,-22.875)">
                <path d="M982.55,1165.35L1005.4,1142.5L1028.25,1142.5L1051.1,1165.35L1051.1,1188.2L1028.25,1211.05L1005.4,1211.05L982.55,1188.2L982.55,1165.35Z" style="fill:rgb(158,144,80);stroke:rgb(158,144,80);stroke-width:1px;"/>
            </g>
            <g transform="matrix(1,0,0,1,-30.5,-11.45)">
                <path d="M1073.95,1073.95L1096.8,1028.25L1188.2,1028.25L1211.05,1073.95L1073.95,1073.95Z" style="fill:rgb(158,144,80);stroke:rgb(158,144,80);stroke-width:1px;"/>
            </g>
            <g transform="matrix(1,0,0,1,-30.5,-11.45)">
                <path d="M1073.95,1393.85L1096.8,1439.55L1188.2,1439.55L1211.05,1393.85L1073.95,1393.85Z" style="fill:rgb(158,144,80);stroke:rgb(158,144,80);stroke-width:1px;"/>
            </g>
        </g>
        <g id="Layer10">
            <g transform="matrix(1,0,0,1,-7.65,11.4)">
                <path d="M594.1,1393.85L571.25,1393.85L548.4,1416.7L548.4,1530.95L571.25,1599.5L594.1,1530.95L616.95,1439.55L594.1,1439.55L594.1,1393.85Z" style="fill:rgb(33,33,33);stroke:rgb(33,33,33);stroke-width:1px;"/>
            </g>
            <g transform="matrix(-1,0,0,1,2231.65,11.4)">
                <path d="M594.1,1393.85L571.25,1393.85L548.4,1416.7L548.4,1530.95L571.25,1599.5L594.1,1530.95L616.95,1439.55L594.1,1439.55L594.1,1393.85Z" style="fill:rgb(33,33,33);stroke:rgb(33,33,33);stroke-width:1px;"/>
            </g>
            <g transform="matrix(1,0,0,1,-213.3,-102.85)">
                <path d="M594.1,1393.85L548.4,1393.85L548.4,1645.2L571.25,1713.75L594.1,1645.2L616.95,1599.5L639.8,1393.85L594.1,1393.85Z" style="fill:rgb(33,33,33);stroke:rgb(33,33,33);stroke-width:1px;"/>
            </g>
            <g transform="matrix(-1,0,0,1,2437.3,-102.85)">
                <path d="M594.1,1393.85L548.4,1393.85L548.4,1645.2L571.25,1713.75L594.1,1645.2L616.95,1599.5L639.8,1393.85L594.1,1393.85Z" style="fill:rgb(33,33,33);stroke:rgb(33,33,33);stroke-width:1px;"/>
            </g>
            <g transform="matrix(1,0,0,1,-30.5,-11.45)">
                <path d="M959.7,914L959.7,891.15L936.85,891.15L914,868.3L914,731.2L936.85,708.35L959.7,708.35L959.7,685.5L982.55,662.65L1005.4,662.65L1005.4,639.8L1028.25,616.95L1051.1,616.95L1051.1,525.55L1028.25,525.55L1005.4,502.7L1005.4,434.15L982.55,434.15L959.7,411.3L959.7,388.45L936.85,388.45L891.15,365.6L936.85,342.75L982.55,342.75L1005.4,365.6L1005.4,388.45L1028.25,388.45L1051.1,411.3L1051.1,479.85L1073.95,479.85L1096.8,502.7L1096.8,639.8L1073.95,662.65L1051.1,662.65L1051.1,685.5L1028.25,708.35L1005.4,708.35L1005.4,731.2L982.55,754.05L959.7,754.05L959.7,845.45L982.55,845.45L1005.4,868.3L1005.4,936.85L982.55,936.85L959.7,914Z" style="fill:rgb(33,33,33);stroke:rgb(33,33,33);stroke-width:1px;"/>
            </g>
            <g transform="matrix(-1,0,0,1,2254.5,-11.45)">
                <path d="M982.55,936.85L959.7,914L959.7,891.15L936.85,891.15L914,868.3L914,731.2L936.85,708.35L959.7,708.35L959.7,685.5L982.55,662.65L1005.4,662.65L1005.4,639.8L1028.25,616.95L1051.1,616.95L1051.1,525.55L1028.25,525.55L1005.4,502.7L1005.4,434.15L982.55,434.15L959.7,411.3L959.7,388.45L936.85,388.45L891.15,365.6L936.85,342.75L982.55,342.75L1005.4,365.6L1005.4,388.45L1028.25,388.45L1051.1,411.3L1051.1,479.85L1073.95,479.85L1096.8,502.7L1096.8,639.8L1073.95,662.65L1051.1,662.65L1051.1,685.5L1028.25,708.35L1005.4,708.35L1005.4,731.2L982.55,754.05L959.7,754.05L959.7,845.45L982.55,845.45L1005.4,868.3L1005.4,936.85L982.55,936.85Z" style="fill:rgb(33,33,33);stroke:rgb(33,33,33);stroke-width:1px;"/>
            </g>
        </g>
        <g id="Layer11">
            <g transform="matrix(1,0,0,1,-30.5,-11.45)">
                <path d="M1051.1,936.85L1051.1,914L1005.4,868.3L1005.4,776.9L1028.25,754.05L1073.95,754.05L1096.8,776.9L1096.8,891.15L1073.95,914L1073.95,936.85L1051.1,936.85Z" style="fill:rgb(44,2,0);stroke:rgb(44,2,0);stroke-width:1px;"/>
            </g>
            <g transform="matrix(-1,0,0,1,2254.5,-11.45)">
                <path d="M1051.1,936.85L1051.1,914L1005.4,868.3L1005.4,776.9L1028.25,754.05L1073.95,754.05L1096.8,776.9L1096.8,891.15L1073.95,914L1073.95,936.85L1051.1,936.85Z" style="fill:rgb(44,2,0);stroke:rgb(44,2,0);stroke-width:1px;"/>
            </g>
        </g>
    </g>
</svg>
