<?xml version="1.0" encoding="UTF-8" standalone="no"?>
<!DOCTYPE svg PUBLIC "-//W3C//DTD SVG 1.1//EN" "http://www.w3.org/Graphics/SVG/1.1/DTD/svg11.dtd">
<svg width="100%" height="100%" viewBox="0 0 4634 3475" version="1.1" xmlns="http://www.w3.org/2000/svg" xmlns:xlink="http://www.w3.org/1999/xlink" xml:space="preserve" xmlns:serif="http://www.serif.com/" style="fill-rule:evenodd;clip-rule:evenodd;stroke-linecap:round;stroke-linejoin:round;stroke-miterlimit:1.5;">
    <g transform="matrix(2.08333,0,0,2.08333,0,0)">
        <g id="Layer14">
            <g transform="matrix(1,0,0,1,-30.5,-0.025)">
                <path d="M731.2,708.35L731.2,639.8L754.05,594.1L754.05,616.95L776.9,639.8L731.2,708.35Z" style="fill:rgb(223,224,192);stroke:rgb(223,224,192);stroke-width:1px;"/>
            </g>
            <g transform="matrix(-1,0,0,1,2254.5,-0.025)">
                <path d="M731.2,708.35L731.2,639.8L754.05,594.1L754.05,616.95L776.9,639.8L731.2,708.35Z" style="fill:rgb(223,224,192);stroke:rgb(223,224,192);stroke-width:1px;"/>
            </g>
            <g transform="matrix(1,0,0,1,-30.5,-0.025)">
                <path d="M822.6,594.1L822.6,502.7L868.3,434.15L891.15,479.85L936.85,502.7L822.6,594.1Z" style="fill:rgb(223,224,192);stroke:rgb(223,224,192);stroke-width:1px;"/>
            </g>
            <g transform="matrix(-1,0,0,1,2254.5,-0.025)">
                <path d="M822.6,594.1L822.6,502.7L868.3,434.15L891.15,479.85L936.85,502.7L822.6,594.1Z" style="fill:rgb(223,224,192);stroke:rgb(223,224,192);stroke-width:1px;"/>
            </g>
            <g transform="matrix(1,0,0,1,-30.5,-0.025)">
                <path d="M959.7,479.85L959.7,434.15L1028.25,342.75L1051.1,388.45L1096.8,434.15L959.7,479.85Z" style="fill:rgb(223,224,192);stroke:rgb(223,224,192);stroke-width:1px;"/>
            </g>
            <g transform="matrix(-1,0,0,1,2254.5,-0.025)">
                <path d="M959.7,479.85L959.7,434.15L1028.25,342.75L1051.1,388.45L1096.8,434.15L959.7,479.85Z" style="fill:rgb(223,224,192);stroke:rgb(223,224,192);stroke-width:1px;"/>
            </g>
        </g>
        <g id="Layer9">
            <g transform="matrix(1,0,0,1,-30.5,-0.025)">
                <path d="M1233.9,1439.55L1051.1,1439.55L959.7,1325.3L936.85,1256.75L959.7,1188.2L959.7,1165.35L914,1119.65L914,1073.95L799.75,982.55L731.2,845.45L731.2,708.35L776.9,639.8L891.15,525.55L959.7,479.85L1051.1,434.15L1142.5,411.3L1233.9,434.15L1325.3,479.85L1393.85,525.55L1508.1,639.8L1553.8,708.35L1553.8,845.45L1485.25,982.55L1371,1073.95L1371,1119.65L1325.3,1165.35L1325.3,1188.2L1348.15,1256.75L1325.3,1325.3L1233.9,1439.55Z" style="fill:rgb(208,160,79);stroke:rgb(208,160,79);stroke-width:1px;"/>
            </g>
            <g transform="matrix(1,0,0,1,-30.5,-0.025)">
                <path d="M388.45,616.95L365.6,639.8L365.6,1348.15L411.3,1393.85L502.7,1462.4L571.25,1462.4L639.8,1439.55L685.5,1393.85L685.5,1348.15L639.8,1096.8L639.8,1028.25L685.5,891.15L685.5,685.5L662.65,662.65L639.8,662.65L594.1,708.35L548.4,708.35L525.55,754.05L502.7,754.05L479.85,708.35L457,616.95L388.45,616.95Z" style="fill:rgb(208,160,79);stroke:rgb(208,160,79);stroke-width:1px;"/>
            </g>
            <g transform="matrix(-1,0,0,1,2254.5,-0.025)">
                <path d="M388.45,616.95L365.6,639.8L365.6,1348.15L411.3,1393.85L502.7,1462.4L571.25,1462.4L639.8,1439.55L685.5,1393.85L685.5,1348.15L639.8,1096.8L639.8,1028.25L685.5,891.15L685.5,685.5L662.65,662.65L639.8,662.65L594.1,708.35L548.4,708.35L525.55,754.05L502.7,754.05L479.85,708.35L457,616.95L388.45,616.95Z" style="fill:rgb(208,160,79);stroke:rgb(208,160,79);stroke-width:1px;"/>
            </g>
            <g transform="matrix(1,0,0,1,-30.5,-0.025)">
                <path d="M1782.3,571.25L1828,525.55L1828,274.2L1805.15,251.35L1736.6,251.35L1645.2,297.05L1599.5,342.75L1599.5,525.55L1645.2,571.25L1782.3,571.25Z" style="fill:rgb(208,160,79);stroke:rgb(208,160,79);stroke-width:1px;"/>
            </g>
            <g transform="matrix(1,0,0,1,-53.35,-0.025)">
                <path d="M1690.9,205.65L1690.9,137.1L1668.05,114.25L1462.4,114.25L1462.4,274.2L1622.35,274.2L1690.9,205.65Z" style="fill:rgb(208,160,79);stroke:rgb(208,160,79);stroke-width:1px;"/>
            </g>
            <g transform="matrix(1,0,0,1,-30.5,-0.025)">
                <path d="M1348.15,91.4L1188.2,91.4L1188.2,205.65L1233.9,251.35L1371,251.35L1371,114.25L1348.15,91.4Z" style="fill:rgb(208,160,79);stroke:rgb(208,160,79);stroke-width:1px;"/>
            </g>
            <g transform="matrix(1,0,0,1,-30.5,-0.025)">
                <path d="M1142.5,205.65L1142.5,91.4L1119.65,68.55L1005.4,68.55L1005.4,159.95L1051.1,205.65L1142.5,205.65Z" style="fill:rgb(208,160,79);stroke:rgb(208,160,79);stroke-width:1px;"/>
            </g>
            <g transform="matrix(1,0,0,1,-30.5,-0.025)">
                <path d="M936.85,68.55L959.7,91.4L959.7,159.95L822.6,159.95L822.6,68.55L936.85,68.55Z" style="fill:rgb(208,160,79);stroke:rgb(208,160,79);stroke-width:1px;"/>
            </g>
            <g transform="matrix(1,0,0,1,-30.5,-0.025)">
                <path d="M776.9,91.4L754.05,68.55L594.1,68.55L525.55,91.4L411.3,159.95L411.3,205.65L525.55,205.65L594.1,182.8L772.193,159.95L776.9,137.1L776.9,91.4Z" style="fill:rgb(208,160,79);stroke:rgb(208,160,79);stroke-width:1px;"/>
            </g>
            <g transform="matrix(1,0,0,1,-30.5,-0.025)">
                <path d="M891.15,205.65L731.2,205.65L685.5,251.35L616.95,297.05L365.6,297.05L365.6,342.75L434.15,388.45L502.7,411.3L594.1,434.15L822.6,434.15L868.3,388.45L914,297.05L914,228.5L891.15,205.65Z" style="fill:rgb(208,160,79);stroke:rgb(208,160,79);stroke-width:1px;"/>
            </g>
        </g>
        <g id="Layer15">
            <g transform="matrix(1,0,0,1,-30.5,-0.025)">
                <path d="M594.1,708.35L594.1,891.15L548.4,1028.25L479.85,1256.75L457,1256.75L411.3,1119.65L411.3,616.95L457,616.95L479.85,708.35L502.7,754.05L525.55,754.05L548.4,708.35L594.1,708.35Z" style="fill:rgb(126,110,95);stroke:rgb(126,110,95);stroke-width:1px;"/>
            </g>
            <g transform="matrix(-1,0,0,1,2254.5,-0.025)">
                <path d="M594.1,708.35L594.1,891.15L548.4,1028.25L479.85,1256.75L457,1256.75L411.3,1119.65L411.3,616.95L457,616.95L479.85,708.35L502.7,754.05L525.55,754.05L548.4,708.35L594.1,708.35Z" style="fill:rgb(126,110,95);stroke:rgb(126,110,95);stroke-width:1px;"/>
            </g>
            <g transform="matrix(1,0,0,1,-30.5,-0.025)">
                <path d="M731.2,1485.25L731.2,1439.55L776.9,1393.85L822.6,1393.85L868.3,1439.55L868.3,1485.25L731.2,1485.25Z" style="fill:rgb(126,110,95);stroke:rgb(126,110,95);stroke-width:1px;"/>
            </g>
            <g transform="matrix(1,0,0,1,655,-0.025)">
                <path d="M731.2,1485.25L731.2,1439.55L776.9,1393.85L822.6,1393.85L868.3,1439.55L868.3,1485.25L731.2,1485.25Z" style="fill:rgb(126,110,95);stroke:rgb(126,110,95);stroke-width:1px;"/>
            </g>
        </g>
        <g id="Layer10">
            <g transform="matrix(1,0,0,1,-30.5,-0.025)">
                <path d="M1119.65,479.85L1096.8,502.7L1119.65,525.55L1165.35,525.55L1188.2,502.7L1165.35,479.85L1119.65,479.85Z" style="fill:rgb(103,61,0);stroke:rgb(103,61,0);stroke-width:1px;"/>
            </g>
            <g transform="matrix(1,0,0,1,-30.5,-0.025)">
                <path d="M1028.25,525.55L1051.1,548.4L1005.4,571.25L982.55,616.95L959.7,594.1L959.7,525.55L1028.25,525.55Z" style="fill:rgb(103,61,0);stroke:rgb(103,61,0);stroke-width:1px;"/>
            </g>
            <g transform="matrix(1,0,0,1,-304.7,-319.925)">
                <path d="M1028.25,525.55L1051.1,548.4L1005.4,571.25L982.55,616.95L959.7,594.1L959.7,525.55L1028.25,525.55Z" style="fill:rgb(103,61,0);stroke:rgb(103,61,0);stroke-width:1px;"/>
            </g>
            <g transform="matrix(0.571833,0.297809,-0.297809,0.571833,54.6401,-491.707)">
                <path d="M1028.25,525.55L1051.1,548.4L1005.4,571.25L982.55,616.95L959.7,594.1L959.7,525.55L1028.25,525.55Z" style="fill:rgb(103,61,0);stroke:rgb(103,61,0);stroke-width:1.55px;"/>
            </g>
            <g transform="matrix(-0.571833,-0.297809,0.297809,-0.571833,945.548,805.33)">
                <path d="M1028.25,525.55L1051.1,548.4L1005.4,571.25L982.55,616.95L959.7,594.1L959.7,525.55L1028.25,525.55Z" style="fill:rgb(103,61,0);stroke:rgb(103,61,0);stroke-width:1.55px;"/>
            </g>
            <g transform="matrix(0.571833,-0.297809,-0.297809,-0.571833,305.99,769.109)">
                <path d="M1028.25,525.55L1051.1,548.4L1005.4,571.25L982.55,616.95L959.7,594.1L959.7,525.55L1028.25,525.55Z" style="fill:rgb(103,61,0);stroke:rgb(103,61,0);stroke-width:1.55px;"/>
            </g>
            <g transform="matrix(0.551088,0.334642,-0.334642,0.551088,187.831,-565.105)">
                <path d="M1028.25,525.55L1051.1,548.4L1005.4,571.25L982.55,616.95L959.7,594.1L959.7,525.55L1028.25,525.55Z" style="fill:rgb(103,61,0);stroke:rgb(103,61,0);stroke-width:1.55px;"/>
            </g>
            <g transform="matrix(1,0,0,1,655,502.675)">
                <path d="M1028.25,525.55L1051.1,548.4L1005.4,571.25L982.55,616.95L959.7,594.1L959.7,525.55L1028.25,525.55Z" style="fill:rgb(103,61,0);stroke:rgb(103,61,0);stroke-width:1px;"/>
            </g>
            <g transform="matrix(0.707107,0.707107,-0.707107,0.707107,236.532,-811.142)">
                <path d="M1028.25,525.55L1051.1,548.4L1005.4,571.25L982.55,616.95L959.7,594.1L959.7,525.55L1028.25,525.55Z" style="fill:rgb(103,61,0);stroke:rgb(103,61,0);stroke-width:1px;"/>
            </g>
            <g transform="matrix(1,0,0,1,700.7,639.775)">
                <path d="M1028.25,525.55L1051.1,548.4L1005.4,571.25L982.55,616.95L959.7,594.1L959.7,525.55L1028.25,525.55Z" style="fill:rgb(103,61,0);stroke:rgb(103,61,0);stroke-width:1px;"/>
            </g>
            <g transform="matrix(1,0,0,1,723.55,776.875)">
                <path d="M1028.25,525.55L1051.1,548.4L1005.4,571.25L982.55,616.95L959.7,594.1L959.7,525.55L1028.25,525.55Z" style="fill:rgb(103,61,0);stroke:rgb(103,61,0);stroke-width:1px;"/>
            </g>
            <g transform="matrix(-1,0,0,1,2254.5,-0.025)">
                <path d="M1028.25,525.55L1051.1,548.4L1005.4,571.25L982.55,616.95L959.7,594.1L959.7,525.55L1028.25,525.55Z" style="fill:rgb(103,61,0);stroke:rgb(103,61,0);stroke-width:1px;"/>
            </g>
            <g transform="matrix(-1,0,0,1,1569,502.675)">
                <path d="M1028.25,525.55L1051.1,548.4L1005.4,571.25L982.55,616.95L959.7,594.1L959.7,525.55L1028.25,525.55Z" style="fill:rgb(103,61,0);stroke:rgb(103,61,0);stroke-width:1px;"/>
            </g>
            <g transform="matrix(-1,0,0,1,1523.3,639.775)">
                <path d="M1028.25,525.55L1051.1,548.4L1005.4,571.25L982.55,616.95L959.7,594.1L959.7,525.55L1028.25,525.55Z" style="fill:rgb(103,61,0);stroke:rgb(103,61,0);stroke-width:1px;"/>
            </g>
            <g transform="matrix(-1,0,0,1,1500.45,776.875)">
                <path d="M1028.25,525.55L1051.1,548.4L1005.4,571.25L982.55,616.95L959.7,594.1L959.7,525.55L1028.25,525.55Z" style="fill:rgb(103,61,0);stroke:rgb(103,61,0);stroke-width:1px;"/>
            </g>
            <g transform="matrix(-1,0,0,1,2391.6,91.375)">
                <path d="M1028.25,525.55L1051.1,548.4L1005.4,571.25L982.55,616.95L959.7,594.1L959.7,525.55L1028.25,525.55Z" style="fill:rgb(103,61,0);stroke:rgb(103,61,0);stroke-width:1px;"/>
            </g>
            <g transform="matrix(1,0,0,1,-167.6,91.375)">
                <path d="M1028.25,525.55L1051.1,548.4L1005.4,571.25L982.55,616.95L959.7,594.1L959.7,525.55L1028.25,525.55Z" style="fill:rgb(103,61,0);stroke:rgb(103,61,0);stroke-width:1px;"/>
            </g>
            <g transform="matrix(-1,0,0,-1,1728.95,982.525)">
                <path d="M1028.25,525.55L1051.1,548.4L1005.4,571.25L982.55,616.95L959.7,594.1L959.7,525.55L1028.25,525.55Z" style="fill:rgb(103,61,0);stroke:rgb(103,61,0);stroke-width:1px;"/>
            </g>
            <g transform="matrix(-0.707164,-0.707049,0.707049,-0.707164,827.755,1507.18)">
                <path d="M1028.25,525.55L1051.1,548.4L1005.4,571.25L982.55,616.95L959.7,594.1L959.7,525.55L1028.25,525.55Z" style="fill:rgb(103,61,0);stroke:rgb(103,61,0);stroke-width:1px;"/>
            </g>
            <g transform="matrix(1,0,0,-1,-30.5,2879.08)">
                <path d="M1051.1,1439.55L1073.95,1462.4L1096.8,1439.55L1119.65,1462.4L1142.5,1439.55L1165.35,1462.4L1188.2,1439.55L1211.05,1462.4L1233.9,1439.55L1211.05,1416.7L1142.5,1406.08L1073.95,1416.7L1051.1,1439.55Z" style="fill:rgb(103,61,0);stroke:rgb(103,61,0);stroke-width:1px;"/>
            </g>
        </g>
        <g id="Layer11">
            <g transform="matrix(1,0,0,1,-30.5,-0.025)">
                <path d="M822.6,845.45L776.9,799.75L776.9,754.05L822.6,754.05L868.3,799.75L868.3,845.45L822.6,845.45Z" style="fill:rgb(161,111,28);stroke:rgb(161,111,28);stroke-width:1px;"/>
            </g>
            <g transform="matrix(1,0,0,1,106.6,-45.725)">
                <path d="M822.6,845.45L776.9,799.75L776.9,754.05L822.6,754.05L868.3,799.75L868.3,845.45L822.6,845.45Z" style="fill:rgb(161,111,28);stroke:rgb(161,111,28);stroke-width:1px;"/>
            </g>
            <g transform="matrix(-1,0,0,1,2117.4,-45.725)">
                <path d="M822.6,845.45L776.9,799.75L776.9,754.05L822.6,754.05L868.3,799.75L868.3,845.45L822.6,845.45Z" style="fill:rgb(161,111,28);stroke:rgb(161,111,28);stroke-width:1px;"/>
            </g>
            <g transform="matrix(-1,0,0,1,2254.5,-0.025)">
                <path d="M822.6,845.45L776.9,799.75L776.9,754.05L822.6,754.05L868.3,799.75L868.3,845.45L822.6,845.45Z" style="fill:rgb(161,111,28);stroke:rgb(161,111,28);stroke-width:1px;"/>
            </g>
            <g transform="matrix(1,0,0,1,-30.5,-0.025)">
                <path d="M1096.8,616.95L1096.8,731.2L1073.95,754.05L1051.1,708.35L1005.4,685.5L1005.4,639.8L1028.25,616.95L1096.8,616.95Z" style="fill:rgb(161,111,28);stroke:rgb(161,111,28);stroke-width:1px;"/>
            </g>
            <g transform="matrix(-1,0,0,1,2254.5,-0.025)">
                <path d="M1096.8,616.95L1096.8,731.2L1073.95,754.05L1051.1,708.35L1005.4,685.5L1005.4,639.8L1028.25,616.95L1096.8,616.95Z" style="fill:rgb(161,111,28);stroke:rgb(161,111,28);stroke-width:1px;"/>
            </g>
        </g>
        <g id="Layer8">
            <g transform="matrix(1,0,0,1,-30.5,-0.025)">
                <path d="M1051.1,845.45L936.85,822.6L776.9,845.45L685.5,936.85L662.65,1096.8L685.5,1256.75L731.2,1348.15L822.6,1439.55L914,1508.1L959.7,1576.65L982.55,1622.35L1005.4,1530.95L1005.4,1485.25L959.7,1393.85L914,1348.15L868.3,1256.75L845.45,1188.2L868.3,1119.65L914,1051.1L1051.1,1028.25L1096.8,982.55L1096.8,891.15L1051.1,845.45Z" style="fill:rgb(223,224,192);stroke:rgb(223,224,192);stroke-width:1px;"/>
            </g>
            <g transform="matrix(-1,0,0,1,2254.5,-0.025)">
                <path d="M1051.1,845.45L936.85,822.6L776.9,845.45L685.5,936.85L662.65,1096.8L685.5,1256.75L731.2,1348.15L822.6,1439.55L914,1508.1L959.7,1576.65L982.55,1622.35L1005.4,1530.95L1005.4,1485.25L959.7,1393.85L914,1348.15L868.3,1256.75L845.45,1188.2L868.3,1119.65L914,1051.1L1051.1,1028.25L1096.8,982.55L1096.8,891.15L1051.1,845.45Z" style="fill:rgb(223,224,192);stroke:rgb(223,224,192);stroke-width:1px;"/>
            </g>
            <g transform="matrix(1,0,0,1,-30.5,-0.025)">
                <path d="M1005.4,1348.15L1005.4,1439.55L1028.25,1508.1L1073.95,1530.95L1096.8,1530.95L1073.95,1508.1L1051.1,1462.4L1051.1,1371L1028.25,1348.15L1005.4,1348.15Z" style="fill:rgb(223,224,192);stroke:rgb(223,224,192);stroke-width:1px;"/>
            </g>
            <g transform="matrix(-1,0,0,1,2254.5,-0.025)">
                <path d="M1005.4,1348.15L1005.4,1439.55L1028.25,1508.1L1073.95,1530.95L1096.8,1530.95L1073.95,1508.1L1051.1,1462.4L1051.1,1371L1028.25,1348.15L1005.4,1348.15Z" style="fill:rgb(223,224,192);stroke:rgb(223,224,192);stroke-width:1px;"/>
            </g>
        </g>
        <g id="Layer13">
            <g transform="matrix(1,0,0,1,-30.5,-0.025)">
                <path d="M1096.8,1165.35L1096.8,1119.65L1051.1,1073.95L914,1073.95L914,1119.65L959.7,1165.35L1096.8,1165.35Z" style="fill:rgb(31,32,11);stroke:rgb(31,32,11);stroke-width:1px;"/>
            </g>
            <g transform="matrix(-1,0,0,1,2254.5,-0.025)">
                <path d="M1096.8,1165.35L1096.8,1119.65L1051.1,1073.95L914,1073.95L914,1119.65L959.7,1165.35L1096.8,1165.35Z" style="fill:rgb(31,32,11);stroke:rgb(31,32,11);stroke-width:1px;"/>
            </g>
            <g transform="matrix(1,0,0,1,-30.5,-0.025)">
                <path d="M639.8,1439.55L639.8,1530.95L594.1,1576.65L594.1,1530.95L571.25,1485.25L548.4,1462.4L548.4,1439.55L639.8,1439.55Z" style="fill:rgb(31,32,11);stroke:rgb(31,32,11);stroke-width:1px;"/>
            </g>
            <g transform="matrix(-1,0,0,1,2254.5,-0.025)">
                <path d="M639.8,1439.55L639.8,1530.95L594.1,1576.65L594.1,1530.95L571.25,1485.25L548.4,1462.4L548.4,1439.55L639.8,1439.55Z" style="fill:rgb(31,32,11);stroke:rgb(31,32,11);stroke-width:1px;"/>
            </g>
            <g transform="matrix(1,0,0,1,-167.6,-45.725)">
                <path d="M639.8,1439.55L639.8,1530.95L594.1,1576.65L594.1,1530.95L571.25,1485.25L548.4,1462.4L548.4,1439.55L639.8,1439.55Z" style="fill:rgb(31,32,11);stroke:rgb(31,32,11);stroke-width:1px;"/>
            </g>
            <g transform="matrix(-1,0,0,1,2391.6,-45.725)">
                <path d="M639.8,1439.55L639.8,1530.95L594.1,1576.65L594.1,1530.95L571.25,1485.25L548.4,1462.4L548.4,1439.55L639.8,1439.55Z" style="fill:rgb(31,32,11);stroke:rgb(31,32,11);stroke-width:1px;"/>
            </g>
            <g transform="matrix(1,0,0,1,-30.5,-0.025)">
                <path d="M731.2,1485.25L708.35,1530.95L725.488,1599.5L742.625,1599.5L765.475,1553.8L799.75,1530.95L834.025,1553.8L856.875,1599.5L874.013,1599.5L891.15,1530.95L868.3,1485.25L822.6,1462.4L776.9,1462.4L731.2,1485.25Z" style="fill:rgb(31,32,11);stroke:rgb(31,32,11);stroke-width:1px;"/>
            </g>
            <g transform="matrix(1,0,0,1,655,-0.025)">
                <path d="M731.2,1485.25L708.35,1530.95L725.488,1599.5L742.625,1599.5L765.475,1553.8L799.75,1530.95L834.025,1553.8L856.875,1599.5L874.013,1599.5L891.15,1530.95L868.3,1485.25L822.6,1462.4L776.9,1462.4L731.2,1485.25Z" style="fill:rgb(31,32,11);stroke:rgb(31,32,11);stroke-width:1px;"/>
            </g>
        </g>
        <g id="Layer12">
            <g transform="matrix(1,0,0,1,-30.5,-0.025)">
                <path d="M1005.4,1165.35L1005.4,1119.65L1051.1,1142.5L1051.1,1165.35L1005.4,1165.35Z" style="fill:rgb(189,112,193);stroke:rgb(189,112,193);stroke-width:1px;"/>
            </g>
            <g transform="matrix(-1,0,0,1,2254.5,-0.025)">
                <path d="M1005.4,1165.35L1005.4,1119.65L1051.1,1142.5L1051.1,1165.35L1005.4,1165.35Z" style="fill:rgb(189,112,193);stroke:rgb(189,112,193);stroke-width:1px;"/>
            </g>
        </g>
    </g>
</svg>
