<?xml version="1.0" encoding="UTF-8" standalone="no"?>
<!DOCTYPE svg PUBLIC "-//W3C//DTD SVG 1.1//EN" "http://www.w3.org/Graphics/SVG/1.1/DTD/svg11.dtd">
<svg width="100%" height="100%" viewBox="0 0 4634 3475" version="1.1" xmlns="http://www.w3.org/2000/svg" xmlns:xlink="http://www.w3.org/1999/xlink" xml:space="preserve" xmlns:serif="http://www.serif.com/" style="fill-rule:evenodd;clip-rule:evenodd;stroke-linecap:round;stroke-linejoin:round;stroke-miterlimit:1.5;">
    <g transform="matrix(2.08333,0,0,2.08333,0,0)">
        <g id="Layer1">
            <g transform="matrix(1,0,0,1,-24.8,1)">
                <path d="M1920.8,627.2L1920.8,725.2L1568,1078L1568,1097.6L1391.6,1078L1254.4,1078L1254.4,725.2L1136.8,627.2L1136.8,470.4L1176,450.8L1176,411.6L1176,372.4L1332.8,372.4L1450.4,490L1450.4,470.4L1117.2,137.2L1156.4,98L1215.2,98L1372,254.8L1920.8,627.2Z" style="fill:rgb(195,126,27);stroke:rgb(195,126,27);stroke-width:1px;"/>
            </g>
            <g transform="matrix(1,0,0,1,-24.8,1)">
                <path d="M666.4,1391.6L940.8,1117.2L980,1097.6L980,1019.2L960.4,999.6L862.4,803.6C862.4,803.6 822.454,766.157 823.2,764.4C823.946,762.643 823.2,686 823.2,686L980,686L1058.4,764.4L1112,764.4L1136.8,784L1215.2,882L1215.2,999.6L1293.6,1117.2L1293.6,1430.8L1176,1430.8L1176,1332.8L1097.6,1332.8L1097.6,1509.2L1058.4,1509.2L1019.2,1470L999.6,1391.6L960.4,1352.4L940.8,1352.4L784,1509.2L744.8,1509.2L666.4,1450.4L666.4,1391.6Z" style="fill:rgb(195,126,27);"/>
            </g>
            <g transform="matrix(1,0,0,1,-24.8,1)">
                <rect x="1176" y="1509.2" width="215.6" height="117.6" style="fill:rgb(195,126,27);"/>
            </g>
            <g transform="matrix(1,0,0,1,-24.8,1)">
                <path d="M1685.6,1117.2L1744.4,1117.2L1764,1136.8L1764,1195.6L1724.8,1195.6L1685.6,1156.4L1685.6,1117.2Z" style="fill:rgb(195,126,27);"/>
            </g>
            <g transform="matrix(1,0,0,1,53.6,-77.4)">
                <path d="M1685.6,1117.2L1744.4,1117.2L1764,1136.8L1764,1195.6L1724.8,1195.6L1685.6,1156.4L1685.6,1117.2Z" style="fill:rgb(195,126,27);"/>
            </g>
            <g transform="matrix(1,0,0,1,132,-155.8)">
                <path d="M1685.6,1117.2L1744.4,1117.2L1764,1136.8L1764,1195.6L1724.8,1195.6L1685.6,1156.4L1685.6,1117.2Z" style="fill:rgb(195,126,27);"/>
            </g>
        </g>
        <g id="Layer4">
            <g transform="matrix(1,0,0,1,-24.8,1)">
                <rect x="1019.2" y="254.8" width="156.8" height="156.8" style="fill:rgb(138,93,23);stroke:rgb(138,93,23);stroke-width:1px;"/>
            </g>
            <g transform="matrix(1,0,0,1,-24.8,1)">
                <path d="M1136.8,450.8L1195.6,450.8L1293.6,548.8L1293.6,568.4L1136.8,568.4L1136.8,450.8Z" style="fill:rgb(138,93,23);stroke:rgb(138,93,23);stroke-width:1px;"/>
            </g>
            <g transform="matrix(1,0,0,1,-24.8,1)">
                <path d="M1136.8,607.6L1156.4,607.6L1293.6,744.8L1293.6,764.4L1156.4,764.4L1136.8,744.8L1136.8,607.6Z" style="fill:rgb(138,93,23);stroke:rgb(138,93,23);stroke-width:1px;"/>
            </g>
            <g transform="matrix(1,0,0,1,-24.8,1)">
                <path d="M1509.2,176.4L1685.6,176.4L1783.6,274.4L1842.4,215.6L1901.2,274.4L1920.8,274.4L1920.8,627.2L1548.4,999.6L1528.8,999.6L1528.8,450.8L1411.2,333.2L1313.2,333.2L1274,294L1332.8,294L1372,254.8L1430.8,254.8L1509.2,176.4ZM1450.4,666.4L1528.8,744.8L1528.8,803.6L1450.4,725.2L1450.4,823.2L1528.8,901.6L1528.8,960.4L1450.4,882L1450.4,1078L1509.2,1078L1568,1136.8L1568,1411.2L1372,1411.2L1372,901.6L1293.6,823.2L1293.6,803.6L1372,803.6L1372,705.6L1293.6,627.2L1293.6,607.6L1372,607.6L1372,411.6L1450.4,490L1450.4,509.6L1528.8,588L1528.8,646.8L1450.4,568.4L1450.4,666.4ZM1489.6,411.6L1528.8,450.8L1430.8,450.8L1391.6,411.6L1489.6,411.6Z" style="fill:rgb(138,93,23);stroke:rgb(138,93,23);stroke-width:1px;"/>
            </g>
            <g transform="matrix(1,0,0,1,-24.8,1)">
                <path d="M1195.6,215.6L1156.4,176.4L1293.6,176.4L1332.8,215.6L1195.6,215.6Z" style="fill:rgb(138,93,23);stroke:rgb(138,93,23);stroke-width:1px;"/>
            </g>
            <g transform="matrix(1,0,0,1,-24.8,1)">
                <path d="M1920.8,1038.8L1920.8,1195.6L1803.2,1313.2L1724.8,1352.4L1724.8,1274L1626.8,1176L1607.2,1176L1607.2,1058.4L1822.8,842.8L1881.6,842.8L1920.8,882L1920.8,980L1901.2,960.4L1842.4,960.4L1842.4,999.6L1881.6,1038.8L1920.8,1038.8ZM1685.6,1117.2L1744.4,1117.2L1764,1136.8L1764,1195.6L1724.8,1195.6L1685.6,1156.4L1685.6,1117.2ZM1764,1038.8L1822.8,1038.8L1842.4,1058.4L1842.4,1117.2L1803.2,1117.2L1764,1078L1764,1038.8Z" style="fill:rgb(138,93,23);"/>
            </g>
            <g transform="matrix(1,0,0,1,-24.8,1)">
                <rect x="823.2" y="294" width="39.2" height="78.4" style="fill:rgb(138,93,23);"/>
            </g>
        </g>
        <g id="Layer3">
            <g transform="matrix(1,0,0,1,-24.8,1)">
                <path d="M1372,1313.2L1450.4,1234.8L1489.6,1234.8L1568,1313.2L1568,1254.4L1489.6,1176L1450.4,1176L1372,1254.4L1372,1313.2Z" style="fill:rgb(76,60,15);"/>
            </g>
            <g transform="matrix(1,0,0,1,-24.8,-155.8)">
                <path d="M1372,1313.2L1450.4,1234.8L1489.6,1234.8L1568,1313.2L1568,1254.4L1489.6,1176L1450.4,1176L1372,1254.4L1372,1313.2Z" style="fill:rgb(76,60,15);"/>
            </g>
            <g transform="matrix(1,0,0,1,-24.8,1)">
                <path d="M1568,1411.2L1489.6,1332.8L1450.4,1332.8L1274,1509.2L1352.4,1509.2L1372,1548.4L1411.2,1568L1430.8,1587.6L1450.4,1587.6L1568,1470L1568,1411.2Z" style="fill:rgb(76,60,15);"/>
            </g>
            <g transform="matrix(1,0,0,1,-24.8,1)">
                <path d="M980,1293.6L960.4,1313.2L921.2,1332.8L862.4,1352.4L764.4,1352.4L764.4,1332.8L901.6,1195.6L921.2,1156.4L940.8,1117.2L980,1097.6L980,1293.6Z" style="fill:rgb(76,60,15);"/>
            </g>
            <g transform="matrix(1,0,0,1,-24.8,1)">
                <path d="M1097.6,1136.8L1097.6,1097.6L1117.2,1078L1156.4,1078L1176,1097.6L1176,1136.8L1156.4,1156.4L1117.2,1156.4L1097.6,1136.8Z" style="fill:rgb(76,60,15);"/>
            </g>
            <g transform="matrix(1,0,0,1,-24.8,-155.8)">
                <path d="M1097.6,1136.8L1097.6,1097.6L1117.2,1078L1156.4,1078L1176,1097.6L1176,1136.8L1156.4,1156.4L1117.2,1156.4L1097.6,1136.8Z" style="fill:rgb(76,60,15);"/>
            </g>
            <g transform="matrix(1,0,0,1,-103.2,-273.4)">
                <path d="M1097.6,1136.8L1097.6,1097.6L1117.2,1078L1156.4,1078L1176,1097.6L1176,1136.8L1156.4,1156.4L1117.2,1156.4L1097.6,1136.8Z" style="fill:rgb(76,60,15);"/>
            </g>
            <g transform="matrix(1,0,0,1,-260,-351.8)">
                <path d="M1097.6,1136.8L1097.6,1097.6L1117.2,1078L1156.4,1078L1176,1097.6L1176,1136.8L1156.4,1156.4L1117.2,1156.4L1097.6,1136.8Z" style="fill:rgb(76,60,15);"/>
            </g>
            <g transform="matrix(1,0,0,1,-24.8,1)">
                <path d="M1136.8,568.4L960.4,568.4L960.4,548.8L1058.4,450.8L1136.8,450.8L1136.8,568.4Z" style="fill:rgb(76,60,15);"/>
            </g>
            <g transform="matrix(1,0,0,1,-24.8,1)">
                <path d="M1607.2,1176L1626.8,1176L1724.8,1274L1724.8,1391.6L1842.4,1509.2L1842.4,1587.6L1822.8,1587.6L1803.2,1548.4L1724.8,1548.4L1705.2,1568L1705.2,1626.8L1646.4,1626.8L1607.2,1587.6L1607.2,1176Z" style="fill:rgb(76,60,15);"/>
            </g>
            <g transform="matrix(1,0,0,1,-24.8,1)">
                <rect x="1058.4" y="254.8" width="78.4" height="156.8" style="fill:rgb(76,60,15);"/>
            </g>
            <g transform="matrix(1,0,0,1,-24.8,1)">
                <path d="M1176,254.8L1215.2,254.8L1293.6,333.2L1293.6,372.4L1215.2,411.6L1176,411.6L1176,254.8Z" style="fill:rgb(76,60,15);"/>
            </g>
            <g transform="matrix(1,0,0,1,-24.8,1)">
                <path d="M1019.2,450.8L940.8,529.2L548.8,529.2L509.6,490L509.6,372.4L862.4,372.4L862.4,294L509.6,294L509.6,176.4L548.8,137.2L940.8,137.2L1019.2,215.6L1019.2,450.8Z" style="fill:rgb(76,60,15);"/>
            </g>
            <g transform="matrix(1,0,0,1,-24.8,1)">
                <path d="M1783.6,529.2L1666,646.8L1646.4,646.8L1646.4,294L1666,294L1881.6,509.6L1881.6,568.4L1587.6,862.4L1568,862.4L1568,411.6L1430.8,274.4L1430.8,254.8L1450.4,235.2L1607.2,392L1607.2,784L1842.4,548.8L1842.4,529.2L1705.2,392L1685.6,392L1685.6,588L1705.2,568.4L1744.4,529.2L1744.4,490L1764,490L1783.6,529.2Z" style="fill:rgb(76,60,15);"/>
            </g>
        </g>
        <g id="Layer6">
            <g transform="matrix(1,0,0,1,-24.8,1)">
                <path d="M862.4,176.4L901.6,137.2L901.6,98L862.4,58.8L823.2,58.8L784,98L784,137.2L823.2,176.4L862.4,176.4Z" style="fill:rgb(210,110,85);"/>
            </g>
            <g transform="matrix(1,0,0,1,-181.6,432.2)">
                <path d="M862.4,176.4L901.6,137.2L901.6,98L862.4,58.8L823.2,58.8L784,98L784,137.2L823.2,176.4L862.4,176.4Z" style="fill:rgb(210,110,85);"/>
            </g>
            <g transform="matrix(1,0,0,1,-24.8,1)">
                <path d="M980,294L862.4,294L862.4,254.8L901.6,215.6L940.8,215.6L980,254.8L980,294Z" style="fill:rgb(210,110,85);"/>
            </g>
            <g transform="matrix(1,0,0,-1,-24.8,667.4)">
                <path d="M980,294L862.4,294L862.4,254.8L901.6,215.6L940.8,215.6L980,254.8L980,294Z" style="fill:rgb(210,110,85);"/>
            </g>
            <g transform="matrix(1,0,0,1,-24.8,1)">
                <path d="M823.2,294L705.6,294L705.6,254.8L744.8,215.6L784,215.6L823.2,254.8L823.2,294Z" style="fill:rgb(210,110,85);"/>
            </g>
            <g transform="matrix(1,0,0,-1,-24.8,667.4)">
                <path d="M823.2,294L705.6,294L705.6,254.8L744.8,215.6L784,215.6L823.2,254.8L823.2,294Z" style="fill:rgb(210,110,85);"/>
            </g>
            <g transform="matrix(1,0,0,1,-181.6,1)">
                <path d="M823.2,294L705.6,294L705.6,254.8L744.8,215.6L784,215.6L823.2,254.8L823.2,294Z" style="fill:rgb(210,110,85);"/>
            </g>
            <g transform="matrix(1,0,0,-1,-181.6,667.4)">
                <path d="M823.2,294L705.6,294L705.6,254.8L744.8,215.6L784,215.6L823.2,254.8L823.2,294Z" style="fill:rgb(210,110,85);"/>
            </g>
            <g transform="matrix(1,0,0,1,-24.8,1)">
                <path d="M784,568.4L784,529.2L823.2,490L862.4,490L901.6,529.2L901.6,568.4L882,588L862.4,568.4L823.2,568.4L823.2,607.6L784,568.4Z" style="fill:rgb(210,110,85);"/>
            </g>
            <g transform="matrix(1,0,0,1,-24.8,1)">
                <path d="M509.6,372.4L509.6,490L431.2,490L333.2,392L333.2,372.4L509.6,372.4Z" style="fill:rgb(210,110,85);"/>
            </g>
            <g transform="matrix(1,0,0,-1,-24.8,667.4)">
                <path d="M509.6,372.4L509.6,490L431.2,490L333.2,392L333.2,372.4L509.6,372.4Z" style="fill:rgb(210,110,85);"/>
            </g>
            <g transform="matrix(1,0,0,1,-181.6,1)">
                <path d="M862.4,176.4L901.6,137.2L901.6,98L862.4,58.8L823.2,58.8L784,98L784,137.2L823.2,176.4L862.4,176.4Z" style="fill:rgb(210,110,85);"/>
            </g>
        </g>
        <g id="Layer5">
            <g transform="matrix(1,0,0,1,-24.8,1)">
                <path d="M1176,1509.2L1136.8,1509.2L1038.8,1607.2L1038.8,1626.8L1176,1626.8L1176,1509.2Z" style="fill:rgb(165,146,92);"/>
            </g>
            <g transform="matrix(1,0,0,1,-24.8,1)">
                <path d="M1195.6,1626.8L1195.6,1568L1215.2,1548.4L1293.6,1548.4L1313.2,1568L1332.8,1548.4L1372,1548.4L1411.2,1568L1430.8,1587.6L1430.8,1626.8L1195.6,1626.8Z" style="fill:rgb(165,146,92);"/>
            </g>
            <g transform="matrix(1,0,0,1,-24.8,1)">
                <path d="M1705.2,1626.8L1705.2,1568L1724.8,1548.4L1803.2,1548.4L1822.8,1587.6L1822.8,1626.8L1705.2,1626.8Z" style="fill:rgb(165,146,92);"/>
            </g>
            <g transform="matrix(1,0,0,1,-24.8,1)">
                <path d="M1842.4,1509.2L1881.6,1509.2L1920.8,1548.4L1940.4,1587.6L1940.4,1626.8L1881.6,1626.8L1842.4,1587.6L1842.4,1509.2Z" style="fill:rgb(165,146,92);"/>
            </g>
            <g transform="matrix(1,0,0,1,-24.8,1)">
                <path d="M1058.4,1195.6L1019.2,1234.8L1019.2,1313.2L1058.4,1391.6L1097.6,1430.8L1136.8,1430.8L1176,1352.4L1176,1234.8L1136.8,1195.6L1058.4,1195.6Z" style="fill:rgb(165,146,92);"/>
            </g>
            <g transform="matrix(1,0,0,1,-24.8,1)">
                <path d="M1009.4,1430.8L842.8,1607.2L764.4,1626.8L744.8,1626.8L764.4,1568L823.2,1509.2L901.6,1411.2L940.8,1352.4L960.4,1352.4L999.6,1391.6L1009.4,1430.8Z" style="fill:rgb(165,146,92);"/>
            </g>
        </g>
        <g id="Layer2">
            <g transform="matrix(1,0,0,1,-24.8,1)">
                <path d="M921.2,960.4L940.8,980L940.8,1097.6L882,1156.4L705.6,1156.4L666.4,1195.6L666.4,1313.2L588,1391.6L392,1391.6L352.8,1352.4L352.8,1195.6L392,1156.4L529.2,1156.4L490,1195.6L450.8,1215.2L431.2,1234.8L431.2,1274L470.4,1313.2L509.6,1313.2L548.8,1274L548.8,1038.8L627.2,960.4L921.2,960.4Z" style="fill:rgb(194,165,102);stroke:rgb(194,165,102);stroke-width:1px;"/>
            </g>
            <g transform="matrix(1,0,0,1,-24.8,1)">
                <path d="M803.6,764.4L842.8,803.6L882,882L882,901.6L862.4,921.2L607.6,921.2L568.4,940.8L470.4,1038.8L392,1038.8L352.8,999.6L352.8,842.8L392,803.6L450.8,803.6L431.2,823.2L411.6,862.4L411.6,901.6L431.2,921.2L450.8,921.2L568.4,803.6L607.6,784L666.4,764.4L803.6,764.4Z" style="fill:rgb(194,165,102);stroke:rgb(194,165,102);stroke-width:1px;"/>
            </g>
            <g transform="matrix(1,0,0,1,-24.8,1)">
                <path d="M823.2,686L823.2,568.4L862.4,568.4L901.6,607.6L901.6,686L823.2,686Z" style="fill:rgb(194,165,102);stroke:rgb(194,165,102);stroke-width:1px;"/>
            </g>
            <g transform="matrix(1,0,0,1,-24.8,1)">
                <path d="M980,686L1019.2,646.8L1097.6,646.8L1097.6,725.2L1058.4,764.4L1019.2,764.4L980,725.2L980,686Z" style="fill:rgb(194,165,102);stroke:rgb(194,165,102);stroke-width:1px;"/>
            </g>
            <g transform="matrix(1,0,0,1,-24.8,1)">
                <path d="M1136.8,823.2L1156.4,803.6L1254.4,803.6L1254.4,842.8L1215.2,882L1136.8,882L1136.8,823.2Z" style="fill:rgb(194,165,102);stroke:rgb(194,165,102);stroke-width:1px;"/>
            </g>
            <g transform="matrix(1,0,0,1,-24.8,1)">
                <path d="M1293.6,1215.2L1313.2,1195.6L1372,1195.6L1372,1274L1332.8,1313.2L1293.6,1313.2L1293.6,1215.2Z" style="fill:rgb(194,165,102);stroke:rgb(194,165,102);stroke-width:1px;"/>
            </g>
            <g transform="matrix(1,0,0,1,-24.8,1)">
                <path d="M1176,1430.8L1274,1332.8L1293.6,1332.8L1293.6,1430.8L1215.2,1509.2L1176,1509.2L1176,1430.8Z" style="fill:rgb(194,165,102);stroke:rgb(194,165,102);stroke-width:1px;"/>
            </g>
            <g transform="matrix(1,0,0,1,-24.8,1)">
                <path d="M744.8,1509.2L744.8,1450.4L725.2,1430.8L686,1430.8L666.4,1411.2L666.4,1391.6L490,1568L431.2,1587.6L372.4,1607.2L333.2,1607.2L352.8,1626.8L548.8,1626.8L705.6,1548.4L744.8,1509.2Z" style="fill:rgb(194,165,102);stroke:rgb(194,165,102);stroke-width:1px;"/>
            </g>
            <g transform="matrix(1,0,0,1,-24.8,1)">
                <path d="M1215.2,1097.6L1215.2,1058.4L1234.8,1038.8L1332.8,1038.8L1332.8,1078L1293.6,1117.2L1215.2,1117.2L1215.2,1097.6Z" style="fill:rgb(194,165,102);stroke:rgb(194,165,102);stroke-width:1px;"/>
            </g>
            <g transform="matrix(1,0,0,1,-24.8,1)">
                <path d="M1117.2,137.2L1136.8,137.2L1156.4,98L1215.2,98L1195.6,78.4L1176,58.8L1038.8,58.8L1038.8,78.4L1097.6,137.2L1117.2,137.2Z" style="fill:rgb(194,165,102);stroke:rgb(194,165,102);stroke-width:1px;"/>
            </g>
            <g transform="matrix(1,0,0,1,-24.8,1)">
                <path d="M1509.2,176.4L1509.2,39.2L1548.4,39.2L1685.6,176.4L1509.2,176.4Z" style="fill:rgb(194,165,102);stroke:rgb(194,165,102);stroke-width:1px;"/>
            </g>
            <g transform="matrix(1,0,0,1,-24.8,1)">
                <path d="M1842.4,215.6L1842.4,78.4L1862,78.4L1920.8,137.2L1920.8,274.4L1901.2,274.4L1842.4,215.6Z" style="fill:rgb(194,165,102);stroke:rgb(194,165,102);stroke-width:1px;"/>
            </g>
            <g transform="matrix(1,0,0,1,-24.8,1)">
                <rect x="901.6" y="1234.8" width="39.2" height="39.2" style="fill:rgb(194,165,102);"/>
            </g>
        </g>
    </g>
</svg>
