<?xml version="1.0" encoding="UTF-8" standalone="no"?>
<!DOCTYPE svg PUBLIC "-//W3C//DTD SVG 1.1//EN" "http://www.w3.org/Graphics/SVG/1.1/DTD/svg11.dtd">
<svg width="100%" height="100%" viewBox="0 0 4634 3475" version="1.1" xmlns="http://www.w3.org/2000/svg" xmlns:xlink="http://www.w3.org/1999/xlink" xml:space="preserve" xmlns:serif="http://www.serif.com/" style="fill-rule:evenodd;clip-rule:evenodd;stroke-linecap:round;stroke-linejoin:round;stroke-miterlimit:1.5;">
    <g transform="matrix(2.08333,0,0,2.08333,0,0)">
        <g id="Layer13">
            <g transform="matrix(1,0,0,1,-30.5,-12.4526)">
                <path d="M365.6,936.85L388.45,891.15L411.3,868.3L457,845.45L525.55,845.45L548.4,868.3L548.4,1279.6L571.25,1371L365.6,1371L365.6,936.85Z" style="fill:rgb(95,29,29);stroke:rgb(95,29,29);stroke-width:1px;"/>
            </g>
            <g transform="matrix(-1,0,0,1,2254.5,-12.4526)">
                <path d="M365.6,936.85L388.45,891.15L411.3,868.3L457,845.45L525.55,845.45L548.4,868.3L548.4,1279.6L571.25,1371L365.6,1371L365.6,936.85Z" style="fill:rgb(95,29,29);stroke:rgb(95,29,29);stroke-width:1px;"/>
            </g>
            <g transform="matrix(1,0,0,1,-30.5,-12.4526)">
                <path d="M1051.1,1028.25L959.7,982.55L914,936.85L868.3,845.45L845.45,822.6L799.75,845.45L776.9,868.3L708.35,776.9L685.5,685.5L685.5,571.25L731.2,434.15L799.75,342.75L868.3,274.2L936.85,251.35L1142.5,228.5L1348.15,251.35L1416.7,274.2L1485.25,342.75L1553.8,434.15L1599.5,571.25L1599.5,685.5L1576.65,776.9L1508.1,868.3L1485.25,845.45L1439.55,822.6L1416.7,845.45L1371,936.85L1325.3,982.55L1233.9,1028.25L1142.5,1051.1L1051.1,1028.25Z" style="fill:rgb(95,29,29);stroke:rgb(95,29,29);stroke-width:1px;"/>
            </g>
        </g>
        <g id="Layer20">
            <g transform="matrix(1,0,0,1,335.1,56.0974)">
                <path d="M1348.15,1302.45L1371,1211.05L1371,959.7L1553.8,1119.65L1553.8,1325.3L1348.15,1302.45Z" style="fill:rgb(47,17,30);stroke:rgb(47,17,30);stroke-width:1px;"/>
            </g>
            <g transform="matrix(-1,0,0,1,1888.9,56.0974)">
                <path d="M1348.15,1302.45L1371,1211.05L1371,959.7L1553.8,1119.65L1553.8,1325.3L1348.15,1302.45Z" style="fill:rgb(47,17,30);stroke:rgb(47,17,30);stroke-width:1px;"/>
            </g>
        </g>
        <g id="Layer15">
            <g transform="matrix(1,0,0,1,-30.5,-12.4526)">
                <path d="M1165.35,845.45L1211.05,868.3L1325.3,868.3L1348.15,845.45L1371,731.2L1348.15,662.65L1302.45,708.35L1233.9,754.05L1165.35,799.75L1119.65,799.75L1051.1,754.05L982.55,708.35L936.85,662.65L914,731.2L936.85,845.45L959.7,868.3L1073.95,868.3L1119.65,845.45L1165.35,845.45Z" style="fill:rgb(15,15,15);stroke:rgb(15,15,15);stroke-width:1px;"/>
            </g>
            <g transform="matrix(1,0,0,1,-30.5,-58.1526)">
                <path d="M731.2,708.35L754.05,776.9L799.75,845.45L822.6,776.9L868.3,708.35L731.2,708.35Z" style="fill:rgb(15,15,15);stroke:rgb(15,15,15);stroke-width:1px;"/>
            </g>
            <g transform="matrix(-1,0,0,1,2254.5,-58.1526)">
                <path d="M731.2,708.35L754.05,776.9L799.75,845.45L822.6,776.9L868.3,708.35L731.2,708.35Z" style="fill:rgb(15,15,15);stroke:rgb(15,15,15);stroke-width:1px;"/>
            </g>
            <g transform="matrix(1,0,0,1,-30.5,-35.3026)">
                <path d="M1096.8,457L1119.65,434.15L1142.5,388.45L1165.35,434.15L1188.2,457L1165.35,479.85L1119.65,479.85L1096.8,457Z" style="fill:rgb(15,15,15);stroke:rgb(15,15,15);stroke-width:1px;"/>
            </g>
            <g transform="matrix(1,0,0,1,-30.5,-12.4526)">
                <path d="M1348.15,525.55L1416.7,594.1L1439.55,594.1L1462.4,525.55L1462.4,479.85L1416.7,479.85L1348.15,502.7L1348.15,525.55Z" style="fill:rgb(15,15,15);stroke:rgb(15,15,15);stroke-width:1px;"/>
            </g>
            <g transform="matrix(-1,0,0,1,2254.5,-12.4526)">
                <path d="M1348.15,525.55L1416.7,594.1L1439.55,594.1L1462.4,525.55L1462.4,479.85L1416.7,479.85L1348.15,502.7L1348.15,525.55Z" style="fill:rgb(15,15,15);stroke:rgb(15,15,15);stroke-width:1px;"/>
            </g>
        </g>
        <g id="Layer16">
            <g transform="matrix(1,0,0,1,-53.35,-12.4526)">
                <path d="M845.45,274.2L776.9,228.5L685.5,159.95L662.65,137.1L685.5,297.05L731.2,342.75L799.75,342.75L822.6,319.9L845.45,274.2Z" style="fill:rgb(46,1,94);stroke:rgb(46,1,94);stroke-width:1px;"/>
            </g>
            <g transform="matrix(-1,0,0,1,2277.35,-12.4526)">
                <path d="M845.45,274.2L776.9,228.5L685.5,159.95L662.65,137.1L685.5,297.05L731.2,342.75L799.75,342.75L822.6,319.9L845.45,274.2Z" style="fill:rgb(46,1,94);stroke:rgb(46,1,94);stroke-width:1px;"/>
            </g>
            <g transform="matrix(1,0,0,1,-30.5,-35.3026)">
                <path d="M1028.25,205.65L1073.95,159.95L1119.65,137.1L1142.5,114.25L1165.35,137.1L1211.05,159.95L1256.75,205.65L1256.75,228.5L1142.5,205.65L1028.25,228.5L1028.25,205.65Z" style="fill:rgb(46,1,94);stroke:rgb(46,1,94);stroke-width:1px;"/>
            </g>
        </g>
        <g id="Layer11">
            <g transform="matrix(-1,0,0,1,2254.5,-12.4526)">
                <path d="M365.6,1109.58L411.3,1096.8L457,1073.95L502.7,1028.25L502.7,982.55L479.85,959.7L434.15,959.7L411.3,982.55L411.3,1005.4L434.15,1005.4L457,982.55L457,1028.25L434.15,1051.1L411.3,1051.1L365.6,1005.4L365.6,959.7L411.3,914L502.7,914L548.4,959.7L548.4,1051.1L479.85,1142.5L411.3,1188.2L365.6,1211.05L365.6,1109.58Z" style="fill:rgb(15,15,15);stroke:rgb(15,15,15);stroke-width:1px;"/>
            </g>
            <g transform="matrix(1,0,0,1,-30.5,-12.4526)">
                <path d="M365.6,1109.58L411.3,1096.8L457,1073.95L502.7,1028.25L502.7,982.55L479.85,959.7L434.15,959.7L411.3,982.55L411.3,1005.4L434.15,1005.4L457,982.55L457,1028.25L434.15,1051.1L411.3,1051.1L365.6,1005.4L365.6,959.7L411.3,914L502.7,914L548.4,959.7L548.4,1051.1L479.85,1142.5L411.3,1188.2L365.6,1211.05L365.6,1109.58Z" style="fill:rgb(15,15,15);stroke:rgb(15,15,15);stroke-width:1px;"/>
            </g>
            <g transform="matrix(1,0,0,1,-30.5,-12.4526)">
                <path d="M365.6,1508.1L365.6,1325.3L434.15,1256.75L479.85,1256.75L548.4,1325.3L616.95,1439.55L639.8,1485.25L639.8,1622.35L365.6,1622.35L365.6,1508.1Z" style="fill:rgb(15,15,15);stroke:rgb(15,15,15);stroke-width:1px;"/>
            </g>
            <g transform="matrix(-1,0,0,1,2254.5,-12.4526)">
                <path d="M365.6,1508.1L365.6,1325.3L434.15,1256.75L479.85,1256.75L548.4,1325.3L616.95,1439.55L639.8,1485.25L639.8,1622.35L365.6,1622.35L365.6,1508.1Z" style="fill:rgb(15,15,15);stroke:rgb(15,15,15);stroke-width:1px;"/>
            </g>
        </g>
        <g id="Layer19">
            <g transform="matrix(1,0,0,1,-30.5,-12.4526)">
                <path d="M1553.8,388.45L1599.5,525.55L1645.2,434.15L1713.75,365.6L1668.05,365.6L1553.8,388.45Z" style="fill:rgb(13,78,13);stroke:rgb(13,78,13);stroke-width:1px;"/>
            </g>
            <g transform="matrix(-1,0,0,1,2254.5,-12.4526)">
                <path d="M1553.8,388.45L1599.5,525.55L1645.2,434.15L1713.75,365.6L1668.05,365.6L1553.8,388.45Z" style="fill:rgb(13,78,13);stroke:rgb(13,78,13);stroke-width:1px;"/>
            </g>
            <g transform="matrix(1,0,0,1,-30.5,-12.4526)">
                <path d="M1302.45,205.65L1371,251.35L1416.7,251.35L1439.55,159.95L1462.4,68.55L1439.55,91.4L1393.85,114.25L1325.3,137.1L1302.45,159.95L1302.45,205.65Z" style="fill:rgb(13,78,13);stroke:rgb(13,78,13);stroke-width:1px;"/>
            </g>
            <g transform="matrix(-1,0,0,1,2254.5,-12.4526)">
                <path d="M1302.45,205.65L1371,251.35L1416.7,251.35L1439.55,159.95L1462.4,68.55L1439.55,91.4L1393.85,114.25L1325.3,137.1L1302.45,159.95L1302.45,205.65Z" style="fill:rgb(13,78,13);stroke:rgb(13,78,13);stroke-width:1px;"/>
            </g>
        </g>
        <g id="Layer12">
            <g transform="matrix(1,0,0,1,-30.5,-12.4526)">
                <path d="M594.1,1622.35L594.1,1508.1L616.95,1485.25L639.8,1485.25L685.5,1530.95L708.35,1622.35L594.1,1622.35Z" style="fill:rgb(31,31,15);stroke:rgb(31,31,15);stroke-width:1px;"/>
            </g>
            <g transform="matrix(-1,0,0,1,2254.5,-12.4526)">
                <path d="M594.1,1622.35L594.1,1508.1L616.95,1485.25L639.8,1485.25L685.5,1530.95L708.35,1622.35L594.1,1622.35Z" style="fill:rgb(31,31,15);stroke:rgb(31,31,15);stroke-width:1px;"/>
            </g>
            <g transform="matrix(1,0,0,1,-30.5,-12.4526)">
                <path d="M457,1622.35L457,1508.1L479.85,1485.25L502.7,1485.25L525.55,1530.95L548.4,1622.35L457,1622.35Z" style="fill:rgb(31,31,15);stroke:rgb(31,31,15);stroke-width:1px;"/>
            </g>
            <g transform="matrix(-1,0,0,1,2254.5,-12.4526)">
                <path d="M457,1622.35L457,1508.1L479.85,1485.25L502.7,1485.25L525.55,1530.95L548.4,1622.35L457,1622.35Z" style="fill:rgb(31,31,15);stroke:rgb(31,31,15);stroke-width:1px;"/>
            </g>
            <g transform="matrix(1,0,0,1,-30.5,-12.4526)">
                <path d="M365.6,1622.35L365.6,1508.1L388.45,1485.25L411.3,1485.25L434.15,1622.35L365.6,1622.35Z" style="fill:rgb(31,31,15);stroke:rgb(31,31,15);stroke-width:1px;"/>
            </g>
            <g transform="matrix(-1,0,0,1,2254.5,-12.4526)">
                <path d="M365.6,1622.35L365.6,1508.1L388.45,1485.25L411.3,1485.25L434.15,1622.35L365.6,1622.35Z" style="fill:rgb(31,31,15);stroke:rgb(31,31,15);stroke-width:1px;"/>
            </g>
        </g>
        <g id="Layer10">
            <g transform="matrix(1,0,0,1,-30.5,-12.4526)">
                <path d="M776.9,891.15L799.75,868.3L845.45,845.45L891.15,936.85L959.7,1051.1L1028.25,1119.65L868.3,1096.8L799.75,1051.1L754.05,936.85L765.458,913.967L776.9,891.15Z" style="fill:rgb(33,30,47);stroke:rgb(33,30,47);stroke-width:1px;"/>
            </g>
            <g transform="matrix(1,0,0,1,175.15,124.647)">
                <path d="M776.9,891.15L799.75,868.3L845.45,845.45L891.15,936.85L959.7,1051.1L1028.25,1119.65L868.3,1096.8L799.75,1051.1L754.05,936.85L765.458,913.967L776.9,891.15Z" style="fill:rgb(33,30,47);stroke:rgb(33,30,47);stroke-width:1px;"/>
            </g>
            <g transform="matrix(-1,0,0,1,2048.85,124.647)">
                <path d="M776.9,891.15L799.75,868.3L845.45,845.45L891.15,936.85L959.7,1051.1L1028.25,1119.65L868.3,1096.8L799.75,1051.1L754.05,936.85L765.458,913.967L776.9,891.15Z" style="fill:rgb(33,30,47);stroke:rgb(33,30,47);stroke-width:1px;"/>
            </g>
            <g transform="matrix(-1,0,0,1,2254.5,-12.4526)">
                <path d="M776.9,891.15L799.75,868.3L845.45,845.45L891.15,936.85L959.7,1051.1L1028.25,1119.65L868.3,1096.8L799.75,1051.1L754.05,936.85L765.458,913.967L776.9,891.15Z" style="fill:rgb(33,30,47);stroke:rgb(33,30,47);stroke-width:1px;"/>
            </g>
        </g>
        <g transform="matrix(1,0,0,1,-30.5,-12.4526)">
            <g id="Layer18">
                <path d="M1051.1,1553.8L1233.9,1553.8L1302.45,1462.4L982.55,1462.4" style="fill:rgb(15,15,15);stroke:rgb(15,15,15);stroke-width:1px;"/>
            </g>
        </g>
        <g id="Layer8">
            <g transform="matrix(1,0,0,1,-30.5,-12.4526)">
                <path d="M1096.8,1439.55L982.55,1485.25L914,1530.95L822.6,1622.35L776.9,1622.35L685.5,1530.95L594.1,1348.15L548.4,1211.05L548.4,868.3L571.25,662.65L594.1,502.7L616.95,411.3L685.5,754.05L776.9,914L868.3,1028.25L936.85,1073.95L1096.8,1119.65L1188.2,1119.65L1416.7,1073.95L1477.6,1028.25L1553.8,936.85L1622.35,822.6L1668.05,731.2L1690.9,799.75L1713.75,891.15L1736.6,1005.4L1736.6,1211.05L1690.9,1348.15L1599.5,1530.95L1508.1,1622.35L1462.4,1622.35L1371,1530.95L1302.45,1485.25L1188.2,1439.55L1096.8,1439.55Z" style="fill:rgb(176,176,176);stroke:rgb(176,176,176);stroke-width:1px;"/>
            </g>
            <g transform="matrix(1,0,0,1,-30.5,-12.4526)">
                <path d="M1096.8,479.85L1028.25,434.15L982.55,365.6L959.7,502.7L959.7,525.55L1005.4,571.25L1051.1,571.25L1096.8,525.55L1096.8,479.85Z" style="fill:rgb(176,176,176);stroke:rgb(176,176,176);stroke-width:1px;"/>
            </g>
            <g transform="matrix(-1,0,0,1,2254.5,-12.4526)">
                <path d="M1096.8,479.85L1028.25,434.15L982.55,365.6L959.7,502.7L959.7,525.55L1005.4,571.25L1051.1,571.25L1096.8,525.55L1096.8,479.85Z" style="fill:rgb(176,176,176);stroke:rgb(176,176,176);stroke-width:1px;"/>
            </g>
            <g transform="matrix(1,0,0,1,-30.5,-12.4526)">
                <path d="M1073.95,662.65L1051.1,685.5L1051.1,708.35L1096.8,754.05L1096.8,708.35L1073.95,662.65Z" style="fill:rgb(176,176,176);stroke:rgb(176,176,176);stroke-width:1px;"/>
            </g>
            <g transform="matrix(-1,0,0,1,2254.5,-12.4526)">
                <path d="M1073.95,662.65L1051.1,685.5L1051.1,708.35L1096.8,754.05L1096.8,708.35L1073.95,662.65Z" style="fill:rgb(176,176,176);stroke:rgb(176,176,176);stroke-width:1px;"/>
            </g>
        </g>
        <g id="Layer9">
            <g transform="matrix(1,0,0,1,15.2,78.9474)">
                <path d="M594.1,1233.9L662.65,1165.35L731.2,1233.9L731.2,1256.75L594.1,1256.75L594.1,1233.9Z" style="fill:rgb(33,30,47);stroke:rgb(33,30,47);stroke-width:1px;"/>
            </g>
            <g transform="matrix(1,0,0,1,266.55,78.9474)">
                <path d="M594.1,1233.9L662.65,1165.35L731.2,1233.9L731.2,1256.75L594.1,1256.75L594.1,1233.9Z" style="fill:rgb(33,30,47);stroke:rgb(33,30,47);stroke-width:1px;"/>
            </g>
            <g transform="matrix(1,0,0,1,883.5,78.9474)">
                <path d="M594.1,1233.9L662.65,1165.35L731.2,1233.9L731.2,1256.75L594.1,1256.75L594.1,1233.9Z" style="fill:rgb(33,30,47);stroke:rgb(33,30,47);stroke-width:1px;"/>
            </g>
            <g transform="matrix(1,0,0,1,632.15,78.9474)">
                <path d="M594.1,1233.9L662.65,1165.35L731.2,1233.9L731.2,1256.75L594.1,1256.75L594.1,1233.9Z" style="fill:rgb(33,30,47);stroke:rgb(33,30,47);stroke-width:1px;"/>
            </g>
            <g transform="matrix(1,0,0,1,335.1,56.0974)">
                <path d="M274.2,1371L319.9,1462.4L411.3,1553.8L457,1553.8L548.4,1462.4L616.95,1416.7L731.2,1371L822.6,1371L936.85,1416.7L1005.4,1462.4L1096.8,1553.8L1142.5,1553.8L1233.9,1462.4L1279.6,1371L1211.05,1348.15L1119.65,1302.45L1073.95,1302.45L982.55,1348.15L891.15,1348.15L822.6,1279.6L731.2,1279.6L662.65,1348.15L571.25,1348.15L479.85,1302.45L434.15,1302.45L342.75,1348.15L274.2,1371Z" style="fill:rgb(33,30,47);stroke:rgb(33,30,47);stroke-width:1px;"/>
            </g>
        </g>
        <g id="Layer17">
            <g transform="matrix(1,0,0,1,-7.65,-81.0026)">
                <path d="M594.1,1233.9L662.65,1165.35L731.2,1233.9L731.2,1256.75L594.1,1256.75L594.1,1233.9Z" style="fill:rgb(80,97,91);stroke:rgb(80,97,91);stroke-width:1px;"/>
            </g>
            <g transform="matrix(-1,0,0,1,2231.65,-81.0026)">
                <path d="M594.1,1233.9L662.65,1165.35L731.2,1233.9L731.2,1256.75L594.1,1256.75L594.1,1233.9Z" style="fill:rgb(80,97,91);stroke:rgb(80,97,91);stroke-width:1px;"/>
            </g>
            <g transform="matrix(1,0,0,1,-30.5,-263.803)">
                <path d="M594.1,1233.9L662.65,1165.35L731.2,1233.9L731.2,1256.75L594.1,1256.75L594.1,1233.9Z" style="fill:rgb(80,97,91);stroke:rgb(80,97,91);stroke-width:1px;"/>
            </g>
            <g transform="matrix(-1,0,0,1,2254.5,-263.803)">
                <path d="M594.1,1233.9L662.65,1165.35L731.2,1233.9L731.2,1256.75L594.1,1256.75L594.1,1233.9Z" style="fill:rgb(80,97,91);stroke:rgb(80,97,91);stroke-width:1px;"/>
            </g>
            <g transform="matrix(1,0,0,1,-53.35,-446.603)">
                <path d="M594.1,1233.9L662.65,1165.35L731.2,1233.9L731.2,1256.75L594.1,1256.75L594.1,1233.9Z" style="fill:rgb(80,97,91);stroke:rgb(80,97,91);stroke-width:1px;"/>
            </g>
        </g>
        <g id="Layer14">
            <g transform="matrix(1,0,0,1,-30.5,-12.4526)">
                <path d="M1325.3,731.2L1302.45,754.05L1233.9,822.6L1233.9,845.45L1302.45,845.45L1325.3,822.6L1325.3,731.2Z" style="fill:rgb(26,205,142);stroke:rgb(26,205,142);stroke-width:1px;"/>
            </g>
            <g transform="matrix(-1,0,0,1,2254.5,-12.4526)">
                <path d="M1325.3,731.2L1302.45,754.05L1233.9,822.6L1233.9,845.45L1302.45,845.45L1325.3,822.6L1325.3,731.2Z" style="fill:rgb(26,205,142);stroke:rgb(26,205,142);stroke-width:1px;"/>
            </g>
        </g>
    </g>
</svg>
