<?xml version="1.0" encoding="UTF-8" standalone="no"?>
<!DOCTYPE svg PUBLIC "-//W3C//DTD SVG 1.1//EN" "http://www.w3.org/Graphics/SVG/1.1/DTD/svg11.dtd">
<svg width="100%" height="100%" viewBox="0 0 4634 3475" version="1.1" xmlns="http://www.w3.org/2000/svg" xmlns:xlink="http://www.w3.org/1999/xlink" xml:space="preserve" xmlns:serif="http://www.serif.com/" style="fill-rule:evenodd;clip-rule:evenodd;stroke-linecap:round;stroke-linejoin:round;stroke-miterlimit:1.5;">
    <g transform="matrix(2.08333,0,0,2.08333,0,0)">
        <g id="Layer8" transform="matrix(1,0,0,1,-18,-6)">
            <path d="M360,900L340,880L340,760L520,600L520,540L540,500L1620,480L1820,540L1840,620L1860,660L1940,740L1940,1000L1920,1020L1820,1020L1820,880L1760,820L1700,820L1540,660L1480,660L1380,760L1380,1020L1160,1240L1140,1260L1120,1240L1020,1140L1020,860L980,820L980,1120L960,1100L900,1020L860,1020L760,1140L720,1140L660,1080L380,1040L360,1040L340,1020L340,960L360,940L680,940L680,900L360,900Z" style="fill:rgb(49,48,84);stroke:rgb(49,48,84);stroke-width:1px;"/>
            <path d="M1540,1100L1540,1240L1440,1340L1300,1340L1300,1460L1540,1460L1700,1300L1700,1100L1540,1100Z" style="fill:rgb(49,48,84);stroke:rgb(49,48,84);stroke-width:1px;"/>
            <rect x="1060" y="1540" width="80" height="80" style="fill:rgb(49,48,84);stroke:rgb(49,48,84);stroke-width:1px;"/>
            <path d="M1200,1620L1180,1600L1180,1540L1300,1540L1300,1620L1200,1620Z" style="fill:rgb(49,48,84);stroke:rgb(49,48,84);stroke-width:1px;"/>
            <path d="M1360,1620L1340,1600L1340,1540L1460,1540L1460,1620L1360,1620Z" style="fill:rgb(49,48,84);stroke:rgb(49,48,84);stroke-width:1px;"/>
            <path d="M1520,1620L1500,1600L1500,1540L1620,1540L1620,1620L1520,1620Z" style="fill:rgb(49,48,84);stroke:rgb(49,48,84);stroke-width:1px;"/>
            <path d="M1660,1540L1660,1600L1680,1620L1840,1620L1840,1600L1760,1520L1740,1520L1720,1540L1660,1540Z" style="fill:rgb(49,48,84);stroke:rgb(49,48,84);stroke-width:1px;"/>
            <path d="M1820,1060L1940,1060L1940,1160L1920,1180L1820,1180L1820,1060Z" style="fill:rgb(49,48,84);stroke:rgb(49,48,84);stroke-width:1px;"/>
            <path d="M1820,1220L1940,1220L1940,1360L1920,1380L1860,1380L1820,1360L1820,1220Z" style="fill:rgb(49,48,84);stroke:rgb(49,48,84);stroke-width:1px;"/>
            <path d="M1760,1500L1860,1600L1880,1600L1900,1580L1940,1500L1940,1420L1880,1400L1820,1400L1800,1420L1780,1460L1760,1480L1760,1500Z" style="fill:rgb(49,48,84);stroke:rgb(49,48,84);stroke-width:1px;"/>
        </g>
        <g id="Layer4" transform="matrix(1,0,0,1,-18,-6)">
            <path d="M540,480L720,300L1680,300L1820,440L1820,540L1700,660L1660,660L1520,520L1380,660L1340,660L1200,520L1060,660L1020,660L880,520L780,620L660,620L540,500L540,480Z" style="fill:rgb(82,154,49);stroke:rgb(82,154,49);stroke-width:1px;"/>
            <path d="M1220,1060L1380,900L1380,780L1220,620L1180,620L980,820L980,860L1180,1060L1220,1060Z" style="fill:rgb(82,154,49);stroke:rgb(82,154,49);stroke-width:1px;"/>
            <path d="M1420,1020L1500,1100L1700,1100L1700,820L1540,660L1500,660L1420,740L1420,1020Z" style="fill:rgb(82,154,49);stroke:rgb(82,154,49);stroke-width:1px;"/>
        </g>
        <g id="Layer5" transform="matrix(1,0,0,1,-18,-6)">
            <path d="M620,500L620,460L700,380L740,380L820,460L820,500L740,580L700,580L620,500Z" style="fill:rgb(66,117,68);stroke:rgb(66,117,68);stroke-width:1px;"/>
            <g transform="matrix(1,0,0,1,320,0)">
                <path d="M620,500L620,460L700,380L740,380L820,460L820,500L740,580L700,580L620,500Z" style="fill:rgb(66,117,68);stroke:rgb(66,117,68);stroke-width:1px;"/>
            </g>
            <g transform="matrix(1,0,0,1,640,0)">
                <path d="M620,500L620,460L700,380L740,380L820,460L820,500L740,580L700,580L620,500Z" style="fill:rgb(66,117,68);stroke:rgb(66,117,68);stroke-width:1px;"/>
            </g>
            <g transform="matrix(1,0,0,1,960,0)">
                <path d="M620,500L620,460L700,380L740,380L820,460L820,500L740,580L700,580L620,500Z" style="fill:rgb(66,117,68);stroke:rgb(66,117,68);stroke-width:1px;"/>
            </g>
            <path d="M1260,840L1240,820L1180,820L1100,900L1100,940L1180,1020L1220,1020L1380,860L1380,820L1220,660L1180,660L980,860L1030.02,910.019L1180.01,760L1220,760L1280,820L1280,860L1200,940L1160,900L1200,860L1240,860L1260,840Z" style="fill:rgb(66,117,68);stroke:rgb(66,117,68);stroke-width:1px;"/>
            <path d="M1700,860L1540,700L1500,700L1460,740L1460,1020L1500,1060L1640,1060L1660,1040L1660,940L1580,860L1560,860L1560,920L1620,980L1620,1000L1600,1020L1560,1020L1520,980L1520,800L1540,780L1700,940L1700,860Z" style="fill:rgb(66,117,68);stroke:rgb(66,117,68);stroke-width:1px;"/>
        </g>
        <g id="Layer6" transform="matrix(1,0,0,1,-18,-6)">
            <path d="M640,620L900,620L900,640L860,680L860,720L1020,880L1020,940L980,980L680,1080L580,1100L320,1100L320,1080L340,1060L420,1020L540,980L620,900L640,900L660,880L660,800L640,780L500,780L500,760L640,620Z" style="fill:rgb(206,154,49);stroke:rgb(206,154,49);stroke-width:1px;"/>
        </g>
        <g id="Layer7" transform="matrix(1,0,0,1,-18,-6)">
            <rect x="540" y="780" width="40" height="40" style="fill:rgb(140,154,187);stroke:rgb(140,154,187);stroke-width:1px;"/>
        </g>
        <g id="Layer3" transform="matrix(1,0,0,1,-18,-6)">
            <path d="M1060,1620L1060,1360L920,1220L460,1220L340,1340L340,1600L360,1620L1060,1620Z" style="fill:rgb(44,44,53);stroke:rgb(44,44,53);stroke-width:1px;"/>
        </g>
        <g id="Layer9" transform="matrix(1,0,0,1,-18,-6)">
            <path d="M660,1140L660,1080L720,1140L760,1140L860,1020L900,1020L1140,1280L1140,1340L1112,1380L1060,1380L1060,1360L920,1220L740,1220L740,1200L700,1180L660,1140Z" style="fill:rgb(115,85,68);stroke:rgb(115,85,68);stroke-width:1px;"/>
            <path d="M1220,1300L1300,1220L1340,1220L1420,1300L1460,1300L1500,1260L1500,1100L1420,1020L1380,1020L1160,1240L1140,1260L1180,1300L1220,1300Z" style="fill:rgb(115,85,68);stroke:rgb(115,85,68);stroke-width:1px;"/>
            <path d="M1700,980L1740,1020L1820,1020L1820,880L1760,820L1700,820L1700,980Z" style="fill:rgb(115,85,68);stroke:rgb(115,85,68);stroke-width:1px;"/>
            <rect x="1740" y="1060" width="80" height="120" style="fill:rgb(115,85,68);stroke:rgb(115,85,68);stroke-width:1px;"/>
            <rect x="1740" y="1220" width="80" height="120" style="fill:rgb(115,85,68);stroke:rgb(115,85,68);stroke-width:1px;"/>
            <path d="M1820,1400L1800,1380L1680,1380L1660,1400L1660,1420L1680,1420L1760,1500L1760,1480L1780,1460L1800,1420L1820,1400Z" style="fill:rgb(115,85,68);stroke:rgb(115,85,68);stroke-width:1px;"/>
            <path d="M1740,1520L1740,1500L1660,1420L1640,1420L1620,1440L1620,1480L1640,1500L1640,1520L1660,1540L1720,1540L1740,1520Z" style="fill:rgb(115,85,68);stroke:rgb(115,85,68);stroke-width:1px;"/>
            <rect x="1500" y="1500" width="120" height="40" style="fill:rgb(115,85,68);stroke:rgb(115,85,68);stroke-width:1px;"/>
            <rect x="1340" y="1500" width="120" height="40" style="fill:rgb(115,85,68);stroke:rgb(115,85,68);stroke-width:1px;"/>
            <rect x="1180" y="1500" width="120" height="40" style="fill:rgb(115,85,68);stroke:rgb(115,85,68);stroke-width:1px;"/>
            <rect x="1060" y="1500" width="80" height="40" style="fill:rgb(115,85,68);stroke:rgb(115,85,68);stroke-width:1px;"/>
            <path d="M1300,1340L1220,1340L1120,1440L1120,1460L1300,1460L1300,1340Z" style="fill:rgb(115,85,68);stroke:rgb(115,85,68);stroke-width:1px;"/>
        </g>
        <g id="Layer1" transform="matrix(1,0,0,1,-18,-6)">
            <path d="M360,1440L520,1280L540,1280L540,1440L520,1460L360,1460L360,1440Z" style="fill:rgb(156,101,68);stroke:rgb(156,101,68);stroke-width:1px;"/>
            <path d="M780,1440L760,1460L600,1460L600,1440L760,1280L780,1280L780,1440Z" style="fill:rgb(156,101,68);stroke:rgb(156,101,68);stroke-width:1px;"/>
            <path d="M1020,1440L1000,1460L840,1460L840,1440L1000,1280L1020,1280L1020,1440Z" style="fill:rgb(156,101,68);stroke:rgb(156,101,68);stroke-width:1px;"/>
            <path d="M480,1220L480,1200L640,1040L660,1040L660,1200L640,1220L480,1220Z" style="fill:rgb(156,101,68);stroke:rgb(156,101,68);stroke-width:1px;"/>
            <g transform="matrix(0.888889,0,0,0.777778,313.333,271.111)">
                <path d="M480,1220L480,1194.29L637.5,1040L660,1040L660,1194.29L637.5,1220L480,1220Z" style="fill:rgb(156,101,68);stroke:rgb(156,101,68);stroke-width:1.2px;"/>
            </g>
            <path d="M620,400L640,220L680,120L740,80L780,60L1120,60L1160,80L1200,120L1220,160L1240,240L1260,280L1300,300L1340,280L1360,240L1380,180L1400,160L1440,140L1600,140L1640,160L1660,180L1680,220L1700,319.293L1680,300L1540,440L1500,440L1360,300L1220,440L1180,440L1040,300L900,440L860,440L720,300L620,400Z" style="fill:rgb(156,101,68);stroke:rgb(156,101,68);stroke-width:1px;"/>
        </g>
        <g id="Layer2" transform="matrix(1,0,0,1,-18,-6)">
            <path d="M780,180L900,60L940,60L1060,180L1060,220L780,220L780,180Z" style="fill:rgb(206,138,101);stroke:rgb(206,138,101);stroke-width:1px;"/>
            <path d="M1420,340L1420,300L1500,220L1540,220L1620,300L1620,340L1420,340Z" style="fill:rgb(206,138,101);stroke:rgb(206,138,101);stroke-width:1px;"/>
        </g>
    </g>
</svg>
