<?xml version="1.0" encoding="UTF-8" standalone="no"?>
<!DOCTYPE svg PUBLIC "-//W3C//DTD SVG 1.1//EN" "http://www.w3.org/Graphics/SVG/1.1/DTD/svg11.dtd">
<svg width="100%" height="100%" viewBox="0 0 4634 3475" version="1.1" xmlns="http://www.w3.org/2000/svg" xmlns:xlink="http://www.w3.org/1999/xlink" xml:space="preserve" xmlns:serif="http://www.serif.com/" style="fill-rule:evenodd;clip-rule:evenodd;stroke-linecap:round;stroke-linejoin:round;stroke-miterlimit:1.5;">
    <g transform="matrix(2.08333,0,0,2.08333,0,0)">
        <g transform="matrix(1,0,0,1,-19.075,-0.025)">
            <g id="Layer10">
                <path d="M365.6,754.05L502.7,616.95L548.4,525.55L548.4,342.75L776.9,114.25L1051.1,114.25L1051.1,68.55L1142.5,68.55L1188.2,114.25L1256.75,159.95L1325.3,182.8L1371,182.8L1439.55,159.95L1508.1,114.25L1553.8,68.55L1645.2,68.55L1645.2,114.25L1828,297.05L1896.55,342.75L1896.55,754.05L1873.7,822.6L1782.3,936.85L1690.9,1028.25L1599.5,1096.8L1530.95,1119.65L1508.1,1119.65L1485.25,1233.9L1462.4,1302.45L1439.55,1393.85L1462.4,1485.25L1508.1,1530.95L1553.8,1530.95L1599.5,1485.25L1622.35,1393.85L1873.7,1393.85L1873.7,1462.4L1850.85,1553.8L1828,1599.5L1759.45,1622.35L1325.3,1622.35L1233.9,1530.95L1233.9,1302.45L1165.35,1302.45L1142.5,1325.3L1142.5,1530.95L1165.35,1530.95L1188.2,1553.8L1188.2,1622.35L1005.4,1622.35L1005.4,1576.65L959.7,1530.95L936.85,1530.95L914,1508.1L914,1439.55L891.15,1416.7L835.166,1439.32L776.9,1462.4L662.65,1462.4L639.8,1447.17L616.95,1416.7L594.1,1416.7L594.1,1530.95L616.95,1530.95L639.8,1553.8L639.8,1622.35L457,1622.35L457,1576.65L411.3,1530.95L388.45,1530.95L365.6,1508.1L365.6,754.05Z" style="fill:rgb(47,48,61);stroke:rgb(47,48,61);stroke-width:1px;"/>
            </g>
        </g>
        <g transform="matrix(1,0,0,1,-19.075,-0.025)">
            <g id="Layer14">
                <path d="M365.6,799.75L395.178,813.057L434.15,799.75L475.284,742.959L520.505,730.549L571.25,685.5L639.888,669.991L682.493,576.537L725.285,587.332L789.744,522.285L839.027,535.155L920.183,529.782L951.756,568.832L980.324,541.381L1001.9,555.609L1066.65,530.262L1112,546.791L1151.85,494.236L1176.56,490.448L1279.6,434.15L1465.81,420.622L1505.7,451.096L1534.49,436.788L1555.15,464.235L1599.54,444.763L1681.01,457.286L1713.75,434.15L1733.59,483.251L1788.96,496.219L1799.44,529.04L1833.05,545.344L1850.85,548.4L1896.55,434.15L1896.55,342.75L1782.3,297.05L1668.05,159.95L1645.2,68.55L1553.8,68.55L1508.1,114.25L1439.55,159.95L1371,182.8L1325.3,182.8L1256.75,159.95L1188.2,114.25L1142.5,68.55L1051.1,68.55L822.6,68.55L776.9,114.25L548.4,342.75L548.4,525.55L502.7,616.95L365.6,754.05L365.6,799.75Z" style="fill:rgb(143,143,143);stroke:rgb(143,143,143);stroke-width:1px;"/>
            </g>
        </g>
        <g id="Layer8">
            <g transform="matrix(1,0,0,1,-19.075,-0.025)">
                <path d="M1416.7,388.45L1508.1,479.85L1508.1,616.95L1416.7,708.35L1279.6,708.35L1188.2,616.95L1188.2,479.85L1279.6,388.45L1416.7,388.45ZM1393.85,616.95L1416.7,594.1L1416.7,502.7L1393.85,479.85L1302.45,479.85L1279.6,502.7L1279.6,594.1L1302.45,616.95L1393.85,616.95Z" style="fill:rgb(174,175,145);stroke:rgb(174,175,145);stroke-width:1px;"/>
            </g>
            <g transform="matrix(1,0,0,1,-19.075,-0.025)">
                <path d="M1530.95,799.75L1599.5,799.75L1645.2,754.05L1645.2,708.35L1645.2,685.5L1599.5,685.5L1599.5,708.35L1553.8,754.05L1530.95,754.05L1530.95,799.75Z" style="fill:rgb(174,175,145);stroke:rgb(174,175,145);stroke-width:1px;"/>
            </g>
            <g transform="matrix(-1,0,0,1,2677.22,-0.025)">
                <path d="M1530.95,799.75L1599.5,799.75L1645.2,754.05L1645.2,708.35L1645.2,685.5L1599.5,685.5L1599.5,708.35L1553.8,754.05L1530.95,754.05L1530.95,799.75Z" style="fill:rgb(174,175,145);stroke:rgb(174,175,145);stroke-width:1px;"/>
            </g>
            <g transform="matrix(-1,0,0,-1,2677.22,1096.78)">
                <path d="M1530.95,799.75L1599.5,799.75L1645.2,754.05L1645.2,708.35L1645.2,685.5L1599.5,685.5L1599.5,708.35L1553.8,754.05L1530.95,754.05L1530.95,799.75Z" style="fill:rgb(174,175,145);stroke:rgb(174,175,145);stroke-width:1px;"/>
            </g>
            <g transform="matrix(-6.12323e-17,-1,1,-6.12323e-17,826.375,1942.22)">
                <path d="M1530.95,799.75L1599.5,799.75L1645.2,754.05L1645.2,708.35L1645.2,685.5L1599.5,685.5L1599.5,708.35L1553.8,754.05L1530.95,754.05L1530.95,799.75Z" style="fill:rgb(174,175,145);stroke:rgb(174,175,145);stroke-width:1px;"/>
            </g>
            <g transform="matrix(1,0,0,1,-19.075,-22.9)">
                <path d="M1348.15,914L1256.75,845.475L1256.75,799.75L1439.55,799.75L1439.55,845.475L1348.15,914Z" style="fill:rgb(174,175,145);stroke:rgb(174,175,145);stroke-width:1px;"/>
            </g>
            <g transform="matrix(1,0,0,1,3.775,182.775)">
                <path d="M1348.15,891.15L1279.6,822.6L1279.6,799.75L1416.7,799.75L1416.7,822.6L1348.15,891.15Z" style="fill:rgb(174,175,145);stroke:rgb(174,175,145);stroke-width:1px;"/>
            </g>
            <g transform="matrix(1,0,0,1,-19.075,-0.025)">
                <path d="M1051.1,662.65L1028.25,616.95L1005.4,548.4L1028.25,479.85L1051.1,434.15L1096.8,434.15L1096.8,662.65L1051.1,662.65Z" style="fill:rgb(174,175,145);stroke:rgb(174,175,145);stroke-width:1px;"/>
            </g>
            <g transform="matrix(-1,0,0,1,2677.22,-0.025)">
                <path d="M1051.1,662.65L1028.25,616.95L1005.4,548.4L1028.25,479.85L1051.1,434.15L1096.8,434.15L1096.8,662.65L1051.1,662.65Z" style="fill:rgb(174,175,145);stroke:rgb(174,175,145);stroke-width:1px;"/>
            </g>
            <g transform="matrix(1,0,0,1,-19.075,-0.025)">
                <path d="M1233.9,205.65L1233.9,297.05L1279.6,342.75L1416.7,342.75L1462.4,297.05L1462.4,205.65L1416.7,205.65L1416.7,251.35L1393.85,274.2L1302.45,274.2L1279.6,251.35L1279.6,205.65L1233.9,205.65Z" style="fill:rgb(174,175,145);stroke:rgb(174,175,145);stroke-width:1px;"/>
            </g>
            <g transform="matrix(1,0,0,-1,-19.075,1987.92)">
                <path d="M571.25,754.05L365.6,959.7L434.15,959.7L571.25,822.6L708.35,959.7L776.9,959.7L571.25,754.05Z" style="fill:rgb(174,175,145);stroke:rgb(174,175,145);stroke-width:1px;"/>
            </g>
            <g transform="matrix(1,0,0,-1,-19.075,1987.93)">
                <path d="M571.25,891.15L502.7,959.7L548.4,959.7L571.25,936.85L594.1,959.7L639.8,959.7L571.25,891.15Z" style="fill:rgb(174,175,145);stroke:rgb(174,175,145);stroke-width:1px;"/>
            </g>
            <g transform="matrix(1,0,0,1,-19.075,-0.025)">
                <path d="M1508.1,1005.4L1508.1,1211.05L1553.8,1256.75L1736.6,1256.75L1828,1165.35L1828,1028.25L1782.3,1119.65L1736.6,1165.35L1622.35,1165.35L1599.5,1142.5L1599.5,982.55L1508.1,1005.4Z" style="fill:rgb(174,175,145);stroke:rgb(174,175,145);stroke-width:1px;"/>
            </g>
            <g transform="matrix(-1,0,0,1,2677.22,-0.025)">
                <path d="M1508.1,1005.4L1508.1,1211.05L1553.8,1256.75L1736.6,1256.75L1828,1165.35L1828,1028.25L1782.3,1119.65L1736.6,1165.35L1622.35,1165.35L1599.5,1142.5L1599.5,982.55L1508.1,1005.4Z" style="fill:rgb(174,175,145);stroke:rgb(174,175,145);stroke-width:1px;"/>
            </g>
        </g>
        <g id="Layer11">
            <g transform="matrix(1,0,0,1,-19.075,-15.2676)">
                <path d="M1233.9,159.95L1233.9,60.943L1279.6,60.943L1325.3,198.043L1256.75,175.193L1233.9,159.95Z" style="fill:rgb(237,239,211);stroke:rgb(237,239,211);stroke-width:1px;"/>
            </g>
            <g transform="matrix(-1,0,0,1,2677.22,-15.2676)">
                <path d="M1233.9,159.95L1233.9,60.943L1279.6,60.943L1325.3,198.043L1256.75,175.193L1233.9,159.95Z" style="fill:rgb(237,239,211);stroke:rgb(237,239,211);stroke-width:1px;"/>
            </g>
            <g transform="matrix(1,0,0,1,-19.075,-0.025)">
                <path d="M1005.4,114.25L1005.4,68.55L594.1,68.55L685.5,114.25L685.5,159.95L502.7,159.95L594.1,205.65L594.1,251.35L457,251.35L548.4,297.05L548.4,342.75L776.9,114.25L1005.4,114.25Z" style="fill:rgb(237,239,211);stroke:rgb(237,239,211);stroke-width:1px;"/>
            </g>
            <g transform="matrix(1,0,0,1,-19.075,-0.025)">
                <path d="M502.7,616.95L365.6,616.95L411.3,662.65L411.3,685.5L365.6,685.5L388.45,731.2L502.7,616.95Z" style="fill:rgb(237,239,211);stroke:rgb(237,239,211);stroke-width:1px;"/>
            </g>
            <g transform="matrix(1,0,0,1,-19.075,-0.025)">
                <path d="M571.25,754.05L365.6,959.7L434.15,959.7L571.25,822.6L708.35,959.7L776.9,959.7L571.25,754.05Z" style="fill:rgb(237,239,211);stroke:rgb(237,239,211);stroke-width:1px;"/>
            </g>
            <g transform="matrix(1,0,0,1,-19.075,-0.025)">
                <path d="M571.25,891.15L502.7,959.7L548.4,959.7L571.25,936.85L594.1,959.7L639.8,959.7L571.25,891.15Z" style="fill:rgb(237,239,211);stroke:rgb(237,239,211);stroke-width:1px;"/>
            </g>
        </g>
        <g id="Layer13">
            <g transform="matrix(1,0,0,1,-19.075,-0.025)">
                <path d="M891.15,1416.7L845.45,1485.25L822.6,1508.1L822.6,1553.8L799.75,1576.65L799.75,1508.1L776.9,1485.25L754.05,1485.25L731.2,1508.1L731.2,1576.65L708.35,1553.8L685.5,1485.25L594.1,1416.7L639.8,1416.7L662.65,1439.55L685.5,1416.7L731.2,1416.7L754.05,1462.4L799.75,1416.7L891.15,1416.7Z" style="fill:rgb(108,49,50);stroke:rgb(108,49,50);stroke-width:1px;"/>
            </g>
            <g transform="matrix(1,0,0,1,-19.075,-0.025)">
                <path d="M1873.7,1416.7L1873.7,1462.4L1850.85,1553.8L1828,1599.5L1759.45,1622.35L1325.3,1622.35L1279.6,1576.65L1321.85,1585.11L1367.26,1571.52L1425.12,1595.69L1492.58,1580.49L1558.35,1594.14L1620.59,1574.52L1652.11,1590.49L1703.34,1569.58L1732.59,1559.06L1739.3,1525.45L1781.26,1508.19L1805.15,1439.55L1805.15,1393.85L1850.85,1371L1873.7,1416.7Z" style="fill:rgb(108,49,50);stroke:rgb(108,49,50);stroke-width:1px;"/>
            </g>
        </g>
        <g id="Layer9">
            <g transform="matrix(1,0,0,1,-87.625,-0.025)">
                <path d="M1051.1,914L1028.25,891.15L1005.4,891.15L914,799.75L914,776.9L891.15,754.05L868.3,754.05L868.3,822.6L982.55,936.85L1051.1,936.85L1051.1,914Z" style="fill:rgb(236,238,208);stroke:rgb(236,238,208);stroke-width:1px;"/>
            </g>
            <g transform="matrix(-1,0,0,1,2745.78,-0.025)">
                <path d="M1028.25,891.15L1005.4,891.15L914,799.75L914,776.9L891.15,754.05L868.3,754.05L868.3,822.6L982.55,936.85L1051.1,936.85L1051.1,914L1028.25,891.15Z" style="fill:rgb(236,238,208);stroke:rgb(236,238,208);stroke-width:1px;"/>
            </g>
            <g transform="matrix(-1,0,0,1,1854.62,-594.125)">
                <path d="M1051.1,891.15L1005.4,891.15L868.3,754.05L868.3,662.65L822.6,662.65L822.6,776.9L982.55,936.85L1073.95,936.85L1073.95,914L1051.1,891.15Z" style="fill:rgb(236,238,208);stroke:rgb(236,238,208);stroke-width:1px;"/>
            </g>
            <g transform="matrix(1,0,0,1,803.525,-594.125)">
                <path d="M1073.95,914L1051.1,891.15L1005.4,891.15L868.3,754.05L868.3,662.65L822.6,662.65L822.6,776.9L982.55,936.85L1073.95,936.85L1073.95,914Z" style="fill:rgb(236,238,208);stroke:rgb(236,238,208);stroke-width:1px;"/>
            </g>
            <g transform="matrix(1,0,0,1,-19.075,-0.025)">
                <path d="M845.45,662.65L868.3,639.8L868.3,457L845.45,434.15L799.75,434.15L799.75,662.65L845.45,662.65Z" style="fill:rgb(236,238,208);stroke:rgb(236,238,208);stroke-width:1px;"/>
            </g>
            <g transform="matrix(1,0,0,1,1009.17,-0.025)">
                <path d="M868.3,662.65L868.3,434.15L822.6,434.15L799.75,457L799.75,639.8L822.6,662.65L868.3,662.65Z" style="fill:rgb(236,238,208);stroke:rgb(236,238,208);stroke-width:1px;"/>
            </g>
            <g transform="matrix(1,0,0,1,-19.075,-0.025)">
                <path d="M1005.4,1576.65L1051.1,1530.95L1142.5,1530.95L1142.5,1393.85L1096.8,1393.85L959.7,1530.95L959.7,1553.8L982.55,1576.65L1005.4,1576.65Z" style="fill:rgb(236,238,208);stroke:rgb(236,238,208);stroke-width:1px;"/>
            </g>
            <g transform="matrix(1,0,0,1,-567.475,-0.025)">
                <path d="M1005.4,1576.65L1051.1,1530.95L1142.5,1530.95L1142.5,1393.85L1096.8,1393.85L959.7,1530.95L959.7,1553.8L982.55,1576.65L1005.4,1576.65Z" style="fill:rgb(236,238,208);stroke:rgb(236,238,208);stroke-width:1px;"/>
            </g>
            <g transform="matrix(1,0,0,1,-19.075,-0.025)">
                <path d="M1622.35,1393.85L1622.35,1371L1645.2,1348.15L1873.7,1348.15L1896.55,1371L1873.7,1439.55L1850.85,1393.85L1828,1393.85L1805.15,1485.25L1759.45,1393.85L1736.6,1393.85L1713.75,1462.4L1690.9,1393.85L1668.05,1393.85L1645.2,1439.55L1622.35,1393.85Z" style="fill:rgb(236,238,208);stroke:rgb(236,238,208);stroke-width:1px;"/>
            </g>
        </g>
    </g>
</svg>
