<?xml version="1.0" encoding="UTF-8" standalone="no"?>
<!DOCTYPE svg PUBLIC "-//W3C//DTD SVG 1.1//EN" "http://www.w3.org/Graphics/SVG/1.1/DTD/svg11.dtd">
<svg width="100%" height="100%" viewBox="0 0 4634 3475" version="1.1" xmlns="http://www.w3.org/2000/svg" xmlns:xlink="http://www.w3.org/1999/xlink" xml:space="preserve" xmlns:serif="http://www.serif.com/" style="fill-rule:evenodd;clip-rule:evenodd;stroke-linecap:round;stroke-linejoin:round;stroke-miterlimit:1.5;">
    <g transform="matrix(2.08333,0,0,2.08333,0,0)">
        <g transform="matrix(1,0,0,1,-68.55,-45.7)">
            <g id="Layer14">
                <path d="M365.6,525.55L365.6,365.6L388.45,342.75L525.55,342.75L548.4,365.6L548.4,388.45L639.8,388.45L754.05,274.2L982.55,274.2L1096.8,388.45L1233.9,388.45L1279.6,342.75L1371,251.35L1828,251.35L1873.7,297.05L1873.7,1371L1713.75,1530.95L411.3,1530.95L411.3,1508.1L1462.4,1439.55L1599.5,1393.85L1645.2,1348.15L1690.9,1302.45L1690.9,1188.2L1668.05,1165.35L1622.35,1165.35L1599.5,1142.5L1599.5,1051.1L1622.35,1028.25L1690.9,1028.25L1736.6,1073.95L1736.6,1028.25L1690.9,982.55L1599.5,982.55L1599.5,1028.25L1553.8,1073.95L1553.8,1142.5L1530.95,1165.35L1508.1,1165.35L1508.1,1119.65L1462.4,1051.1L1462.4,891.15L1508.1,845.45L1553.8,845.45L1690.9,571.25L1690.9,548.4L1668.05,525.55L1530.95,525.55L1508.1,548.4L1508.1,822.6L1485.25,845.45L1325.3,845.45L1325.3,754.05L1393.85,754.05L1416.7,731.2L1416.7,594.1L1371,548.4L1371,502.7L1348.15,479.85L1051.1,479.85L1051.1,571.25L1005.4,571.25L1005.4,594.1L959.7,571.25L799.75,571.25L799.75,525.55L685.5,525.55L662.65,536.052L639.8,525.55L594.1,525.55L571.25,535.41L548.4,525.55L502.7,525.55L479.85,536.713L457,525.55L411.3,548.4L365.6,525.55Z" style="fill:rgb(80,144,59);stroke:rgb(80,144,59);stroke-width:1px;"/>
            </g>
        </g>
        <g id="Layer13">
            <g transform="matrix(1,0,0,1,-68.55,-45.7)">
                <path d="M1165.35,1165.35L1188.2,1142.5L1188.2,1051.1L1165.35,1028.25L1005.4,1028.25L959.7,1073.95L1119.65,1073.95L1142.5,1096.8L1119.65,1119.65L1005.4,1119.65L959.7,1165.35L1165.35,1165.35Z" style="fill:rgb(47,30,20);stroke:rgb(47,30,20);stroke-width:1px;"/>
            </g>
            <g transform="matrix(1,0,0,1,-68.55,-45.7)">
                <path d="M1279.6,822.6L1279.6,731.2L1256.75,708.35L1051.1,708.35L1005.4,754.05L1165.35,754.05L1188.2,776.9L1165.35,799.75L1051.1,799.75L1005.4,845.45L1256.75,845.45L1279.6,822.6Z" style="fill:rgb(47,30,20);stroke:rgb(47,30,20);stroke-width:1px;"/>
            </g>
            <g transform="matrix(1,0,0,1,-68.55,-45.7)">
                <path d="M1393.85,754.05L1371,731.2L1371,685.5L1393.85,662.65L1348.15,662.65L1325.3,685.5L1325.3,754.05L1393.85,754.05Z" style="fill:rgb(47,30,20);stroke:rgb(47,30,20);stroke-width:1px;"/>
            </g>
            <g transform="matrix(1,0,0,1,-68.55,-45.7)">
                <path d="M1096.8,1211.05L959.7,1256.75L845.45,1256.75L799.75,1233.9L776.9,1188.2L776.9,1028.25L822.6,936.85L868.3,914L822.6,891.15L731.2,936.85L685.5,982.55L685.5,1233.9L731.2,1302.45L799.75,1348.15L1005.4,1348.15L1051.1,1302.45L1096.8,1256.75L1096.8,1211.05Z" style="fill:rgb(47,30,20);stroke:rgb(47,30,20);stroke-width:1px;"/>
            </g>
        </g>
        <g id="Layer8">
            <g transform="matrix(1,0,0,1,-68.55,-45.7)">
                <path d="M1576.65,571.25L1553.8,594.1L1553.8,845.45L1690.9,845.45L1690.9,571.25L1576.65,571.25Z" style="fill:rgb(193,143,3);stroke:rgb(193,143,3);stroke-width:1px;"/>
            </g>
            <g transform="matrix(1,0,0,1,-68.55,-45.7)">
                <path d="M1508.1,1119.65L1462.4,1073.95L1256.75,1073.95L1233.9,1096.8L1233.9,1165.35L1508.1,1165.35L1508.1,1119.65Z" style="fill:rgb(193,143,3);stroke:rgb(193,143,3);stroke-width:1px;"/>
            </g>
            <g transform="matrix(1,0,0,1,-68.55,-45.7)">
                <path d="M914,571.25L914,594.1L891.15,616.95L525.55,616.95L502.7,594.1L525.55,525.55L548.4,571.25L594.1,571.25L616.95,525.55L639.8,571.25L685.5,571.25L708.35,525.55L731.2,571.25L776.9,571.25L799.75,525.55L822.6,571.25L914,571.25Z" style="fill:rgb(193,143,3);stroke:rgb(193,143,3);stroke-width:1px;"/>
            </g>
            <g transform="matrix(1,0,0,1,-68.55,-45.7)">
                <path d="M365.6,525.55L365.6,685.5L411.3,754.05L457,799.75L525.55,799.75L479.85,754.05L457,685.5L457,525.55L365.6,525.55Z" style="fill:rgb(193,143,3);stroke:rgb(193,143,3);stroke-width:1px;"/>
            </g>
            <g transform="matrix(1,0,0,1,-68.55,-45.7)">
                <path d="M502.7,525.55L457,525.55L479.85,548.4L502.7,525.55Z" style="fill:rgb(193,143,3);stroke:rgb(193,143,3);stroke-width:1px;"/>
            </g>
            <g transform="matrix(1,0,0,1,22.85,-45.7)">
                <path d="M502.7,525.55L457,525.55L479.85,548.4L502.7,525.55Z" style="fill:rgb(193,143,3);stroke:rgb(193,143,3);stroke-width:1px;"/>
            </g>
            <g transform="matrix(1,0,0,1,114.25,-45.7)">
                <path d="M502.7,525.55L457,525.55L479.85,548.4L502.7,525.55Z" style="fill:rgb(193,143,3);stroke:rgb(193,143,3);stroke-width:1px;"/>
            </g>
        </g>
        <g id="Layer12">
            <g transform="matrix(1,0,0,1,-68.55,-45.7)">
                <path d="M1096.8,388.45L1096.8,365.6L1119.65,342.75L1142.5,342.75L1142.5,319.9L1119.65,297.05L1073.95,297.05L1051.1,274.2L1051.1,251.35L1096.8,205.65L1142.5,205.65L1142.5,182.8L1119.65,159.95L1051.1,159.95L1005.4,205.65L982.55,205.65L959.7,182.8L959.7,137.1L982.55,114.25L1051.1,114.25L1051.1,91.4L1028.25,68.55L914,68.55L868.3,114.25L868.3,205.65L914,205.65L914,251.35L959.7,251.35L959.7,342.75L1005.4,388.45L1005.4,594.1L1028.25,594.1L1051.1,571.25L1051.1,434.15L1096.8,388.45Z" style="fill:rgb(227,126,62);stroke:rgb(227,126,62);stroke-width:1px;"/>
            </g>
            <g transform="matrix(1,0,0,1,-68.55,-45.7)">
                <path d="M1325.3,479.85L1325.3,297.05L1371,251.35L1371,502.7L1348.15,479.85L1325.3,479.85Z" style="fill:rgb(227,126,62);stroke:rgb(227,126,62);stroke-width:1px;"/>
            </g>
            <g transform="matrix(1,0,0,1,-68.55,-45.7)">
                <rect x="1416.7" y="251.35" width="45.7" height="228.5" style="fill:rgb(227,126,62);stroke:rgb(227,126,62);stroke-width:1px;"/>
            </g>
            <g transform="matrix(1,0,0,1,-68.55,-45.7)">
                <rect x="1142.5" y="388.45" width="91.4" height="91.4" style="fill:rgb(227,126,62);stroke:rgb(227,126,62);stroke-width:1px;"/>
            </g>
            <g transform="matrix(1,0,0,1,-22.85,-45.7)">
                <rect x="1553.8" y="845.45" width="91.4" height="137.1" style="fill:rgb(227,126,62);stroke:rgb(227,126,62);stroke-width:1px;"/>
            </g>
            <g transform="matrix(1,0,0,1,-22.85,-91.4)">
                <path d="M1805.15,1439.55L1782.3,1393.85L1759.45,1348.15L1690.9,1416.7L1690.9,1485.25L1736.6,1508.1L1805.15,1439.55Z" style="fill:rgb(227,126,62);stroke:rgb(227,126,62);stroke-width:1px;"/>
            </g>
            <g transform="matrix(1,0,0,1,-68.55,-45.7)">
                <path d="M548.4,1530.95L548.4,1499.15L594.1,1496.18L594.1,1530.95L548.4,1530.95Z" style="fill:rgb(227,126,62);stroke:rgb(227,126,62);stroke-width:1px;"/>
            </g>
            <g transform="matrix(1,0,0,1,68.55,-45.7)">
                <path d="M548.4,1530.95L548.4,1490.22L594.1,1487.24L594.1,1530.95L548.4,1530.95Z" style="fill:rgb(227,126,62);stroke:rgb(227,126,62);stroke-width:1px;"/>
            </g>
            <g transform="matrix(1,0,0,1,205.65,-45.7)">
                <path d="M548.4,1530.95L548.4,1481.27L594.1,1478.27L594.1,1530.95L548.4,1530.95Z" style="fill:rgb(227,126,62);stroke:rgb(227,126,62);stroke-width:1px;"/>
            </g>
            <g transform="matrix(1,0,0,1,-68.55,-45.7)">
                <path d="M1005.4,1530.95L1005.4,1469.35L1096.8,1463.38L1096.8,1530.95L1005.4,1530.95Z" style="fill:rgb(227,126,62);stroke:rgb(227,126,62);stroke-width:1px;"/>
            </g>
            <g transform="matrix(1,0,0,1,-68.55,-45.7)">
                <path d="M1188.2,1530.95L1188.2,1457.43L1279.6,1451.47L1279.6,1530.95L1188.2,1530.95Z" style="fill:rgb(227,126,62);stroke:rgb(227,126,62);stroke-width:1px;"/>
            </g>
            <g transform="matrix(1,0,0,1,-68.55,-45.7)">
                <path d="M1371,1530.95L1371,1445.51L1462.4,1439.55L1462.4,1530.95L1371,1530.95Z" style="fill:rgb(227,126,62);stroke:rgb(227,126,62);stroke-width:1px;"/>
            </g>
            <g transform="matrix(1,0,0,1,-68.55,-45.7)">
                <path d="M1645.2,1530.95L1645.2,1439.55L1599.5,1393.85L1508.1,1424.28L1553.8,1462.4L1553.8,1530.95L1645.2,1530.95Z" style="fill:rgb(227,126,62);stroke:rgb(227,126,62);stroke-width:1px;"/>
            </g>
            <g transform="matrix(1,0,0,1,-68.55,-68.55)">
                <path d="M1873.7,1165.35L1828,1165.35L1736.6,1165.35L1736.6,1211.05L1782.3,1256.75L1873.7,1256.75L1873.7,1165.35Z" style="fill:rgb(227,126,62);stroke:rgb(227,126,62);stroke-width:1px;"/>
            </g>
            <g transform="matrix(1,0,0,1,-68.55,-68.55)">
                <rect x="1736.6" y="1028.25" width="137.1" height="91.4" style="fill:rgb(227,126,62);stroke:rgb(227,126,62);stroke-width:1px;"/>
            </g>
            <g transform="matrix(1,0,0,1,-68.55,-205.65)">
                <rect x="1736.6" y="1028.25" width="137.1" height="91.4" style="fill:rgb(227,126,62);stroke:rgb(227,126,62);stroke-width:1px;"/>
            </g>
            <g transform="matrix(1,0,0,1,-68.55,-479.85)">
                <rect x="1736.6" y="1028.25" width="137.1" height="91.4" style="fill:rgb(227,126,62);stroke:rgb(227,126,62);stroke-width:1px;"/>
            </g>
            <g transform="matrix(1,0,0,1,-68.55,-342.75)">
                <rect x="1736.6" y="1028.25" width="137.1" height="91.4" style="fill:rgb(227,126,62);stroke:rgb(227,126,62);stroke-width:1px;"/>
            </g>
            <g transform="matrix(1,0,0,1,-68.55,-22.85)">
                <path d="M1873.7,434.15L1782.3,434.15L1736.6,479.85L1736.6,525.55L1873.7,525.55L1873.7,434.15Z" style="fill:rgb(227,126,62);stroke:rgb(227,126,62);stroke-width:1px;"/>
            </g>
            <g transform="matrix(1,0,0,1,-68.55,-45.7)">
                <path d="M1828,251.35L1873.7,297.05L1873.7,342.75L1805.15,411.3L1736.6,411.3L1736.6,342.75L1828,251.35Z" style="fill:rgb(227,126,62);stroke:rgb(227,126,62);stroke-width:1px;"/>
            </g>
            <g transform="matrix(1,0,0,1,-68.55,-45.7)">
                <rect x="1508.1" y="251.35" width="45.7" height="182.8" style="fill:rgb(227,126,62);stroke:rgb(227,126,62);stroke-width:1px;"/>
            </g>
            <g transform="matrix(1,0,0,1,22.85,-45.7)">
                <rect x="1508.1" y="251.35" width="91.4" height="159.95" style="fill:rgb(227,126,62);stroke:rgb(227,126,62);stroke-width:1px;"/>
            </g>
        </g>
        <g id="Layer11">
            <g transform="matrix(1,0,0,1,-68.55,-22.85)">
                <rect x="1371" y="159.95" width="45.7" height="45.7" style="fill:rgb(224,209,148);stroke:rgb(224,209,148);stroke-width:1px;"/>
            </g>
            <g transform="matrix(1,0,0,1,68.55,-22.85)">
                <rect x="1371" y="159.95" width="45.7" height="45.7" style="fill:rgb(224,209,148);stroke:rgb(224,209,148);stroke-width:1px;"/>
            </g>
            <g transform="matrix(1,0,0,1,205.65,-22.85)">
                <rect x="1371" y="159.95" width="45.7" height="45.7" style="fill:rgb(224,209,148);stroke:rgb(224,209,148);stroke-width:1px;"/>
            </g>
            <g transform="matrix(1,0,0,1,342.75,-22.85)">
                <rect x="1371" y="159.95" width="45.7" height="45.7" style="fill:rgb(224,209,148);stroke:rgb(224,209,148);stroke-width:1px;"/>
            </g>
            <g transform="matrix(1,0,0,1,457,91.4)">
                <rect x="1371" y="159.95" width="45.7" height="45.7" style="fill:rgb(224,209,148);stroke:rgb(224,209,148);stroke-width:1px;"/>
            </g>
            <g transform="matrix(1,0,0,1,457,228.5)">
                <rect x="1371" y="159.95" width="45.7" height="45.7" style="fill:rgb(224,209,148);stroke:rgb(224,209,148);stroke-width:1px;"/>
            </g>
            <g transform="matrix(1,0,0,1,457,365.6)">
                <rect x="1371" y="159.95" width="45.7" height="45.7" style="fill:rgb(224,209,148);stroke:rgb(224,209,148);stroke-width:1px;"/>
            </g>
            <g transform="matrix(1,0,0,1,457,502.7)">
                <rect x="1371" y="159.95" width="45.7" height="45.7" style="fill:rgb(224,209,148);stroke:rgb(224,209,148);stroke-width:1px;"/>
            </g>
            <g transform="matrix(1,0,0,1,457,639.8)">
                <rect x="1371" y="159.95" width="45.7" height="45.7" style="fill:rgb(224,209,148);stroke:rgb(224,209,148);stroke-width:1px;"/>
            </g>
            <g transform="matrix(1,0,0,1,457,776.9)">
                <rect x="1371" y="159.95" width="45.7" height="45.7" style="fill:rgb(224,209,148);stroke:rgb(224,209,148);stroke-width:1px;"/>
            </g>
            <g transform="matrix(1,0,0,1,457,914)">
                <rect x="1371" y="159.95" width="45.7" height="45.7" style="fill:rgb(224,209,148);stroke:rgb(224,209,148);stroke-width:1px;"/>
            </g>
            <g transform="matrix(1,0,0,1,457,1051.1)">
                <rect x="1371" y="159.95" width="45.7" height="45.7" style="fill:rgb(224,209,148);stroke:rgb(224,209,148);stroke-width:1px;"/>
            </g>
            <g transform="matrix(1,0,0,1,251.35,1348.15)">
                <rect x="1371" y="159.95" width="45.7" height="45.7" style="fill:rgb(224,209,148);stroke:rgb(224,209,148);stroke-width:1px;"/>
            </g>
            <g transform="matrix(1,0,0,1,-22.85,1348.15)">
                <rect x="1371" y="159.95" width="45.7" height="45.7" style="fill:rgb(224,209,148);stroke:rgb(224,209,148);stroke-width:1px;"/>
            </g>
            <g transform="matrix(1,0,0,1,-159.95,1348.15)">
                <rect x="1371" y="159.95" width="45.7" height="45.7" style="fill:rgb(224,209,148);stroke:rgb(224,209,148);stroke-width:1px;"/>
            </g>
            <g transform="matrix(1,0,0,1,-297.05,1348.15)">
                <rect x="1371" y="159.95" width="45.7" height="45.7" style="fill:rgb(224,209,148);stroke:rgb(224,209,148);stroke-width:1px;"/>
            </g>
            <g transform="matrix(1,0,0,1,-434.15,1348.15)">
                <rect x="1371" y="159.95" width="45.7" height="45.7" style="fill:rgb(224,209,148);stroke:rgb(224,209,148);stroke-width:1px;"/>
            </g>
            <g transform="matrix(1,0,0,1,-571.25,1348.15)">
                <rect x="1371" y="159.95" width="45.7" height="45.7" style="fill:rgb(224,209,148);stroke:rgb(224,209,148);stroke-width:1px;"/>
            </g>
            <g transform="matrix(1,0,0,1,-708.35,1348.15)">
                <rect x="1371" y="159.95" width="45.7" height="45.7" style="fill:rgb(224,209,148);stroke:rgb(224,209,148);stroke-width:1px;"/>
            </g>
            <g transform="matrix(1,0,0,1,-845.45,1348.15)">
                <rect x="1371" y="159.95" width="45.7" height="45.7" style="fill:rgb(224,209,148);stroke:rgb(224,209,148);stroke-width:1px;"/>
            </g>
            <g transform="matrix(1,0,0,1,114.25,1348.15)">
                <rect x="1371" y="159.95" width="45.7" height="45.7" style="fill:rgb(224,209,148);stroke:rgb(224,209,148);stroke-width:1px;"/>
            </g>
            <g transform="matrix(1,0,0,1,365.6,1279.6)">
                <rect x="1371" y="159.95" width="45.7" height="45.7" style="fill:rgb(224,209,148);stroke:rgb(224,209,148);stroke-width:1px;"/>
            </g>
            <g transform="matrix(1,0,0,1,457,1188.2)">
                <rect x="1371" y="159.95" width="45.7" height="45.7" style="fill:rgb(224,209,148);stroke:rgb(224,209,148);stroke-width:1px;"/>
            </g>
            <g transform="matrix(1,0,0,1,-68.55,-45.7)">
                <path d="M639.8,388.45L639.8,365.6L685.5,319.9L731.2,274.2L776.9,228.5L822.6,205.65L868.3,182.8L868.3,159.95L891.15,159.95L914,182.8L914,205.65L959.7,251.35L959.7,274.2L799.75,274.2L731.2,342.75L685.5,388.45L639.8,388.45Z" style="fill:rgb(224,209,148);stroke:rgb(224,209,148);stroke-width:1px;"/>
            </g>
        </g>
        <g id="Layer10">
            <g transform="matrix(1,0,0,1,-68.55,-45.7)">
                <rect x="1553.8" y="616.95" width="137.1" height="45.7" style="fill:rgb(115,77,0);stroke:rgb(115,77,0);stroke-width:1px;"/>
            </g>
            <g transform="matrix(1,0,0,1,-68.55,45.7)">
                <rect x="1553.8" y="616.95" width="137.1" height="45.7" style="fill:rgb(115,77,0);stroke:rgb(115,77,0);stroke-width:1px;"/>
            </g>
            <g transform="matrix(1,0,0,1,-68.55,137.1)">
                <rect x="1553.8" y="616.95" width="137.1" height="45.7" style="fill:rgb(115,77,0);stroke:rgb(115,77,0);stroke-width:1px;"/>
            </g>
        </g>
        <g transform="matrix(1,0,0,1,-68.55,-45.7)">
            <g id="Layer9">
                <path d="M731.2,411.3L731.2,365.6L754.05,342.75L799.75,342.75L822.6,365.6L822.6,411.3L799.75,434.15L754.05,434.15L731.2,411.3Z" style="fill:rgb(206,36,32);stroke:rgb(206,36,32);stroke-width:1px;"/>
            </g>
        </g>
    </g>
</svg>
