<?xml version="1.0" encoding="UTF-8" standalone="no"?>
<!DOCTYPE svg PUBLIC "-//W3C//DTD SVG 1.1//EN" "http://www.w3.org/Graphics/SVG/1.1/DTD/svg11.dtd">
<svg width="100%" height="100%" viewBox="0 0 4634 3475" version="1.1" xmlns="http://www.w3.org/2000/svg" xmlns:xlink="http://www.w3.org/1999/xlink" xml:space="preserve" xmlns:serif="http://www.serif.com/" style="fill-rule:evenodd;clip-rule:evenodd;stroke-linecap:round;stroke-linejoin:round;stroke-miterlimit:1.5;">
    <g transform="matrix(2.08333,0,0,2.08333,0,0)">
        <g transform="matrix(1,0,0,1,-7.65,-11.45)">
            <g id="Layer10">
                <path d="M891.15,342.75L868.3,365.6L868.3,434.15L959.7,525.55L1051.1,525.55L1096.8,479.85L1393.85,479.85L1416.7,502.7L1416.7,731.2L1393.85,754.05L1279.6,754.05L1279.6,799.75L1485.25,799.75L1508.1,776.9L1508.1,502.7L1530.95,479.85L1668.05,479.85L1690.9,502.7L1690.9,822.6L1668.05,845.45L1485.25,845.45L1462.4,868.3L1462.4,1028.25L1508.1,1119.65L1508.1,1165.35L1530.95,1165.35L1553.8,1142.5L1553.8,1005.4L1576.65,982.55L1668.05,982.55L1690.9,1005.4L1690.9,1028.25L1622.35,1028.25L1599.5,1051.1L1599.5,1142.5L1622.35,1165.35L1668.05,1165.35L1690.9,1188.2L1690.9,1302.45L1553.8,1439.55L1279.6,1439.55L822.6,1485.25L411.3,1508.1L411.3,1530.95L1690.9,1530.95L1736.6,1485.25L1782.3,1439.55L1828,1393.85L1828,251.35L1782.3,251.35L1782.3,205.65L1371,205.65L1371,251.35L1325.3,251.35L1325.3,365.6L1302.45,388.45L1005.4,388.45L1005.4,342.75L891.15,342.75Z" style="fill:rgb(176,192,191);stroke:rgb(176,192,191);stroke-width:1px;"/>
            </g>
        </g>
        <g id="Layer16">
            <g transform="matrix(1,0,0,1,-7.65,-11.45)">
                <path d="M1279.6,1485.25L1416.7,1439.55L1142.5,1439.55L1142.5,1485.25L1279.6,1485.25Z" style="fill:rgb(148,141,143);stroke:rgb(148,141,143);stroke-width:1px;"/>
            </g>
            <g transform="matrix(1,0,0,1,-7.65,-11.45)">
                <path d="M868.3,1530.95L1005.4,1485.25L731.2,1485.25L731.2,1530.95L868.3,1530.95Z" style="fill:rgb(148,141,143);stroke:rgb(148,141,143);stroke-width:1px;"/>
            </g>
        </g>
        <g id="Layer17">
            <g transform="matrix(1,0,0,1,-7.65,-11.45)">
                <rect x="1005.4" y="1439.55" width="137.1" height="45.7" style="fill:rgb(113,113,115);stroke:rgb(113,113,115);stroke-width:1px;"/>
            </g>
            <g transform="matrix(1,0,0,1,-7.65,-11.45)">
                <rect x="639.8" y="1485.25" width="91.4" height="45.7" style="fill:rgb(113,113,115);stroke:rgb(113,113,115);stroke-width:1px;"/>
            </g>
        </g>
        <g id="Layer18">
            <g transform="matrix(1,0,0,1,-7.65,-11.45)">
                <path d="M1005.4,1485.25L1005.4,1439.55L822.6,1485.25L1005.4,1485.25Z" style="fill:rgb(78,78,69);stroke:rgb(78,78,69);stroke-width:1px;"/>
            </g>
            <g transform="matrix(1,0,0,1,-7.65,-11.45)">
                <path d="M639.8,1485.25L639.8,1530.95L411.3,1530.95L411.3,1508.1L639.8,1485.25Z" style="fill:rgb(78,78,69);stroke:rgb(78,78,69);stroke-width:1px;"/>
            </g>
        </g>
        <g id="Layer14">
            <g transform="matrix(1,0,0,1,-7.65,-11.45)">
                <path d="M731.2,319.9L685.5,342.75L525.55,342.75L548.4,297.05L594.1,251.35L639.8,205.65L685.5,159.95L776.9,114.25L914,68.55L1256.75,68.55L1279.6,91.4L1279.6,114.25L1211.05,114.25L1142.5,159.95L1096.8,159.95L1051.1,205.65L1005.4,251.35L1005.4,274.2L1028.25,297.05L1073.95,297.05L1119.65,251.35L1165.35,251.35L1188.2,274.2L1188.2,297.05L1165.35,297.05L1142.5,319.9L1142.5,388.45L1005.4,388.45L959.7,342.75L959.7,319.9L936.85,297.05L776.9,297.05L731.2,319.9" style="fill:rgb(66,158,177);stroke:rgb(66,158,177);stroke-width:1px;"/>
            </g>
            <g transform="matrix(1,0,0,1,-7.65,-11.45)">
                <path d="M1211.05,754.05L1233.9,731.2L1233.9,685.5L1211.05,662.65L1005.4,662.65L959.7,708.35L914,731.2L914,754.05L1211.05,754.05Z" style="fill:rgb(66,158,177);stroke:rgb(66,158,177);stroke-width:1px;"/>
            </g>
            <g transform="matrix(1,0,0,1,-7.65,-11.45)">
                <path d="M868.3,845.45L845.45,845.45L776.9,868.3L731.2,891.15L685.5,936.85L639.8,982.55L594.1,1073.95L594.1,1165.35L639.8,1256.75L685.5,1325.3L776.9,1393.85L1005.4,1393.85L1051.1,1348.15L1142.5,1302.45L1142.5,1256.75L1119.65,1256.75L1051.1,1256.75L959.7,1302.45L822.6,1302.45L776.9,1256.75L731.2,1165.35L731.2,1005.4L776.9,936.85L799.75,914L868.3,868.3L868.3,845.45Z" style="fill:rgb(66,158,177);stroke:rgb(66,158,177);stroke-width:1px;"/>
            </g>
        </g>
        <g id="Layer13">
            <g transform="matrix(1,0,0,1,-7.65,-11.45)">
                <path d="M1668.05,1119.65L1645.2,1096.8L1668.05,1073.95L1690.9,1096.8L1668.05,1119.65Z" style="fill:rgb(109,145,162);stroke:rgb(109,145,162);stroke-width:1px;"/>
            </g>
            <g transform="matrix(1,0,0,1,83.75,125.65)">
                <path d="M1668.05,1119.65L1645.2,1096.8L1668.05,1073.95L1690.9,1096.8L1668.05,1119.65Z" style="fill:rgb(109,145,162);stroke:rgb(109,145,162);stroke-width:1px;"/>
            </g>
            <g transform="matrix(1,0,0,1,38.05,262.75)">
                <path d="M1668.05,1119.65L1645.2,1096.8L1668.05,1073.95L1690.9,1096.8L1668.05,1119.65Z" style="fill:rgb(109,145,162);stroke:rgb(109,145,162);stroke-width:1px;"/>
            </g>
            <g transform="matrix(1,0,0,1,-281.85,399.85)">
                <path d="M1668.05,1119.65L1645.2,1096.8L1668.05,1073.95L1690.9,1096.8L1668.05,1119.65Z" style="fill:rgb(109,145,162);stroke:rgb(109,145,162);stroke-width:1px;"/>
            </g>
            <g transform="matrix(1,0,0,1,-418.95,399.85)">
                <path d="M1668.05,1119.65L1645.2,1096.8L1668.05,1073.95L1690.9,1096.8L1668.05,1119.65Z" style="fill:rgb(109,145,162);stroke:rgb(109,145,162);stroke-width:1px;"/>
            </g>
            <g transform="matrix(1,0,0,1,-601.75,399.85)">
                <path d="M1668.05,1119.65L1645.2,1096.8L1668.05,1073.95L1690.9,1096.8L1668.05,1119.65Z" style="fill:rgb(109,145,162);stroke:rgb(109,145,162);stroke-width:1px;"/>
            </g>
        </g>
        <g id="Layer12">
            <g transform="matrix(1,0,0,1,-7.65,-11.45)">
                <path d="M1553.8,616.95L1553.8,548.4L1576.65,525.55L1645.2,525.55L1645.2,616.95L1553.8,616.95Z" style="fill:rgb(239,210,108);stroke:rgb(239,210,108);stroke-width:1px;"/>
            </g>
            <g transform="matrix(1,0,0,1,-7.65,-11.45)">
                <rect x="1553.8" y="662.65" width="91.4" height="45.7" style="fill:rgb(239,210,108);stroke:rgb(239,210,108);stroke-width:1px;"/>
            </g>
            <g transform="matrix(1,0,0,1,-7.65,-11.45)">
                <path d="M1553.8,754.05L1645.2,754.05L1645.2,799.75L1576.65,799.75L1553.8,776.9L1553.8,754.05Z" style="fill:rgb(239,210,108);stroke:rgb(239,210,108);stroke-width:1px;"/>
            </g>
            <g transform="matrix(1,0,0,1,-7.65,-11.45)">
                <path d="M1462.4,1073.95L1508.1,1119.65L1508.1,1165.35L1279.6,1165.35L1279.6,1096.8L1302.45,1073.95L1462.4,1073.95Z" style="fill:rgb(239,210,108);stroke:rgb(239,210,108);stroke-width:1px;"/>
            </g>
            <g transform="matrix(1,0,0,1,-7.65,-11.45)">
                <path d="M914,594.1L914,502.7L891.15,479.85L754.05,479.85L708.35,434.15L685.5,342.75L388.45,342.75L365.6,365.6L365.6,479.85L388.45,457L434.15,434.15L457,434.15L457,479.85L479.85,457L479.85,434.15L548.4,434.15L548.4,479.85L571.25,457L571.25,434.15L616.95,434.15L639.8,457L639.8,479.85L685.5,525.55L799.75,525.55L822.6,548.4L799.75,571.25L616.95,571.25L616.95,548.4L594.1,525.55L594.1,571.25L525.55,571.25L525.55,548.4L502.7,525.55L502.7,571.25L479.85,571.25L434.15,548.4L411.3,525.55L411.3,594.1L434.15,616.95L891.15,616.95L914,594.1Z" style="fill:rgb(239,210,108);stroke:rgb(239,210,108);stroke-width:1px;"/>
            </g>
        </g>
        <g id="Layer11">
            <g transform="matrix(1,0,0,1,-7.65,-11.45)">
                <path d="M1325.3,297.05L1416.7,388.45L1508.1,388.45L1508.1,297.05L1416.7,205.65L1371,205.65L1325.3,251.35L1325.3,297.05Z" style="fill:rgb(38,62,83);stroke:rgb(38,62,83);stroke-width:1px;"/>
            </g>
            <g transform="matrix(1,0,0,1,-7.65,-11.45)">
                <rect x="1553.8" y="205.65" width="45.7" height="182.8" style="fill:rgb(38,62,83);stroke:rgb(38,62,83);stroke-width:1px;"/>
            </g>
            <g transform="matrix(1,0,0,1,-7.65,-11.45)">
                <path d="M1736.6,205.65L1645.2,297.05L1645.2,388.45L1736.6,388.45L1828,297.05L1828,251.35L1782.3,205.65L1736.6,205.65Z" style="fill:rgb(38,62,83);stroke:rgb(38,62,83);stroke-width:1px;"/>
            </g>
            <g transform="matrix(1,0,0,1,-7.65,-11.45)">
                <path d="M1828,388.45L1782.3,388.45L1736.6,434.15L1736.6,479.85L1828,479.85L1828,388.45Z" style="fill:rgb(38,62,83);stroke:rgb(38,62,83);stroke-width:1px;"/>
            </g>
            <g transform="matrix(1,0,0,1,-7.65,-11.45)">
                <rect x="1736.6" y="525.55" width="91.4" height="91.4" style="fill:rgb(38,62,83);stroke:rgb(38,62,83);stroke-width:1px;"/>
            </g>
            <g transform="matrix(1,0,0,1,-7.65,-11.45)">
                <rect x="1736.6" y="708.35" width="91.4" height="91.4" style="fill:rgb(38,62,83);stroke:rgb(38,62,83);stroke-width:1px;"/>
            </g>
            <g transform="matrix(1,0,0,1,-7.65,-11.45)">
                <rect x="1736.6" y="845.45" width="91.4" height="91.4" style="fill:rgb(38,62,83);stroke:rgb(38,62,83);stroke-width:1px;"/>
            </g>
        </g>
        <g id="Layer19">
            <g transform="matrix(1,0,0,1,-7.65,-11.45)">
                <rect x="1553.8" y="342.75" width="45.7" height="45.7" style="fill:rgb(77,101,125);stroke:rgb(77,101,125);stroke-width:1px;"/>
            </g>
            <g transform="matrix(1,0,0,1,-7.65,-11.45)">
                <path d="M1645.2,297.05L1645.2,342.75L1782.3,205.65L1736.6,205.65L1645.2,297.05Z" style="fill:rgb(77,101,125);stroke:rgb(77,101,125);stroke-width:1px;"/>
            </g>
            <g transform="matrix(1,0,0,1,-7.65,-11.45)">
                <path d="M1828,251.35L1828,297.05L1736.6,388.45L1690.9,388.45L1828,251.35Z" style="fill:rgb(77,101,125);stroke:rgb(77,101,125);stroke-width:1px;"/>
            </g>
            <g transform="matrix(1,0,0,1,-7.65,-11.45)">
                <path d="M1462.4,388.45L1416.7,388.45L1325.3,297.05L1325.3,251.35L1462.4,388.45Z" style="fill:rgb(77,101,125);stroke:rgb(77,101,125);stroke-width:1px;"/>
            </g>
            <g transform="matrix(1,0,0,1,-7.65,-11.45)">
                <path d="M1508.1,342.75L1508.1,297.05L1416.7,205.65L1371,205.65L1508.1,342.75Z" style="fill:rgb(77,101,125);stroke:rgb(77,101,125);stroke-width:1px;"/>
            </g>
            <g transform="matrix(1,0,0,1,-7.65,-11.45)">
                <path d="M1828,388.45L1736.6,434.15L1828,434.15L1828,388.45Z" style="fill:rgb(77,101,125);stroke:rgb(77,101,125);stroke-width:1px;"/>
            </g>
            <g transform="matrix(1,0,0,1,-7.65,-11.45)">
                <rect x="1736.6" y="571.25" width="91.4" height="45.7" style="fill:rgb(77,101,125);stroke:rgb(77,101,125);stroke-width:1px;"/>
            </g>
            <g transform="matrix(1,0,0,1,-7.65,-11.45)">
                <rect x="1736.6" y="754.05" width="91.4" height="45.7" style="fill:rgb(77,101,125);stroke:rgb(77,101,125);stroke-width:1px;"/>
            </g>
            <g transform="matrix(1,0,0,1,-7.65,-11.45)">
                <rect x="1736.6" y="891.15" width="91.4" height="45.7" style="fill:rgb(77,101,125);stroke:rgb(77,101,125);stroke-width:1px;"/>
            </g>
            <g transform="matrix(1,0,0,1,-7.65,-11.45)">
                <rect x="1736.6" y="1028.25" width="91.4" height="45.7" style="fill:rgb(77,101,125);stroke:rgb(77,101,125);stroke-width:1px;"/>
            </g>
        </g>
        <g id="Layer9">
            <g transform="matrix(1,0,0,1,-7.65,-11.45)">
                <path d="M1211.05,754.05L1233.9,776.9L1233.9,868.3L1211.05,891.15L1005.4,891.15L1051.1,845.45L1119.65,845.45L1142.5,822.6L1119.65,799.75L1005.4,799.75L1051.1,754.05L1211.05,754.05Z" style="fill:rgb(45,33,37);stroke:rgb(45,33,37);stroke-width:1px;"/>
            </g>
            <g transform="matrix(1,0,0,1,-7.65,-11.45)">
                <path d="M1233.9,1051.1L1211.05,1028.25L1005.4,1028.25L959.7,1073.95L1119.65,1073.95L1142.5,1096.8L1119.65,1119.65L1005.4,1119.65L959.7,1165.35L1211.05,1165.35L1233.9,1142.5L1233.9,1051.1Z" style="fill:rgb(45,33,37);stroke:rgb(45,33,37);stroke-width:1px;"/>
            </g>
            <g transform="matrix(1,0,0,1,-7.65,-11.45)">
                <path d="M1279.6,754.05L1279.6,685.5L1302.45,662.65L1348.15,662.65L1325.3,685.5L1325.3,731.2L1348.15,754.05L1279.6,754.05Z" style="fill:rgb(45,33,37);stroke:rgb(45,33,37);stroke-width:1px;"/>
            </g>
        </g>
        <g transform="matrix(1,0,0,1,-7.65,-11.45)">
            <g id="Layer8">
                <path d="M731.2,411.3L731.2,365.6L754.05,342.75L799.75,342.75L822.6,365.6L822.6,411.3L799.75,434.15L754.05,434.15L731.2,411.3Z" style="fill:rgb(240,50,32);stroke:rgb(240,50,32);stroke-width:1px;"/>
            </g>
        </g>
        <g id="Layer15">
            <g transform="matrix(1,0,0,1,-7.65,-11.45)">
                <path d="M1371,137.1L1393.85,114.25L1416.7,137.1L1393.85,159.95L1371,137.1Z" style="fill:rgb(166,159,114);stroke:rgb(166,159,114);stroke-width:1px;"/>
            </g>
            <g transform="matrix(1,0,0,1,129.45,-11.45)">
                <path d="M1371,137.1L1393.85,114.25L1416.7,137.1L1393.85,159.95L1371,137.1Z" style="fill:rgb(166,159,114);stroke:rgb(166,159,114);stroke-width:1px;"/>
            </g>
            <g transform="matrix(1,0,0,1,266.55,-11.45)">
                <path d="M1371,137.1L1393.85,114.25L1416.7,137.1L1393.85,159.95L1371,137.1Z" style="fill:rgb(166,159,114);stroke:rgb(166,159,114);stroke-width:1px;"/>
            </g>
            <g transform="matrix(1,0,0,1,403.65,34.25)">
                <path d="M1371,137.1L1393.85,114.25L1416.7,137.1L1393.85,159.95L1371,137.1Z" style="fill:rgb(166,159,114);stroke:rgb(166,159,114);stroke-width:1px;"/>
            </g>
            <g transform="matrix(1,0,0,1,449.35,171.35)">
                <path d="M1371,137.1L1393.85,114.25L1416.7,137.1L1393.85,159.95L1371,137.1Z" style="fill:rgb(166,159,114);stroke:rgb(166,159,114);stroke-width:1px;"/>
            </g>
            <g transform="matrix(1,0,0,1,449.35,308.45)">
                <path d="M1371,137.1L1393.85,114.25L1416.7,137.1L1393.85,159.95L1371,137.1Z" style="fill:rgb(166,159,114);stroke:rgb(166,159,114);stroke-width:1px;"/>
            </g>
            <g transform="matrix(1,0,0,1,449.35,445.55)">
                <path d="M1371,137.1L1393.85,114.25L1416.7,137.1L1393.85,159.95L1371,137.1Z" style="fill:rgb(166,159,114);stroke:rgb(166,159,114);stroke-width:1px;"/>
            </g>
            <g transform="matrix(1,0,0,1,449.35,582.65)">
                <path d="M1371,137.1L1393.85,114.25L1416.7,137.1L1393.85,159.95L1371,137.1Z" style="fill:rgb(166,159,114);stroke:rgb(166,159,114);stroke-width:1px;"/>
            </g>
            <g transform="matrix(1,0,0,1,449.35,719.75)">
                <path d="M1371,137.1L1393.85,114.25L1416.7,137.1L1393.85,159.95L1371,137.1Z" style="fill:rgb(166,159,114);stroke:rgb(166,159,114);stroke-width:1px;"/>
            </g>
            <g transform="matrix(1,0,0,1,449.35,856.85)">
                <path d="M1371,137.1L1393.85,114.25L1416.7,137.1L1393.85,159.95L1371,137.1Z" style="fill:rgb(166,159,114);stroke:rgb(166,159,114);stroke-width:1px;"/>
            </g>
            <g transform="matrix(1,0,0,1,449.35,993.95)">
                <path d="M1371,137.1L1393.85,114.25L1416.7,137.1L1393.85,159.95L1371,137.1Z" style="fill:rgb(166,159,114);stroke:rgb(166,159,114);stroke-width:1px;"/>
            </g>
            <g transform="matrix(1,0,0,1,449.35,1131.05)">
                <path d="M1371,137.1L1393.85,114.25L1416.7,137.1L1393.85,159.95L1371,137.1Z" style="fill:rgb(166,159,114);stroke:rgb(166,159,114);stroke-width:1px;"/>
            </g>
            <g transform="matrix(1,0,0,1,449.35,1313.85)">
                <path d="M1371,137.1L1393.85,114.25L1416.7,137.1L1393.85,159.95L1371,137.1Z" style="fill:rgb(166,159,114);stroke:rgb(166,159,114);stroke-width:1px;"/>
            </g>
            <g transform="matrix(1,0,0,1,312.25,1450.95)">
                <path d="M1371,137.1L1393.85,114.25L1416.7,137.1L1393.85,159.95L1371,137.1Z" style="fill:rgb(166,159,114);stroke:rgb(166,159,114);stroke-width:1px;"/>
            </g>
            <g transform="matrix(1,0,0,1,129.45,1450.95)">
                <path d="M1371,137.1L1393.85,114.25L1416.7,137.1L1393.85,159.95L1371,137.1Z" style="fill:rgb(166,159,114);stroke:rgb(166,159,114);stroke-width:1px;"/>
            </g>
            <g transform="matrix(1,0,0,1,-53.35,1450.95)">
                <path d="M1371,137.1L1393.85,114.25L1416.7,137.1L1393.85,159.95L1371,137.1Z" style="fill:rgb(166,159,114);stroke:rgb(166,159,114);stroke-width:1px;"/>
            </g>
            <g transform="matrix(1,0,0,1,-236.15,1450.95)">
                <path d="M1371,137.1L1393.85,114.25L1416.7,137.1L1393.85,159.95L1371,137.1Z" style="fill:rgb(166,159,114);stroke:rgb(166,159,114);stroke-width:1px;"/>
            </g>
            <g transform="matrix(1,0,0,1,-418.95,1450.95)">
                <path d="M1371,137.1L1393.85,114.25L1416.7,137.1L1393.85,159.95L1371,137.1Z" style="fill:rgb(166,159,114);stroke:rgb(166,159,114);stroke-width:1px;"/>
            </g>
            <g transform="matrix(1,0,0,1,-601.75,1450.95)">
                <path d="M1371,137.1L1393.85,114.25L1416.7,137.1L1393.85,159.95L1371,137.1Z" style="fill:rgb(166,159,114);stroke:rgb(166,159,114);stroke-width:1px;"/>
            </g>
            <g transform="matrix(1,0,0,1,-784.55,1450.95)">
                <path d="M1371,137.1L1393.85,114.25L1416.7,137.1L1393.85,159.95L1371,137.1Z" style="fill:rgb(166,159,114);stroke:rgb(166,159,114);stroke-width:1px;"/>
            </g>
        </g>
    </g>
</svg>
