<?xml version="1.0" encoding="UTF-8" standalone="no"?>
<!DOCTYPE svg PUBLIC "-//W3C//DTD SVG 1.1//EN" "http://www.w3.org/Graphics/SVG/1.1/DTD/svg11.dtd">
<svg width="100%" height="100%" viewBox="0 0 4634 3475" version="1.1" xmlns="http://www.w3.org/2000/svg" xmlns:xlink="http://www.w3.org/1999/xlink" xml:space="preserve" xmlns:serif="http://www.serif.com/" style="fill-rule:evenodd;clip-rule:evenodd;stroke-linecap:round;stroke-linejoin:round;stroke-miterlimit:1.5;">
    <g transform="matrix(2.08333,0,0,2.08333,0,0)">
        <g id="Layer8">
            <g transform="matrix(1,0,0,1,-30.5,-11.45)">
                <path d="M457,982.55L365.6,1073.95L388.45,1302.45L411.3,1233.9L434.15,1211.05L548.4,1165.35L548.4,1073.95L502.7,982.55L457,982.55Z" style="fill:rgb(175,160,97);stroke:rgb(175,160,97);stroke-width:1px;"/>
            </g>
            <g transform="matrix(1,0,0,1,-30.5,-11.45)">
                <path d="M479.85,1439.55L502.7,1371L525.55,1348.15L639.8,1302.45L639.8,1256.75L594.1,1211.05L502.7,1211.05L457,1256.75L479.85,1439.55Z" style="fill:rgb(175,160,97);stroke:rgb(175,160,97);stroke-width:1px;"/>
            </g>
            <g transform="matrix(1,0,0,1,-30.5,-11.45)">
                <path d="M639.8,1348.15L594.1,1393.85L616.95,1530.95L639.8,1462.4L662.65,1439.55L731.2,1416.7L731.2,1371L708.35,1348.15L639.8,1348.15Z" style="fill:rgb(175,160,97);stroke:rgb(175,160,97);stroke-width:1px;"/>
            </g>
            <g transform="matrix(1,0,0,1,-30.5,-11.45)">
                <path d="M776.9,1439.55L731.2,1485.25L754.05,1576.65L776.9,1530.95L799.75,1508.1L845.45,1508.1L845.45,1462.4L822.6,1439.55L776.9,1439.55Z" style="fill:rgb(175,160,97);stroke:rgb(175,160,97);stroke-width:1px;"/>
            </g>
            <g transform="matrix(1,0,0,1,-30.5,-11.45)">
                <path d="M914,1530.95L868.3,1576.65L891.15,1622.35L914,1599.5L959.7,1576.65L959.7,1553.8L936.85,1530.95L914,1530.95Z" style="fill:rgb(175,160,97);stroke:rgb(175,160,97);stroke-width:1px;"/>
            </g>
            <g transform="matrix(1,0,0,1,-30.5,-11.45)">
                <path d="M1005.4,1393.85L1005.4,1439.55L1051.1,1485.25L1645.2,1485.25L1919.4,1211.05L1919.4,1165.35L1736.6,982.55L1645.2,982.55L1233.9,1393.85L1005.4,1393.85Z" style="fill:rgb(175,160,97);stroke:rgb(175,160,97);stroke-width:1px;"/>
            </g>
            <g transform="matrix(1,0,0,1,-30.5,-11.45)">
                <path d="M776.9,1165.35L822.6,1211.05L1279.6,1211.05L1599.5,891.15L1599.5,799.75L1553.8,754.05L1462.4,754.05L1096.8,1119.65L776.9,1119.65L776.9,1165.35Z" style="fill:rgb(175,160,97);stroke:rgb(175,160,97);stroke-width:1px;"/>
            </g>
            <g transform="matrix(1,0,0,1,-30.5,-11.45)">
                <path d="M1919.4,616.95L1896.55,616.95L1782.3,731.2L1896.55,845.45L1919.4,845.45L1919.4,616.95Z" style="fill:rgb(175,160,97);stroke:rgb(175,160,97);stroke-width:1px;"/>
            </g>
            <g transform="matrix(1,0,0,1,-30.5,262.75)">
                <path d="M1919.4,616.95L1896.55,616.95L1782.3,731.2L1896.55,845.45L1919.4,845.45L1919.4,616.95Z" style="fill:rgb(175,160,97);stroke:rgb(175,160,97);stroke-width:1px;"/>
            </g>
            <g transform="matrix(1,0,0,1,-30.5,-11.45)">
                <path d="M1142.5,754.05L1096.8,708.35L959.7,708.35L1005.4,754.05L1028.25,799.75L1073.95,845.45L1119.65,845.45L1142.5,822.6L1142.5,754.05Z" style="fill:rgb(175,160,97);stroke:rgb(175,160,97);stroke-width:1px;"/>
            </g>
            <g transform="matrix(1,0,0,1,-30.5,-11.45)">
                <path d="M914,297.05L1005.4,205.65L1096.8,159.95L1142.5,137.1L1119.65,251.35L1096.8,297.05L1051.1,388.45L914,388.45L914,297.05Z" style="fill:rgb(175,160,97);stroke:rgb(175,160,97);stroke-width:1px;"/>
            </g>
            <g transform="matrix(1,0,0,1,243.7,-11.45)">
                <path d="M914,297.05L1005.4,205.65L1096.8,159.95L1142.5,137.1L1119.65,251.35L1096.8,297.05L1051.1,388.45L914,388.45L914,297.05Z" style="fill:rgb(175,160,97);stroke:rgb(175,160,97);stroke-width:1px;"/>
            </g>
            <g transform="matrix(1,0,0,1,517.9,-11.45)">
                <path d="M914,297.05L1005.4,205.65L1096.8,159.95L1142.5,137.1L1119.65,251.35L1096.8,297.05L1051.1,388.45L914,388.45L914,297.05Z" style="fill:rgb(175,160,97);stroke:rgb(175,160,97);stroke-width:1px;"/>
            </g>
            <g transform="matrix(1,0,0,1,769.25,102.8)">
                <path d="M891.15,274.2L1005.4,228.5L1051.1,205.65L1119.65,159.95L1096.8,251.35L1073.95,319.9L1028.25,411.3L982.55,411.3L936.85,365.6L891.15,297.05L891.15,274.2Z" style="fill:rgb(175,160,97);stroke:rgb(175,160,97);stroke-width:1px;"/>
            </g>
        </g>
        <g id="Layer9">
            <g transform="matrix(1,0,0,1,-30.5,-11.45)">
                <path d="M1645.2,868.3L1759.45,754.05L1873.7,868.3L1759.45,982.55L1645.2,868.3Z" style="fill:rgb(187,98,48);stroke:rgb(187,98,48);stroke-width:1px;"/>
            </g>
            <g transform="matrix(1,0,0,1,-30.5,-11.45)">
                <path d="M1645.2,548.4L1713.75,479.85L1782.3,548.4L1713.75,616.95L1645.2,548.4Z" style="fill:rgb(187,98,48);stroke:rgb(187,98,48);stroke-width:1px;"/>
            </g>
            <g transform="matrix(1,0,0,1,-30.5,-11.45)">
                <path d="M1439.55,479.85L1371,548.4L1439.55,616.95L1508.1,548.4L1439.55,479.85Z" style="fill:rgb(187,98,48);stroke:rgb(187,98,48);stroke-width:1px;"/>
            </g>
            <g transform="matrix(1,0,0,1,-30.5,-11.45)">
                <path d="M1096.8,548.4L1165.35,479.85L1233.9,548.4L1165.35,616.95L1096.8,548.4Z" style="fill:rgb(187,98,48);stroke:rgb(187,98,48);stroke-width:1px;"/>
            </g>
            <g transform="matrix(1,0,0,1,-30.5,-11.45)">
                <path d="M914,68.55L868.3,159.95L868.3,274.2L891.15,297.05L914,274.2L959.7,205.65L1005.4,159.95L1005.4,91.4L982.55,68.55L914,68.55Z" style="fill:rgb(187,98,48);stroke:rgb(187,98,48);stroke-width:1px;"/>
            </g>
        </g>
        <g id="Layer10">
            <g transform="matrix(1,0,0,1,-30.5,-11.45)">
                <path d="M1188.2,868.3L1211.05,891.15L1302.45,891.15L1416.7,776.9L1416.7,639.8L1393.85,616.95L1211.05,616.95L1188.2,639.8L1188.2,731.2L1211.05,754.05L1302.45,754.05L1325.3,731.2L1325.3,708.35L1256.75,708.35L1233.9,685.5L1256.75,662.65L1348.15,662.65L1371,685.5L1371,754.05L1325.3,799.75L1211.05,799.75L1188.2,822.6L1188.2,868.3Z" style="fill:rgb(211,191,176);stroke:rgb(211,191,176);stroke-width:1px;"/>
            </g>
            <g transform="matrix(1,0,0,1,-30.5,-11.45)">
                <path d="M1325.3,1188.2L1439.55,1073.95L1508.1,1096.8L1393.85,1211.05L1325.3,1188.2Z" style="fill:rgb(211,191,176);stroke:rgb(211,191,176);stroke-width:1px;"/>
            </g>
            <g transform="matrix(1,0,0,1,129.45,-171.4)">
                <path d="M1325.3,1188.2L1439.55,1073.95L1508.1,1096.8L1393.85,1211.05L1325.3,1188.2Z" style="fill:rgb(211,191,176);stroke:rgb(211,191,176);stroke-width:1px;"/>
            </g>
            <g transform="matrix(1,0,0,1,-30.5,-11.45)">
                <path d="M1005.4,1530.95L1005.4,1576.65L1051.1,1622.35L1188.2,1622.35L1188.2,1530.95L1005.4,1530.95Z" style="fill:rgb(211,191,176);stroke:rgb(211,191,176);stroke-width:1px;"/>
            </g>
            <g transform="matrix(1,0,0,1,-30.5,-11.45)">
                <rect x="1233.9" y="1530.95" width="228.5" height="91.4" style="fill:rgb(211,191,176);stroke:rgb(211,191,176);stroke-width:1px;"/>
            </g>
            <g transform="matrix(1,0,0,1,-30.5,-11.45)">
                <path d="M1508.1,1530.95L1668.05,1530.95L1713.75,1622.35L1508.1,1622.35L1508.1,1530.95Z" style="fill:rgb(211,191,176);stroke:rgb(211,191,176);stroke-width:1px;"/>
            </g>
            <g transform="matrix(1,0,0,1,-30.5,-11.45)">
                <path d="M1690.9,1508.1L1736.6,1599.5L1919.4,1439.55L1919.4,1302.45L1896.55,1302.45L1873.7,1325.3L1873.7,1348.15L1690.9,1508.1Z" style="fill:rgb(211,191,176);stroke:rgb(211,191,176);stroke-width:1px;"/>
            </g>
            <g transform="matrix(1,0,0,1,-30.5,-11.45)">
                <path d="M1462.4,434.15L1462.4,457L1553.8,548.4L1553.8,571.25L1462.4,662.65L1462.4,708.35L1576.65,708.35L1668.05,799.75L1828,639.8L1828,571.25L1805.15,571.25L1713.75,662.65L1599.5,548.4L1690.9,457L1690.9,434.15L1462.4,434.15Z" style="fill:rgb(211,191,176);stroke:rgb(211,191,176);stroke-width:1px;"/>
            </g>
            <g transform="matrix(1,0,0,1,-30.5,-11.45)">
                <path d="M1416.7,479.85L1325.3,571.25L1279.6,571.25L1188.2,479.85L1188.2,434.15L1325.3,434.15L1371,388.45L1416.7,388.45L1416.7,479.85Z" style="fill:rgb(211,191,176);stroke:rgb(211,191,176);stroke-width:1px;"/>
            </g>
            <g transform="matrix(1,0,0,1,-304.7,-11.45)">
                <path d="M1416.7,479.85L1325.3,571.25L1279.6,571.25L1188.2,479.85L1188.2,434.15L1325.3,434.15L1371,388.45L1416.7,388.45L1416.7,479.85Z" style="fill:rgb(211,191,176);stroke:rgb(211,191,176);stroke-width:1px;"/>
            </g>
            <g transform="matrix(1,0,0,1,-30.5,-11.45)">
                <path d="M1112,594.1L1142.5,616.95L1142.5,708.35L1096.8,662.65L1051.1,616.95L1051.1,594.1L1112,594.1Z" style="fill:rgb(211,191,176);stroke:rgb(211,191,176);stroke-width:1px;"/>
            </g>
            <g transform="matrix(1,0,0,1,-30.5,-11.45)">
                <path d="M1096.8,1256.75L1256.75,1256.75L1279.6,1233.9L1325.3,1256.75L1233.9,1348.15L1142.5,1348.15L1096.8,1302.45L1096.8,1256.75Z" style="fill:rgb(211,191,176);stroke:rgb(211,191,176);stroke-width:1px;"/>
            </g>
            <g transform="matrix(1,0,0,1,-30.5,-11.45)">
                <path d="M1073.95,1256.75L1073.95,1302.45L1119.65,1348.15L1096.8,1348.15L936.85,1348.15L891.15,1256.75L1073.95,1256.75Z" style="fill:rgb(211,191,176);stroke:rgb(211,191,176);stroke-width:1px;"/>
            </g>
            <g transform="matrix(1,0,0,1,-30.5,-11.45)">
                <path d="M868.3,1302.45L959.7,1393.85L982.55,1439.55L982.55,1462.4L959.7,1485.25L914,1485.25L868.3,1439.55L776.9,1393.85L776.9,1302.45L868.3,1302.45Z" style="fill:rgb(211,191,176);stroke:rgb(211,191,176);stroke-width:1px;"/>
            </g>
            <g transform="matrix(1,0,0,1,-30.5,-11.45)">
                <path d="M594.1,1165.35L731.2,1165.35L776.9,1211.05L776.9,1279.6L754.05,1302.45L708.35,1302.45L594.1,1188.2L594.1,1165.35Z" style="fill:rgb(211,191,176);stroke:rgb(211,191,176);stroke-width:1px;"/>
            </g>
            <g transform="matrix(1,0,0,1,-30.5,-11.45)">
                <path d="M548.4,1051.1L616.95,1119.65L662.65,1119.65L685.5,1096.8L685.5,1051.1L639.8,936.85L548.4,936.85L548.4,1051.1Z" style="fill:rgb(211,191,176);stroke:rgb(211,191,176);stroke-width:1px;"/>
            </g>
            <g transform="matrix(1,0,0,1,-30.5,-11.45)">
                <path d="M411.3,982.55L594.1,799.75L594.1,776.9L616.95,754.05L639.8,754.05L776.9,891.15L822.6,891.15L822.6,799.75L776.9,708.35L685.5,616.95L662.65,616.95L639.8,594.1L639.8,571.25L594.1,548.4L594.1,594.1L571.25,616.95L479.85,616.95L457,594.1L457,571.25L411.3,548.4L411.3,754.05L365.6,845.45L365.6,959.7L388.45,982.55L411.3,982.55Z" style="fill:rgb(211,191,176);stroke:rgb(211,191,176);stroke-width:1px;"/>
            </g>
            <g transform="matrix(1,0,0,1,-30.5,-11.45)">
                <path d="M502.7,525.55L502.7,548.4L548.4,525.55L548.4,502.7L571.25,479.85L639.8,479.85L594.1,434.15L548.4,342.75L411.3,205.65L365.6,205.65L365.6,251.35L502.7,525.55Z" style="fill:rgb(211,191,176);stroke:rgb(211,191,176);stroke-width:1px;"/>
            </g>
            <g transform="matrix(1,0,0,1,-30.5,-11.45)">
                <path d="M685.5,571.25L776.9,662.65L1005.4,662.65L1005.4,616.95L822.6,434.15L731.2,434.15L685.5,479.85L685.5,571.25Z" style="fill:rgb(211,191,176);stroke:rgb(211,191,176);stroke-width:1px;"/>
            </g>
            <g transform="matrix(1,0,0,1,-30.5,-11.45)">
                <path d="M594.1,388.45L594.1,251.35L639.8,159.95L708.35,68.55L776.9,159.95L868.3,342.75L868.3,365.6L845.45,388.45L731.2,388.45L685.5,342.75L639.8,342.75L594.1,388.45Z" style="fill:rgb(211,191,176);stroke:rgb(211,191,176);stroke-width:1px;"/>
            </g>
            <g transform="matrix(1,0,0,1,-30.5,-11.45)">
                <path d="M685.5,982.55L776.9,1073.95L959.7,1073.95L959.7,1028.25L891.15,936.85L685.5,936.85L685.5,982.55Z" style="fill:rgb(211,191,176);stroke:rgb(211,191,176);stroke-width:1px;"/>
            </g>
            <g transform="matrix(1,0,0,1,-30.5,-11.45)">
                <path d="M959.7,982.55L1051.1,1073.95L1119.65,1073.95L1233.9,959.7L1233.9,936.85L1188.2,891.15L1142.5,891.15L959.7,936.85L959.7,982.55Z" style="fill:rgb(211,191,176);stroke:rgb(211,191,176);stroke-width:1px;"/>
            </g>
        </g>
        <g transform="matrix(1,0,0,1,-30.5,-11.45)">
            <g id="Layer11">
                <path d="M662.65,457L616.95,411.3L662.65,365.6L708.35,411.3L662.65,457Z" style="fill:rgb(228,206,131);stroke:rgb(228,206,131);stroke-width:1px;"/>
            </g>
        </g>
    </g>
</svg>
