<?xml version="1.0" encoding="UTF-8" standalone="no"?>
<!DOCTYPE svg PUBLIC "-//W3C//DTD SVG 1.1//EN" "http://www.w3.org/Graphics/SVG/1.1/DTD/svg11.dtd">
<svg width="100%" height="100%" viewBox="0 0 4634 3475" version="1.1" xmlns="http://www.w3.org/2000/svg" xmlns:xlink="http://www.w3.org/1999/xlink" xml:space="preserve" xmlns:serif="http://www.serif.com/" style="fill-rule:evenodd;clip-rule:evenodd;stroke-linecap:round;stroke-linejoin:round;stroke-miterlimit:1.5;">
    <g transform="matrix(2.08333,0,0,2.08333,0,0)">
        <g id="Layer6">
            <g transform="matrix(1,0,0,1,34,1)">
                <path d="M882,196L901.6,137.2L980,78.4L1058.4,78.4L1058.4,98L999.6,137.2L980,176.4L980,215.6L901.6,215.6L882,196Z" style="fill:rgb(204,156,204);stroke:rgb(204,156,204);stroke-width:1px;"/>
            </g>
            <g transform="matrix(1,0,0,1,151.6,20.6)">
                <path d="M882,196L901.6,137.2L980,78.4L1058.4,78.4L1058.4,98L999.6,137.2L980,176.4L980,254.8L901.6,215.6L882,196Z" style="fill:rgb(204,156,204);stroke:rgb(204,156,204);stroke-width:1px;"/>
            </g>
            <g transform="matrix(1,0,0,1,-83.6,-18.6)">
                <path d="M882,196L901.6,137.2L980,78.4L1058.4,78.4L1058.4,98L999.6,137.2L980,176.4L980,215.6L901.6,215.6L882,196Z" style="fill:rgb(204,156,204);stroke:rgb(204,156,204);stroke-width:1px;"/>
            </g>
            <g transform="matrix(1,0,0,1,-201.2,-38.2)">
                <path d="M862.4,196L901.6,137.2L980,78.4L1058.4,78.4L1058.4,98L999.6,137.2L980,176.4L980,215.6L842.8,254.8L862.4,196Z" style="fill:rgb(204,156,204);stroke:rgb(204,156,204);stroke-width:1px;"/>
            </g>
            <g transform="matrix(1,0,0,1,34,1)">
                <path d="M1313.2,431.2L1391.6,352.8L1391.6,156.8L1372,156.8L1313.2,215.6L1313.2,431.2Z" style="fill:rgb(204,156,204);stroke:rgb(204,156,204);stroke-width:1px;"/>
            </g>
            <g transform="matrix(1,0,0,1,34,1)">
                <path d="M1430.8,313.6L1430.8,137.2L1450.4,117.6L1489.6,117.6L1509.2,137.2L1509.2,313.6L1430.8,313.6Z" style="fill:rgb(204,156,204);stroke:rgb(204,156,204);stroke-width:1px;"/>
            </g>
            <g transform="matrix(1,0,0,1,34,1)">
                <path d="M1548.4,137.2L1548.4,313.6L1587.6,313.6L1626.8,352.8L1626.8,196L1568,137.2L1548.4,137.2Z" style="fill:rgb(204,156,204);stroke:rgb(204,156,204);stroke-width:1px;"/>
            </g>
            <g transform="matrix(1,0,0,1,34,1)">
                <path d="M1744.4,470.4L1666,392L1666,235.2L1685.6,235.2L1744.4,294L1744.4,470.4Z" style="fill:rgb(204,156,204);stroke:rgb(204,156,204);stroke-width:1px;"/>
            </g>
            <g transform="matrix(1,0,0,1,34,1)">
                <path d="M1783.6,509.6L1783.6,352.8L1803.2,352.8L1862,411.6L1862,588L1783.6,509.6Z" style="fill:rgb(204,156,204);stroke:rgb(204,156,204);stroke-width:1px;"/>
            </g>
        </g>
        <g id="Layer8">
            <g transform="matrix(1,0,0,1,34,1)">
                <path d="M1117.2,1078L1117.2,1117.2L1078,1156.4L529.2,1156.4L411.6,1038.8L411.6,921.2L744.8,588L764.4,568.4L646.8,607.6L490,646.8L411.6,686L392,705.6L372.4,686L372.4,509.6L392,509.6L431.2,548.8L450.8,529.2L490,509.6L529.2,490L568.4,490L588,509.6L627.2,509.6L646.8,490L686,470.4L725.2,450.8L744.8,450.8L744.8,411.6L725.2,411.6L705.6,392L686,411.6L646.8,411.6L627.2,392L607.6,411.6L529.2,411.6L509.6,392L490,450.8L470.4,470.4L450.8,470.4L431.2,431.2L392,470.4L372.4,470.4L352.8,431.2L313.6,470.4L294,450.8L294,333.2L842.8,333.2L842.8,666.4L823.2,666.4L568.4,921.2L568.4,999.6L646.8,1078L1117.2,1078Z" style="fill:rgb(209,192,123);stroke:rgb(209,192,123);stroke-width:1px;"/>
            </g>
            <g transform="matrix(1,0,0,1,34,1)">
                <path d="M1274,999.6L1548.4,725.2L1705.2,882L1705.2,1313.2L1626.8,1391.6L1274,1391.6L1274,1430.8L1666,1430.8L1744.4,1352.4L1744.4,842.8L1587.6,686L1509.2,686L1234.8,960.4L1195.6,960.4L1234.8,999.6L1274,999.6Z" style="fill:rgb(209,192,123);stroke:rgb(209,192,123);stroke-width:1px;"/>
            </g>
        </g>
        <g transform="matrix(1,0,0,1,34,1)">
            <g id="Layer7">
                <path d="M294,352.8L352.8,411.6L372.4,411.6L372.4,352.8L392,352.8L431.2,411.6L450.8,411.6L450.8,352.8L470.4,352.8L490,372.4L548.8,372.4L568.4,352.8L588,333.2L294,333.2L294,352.8Z" style="fill:rgb(232,128,59);stroke:rgb(232,128,59);stroke-width:1px;"/>
            </g>
        </g>
        <g id="Layer1">
            <g transform="matrix(1,0,0,1,34,1)">
                <path d="M1607.2,1470L1607.2,1548.4L1822.8,1548.4L1862,1509.2L1862,607.6L1587.6,333.2L1430.8,333.2L999.6,764.4L999.6,901.6L1019.2,921.2L1176,921.2L1176,901.6L1470,607.6L1626.8,607.6L1783.6,764.4L1744.4,1391.6L1666,1470L1607.2,1470Z" style="fill:rgb(131,121,199);stroke:rgb(131,121,199);stroke-width:1px;"/>
            </g>
            <g transform="matrix(1,0,0,1,34,1)">
                <path d="M1176,960.4L1274,1058.4L1274,1156.4L1156.4,1274L960.4,1274L960.4,1156.4L1097.6,1156.4L1136.8,1117.2L1136.8,1097.6L1136.8,1078L1038.8,980L1038.8,960.4" style="fill:rgb(131,121,199);stroke:rgb(131,121,199);stroke-width:1px;"/>
            </g>
            <g transform="matrix(1,0,0,1,34,1)">
                <path d="M294,333.2L294,254.8L372.4,176.4L411.6,176.4L490,254.8L568.4,254.8L646.8,176.4L842.8,176.4L862.4,196L940.8,196L1038.8,215.6L1117.2,294L1195.6,333.2L1274,411.6L1274,450.8L1136.8,450.8L1038.8,431.2L960.4,392L901.6,313.6L882,313.6L901.6,411.6L980,568.4L980,607.6L862.4,725.2L842.8,725.2L842.8,333.2L294,333.2Z" style="fill:rgb(131,121,199);stroke:rgb(131,121,199);stroke-width:1px;"/>
            </g>
            <g transform="matrix(1,0,0,1,34,1)">
                <path d="M999.6,960.4L1078,1038.8L744.8,1038.8L666.4,960.4L666.4,921.2L823.2,764.4L842.8,764.4L842.8,803.6L823.2,842.8L803.6,882L803.6,940.8L823.2,960.4L999.6,960.4Z" style="fill:rgb(131,121,199);stroke:rgb(131,121,199);stroke-width:1px;"/>
            </g>
            <g transform="matrix(1,0,0,1,34,1)">
                <path d="M1352.4,1097.6L1509.2,1136.8L1705.2,1097.6L1705.2,901.6L1568,764.4L1528.8,764.4L1313.2,980L1313.2,1019.2L1352.4,1097.6Z" style="fill:rgb(131,121,199);stroke:rgb(131,121,199);stroke-width:1px;"/>
            </g>
        </g>
        <g id="Layer2">
            <g transform="matrix(1,0,0,1,34,1)">
                <path d="M999.6,901.6L999.6,862.4L1019.2,842.8L1058.4,842.8L1078,862.4L1078,901.6L1058.4,921.2L1019.2,921.2L999.6,901.6Z" style="fill:rgb(103,77,143);stroke:rgb(103,77,143);stroke-width:1px;"/>
            </g>
            <g transform="matrix(1,0,0,1,34,1)">
                <path d="M1117.2,784L1117.2,744.8L1136.8,725.2L1176,725.2L1195.6,744.8L1195.6,784L1176,803.6L1136.8,803.6L1117.2,784Z" style="fill:rgb(103,77,143);stroke:rgb(103,77,143);stroke-width:1px;"/>
            </g>
            <g transform="matrix(1,0,0,1,34,1)">
                <path d="M1274,744.8L1274,705.6L1293.6,686L1332.8,686L1352.4,705.6L1352.4,744.8L1332.8,764.4L1293.6,764.4L1274,744.8Z" style="fill:rgb(103,77,143);stroke:rgb(103,77,143);stroke-width:1px;"/>
            </g>
            <g transform="matrix(1,0,0,1,34,-155.8)">
                <path d="M1274,744.8L1274,705.6L1293.6,686L1332.8,686L1352.4,705.6L1352.4,744.8L1332.8,764.4L1293.6,764.4L1274,744.8Z" style="fill:rgb(103,77,143);stroke:rgb(103,77,143);stroke-width:1px;"/>
            </g>
            <g transform="matrix(1,0,0,1,-162,-351.8)">
                <path d="M1274,744.8L1274,705.6L1293.6,686L1332.8,686L1352.4,705.6L1352.4,744.8L1332.8,764.4L1293.6,764.4L1274,744.8Z" style="fill:rgb(103,77,143);stroke:rgb(103,77,143);stroke-width:1px;"/>
            </g>
            <g transform="matrix(1,0,0,1,-318.8,-469.4)">
                <path d="M1274,744.8L1274,705.6L1293.6,686L1332.8,686L1352.4,705.6L1352.4,744.8L1332.8,764.4L1293.6,764.4L1274,744.8Z" style="fill:rgb(103,77,143);stroke:rgb(103,77,143);stroke-width:1px;"/>
            </g>
            <g transform="matrix(1,0,0,1,-397.2,-195)">
                <path d="M1274,744.8L1274,705.6L1293.6,686L1332.8,686L1352.4,705.6L1352.4,744.8L1332.8,764.4L1293.6,764.4L1274,744.8Z" style="fill:rgb(103,77,143);stroke:rgb(103,77,143);stroke-width:1px;"/>
            </g>
            <g transform="matrix(1,0,0,1,34,1)">
                <path d="M568.4,333.2L568.4,313.6L705.6,176.4L744.8,176.4L842.8,274.4L842.8,333.2L568.4,333.2Z" style="fill:rgb(103,77,143);stroke:rgb(103,77,143);stroke-width:1px;"/>
            </g>
            <g transform="matrix(1,0,0,1,34,1)">
                <path d="M1666,1548.4L1666,1587.6L450.8,1587.6L352.8,1489.6L352.8,1470L1666,1470L1607.2,1528.8L1607.2,1548.4L1666,1548.4Z" style="fill:rgb(103,77,143);stroke:rgb(103,77,143);stroke-width:1px;"/>
            </g>
            <g transform="matrix(1,0,0,1,190.8,-195)">
                <path d="M1274,744.8L1274,705.6L1293.6,686L1332.8,686L1352.4,705.6L1352.4,744.8L1332.8,764.4L1293.6,764.4L1274,744.8Z" style="fill:rgb(103,77,143);stroke:rgb(103,77,143);stroke-width:1px;"/>
            </g>
            <g transform="matrix(1,0,0,1,230,-351.8)">
                <path d="M1274,744.8L1274,705.6L1293.6,686L1332.8,686L1352.4,705.6L1352.4,744.8L1332.8,764.4L1293.6,764.4L1274,744.8Z" style="fill:rgb(103,77,143);stroke:rgb(103,77,143);stroke-width:1px;"/>
            </g>
            <g transform="matrix(1,0,0,1,347.6,-234.2)">
                <path d="M1274,744.8L1274,705.6L1293.6,686L1332.8,686L1352.4,705.6L1352.4,744.8L1332.8,764.4L1293.6,764.4L1274,744.8Z" style="fill:rgb(103,77,143);stroke:rgb(103,77,143);stroke-width:1px;"/>
            </g>
            <g transform="matrix(1,0,0,1,426,-77.4)">
                <path d="M1274,744.8L1274,705.6L1293.6,686L1332.8,686L1352.4,705.6L1352.4,744.8L1332.8,764.4L1293.6,764.4L1274,744.8Z" style="fill:rgb(103,77,143);stroke:rgb(103,77,143);stroke-width:1px;"/>
            </g>
            <g transform="matrix(1,0,0,1,543.6,79.4)">
                <path d="M1274,744.8L1274,705.6L1293.6,686L1332.8,686L1352.4,705.6L1352.4,744.8L1332.8,764.4L1293.6,764.4L1274,744.8Z" style="fill:rgb(103,77,143);stroke:rgb(103,77,143);stroke-width:1px;"/>
            </g>
            <g transform="matrix(1,0,0,1,543.6,471.4)">
                <path d="M1274,744.8L1274,705.6L1293.6,686L1332.8,686L1352.4,705.6L1352.4,744.8L1332.8,764.4L1293.6,764.4L1274,744.8Z" style="fill:rgb(103,77,143);stroke:rgb(103,77,143);stroke-width:1px;"/>
            </g>
            <g transform="matrix(1,0,0,1,504.4,785)">
                <path d="M1274,744.8L1274,705.6L1293.6,686L1332.8,686L1352.4,705.6L1352.4,744.8L1332.8,764.4L1293.6,764.4L1274,744.8Z" style="fill:rgb(103,77,143);stroke:rgb(103,77,143);stroke-width:1px;"/>
            </g>
            <g transform="matrix(1,0,0,1,504.4,628.2)">
                <path d="M1274,744.8L1274,705.6L1293.6,686L1332.8,686L1352.4,705.6L1352.4,744.8L1332.8,764.4L1293.6,764.4L1274,744.8Z" style="fill:rgb(103,77,143);stroke:rgb(103,77,143);stroke-width:1px;"/>
            </g>
            <g transform="matrix(1,0,0,1,504.4,275.4)">
                <path d="M1274,744.8L1274,705.6L1293.6,686L1332.8,686L1352.4,705.6L1352.4,744.8L1332.8,764.4L1293.6,764.4L1274,744.8Z" style="fill:rgb(103,77,143);stroke:rgb(103,77,143);stroke-width:1px;"/>
            </g>
        </g>
        <g id="Layer5">
            <g transform="matrix(1,0,0,1,34,1)">
                <path d="M1822.8,1548.4L1666,1548.4L1666,1587.6L1705.2,1626.8L1783.6,1626.8L1822.8,1587.6L1822.8,1548.4Z" style="fill:rgb(85,49,49);stroke:rgb(85,49,49);stroke-width:1px;"/>
            </g>
            <g transform="matrix(1,0,0,1,-240.4,1)">
                <path d="M1822.8,1548.4L1666,1548.4L1666,1587.6L1705.2,1626.8L1783.6,1626.8L1822.8,1587.6L1822.8,1548.4Z" style="fill:rgb(85,49,49);stroke:rgb(85,49,49);stroke-width:1px;"/>
            </g>
            <g transform="matrix(1,0,0,1,-475.6,1)">
                <path d="M1822.8,1548.4L1666,1548.4L1666,1587.6L1705.2,1626.8L1783.6,1626.8L1822.8,1587.6L1822.8,1548.4Z" style="fill:rgb(85,49,49);stroke:rgb(85,49,49);stroke-width:1px;"/>
            </g>
            <g transform="matrix(1,0,0,1,-710.8,1)">
                <path d="M1822.8,1548.4L1666,1548.4L1666,1587.6L1705.2,1626.8L1783.6,1626.8L1822.8,1587.6L1822.8,1548.4Z" style="fill:rgb(85,49,49);stroke:rgb(85,49,49);stroke-width:1px;"/>
            </g>
            <g transform="matrix(1,0,0,1,-946,1)">
                <path d="M1822.8,1548.4L1666,1548.4L1666,1587.6L1705.2,1626.8L1783.6,1626.8L1822.8,1587.6L1822.8,1548.4Z" style="fill:rgb(85,49,49);stroke:rgb(85,49,49);stroke-width:1px;"/>
            </g>
            <g transform="matrix(1,0,0,1,-1181.2,1)">
                <path d="M1822.8,1548.4L1666,1548.4L1666,1587.6L1705.2,1626.8L1783.6,1626.8L1822.8,1587.6L1822.8,1548.4Z" style="fill:rgb(85,49,49);stroke:rgb(85,49,49);stroke-width:1px;"/>
            </g>
            <g transform="matrix(1,0,0,1,34,1)">
                <path d="M1391.6,1430.8L1391.6,1470L1352.4,1509.2L1215.2,1509.2L1215.2,1489.6L1274,1430.8L1391.6,1430.8Z" style="fill:rgb(85,49,49);stroke:rgb(85,49,49);stroke-width:1px;"/>
            </g>
            <g transform="matrix(1,0,0,1,34,1)">
                <path d="M1078,1274L1078,1313.2L980,1411.2L960.4,1411.2L960.4,1274L1078,1274Z" style="fill:rgb(85,49,49);stroke:rgb(85,49,49);stroke-width:1px;"/>
            </g>
            <g transform="matrix(1,0,0,1,34,1)">
                <path d="M960.4,1156.4L803.6,1156.4L764.4,1195.6L764.4,1313.2L842.8,1391.6L940.8,1391.6L940.8,1372L882,1313.2L882,1293.6L901.6,1274L960.4,1274L960.4,1156.4Z" style="fill:rgb(85,49,49);stroke:rgb(85,49,49);stroke-width:1px;"/>
            </g>
            <g transform="matrix(1,0,0,1,34,1)">
                <path d="M1391.6,1313.2L1391.6,1274L1313.2,1234.8L1215.2,1234.8L1215.2,1254.4L1274,1313.2L1391.6,1313.2Z" style="fill:rgb(85,49,49);stroke:rgb(85,49,49);stroke-width:1px;"/>
            </g>
            <g transform="matrix(1,0,0,1,34,1)">
                <path d="M1274,1430.8L1195.6,1430.8L1117.2,1391.6L1117.2,1352.4L1195.6,1313.2L1274,1313.2L1274,1430.8Z" style="fill:rgb(85,49,49);stroke:rgb(85,49,49);stroke-width:1px;"/>
            </g>
        </g>
        <g id="Layer4">
            <g transform="matrix(1,0,0,1,34,1)">
                <path d="M1744.4,1391.6L1764,1391.6L1783.6,1372L1783.6,764.4L1626.8,607.6L1470,607.6L1176,901.6L1176,940.8L1195.6,960.4L1234.8,960.4L1509.2,686L1587.6,686L1744.4,842.8L1744.4,1391.6Z" style="fill:rgb(239,137,119);stroke:rgb(239,137,119);stroke-width:1px;"/>
            </g>
            <g transform="matrix(1,0,0,1,34,1)">
                <path d="M1274,1391.6L1274,1313.2L1568,1313.2L1587.6,1293.6L1587.6,1274L1509.2,1195.6L1352.4,1117.2L1313.2,1078L1313.2,1019.2L1352.4,1097.6L1430.8,1117.2L1489.6,1117.2L1548.4,1097.6L1607.2,1038.8L1607.2,960.4L1568,921.2L1528.8,921.2L1489.6,960.4L1489.6,999.6L1509.2,1019.2L1528.8,999.6L1509.2,980L1528.8,960.4L1568,999.6L1568,1019.2L1509.2,1078L1489.6,1078L1430.8,1038.8L1430.8,960.4L1509.2,882L1587.6,882L1705.2,999.6L1705.2,1313.2L1626.8,1391.6L1274,1391.6Z" style="fill:rgb(239,137,119);stroke:rgb(239,137,119);stroke-width:1px;"/>
            </g>
            <g transform="matrix(1,0,0,1,34,1)">
                <path d="M1078,1038.8L1117.2,1078L646.8,1078L568.4,999.6L568.4,921.2L823.2,666.4L842.8,666.4L842.8,725.2L862.4,725.2L980,607.6L980,568.4L901.6,411.6L882,313.6L901.6,313.6L960.4,392L1038.8,431.2L1136.8,450.8L1274,450.8L1274,470.4L1136.8,607.6L1019.2,490L1019.2,529.2L1058.4,607.6L1078,666.4L862.4,882L803.6,882L842.8,803.6L842.8,764.4L823.2,764.4L666.4,921.2L666.4,960.4L744.8,1038.8L1078,1038.8Z" style="fill:rgb(239,137,119);stroke:rgb(239,137,119);stroke-width:1px;"/>
            </g>
        </g>
        <g transform="matrix(1,0,0,1,34,1)">
            <g id="Layer3">
                <path d="M686,313.6L686,274.4L705.6,254.8L744.8,254.8L764.4,274.4L764.4,313.6L744.8,333.2L705.6,333.2L686,313.6Z" style="fill:rgb(168,0,0);stroke:rgb(168,0,0);stroke-width:1px;"/>
            </g>
        </g>
    </g>
</svg>
