<?xml version="1.0" encoding="UTF-8" standalone="no"?>
<!DOCTYPE svg PUBLIC "-//W3C//DTD SVG 1.1//EN" "http://www.w3.org/Graphics/SVG/1.1/DTD/svg11.dtd">
<svg width="100%" height="100%" viewBox="0 0 4634 3475" version="1.1" xmlns="http://www.w3.org/2000/svg" xmlns:xlink="http://www.w3.org/1999/xlink" xml:space="preserve" xmlns:serif="http://www.serif.com/" style="fill-rule:evenodd;clip-rule:evenodd;stroke-linecap:round;stroke-linejoin:round;stroke-miterlimit:1.5;">
    <g transform="matrix(2.08333,0,0,2.08333,0,0)">
        <g transform="matrix(1,0,0,1,-30.5,-11.45)">
            <g id="Layer10">
                <path d="M434.15,434.15L411.3,457L411.3,502.7L434.15,525.55L708.35,525.55L731.2,548.4L708.35,571.25L479.85,571.25L457,594.1L457,616.95L868.3,616.95L936.85,571.25L959.7,525.55L959.7,388.45L914,297.05L868.3,251.35L776.9,205.65L685.5,205.65L616.95,251.35L502.7,388.45L434.15,434.15Z" style="fill:rgb(177,15,0);stroke:rgb(177,15,0);stroke-width:1px;"/>
            </g>
        </g>
        <g transform="matrix(1,0,0,1,-30.5,-11.45)">
            <g id="Layer16">
                <path d="M1005.4,1233.9L1005.4,1188.2L1051.1,1211.05L1188.2,1348.15L1211.05,1393.85L1051.1,1393.85L1005.4,1233.9Z" style="fill:rgb(124,179,122);stroke:rgb(124,179,122);stroke-width:1px;"/>
            </g>
        </g>
        <g transform="matrix(1,0,0,1,-30.5,-11.45)">
            <g id="Layer18">
                <path d="M1508.1,457L1485.25,434.15L1325.3,434.15L1325.3,342.75L1371,297.05L1645.2,297.05L1668.05,342.75L1713.75,342.75L1850.85,228.5L1873.7,182.8L1873.7,342.75L1782.3,434.15L1782.3,502.7L1805.15,525.55L1850.85,525.55L1896.55,502.7L1919.4,457L1919.4,616.95L1873.7,662.65L1782.3,708.35L1782.3,776.9L1805.15,799.75L1850.85,799.75L1896.55,776.9L1919.4,731.2L1919.4,891.15L1828,982.55L1828,1051.1L1850.85,1073.95L1873.7,1073.95L1896.55,1051.1L1919.4,1005.4L1919.4,1119.65L1828,1211.05L1828,1256.75L1736.6,1348.15L1256.75,1348.15L1211.05,1393.85L1188.2,1393.85L1005.4,1211.05L1005.4,1142.5L982.55,1119.65L936.85,1119.65L914,1096.8L914,1051.1L891.15,1028.25L868.3,1051.1L868.3,1119.65L822.6,1211.05L776.9,1256.75L731.2,1256.75L731.2,754.05L822.6,662.65L959.7,662.65L1233.9,936.85L1439.55,936.85L1462.4,914L1462.4,799.75L1371,799.75L1279.6,708.35L1279.6,616.95L1348.15,616.95L1439.55,708.35L1508.1,708.35L1508.1,639.8L1553.8,639.8L1599.5,594.1L1645.2,594.1L1690.9,639.8L1736.6,639.8L1736.6,616.95L1645.2,525.55L1599.5,525.55L1508.1,616.95L1508.1,457Z" style="fill:rgb(64,111,45);stroke:rgb(64,111,45);stroke-width:1px;"/>
            </g>
        </g>
        <g id="Layer17">
            <g transform="matrix(1,0,0,1,-30.5,-11.45)">
                <path d="M1462.4,799.75L1508.1,822.6L1508.1,868.3L1462.4,891.15L1462.4,799.75Z" style="fill:rgb(141,70,57);stroke:rgb(141,70,57);stroke-width:1px;"/>
            </g>
            <g transform="matrix(1,0,0,1,-30.5,-11.45)">
                <path d="M1325.3,434.15L1325.3,457L1348.15,479.85L1439.55,479.85L1462.4,502.7L1462.4,639.8L1485.25,639.8L1508.1,616.95L1508.1,457L1485.25,434.15L1325.3,434.15Z" style="fill:rgb(141,70,57);stroke:rgb(141,70,57);stroke-width:1px;"/>
            </g>
        </g>
        <g transform="matrix(1,0,0,1,-30.5,-11.45)">
            <g id="Layer11">
                <path d="M776.9,205.65L914,205.65L959.7,159.95L1051.1,114.25L1233.9,114.25L1279.6,159.95L1233.9,205.65L1096.8,251.35L982.55,251.35L959.7,274.2L982.55,297.05L1096.8,297.05L1188.2,251.35L1233.9,274.2L1233.9,319.9L1211.05,342.75L1165.35,388.45L1073.95,388.45L1051.1,411.3L1073.95,434.15L1188.2,434.15L1188.2,479.85L1073.95,479.85L1051.1,502.7L1073.95,525.55L1096.8,525.55L1096.8,571.25L936.85,571.25L959.7,525.55L959.7,388.45L914,297.05L868.3,251.35L776.9,205.65Z" style="fill:rgb(207,178,76);stroke:rgb(207,178,76);stroke-width:1px;"/>
            </g>
        </g>
        <g transform="matrix(1,0,0,1,-30.5,-11.45)">
            <g id="Layer9">
                <path d="M685.5,365.6L708.35,342.75L754.05,342.75L776.9,365.6L776.9,411.3L754.05,434.15L708.35,434.15L685.5,411.3L685.5,365.6Z" style="fill:rgb(207,159,20);stroke:rgb(207,159,20);stroke-width:1px;"/>
            </g>
        </g>
        <g transform="matrix(1,0,0,1,-30.5,-11.45)">
            <g id="Layer15">
                <path d="M1005.4,1211.05L982.55,1239.61L914,1256.75L776.9,1302.45L639.8,1348.15L548.4,1439.55L548.4,1530.95L639.8,1622.35L1873.7,1622.35L1873.7,1553.8L1850.85,1530.95L1599.5,1439.55L1188.2,1439.55L1096.8,1485.25L1073.95,1530.95L708.35,1530.95L685.5,1508.1L685.5,1462.4L708.35,1439.55L776.9,1439.55L845.45,1434.98L1073.95,1393.85L1045.39,1371L1005.4,1211.05Z" style="fill:rgb(148,126,78);stroke:rgb(148,126,78);stroke-width:1px;"/>
            </g>
        </g>
        <g id="Layer14">
            <g transform="matrix(1,0,0,1,-30.5,-11.45)">
                <path d="M1233.9,1530.95L1211.05,1530.95L1188.2,1553.8L1188.2,1576.65L1233.9,1576.65L1233.9,1530.95Z" style="fill:rgb(210,177,111);stroke:rgb(210,177,111);stroke-width:1px;"/>
            </g>
            <g transform="matrix(1,0,0,1,243.7,-11.45)">
                <path d="M1211.05,1530.95L1188.2,1530.95L1188.2,1576.65L1233.9,1576.65L1233.9,1553.8L1211.05,1530.95Z" style="fill:rgb(210,177,111);stroke:rgb(210,177,111);stroke-width:1px;"/>
            </g>
            <g transform="matrix(1,0,0,1,426.5,-11.45)">
                <path d="M1211.05,1530.95L1188.2,1530.95L1188.2,1576.65L1233.9,1576.65L1233.9,1553.8L1211.05,1530.95Z" style="fill:rgb(210,177,111);stroke:rgb(210,177,111);stroke-width:1px;"/>
            </g>
            <g transform="matrix(1,0,0,1,609.3,-11.45)">
                <path d="M1233.9,1553.8L1211.05,1530.95L1188.2,1530.95L1188.2,1576.65L1233.9,1576.65L1233.9,1553.8Z" style="fill:rgb(210,177,111);stroke:rgb(210,177,111);stroke-width:1px;"/>
            </g>
        </g>
        <g id="Layer12">
            <g transform="matrix(1,0,0,1,-30.5,-11.45)">
                <path d="M731.2,1165.35L662.65,1165.35L639.8,1142.5L639.8,776.9L616.95,754.05L388.45,754.05L365.6,776.9L365.6,1028.25L411.3,1073.95L457,1096.8L434.15,1028.25L457,1005.4L457,868.3L479.85,845.45L525.55,845.45L548.4,868.3L548.4,1279.6L571.25,1302.45L639.8,1302.45L662.65,1256.75L731.2,1256.75L731.2,1165.35Z" style="fill:rgb(31,31,31);stroke:rgb(31,31,31);stroke-width:1px;"/>
            </g>
            <g transform="matrix(1,0,0,1,-30.5,-11.45)">
                <path d="M1279.6,616.95L1165.35,616.95L1142.5,639.8L1142.5,776.9L1165.35,799.75L1233.9,799.75L1279.6,776.9L1233.9,754.05L1211.05,731.2L1233.9,708.35L1279.6,708.35L1279.6,616.95Z" style="fill:rgb(31,31,31);stroke:rgb(31,31,31);stroke-width:1px;"/>
            </g>
            <g transform="matrix(1,0,0,1,-30.5,-11.45)">
                <path d="M1325.3,1622.35L1325.3,1553.8L1302.45,1530.95L1233.9,1530.95L1188.2,1576.65L1188.2,1622.35L1325.3,1622.35Z" style="fill:rgb(31,31,31);stroke:rgb(31,31,31);stroke-width:1px;"/>
            </g>
            <g transform="matrix(-1,0,0,1,2665.8,-11.45)">
                <path d="M1325.3,1622.35L1325.3,1553.8L1302.45,1530.95L1233.9,1530.95L1188.2,1576.65L1188.2,1622.35L1325.3,1622.35Z" style="fill:rgb(31,31,31);stroke:rgb(31,31,31);stroke-width:1px;"/>
            </g>
            <g transform="matrix(-1,0,0,1,2848.6,-11.45)">
                <path d="M1325.3,1622.35L1325.3,1553.8L1302.45,1530.95L1233.9,1530.95L1188.2,1576.65L1188.2,1622.35L1325.3,1622.35Z" style="fill:rgb(31,31,31);stroke:rgb(31,31,31);stroke-width:1px;"/>
            </g>
            <g transform="matrix(-1,0,0,1,3031.4,-11.45)">
                <path d="M1325.3,1622.35L1325.3,1553.8L1302.45,1530.95L1233.9,1530.95L1188.2,1576.65L1188.2,1622.35L1325.3,1622.35Z" style="fill:rgb(31,31,31);stroke:rgb(31,31,31);stroke-width:1px;"/>
            </g>
        </g>
        <g id="Layer13">
            <g transform="matrix(1,0,0,1,-30.5,-11.45)">
                <path d="M1256.75,1119.65L1233.9,1096.8L1233.9,1073.95L1279.6,1073.95L1279.6,1119.65L1256.75,1119.65Z" style="fill:rgb(185,188,57);stroke:rgb(185,188,57);stroke-width:1px;"/>
            </g>
            <g transform="matrix(6.12323e-17,-1,1,6.12323e-17,312.25,2479.2)">
                <path d="M1256.75,1119.65L1233.9,1096.8L1233.9,1073.95L1279.6,1073.95L1279.6,1119.65L1256.75,1119.65Z" style="fill:rgb(185,188,57);stroke:rgb(185,188,57);stroke-width:1px;"/>
            </g>
            <g transform="matrix(6.12323e-17,-1,1,6.12323e-17,-327.55,2205)">
                <path d="M1256.75,1119.65L1233.9,1096.8L1233.9,1073.95L1279.6,1073.95L1279.6,1119.65L1256.75,1119.65Z" style="fill:rgb(185,188,57);stroke:rgb(185,188,57);stroke-width:1px;"/>
            </g>
            <g transform="matrix(-1,-1.22465e-16,1.22465e-16,-1,2802.9,2090.75)">
                <path d="M1256.75,1119.65L1233.9,1096.8L1233.9,1073.95L1279.6,1073.95L1279.6,1119.65L1256.75,1119.65Z" style="fill:rgb(185,188,57);stroke:rgb(185,188,57);stroke-width:1px;"/>
            </g>
            <g transform="matrix(-1,-1.22465e-16,1.22465e-16,-1,2254.5,2045.05)">
                <path d="M1256.75,1119.65L1233.9,1096.8L1233.9,1073.95L1279.6,1073.95L1279.6,1119.65L1256.75,1119.65Z" style="fill:rgb(185,188,57);stroke:rgb(185,188,57);stroke-width:1px;"/>
            </g>
            <g transform="matrix(6.12323e-17,1,-1,6.12323e-17,2642.95,-34.3)">
                <path d="M1256.75,1119.65L1233.9,1096.8L1233.9,1073.95L1279.6,1073.95L1279.6,1119.65L1256.75,1119.65Z" style="fill:rgb(185,188,57);stroke:rgb(185,188,57);stroke-width:1px;"/>
            </g>
            <g transform="matrix(6.12323e-17,1,-1,6.12323e-17,1957.45,-491.3)">
                <path d="M1256.75,1119.65L1233.9,1096.8L1233.9,1073.95L1279.6,1073.95L1279.6,1119.65L1256.75,1119.65Z" style="fill:rgb(185,188,57);stroke:rgb(185,188,57);stroke-width:1px;"/>
            </g>
            <g transform="matrix(1,0,0,1,426.5,-148.55)">
                <path d="M1256.75,1119.65L1233.9,1096.8L1233.9,1073.95L1279.6,1073.95L1279.6,1119.65L1256.75,1119.65Z" style="fill:rgb(185,188,57);stroke:rgb(185,188,57);stroke-width:1px;"/>
            </g>
            <g transform="matrix(6.12323e-17,-1,1,6.12323e-17,632.15,2433.5)">
                <path d="M1256.75,1119.65L1233.9,1096.8L1233.9,1073.95L1279.6,1073.95L1279.6,1119.65L1256.75,1119.65Z" style="fill:rgb(185,188,57);stroke:rgb(185,188,57);stroke-width:1px;"/>
            </g>
            <g transform="matrix(1,0,0,-1,335.1,1816.55)">
                <path d="M1256.75,1119.65L1233.9,1096.8L1233.9,1073.95L1279.6,1073.95L1279.6,1119.65L1256.75,1119.65Z" style="fill:rgb(185,188,57);stroke:rgb(185,188,57);stroke-width:1px;"/>
            </g>
            <g transform="matrix(-1,-3.67394e-16,3.67394e-16,-1,2894.3,1496.65)">
                <path d="M1256.75,1119.65L1233.9,1096.8L1233.9,1073.95L1279.6,1073.95L1279.6,1119.65L1256.75,1119.65Z" style="fill:rgb(185,188,57);stroke:rgb(185,188,57);stroke-width:1px;"/>
            </g>
            <g transform="matrix(1,0,0,1,-30.5,-11.45)">
                <path d="M1325.3,1073.95L1325.3,1051.1L1302.45,1028.25L1279.6,1028.25L1279.6,1073.95L1325.3,1073.95Z" style="fill:rgb(114,191,26);stroke:rgb(114,191,26);stroke-width:1px;"/>
            </g>
            <g transform="matrix(6.12323e-17,-1,1,6.12323e-17,312.25,2479.2)">
                <path d="M1325.3,1073.95L1325.3,1051.1L1302.45,1028.25L1279.6,1028.25L1279.6,1073.95L1325.3,1073.95Z" style="fill:rgb(114,191,26);stroke:rgb(114,191,26);stroke-width:1px;"/>
            </g>
            <g transform="matrix(6.12323e-17,-1,1,6.12323e-17,-327.55,2205)">
                <path d="M1325.3,1073.95L1325.3,1051.1L1302.45,1028.25L1279.6,1028.25L1279.6,1073.95L1325.3,1073.95Z" style="fill:rgb(114,191,26);stroke:rgb(114,191,26);stroke-width:1px;"/>
            </g>
            <g transform="matrix(-1,-1.22465e-16,1.22465e-16,-1,2802.9,2090.75)">
                <path d="M1325.3,1073.95L1325.3,1051.1L1302.45,1028.25L1279.6,1028.25L1279.6,1073.95L1325.3,1073.95Z" style="fill:rgb(114,191,26);stroke:rgb(114,191,26);stroke-width:1px;"/>
            </g>
            <g transform="matrix(-1,-1.22465e-16,1.22465e-16,-1,2254.5,2045.05)">
                <path d="M1325.3,1073.95L1325.3,1051.1L1302.45,1028.25L1279.6,1028.25L1279.6,1073.95L1325.3,1073.95Z" style="fill:rgb(114,191,26);stroke:rgb(114,191,26);stroke-width:1px;"/>
            </g>
            <g transform="matrix(6.12323e-17,1,-1,6.12323e-17,2642.95,-34.3)">
                <path d="M1325.3,1073.95L1325.3,1051.1L1302.45,1028.25L1279.6,1028.25L1279.6,1073.95L1325.3,1073.95Z" style="fill:rgb(114,191,26);stroke:rgb(114,191,26);stroke-width:1px;"/>
            </g>
            <g transform="matrix(6.12323e-17,1,-1,6.12323e-17,1957.45,-491.3)">
                <path d="M1325.3,1073.95L1325.3,1051.1L1302.45,1028.25L1279.6,1028.25L1279.6,1073.95L1325.3,1073.95Z" style="fill:rgb(114,191,26);stroke:rgb(114,191,26);stroke-width:1px;"/>
            </g>
            <g transform="matrix(1,0,0,1,426.5,-148.55)">
                <path d="M1325.3,1073.95L1325.3,1051.1L1302.45,1028.25L1279.6,1028.25L1279.6,1073.95L1325.3,1073.95Z" style="fill:rgb(114,191,26);stroke:rgb(114,191,26);stroke-width:1px;"/>
            </g>
            <g transform="matrix(6.12323e-17,-1,1,6.12323e-17,632.15,2433.5)">
                <path d="M1325.3,1073.95L1325.3,1051.1L1302.45,1028.25L1279.6,1028.25L1279.6,1073.95L1325.3,1073.95Z" style="fill:rgb(114,191,26);stroke:rgb(114,191,26);stroke-width:1px;"/>
            </g>
            <g transform="matrix(1,0,0,-1,335.1,1816.55)">
                <path d="M1325.3,1073.95L1325.3,1051.1L1302.45,1028.25L1279.6,1028.25L1279.6,1073.95L1325.3,1073.95Z" style="fill:rgb(114,191,26);stroke:rgb(114,191,26);stroke-width:1px;"/>
            </g>
            <g transform="matrix(-1,-3.67394e-16,3.67394e-16,-1,2894.3,1496.65)">
                <path d="M1325.3,1073.95L1325.3,1051.1L1302.45,1028.25L1279.6,1028.25L1279.6,1073.95L1325.3,1073.95Z" style="fill:rgb(114,191,26);stroke:rgb(114,191,26);stroke-width:1px;"/>
            </g>
            <g transform="matrix(1,0,0,1,-30.5,-11.45)">
                <path d="M1302.45,1119.65L1325.3,1096.8L1325.3,1073.95L1279.6,1073.95L1279.6,1119.65L1302.45,1119.65Z" style="fill:rgb(181,209,52);stroke:rgb(181,209,52);stroke-width:1px;"/>
            </g>
            <g transform="matrix(6.12323e-17,-1,1,6.12323e-17,312.25,2479.2)">
                <path d="M1302.45,1119.65L1325.3,1096.8L1325.3,1073.95L1279.6,1073.95L1279.6,1119.65L1302.45,1119.65Z" style="fill:rgb(181,209,52);stroke:rgb(181,209,52);stroke-width:1px;"/>
            </g>
            <g transform="matrix(6.12323e-17,-1,1,6.12323e-17,-327.55,2205)">
                <path d="M1302.45,1119.65L1325.3,1096.8L1325.3,1073.95L1279.6,1073.95L1279.6,1119.65L1302.45,1119.65Z" style="fill:rgb(181,209,52);stroke:rgb(181,209,52);stroke-width:1px;"/>
            </g>
            <g transform="matrix(-1,-1.22465e-16,1.22465e-16,-1,2802.9,2090.75)">
                <path d="M1302.45,1119.65L1325.3,1096.8L1325.3,1073.95L1279.6,1073.95L1279.6,1119.65L1302.45,1119.65Z" style="fill:rgb(181,209,52);stroke:rgb(181,209,52);stroke-width:1px;"/>
            </g>
            <g transform="matrix(-1,-1.22465e-16,1.22465e-16,-1,2254.5,2045.05)">
                <path d="M1302.45,1119.65L1325.3,1096.8L1325.3,1073.95L1279.6,1073.95L1279.6,1119.65L1302.45,1119.65Z" style="fill:rgb(181,209,52);stroke:rgb(181,209,52);stroke-width:1px;"/>
            </g>
            <g transform="matrix(6.12323e-17,1,-1,6.12323e-17,2642.95,-34.3)">
                <path d="M1302.45,1119.65L1325.3,1096.8L1325.3,1073.95L1279.6,1073.95L1279.6,1119.65L1302.45,1119.65Z" style="fill:rgb(181,209,52);stroke:rgb(181,209,52);stroke-width:1px;"/>
            </g>
            <g transform="matrix(6.12323e-17,1,-1,6.12323e-17,1957.45,-491.3)">
                <path d="M1302.45,1119.65L1325.3,1096.8L1325.3,1073.95L1279.6,1073.95L1279.6,1119.65L1302.45,1119.65Z" style="fill:rgb(181,209,52);stroke:rgb(181,209,52);stroke-width:1px;"/>
            </g>
            <g transform="matrix(1,0,0,1,426.5,-148.55)">
                <path d="M1302.45,1119.65L1325.3,1096.8L1325.3,1073.95L1279.6,1073.95L1279.6,1119.65L1302.45,1119.65Z" style="fill:rgb(181,209,52);stroke:rgb(181,209,52);stroke-width:1px;"/>
            </g>
            <g transform="matrix(6.12323e-17,-1,1,6.12323e-17,632.15,2433.5)">
                <path d="M1302.45,1119.65L1325.3,1096.8L1325.3,1073.95L1279.6,1073.95L1279.6,1119.65L1302.45,1119.65Z" style="fill:rgb(181,209,52);stroke:rgb(181,209,52);stroke-width:1px;"/>
            </g>
            <g transform="matrix(1,0,0,-1,335.1,1816.55)">
                <path d="M1302.45,1119.65L1325.3,1096.8L1325.3,1073.95L1279.6,1073.95L1279.6,1119.65L1302.45,1119.65Z" style="fill:rgb(181,209,52);stroke:rgb(181,209,52);stroke-width:1px;"/>
            </g>
            <g transform="matrix(-1,-3.67394e-16,3.67394e-16,-1,2894.3,1496.65)">
                <path d="M1302.45,1119.65L1325.3,1096.8L1325.3,1073.95L1279.6,1073.95L1279.6,1119.65L1302.45,1119.65Z" style="fill:rgb(181,209,52);stroke:rgb(181,209,52);stroke-width:1px;"/>
            </g>
            <g transform="matrix(1,0,0,1,-30.5,-11.45)">
                <path d="M1256.75,1028.25L1233.9,1051.1L1233.9,1073.95L1279.6,1073.95L1279.6,1028.25L1256.75,1028.25Z" style="fill:rgb(151,202,44);stroke:rgb(151,202,44);stroke-width:1px;"/>
            </g>
            <g transform="matrix(6.12323e-17,-1,1,6.12323e-17,312.25,2479.2)">
                <path d="M1256.75,1028.25L1233.9,1051.1L1233.9,1073.95L1279.6,1073.95L1279.6,1028.25L1256.75,1028.25Z" style="fill:rgb(151,202,44);stroke:rgb(151,202,44);stroke-width:1px;"/>
            </g>
            <g transform="matrix(6.12323e-17,-1,1,6.12323e-17,-327.55,2205)">
                <path d="M1256.75,1028.25L1233.9,1051.1L1233.9,1073.95L1279.6,1073.95L1279.6,1028.25L1256.75,1028.25Z" style="fill:rgb(151,202,44);stroke:rgb(151,202,44);stroke-width:1px;"/>
            </g>
            <g transform="matrix(-1,-1.22465e-16,1.22465e-16,-1,2802.9,2090.75)">
                <path d="M1256.75,1028.25L1233.9,1051.1L1233.9,1073.95L1279.6,1073.95L1279.6,1028.25L1256.75,1028.25Z" style="fill:rgb(151,202,44);stroke:rgb(151,202,44);stroke-width:1px;"/>
            </g>
            <g transform="matrix(-1,-1.22465e-16,1.22465e-16,-1,2254.5,2045.05)">
                <path d="M1256.75,1028.25L1233.9,1051.1L1233.9,1073.95L1279.6,1073.95L1279.6,1028.25L1256.75,1028.25Z" style="fill:rgb(151,202,44);stroke:rgb(151,202,44);stroke-width:1px;"/>
            </g>
            <g transform="matrix(6.12323e-17,1,-1,6.12323e-17,2642.95,-34.3)">
                <path d="M1256.75,1028.25L1233.9,1051.1L1233.9,1073.95L1279.6,1073.95L1279.6,1028.25L1256.75,1028.25Z" style="fill:rgb(151,202,44);stroke:rgb(151,202,44);stroke-width:1px;"/>
            </g>
            <g transform="matrix(6.12323e-17,1,-1,6.12323e-17,1957.45,-491.3)">
                <path d="M1256.75,1028.25L1233.9,1051.1L1233.9,1073.95L1279.6,1073.95L1279.6,1028.25L1256.75,1028.25Z" style="fill:rgb(151,202,44);stroke:rgb(151,202,44);stroke-width:1px;"/>
            </g>
            <g transform="matrix(1,0,0,1,426.5,-148.55)">
                <path d="M1256.75,1028.25L1233.9,1051.1L1233.9,1073.95L1279.6,1073.95L1279.6,1028.25L1256.75,1028.25Z" style="fill:rgb(151,202,44);stroke:rgb(151,202,44);stroke-width:1px;"/>
            </g>
            <g transform="matrix(6.12323e-17,-1,1,6.12323e-17,632.15,2433.5)">
                <path d="M1256.75,1028.25L1233.9,1051.1L1233.9,1073.95L1279.6,1073.95L1279.6,1028.25L1256.75,1028.25Z" style="fill:rgb(151,202,44);stroke:rgb(151,202,44);stroke-width:1px;"/>
            </g>
            <g transform="matrix(1,0,0,-1,335.1,1816.55)">
                <path d="M1256.75,1028.25L1233.9,1051.1L1233.9,1073.95L1279.6,1073.95L1279.6,1028.25L1256.75,1028.25Z" style="fill:rgb(151,202,44);stroke:rgb(151,202,44);stroke-width:1px;"/>
            </g>
            <g transform="matrix(-1,-3.67394e-16,3.67394e-16,-1,2894.3,1496.65)">
                <path d="M1256.75,1028.25L1233.9,1051.1L1233.9,1073.95L1279.6,1073.95L1279.6,1028.25L1256.75,1028.25Z" style="fill:rgb(151,202,44);stroke:rgb(151,202,44);stroke-width:1px;"/>
            </g>
        </g>
        <g id="Layer19">
            <g transform="matrix(1,0,0,1,-30.5,-11.45)">
                <path d="M1188.2,114.25L1233.9,91.4L1256.75,68.55L1462.4,68.55L1462.4,114.25L1416.7,159.95L1233.9,205.65L1279.6,159.95L1233.9,114.25L1188.2,114.25Z" style="fill:rgb(205,127,44);stroke:rgb(205,127,44);stroke-width:1px;"/>
            </g>
            <g transform="matrix(1,0,0,1,-30.5,-11.45)">
                <path d="M1188.2,251.35L1233.9,251.35L1302.45,205.65L1416.7,205.65L1416.7,251.35L1371,274.2L1302.45,342.75L1165.35,388.45L1233.9,319.9L1233.9,274.2L1188.2,251.35Z" style="fill:rgb(205,127,44);stroke:rgb(205,127,44);stroke-width:1px;"/>
            </g>
            <g transform="matrix(1,0,0,1,-30.5,-11.45)">
                <path d="M1188.2,434.15L1233.9,434.15L1256.75,388.45L1325.3,388.45L1325.3,434.15L1302.45,434.15L1279.6,479.85L1188.2,479.85L1188.2,434.15Z" style="fill:rgb(205,127,44);stroke:rgb(205,127,44);stroke-width:1px;"/>
            </g>
            <g transform="matrix(1,0,0,1,-30.5,-11.45)">
                <path d="M1096.8,525.55L1165.35,525.55L1188.2,502.7L1211.05,502.7L1211.05,548.4L1188.2,571.25L1096.8,571.25L1096.8,525.55Z" style="fill:rgb(205,127,44);stroke:rgb(205,127,44);stroke-width:1px;"/>
            </g>
        </g>
    </g>
</svg>
