<?xml version="1.0" encoding="UTF-8" standalone="no"?>
<!DOCTYPE svg PUBLIC "-//W3C//DTD SVG 1.1//EN" "http://www.w3.org/Graphics/SVG/1.1/DTD/svg11.dtd">
<svg width="100%" height="100%" viewBox="0 0 4634 3475" version="1.1" xmlns="http://www.w3.org/2000/svg" xmlns:xlink="http://www.w3.org/1999/xlink" xml:space="preserve" xmlns:serif="http://www.serif.com/" style="fill-rule:evenodd;clip-rule:evenodd;stroke-linecap:round;stroke-linejoin:round;stroke-miterlimit:1.5;">
    <g transform="matrix(2.08333,0,0,2.08333,0,0)">
        <g id="Layer15">
            <g transform="matrix(1,0,0,1,-30.5,-34.325)">
                <path d="M434.15,319.9L708.35,319.9L708.35,342.75L685.5,388.45L685.5,411.3L662.65,388.45L662.65,342.75L616.95,342.75L594.1,388.45L594.1,411.3L571.25,388.45L571.25,342.75L525.55,342.75L502.7,388.45L502.7,411.3L479.85,388.45L479.85,342.75L434.15,342.75L411.3,388.45L411.3,411.3L388.45,388.45L388.45,342.75L388.45,319.9L434.15,319.9Z" style="fill:rgb(219,216,190);stroke:rgb(219,216,190);stroke-width:1px;"/>
            </g>
            <g transform="matrix(1,0,0,1,-30.5,-34.325)">
                <path d="M457,616.95L502.7,616.95L502.7,571.25L525.55,548.4L525.55,571.25L548.4,616.95L594.1,616.95L594.1,571.25L616.95,548.4L616.95,571.25L639.8,616.95L685.5,616.95L685.5,571.25L708.35,548.4L708.35,571.25L731.2,616.95L731.2,639.8L411.3,639.8L411.3,571.25L434.15,548.4L434.15,571.25L457,616.95Z" style="fill:rgb(219,216,190);stroke:rgb(219,216,190);stroke-width:1px;"/>
            </g>
        </g>
        <g id="Layer12">
            <g transform="matrix(1,0,0,1,-30.5,-34.325)">
                <path d="M959.7,365.6L959.7,662.65L914,708.35L434.15,708.35L411.3,685.5L411.3,616.95L685.5,616.95L731.2,571.25L731.2,411.3L685.5,342.75L959.7,365.6Z" style="fill:rgb(160,159,162);stroke:rgb(160,159,162);stroke-width:1px;"/>
            </g>
            <g transform="matrix(1,0,0,1,-30.5,-34.325)">
                <path d="M1005.4,502.7L1005.4,662.65L1051.1,708.35L1051.1,754.05L914,891.15L868.3,982.55L868.3,1119.65L891.15,1165.35L959.7,1211.05L1233.9,1211.05L1233.9,1073.95L1142.5,982.55L1142.5,891.15L1211.05,685.5L1188.2,502.7L1005.4,502.7Z" style="fill:rgb(160,159,162);stroke:rgb(160,159,162);stroke-width:1px;"/>
            </g>
            <g transform="matrix(1,0,0,1,-30.5,-34.325)">
                <path d="M571.25,1096.8L822.6,1096.8L822.6,1188.2L799.75,1211.05L685.5,1211.05L594.1,1302.45L571.25,1302.45L571.25,1096.8Z" style="fill:rgb(160,159,162);stroke:rgb(160,159,162);stroke-width:1px;"/>
            </g>
            <g transform="matrix(1,0,0,1,-30.5,-34.325)">
                <path d="M1302.45,1211.05L1279.6,1188.2L1279.6,1096.8L1576.65,1096.8L1576.65,1211.05L1302.45,1211.05Z" style="fill:rgb(160,159,162);stroke:rgb(160,159,162);stroke-width:1px;"/>
            </g>
        </g>
        <g id="Layer8">
            <g transform="matrix(1,0,0,1,-30.5,-34.325)">
                <path d="M868.3,1439.55L868.3,1256.75L708.35,1256.75L685.5,1279.6L685.5,1416.7L708.35,1439.55L731.2,1439.55L822.6,1462.4L868.3,1439.55Z" style="fill:rgb(44,112,142);stroke:rgb(44,112,142);stroke-width:1px;"/>
            </g>
            <g transform="matrix(1,0,0,1,-30.5,-34.325)">
                <path d="M1371,1439.55L1485.25,1439.55L1508.1,1416.7L1508.1,1279.6L1485.25,1256.75L1348.15,1256.75L1325.3,1279.6L1325.3,1393.85L1371,1439.55Z" style="fill:rgb(44,112,142);stroke:rgb(44,112,142);stroke-width:1px;"/>
            </g>
            <g transform="matrix(1,0,0,1,-30.5,-34.325)">
                <rect x="1782.3" y="639.8" width="137.1" height="548.4" style="fill:rgb(44,112,142);stroke:rgb(44,112,142);stroke-width:1px;"/>
            </g>
            <g transform="matrix(1,0,0,1,-30.5,-34.325)">
                <path d="M1325.3,708.35L1188.2,845.45L1188.2,525.55L1005.4,525.55L1005.4,434.15L1279.6,434.15L1325.3,479.85L1325.3,708.35Z" style="fill:rgb(44,112,142);stroke:rgb(44,112,142);stroke-width:1px;"/>
            </g>
            <g transform="matrix(1,0,0,1,-30.5,-34.325)">
                <path d="M1690.9,525.55L1736.6,571.25L1782.3,571.25L1828,525.55L1873.7,479.85L1873.7,434.15L1828,388.45L1736.6,434.15L1690.9,525.55Z" style="fill:rgb(44,112,142);stroke:rgb(44,112,142);stroke-width:1px;"/>
            </g>
            <g transform="matrix(1,0,0,1,-30.5,-34.325)">
                <path d="M1919.4,365.6L1919.4,434.15L1896.55,434.15L1873.7,411.3L1873.7,365.6L1919.4,365.6Z" style="fill:rgb(44,112,142);stroke:rgb(44,112,142);stroke-width:1px;"/>
            </g>
            <g transform="matrix(1,0,0,1,-30.5,-34.325)">
                <path d="M1736.6,297.05L1736.6,251.35L1690.9,205.65L1599.5,251.35L1553.8,342.75L1599.5,388.45L1645.2,388.45L1690.9,342.75L1736.6,297.05Z" style="fill:rgb(44,112,142);stroke:rgb(44,112,142);stroke-width:1px;"/>
            </g>
            <g transform="matrix(1,0,0,1,-30.5,-34.325)">
                <path d="M1782.3,182.8L1782.3,251.35L1759.45,251.35L1736.6,228.5L1736.6,182.8L1782.3,182.8Z" style="fill:rgb(44,112,142);stroke:rgb(44,112,142);stroke-width:1px;"/>
            </g>
            <g transform="matrix(1,0,0,1,-30.5,-34.325)">
                <path d="M1553.8,114.25L1416.7,114.25L1416.7,251.35L1462.4,251.35L1508.1,205.65L1553.8,159.95L1553.8,114.25Z" style="fill:rgb(44,112,142);stroke:rgb(44,112,142);stroke-width:1px;"/>
            </g>
            <g transform="matrix(1,0,0,1,-30.5,-34.325)">
                <path d="M1028.25,388.45L1073.95,388.45L1096.8,365.6L1096.8,342.75L1005.4,251.35L1005.4,159.95L1142.5,159.95L1142.5,114.25L731.2,114.25L685.5,159.95L594.1,159.95L548.4,114.25L411.3,114.25L365.6,159.95L365.6,319.9L388.45,342.75L708.35,342.75L754.05,365.6L1028.25,388.45Z" style="fill:rgb(44,112,142);stroke:rgb(44,112,142);stroke-width:1px;"/>
            </g>
        </g>
        <g id="Layer19">
            <g transform="matrix(1,0,0,1,-30.5,-34.325)">
                <path d="M822.6,1119.65L822.6,1005.4L799.75,982.55L502.7,982.55L457,1028.25L411.3,1119.65L411.3,1439.55L594.1,1439.55L594.1,1165.35L639.8,1119.65L822.6,1119.65Z" style="fill:rgb(2,94,143);stroke:rgb(2,94,143);stroke-width:1px;"/>
            </g>
            <g transform="matrix(1,0,0,1,-30.5,-34.325)">
                <path d="M1553.8,1462.4L1553.8,1165.35L1508.1,1119.65L1279.6,1119.65L1279.6,845.45L1462.4,822.6L1508.1,982.55L1645.2,982.55L1690.9,1028.25L1736.6,1119.65L1736.6,1462.4L1553.8,1462.4Z" style="fill:rgb(2,94,143);stroke:rgb(2,94,143);stroke-width:1px;"/>
            </g>
        </g>
        <g transform="matrix(1,0,0,1,-30.5,-34.325)">
            <g id="Layer14">
                <path d="M411.3,525.55L418.94,454.437L457.587,427.037L526.796,435.994L556.831,477.479L591.202,495.658L622.675,480.377L641.816,458.038L674.505,448.932L704.855,479.029L731.2,479.85L731.2,525.55L693.434,527.242L667.073,502.416L648.855,518.077L604.375,540.304L582.614,550.542L564.638,544.2L548.4,525.55L526.533,498.556L510.077,466.94L460.952,465.887L411.3,525.55Z" style="fill:rgb(167,65,65);stroke:rgb(167,65,65);stroke-width:1px;"/>
            </g>
        </g>
        <g id="Layer13">
            <g transform="matrix(1,0,0,1,-30.5,-34.325)">
                <path d="M868.3,388.45L868.3,525.55L776.9,571.25L731.2,571.25L731.2,479.85L776.9,434.15L776.9,388.45L868.3,388.45Z" style="fill:rgb(97,94,111);stroke:rgb(97,94,111);stroke-width:1px;"/>
            </g>
            <g transform="matrix(1,0,0,1,-30.5,-34.325)">
                <path d="M845.45,571.25L914,571.25L914,662.65L845.45,662.65L822.6,639.8L822.6,594.1L845.45,571.25Z" style="fill:rgb(97,94,111);stroke:rgb(97,94,111);stroke-width:1px;"/>
            </g>
            <g transform="matrix(1,0,0,1,-53.35,-34.325)">
                <path d="M1279.6,1256.75L1325.3,1393.85L1325.3,1416.7L1302.45,1439.55L1188.2,1439.55L1142.5,1393.85L1051.1,1348.15L1051.1,1279.6L1073.95,1256.75L1279.6,1256.75Z" style="fill:rgb(97,94,111);stroke:rgb(97,94,111);stroke-width:1px;"/>
            </g>
            <g transform="matrix(1,0,0,1,-30.5,-34.325)">
                <path d="M982.55,182.8L1051.1,251.35L1096.8,251.35L1119.65,159.95L982.55,159.95L982.55,182.8Z" style="fill:rgb(97,94,111);stroke:rgb(97,94,111);stroke-width:1px;"/>
            </g>
        </g>
        <g id="Layer11">
            <g transform="matrix(1,0,0,1,-30.5,-34.325)">
                <path d="M1096.8,342.75L1096.8,297.05L1051.1,251.35L1005.4,251.35L959.7,205.65L914,205.65L776.9,342.75L731.2,342.75L685.5,297.05L434.15,297.05L411.3,342.75L685.5,342.75L731.2,388.45L1051.1,388.45L1096.8,342.75Z" style="fill:rgb(147,143,96);stroke:rgb(147,143,96);stroke-width:1px;"/>
            </g>
            <g transform="matrix(1,0,0,1,-30.5,-34.325)">
                <path d="M1325.3,1348.15L1325.3,1302.45L1439.55,1302.45L1462.4,1279.6L1462.4,1256.75L1485.25,1256.75L1508.1,1279.6L1508.1,1348.15L1325.3,1348.15Z" style="fill:rgb(147,143,96);stroke:rgb(147,143,96);stroke-width:1px;"/>
            </g>
            <g transform="matrix(1,0,0,1,-30.5,-34.325)">
                <path d="M1096.8,434.15L1096.8,571.25L1142.5,616.95L1325.3,616.95L1325.3,525.55L1211.05,525.55L1188.2,502.7L1188.2,434.15L1096.8,434.15Z" style="fill:rgb(147,143,96);stroke:rgb(147,143,96);stroke-width:1px;"/>
            </g>
            <g transform="matrix(1,0,0,-1,-30.5,1290.98)">
                <path d="M1142.5,434.15L1142.5,571.25L1188.2,616.95L1325.3,616.95L1233.9,525.55L1211.05,525.55L1188.2,502.7L1188.2,479.85L1142.5,434.15Z" style="fill:rgb(147,143,96);stroke:rgb(147,143,96);stroke-width:1px;"/>
            </g>
            <g transform="matrix(1,0,0,1,-30.5,-34.325)">
                <path d="M1142.5,251.35L1233.9,159.95L1233.9,114.25L1142.5,114.25L1096.8,205.65L1096.8,251.35L1142.5,251.35Z" style="fill:rgb(147,143,96);stroke:rgb(147,143,96);stroke-width:1px;"/>
            </g>
            <g transform="matrix(1,0,0,1,-30.5,-34.325)">
                <path d="M1782.3,1165.35L1782.3,1348.15L1828,1348.15L1919.4,1256.75L1919.4,1165.35L1782.3,1165.35Z" style="fill:rgb(147,143,96);stroke:rgb(147,143,96);stroke-width:1px;"/>
            </g>
            <g transform="matrix(1,0,0,1,-30.5,-34.325)">
                <rect x="1782.3" y="982.55" width="137.1" height="91.4" style="fill:rgb(147,143,96);stroke:rgb(147,143,96);stroke-width:1px;"/>
            </g>
            <g transform="matrix(1,0,0,1,-30.5,-34.325)">
                <rect x="1782.3" y="799.75" width="137.1" height="91.4" style="fill:rgb(147,143,96);stroke:rgb(147,143,96);stroke-width:1px;"/>
            </g>
            <g transform="matrix(1,0,0,1,-30.5,-34.325)">
                <path d="M1828,708.35L1782.3,662.65L1782.3,616.95L1873.7,525.55L1919.4,525.55L1919.4,708.35L1828,708.35Z" style="fill:rgb(147,143,96);stroke:rgb(147,143,96);stroke-width:1px;"/>
            </g>
            <g transform="matrix(1,0,0,1,-30.5,-34.325)">
                <path d="M1325.3,205.65L1325.3,159.95L1371,114.25L1462.4,114.25L1462.4,159.95L1416.7,251.35L1371,251.35L1325.3,205.65Z" style="fill:rgb(147,143,96);stroke:rgb(147,143,96);stroke-width:1px;"/>
            </g>
            <g transform="matrix(1,0,0,1,-30.5,-34.325)">
                <path d="M1508.1,297.05L1508.1,251.35L1553.8,205.65L1599.5,159.95L1645.2,159.95L1690.9,205.65L1690.9,251.35L1645.2,297.05L1599.5,342.75L1553.8,342.75L1508.1,297.05Z" style="fill:rgb(147,143,96);stroke:rgb(147,143,96);stroke-width:1px;"/>
            </g>
            <g transform="matrix(1,0,0,1,-30.5,-34.325)">
                <path d="M1713.75,159.95L1736.6,159.95L1736.6,137.1L1759.45,114.25L1782.3,114.25L1782.3,205.65L1736.6,205.65L1713.75,205.65L1690.9,182.8L1713.75,159.95Z" style="fill:rgb(147,143,96);stroke:rgb(147,143,96);stroke-width:1px;"/>
            </g>
            <g transform="matrix(1,0,0,1,-30.5,-34.325)">
                <path d="M1919.4,297.05L1896.55,297.05L1873.7,319.9L1873.7,342.75L1850.85,342.75L1828,365.6L1850.85,388.45L1919.4,388.45L1919.4,297.05Z" style="fill:rgb(147,143,96);stroke:rgb(147,143,96);stroke-width:1px;"/>
            </g>
            <g transform="matrix(1,0,0,1,-30.5,-34.325)">
                <path d="M1736.6,525.55L1690.9,525.55L1645.2,479.85L1645.2,434.15L1690.9,388.45L1736.6,342.75L1782.3,342.75L1828,388.45L1828,434.15L1782.3,479.85L1736.6,525.55Z" style="fill:rgb(147,143,96);stroke:rgb(147,143,96);stroke-width:1px;"/>
            </g>
            <g transform="matrix(1,0,0,1,-30.5,-34.325)">
                <path d="M822.6,1256.75L822.6,1279.6L799.75,1302.45L685.5,1302.45L685.5,1348.15L845.45,1348.15L868.3,1371L868.3,1416.7L845.45,1439.55L708.35,1439.55L754.05,1485.25L1051.1,1485.25L1096.8,1439.55L1096.8,1416.7L1073.95,1393.85L1051.1,1393.85L1005.4,1348.15L1005.4,1279.6L982.55,1256.75L822.6,1256.75Z" style="fill:rgb(147,143,96);stroke:rgb(147,143,96);stroke-width:1px;"/>
            </g>
        </g>
        <g id="Layer20">
            <g transform="matrix(1,0,0,1,-30.5,-34.325)">
                <path d="M548.4,1348.15L457,1393.85L411.3,1439.55L411.3,1599.5L434.15,1622.35L571.25,1622.35L594.1,1599.5L594.1,1348.15L548.4,1348.15Z" style="fill:rgb(16,31,63);stroke:rgb(16,31,63);stroke-width:1px;"/>
            </g>
            <g transform="matrix(1,0,0,1,-30.5,-34.325)">
                <path d="M1736.6,1348.15L1690.9,1348.15L1599.5,1393.85L1553.8,1439.55L1508.1,1485.25L1462.4,1485.25L1371,1530.95L1371,1599.5L1393.85,1622.35L1690.9,1622.35L1736.6,1576.65L1736.6,1348.15Z" style="fill:rgb(16,31,63);stroke:rgb(16,31,63);stroke-width:1px;"/>
            </g>
            <g transform="matrix(1,0,0,1,-30.5,-34.325)">
                <path d="M1096.8,1576.65L1096.8,1530.95L776.9,1530.95L731.2,1576.65L731.2,1599.5L754.05,1622.35L1051.1,1622.35L1096.8,1576.65Z" style="fill:rgb(16,31,63);stroke:rgb(16,31,63);stroke-width:1px;"/>
            </g>
        </g>
        <g id="Layer18">
            <g transform="matrix(1,0,0,1,-30.5,-34.325)">
                <path d="M1553.8,936.85L1553.8,891.15L1645.2,799.75L1690.9,799.75L1690.9,914L1668.05,936.85L1553.8,936.85Z" style="fill:rgb(44,112,142);stroke:rgb(44,112,142);stroke-width:1px;"/>
            </g>
            <g transform="matrix(1,0,0,1,-30.5,-34.325)">
                <path d="M1416.7,708.35L1233.9,891.15L1233.9,982.55L1279.6,1028.25L1393.85,1028.25L1416.7,1005.4L1416.7,914L1393.85,891.15L1348.15,891.15L1325.3,914L1325.3,936.85L1348.15,959.7L1348.15,936.85L1371,959.7L1348.15,982.55L1302.45,982.55L1279.6,959.7L1279.6,891.15L1325.3,845.45L1416.7,845.45L1462.4,891.15L1462.4,982.55L1508.1,982.55L1508.1,891.15L1462.4,708.35L1416.7,708.35Z" style="fill:rgb(44,112,142);stroke:rgb(44,112,142);stroke-width:1px;"/>
            </g>
            <g transform="matrix(1,0,0,1,-30.5,-34.325)">
                <path d="M457,936.85L457,799.75L502.7,799.75L594.1,891.15L594.1,936.85L457,936.85Z" style="fill:rgb(44,112,142);stroke:rgb(44,112,142);stroke-width:1px;"/>
            </g>
            <g transform="matrix(1,0,0,1,-30.5,-34.325)">
                <path d="M639.8,914L639.8,754.05L685.5,754.05L822.6,891.15L822.6,936.85L662.65,936.85L639.8,914Z" style="fill:rgb(44,112,142);stroke:rgb(44,112,142);stroke-width:1px;"/>
            </g>
        </g>
        <g id="Layer16">
            <g transform="matrix(1,0,0,1,-30.5,-34.325)">
                <path d="M1462.4,1485.25L1371,1485.25L1325.3,1530.95L1325.3,1622.35L1348.15,1576.65L1371,1553.8L1416.7,1530.95L1439.55,1530.95L1462.4,1508.1L1462.4,1485.25Z" style="fill:rgb(57,207,238);stroke:rgb(57,207,238);stroke-width:1px;"/>
            </g>
            <g transform="matrix(0.666667,0,0,0.667031,-205.683,505.917)">
                <path d="M1462.4,1485.25L1371,1485.25L1325.3,1530.95L1325.3,1622.35L1348.15,1576.65L1371,1553.8L1416.7,1530.95L1439.55,1530.95L1462.4,1508.1L1462.4,1485.25Z" style="fill:rgb(57,207,238);stroke:rgb(57,207,238);stroke-width:1.5px;"/>
            </g>
            <g transform="matrix(0.666667,0,0,0.667031,-91.4333,505.917)">
                <path d="M1462.4,1485.25L1371,1485.25L1325.3,1530.95L1325.3,1622.35L1348.15,1576.65L1371,1553.8L1416.7,1530.95L1439.55,1530.95L1462.4,1508.1L1462.4,1485.25Z" style="fill:rgb(57,207,238);stroke:rgb(57,207,238);stroke-width:1.5px;"/>
            </g>
            <g transform="matrix(0.666667,0,0,1,-525.583,-34.325)">
                <path d="M1462.4,1485.25L1371,1485.25L1325.3,1530.95L1325.3,1622.35L1348.15,1576.65L1371,1553.8L1416.7,1530.95L1439.55,1530.95L1462.4,1508.1L1462.4,1485.25Z" style="fill:rgb(57,207,238);stroke:rgb(57,207,238);stroke-width:1.18px;"/>
            </g>
            <g transform="matrix(0.666667,0,0,1,-411.333,-34.325)">
                <path d="M1462.4,1485.25L1371,1485.25L1325.3,1530.95L1325.3,1622.35L1348.15,1576.65L1371,1553.8L1416.7,1530.95L1439.55,1530.95L1462.4,1508.1L1462.4,1485.25Z" style="fill:rgb(57,207,238);stroke:rgb(57,207,238);stroke-width:1.18px;"/>
            </g>
            <g transform="matrix(1,0,0,1,106.6,-34.325)">
                <path d="M1462.4,1485.25L1371,1485.25L1325.3,1530.95L1325.3,1622.35L1348.15,1576.65L1371,1553.8L1416.7,1530.95L1439.55,1530.95L1462.4,1508.1L1462.4,1485.25Z" style="fill:rgb(57,207,238);stroke:rgb(57,207,238);stroke-width:1px;"/>
            </g>
        </g>
        <g transform="matrix(1,0,0,1,-167.6,-1405.33)">
            <g id="Layer17">
                <path d="M1508.1,1485.25L1462.4,1530.95L1439.55,1530.95L1393.85,1508.1L1416.7,1530.95L1348.15,1553.8L1416.7,1576.65L1393.85,1599.5L1439.55,1576.65L1462.4,1576.65L1508.1,1622.35L1485.25,1576.65L1485.25,1530.95L1508.1,1485.25Z" style="fill:rgb(16,32,61);stroke:rgb(16,32,61);stroke-width:1px;"/>
            </g>
        </g>
        <g transform="matrix(1,0,0,1,-30.5,-34.325)">
            <g id="Layer10">
                <path d="M411.3,228.5L457,205.65L479.85,159.95L525.55,159.95L502.7,182.8L502.7,205.65L685.5,205.65L731.2,159.95L891.15,159.95L914,114.25L959.7,114.25L936.85,137.1L936.85,159.95L1005.4,159.95L1005.4,205.65L868.3,205.65L822.6,251.35L434.15,251.35L411.3,274.2L411.3,228.5Z" style="fill:rgb(9,48,55);stroke:rgb(9,48,55);stroke-width:1px;"/>
            </g>
        </g>
        <g id="Layer21">
            <g transform="matrix(1,0,0,1,335.1,79.925)">
                <path d="M168.484,1343.39L163.883,1325.37L124.372,1379.1L161.311,1315.29L155.453,1292.33L149.496,1285.73L137.568,1308.8L146.394,1280.3L130.95,1259.81L127.583,1243.51L146.728,1200.37L137.777,1183.01L122.851,1171.08L90.976,1176.68L117.722,1166.98L106.106,1157.7L100.353,1123.45L89.491,1099.72L66.818,1092.64L61.634,1083.46L67.154,1062.8L58.764,1030.03L70.825,1008.1L67.921,994.762L74.791,1007.25L74.356,1021.2L69.953,1032.21L76.949,1050.9L76.85,1085.28L88.827,1085.9L98.95,1096.37L109.428,1094.31L125.689,1087.64L142.697,1055.14L149.353,1032.77L144.011,1014.3L150.411,1000.95L122.431,1013.75L111.377,994.719L98.629,984.256L95.895,973.482L90.077,969.537L90.584,946.375L94.75,963.206L101.668,969.206L105.856,982.347L117.151,992.191L122.621,1003.84L130.898,1002.64L160.135,984.431L169.705,964.009L187.014,954.003L206.772,942.424L234.252,948.009L230.545,921.78L233.68,928.637L264.128,908.567L235.574,932.779L236.428,941.784L248.87,951.336L259.079,953.054L313.597,944.478L340.313,937.633L351.326,949.859L367.052,937.832L382.676,943.232L402.911,935.345L418.437,935.568L439.125,928.203L457,914L457,936.85L415.771,944.194L408.88,952.697L421.056,969.646L449.561,980.255L415.352,972.423L418.305,992.059L406.967,960.014L400.18,954.953L364.088,954.779L352.52,967.636L338.431,947.499L319.879,954.499L292.952,953.962L259.144,965.471L221.216,953.171L185.922,966.914L176.727,975.675L170.808,995.615L158.09,1005.1L156.99,1019.58L162.528,1053.97L147.253,1082.77L155.031,1117.22L169.167,1126.02L189.771,1120.45L203.127,1162.79L186.94,1125.94L169.791,1136.68L147.998,1126.69L136.722,1092.59L117.73,1118.08L127.445,1145.54L141.86,1162.51L157.11,1188.48L158.205,1218.14L140.599,1245.61L149.971,1260.37L161.303,1285.26L173.371,1285.06L190.628,1277.7L179.616,1283.62L177.532,1288.81L194.891,1294.05L163.851,1290.85L169.946,1304.24L168.484,1343.39Z" style="fill:rgb(54,205,245);stroke:rgb(54,205,245);stroke-width:1px;"/>
            </g>
            <g transform="matrix(-1,0,0,1,1741.84,96.5972)">
                <path d="M211.137,1346.97L183.757,1333.75L158.824,1364.23L174.157,1334.93L155.453,1292.33L149.496,1285.73L132.34,1297.77L130.506,1311.16L130.13,1296.09L139.314,1285.34L110.971,1272.86L141.218,1279.97L130.95,1259.81L127.583,1243.51L146.728,1200.37L137.777,1183.01L122.851,1171.08L101.191,1193.21L117.722,1166.98L106.106,1157.7L100.353,1123.45L89.491,1099.72L75.767,1085.06L72.156,1056.93L60.034,1050.62L71.925,1032.06L69.5,1016.36L78.124,1008.93L103.38,1018.57L87.345,1019.07L77.506,1016.19L78.267,1034.12L68.88,1048.58L80.894,1053.94L80.532,1067.09L78.524,1075.44L98.95,1096.37L109.428,1094.31L125.689,1087.64L142.697,1055.14L139.895,1028.87L157.522,1022.71L150.411,1000.95L122.431,1013.75L111.377,994.719L98.629,984.256L95.895,973.482L90.077,969.537L90.584,946.375L94.75,963.206L101.668,969.206L105.856,982.347L117.151,992.191L122.621,1003.84L130.898,1002.64L156.081,981.579L169.705,964.009L184.872,948.253L206.546,955.615L219.986,944.01L203.091,934.895L198.106,923.405L203.354,913.949L203.775,906.044L191.105,902.342L167.641,921.289L190.504,897.316L210.09,901.814L225.019,873.546L203.286,926.217L210.027,932.863L224.818,939.837L229.65,935.665L233.653,952.467L259.079,953.054L288.382,948.445L316.097,921.255L306.23,933.355L316.168,938.776L303.464,936.748L294.742,947.444L313.597,944.478L340.313,937.633L359.119,944.372L373.476,948.539L379.753,939.823L402.911,935.345L418.437,935.568L445.769,939.853L471.236,924.518L492.742,920.178L492.742,943.028L465.606,939.514L448.862,950.336L415.771,944.194L403.972,946.725L391.509,941.464L385.518,949.551L395.819,963.895L377.555,973.842L389.885,961.158L376.768,956.25L364.088,954.779L352.44,950.221L340.737,945.67L319.879,954.499L292.952,953.962L259.144,965.471L219.961,961.54L222.303,949.409L205.574,966.937L185.809,957.669L176.727,975.675L165.553,986.908L158.09,1005.1L170.351,1019.73L151.87,1039.11L147.253,1082.77L156.533,1111.82L169.167,1126.02L177.388,1121.2L189.459,1076.58L184.763,1123.69L172.946,1135.93L156.423,1131.94L142.897,1111.51L136.722,1092.59L117.73,1118.08L127.445,1145.54L141.86,1162.51L157.11,1188.48L158.205,1218.14L140.599,1245.61L149.971,1260.37L161.303,1285.26L173.371,1285.06L177.532,1288.81L189.614,1308.63L172.61,1292.37L163.851,1290.85L174.149,1320.07L211.137,1346.97Z" style="fill:rgb(54,205,245);stroke:rgb(54,205,245);stroke-width:1px;"/>
            </g>
        </g>
        <g transform="matrix(1,0,0,1,-30.5,-34.325)">
            <g id="Layer9">
                <path d="M708.35,251.35L731.2,221.151L754.05,205.65L776.9,205.65L776.9,228.5L754.05,251.35L708.35,251.35Z" style="fill:rgb(152,213,131);stroke:rgb(152,213,131);stroke-width:1px;"/>
            </g>
        </g>
    </g>
</svg>
