<?xml version="1.0" encoding="UTF-8" standalone="no"?>
<!DOCTYPE svg PUBLIC "-//W3C//DTD SVG 1.1//EN" "http://www.w3.org/Graphics/SVG/1.1/DTD/svg11.dtd">
<svg width="100%" height="100%" viewBox="0 0 4634 3475" version="1.1" xmlns="http://www.w3.org/2000/svg" xmlns:xlink="http://www.w3.org/1999/xlink" xml:space="preserve" xmlns:serif="http://www.serif.com/" style="fill-rule:evenodd;clip-rule:evenodd;stroke-linecap:round;stroke-linejoin:round;stroke-miterlimit:1.5;">
    <g transform="matrix(2.08333,0,0,2.08333,0,0)">
        <g transform="matrix(1,0,0,1,-53.35,-22.875)">
            <g id="Layer8">
                <path d="M731.2,251.35L776.9,205.65L936.85,205.65L959.7,228.5L959.7,411.3L982.55,434.15L1028.25,434.15L1051.1,457L1096.8,479.85L1256.75,479.85L1279.6,502.7L1279.6,594.1L1256.75,616.95L1211.05,616.95L1188.2,662.65L1165.35,662.65L1142.5,708.35L799.75,708.35L776.9,685.5L776.9,662.65L1119.65,662.65L1142.5,639.8L1142.5,548.4L1119.65,525.55L731.2,525.55L731.2,251.35Z" style="fill:rgb(223,191,65);stroke:rgb(223,191,65);stroke-width:1px;"/>
            </g>
        </g>
        <g id="Layer9" transform="matrix(1,0,0,1,-22.85,1.13687e-13)">
            <g transform="matrix(1,0,0,1,-30.5,-22.875)">
                <path d="M731.2,525.55L731.2,548.4L754.05,571.25L776.9,525.55L731.2,525.55Z" style="fill:rgb(229,238,239);stroke:rgb(229,238,239);stroke-width:1px;"/>
            </g>
            <g transform="matrix(-1,0,0,1,2071.7,45.675)">
                <path d="M708.35,502.7L754.05,548.4L776.9,525.55L708.35,502.7Z" style="fill:rgb(229,238,239);stroke:rgb(229,238,239);stroke-width:1px;"/>
            </g>
            <g transform="matrix(-1,0,0,1,2140.25,45.675)">
                <path d="M731.2,525.55L731.2,548.4L754.05,571.25L776.9,525.55L731.2,525.55Z" style="fill:rgb(229,238,239);stroke:rgb(229,238,239);stroke-width:1px;"/>
            </g>
            <g transform="matrix(-1,0,0,1,2208.8,45.675)">
                <path d="M708.35,502.7L708.35,525.55L754.05,594.1L776.9,525.55L708.35,502.7Z" style="fill:rgb(229,238,239);stroke:rgb(229,238,239);stroke-width:1px;"/>
            </g>
            <g transform="matrix(1,0,0,1,60.9,-22.875)">
                <path d="M731.2,525.55L731.2,548.4L754.05,571.25L776.9,525.55L731.2,525.55Z" style="fill:rgb(229,238,239);stroke:rgb(229,238,239);stroke-width:1px;"/>
            </g>
            <g transform="matrix(1,0,0,1,152.3,-22.875)">
                <path d="M731.2,525.55L731.2,548.4L754.05,571.25L776.9,525.55L731.2,525.55Z" style="fill:rgb(229,238,239);stroke:rgb(229,238,239);stroke-width:1px;"/>
            </g>
            <g transform="matrix(1,0,0,-1,15.2,1165.33)">
                <path d="M731.2,525.55L731.2,548.4L754.05,571.25L776.9,525.55L731.2,525.55Z" style="fill:rgb(229,238,239);stroke:rgb(229,238,239);stroke-width:1px;"/>
            </g>
            <g transform="matrix(1,0,0,-1,106.6,1165.33)">
                <path d="M731.2,525.55L731.2,548.4L754.05,571.25L776.9,525.55L731.2,525.55Z" style="fill:rgb(229,238,239);stroke:rgb(229,238,239);stroke-width:1px;"/>
            </g>
            <g transform="matrix(1,0,0,-1,198,1165.33)">
                <path d="M731.2,525.55L731.2,548.4L754.05,571.25L776.9,525.55L731.2,525.55Z" style="fill:rgb(229,238,239);stroke:rgb(229,238,239);stroke-width:1px;"/>
            </g>
        </g>
        <g id="Layer12">
            <g transform="matrix(1,0,0,1,-30.5,-0.025)">
                <path d="M1051.1,342.75L1096.8,297.05L1393.85,297.05L1416.7,319.9L1416.7,342.75L1371,388.45L1325.3,411.3L1348.15,434.15L1371,434.15L1462.4,479.85L1508.1,525.55L1508.1,548.4L1485.25,571.25L1302.45,571.25L1279.6,479.85L1279.6,457L1256.75,434.15L1051.1,434.15L1051.1,342.75Z" style="fill:rgb(84,125,177);stroke:rgb(84,125,177);stroke-width:1px;"/>
            </g>
            <g transform="matrix(1,0,0,1,-30.5,-22.875)">
                <path d="M1371,708.35L1256.75,845.45L1233.9,936.85L1051.1,936.85L1051.1,799.75L1188.2,662.65L1371,662.65L1371,708.35Z" style="fill:rgb(84,125,177);stroke:rgb(84,125,177);stroke-width:1px;"/>
            </g>
            <g transform="matrix(1,0,0,1,-53.35,-22.875)">
                <path d="M822.6,1211.05L776.9,1256.75L754.05,1325.3L776.9,1393.85L822.6,1439.55L914,1485.25L1005.4,1485.25L1005.4,1439.55L959.7,1348.15L914,1211.05L868.3,1202.64L822.6,1211.05Z" style="fill:rgb(84,125,177);stroke:rgb(84,125,177);stroke-width:1px;"/>
            </g>
            <g transform="matrix(-1,0,0,1,2277.35,-22.875)">
                <path d="M822.6,1211.05L776.9,1256.75L754.05,1325.3L776.9,1393.85L822.6,1439.55L914,1485.25L1005.4,1485.25L1005.4,1439.55L959.7,1348.15L914,1211.05L868.3,1202.64L822.6,1211.05Z" style="fill:rgb(84,125,177);stroke:rgb(84,125,177);stroke-width:1px;"/>
            </g>
            <g transform="matrix(1,0,0,1,-30.5,-22.875)">
                <path d="M1005.4,936.85L868.3,891.15L731.2,845.45L639.8,754.05L594.1,662.65L502.7,662.65L365.6,799.75L365.6,1188.2L388.45,1211.05L411.3,1211.05L411.3,1165.35L457,1119.65L502.7,1119.65L548.4,1165.35L548.4,1211.05L594.1,1211.05L594.1,1165.35L639.8,1119.65L685.5,1142.5L731.2,1119.65L731.2,1073.95L868.3,1073.95L868.3,1096.8L891.15,1119.65L914,1096.8L914,1051.1L959.7,1005.4L959.7,982.55L982.55,982.55L1005.4,959.7L1005.4,936.85Z" style="fill:rgb(84,125,177);stroke:rgb(84,125,177);stroke-width:1px;"/>
            </g>
            <g transform="matrix(-1,0,0,1,2254.5,-22.875)">
                <path d="M1005.4,936.85L868.3,891.15L731.2,845.45L639.8,754.05L594.1,662.65L502.7,662.65L365.6,799.75L365.6,1188.2L388.45,1211.05L411.3,1211.05L411.3,1165.35L457,1119.65L502.7,1119.65L548.4,1165.35L548.4,1211.05L594.1,1211.05L594.1,1165.35L639.8,1119.65L685.5,1142.5L731.2,1119.65L731.2,1073.95L868.3,1073.95L868.3,1096.8L891.15,1119.65L914,1096.8L914,1051.1L959.7,1005.4L959.7,982.55L982.55,982.55L1005.4,959.7L1005.4,936.85Z" style="fill:rgb(84,125,177);stroke:rgb(84,125,177);stroke-width:1px;"/>
            </g>
            <g transform="matrix(1,0,0,-1,-53.35,3084.73)">
                <path d="M708.35,1530.95L708.35,1576.65L754.05,1599.5L822.6,1576.65L868.3,1599.5L936.85,1576.65L982.55,1599.5L1051.1,1576.65L1051.1,1553.8L1028.25,1530.95L708.35,1530.95Z" style="fill:rgb(84,125,177);stroke:rgb(84,125,177);stroke-width:1px;"/>
            </g>
            <g transform="matrix(-1,0,0,-1,2277.35,3084.73)">
                <path d="M708.35,1530.95L708.35,1576.65L754.05,1599.5L822.6,1576.65L868.3,1599.5L936.85,1576.65L982.55,1599.5L1051.1,1576.65L1051.1,1553.8L1028.25,1530.95L708.35,1530.95Z" style="fill:rgb(84,125,177);stroke:rgb(84,125,177);stroke-width:1px;"/>
            </g>
        </g>
        <g transform="matrix(1,0,0,1,-30.5,-0.025)">
            <g id="Layer10">
                <path d="M1142.5,411.3L1165.35,434.15L1256.75,434.15L1279.6,411.3L1279.6,319.9L1256.75,297.05L1165.35,297.05L1142.5,319.9L1142.5,411.3Z" style="fill:rgb(143,175,205);stroke:rgb(143,175,205);stroke-width:1px;"/>
            </g>
        </g>
        <g transform="matrix(0.5,0,0,0.5,575.025,182.775)">
            <g id="Layer11">
                <path d="M1165.35,388.45L1188.2,411.3L1233.9,411.3L1256.75,388.45L1256.75,342.75L1233.9,319.9L1188.2,319.9L1165.35,342.75L1165.35,388.45Z" style="fill:rgb(197,194,129);stroke:rgb(197,194,129);stroke-width:2px;"/>
            </g>
        </g>
        <g transform="matrix(1,0,0,1,-30.5,-0.025)">
            <g id="Layer14">
                <path d="M1051.1,251.35L1005.4,205.65L1005.4,114.25L1051.1,68.55L1439.55,68.55L1462.4,91.4L1462.4,114.25L1325.3,251.35L1256.75,251.35L1233.9,274.2L1233.9,297.05L1142.5,297.05L1051.1,251.35Z" style="fill:rgb(72,30,0);stroke:rgb(72,30,0);stroke-width:1px;"/>
            </g>
        </g>
        <g id="Layer13">
            <g transform="matrix(1,0,0,1,-30.5,-0.025)">
                <path d="M1096.8,274.2L1096.8,68.55L1142.5,68.55L1142.5,297.05L1096.8,274.2Z" style="fill:rgb(171,110,35);stroke:rgb(171,110,35);stroke-width:1px;"/>
            </g>
            <g transform="matrix(1,0,0,1,-121.9,-0.025)">
                <path d="M1096.8,205.65L1096.8,114.25L1142.5,68.55L1142.5,251.35L1096.8,205.65Z" style="fill:rgb(171,110,35);stroke:rgb(171,110,35);stroke-width:1px;"/>
            </g>
            <g transform="matrix(1,0,0,1,-30.5,-0.025)">
                <rect x="1188.2" y="68.55" width="45.7" height="228.5" style="fill:rgb(171,110,35);stroke:rgb(171,110,35);stroke-width:1px;"/>
            </g>
            <g transform="matrix(1,0,0,1,-30.5,-0.025)">
                <rect x="1279.6" y="68.55" width="45.7" height="182.8" style="fill:rgb(171,110,35);stroke:rgb(171,110,35);stroke-width:1px;"/>
            </g>
            <g transform="matrix(1,0,0,1,-30.5,-0.025)">
                <path d="M1371,68.55L1416.7,68.55L1416.7,159.95L1371,205.65L1371,68.55Z" style="fill:rgb(171,110,35);stroke:rgb(171,110,35);stroke-width:1px;"/>
            </g>
            <g transform="matrix(1,0,0,1,-53.35,-45.725)">
                <path d="M868.3,319.9L891.15,297.05L914,297.05L914,342.75L868.3,342.75L868.3,319.9Z" style="fill:rgb(171,110,35);stroke:rgb(171,110,35);stroke-width:1px;"/>
            </g>
            <g transform="matrix(1,0,0,1,-30.5,-22.875)">
                <path d="M868.3,434.15L914,457L914,479.85L891.15,502.7L868.3,479.85L868.3,434.15Z" style="fill:rgb(171,110,35);stroke:rgb(171,110,35);stroke-width:1px;"/>
            </g>
            <g transform="matrix(1,0,0,1,-76.2,11.4)">
                <path d="M776.9,342.75L776.9,411.3L799.75,434.15L799.75,388.45L822.6,365.6L799.75,319.9L776.9,342.75Z" style="fill:rgb(171,110,35);stroke:rgb(171,110,35);stroke-width:1px;"/>
            </g>
            <g transform="matrix(1,0,0,1,-53.35,-22.875)">
                <path d="M1188.2,571.25L1211.05,548.4L1233.9,571.25L1233.9,594.1L1188.2,571.25Z" style="fill:rgb(171,110,35);stroke:rgb(171,110,35);stroke-width:1px;"/>
            </g>
            <g transform="matrix(1,0,0,1,-99.05,-22.875)">
                <path d="M776.9,251.35L822.6,205.65L822.6,228.5L799.75,274.2L776.9,251.35Z" style="fill:rgb(171,110,35);stroke:rgb(171,110,35);stroke-width:1px;"/>
            </g>
        </g>
        <g id="Layer15">
            <g transform="matrix(1,0,0,1,-30.5,-22.875)">
                <path d="M1005.4,982.55L959.7,1028.25L959.7,1073.95L1325.3,1073.95L1325.3,1028.25L1279.6,982.55L1005.4,982.55Z" style="fill:rgb(208,209,177);stroke:rgb(208,209,177);stroke-width:1px;"/>
            </g>
            <g transform="matrix(1,0,0,1,-30.5,-22.875)">
                <path d="M959.7,1119.65L1325.3,1119.65L1348.15,1142.5L1348.15,1211.05L936.85,1211.05L936.85,1142.5L959.7,1119.65Z" style="fill:rgb(208,209,177);stroke:rgb(208,209,177);stroke-width:1px;"/>
            </g>
            <g transform="matrix(1,0,0,1,-30.5,114.225)">
                <path d="M959.7,1119.65L1325.3,1119.65L1325.3,1188.2L1302.45,1211.05L982.55,1211.05L959.7,1188.2L959.7,1119.65Z" style="fill:rgb(208,209,177);stroke:rgb(208,209,177);stroke-width:1px;"/>
            </g>
            <g transform="matrix(1,0,0,1,-53.35,-22.875)">
                <path d="M1005.4,1439.55L1051.1,1485.25L1279.6,1485.25L1325.3,1439.55L1325.3,1393.85L1005.4,1393.85L1005.4,1439.55Z" style="fill:rgb(208,209,177);stroke:rgb(208,209,177);stroke-width:1px;"/>
            </g>
        </g>
        <g id="Layer17">
            <g transform="matrix(1,0,0,1,-30.5,-22.875)">
                <path d="M1142.5,708.35L1096.8,754.05L1051.1,799.75L1233.9,799.75L1279.6,754.05L1279.6,708.35L1142.5,708.35Z" style="fill:rgb(221,162,47);stroke:rgb(221,162,47);stroke-width:1px;"/>
            </g>
            <g transform="matrix(1,0,0,1,-30.5,-22.875)">
                <path d="M1051.1,845.45L1051.1,936.85L1188.2,936.85L1188.2,868.3L1165.35,845.45L1051.1,845.45Z" style="fill:rgb(221,162,47);stroke:rgb(221,162,47);stroke-width:1px;"/>
            </g>
            <g transform="matrix(1,0,0,1,-30.5,-22.875)">
                <path d="M685.5,868.3L662.65,868.3L639.8,891.15L639.8,914L616.95,936.85L594.1,914L594.1,822.6L571.25,799.75L502.7,799.75L457,845.45L411.3,891.15L411.3,1211.05L457,1165.35L502.7,1165.35L548.4,1211.05L548.4,1005.4L571.25,982.55L594.1,1005.4L594.1,1211.05L639.8,1165.35L685.5,1142.5L685.5,1051.1L708.35,1028.25L731.2,1051.1L731.2,1119.65L868.3,1073.95L868.3,1028.25L868.3,1005.4L845.45,982.55L822.6,982.55L754.05,936.85L685.5,868.3Z" style="fill:rgb(221,162,47);stroke:rgb(221,162,47);stroke-width:1px;"/>
            </g>
            <g transform="matrix(-1,0,0,1,2254.5,-22.875)">
                <path d="M685.5,868.3L662.65,868.3L639.8,891.15L639.8,914L616.95,936.85L594.1,914L594.1,822.6L571.25,799.75L502.7,799.75L457,845.45L411.3,891.15L411.3,1211.05L457,1165.35L502.7,1165.35L548.4,1211.05L548.4,1005.4L571.25,982.55L594.1,1005.4L594.1,1211.05L639.8,1165.35L685.5,1142.5L685.5,1051.1L708.35,1028.25L731.2,1051.1L731.2,1119.65L868.3,1073.95L868.3,1028.25L868.3,1005.4L845.45,982.55L822.6,982.55L754.05,936.85L685.5,868.3Z" style="fill:rgb(221,162,47);stroke:rgb(221,162,47);stroke-width:1px;"/>
            </g>
            <g transform="matrix(1,0,0,1,-30.5,-22.875)">
                <path d="M1553.8,1393.85L1530.95,1439.55L1462.4,1485.25L1599.5,1485.25L1599.5,1393.85L1553.8,1393.85Z" style="fill:rgb(221,162,47);stroke:rgb(221,162,47);stroke-width:1px;"/>
            </g>
            <g transform="matrix(1,0,0,1,-30.5,-22.875)">
                <path d="M1645.2,1393.85L1645.2,1485.25L1782.3,1485.25L1782.3,1462.4L1713.75,1393.85L1645.2,1393.85Z" style="fill:rgb(221,162,47);stroke:rgb(221,162,47);stroke-width:1px;"/>
            </g>
            <g transform="matrix(1,0,0,1,-7.65,-45.725)">
                <path d="M1736.6,1348.15L1828,1348.15L1828,1462.4L1805.15,1462.4L1736.6,1393.85L1736.6,1348.15Z" style="fill:rgb(221,162,47);stroke:rgb(221,162,47);stroke-width:1px;"/>
            </g>
            <g transform="matrix(1,0,0,1,-53.35,-45.725)">
                <path d="M1782.3,1302.45L1782.3,1233.9L1782.3,1211.05L1873.7,1211.05L1873.7,1302.45L1782.3,1302.45Z" style="fill:rgb(221,162,47);stroke:rgb(221,162,47);stroke-width:1px;"/>
            </g>
        </g>
        <g id="Layer18">
            <g transform="matrix(1,0,0,1,-30.5,-22.875)">
                <path d="M502.7,616.95L502.7,571.25L594.1,479.85L639.8,479.85L662.65,502.7L639.8,502.7L616.95,525.55L594.1,616.95L502.7,616.95Z" style="fill:rgb(29,66,104);stroke:rgb(29,66,104);stroke-width:1px;"/>
            </g>
            <g transform="matrix(-1,0,0,1,2254.5,-22.875)">
                <path d="M502.7,616.95L502.7,571.25L594.1,479.85L639.8,479.85L662.65,502.7L639.8,502.7L616.95,525.55L594.1,616.95L502.7,616.95Z" style="fill:rgb(29,66,104);stroke:rgb(29,66,104);stroke-width:1px;"/>
            </g>
            <g transform="matrix(1,0,0,1,-30.5,-22.875)">
                <path d="M708.35,1530.95L685.5,1530.95L662.65,1553.8L639.8,1622.35L662.65,1599.5L708.35,1576.65L731.2,1576.65L731.2,1553.8L708.35,1530.95Z" style="fill:rgb(29,66,104);stroke:rgb(29,66,104);stroke-width:1px;"/>
            </g>
            <g transform="matrix(-1,0,0,1,2254.5,-22.875)">
                <path d="M708.35,1530.95L685.5,1530.95L662.65,1553.8L639.8,1622.35L662.65,1599.5L708.35,1576.65L731.2,1576.65L731.2,1553.8L708.35,1530.95Z" style="fill:rgb(29,66,104);stroke:rgb(29,66,104);stroke-width:1px;"/>
            </g>
            <g transform="matrix(1,0,0,1,83.75,-22.875)">
                <path d="M708.35,1530.95L685.5,1530.95L662.65,1553.8L639.8,1622.35L662.65,1599.5L708.35,1576.65L731.2,1576.65L731.2,1553.8L708.35,1530.95Z" style="fill:rgb(29,66,104);stroke:rgb(29,66,104);stroke-width:1px;"/>
            </g>
            <g transform="matrix(-1,0,0,1,2140.25,-22.875)">
                <path d="M708.35,1530.95L685.5,1530.95L662.65,1553.8L639.8,1622.35L662.65,1599.5L708.35,1576.65L731.2,1576.65L731.2,1553.8L708.35,1530.95Z" style="fill:rgb(29,66,104);stroke:rgb(29,66,104);stroke-width:1px;"/>
            </g>
            <g transform="matrix(1,0,0,1,198,-22.875)">
                <path d="M708.35,1530.95L685.5,1530.95L662.65,1553.8L639.8,1622.35L662.65,1599.5L708.35,1576.65L731.2,1576.65L731.2,1553.8L708.35,1530.95Z" style="fill:rgb(29,66,104);stroke:rgb(29,66,104);stroke-width:1px;"/>
            </g>
            <g transform="matrix(-1,0,0,1,2026,-22.875)">
                <path d="M708.35,1530.95L685.5,1530.95L662.65,1553.8L639.8,1622.35L662.65,1599.5L708.35,1576.65L731.2,1576.65L731.2,1553.8L708.35,1530.95Z" style="fill:rgb(29,66,104);stroke:rgb(29,66,104);stroke-width:1px;"/>
            </g>
        </g>
    </g>
</svg>
