<svg clip-rule="evenodd" fill-rule="evenodd" stroke-linecap="round" stroke-linejoin="round" stroke-miterlimit="1.5" viewBox="0 0 4634 3475" xmlns="http://www.w3.org/2000/svg"><path d="m1763.3 893.1v91.6l-91.6 91.6h-183.2v-137.4l45.8-45.8z" fill="#927f6c" stroke="#927f6c" transform="matrix(2.08333 0 0 2.08333 74.374881 -27.708289)"/><path d="m1580.1 709.9v-91.6l-91.6-91.6h-229v91.6l45.8 45.8 137.4 45.8z" fill="#927f6c" stroke="#927f6c" transform="matrix(2.08333 0 0 2.08333 74.374881 -27.708289)"/><path d="m1328.2 526.7v114.5l45.8 45.8h45.8l-45.8-45.8v-114.5z" fill="#c61310" stroke="#c61310" transform="matrix(2.08333 0 0 2.08333 26.666624 -27.708289)"/><path d="m1328.2 526.7v91.6l91.6 91.6h45.8l-91.6-91.6v-91.6z" fill="#c61310" stroke="#c61310" transform="matrix(2.08333 0 0 2.08333 217.499652 -27.708289)"/><path d="m1465.6 1534.3-22.9 22.9v22.9l45.8 45.8h-137.4l-91.6-91.6zm343.5-68.7 22.9-22.9h22.9v91.6h-709.9l-22.9 22.9v22.9l45.8 45.8h-137.4l-91.6-91.6h103.05-194.65l-22.9 22.9v22.9l91.6 45.8h-206.1l-91.6-91.6h-114.5v45.8l68.7 45.8h-137.4l-45.8-45.8v-91.6l26.171-39.26-26.171-52.34v-389.3h-45.8l-45.8 91.6v-183.2l45.8-45.8 45.8-68.7v-114.5h-45.8l-45.8 91.6v-183.2l45.8-45.8v-45.8l45.8-45.8v-114.5l-45.8 22.9-45.8 91.6v-206.1l45.8-45.8 45.8-68.7 22.9-68.7h22.9v1328.2l22.9 45.8 68.7 45.8h1282.4zm-45.8 68.7-45.8 45.8v22.9l22.9 22.9h-114.5l-45.8-91.6zm-91.6-45.8 22.9-45.8h22.9l22.9-45.8h22.9v91.6zm-1328.2-274.8 45.8-91.6v183.2l-45.8 22.9-45.8 91.6v-206.1z" fill="#201f3f" stroke="#201f3f" transform="matrix(2.08333 0 0 2.08333 74.374881 -27.708289)"/><path d="m1351.1 984.7h-68.7l-22.9-22.9v-68.7l-45.8-45.8h-183.2l-45.8 45.8v137.4l45.8 45.8h114.5l22.9-45.8h-68.7l-22.9-22.9v-45.8l22.9-22.9h45.8l22.9 45.8 45.8 45.8h137.4z" fill="#201f3f" stroke="#201f3f" transform="matrix(2.08333 0 0 2.08333 74.374881 -27.708289)"/><path d="m916 274.8-22.9 45.8v45.8h45.8l22.9-22.9h160.3l45.8-45.8h183.2v45.8l-91.6 91.6v183.2l45.8 45.8 137.4 22.9v22.9h-274.8v91.6l-68.7-91.6h-68.7v91.6l-68.7-91.6h-183.2l-22.9-22.9v-114.5l45.8 45.8h45.8v-45.8l45.8 45.8h45.8l45.8-45.8h137.4l-45.8-45.8-22.9-45.8h-160.3l-45.8 45.8v-45.8h-45.8l-45.8 45.8v-183.2l45.8-45.8h68.7l22.9-22.9z" fill="#201f3f" stroke="#201f3f" transform="matrix(2.08333 0 0 2.08333 74.374881 -27.708289)"/><path d="m1076.3 1488.5h-549.6l-68.7-45.8-22.9-45.8v-1328.2h22.9l22.9 91.6 45.8 45.8 114.5 68.7v251.9l68.7 320.6 91.6 45.8v45.8h-137.4v45.8h45.8v91.6l137.4 91.6h870.2l45.8-91.6v412.2h-641.2l13.26-92.81z" fill="#1e0001" stroke="#1e0001" transform="matrix(2.08333 0 0 2.08333 74.374881 -27.708289)"/><path d="m552.465 1377.05 22.359-35.13 44.498-20.53 54.916 25.3 45.355-14.98 42.217 22.28-16.128 51.16 26.101 59.08 32.903-18.34 4.676-47.36 12.517-29.39 35.771 45.89 31.935 28.65 26.415 44.82 22.9 22.9 45.8-22.9 114.5 22.9 160.3 22.9 91.6 91.6h137.4l-45.8-45.8v-22.9l22.9-22.9h114.5l45.8 91.6h114.5l-22.9-22.9v-22.9l45.8-45.8h91.6v-91.6h-22.9l-22.9 22.9v22.9h-45.8v-412.2l-45.8 91.6h-572.5l-114.5 45.8-22.9 45.8-68.7-22.9-68.7-45.8-45.8-22.9-49.428-25.59-87.972 71.39-42.8-73.47-48.8-41.03v-160.3l44.586-37.766 47.014 37.766h114.5l-73.607-72.225-132.493-42.275v-229l45.8-22.9v-45.8l-55.679-17.96 5.269-84.205-61.607-48.585 26.015-90.64-59.502-94.806-29.884-28.546-30.712-93.258v137.4l45.8 45.8 14.792 52.972-38.926 84.401 47.034 68.727v137.4l-22.9 45.8-44.789 21.889-1.011 46.811 68.7 45.8v229l-22.9 22.9-45.8 22.9v68.7l72.242 21.65.119 33.05 37.84 47.66 36.446-6.8 13.653 41.84-71.824 52.59-34.548 48.16-35.511-2.39 50.283 61.94 27.849 6.21z" fill="#300" stroke="#300" transform="matrix(2.08333 0 0 2.08333 74.374881 -27.708289)"/><path d="m893.1 297.7v-45.8h-91.6-45.8l-91.6-45.8-68.7-91.6-68.7-45.8h206.1l91.6 22.9 68.7 68.7h137.4l68.7 68.7h22.9l-22.9-114.5-45.8-45.8h91.6l45.8 91.6h22.9l68.7 68.7h22.9l45.8-22.9v-68.7l-45.8-45.8h91.6l45.8 68.7 20.36 101.778 71.24 35.622h45.8v-45.8l-22.9-45.8-45.8-45.8h114.5l45.8 45.8 45.8 68.7v114.5l-15.85 31.708 7.41 9.271 54.24-18.079 45.8-22.9 45.8-91.6v229l-65.95 43.968 3.79 60.718 16.36 32.714h22.9l22.9-22.9v206.1l-45.8 45.8-22.9 45.8-22.9 45.8v-458l-91.6-91.6-183.2-91.6-91.6-91.6-251.9 22.9-114.5 114.5h-137.4l-22.9-22.9v-45.8z" fill="#300" stroke="#300" transform="matrix(2.08333 0 0 2.08333 74.374881 -27.708289)"/><path d="m1832 1236.6 22.9-68.7v-137.4h-45.8l-22.9 22.9v183.2z" fill="#300" stroke="#300" transform="matrix(2.08333 0 0 2.08333 74.374881 -27.708289)"/><path d="m435.1 68.7 17.557 114.509 28.243 22.891 40.354 19.417 18.439 68.18-43.789 87.499 72.479 40.762 11.67 35.397-18.653 44.086 11.1 25.259 54.979 15.251 10.792 21.609-65.771 8.94 18.055 92.816-28.785 94.24 23.929 74.444 107.781 25.615 39.32 33.485 18.761 29.792 49.939 16.008h-91.6l-22.357-22.267-71.695-48.993-55.617 54.229 12.269 200.231 62.26 25.55 29.34 66.05 11.311 36.15 31.162 22.62 10.978-51.45 39.478-13.72 26.995-45.94 39.816 8.14 39.26 36.3-63.515-5.03-22.066 41.33-21.819 17.4 12.72 39.48 33.08 6.32 69.508 22.37 104.856-17.55 32.056 43.73.7 52.66-71.057-64.81-63.984 44.07-60.208-29.46-18.848 24.25 2.774 36.94-19.539 34.18-11.056-46.91 9.844-53.35-20.846-23.22-37.666-17.4-35.215 20.85-18.719-26.35-85.781 6.81-58.319 76.35-53.877-44.43 41.486 2.3 40.92-58.04 69.771-28.79v-22.9l-28.621-62.03-62.979-6.67 11.323-81.26-72.983 3.55-29.94-13.89v-45.8l41.089 8.65 41.233-46.692 19.866-115.777-28.581-94.176 17.993-72.605-54.378-20.637-37.222 20.637v-45.8l23.436-19.911 55.615 31.903 31.182-53.951-21.891-87.202 21.096-60.849-17.838-38.99-58.443-45.152 55.262-110.314-34.515-43.943-53.904-29.591z" fill="#c61310" stroke="#c61310" transform="matrix(2.08333 0 0 2.08333 74.374881 -27.708289)"/><g stroke="#7b0206"><path d="m709.9 1488.5v-45.8l-22.9-22.9v-68.7l22.9-22.9h91.6l45.8-22.9v-45.8l22.9-22.9h45.8l68.7 68.7h-45.8v22.9l-34.263 22.9-57.337 68.7h-22.9v45.8h45.8l22.9 22.9z" fill="#810002" transform="matrix(2.08333 0 0 2.08333 742.290479 -27.708289)"/><path d="m709.9 1488.5v-45.8l-22.9-22.9v-68.7l22.9-22.9h91.6l22.9-22.9v-68.7h91.6l22.9 22.9v22.9h45.8v22.9l-45.8 22.9v22.9l-45.8 68.7h-45.8v45.8h45.8l22.9 22.9z" fill="#810002" transform="matrix(2.08333 0 0 2.08333 1410.206077 -27.708289)"/><path d="m1625.9 1351.1 22.9-45.8h45.8l22.9 22.9v45.8l-22.9 45.8-45.8-22.9-22.9-22.9z" fill="#810002" transform="matrix(2.08333 0 0 2.08333 74.374881 -27.708289)"/><path d="m1694.6 1259.5-22.9-45.8 22.9-22.9v-22.9l22.9 22.9v45.8z" fill="#810002" transform="matrix(2.08333 0 0 2.08333 74.374881 -27.708289)"/><path d="m1694.6 1259.5-22.9-45.8 22.9-22.9v-22.9l22.9 22.9v45.8z" fill="#810002" transform="matrix(2.08333 0 0 2.08333 -593.540717 19.999968)"/><path d="m1763.3 755.7h-320.6l-45.8 45.8v160.3l-22.9 22.9h-22.9l-22.9 45.8h-114.5v22.9l22.9 22.9h251.9v-137.4l45.8-45.8h229z" fill="#7b0206" transform="matrix(2.08333 0 0 2.08333 74.374881 -27.708289)"/><path d="m1763.3 709.9v-114.5l91.6-68.7v-229l-22.9 114.5-22.9 45.8-68.7 26.114-45.8-49.014 22.9-45.8v-114.5l-45.8-68.7-45.8-45.8h-114.5l91.6 22.9 22.9 22.9 22.9 45.8-22.9 91.6-43.65 33.778-47.95-33.778-68.7-68.7-22.9-114.5-45.8-68.7h-91.6l68.7 22.9 22.9 45.8v68.7l-45.8 22.9-45.8-2.002-91.6-89.598h-22.9l-45.8-91.6h-91.6l68.7 22.9 54.96 91.6 13.74 45.8v22.9l-78.8-10.451-81.5-81.149h-137.4l-68.7-68.7-91.6-22.9h-114.5l68.7 45.8 91.6 22.9 137.4 91.6 114.5 22.9 45.8 91.6h45.8l58.21-31.757 155.33-1.332-10.31 39.273-86.1 86.103 20.27 90.913h229l91.6 91.6v91.6z" fill="#7b0206" transform="matrix(2.08333 0 0 2.08333 74.374881 -27.708289)"/><path d="m1122.1 412.2 12.8-29.784 57.47-10.991-5.17 32.502-35.94 19.831z" fill="#7b0206" transform="matrix(2.08333 0 0 2.08333 26.666624 -27.708289)"/><path d="m1122.1 412.2 12.8-29.784 57.47-10.991-5.17 32.502-35.94 19.831z" fill="#7b0206" transform="matrix(2.08333 0 0 2.08333 200.531346 -42.664307)"/><path d="m893.1 274.8-22.9 22.9h-68.7l-45.8 45.8v22.9l22.9-22.9 45.8-22.9h45.8l22.9-22.9z" fill="#7b0206" transform="matrix(2.08333 0 0 2.08333 74.374881 -27.708289)"/></g><g fill="#c90301" stroke="#c90301"><path d="m1167.9 1580.1v22.9l22.9 22.9h68.7l-22.9-22.9-45.8-22.9z" transform="matrix(2.08333 0 0 2.08333 74.374881 -27.708289)"/><path d="m1167.9 1603 22.9 22.9h91.6l-45.8-22.9h-45.8z" transform="matrix(2.08333 0 0 2.08333 1267.081306 -27.708289)"/><path d="m1167.9 1603 22.9 22.9h68.7l-45.8-22.9-45.8-22.9z" transform="matrix(2.08333 0 0 2.08333 742.290479 -27.708289)"/><path d="m1832 1419.8v-22.9-45.8l22.9 68.7" transform="matrix(-2.08333 0 0 2.08333 7755.404258 -27.708289)"/><g transform="matrix(2.08333 0 0 2.08333 74.374881 -27.708289)"><path d="m1809.1 1007.6 45.8-114.5v114.5z"/><path d="m893.1 366.4v-45.8l45.8-22.9 45.8-11.45-22.9 57.25-22.9 22.9z"/><path d="m1832 641.2v-22.9l11.13-45.8 11.77 45.8z"/></g><path d="m1843.45 641.2v-22.9l-22.9-45.8 45.8 45.8z" transform="matrix(2.08333 0 0 2.08333 50.520753 -743.332144)"/><path d="m1534.3 137.4 91.6-22.9 45.8 45.8v22.9l-45.8-45.8z" transform="matrix(2.08333 0 0 2.08333 74.374881 -27.708289)"/><path d="m1305.3 68.7 68.7 22.9 22.9 22.9 22.9 8.991-22.9-43.431-22.9-11.36z" transform="matrix(2.08333 0 0 2.08333 169.791395 -27.708289)"/><path d="m893.1 137.4 45.8-22.9h45.8l45.8 22.9z" transform="matrix(2.08333 0 0 2.08333 74.374881 -27.708289)"/><path d="m1236.6 137.4-45.8-22.9-22.9-45.8 22.9 10.988 68.7 57.712" transform="matrix(2.08333 0 0 2.08333 74.374881 -27.708289)"/></g></svg>