<?xml version="1.0" encoding="UTF-8" standalone="no"?>
<!DOCTYPE svg PUBLIC "-//W3C//DTD SVG 1.1//EN" "http://www.w3.org/Graphics/SVG/1.1/DTD/svg11.dtd">
<svg width="100%" height="100%" viewBox="0 0 4634 3475" version="1.1" xmlns="http://www.w3.org/2000/svg" xmlns:xlink="http://www.w3.org/1999/xlink" xml:space="preserve" xmlns:serif="http://www.serif.com/" style="fill-rule:evenodd;clip-rule:evenodd;stroke-linecap:round;stroke-linejoin:round;stroke-miterlimit:1.5;">
    <g transform="matrix(2.08333,0,0,2.08333,0,0)">
        <g id="Layer11">
            <g transform="matrix(1,0,0,1,-7.65,-11.45)">
                <path d="M868.3,525.55L914,479.85L1371,479.85L1416.7,525.55L1416.7,982.55L1233.9,1165.35L1051.1,1165.35L868.3,982.55L868.3,525.55Z" style="fill:rgb(79,15,0);stroke:rgb(79,15,0);stroke-width:1px;"/>
            </g>
            <g transform="matrix(1,0,0,1,-7.65,-11.45)">
                <path d="M731.2,982.55L639.8,982.55L594.1,1028.25L594.1,1165.35L685.5,1256.75L799.75,1256.75L822.6,1233.9L822.6,1119.65L731.2,1028.25L731.2,982.55Z" style="fill:rgb(79,15,0);stroke:rgb(79,15,0);stroke-width:1px;"/>
            </g>
            <g transform="matrix(-1,0,0,1,2277.35,-11.45)">
                <path d="M731.2,982.55L639.8,982.55L594.1,1028.25L594.1,1165.35L685.5,1256.75L822.6,1256.75L822.6,1119.65L731.2,1028.25L731.2,982.55Z" style="fill:rgb(79,15,0);stroke:rgb(79,15,0);stroke-width:1px;"/>
            </g>
            <g transform="matrix(1,0,0,1,-7.65,-11.45)">
                <path d="M1279.6,388.45L1371,297.05L1416.7,297.05L1416.7,411.3L1393.85,434.15L1279.6,434.15L1279.6,388.45Z" style="fill:rgb(79,15,0);stroke:rgb(79,15,0);stroke-width:1px;"/>
            </g>
            <g transform="matrix(1,0,0,1,-7.65,-11.45)">
                <path d="M1005.4,434.15L1005.4,388.45L914,297.05L868.3,297.05L868.3,411.3L891.15,434.15L1005.4,434.15Z" style="fill:rgb(79,15,0);stroke:rgb(79,15,0);stroke-width:1px;"/>
            </g>
            <g transform="matrix(1,0,0,1,-7.65,-11.45)">
                <path d="M1233.9,1393.85L959.7,1393.85L868.3,1485.25L868.3,1530.95L959.7,1622.35L1233.9,1622.35L1233.9,1393.85Z" style="fill:rgb(79,15,0);stroke:rgb(79,15,0);stroke-width:1px;"/>
            </g>
            <g transform="matrix(-1,0,0,1,2185.95,-1336.75)">
                <path d="M1233.9,1393.85L959.7,1393.85L868.3,1485.25L868.3,1530.95L959.7,1622.35L1233.9,1622.35L1233.9,1393.85Z" style="fill:rgb(79,15,0);stroke:rgb(79,15,0);stroke-width:1px;"/>
            </g>
        </g>
        <g id="Layer10">
            <g transform="matrix(1,0,0,1,-7.65,-11.45)">
                <path d="M868.3,616.95L914,571.25L1005.4,571.25L1096.8,662.65L1096.8,845.45L1005.4,936.85L914,936.85L868.3,891.15L868.3,616.95Z" style="fill:rgb(192,80,13);stroke:rgb(192,80,13);stroke-width:1px;"/>
            </g>
            <g transform="matrix(-1,0,0,1,2277.35,-11.45)">
                <path d="M868.3,616.95L914,571.25L1005.4,571.25L1096.8,662.65L1096.8,845.45L1005.4,936.85L914,936.85L868.3,891.15L868.3,616.95Z" style="fill:rgb(192,80,13);stroke:rgb(192,80,13);stroke-width:1px;"/>
            </g>
            <g transform="matrix(1,0,0,1,-7.65,-11.45)">
                <path d="M1462.4,1165.35L1599.5,1165.35L1599.5,1530.95L1508.1,1622.35L1233.9,1622.35L1233.9,1393.85L1439.55,1393.85L1462.4,1371L1462.4,1165.35Z" style="fill:rgb(192,80,13);stroke:rgb(192,80,13);stroke-width:1px;"/>
            </g>
            <g transform="matrix(1,0,0,1,-7.65,-11.45)">
                <path d="M1188.2,1622.35L1096.8,1622.35L1005.4,1530.95L1005.4,1485.25L1096.8,1393.85L1188.2,1393.85L1096.8,1485.25L1096.8,1530.95L1188.2,1622.35Z" style="fill:rgb(192,80,13);stroke:rgb(192,80,13);stroke-width:1px;"/>
            </g>
            <g transform="matrix(-1,0,0,-1,2185.95,1679.45)">
                <path d="M1188.2,1622.35L1096.8,1622.35L1005.4,1530.95L1005.4,1485.25L1096.8,1393.85L1188.2,1393.85L1096.8,1485.25L1096.8,1530.95L1188.2,1622.35Z" style="fill:rgb(192,80,13);stroke:rgb(192,80,13);stroke-width:1px;"/>
            </g>
            <g transform="matrix(1,0,0,1,-7.65,-11.45)">
                <path d="M548.4,479.85L548.4,182.8L662.65,68.55L959.7,68.55L959.7,297.05L708.35,297.05L685.5,319.9L685.5,479.85L548.4,479.85Z" style="fill:rgb(192,80,13);stroke:rgb(192,80,13);stroke-width:1px;"/>
            </g>
        </g>
        <g id="Layer9">
            <g transform="matrix(1,0,0,1,-7.65,-11.45)">
                <path d="M868.3,662.65L914,616.95L1005.4,616.95L1051.1,662.65L1051.1,845.45L1005.4,891.15L914,891.15L868.3,845.45L868.3,662.65Z" style="fill:rgb(225,192,46);stroke:rgb(225,192,46);stroke-width:1px;"/>
            </g>
            <g transform="matrix(1,0,0,1,357.95,-11.45)">
                <path d="M868.3,662.65L914,616.95L1005.4,616.95L1051.1,662.65L1051.1,845.45L1005.4,891.15L914,891.15L868.3,845.45L868.3,662.65Z" style="fill:rgb(225,192,46);stroke:rgb(225,192,46);stroke-width:1px;"/>
            </g>
            <g transform="matrix(1,0,0,1,-7.65,-11.45)">
                <path d="M1462.4,525.55L1553.8,525.55L1599.5,571.25L1599.5,1165.35L1553.8,1211.05L1508.1,1211.05L1462.4,1165.35L1462.4,594.1L1462.4,525.55Z" style="fill:rgb(225,192,46);stroke:rgb(225,192,46);stroke-width:1px;"/>
            </g>
            <g transform="matrix(1,0,0,1,-7.65,-11.45)">
                <path d="M822.6,708.35L639.8,708.35L548.4,616.95L548.4,479.85L594.1,434.15L639.8,434.15L685.5,479.85L685.5,502.7L708.35,525.55L822.6,525.55L822.6,708.35Z" style="fill:rgb(225,192,46);stroke:rgb(225,192,46);stroke-width:1px;"/>
            </g>
        </g>
        <g id="Layer8">
            <g transform="matrix(1,0,0,1,-7.65,-11.45)">
                <path d="M914,731.2L936.85,708.35L982.55,708.35L1005.4,731.2L1005.4,822.6L982.55,845.45L936.85,845.45L914,822.6L914,731.2Z" style="fill:rgb(144,144,16);stroke:rgb(144,144,16);stroke-width:1px;"/>
            </g>
            <g transform="matrix(1,0,0,1,357.95,-11.45)">
                <path d="M914,731.2L936.85,708.35L982.55,708.35L1005.4,731.2L1005.4,822.6L982.55,845.45L936.85,845.45L914,822.6L914,731.2Z" style="fill:rgb(144,144,16);stroke:rgb(144,144,16);stroke-width:1px;"/>
            </g>
        </g>
        <g id="Layer12">
            <g transform="matrix(1,0,0,1,-30.5,-11.45)">
                <path d="M1622.35,1485.25L1645.2,1530.95L1645.2,1599.5L1622.35,1622.35L1553.8,1645.2L1508.1,1622.35L1576.65,1553.8L1622.35,1485.25Z" style="fill:rgb(164,144,112);stroke:rgb(164,144,112);stroke-width:1px;"/>
            </g>
            <g transform="matrix(-1,0,0,-1,2163.1,1679.45)">
                <path d="M1622.35,1485.25L1645.2,1530.95L1645.2,1599.5L1622.35,1622.35L1553.8,1645.2L1508.1,1622.35L1576.65,1553.8L1622.35,1485.25Z" style="fill:rgb(164,144,112);stroke:rgb(164,144,112);stroke-width:1px;"/>
            </g>
            <g transform="matrix(1,0,0,1,-7.65,-11.45)">
                <path d="M868.3,1485.25L776.9,1485.25L731.2,1576.65L731.2,1622.35L959.7,1622.35L868.3,1530.95L868.3,1485.25Z" style="fill:rgb(164,144,112);stroke:rgb(164,144,112);stroke-width:1px;"/>
            </g>
            <g transform="matrix(-1,0,0,-1,2185.95,1679.45)">
                <path d="M868.3,1485.25L776.9,1485.25L731.2,1576.65L731.2,1622.35L959.7,1622.35L868.3,1530.95L868.3,1485.25Z" style="fill:rgb(164,144,112);stroke:rgb(164,144,112);stroke-width:1px;"/>
            </g>
            <g transform="matrix(1,0,0,1,-99.05,-11.45)">
                <path d="M1690.9,1393.85L1690.9,1302.45L1713.75,1302.45L1736.6,1256.75L1896.55,1256.75L1896.55,1371L1873.7,1393.85L1690.9,1393.85Z" style="fill:rgb(164,144,112);stroke:rgb(164,144,112);stroke-width:1px;"/>
            </g>
            <g transform="matrix(-1,0,0,1,2368.75,-11.45)">
                <path d="M1645.2,1256.75L1645.2,1279.6L1668.05,1302.45L1713.75,1302.45L1736.6,1256.75L1896.55,1256.75L1896.55,1371L1873.7,1393.85L1645.2,1393.85L1599.5,1348.15L1599.5,1279.6L1576.65,1256.75L1645.2,1256.75Z" style="fill:rgb(164,144,112);stroke:rgb(164,144,112);stroke-width:1px;"/>
            </g>
        </g>
        <g id="Layer13">
            <g transform="matrix(1,0,0,1,-144.75,-11.45)">
                <path d="M731.2,1622.35L594.1,1622.35L548.4,1576.65L548.4,1462.4L594.1,1416.7L639.8,1416.7L731.2,1439.55L639.8,1462.4L616.95,1485.25L616.95,1530.95L662.65,1576.65L731.2,1576.65L731.2,1622.35Z" style="fill:rgb(30,16,0);stroke:rgb(30,16,0);stroke-width:1px;"/>
            </g>
            <g transform="matrix(-1,0,0,-1,2323.05,1679.45)">
                <path d="M731.2,1622.35L594.1,1622.35L548.4,1576.65L548.4,1462.4L594.1,1416.7L639.8,1416.7L731.2,1439.55L639.8,1462.4L616.95,1485.25L616.95,1530.95L662.65,1576.65L731.2,1576.65L731.2,1622.35Z" style="fill:rgb(30,16,0);stroke:rgb(30,16,0);stroke-width:1px;"/>
            </g>
            <g transform="matrix(1,0,0,1,129.45,-11.45)">
                <path d="M639.8,1462.4L571.25,1439.55L525.55,1439.55L479.85,1485.25L457,1553.8L502.7,1622.35L594.1,1622.35L594.1,1576.65L548.4,1576.65L525.55,1530.95L548.4,1485.25L639.8,1462.4Z" style="fill:rgb(30,16,0);stroke:rgb(30,16,0);stroke-width:1px;"/>
            </g>
            <g transform="matrix(-1,0,0,-1,2048.85,1679.45)">
                <path d="M639.8,1462.4L571.25,1439.55L525.55,1439.55L479.85,1485.25L457,1553.8L502.7,1622.35L594.1,1622.35L594.1,1576.65L548.4,1576.65L525.55,1530.95L548.4,1485.25L639.8,1462.4Z" style="fill:rgb(30,16,0);stroke:rgb(30,16,0);stroke-width:1px;"/>
            </g>
            <g transform="matrix(1,0,0,1,-99.05,-11.45)">
                <path d="M1828,1279.6L1850.85,1256.75L1896.55,1256.75L1919.4,1393.85L1896.55,1348.15L1850.85,1325.3L1828,1325.3L1828,1279.6Z" style="fill:rgb(30,16,0);stroke:rgb(30,16,0);stroke-width:1px;"/>
            </g>
            <g transform="matrix(-1,0,0,1,2368.75,-11.45)">
                <path d="M1828,1279.6L1850.85,1256.75L1896.55,1256.75L1919.4,1393.85L1896.55,1348.15L1850.85,1325.3L1828,1325.3L1828,1279.6Z" style="fill:rgb(30,16,0);stroke:rgb(30,16,0);stroke-width:1px;"/>
            </g>
            <g transform="matrix(1,0,0,1,-99.05,-11.45)">
                <path d="M1736.6,1325.3L1759.45,1302.45L1782.3,1302.45L1805.15,1348.15L1805.15,1393.85L1782.3,1371L1759.45,1348.15L1736.6,1348.15L1736.6,1325.3Z" style="fill:rgb(30,16,0);stroke:rgb(30,16,0);stroke-width:1px;"/>
            </g>
            <g transform="matrix(-1,0,0,1,2368.75,-11.45)">
                <path d="M1736.6,1325.3L1759.45,1302.45L1782.3,1302.45L1805.15,1348.15L1805.15,1393.85L1782.3,1371L1759.45,1348.15L1736.6,1348.15L1736.6,1325.3Z" style="fill:rgb(30,16,0);stroke:rgb(30,16,0);stroke-width:1px;"/>
            </g>
        </g>
        <g id="Layer14">
            <g transform="matrix(1,0,0,1,-7.65,-11.45)">
                <path d="M1462.4,571.25L1508.1,571.25L1553.8,616.95L1553.8,662.65L1508.1,708.35L1462.4,708.35L1462.4,571.25Z" style="fill:rgb(176,176,176);stroke:rgb(176,176,176);stroke-width:1px;"/>
            </g>
            <g transform="matrix(1,0,0,1,-7.65,-11.45)">
                <path d="M1462.4,754.05L1508.1,754.05L1553.8,799.75L1553.8,834L1508.1,891.15L1462.4,891.15L1462.4,754.05Z" style="fill:rgb(176,176,176);stroke:rgb(176,176,176);stroke-width:1px;"/>
            </g>
            <g transform="matrix(1,0,0,1,-7.65,-11.45)">
                <path d="M1462.4,936.85L1508.1,936.85L1553.8,982.55L1553.8,1028.25L1508.1,1073.95L1462.4,1073.95L1462.4,936.85Z" style="fill:rgb(176,176,176);stroke:rgb(176,176,176);stroke-width:1px;"/>
            </g>
            <g transform="matrix(1,0,0,1,-7.65,-11.45)">
                <path d="M1348.15,1073.95L1233.9,1188.2L1233.9,1302.45L1279.6,1348.15L1371,1393.85L1439.55,1393.85L1462.4,1371L1462.4,1348.15L1416.7,1302.45L1371,1211.05L1371,1073.95L1348.15,1073.95Z" style="fill:rgb(176,176,176);stroke:rgb(176,176,176);stroke-width:1px;"/>
            </g>
            <g transform="matrix(-1,0,0,1,2277.35,-11.45)">
                <path d="M1348.15,1073.95L1233.9,1188.2L1233.9,1302.45L1279.6,1348.15L1371,1393.85L1485.25,1393.85L1462.4,1348.15L1416.7,1302.45L1371,1211.05L1371,1073.95L1348.15,1073.95Z" style="fill:rgb(176,176,176);stroke:rgb(176,176,176);stroke-width:1px;"/>
            </g>
            <g transform="matrix(1,0,0,1,-7.65,-11.45)">
                <path d="M822.6,571.25L776.9,571.25L731.2,616.95L731.2,662.65L776.9,708.35L822.6,708.35L822.6,571.25Z" style="fill:rgb(176,176,176);stroke:rgb(176,176,176);stroke-width:1px;"/>
            </g>
            <g transform="matrix(1,0,0,1,-7.65,171.35)">
                <path d="M822.6,571.25L776.9,571.25L731.2,616.95L731.2,662.65L776.9,708.35L822.6,708.35L822.6,571.25Z" style="fill:rgb(176,176,176);stroke:rgb(176,176,176);stroke-width:1px;"/>
            </g>
            <g transform="matrix(1,0,0,1,-7.65,354.15)">
                <path d="M822.6,571.25L776.9,571.25L731.2,616.95L731.2,662.65L776.9,708.35L822.6,708.35L822.6,571.25Z" style="fill:rgb(176,176,176);stroke:rgb(176,176,176);stroke-width:1px;"/>
            </g>
        </g>
    </g>
</svg>
