<?xml version="1.0" encoding="UTF-8" standalone="no"?>
<!DOCTYPE svg PUBLIC "-//W3C//DTD SVG 1.1//EN" "http://www.w3.org/Graphics/SVG/1.1/DTD/svg11.dtd">
<svg width="100%" height="100%" viewBox="0 0 4634 3475" version="1.1" xmlns="http://www.w3.org/2000/svg" xmlns:xlink="http://www.w3.org/1999/xlink" xml:space="preserve" xmlns:serif="http://www.serif.com/" style="fill-rule:evenodd;clip-rule:evenodd;stroke-linecap:round;stroke-linejoin:round;stroke-miterlimit:1.5;">
    <g transform="matrix(2.08333,0,0,2.08333,0,0)">
        <g id="Layer9">
            <g transform="matrix(1,0,0,1,15.2,-11.45)">
                <path d="M959.7,159.95L1645.2,159.95L1690.9,114.25L1690.9,68.55L914,68.55L914,114.25L959.7,159.95Z" style="fill:rgb(192,176,193);stroke:rgb(192,176,193);stroke-width:1px;"/>
            </g>
            <g transform="matrix(1,0,0,1,15.2,-11.45)">
                <path d="M731.2,1622.35L1553.8,1622.35L1736.6,1553.8L1873.7,1416.7L1873.7,479.85L1690.9,297.05L1096.8,297.05L1051.1,342.75L1051.1,479.85L1096.8,525.55L1096.8,548.4L1073.95,571.25L845.45,571.25L822.6,548.4L822.6,297.05L776.9,297.05L754.05,388.45L731.2,411.3L731.2,479.85L708.35,479.85L685.5,457L685.5,297.05L639.8,297.05L616.95,388.45L594.1,411.3L594.1,525.55L731.2,662.65L1485.25,662.65L1530.95,616.95L1530.95,571.25L1530.95,502.7L1462.4,434.15L1279.6,434.15L1233.9,479.85L1233.9,525.55L1279.6,571.25L1325.3,571.25L1371,548.4L1325.3,525.55L1302.45,502.7L1325.3,479.85L1439.55,479.85L1462.4,502.7L1462.4,594.1L1439.55,616.95L1211.05,616.95L1188.2,594.1L1188.2,411.3L1211.05,388.45L1508.1,388.45L1553.8,434.15L1599.5,525.55L1645.2,662.65L1645.2,822.6L1622.35,845.45L1462.4,845.45L1416.7,891.15L1416.7,936.85L1508.1,1028.25L1508.1,1188.2L1485.25,1211.05L1371,1211.05L1371,1188.2L1462.4,1096.8L1462.4,1028.25L1416.7,982.55L1348.15,982.55L1325.3,959.7L1325.3,845.45L1371,799.75L1553.8,799.75L1599.5,754.05L1599.5,708.35L594.1,708.35L548.4,754.05L457,799.75L457,891.15L1005.4,891.15L1142.5,1028.25L1348.15,1028.25L1371,1051.1L1371,1073.95L1233.9,1211.05L1005.4,1211.05L914,1165.35L776.9,1119.65L731.2,1119.65L731.2,1622.35Z" style="fill:rgb(192,176,193);"/>
            </g>
            <g transform="matrix(1,0,0,1,15.2,-11.45)">
                <path d="M548.4,388.45L502.7,388.45L479.85,479.85L457,502.7L457,571.25L548.4,662.65L594.1,662.65L594.1,571.25L571.25,571.25L548.4,548.4L548.4,388.45Z" style="fill:rgb(192,176,193);"/>
            </g>
        </g>
        <g id="Layer12">
            <path d="M548.4,1530.95L548.4,1188.2L594.1,1142.5L708.35,1142.5L754.05,1188.2L754.05,1530.95L708.35,1576.65L571.25,1576.65L548.4,1530.95Z" style="stroke:black;stroke-width:1px;"/>
        </g>
        <g id="Layer8">
            <g transform="matrix(1,0,0,1,15.2,-11.45)">
                <path d="M799.75,1439.55L891.15,1348.15L982.55,1439.55L1073.95,1348.15L1165.35,1439.55L1256.75,1348.15L1348.15,1439.55L1439.55,1348.15L1530.95,1439.55L1622.35,1348.15L1713.75,1439.55L1805.15,1348.15L1873.7,1416.7L1828,1462.4L1805.15,1439.55L1713.75,1530.95L1622.35,1439.55L1530.95,1530.95L1439.55,1439.55L1348.15,1530.95L1256.75,1439.55L1165.35,1530.95L1073.95,1439.55L982.55,1530.95L891.15,1439.55L799.75,1530.95L776.9,1508.1L776.9,1416.7L799.75,1439.55Z" style="fill:rgb(144,144,160);stroke:rgb(144,144,160);stroke-width:1px;"/>
            </g>
            <g transform="matrix(1,0,0,1,15.2,-11.45)">
                <path d="M1485.25,297.05L1462.4,274.2L1462.4,228.5L1485.25,205.65L1599.5,159.95L1096.8,159.95L1211.05,205.65L1233.9,228.5L1233.9,274.2L1211.05,297.05L1485.25,297.05Z" style="fill:rgb(144,144,160);stroke:rgb(144,144,160);stroke-width:1px;"/>
            </g>
            <g transform="matrix(1,0,0,1,15.2,-34.3)">
                <path d="M1873.7,1028.25L1805.15,1028.25L1782.3,1051.1L1782.3,1096.8L1805.15,1119.65L1873.7,1119.65L1873.7,1028.25Z" style="fill:rgb(144,144,160);stroke:rgb(144,144,160);stroke-width:1px;"/>
            </g>
            <g transform="matrix(1,0,0,1,15.2,194.2)">
                <path d="M1873.7,1028.25L1805.15,1028.25L1782.3,1051.1L1782.3,1096.8L1805.15,1119.65L1873.7,1119.65L1873.7,1028.25Z" style="fill:rgb(144,144,160);stroke:rgb(144,144,160);stroke-width:1px;"/>
            </g>
            <g transform="matrix(1,0,0,1,15.2,-262.8)">
                <path d="M1873.7,1028.25L1805.15,1028.25L1782.3,1051.1L1782.3,1096.8L1805.15,1119.65L1873.7,1119.65L1873.7,1028.25Z" style="fill:rgb(144,144,160);stroke:rgb(144,144,160);stroke-width:1px;"/>
            </g>
            <g transform="matrix(1,0,0,1,15.2,-491.3)">
                <path d="M1873.7,1028.25L1805.15,1028.25L1782.3,1051.1L1782.3,1096.8L1805.15,1119.65L1873.7,1119.65L1873.7,1028.25Z" style="fill:rgb(144,144,160);stroke:rgb(144,144,160);stroke-width:1px;"/>
            </g>
            <g transform="matrix(1,0,0,1,15.2,-11.45)">
                <path d="M1576.65,708.35L1279.6,708.35L1096.8,845.45L1096.8,936.85L1142.5,982.55L1188.2,982.55L1279.6,891.15L1325.3,799.75L1371,754.05L1530.95,754.05L1576.65,708.35Z" style="fill:rgb(144,144,160);stroke:rgb(144,144,160);stroke-width:1px;"/>
            </g>
            <g transform="matrix(1,0,0,1,15.2,-11.45)">
                <path d="M1165.35,708.35L1096.8,754.05L1051.1,799.75L525.55,799.75L594.1,754.05L639.8,708.35L1165.35,708.35Z" style="fill:rgb(144,144,160);stroke:rgb(144,144,160);stroke-width:1px;"/>
            </g>
        </g>
        <g id="Layer10">
            <g transform="matrix(1,0,0,1,15.2,-11.45)">
                <path d="M502.7,1576.65L502.7,1165.35L548.4,1119.65L731.2,1119.65L776.9,1165.35L776.9,1576.65L731.2,1622.35L548.4,1622.35L502.7,1576.65ZM685.5,1576.65L731.2,1530.95L731.2,1211.05L685.5,1165.35L594.1,1165.35L548.4,1211.05L548.4,1530.95L594.1,1576.65L685.5,1576.65Z" style="fill:rgb(242,47,44);stroke:rgb(242,47,44);stroke-width:1px;"/>
            </g>
            <g transform="matrix(1,0,0,1,15.2,-11.45)">
                <path d="M502.7,342.75L502.7,297.05L548.4,251.35L548.4,342.75L502.7,342.75Z" style="fill:rgb(242,47,44);stroke:rgb(242,47,44);stroke-width:1px;"/>
            </g>
            <g transform="matrix(6.12323e-17,-1,1,6.12323e-17,83.75,1382.4)">
                <path d="M502.7,342.75L502.7,297.05L548.4,251.35L548.4,342.75L502.7,342.75Z" style="fill:rgb(242,47,44);stroke:rgb(242,47,44);stroke-width:1px;"/>
            </g>
            <g transform="matrix(0.382683,-0.92388,0.92388,0.382683,-77.1733,1121.57)">
                <path d="M502.7,342.75L502.7,297.05L548.4,251.35L548.4,342.75L502.7,342.75Z" style="fill:rgb(242,47,44);stroke:rgb(242,47,44);stroke-width:1px;"/>
            </g>
            <g transform="matrix(0.707107,-0.707107,0.707107,0.707107,-116.159,838.396)">
                <path d="M502.7,342.75L502.7,297.05L548.4,251.35L548.4,342.75L502.7,342.75Z" style="fill:rgb(242,47,44);stroke:rgb(242,47,44);stroke-width:1px;"/>
            </g>
            <g transform="matrix(1,0,0,1,152.3,-102.85)">
                <path d="M502.7,342.75L502.7,297.05L548.4,251.35L548.4,342.75L502.7,342.75Z" style="fill:rgb(242,47,44);stroke:rgb(242,47,44);stroke-width:1px;"/>
            </g>
            <g transform="matrix(1,0,0,1,289.4,-102.85)">
                <path d="M502.7,342.75L502.7,297.05L548.4,251.35L548.4,342.75L502.7,342.75Z" style="fill:rgb(242,47,44);stroke:rgb(242,47,44);stroke-width:1px;"/>
            </g>
        </g>
        <g id="Layer11">
            <g transform="matrix(1,0,0,1,15.2,-11.45)">
                <path d="M731.2,1211.05L685.5,1233.9L731.2,1256.75L731.2,1211.05Z" style="fill:rgb(255,194,157);stroke:rgb(255,194,157);stroke-width:1px;"/>
            </g>
            <g transform="matrix(1,0,0,1,15.2,79.95)">
                <path d="M731.2,1211.05L685.5,1233.9L731.2,1256.75L731.2,1211.05Z" style="fill:rgb(255,194,157);stroke:rgb(255,194,157);stroke-width:1px;"/>
            </g>
            <g transform="matrix(1,0,0,1,15.2,171.35)">
                <path d="M731.2,1211.05L685.5,1233.9L731.2,1256.75L731.2,1211.05Z" style="fill:rgb(255,194,157);stroke:rgb(255,194,157);stroke-width:1px;"/>
            </g>
            <g transform="matrix(1,0,0,1,15.2,262.75)">
                <path d="M731.2,1211.05L685.5,1233.9L731.2,1256.75L731.2,1211.05Z" style="fill:rgb(255,194,157);stroke:rgb(255,194,157);stroke-width:1px;"/>
            </g>
            <g transform="matrix(-1,0,0,1,1294.8,262.75)">
                <path d="M731.2,1211.05L685.5,1233.9L731.2,1256.75L731.2,1211.05Z" style="fill:rgb(255,194,157);stroke:rgb(255,194,157);stroke-width:1px;"/>
            </g>
            <g transform="matrix(-1,0,0,1,1294.8,171.35)">
                <path d="M731.2,1211.05L685.5,1233.9L731.2,1256.75L731.2,1211.05Z" style="fill:rgb(255,194,157);stroke:rgb(255,194,157);stroke-width:1px;"/>
            </g>
            <g transform="matrix(-1,0,0,1,1294.8,79.95)">
                <path d="M731.2,1211.05L685.5,1233.9L731.2,1256.75L731.2,1211.05Z" style="fill:rgb(255,194,157);stroke:rgb(255,194,157);stroke-width:1px;"/>
            </g>
            <g transform="matrix(-1,0,0,1,1294.8,-11.45)">
                <path d="M731.2,1211.05L685.5,1233.9L731.2,1256.75L731.2,1211.05Z" style="fill:rgb(255,194,157);stroke:rgb(255,194,157);stroke-width:1px;"/>
            </g>
            <g transform="matrix(-6.12323e-17,-1,-1,6.12323e-17,1888.9,1885.1)">
                <path d="M731.2,1211.05L685.5,1233.9L731.2,1256.75L731.2,1211.05Z" style="fill:rgb(255,194,157);stroke:rgb(255,194,157);stroke-width:1px;"/>
            </g>
            <g transform="matrix(-6.12323e-17,1,-1,-6.12323e-17,1888.9,834)">
                <path d="M731.2,1211.05L685.5,1233.9L731.2,1256.75L731.2,1211.05Z" style="fill:rgb(255,194,157);stroke:rgb(255,194,157);stroke-width:1px;"/>
            </g>
        </g>
    </g>
</svg>
