<?xml version="1.0" encoding="UTF-8" standalone="no"?>
<!DOCTYPE svg PUBLIC "-//W3C//DTD SVG 1.1//EN" "http://www.w3.org/Graphics/SVG/1.1/DTD/svg11.dtd">
<svg width="100%" height="100%" viewBox="0 0 4634 3475" version="1.1" xmlns="http://www.w3.org/2000/svg" xmlns:xlink="http://www.w3.org/1999/xlink" xml:space="preserve" xmlns:serif="http://www.serif.com/" style="fill-rule:evenodd;clip-rule:evenodd;stroke-linecap:round;stroke-linejoin:round;stroke-miterlimit:1.5;">
    <g transform="matrix(2.08333,0,0,2.08333,0,0)">
        <g id="Layer8">
            <g transform="matrix(1,0,0,1,-37.3348,7.37443)">
                <path d="M740.413,1098.56L701.698,1164.88L643.459,1184.97L599.347,1240L584.318,1290.49L530.647,1300.94L486.601,1257.68L446.097,1282.67L409.604,1265.55L437.343,1309.95L484.657,1306.78L519.587,1354.45L566.431,1336.31L626.264,1347.19L659.307,1388.6L626.979,1424.27L552.606,1438.65L466.031,1530.05L432.348,1533.35L365.6,1622.35L443.763,1574.25L511.412,1558.63L585.689,1498.77L677.62,1482.15L720.455,1439.55L728.015,1395.2L791.616,1400.34L719.758,1334.05L681.608,1338.04L635.476,1299.56L648.78,1249.96L680.511,1194.09L728.872,1194.95L740.413,1098.56Z" style="fill:rgb(158,241,222);stroke:rgb(158,241,222);stroke-width:1px;"/>
            </g>
            <g transform="matrix(1,0,0,1,-37.3348,7.37443)">
                <path d="M765.263,1534.22L785.991,1459.43L794.802,1523.46L842.532,1502.55L889.554,1508.42L913.994,1564.2L945.189,1591.22L1011.55,1568.45L966.471,1618.48L913.107,1621.14L878.705,1547.48L830.953,1539.84L795.151,1567.24L765.263,1534.22Z" style="fill:rgb(158,241,222);stroke:rgb(158,241,222);stroke-width:1px;"/>
            </g>
        </g>
        <g id="Layer12">
            <g transform="matrix(1,0,0,1,-37.3348,7.37443)">
                <path d="M1348.15,1622.35L1325.3,1599.5L1325.3,1576.65L1416.7,1576.65L1416.7,1599.5L1393.85,1622.35L1348.15,1622.35Z" style="fill:rgb(124,193,213);stroke:rgb(124,193,213);stroke-width:1px;"/>
            </g>
            <g transform="matrix(1,0,0,1,-37.3348,7.37443)">
                <path d="M1576.65,1622.35L1553.8,1599.5L1553.8,1576.65L1645.2,1576.65L1645.2,1599.5L1622.35,1622.35L1576.65,1622.35Z" style="fill:rgb(124,193,213);stroke:rgb(124,193,213);stroke-width:1px;"/>
            </g>
            <g transform="matrix(1,0,0,1,-37.3348,7.37443)">
                <path d="M1416.7,1485.25L1416.7,1439.55L1462.4,1393.85L1553.8,1393.85L1553.8,1439.55L1530.95,1439.55L1508.1,1462.4L1508.1,1485.25L1416.7,1485.25Z" style="fill:rgb(124,193,213);stroke:rgb(124,193,213);stroke-width:1px;"/>
            </g>
            <g transform="matrix(1,0,0,1,-37.3348,7.37443)">
                <path d="M1645.2,1485.25L1645.2,1439.55L1690.9,1393.85L1805.15,1393.85L1805.15,1439.55L1759.45,1439.55L1736.6,1462.4L1736.6,1485.25L1645.2,1485.25Z" style="fill:rgb(124,193,213);stroke:rgb(124,193,213);stroke-width:1px;"/>
            </g>
            <g transform="matrix(1,0,0,1,-37.3348,7.37443)">
                <path d="M1188.2,1233.9L1188.2,1188.2L1165.35,1165.35L982.55,1165.35L959.7,1142.5L959.7,1051.1L982.55,1028.25L1211.05,1028.25L1233.9,1005.4L1233.9,822.6L1256.75,799.75L1279.6,799.75L1302.45,822.6L1302.45,1005.4L1325.3,1028.25L1462.4,1028.25L1462.4,1233.9L1485.25,1256.75L1645.2,1256.75L1668.05,1302.45L1736.6,1348.15L1828,1348.15L1828,1325.3L1782.3,1279.6L1782.3,1256.75L1805.15,1188.2L1828,1073.95L1828,959.7L1805.15,936.85L1782.3,936.85L1782.3,914L1759.45,891.15L1736.6,868.3L1690.9,845.45L1599.5,845.45L1553.8,799.75L1508.1,754.05L1462.4,708.35L1416.7,662.65L1371,662.65L1371,708.35L1188.2,708.35L1188.2,754.05L1073.95,754.05L1051.1,776.9L1051.1,914L1028.25,936.85L914,936.85L868.3,982.55L868.3,1211.05L914,1211.05L914,1256.75L1165.35,1256.75L1188.2,1233.9Z" style="fill:rgb(124,193,213);stroke:rgb(124,193,213);stroke-width:1px;"/>
            </g>
            <g transform="matrix(1,0,0,1,-37.3348,7.37443)">
                <path d="M411.3,982.55L411.3,868.3L434.15,845.45L594.1,845.45L594.1,936.85L525.55,936.85L502.7,959.7L502.7,1096.8L479.85,1119.65L434.15,1119.65L411.3,1096.8L411.3,982.55Z" style="fill:rgb(124,193,213);stroke:rgb(124,193,213);stroke-width:1px;"/>
            </g>
            <g transform="matrix(1,0,0,1,-37.3348,7.37443)">
                <path d="M754.05,754.05L784.517,731.2L822.6,616.95L822.6,342.75L868.3,342.75L868.3,297.05L914,297.05L914,251.35L959.7,251.35L959.7,205.65L822.6,205.65L685.5,297.05L639.8,434.15L639.8,731.2L662.65,754.05L754.05,754.05Z" style="fill:rgb(124,193,213);stroke:rgb(124,193,213);stroke-width:1px;"/>
            </g>
            <g transform="matrix(1,0,0,1,-37.3348,7.37443)">
                <path d="M1599.5,1348.15L1599.5,1325.3L1553.8,1279.6L1439.55,1279.6L1439.55,1302.45L1508.1,1348.15L1599.5,1348.15Z" style="fill:rgb(124,193,213);stroke:rgb(124,193,213);stroke-width:1px;"/>
            </g>
        </g>
        <g id="Layer11">
            <g transform="matrix(1,0,0,1,-37.3348,7.37443)">
                <path d="M776.9,365.6L936.85,205.65L959.7,205.65L959.7,251.35L914,297.05L868.3,342.75L822.6,388.45L822.6,434.15L776.9,388.45L776.9,365.6Z" style="fill:rgb(60,113,140);stroke:rgb(60,113,140);stroke-width:1px;"/>
            </g>
            <g transform="matrix(1,0,0,1,-37.3348,7.37443)">
                <path d="M754.05,388.45L776.9,411.3L776.9,525.55L731.2,571.25L731.2,754.05L685.5,754.05L685.5,434.15L731.2,388.45L754.05,388.45Z" style="fill:rgb(60,113,140);stroke:rgb(60,113,140);stroke-width:1px;"/>
            </g>
            <g transform="matrix(1,0,0,1,-37.3348,7.37443)">
                <path d="M868.3,1165.35L959.7,1142.5L982.55,1165.35L914,1256.75L868.3,1211.05L868.3,1165.35Z" style="fill:rgb(60,113,140);stroke:rgb(60,113,140);stroke-width:1px;"/>
            </g>
            <g transform="matrix(1,0,0,1,-37.3348,7.37443)">
                <path d="M868.3,1119.65L868.3,1073.95L914,1028.25L982.55,1028.25L959.7,1051.1L959.7,1073.95L914,1119.65L868.3,1119.65Z" style="fill:rgb(60,113,140);stroke:rgb(60,113,140);stroke-width:1px;"/>
            </g>
            <g transform="matrix(1,0,0,1,-37.3348,7.37443)">
                <path d="M525.55,936.85L502.7,845.45L434.15,845.45L411.3,868.3L411.3,891.15L457,936.85L502.7,959.7L525.55,936.85Z" style="fill:rgb(60,113,140);stroke:rgb(60,113,140);stroke-width:1px;"/>
            </g>
            <g transform="matrix(1,0,0,1,-37.3348,7.37443)">
                <path d="M1211.05,891.15L1165.35,914L1142.5,914L1096.8,868.3L1096.8,799.75L1142.5,754.05L1188.2,754.05L1233.9,708.35L1416.7,708.35L1599.5,891.15L1759.45,891.15L1828,959.7L1828,1028.25L1736.6,936.85L1576.65,936.85L1393.85,754.05L1256.75,754.05L1211.05,799.75L1165.35,799.75L1142.5,822.6L1142.5,845.45L1165.35,868.3L1211.05,891.15Z" style="fill:rgb(60,113,140);stroke:rgb(60,113,140);stroke-width:1px;"/>
            </g>
            <g transform="matrix(1,0,0,1,-37.3348,7.37443)">
                <path d="M1462.4,1096.8L1462.4,1028.25L1508.1,982.55L1690.9,982.55L1736.6,1028.25L1736.6,1165.35L1690.9,1211.05L1553.8,1211.05L1508.1,1165.35L1508.1,1119.65L1553.8,1073.95L1645.2,1096.8L1576.65,1119.65L1553.8,1142.5L1576.65,1165.35L1668.05,1165.35L1690.9,1142.5L1690.9,1051.1L1668.05,1028.25L1530.95,1028.25L1485.25,1073.95L1462.4,1096.8Z" style="fill:rgb(60,113,140);stroke:rgb(60,113,140);stroke-width:1px;"/>
            </g>
            <g transform="matrix(1,0,0,1,-37.3348,7.37443)">
                <path d="M1736.6,1348.15L1850.85,1348.15L1873.7,1371L1873.7,1416.7L1850.85,1439.55L1782.3,1439.55L1736.6,1393.85L1736.6,1348.15Z" style="fill:rgb(60,113,140);stroke:rgb(60,113,140);stroke-width:1px;"/>
            </g>
            <g transform="matrix(1,0,0,1,-265.835,7.37443)">
                <path d="M1736.6,1348.15L1850.85,1348.15L1873.7,1371L1873.7,1416.7L1850.85,1439.55L1782.3,1439.55L1736.6,1393.85L1736.6,1348.15Z" style="fill:rgb(60,113,140);stroke:rgb(60,113,140);stroke-width:1px;"/>
            </g>
        </g>
        <g id="Layer13">
            <g transform="matrix(1,0,0,1,-37.3348,7.37443)">
                <path d="M1096.8,1211.05L1104.7,1227.42L1096.8,1256.75L1086.47,1265.1L1057.4,1256.75L1023.39,1263.02L1005.4,1256.75L998.04,1244.01L1005.4,1233.69L996.162,1208.12L1005.4,1184.27L996.14,1168.09L1005.03,1161.12L1045.31,1150.77L1067.55,1100.03L1104.89,1078.28L1129.18,1053.92L1149.45,1087.98L1155.33,1115.56L1142.5,1165.35L1128.59,1179.74L1101.2,1186.65L1096.8,1211.05Z" style="fill:rgb(242,224,225);stroke:rgb(242,224,225);stroke-width:1px;"/>
            </g>
            <g transform="matrix(6.12323e-17,1,-1,6.12323e-17,1630.72,-38.3256)">
                <path d="M1096.8,1211.05L1101.26,1240.19L1096.8,1256.75L1071.77,1262.66L1050.6,1258.4L1028.76,1263.8L1017.12,1257.53L1005.4,1256.75L1007.63,1243.9L999.089,1207.87L1005.4,1200.12L1001.6,1189.13L1005.4,1165.35L1026.75,1164.45L1035,1158.02L1052.12,1159.99L1053.6,1143.96L1068.5,1132.95L1072.47,1112.43L1115.98,1087.78L1129.07,1046.39L1144.2,1055.84L1149.26,1098.62L1142.5,1165.35L1130.98,1188.95L1113.21,1185.21L1105.71,1198.86L1096.8,1211.05Z" style="fill:rgb(242,224,225);stroke:rgb(242,224,225);stroke-width:1px;"/>
            </g>
            <g transform="matrix(1,0,0,1,-37.3348,7.37443)">
                <path d="M1325.3,1576.65L1313.16,1555.02L1325.3,1530.95L1337.19,1504.23L1360.78,1501.44L1371,1485.25L1417.58,1485.25L1444.14,1475.02L1471.88,1484.61L1508.57,1485.25L1567.35,1468.13L1539.5,1512.67L1517.22,1536.66L1488.76,1534.84L1474.43,1563.81L1439.55,1576.65L1409.22,1581.72L1397.72,1577.44L1389.38,1581.92L1363.29,1576.56L1348.11,1581.93L1325.3,1576.65Z" style="fill:rgb(242,224,225);stroke:rgb(242,224,225);stroke-width:1px;"/>
            </g>
            <g transform="matrix(1,0,0,1,-37.3348,7.37443)">
                <path d="M1553.8,1576.65L1571.11,1584.19L1587.46,1579.64L1601.36,1583.52L1616.85,1577.16L1626.9,1580.21L1639.19,1586.2L1668.05,1576.65L1703.59,1555.38L1748.19,1547.68L1786.64,1530.75L1818.73,1509.26L1840.46,1452.47L1773.05,1475.6L1736.85,1476.41L1723.12,1469.3L1700.24,1481.73L1679.14,1476.3L1651.23,1482.37L1599.5,1485.25L1580.36,1501.31L1571.63,1522.24L1553.8,1530.95L1544.02,1542.08L1553.8,1576.65Z" style="fill:rgb(242,224,225);stroke:rgb(242,224,225);stroke-width:1px;"/>
            </g>
            <g transform="matrix(1,0,0,1,-37.3348,7.37443)">
                <path d="M1797.88,662.65L1886.66,653.113L1914.97,606.651L1933.07,540.809L1927.46,507.501L1895.82,573.767L1850.53,593.026L1829.59,618.857L1801.69,641.428L1797.88,662.65Z" style="fill:rgb(242,224,225);stroke:rgb(242,224,225);stroke-width:1px;"/>
            </g>
            <g transform="matrix(1,0,0,1,-37.3348,7.37443)">
                <path d="M1897.83,859.921L1878.97,832.144L1839.64,831.313L1828,799.75L1786.85,792.62L1786.86,746.532L1741.38,743.894L1722.7,708.953L1681.7,709.698L1694.84,678.77L1677.23,654.036L1723.58,651.736L1742.52,628.179L1766.77,616.558L1789.97,589.461L1833.89,558.598L1817.46,532.727L1857.54,522.48L1883.53,491.762L1919.4,479.85L1897.06,395.246L1916.2,297L1904.59,248.584L1875.37,263.551L1838.54,304.243L1844.83,347.282L1807.34,350.012L1805.28,388.72L1785.68,403.42L1759.2,433.474L1717.94,447.011L1726.74,473.225L1707.5,498.049L1703.57,541.914L1720.45,558.331L1716.07,591.659L1673.04,572.036L1660.28,610.348L1628.31,638.518L1636.74,678.239L1588.62,660.099L1606.3,690.661L1635.67,711.241L1640.39,741.893L1677.95,761.709L1697.83,782.79L1730.5,814.442L1762.1,854.598L1785.35,857.092L1811.96,893.09L1897.83,859.921Z" style="fill:rgb(242,224,225);stroke:rgb(242,224,225);stroke-width:1px;"/>
            </g>
            <g transform="matrix(1,0,0,1,-37.3348,7.37443)">
                <path d="M673.111,275.034L685.5,205.65L722.663,195.258L731.2,159.95L768.069,149.2L802.612,114.134L833.949,118.425L882.012,65.632L927.801,30.901L900.713,81.192L911.152,104.168L871.166,120.803L869.094,150.868L834.813,156.528L825.36,192.708L776.9,205.65L782.3,228.864L673.111,275.034Z" style="fill:rgb(242,224,225);stroke:rgb(242,224,225);stroke-width:1px;"/>
            </g>
            <g transform="matrix(1,0,0,1,-37.3348,7.37443)">
                <path d="M655.389,1051.6L679.377,1021.59L687.73,987.237L720.3,973.682L751.225,943.398L762.472,910.726L828.498,898.072L805.136,946.364L835.008,985.826L874.573,945.145L882.137,814.479L915.921,790.572L901.543,818.747L916.986,850.417L956.032,857.874L972.835,884.45L995.136,891.464L1008.05,851.574L1032.4,809.451L1029.92,769.602L1085.09,777.307L1142.7,754.05L1188.2,754.05L1233.9,708.35L1283.64,721.468L1323.49,708.75L1371,708.35L1416.7,685.5L1462.4,708.35L1462.62,732.356L1508.1,754.05L1531.82,789.388L1553.8,799.75L1599.5,845.45L1631.28,862.659L1675.97,853.604L1736.6,868.3L1655.86,808.474L1636.39,757.526L1561.55,734.985L1580.51,651.693L1602.88,595.489L1632.9,548.493L1579.7,571.485L1558.05,614.661L1524.25,637.572L1494.14,660.905L1407.13,637.027L1421.76,586.081L1455.53,562.93L1471.44,532.784L1490.22,509.953L1508.93,499.31L1510.77,475.793L1542.24,458.619L1593.56,448.632L1613.37,410.054L1627.35,371.078L1658.89,354.692L1612.68,353.635L1524.86,389.173L1480.14,396.053L1432.5,452.903L1361.11,456.139L1325.3,434.15L1335.35,396.122L1386.72,387.128L1385.63,343.379L1413.05,344.932L1431.71,308.905L1440.13,279.855L1484.22,287.888L1525,249.532L1564.31,204.839L1468.3,241.005L1399.27,225.356L1405.19,266.427L1372.68,284.051L1340.03,274.948L1315.04,303.941L1307.97,351.286L1267.53,360.72L1233.88,389.926L1188.2,388.45L1180.45,444.906L1139.24,459.394L1118.45,484.281L1068.94,499.686L1039.25,532.468L997.245,546.152L974.304,535.797L972.728,508.646L986.873,483.858L1028.05,473.851L1060.7,442.331L1102.59,424.421L1115.25,400.298L1155.15,374.345L1163.78,355.787L1177.66,335.233L1222.87,298.622L1162.5,310.652L1121.77,336.224L1069.89,350.494L1044.38,336.13L1059.5,305.686L1083.1,297.203L1104.32,261.975L1157.03,258.541L1154.39,225.458L1198.88,222.203L1208.34,180.023L1253.72,167.618L1256.24,134.248L1283.58,122.781L1316.79,111.476L1270.44,85.29L1178.19,123.566L1112.16,128.428L1058.05,150.174L1011.8,198.626L959.7,205.65L957.708,219.847L951.059,231.938L959.7,251.35L942.016,259.272L928.269,282.241L914,297.05L887.503,309.175L880.632,328.563L868.3,342.75L834.848,359.075L823.895,373.085L822.6,388.45L814.574,408.294L813.203,431.514L822.6,461.007L817.962,486.492L807.825,495.723L806.6,514.01L814.905,533.272L822.6,562.265L816.84,589.503L822.6,616.95L798.724,627.533L787.319,650.506L776.9,662.65L775.591,691.165L781.728,706.618L776.9,731.2L761.989,738.519L754.05,754.05L746.387,750.307L731.2,754.05L714.265,820.977L670.509,848.852L652.945,899.781L657.641,951.914L655.389,1051.6Z" style="fill:rgb(242,224,225);stroke:rgb(242,224,225);stroke-width:1px;"/>
            </g>
        </g>
        <g transform="matrix(1,0,0,1,-37.3348,7.37443)">
            <g id="Layer10">
                <path d="M639.8,411.3L639.8,274.2L616.95,243.733L365.6,159.95L594.1,434.15L616.95,434.15L639.8,411.3Z" style="fill:rgb(176,193,189);stroke:rgb(176,193,189);stroke-width:1px;"/>
            </g>
        </g>
        <g transform="matrix(1,0,0,1,-60.1848,30.2244)">
            <g id="Layer9">
                <path d="M731.2,411.3L731.2,457L754.05,502.7L776.9,502.7L776.9,434.15L754.05,411.3L731.2,411.3Z" style="fill:rgb(64,20,37);stroke:rgb(64,20,37);stroke-width:1px;"/>
            </g>
        </g>
    </g>
</svg>
