<?xml version="1.0" encoding="UTF-8" standalone="no"?>
<!DOCTYPE svg PUBLIC "-//W3C//DTD SVG 1.1//EN" "http://www.w3.org/Graphics/SVG/1.1/DTD/svg11.dtd">
<svg width="100%" height="100%" viewBox="0 0 4634 3475" version="1.1" xmlns="http://www.w3.org/2000/svg" xmlns:xlink="http://www.w3.org/1999/xlink" xml:space="preserve" xmlns:serif="http://www.serif.com/" style="fill-rule:evenodd;clip-rule:evenodd;stroke-linecap:round;stroke-linejoin:round;stroke-miterlimit:1.5;">
    <g transform="matrix(2.08333,0,0,2.08333,0,0)">
        <g id="Layer8">
            <g transform="matrix(1,0,0,1,-41.9555,-17.3369)">
                <path d="M365.6,936.85L388.45,868.3L434.15,845.45L479.85,799.75L594.1,708.35L639.8,525.55L685.5,571.25L685.5,639.8L708.35,662.65L731.2,662.65L731.2,571.25L776.9,479.85L799.75,457L845.45,434.15L1211.05,434.15L1256.75,457L1302.45,502.7L1325.3,548.4L1325.3,1119.65L1279.6,1165.35L1279.6,1211.05L1142.5,1348.15L1119.65,1348.15L1096.8,1302.45L1005.4,1302.45L1005.4,1325.3L982.55,1348.15L959.7,1348.15L936.85,1302.45L914,1302.45L891.15,1325.3L868.3,1325.3L822.6,1256.75L822.6,1233.9L845.45,1211.05L1165.35,1211.05L1188.2,1188.2L1188.2,1165.35L1142.5,1142.5L1096.8,1096.8L982.55,1077.76L959.7,1051.1L959.7,914L976.838,868.3L1028.25,799.75L1073.95,754.05L1096.8,685.5L1096.8,639.8L1096.8,594.1L1073.95,571.25L959.7,571.25L868.3,662.65L868.3,1005.4L845.45,1028.25L776.9,1073.95L731.2,1096.8L639.8,1211.05L594.1,1211.05L548.4,1165.35L548.4,1119.65L594.1,1119.65L662.65,1028.25L708.35,1005.4L731.2,959.7L731.2,868.3L708.35,845.45L685.5,845.45L662.65,891.15L571.25,914L502.7,936.85L457,982.55L365.6,982.55L365.6,936.85Z" style="fill:rgb(31,31,33);stroke:rgb(31,31,33);stroke-width:1px;"/>
            </g>
            <g transform="matrix(1,0,0,1,-41.9555,-17.3369)">
                <path d="M1279.6,1348.15L1188.2,1348.15L1051.1,1485.25L594.1,1485.25L457,1393.85L411.3,1302.45L411.3,1256.75L365.6,1256.75L365.6,1348.15L411.3,1485.25L548.4,1576.65L639.8,1622.35L1051.1,1622.35L1279.6,1393.85L1279.6,1348.15Z" style="fill:rgb(31,31,33);stroke:rgb(31,31,33);stroke-width:1px;"/>
            </g>
            <g transform="matrix(1,0,0,1,-41.9555,-17.3369)">
                <path d="M822.6,411.3L731.2,297.05L548.4,205.65L548.4,159.95L731.2,114.25L1005.4,68.55L1051.1,68.55L1233.9,114.25L1690.9,159.95L1873.7,114.25L1919.4,114.25L1873.7,297.05L1850.85,434.15L1828,525.55L1828,639.8L1850.85,708.35L1919.4,1005.4L1828,1119.65L1782.3,1211.05L1736.6,1348.15L1736.6,1439.55L1782.3,1530.95L1599.5,1553.8L1416.7,1576.65L1279.6,1622.35L1206.92,1610.82L1233.9,1576.65L1279.6,1485.25L1325.3,1142.5L1371,1073.95L1371,548.4L1348.15,502.7L1256.75,411.3L1211.05,388.45L822.6,411.3Z" style="fill:rgb(31,31,33);stroke:rgb(31,31,33);stroke-width:1px;"/>
            </g>
        </g>
        <g id="Layer10">
            <g transform="matrix(1,0,0,1,-41.9555,-17.3369)">
                <path d="M708.35,319.9L776.9,251.35L858.926,273.181L885.088,208.885L963.166,243.714L1054.74,239.215L1112,228.487L1196.47,199.575L1258.92,247.136L1379.23,216.366L1396.46,263.612L1435.12,293.543L1448.58,367.946L1463.39,450.268L1500.16,501.868L1446.43,598.903L1486.82,727.765L1446,883.662L1504.31,950.113L1444.77,1035.2L1472.35,1086.54L1450.4,1131.69L1455.07,1090.73L1429.41,1028.74L1467.54,956.708L1412.76,893.283L1470.44,724.112L1417.32,596.674L1468.74,515.385L1429.29,453.853L1436.8,369.526L1423.27,301.643L1384.66,278.746L1361.97,238.615L1246.12,283.768L1209.89,233.69L1112,243.129L1059.47,246.787L969.879,271.731L891.15,251.35L868.335,303.38L781.897,280.438L754.05,319.9L708.35,319.9Z" style="fill:rgb(63,63,63);stroke:rgb(63,63,63);stroke-width:1px;"/>
            </g>
            <g transform="matrix(1,0,0,1,-41.9555,-17.3369)">
                <path d="M1575.26,319.998L1594.91,417.201L1688.51,425.911L1695.21,484.872L1647.25,630.133L1724.84,727.44L1718.68,902.881L1627.42,929.648L1668.05,1051.1L1618.37,1125.05L1648.35,1241.64L1607.12,1300.12L1559.32,1321.31L1489.9,1385.82L1506.07,1458.94L1450.33,1491.2L1467.24,1552.82L1469.53,1500.39L1529.86,1466.48L1513.78,1394.92L1567.08,1326.62L1622.35,1325.3L1663.32,1248.48L1645.94,1131.94L1684.35,1056.86L1653.42,933.753L1731.55,906.127L1754.53,701.916L1671.58,618.407L1736.39,470.809L1711.24,412.094L1613.61,390.213L1575.26,319.998Z" style="fill:rgb(63,63,63);stroke:rgb(63,63,63);stroke-width:1px;"/>
            </g>
        </g>
        <g id="Layer11">
            <g transform="matrix(1,0,0,1,-41.9555,-17.3369)">
                <path d="M822.6,411.3L822.6,373.991L789.364,330.926L737.423,293.453L620.561,228.914L548.4,159.95L468.823,155.376L386.847,177.816L403.156,198.694L504.655,187.164L544.378,208.117L605.202,258.51L692.402,307.966L772.244,429.382L800.402,426.29L822.6,411.3Z" style="fill:rgb(127,127,127);stroke:rgb(127,127,127);stroke-width:1px;"/>
            </g>
            <g transform="matrix(1,0,0,1,-41.9555,-17.3369)">
                <path d="M991.533,57.474L1032.31,74.813L1034.66,102.007L1003.18,196.177L1059.07,272.212L1014.74,337.707L1054.81,397.693L1096.85,395.157L1053.02,340.859L1093.28,259.762L1023.36,178.457L1063.1,86.254L1038.89,61.643L991.533,57.474Z" style="fill:rgb(127,127,127);stroke:rgb(127,127,127);stroke-width:1px;"/>
            </g>
            <g transform="matrix(1,0,0,1,-41.9555,-17.3369)">
                <path d="M1325.3,479.85L1309.28,463.832L1382.74,336.355L1452.07,357.025L1559.56,309.206L1687.91,316.467L1732.03,180.733L1815.44,127.583L1874.55,114.104L1942.31,113.67L1828,159.95L1750.94,204.759L1710.31,353.454L1555.62,341.539L1462.4,388.45L1393.89,369.307L1325.3,479.85Z" style="fill:rgb(127,127,127);stroke:rgb(127,127,127);stroke-width:1px;"/>
            </g>
            <g transform="matrix(1,0,0,1,-41.9555,-17.3369)">
                <path d="M1371,731.2L1371.51,718.107L1494.8,713.456L1564.79,802.529L1652.6,803.213L1722.56,895.761L1852.37,914.367L1911.81,973.723L1927.08,1035.08L1906.69,1001.83L1840.65,939.957L1699.03,921.968L1640.27,819.57L1534.94,834L1485.49,738.114L1371,731.2Z" style="fill:rgb(127,127,127);stroke:rgb(127,127,127);stroke-width:1px;"/>
            </g>
            <g transform="matrix(1,0,0,1,-41.9555,-17.3369)">
                <path d="M1371,1073.95L1515.26,1146.29L1483.83,1266.28L1635.42,1344.72L1658.94,1486.46L1685.27,1514.07L1737.39,1515.18L1817.29,1527.2L1706.96,1540.39L1641.75,1548.54L1604.23,1368.92L1451.67,1277.29L1492.3,1163.46L1361.82,1087.71L1371,1073.95Z" style="fill:rgb(127,127,127);stroke:rgb(127,127,127);stroke-width:1px;"/>
            </g>
            <g transform="matrix(1,0,0,1,-41.9555,-17.3369)">
                <path d="M1309.73,1257.56L1285.17,1443.43L1233.9,1530.95L1188.2,1576.65L1142.5,1599.5L1206.79,1610.88L1214.61,1612.12L1268.91,1561.21L1310.92,1431.5L1309.73,1257.56Z" style="fill:rgb(127,127,127);stroke:rgb(127,127,127);stroke-width:1px;"/>
            </g>
            <g transform="matrix(1,0,0,1,-41.9555,-17.3369)">
                <path d="M822.6,1279.6L822.6,1393.85L868.3,1439.55L914,1439.55L891.15,1416.7L868.3,1371L868.3,1279.6L845.45,1256.75L822.6,1256.75L822.6,1279.6Z" style="fill:rgb(127,127,127);stroke:rgb(127,127,127);stroke-width:1px;"/>
            </g>
            <g transform="matrix(1,0,0,1,-41.9555,-17.3369)">
                <path d="M914,1256.75L914,1393.85L959.7,1439.55L1005.4,1439.55L982.55,1416.7L959.7,1371L959.7,1279.6L936.85,1256.75L914,1256.75Z" style="fill:rgb(127,127,127);stroke:rgb(127,127,127);stroke-width:1px;"/>
            </g>
            <g transform="matrix(1,0,0,1,-41.9555,-17.3369)">
                <path d="M434.15,1416.7L434.15,1393.85L411.3,1371L388.45,1371L365.6,1439.55L434.15,1416.7Z" style="fill:rgb(127,127,127);stroke:rgb(127,127,127);stroke-width:1px;"/>
            </g>
            <g transform="matrix(0.707107,-0.707107,0.707107,0.707107,-541.489,868.466)">
                <path d="M434.15,1416.7L434.15,1393.85L411.3,1371L388.45,1371L365.6,1439.55L434.15,1416.7Z" style="fill:rgb(127,127,127);stroke:rgb(127,127,127);stroke-width:1px;"/>
            </g>
            <g transform="matrix(0.707107,-0.707107,0.707107,0.707107,-372.075,868.466)">
                <path d="M434.15,1416.7L434.15,1393.85L411.3,1371L388.45,1371L365.6,1439.55L434.15,1416.7Z" style="fill:rgb(127,127,127);stroke:rgb(127,127,127);stroke-width:1px;"/>
            </g>
            <g transform="matrix(0.967743,-0.251941,0.251941,0.967743,-286.035,258.309)">
                <path d="M434.15,1416.7L434.15,1393.85L411.3,1371L388.45,1371L365.6,1439.55L434.15,1416.7Z" style="fill:rgb(127,127,127);stroke:rgb(127,127,127);stroke-width:1px;"/>
            </g>
            <g transform="matrix(0.825606,-0.564247,0.564247,0.825606,-528.203,645.651)">
                <path d="M434.15,1416.7L434.15,1393.85L411.3,1371L388.45,1371L365.6,1439.55L434.15,1416.7Z" style="fill:rgb(127,127,127);stroke:rgb(127,127,127);stroke-width:1px;"/>
            </g>
            <g transform="matrix(1,0,0,1,-41.9555,-17.3369)">
                <path d="M365.6,1256.75L365.6,1233.9L377.492,1211.05L411.3,1256.75L365.6,1256.75Z" style="fill:rgb(127,127,127);stroke:rgb(127,127,127);stroke-width:1px;"/>
            </g>
            <g transform="matrix(1,0,0,1,-41.9555,-17.3369)">
                <path d="M365.6,982.55L411.3,1073.95L411.3,982.55L411.3,959.7L388.45,959.7L365.6,982.55Z" style="fill:rgb(127,127,127);stroke:rgb(127,127,127);stroke-width:1px;"/>
            </g>
            <g transform="matrix(1,0,0,1,-41.9555,-17.3369)">
                <path d="M479.85,891.15L457,914L479.85,1028.25L502.7,914L479.85,891.15Z" style="fill:rgb(127,127,127);stroke:rgb(127,127,127);stroke-width:1px;"/>
            </g>
            <g transform="matrix(1,0,0,1,-41.9555,-17.3369)">
                <path d="M548.4,891.15L571.25,982.55L594.1,891.15L571.25,868.3L548.4,891.15Z" style="fill:rgb(127,127,127);stroke:rgb(127,127,127);stroke-width:1px;"/>
            </g>
            <g transform="matrix(1,0,0,1,-41.9555,-17.3369)">
                <path d="M639.8,845.45L662.65,936.85L685.5,845.45L662.65,822.6L639.8,845.45Z" style="fill:rgb(127,127,127);stroke:rgb(127,127,127);stroke-width:1px;"/>
            </g>
            <g transform="matrix(1,0,0,1,-41.9555,-17.3369)">
                <path d="M434.15,845.45L388.45,845.45L365.6,868.3L365.6,936.85L411.3,891.15L411.3,868.3L434.15,845.45Z" style="fill:rgb(127,127,127);stroke:rgb(127,127,127);stroke-width:1px;"/>
            </g>
            <g transform="matrix(1,0,0,1,-41.9555,-17.3369)">
                <path d="M479.85,822.6L479.85,799.75L571.25,708.35L594.1,479.85L639.8,525.55L639.8,708.35L594.1,754.05L502.7,799.75L479.85,822.6Z" style="fill:rgb(127,127,127);stroke:rgb(127,127,127);stroke-width:1px;"/>
            </g>
            <g transform="matrix(1,0,0,1,-41.9555,-17.3369)">
                <path d="M685.5,799.75L708.35,754.05L776.9,685.5L822.6,639.8L845.45,594.1L837.833,662.65L822.6,708.35L776.9,799.75L754.05,822.6L731.2,845.45L685.5,845.45L685.5,799.75Z" style="fill:rgb(127,127,127);stroke:rgb(127,127,127);stroke-width:1px;"/>
            </g>
            <g transform="matrix(1,0,0,1,-41.9555,-17.3369)">
                <path d="M799.75,891.15L776.9,868.3L799.75,834.025L822.6,822.6L914,799.75L959.7,799.75L891.15,845.45L845.45,891.15L799.75,891.15Z" style="fill:rgb(127,127,127);stroke:rgb(127,127,127);stroke-width:1px;"/>
            </g>
            <g transform="matrix(1,0,0,1,-41.9555,-17.3369)">
                <path d="M822.6,982.55L799.75,959.7L822.6,936.85L914,936.85L822.6,982.55Z" style="fill:rgb(127,127,127);stroke:rgb(127,127,127);stroke-width:1px;"/>
            </g>
            <g transform="matrix(1,0,0,1,-41.9555,-17.3369)">
                <path d="M959.7,982.55L997.646,972.714L997.143,935.851L1074.72,834L1137.78,848.047L1185.1,780.648L1197.79,814.749L1162.5,877.502L1082.75,871.161L1042.28,953.91L1042.46,1002.34L959.7,1028.25L959.7,982.55Z" style="fill:rgb(127,127,127);stroke:rgb(127,127,127);stroke-width:1px;"/>
            </g>
            <g transform="matrix(1,0,0,1,-41.9555,-17.3369)">
                <path d="M1082.59,1094.5L1078.17,1054.47L1112,991.767L1188.2,936.85L1218.38,922.249L1259.11,953.949L1325.3,936.85L1325.3,982.55L1260.83,987.378L1208.17,964.797L1175.69,983.253L1133.39,1014.93L1104.59,1071.12L1112,1111.96L1096.45,1096.83L1082.59,1094.5Z" style="fill:rgb(127,127,127);stroke:rgb(127,127,127);stroke-width:1px;"/>
            </g>
            <g transform="matrix(1,0,0,1,-41.9555,-17.3369)">
                <path d="M1210.4,1141.03L1208.56,1098.52L1240.7,1072.24L1281.92,1054.44L1325.3,1073.95L1325.3,1119.65L1289.71,1082.73L1255.23,1088.97L1229.44,1113.45L1241.55,1162.2L1188.2,1187.89L1188.2,1165.35L1169.74,1156.16L1210.4,1141.03Z" style="fill:rgb(127,127,127);stroke:rgb(127,127,127);stroke-width:1px;"/>
            </g>
            <g transform="matrix(1,0,0,1,-41.9555,-17.3369)">
                <path d="M639.8,1165.35L662.65,1142.5L685.5,1165.35L685.5,1256.75L639.8,1165.35Z" style="fill:rgb(127,127,127);stroke:rgb(127,127,127);stroke-width:1px;"/>
            </g>
            <g transform="matrix(1,0,0,1,-41.9555,-17.3369)">
                <path d="M754.05,1028.25L685.5,1005.4L639.8,959.7L708.35,982.55L754.05,982.55L776.9,1005.4L754.05,1028.25Z" style="fill:rgb(127,127,127);stroke:rgb(127,127,127);stroke-width:1px;"/>
            </g>
            <g transform="matrix(1,0,0,1,-133.355,28.3631)">
                <path d="M754.05,1028.25L685.5,1005.4L639.8,959.7L708.35,982.55L754.05,982.55L776.9,1005.4L754.05,1028.25Z" style="fill:rgb(127,127,127);stroke:rgb(127,127,127);stroke-width:1px;"/>
            </g>
            <g transform="matrix(1,0,0,1,-224.755,119.763)">
                <path d="M754.05,1028.25L685.5,1005.4L639.8,959.7L708.35,982.55L754.05,982.55L776.9,1005.4L754.05,1028.25Z" style="fill:rgb(127,127,127);stroke:rgb(127,127,127);stroke-width:1px;"/>
            </g>
        </g>
        <g transform="matrix(1,0,0,1,-41.9555,-17.3369)">
            <g id="Layer9">
                <path d="M548.4,868.3L548.4,822.6L571.25,799.75L594.1,799.75L594.1,845.45L548.4,868.3Z" style="fill:rgb(98,150,196);stroke:rgb(98,150,196);stroke-width:1px;"/>
            </g>
        </g>
    </g>
</svg>
