<?xml version="1.0" encoding="UTF-8" standalone="no"?>
<!DOCTYPE svg PUBLIC "-//W3C//DTD SVG 1.1//EN" "http://www.w3.org/Graphics/SVG/1.1/DTD/svg11.dtd">
<svg width="100%" height="100%" viewBox="0 0 4634 3475" version="1.1" xmlns="http://www.w3.org/2000/svg" xmlns:xlink="http://www.w3.org/1999/xlink" xml:space="preserve" xmlns:serif="http://www.serif.com/" style="fill-rule:evenodd;clip-rule:evenodd;stroke-linecap:round;stroke-linejoin:round;stroke-miterlimit:1.5;">
    <g transform="matrix(2.08333,0,0,2.08333,0,0)">
        <g id="Layer7" transform="matrix(1,0,0,1,-14.9,12.7)">
            <path d="M573,305.6L534.8,305.6L458.4,267.4L343.8,152.8L343.8,57.3L362.9,38.2L496.6,38.2L764,76.4L955,114.6L993.2,152.8L1260.6,152.8L1298.8,114.6L1394.3,95.5L1489.8,76.4L1623.5,57.3L1757.2,38.2L1890.9,38.2L1910,57.3L1910,152.8L1795.4,267.4L1719,305.6L1317.9,305.6L1337,706.7L1337,764L1317.9,783.1L1203.3,783.1L1126.9,840.4L1050.5,783.1L935.9,783.1L916.8,764L916.8,706.7L935.9,305.6L573,305.6Z" style="fill:rgb(56,88,117);"/>
            <path d="M916.8,1413.4L840.4,1337L840.4,1050.5L955,1031.4L993.2,1012.3L1069.6,935.9L1012.3,916.8L1069.6,821.3L1126.9,859.5L1184.2,821.3L1241.5,916.8L1184.2,935.9L1260.6,1012.3L1298.8,1031.4L1413.4,1050.5L1413.4,1337L1337,1413.4L916.8,1413.4Z" style="fill:rgb(56,88,117);"/>
        </g>
        <g id="Layer4" transform="matrix(-1,0,0,1,2238.9,12.7)">
            <path d="M343.8,1069.6L477.5,935.9L496.6,935.9L496.6,1528L343.8,1528L343.8,1069.6Z" style="fill:rgb(195,186,141);"/>
            <path d="M534.8,1165.1L534.8,840.4L573,802.2L611.2,649.4L630.3,592.1L630.3,305.6L897.7,305.6L897.7,324.7L859.5,362.9L859.5,573L897.7,611.2L897.7,744.9L916.8,764L916.8,878.6L878.6,916.8L859.5,955L802.2,1012.3L802.2,1165.1L668.5,1107.8L534.8,1165.1Z" style="fill:rgb(195,186,141);stroke:rgb(195,186,141);stroke-width:1px;"/>
            <g transform="matrix(-1,0,0,1,2253.8,0)">
                <path d="M343.8,1069.6L477.5,935.9L496.6,935.9L496.6,1528L343.8,1528L343.8,1069.6Z" style="fill:rgb(195,186,141);"/>
            </g>
            <g transform="matrix(-1,0,0,1,2253.8,0)">
                <path d="M534.8,1165.1L534.8,840.4L573,802.2L611.2,649.4L630.3,592.1L630.3,305.6L897.7,305.6L897.7,324.7L859.5,362.9L859.5,573L897.7,611.2L897.7,744.9L916.8,764L916.8,878.6L878.6,916.8L859.5,955L802.2,1012.3L802.2,1165.1L668.5,1107.8L534.8,1165.1Z" style="fill:rgb(195,186,141);stroke:rgb(195,186,141);stroke-width:1px;"/>
            </g>
            <g transform="matrix(-1,0,0,1,2253.8,0)">
                <path d="M955,305.6L955,362.9L974.1,382L1031.4,458.4L1031.4,630.3L935.9,725.8L916.8,725.8L916.8,611.2L878.6,573L878.6,362.9L916.8,324.7L916.8,305.6" style="fill:rgb(195,186,141);"/>
            </g>
            <path d="M955,305.6L955,362.9L974.1,382L1031.4,458.4L1031.4,630.3L935.9,725.8L916.8,725.8L916.8,611.2L878.6,573L878.6,362.9L916.8,324.7L916.8,305.6" style="fill:rgb(195,186,141);"/>
            <g transform="matrix(-1,0,0,1,2253.8,0)">
                <path d="M916.8,897.7L897.7,916.8L840.4,1031.4L840.4,1069.6L935.9,1069.6L955,1050.5L993.2,1031.4L1088.7,935.9L1107.8,916.8L1107.8,897.7L1031.4,878.6L916.8,897.7Z" style="fill:rgb(195,186,141);stroke:rgb(195,186,141);stroke-width:1px;"/>
            </g>
            <path d="M916.8,897.7L897.7,916.8L840.4,1031.4L840.4,1069.6L935.9,1069.6L955,1050.5L993.2,1031.4L1088.7,935.9L1107.8,916.8L1107.8,897.7L1031.4,878.6L916.8,897.7Z" style="fill:rgb(195,186,141);stroke:rgb(195,186,141);stroke-width:1px;"/>
            <g transform="matrix(-1,0,0,1,2253.8,0)">
                <path d="M1069.6,821.3L1050.5,783.1L1126.9,840.4L1203.3,783.1L1184.2,821.3L1126.9,859.5L1069.6,821.3Z" style="fill:rgb(195,186,141);"/>
            </g>
        </g>
        <g id="Layer1" transform="matrix(1,0,0,1,-14.9,12.7)">
            <path d="M955,305.6L955,229.2L916.8,191L764,152.8L649.4,133.7L534.8,114.6L420.2,114.6L420.2,152.8L573,305.6L955,305.6Z" style="fill:rgb(114,96,30);stroke:rgb(114,96,30);stroke-width:1px;"/>
            <g transform="matrix(-1,0,0,1,2253.8,0)">
                <path d="M955,305.6L955,229.2L916.8,191L764,152.8L649.4,133.7L534.8,114.6L420.2,114.6L420.2,152.8L573,305.6L955,305.6Z" style="fill:rgb(114,96,30);stroke:rgb(114,96,30);stroke-width:1px;"/>
            </g>
        </g>
        <g id="Layer3" transform="matrix(1,0,0,1,-14.9,12.7)">
            <path d="M553.9,1088.7L534.8,1088.7L534.8,1012.3L553.9,993.2L630.3,993.2L630.3,1012.3" style="fill:rgb(114,123,126);"/>
            <g transform="matrix(-1,0,0,1,2253.8,0)">
                <path d="M553.9,1088.7L534.8,1088.7L534.8,1012.3L553.9,993.2L630.3,993.2L630.3,1012.3" style="fill:rgb(114,123,126);"/>
            </g>
            <path d="M783.1,993.2L802.2,1012.3L802.2,1088.7L783.1,1088.7L706.7,1012.3L706.7,993.2L783.1,993.2Z" style="fill:rgb(114,123,126);"/>
            <g transform="matrix(-1,0,0,1,2253.8,0)">
                <path d="M783.1,993.2L802.2,1012.3L802.2,1088.7L783.1,1088.7L706.7,1012.3L706.7,993.2L783.1,993.2Z" style="fill:rgb(114,123,126);"/>
            </g>
            <path d="M553.9,1241.5L534.8,1241.5L534.8,1146L649.4,1031.4L649.4,1012.3L687.6,1012.3L687.6,1031.4L802.2,1146L802.2,1241.5L783.1,1241.5L687.6,1146L687.6,1126.9L649.4,1126.9L649.4,1146L553.9,1241.5Z" style="fill:rgb(114,123,126);"/>
            <g transform="matrix(-1,0,0,1,2253.8,0)">
                <path d="M553.9,1241.5L534.8,1241.5L534.8,1146L649.4,1031.4L649.4,1012.3L687.6,1012.3L687.6,1031.4L802.2,1146L802.2,1241.5L783.1,1241.5L687.6,1146L687.6,1126.9L649.4,1126.9L649.4,1146L553.9,1241.5Z" style="fill:rgb(114,123,126);"/>
            </g>
            <path d="M553.9,1394.3L534.8,1394.3L534.8,1279.7L649.4,1165.1L649.4,1146L687.6,1146L687.6,1165.1L802.2,1279.7L802.2,1394.3L783.1,1394.3L687.6,1298.8L687.6,1279.7L649.4,1279.7L649.4,1298.8L553.9,1394.3Z" style="fill:rgb(114,123,126);"/>
            <g transform="matrix(-1,0,0,1,2253.8,0)">
                <path d="M553.9,1394.3L534.8,1394.3L534.8,1279.7L649.4,1165.1L649.4,1146L687.6,1146L687.6,1165.1L802.2,1279.7L802.2,1394.3L783.1,1394.3L687.6,1298.8L687.6,1279.7L649.4,1279.7L649.4,1298.8L553.9,1394.3Z" style="fill:rgb(114,123,126);"/>
            </g>
            <g transform="matrix(1,0,0,1,0,19.1)">
                <path d="M802.2,1528L534.8,1528L534.8,1413.4L649.4,1298.8L649.4,1279.7L687.6,1279.7L687.6,1298.8L802.2,1413.4L821.3,1508.9L802.2,1528Z" style="fill:rgb(114,123,126);"/>
            </g>
            <g transform="matrix(-1,0,0,1,2253.8,19.1)">
                <path d="M802.2,1528L534.8,1528L534.8,1413.4L649.4,1298.8L649.4,1279.7L687.6,1279.7L687.6,1298.8L802.2,1413.4L821.3,1508.9L802.2,1528Z" style="fill:rgb(114,123,126);"/>
            </g>
            <path d="M592.1,916.8L592.1,935.9L649.4,993.2L687.6,993.2L744.9,935.9L744.9,916.8L592.1,916.8Z" style="fill:rgb(114,123,126);"/>
            <g transform="matrix(-1,0,0,1,2253.8,0)">
                <path d="M592.1,916.8L592.1,935.9L649.4,993.2L687.6,993.2L744.9,935.9L744.9,916.8L592.1,916.8Z" style="fill:rgb(114,123,126);"/>
            </g>
            <path d="M1031.4,458.4L974.1,382L955,382L935.9,420.2L916.8,458.4L916.8,573L935.9,611.2L974.1,649.4L1012.3,649.4L1031.4,630.3L1031.4,458.4Z" style="fill:rgb(114,123,126);"/>
            <g transform="matrix(-1,0,0,1,2253.8,0)">
                <path d="M1031.4,458.4L974.1,382L955,382L935.9,420.2L916.8,458.4L916.8,573L935.9,611.2L974.1,649.4L1012.3,649.4L1031.4,630.3L1031.4,458.4Z" style="fill:rgb(114,123,126);"/>
            </g>
            <path d="M1069.6,783.1L1031.4,744.9L974.1,744.9L955,764L916.8,878.6L916.8,1050.5L935.9,1050.5L955,1031.4L993.2,955L1031.4,916.8L1069.6,840.4L1069.6,783.1Z" style="fill:rgb(114,123,126);"/>
            <g transform="matrix(-1,0,0,1,2253.8,0)">
                <path d="M1069.6,783.1L1031.4,744.9L974.1,744.9L955,764L916.8,878.6L916.8,1050.5L935.9,1050.5L955,1031.4L993.2,955L1031.4,916.8L1069.6,840.4L1069.6,783.1Z" style="fill:rgb(114,123,126);"/>
            </g>
        </g>
        <g id="Layer5" transform="matrix(1,0,0,1,-14.9,12.7)">
            <path d="M649.4,592.1L630.3,592.1L534.8,496.6L534.8,420.2L649.4,305.6L725.8,305.6L802.2,382L802.2,458.4L764,496.6L725.8,496.6L687.6,458.4L687.6,420.2L706.7,401.1L725.8,401.1L725.8,420.2L744.9,439.3L764,420.2L764,401.1L744.9,382L668.5,382L649.4,401.1L649.4,592.1Z" style="fill:rgb(147,132,93);stroke:rgb(147,132,93);stroke-width:1px;"/>
            <g transform="matrix(-1,0,0,1,2253.8,0)">
                <path d="M649.4,592.1L630.3,592.1L534.8,496.6L534.8,420.2L649.4,305.6L725.8,305.6L802.2,382L802.2,458.4L764,496.6L725.8,496.6L687.6,458.4L687.6,420.2L706.7,401.1L725.8,401.1L725.8,420.2L744.9,439.3L764,420.2L764,401.1L744.9,382L668.5,382L649.4,401.1L649.4,592.1Z" style="fill:rgb(147,132,93);stroke:rgb(147,132,93);stroke-width:1px;"/>
            </g>
            <path d="M611.2,802.2L573,802.2L534.8,764L534.8,725.8L611.2,649.4L802.2,649.4L840.4,687.6L840.4,802.2L802.2,840.4L725.8,840.4L687.6,802.2L687.6,764L706.7,725.8L744.9,706.7L764,706.7L783.1,725.8L783.1,744.9L764,764L744.9,744.9L725.8,764L764,802.2L783.1,802.2L802.2,783.1L802.2,706.7L783.1,687.6L706.7,687.6L611.2,802.2Z" style="fill:rgb(147,132,93);stroke:rgb(147,132,93);stroke-width:1px;"/>
            <g transform="matrix(-1,0,0,1,2253.8,0)">
                <path d="M611.2,802.2L573,802.2L534.8,764L534.8,725.8L611.2,649.4L802.2,649.4L840.4,687.6L840.4,802.2L802.2,840.4L725.8,840.4L687.6,802.2L687.6,764L706.7,725.8L744.9,706.7L764,706.7L783.1,725.8L783.1,744.9L764,764L744.9,744.9L725.8,764L764,802.2L783.1,802.2L802.2,783.1L802.2,706.7L783.1,687.6L706.7,687.6L611.2,802.2Z" style="fill:rgb(147,132,93);stroke:rgb(147,132,93);stroke-width:1px;"/>
            </g>
            <path d="M993.2,191L993.2,152.8L1112,38.2L1146,38.2L1260.6,152.8L1260.6,191L1203.3,305.6L1184.2,324.7L1069.6,324.7L1050.5,305.6L993.2,191Z" style="fill:rgb(147,132,93);"/>
        </g>
        <g id="Layer2" transform="matrix(1,0,0,1,-14.9,12.7)">
            <g transform="matrix(1,0,0,1,0,19.1)">
                <path d="M534.8,1432.5L573,1394.3L592.1,1394.3L611.2,1413.4L611.2,1528L553.9,1585.3L534.8,1585.3" style="fill:rgb(56,88,117);"/>
            </g>
            <g transform="matrix(-1,0,0,1,2253.8,19.1)">
                <path d="M534.8,1432.5L573,1394.3L592.1,1394.3L611.2,1413.4L611.2,1528L553.9,1585.3L534.8,1585.3" style="fill:rgb(56,88,117);"/>
            </g>
            <g transform="matrix(1,0,0,1,-19.1,19.1)">
                <path d="M649.4,1451.6L687.6,1413.4L725.8,1413.4L764,1451.6L764,1528L725.8,1566.2L687.6,1566.2L649.4,1528L649.4,1451.6Z" style="fill:rgb(56,88,117);"/>
            </g>
            <g transform="matrix(-1,0,0,1,2272.9,19.1)">
                <path d="M649.4,1451.6L687.6,1413.4L725.8,1413.4L764,1451.6L764,1528L725.8,1566.2L687.6,1566.2L649.4,1528L649.4,1451.6Z" style="fill:rgb(56,88,117);"/>
            </g>
            <g transform="matrix(1,0,0,1,0,9.55)">
                <path d="M878.6,1413.4L916.8,1451.6L916.8,1585.3L897.7,1585.3L878.6,1566.2L802.2,1528L783.1,1489.8L764,1451.6L764,1432.5L783.1,1413.4L878.6,1413.4Z" style="fill:rgb(56,88,117);"/>
            </g>
            <g transform="matrix(-1,0,0,1,2253.8,9.55)">
                <path d="M878.6,1413.4L916.8,1451.6L916.8,1585.3L897.7,1585.3L878.6,1566.2L802.2,1528L783.1,1489.8L764,1451.6L764,1432.5L783.1,1413.4L878.6,1413.4Z" style="fill:rgb(56,88,117);"/>
            </g>
            <path d="M439.3,1585.3L420.2,1585.3L420.2,1489.8L458.4,1451.6L496.6,1451.6L496.6,1528L439.3,1585.3Z" style="fill:rgb(56,88,117);"/>
            <g transform="matrix(-1,0,0,1,2253.8,0)">
                <path d="M439.3,1585.3L420.2,1585.3L420.2,1489.8L458.4,1451.6L496.6,1451.6L496.6,1528L439.3,1585.3Z" style="fill:rgb(56,88,117);"/>
            </g>
            <path d="M362.9,1585.3L343.8,1585.3L343.8,1451.6L362.9,1432.5L382,1432.5L382,1566.2L362.9,1585.3Z" style="fill:rgb(56,88,117);"/>
            <g transform="matrix(-1,0,0,1,2253.8,0)">
                <path d="M362.9,1585.3L343.8,1585.3L343.8,1451.6L362.9,1432.5L382,1432.5L382,1566.2L362.9,1585.3Z" style="fill:rgb(56,88,117);"/>
            </g>
        </g>
        <g id="Layer6" transform="matrix(1,0,0,1,-14.9,12.7)">
            <path d="M955,553.9L955,515.7L974.1,496.6L1012.3,496.6L1031.4,515.7L1031.4,553.9L1012.3,573L974.1,573L955,553.9Z" style="fill:rgb(137,30,22);"/>
            <path d="M1222.4,553.9L1222.4,515.7L1241.5,496.6L1279.7,496.6L1298.8,515.7L1298.8,553.9L1279.7,573L1241.5,573L1222.4,553.9Z" style="fill:rgb(137,30,22);"/>
        </g>
        <g id="Layer8" transform="matrix(1,0,0,1,-14.9,12.7)">
            <path d="M840.4,1146L1012.3,1146L1031.4,1107.8L1069.6,1069.6L1112,1031.4L1146,1031.4L1222.4,1107.8L1241.5,1146L1413.4,1146L1413.4,1222.4L1203.3,1222.4L1146,1165.1L1126.9,1146L1107.8,1165.1L1050.5,1222.4L840.4,1222.4L840.4,1146Z" style="fill:rgb(191,150,23);"/>
        </g>
    </g>
</svg>
