<?xml version="1.0" encoding="UTF-8" standalone="no"?>
<!DOCTYPE svg PUBLIC "-//W3C//DTD SVG 1.1//EN" "http://www.w3.org/Graphics/SVG/1.1/DTD/svg11.dtd">
<svg width="100%" height="100%" viewBox="0 0 4634 3475" version="1.1" xmlns="http://www.w3.org/2000/svg" xmlns:xlink="http://www.w3.org/1999/xlink" xml:space="preserve" xmlns:serif="http://www.serif.com/" style="fill-rule:evenodd;clip-rule:evenodd;stroke-linecap:round;stroke-linejoin:round;stroke-miterlimit:1.5;">
    <g transform="matrix(2.08333,0,0,2.08333,0,0)">
        <g id="Layer8">
            <g transform="matrix(1,0,0,1,-7.65,-11.45)">
                <path d="M1690.9,479.85L1690.9,228.5L1668.05,182.8L1599.5,114.25L1553.8,91.4L1553.8,182.8L1530.95,205.65L1325.3,205.65L1279.6,159.95L1188.2,114.25L1073.95,68.55L845.45,68.55L914,114.25L936.85,159.95L936.85,182.8L914,205.65L845.45,205.65L731.2,182.8L639.8,182.8L754.05,251.35L776.9,274.2L754.05,297.05L639.8,297.05L548.4,342.75L479.85,411.3L457,502.7L457,936.85L502.7,936.85L731.2,708.35L731.2,571.25L822.6,479.85L914,434.15L1096.8,434.15L1142.5,411.3L1153.79,400.009L1188.2,388.45L1221.76,399.164L1233.9,411.3L1279.6,434.15L1371,434.15L1416.7,411.3L1427.89,400.109L1462.4,388.45L1599.5,388.45L1668.05,434.15L1690.9,479.85Z" style="fill:rgb(46,17,16);stroke:rgb(46,17,16);stroke-width:1px;"/>
            </g>
            <g transform="matrix(1,0,0,1,-7.65,-11.45)">
                <rect x="1599.5" y="1119.65" width="274.2" height="182.8" style="fill:rgb(46,17,16);stroke:rgb(46,17,16);stroke-width:1px;"/>
            </g>
            <g transform="matrix(1,0,0,1,-7.65,-11.45)">
                <path d="M1599.5,1348.15L1873.7,1348.15L1873.7,1530.95L1828,1576.65L1645.2,1576.65L1553.8,1439.55L1599.5,1393.85L1599.5,1348.15Z" style="fill:rgb(46,17,16);stroke:rgb(46,17,16);stroke-width:1px;"/>
            </g>
            <g transform="matrix(1,0,0,1,-7.65,-11.45)">
                <path d="M1485.25,1439.55L1599.5,1622.35L1325.3,1622.35L1325.3,1439.55L1485.25,1439.55Z" style="fill:rgb(46,17,16);stroke:rgb(46,17,16);stroke-width:1px;"/>
            </g>
            <g transform="matrix(1,0,0,1,-7.65,-11.45)">
                <rect x="1051.1" y="1439.55" width="228.5" height="182.8" style="fill:rgb(46,17,16);stroke:rgb(46,17,16);stroke-width:1px;"/>
            </g>
            <g transform="matrix(1,0,0,1,-7.65,-11.45)">
                <rect x="776.9" y="1439.55" width="228.5" height="182.8" style="fill:rgb(46,17,16);stroke:rgb(46,17,16);stroke-width:1px;"/>
            </g>
            <g transform="matrix(1,0,0,1,-7.65,-11.45)">
                <rect x="548.4" y="1439.55" width="182.8" height="182.8" style="fill:rgb(46,17,16);stroke:rgb(46,17,16);stroke-width:1px;"/>
            </g>
            <g transform="matrix(1,0,0,1,-7.65,-11.45)">
                <path d="M502.7,1622.35L502.7,1485.25L434.15,1462.4L365.6,1393.85L365.6,1576.65L411.3,1622.35L502.7,1622.35Z" style="fill:rgb(46,17,16);stroke:rgb(46,17,16);stroke-width:1px;"/>
            </g>
            <g transform="matrix(1,0,0,1,-7.65,-11.45)">
                <path d="M959.7,708.35L1028.25,708.35L1062.53,685.5L1073.95,662.65L1073.95,639.8L1096.8,662.65L1119.65,708.35L1211.05,708.35L1245.33,685.5L1256.75,662.65L1256.75,639.8L1279.6,662.65L1302.45,708.35L1393.85,708.35L1428.12,685.5L1439.55,662.65L1439.55,639.8L1462.4,662.65L1485.25,708.35L1576.65,708.35L1610.92,685.5L1622.35,662.65L1622.35,639.8L1645.2,662.65L1668.05,708.35L1690.9,708.35L1759.45,731.2L1828,776.9L1873.7,845.45L1873.7,1073.95L1576.65,1073.95L1553.8,1096.8L1553.8,1325.3L1530.95,1371L1485.25,1393.85L479.85,1393.85L434.15,1371L411.3,1325.3L411.3,1073.95L822.6,662.65L914,662.65L959.7,708.35ZM1005.4,936.85L845.45,1096.8L1005.4,1096.8L1005.4,936.85ZM776.9,936.85L616.95,1096.8L776.9,1096.8L776.9,936.85ZM1279.6,936.85L1119.65,1096.8L1279.6,1096.8L1279.6,936.85ZM1508.1,936.85L1348.15,1096.8L1508.1,1096.8L1508.1,936.85Z" style="fill:rgb(46,17,16);stroke:rgb(46,17,16);stroke-width:1px;"/>
            </g>
        </g>
        <g id="Layer10">
            <g transform="matrix(1,0,0,1,-7.65,-11.45)">
                <path d="M1005.4,662.65L1051.1,616.95L1051.1,479.85L914,616.95L959.7,662.65L1005.4,662.65Z" style="fill:rgb(21,17,13);stroke:rgb(21,17,13);stroke-width:1px;"/>
            </g>
            <g transform="matrix(1,0,0,1,175.15,-11.45)">
                <path d="M1005.4,662.65L1051.1,616.95L1051.1,479.85L914,616.95L959.7,662.65L1005.4,662.65Z" style="fill:rgb(21,17,13);stroke:rgb(21,17,13);stroke-width:1px;"/>
            </g>
            <g transform="matrix(1,0,0,1,357.95,-11.45)">
                <path d="M1005.4,662.65L1051.1,616.95L1051.1,479.85L914,616.95L959.7,662.65L1005.4,662.65Z" style="fill:rgb(21,17,13);stroke:rgb(21,17,13);stroke-width:1px;"/>
            </g>
            <g transform="matrix(1,0,0,1,540.75,-11.45)">
                <path d="M1005.4,662.65L1051.1,616.95L1051.1,479.85L914,616.95L959.7,662.65L1005.4,662.65Z" style="fill:rgb(21,17,13);stroke:rgb(21,17,13);stroke-width:1px;"/>
            </g>
            <g transform="matrix(1,0,0,1,-7.65,11.4)">
                <path d="M868.3,1073.95L731.2,1211.05L868.3,1211.05L868.3,1073.95Z" style="fill:rgb(21,17,13);stroke:rgb(21,17,13);stroke-width:1px;"/>
            </g>
            <g transform="matrix(1,0,0,1,266.55,11.4)">
                <path d="M868.3,1073.95L731.2,1211.05L868.3,1211.05L868.3,1073.95Z" style="fill:rgb(21,17,13);stroke:rgb(21,17,13);stroke-width:1px;"/>
            </g>
            <g transform="matrix(1,0,0,1,495.05,11.4)">
                <path d="M868.3,1073.95L731.2,1211.05L868.3,1211.05L868.3,1073.95Z" style="fill:rgb(21,17,13);stroke:rgb(21,17,13);stroke-width:1px;"/>
            </g>
            <g transform="matrix(1,0,0,1,540.75,-285.65)">
                <path d="M868.3,1073.95L731.2,1211.05L868.3,1211.05L868.3,1073.95Z" style="fill:rgb(21,17,13);stroke:rgb(21,17,13);stroke-width:1px;"/>
            </g>
            <g transform="matrix(1,0,0,1,769.25,-285.65)">
                <path d="M868.3,1073.95L731.2,1211.05L868.3,1211.05L868.3,1073.95Z" style="fill:rgb(21,17,13);stroke:rgb(21,17,13);stroke-width:1px;"/>
            </g>
            <g transform="matrix(1,0,0,1,266.55,-285.65)">
                <path d="M868.3,1073.95L731.2,1211.05L868.3,1211.05L868.3,1073.95Z" style="fill:rgb(21,17,13);stroke:rgb(21,17,13);stroke-width:1px;"/>
            </g>
            <g transform="matrix(1,0,0,1,38.05,-285.65)">
                <path d="M868.3,1073.95L731.2,1211.05L868.3,1211.05L868.3,1073.95Z" style="fill:rgb(21,17,13);stroke:rgb(21,17,13);stroke-width:1px;"/>
            </g>
        </g>
        <g id="Layer9">
            <g transform="matrix(1,0,0,1,-7.65,-34.3)">
                <path d="M1622.35,342.75L1622.35,297.05L1599.5,274.2L1645.2,274.2L1645.2,297.05L1622.35,342.75Z" style="fill:rgb(248,232,187);stroke:rgb(248,232,187);stroke-width:1px;"/>
            </g>
            <g transform="matrix(1,0,0,1,-99.05,-34.3)">
                <path d="M1622.35,342.75L1622.35,297.05L1599.5,274.2L1645.2,274.2L1645.2,297.05L1622.35,342.75Z" style="fill:rgb(248,232,187);stroke:rgb(248,232,187);stroke-width:1px;"/>
            </g>
            <g transform="matrix(1,0,0,1,-190.45,-34.3)">
                <path d="M1622.35,342.75L1622.35,297.05L1599.5,274.2L1645.2,274.2L1645.2,297.05L1622.35,342.75Z" style="fill:rgb(248,232,187);stroke:rgb(248,232,187);stroke-width:1px;"/>
            </g>
            <g transform="matrix(1,0,0,1,-7.65,-34.3)">
                <path d="M1188.2,319.9L1165.35,297.05L1165.35,251.35L1188.2,228.5L1233.9,228.5L1256.75,251.35L1256.75,297.05L1233.9,319.9L1188.2,319.9Z" style="fill:rgb(248,232,187);stroke:rgb(248,232,187);stroke-width:1px;"/>
            </g>
        </g>
    </g>
</svg>
