<?xml version="1.0" encoding="UTF-8" standalone="no"?>
<!DOCTYPE svg PUBLIC "-//W3C//DTD SVG 1.1//EN" "http://www.w3.org/Graphics/SVG/1.1/DTD/svg11.dtd">
<svg width="100%" height="100%" viewBox="0 0 4634 3475" version="1.1" xmlns="http://www.w3.org/2000/svg" xmlns:xlink="http://www.w3.org/1999/xlink" xml:space="preserve" xmlns:serif="http://www.serif.com/" style="fill-rule:evenodd;clip-rule:evenodd;stroke-linecap:round;stroke-linejoin:round;stroke-miterlimit:1.5;">
    <g transform="matrix(2.08333,0,0,2.08333,0,0)">
        <g transform="matrix(1,0,0,1,-30.5,-11.45)">
            <g id="Layer8">
                <path d="M708.35,22.85L822.6,22.85L868.3,68.55L914,159.95L914,685.5L891.15,714.063L822.6,731.2L822.6,776.9L868.3,799.75L914,891.15L959.7,936.85L1645.2,936.85L1668.05,868.3L1736.6,845.45L1736.6,502.7L1713.75,479.85L1416.7,479.85L1462.4,434.15L1416.7,22.85L1736.6,22.85L1919.4,205.65L1965.1,297.05L1919.4,1211.05L1736.6,1302.45L1348.15,1302.45L1325.3,1325.3L1348.15,1348.15L1622.35,1348.15L1656.62,1371L1690.9,1439.55L1690.9,1530.95L1645.2,1622.35L1462.4,1622.35L1485.25,1485.25L1188.2,1485.25L1142.5,1439.55L1142.5,1119.65L1188.2,1073.95L1576.65,1073.95L1599.5,1119.65L1622.35,1119.65L1645.2,1096.8L1645.2,1051.1L1622.35,1028.25L1142.5,1028.25L1096.8,1073.95L1096.8,1233.9L959.7,1233.9L959.7,1142.5L936.85,1119.65L914,1142.5L914,1439.55L685.5,1462.4L639.8,1416.7L594.1,1416.7L594.1,982.55L548.4,936.85L457,662.65L457,548.4L571.25,457L616.95,342.75L639.8,159.95L708.35,22.85Z" style="fill:rgb(48,94,149);stroke:rgb(48,94,149);stroke-width:1px;"/>
            </g>
        </g>
        <g id="Layer14">
            <g transform="matrix(1,0,0,1,-30.5,-11.45)">
                <path d="M731.2,1005.4L776.9,982.55L799.75,936.85L822.6,936.85L822.6,1005.4L799.75,1028.25L731.2,1028.25L731.2,1005.4Z" style="fill:rgb(45,78,115);stroke:rgb(45,78,115);stroke-width:1px;"/>
            </g>
            <g transform="matrix(1,0,0,1,-99.05,-742.65)">
                <path d="M731.2,1028.25L731.2,959.7L776.9,906.966L822.6,982.55L845.45,1028.25L822.6,1073.95L776.9,1073.95L731.2,1028.25Z" style="fill:rgb(45,78,115);stroke:rgb(45,78,115);stroke-width:1px;"/>
            </g>
            <g transform="matrix(1,0,0,1,106.6,-11.45)">
                <path d="M731.2,1005.4L776.9,982.55L799.75,936.85L822.6,936.85L822.6,1005.4L799.75,1028.25L731.2,1028.25L731.2,1005.4Z" style="fill:rgb(45,78,115);stroke:rgb(45,78,115);stroke-width:1px;"/>
            </g>
            <g transform="matrix(1,0,0,1,472.2,171.35)">
                <path d="M731.2,1005.4L776.9,982.55L799.75,936.85L822.6,936.85L822.6,1005.4L799.75,1028.25L731.2,1028.25L731.2,1005.4Z" style="fill:rgb(45,78,115);stroke:rgb(45,78,115);stroke-width:1px;"/>
            </g>
            <g transform="matrix(1,0,0,1,609.3,171.35)">
                <path d="M731.2,1005.4L776.9,982.55L799.75,936.85L822.6,936.85L822.6,1005.4L799.75,1028.25L731.2,1028.25L731.2,1005.4Z" style="fill:rgb(45,78,115);stroke:rgb(45,78,115);stroke-width:1px;"/>
            </g>
            <g transform="matrix(1,0,0,1,746.4,171.35)">
                <path d="M731.2,1005.4L776.9,982.55L799.75,936.85L822.6,936.85L822.6,1005.4L799.75,1028.25L731.2,1028.25L731.2,1005.4Z" style="fill:rgb(45,78,115);stroke:rgb(45,78,115);stroke-width:1px;"/>
            </g>
            <g transform="matrix(1,0,0,1,974.9,34.25)">
                <path d="M731.2,1005.4L776.9,982.55L799.75,936.85L822.6,936.85L822.6,1005.4L799.75,1028.25L731.2,1028.25L731.2,1005.4Z" style="fill:rgb(45,78,115);stroke:rgb(45,78,115);stroke-width:1px;"/>
            </g>
            <g transform="matrix(1,0,0,1,974.9,-102.85)">
                <path d="M731.2,1005.4L776.9,982.55L799.75,936.85L822.6,936.85L822.6,1005.4L799.75,1028.25L731.2,1028.25L731.2,1005.4Z" style="fill:rgb(45,78,115);stroke:rgb(45,78,115);stroke-width:1px;"/>
            </g>
            <g transform="matrix(1,0,0,1,974.9,-239.95)">
                <path d="M731.2,1005.4L776.9,982.55L799.75,936.85L822.6,936.85L822.6,1005.4L799.75,1028.25L731.2,1028.25L731.2,1005.4Z" style="fill:rgb(45,78,115);stroke:rgb(45,78,115);stroke-width:1px;"/>
            </g>
            <g transform="matrix(1,0,0,1,974.9,-377.05)">
                <path d="M731.2,1005.4L776.9,982.55L799.75,936.85L822.6,936.85L822.6,1005.4L799.75,1028.25L731.2,1028.25L731.2,1005.4Z" style="fill:rgb(45,78,115);stroke:rgb(45,78,115);stroke-width:1px;"/>
            </g>
            <g transform="matrix(1,0,0,1,974.9,-514.15)">
                <path d="M731.2,1005.4L776.9,982.55L799.75,936.85L822.6,936.85L822.6,1005.4L799.75,1028.25L731.2,1028.25L731.2,1005.4Z" style="fill:rgb(45,78,115);stroke:rgb(45,78,115);stroke-width:1px;"/>
            </g>
            <g transform="matrix(1,0,0,1,974.9,-651.25)">
                <path d="M731.2,1005.4L776.9,982.55L799.75,936.85L822.6,936.85L822.6,1005.4L799.75,1028.25L731.2,1028.25L731.2,1005.4Z" style="fill:rgb(45,78,115);stroke:rgb(45,78,115);stroke-width:1px;"/>
            </g>
            <g transform="matrix(1,0,0,1,837.8,-651.25)">
                <path d="M731.2,1005.4L776.9,982.55L799.75,936.85L822.6,936.85L822.6,1005.4L799.75,1028.25L731.2,1028.25L731.2,1005.4Z" style="fill:rgb(45,78,115);stroke:rgb(45,78,115);stroke-width:1px;"/>
            </g>
            <g transform="matrix(1,0,0,1,-30.5,125.65)">
                <path d="M731.2,1005.4L776.9,982.55L799.75,936.85L822.6,936.85L822.6,1005.4L799.75,1028.25L731.2,1028.25L731.2,1005.4Z" style="fill:rgb(45,78,115);stroke:rgb(45,78,115);stroke-width:1px;"/>
            </g>
            <g transform="matrix(1,0,0,1,-30.5,-11.45)">
                <path d="M548.4,388.45L548.4,251.35L571.25,159.95L594.1,114.25L639.8,68.55L685.5,22.85L671.901,68.55L639.8,159.95L571.25,502.7L434.15,479.85L365.6,388.45L319.9,228.5L352.929,251.35L365.6,205.65L457,388.45L502.7,434.15L525.55,434.15L548.4,411.3L548.4,388.45Z" style="fill:rgb(45,78,115);stroke:rgb(45,78,115);stroke-width:1px;"/>
            </g>
        </g>
        <g id="Layer15">
            <g transform="matrix(1,0,0,1,-30.5,-11.45)">
                <path d="M616.95,411.3L685.5,411.3L708.35,434.15L708.35,502.7L685.5,525.55L594.1,525.55L616.95,411.3Z" style="fill:rgb(192,111,49);stroke:rgb(192,111,49);stroke-width:1px;"/>
            </g>
            <g transform="matrix(1,0,0,1,-30.5,-11.45)">
                <rect x="502.7" y="434.15" width="45.7" height="45.7" style="fill:rgb(192,111,49);stroke:rgb(192,111,49);stroke-width:1px;"/>
            </g>
            <g transform="matrix(1,0,0,1,-30.5,-11.45)">
                <rect x="548.4" y="388.45" width="45.7" height="45.7" style="fill:rgb(192,111,49);stroke:rgb(192,111,49);stroke-width:1px;"/>
            </g>
            <g transform="matrix(1,0,0,1,-30.5,-102.85)">
                <rect x="548.4" y="388.45" width="45.7" height="45.7" style="fill:rgb(192,111,49);stroke:rgb(192,111,49);stroke-width:1px;"/>
            </g>
            <g transform="matrix(1,0,0,1,15.2,-331.35)">
                <path d="M548.4,434.15L594.1,388.45L594.1,434.15L548.4,434.15Z" style="fill:rgb(192,111,49);stroke:rgb(192,111,49);stroke-width:1px;"/>
            </g>
            <g transform="matrix(1,0,0,1,60.9,-377.05)">
                <path d="M548.4,434.15L594.1,388.45L594.1,434.15L548.4,434.15Z" style="fill:rgb(192,111,49);stroke:rgb(192,111,49);stroke-width:1px;"/>
            </g>
            <g transform="matrix(1,0,0,1,15.2,-239.95)">
                <rect x="548.4" y="388.45" width="45.7" height="45.7" style="fill:rgb(192,111,49);stroke:rgb(192,111,49);stroke-width:1px;"/>
            </g>
            <g transform="matrix(1,0,0,1,-30.5,-194.25)">
                <path d="M548.4,434.15L559.825,388.45L594.1,388.45L594.1,434.15L548.4,434.15L548.4,434.15Z" style="fill:rgb(192,111,49);stroke:rgb(192,111,49);stroke-width:1px;"/>
            </g>
            <g transform="matrix(1,0,0,1,-30.5,-285.65)">
                <path d="M571.25,434.15L594.1,388.45L594.1,434.15L571.25,434.15Z" style="fill:rgb(192,111,49);stroke:rgb(192,111,49);stroke-width:1px;"/>
            </g>
            <g transform="matrix(1,0,0,1,-213.3,-194.25)">
                <path d="M548.4,388.45L571.25,434.15L548.4,434.15L548.4,388.45Z" style="fill:rgb(192,111,49);stroke:rgb(192,111,49);stroke-width:1px;"/>
            </g>
            <g transform="matrix(1,0,0,1,-167.6,-57.15)">
                <path d="M548.4,388.45L571.25,388.45L594.1,434.15L548.4,434.15L548.4,388.45Z" style="fill:rgb(192,111,49);stroke:rgb(192,111,49);stroke-width:1px;"/>
            </g>
            <g transform="matrix(1,0,0,1,-121.9,-11.45)">
                <path d="M548.4,388.45L594.1,434.15L548.4,434.15L548.4,388.45Z" style="fill:rgb(192,111,49);stroke:rgb(192,111,49);stroke-width:1px;"/>
            </g>
            <g transform="matrix(1,0,0,1,-213.3,-102.85)">
                <rect x="548.4" y="388.45" width="45.7" height="45.7" style="fill:rgb(192,111,49);stroke:rgb(192,111,49);stroke-width:1px;"/>
            </g>
            <g transform="matrix(1,0,0,1,-30.5,-11.45)">
                <path d="M479.85,639.8L548.4,708.35L548.4,891.15L594.1,936.85L594.1,982.55L548.4,1005.4L548.4,1188.2L479.85,1051.1L479.85,639.8Z" style="fill:rgb(192,111,49);stroke:rgb(192,111,49);stroke-width:1px;"/>
            </g>
            <g transform="matrix(1,0,0,1,-30.5,-11.45)">
                <path d="M1965.1,365.6L1942.25,342.75L1919.4,342.75L1919.4,388.45L1896.55,411.3L1873.7,411.3L1919.4,434.15L1919.4,525.55L1896.55,548.4L1873.7,548.4L1919.4,571.25L1919.4,662.65L1896.55,685.5L1873.7,685.5L1919.4,708.35L1919.4,754.05L1896.55,776.9L1873.7,776.9L1919.4,799.75L1919.4,845.45L1965.1,799.75L1965.1,365.6Z" style="fill:rgb(192,111,49);stroke:rgb(192,111,49);stroke-width:1px;"/>
            </g>
            <g transform="matrix(1,0,0,1,-30.5,-11.45)">
                <path d="M1919.4,891.15L1919.4,1119.65L1873.7,1211.05L1736.6,1256.75L1736.6,1211.05L1850.85,1165.35L1873.7,1119.65L1873.7,1028.25L1873.7,936.85L1919.4,891.15Z" style="fill:rgb(192,111,49);stroke:rgb(192,111,49);stroke-width:1px;"/>
            </g>
        </g>
        <g id="Layer13">
            <g transform="matrix(1,0,0,1,-30.5,-11.45)">
                <path d="M457,616.95L342.75,616.95L388.45,662.65L411.3,708.35L502.7,708.35L502.7,662.65L457,616.95Z" style="fill:rgb(155,127,34);stroke:rgb(155,127,34);stroke-width:1px;"/>
            </g>
            <g transform="matrix(1,0,0,1,-30.5,-11.45)">
                <path d="M731.2,1416.7L731.2,1576.65L776.9,1622.35L1096.8,1622.35L1073.95,1576.65L1051.1,1530.95L1028.25,1485.25L891.15,1439.55L868.3,1279.6L845.45,1302.45L822.6,1325.3L822.6,1393.85L776.9,1371L731.2,1416.7Z" style="fill:rgb(155,127,34);stroke:rgb(155,127,34);stroke-width:1px;"/>
            </g>
            <g transform="matrix(1,0,0,1,-30.5,-11.45)">
                <path d="M1051.1,936.85L1051.1,868.3L1073.95,845.45L1348.15,845.45L1371,891.15L1119.65,936.85L1051.1,936.85Z" style="fill:rgb(155,127,34);stroke:rgb(155,127,34);stroke-width:1px;"/>
            </g>
            <g transform="matrix(1,0,0,1,-30.5,-11.45)">
                <path d="M1348.15,1576.65L1302.45,1622.35L1645.2,1622.35L1599.5,1576.65L1348.15,1576.65Z" style="fill:rgb(155,127,34);stroke:rgb(155,127,34);stroke-width:1px;"/>
            </g>
            <g transform="matrix(1,0,0,1,-30.5,-11.45)">
                <path d="M1393.85,1530.95L1439.55,1485.25L1508.1,1485.25L1553.8,1530.95L1393.85,1530.95Z" style="fill:rgb(155,127,34);stroke:rgb(155,127,34);stroke-width:1px;"/>
            </g>
            <g transform="matrix(1,0,0,1,-30.5,-11.45)">
                <path d="M1530.95,388.45L1302.45,388.45L1325.3,411.3L1302.45,434.15L1485.25,434.15L1530.95,388.45Z" style="fill:rgb(155,127,34);stroke:rgb(155,127,34);stroke-width:1px;"/>
            </g>
            <g transform="matrix(1,0,0,1,-30.5,-11.45)">
                <path d="M1576.65,342.75L1599.5,297.05L1211.05,297.05L1233.9,319.9L1211.05,342.75L1576.65,342.75Z" style="fill:rgb(155,127,34);stroke:rgb(155,127,34);stroke-width:1px;"/>
            </g>
            <g transform="matrix(1,0,0,1,-30.5,-11.45)">
                <path d="M1599.5,205.65L1576.65,159.95L1211.05,159.95L1233.9,182.8L1211.05,205.65L1599.5,205.65Z" style="fill:rgb(155,127,34);stroke:rgb(155,127,34);stroke-width:1px;"/>
            </g>
            <g transform="matrix(1,0,0,1,-30.5,-11.45)">
                <path d="M1530.95,114.25L1485.25,68.55L1302.45,68.55L1325.3,91.4L1302.45,114.25L1530.95,114.25Z" style="fill:rgb(155,127,34);stroke:rgb(155,127,34);stroke-width:1px;"/>
            </g>
        </g>
        <g id="Layer12">
            <g transform="matrix(1,0,0,1,-30.5,-11.45)">
                <path d="M502.7,525.55L342.75,525.55L319.9,548.4L319.9,594.1L342.75,616.95L457,616.95L502.7,571.25L502.7,525.55Z" style="fill:rgb(228,222,201);stroke:rgb(228,222,201);stroke-width:1px;"/>
            </g>
            <g transform="matrix(1,0,0,1,-30.5,-11.45)">
                <path d="M594.1,1302.45L594.1,1645.2L616.95,1668L639.8,1668L639.8,1325.3L616.95,1302.45L594.1,1302.45Z" style="fill:rgb(228,222,201);stroke:rgb(228,222,201);stroke-width:1px;"/>
            </g>
            <g transform="matrix(1,0,0,1,-30.5,-11.45)">
                <path d="M731.2,1416.7L685.5,1462.4L685.5,1622.35L731.2,1668L1119.65,1668L1096.8,1622.35L776.9,1622.35L731.2,1576.65L731.2,1416.7Z" style="fill:rgb(228,222,201);stroke:rgb(228,222,201);stroke-width:1px;"/>
            </g>
            <g transform="matrix(1,0,0,1,-30.5,-11.45)">
                <path d="M776.9,1371L776.9,1553.8L799.75,1576.65L1073.95,1576.65L1051.1,1530.95L845.45,1530.95L822.6,1508.1L822.6,1325.3L776.9,1371Z" style="fill:rgb(228,222,201);stroke:rgb(228,222,201);stroke-width:1px;"/>
            </g>
            <g transform="matrix(1,0,0,1,-30.5,-11.45)">
                <path d="M891.15,1256.75L868.3,1279.6L868.3,1462.4L891.15,1485.25L1028.25,1485.25L1005.4,1439.55L936.85,1439.55L914,1416.7L914,1256.75L891.15,1256.75Z" style="fill:rgb(228,222,201);stroke:rgb(228,222,201);stroke-width:1px;"/>
            </g>
            <g transform="matrix(1,0,0,1,-30.5,-11.45)">
                <path d="M1096.8,936.85L1096.8,914L1119.65,891.15L1371,891.15L1393.85,936.85L1096.8,936.85Z" style="fill:rgb(228,222,201);stroke:rgb(228,222,201);stroke-width:1px;"/>
            </g>
            <g transform="matrix(1,0,0,1,-30.5,-11.45)">
                <path d="M1073.95,845.45L1051.1,868.3L1051.1,936.85L1005.4,936.85L1005.4,822.6L1028.25,799.75L1325.3,799.75L1348.15,845.45L1073.95,845.45Z" style="fill:rgb(228,222,201);stroke:rgb(228,222,201);stroke-width:1px;"/>
            </g>
            <g transform="matrix(1,0,0,1,-30.5,-11.45)">
                <path d="M1553.8,1530.95L1599.5,1576.65L1348.15,1576.65L1393.85,1530.95L1553.8,1530.95Z" style="fill:rgb(228,222,201);stroke:rgb(228,222,201);stroke-width:1px;"/>
            </g>
            <g transform="matrix(1,0,0,1,-30.5,-11.45)">
                <path d="M1645.2,1622.35L1645.2,1645.2L1622.35,1668L1256.75,1668.05L1302.45,1622.35L1645.2,1622.35Z" style="fill:rgb(228,222,201);stroke:rgb(228,222,201);stroke-width:1px;"/>
            </g>
            <g transform="matrix(1,0,0,1,-30.5,-11.45)">
                <path d="M1599.5,936.85L1576.65,754.05L1599.5,731.2L1645.2,731.2L1622.35,754.05L1622.35,776.9L1668.05,811.333L1736.6,799.75L1736.6,845.45L1690.9,891.15L1645.2,936.85L1599.5,936.85Z" style="fill:rgb(228,222,201);stroke:rgb(228,222,201);stroke-width:1px;"/>
            </g>
            <g transform="matrix(1,0,0,1,-30.5,-11.45)">
                <path d="M1416.7,479.85L1302.45,479.85L1279.6,457L1302.45,434.15L1485.25,434.15L1416.7,479.85Z" style="fill:rgb(228,222,201);stroke:rgb(228,222,201);stroke-width:1px;"/>
            </g>
            <g transform="matrix(1,0,0,1,-30.5,-11.45)">
                <path d="M1530.95,388.45L1576.65,342.75L1211.05,342.75L1188.2,365.6L1211.05,388.45L1530.95,388.45Z" style="fill:rgb(228,222,201);stroke:rgb(228,222,201);stroke-width:1px;"/>
            </g>
            <g transform="matrix(1,0,0,1,-30.5,-11.45)">
                <path d="M1599.5,297.05L1599.5,205.65L1165.35,205.65L1142.5,228.5L1142.5,274.2L1165.35,297.05L1599.5,297.05Z" style="fill:rgb(228,222,201);stroke:rgb(228,222,201);stroke-width:1px;"/>
            </g>
            <g transform="matrix(1,0,0,1,-30.5,-11.45)">
                <path d="M1530.95,114.25L1576.65,159.95L1211.05,159.95L1188.2,137.1L1211.05,114.25L1530.95,114.25Z" style="fill:rgb(228,222,201);stroke:rgb(228,222,201);stroke-width:1px;"/>
            </g>
            <g transform="matrix(1,0,0,1,-30.5,-11.45)">
                <path d="M1485.25,68.55L1416.7,22.85L1302.45,22.85L1279.6,45.7L1302.45,68.55L1485.25,68.55Z" style="fill:rgb(228,222,201);stroke:rgb(228,222,201);stroke-width:1px;"/>
            </g>
            <g transform="matrix(1,0,0,1,-30.5,-11.45)">
                <path d="M1759.45,1348.15L1828,1348.15L1965.1,1256.75L1965.1,1165.35L1850.85,1246.25L1736.6,1302.45L1736.6,1325.3L1759.45,1348.15Z" style="fill:rgb(228,222,201);stroke:rgb(228,222,201);stroke-width:1px;"/>
            </g>
        </g>
        <g id="Layer11">
            <g transform="matrix(1,0,0,1,-30.5,-11.45)">
                <path d="M594.1,525.55L639.8,479.85L639.8,251.35L662.65,159.95L685.5,114.25L708.35,68.55L731.2,45.7L731.2,22.85L685.5,22.85L639.8,91.4L616.95,137.1L594.1,251.35L594.1,365.6L578.867,411.3L548.4,457L525.55,479.85L502.7,457L457,411.3L405.587,342.75L382.737,297.05L374.169,274.2L365.6,228.5L365.6,205.65L342.75,205.65L319.9,228.5L342.75,388.45L354.175,411.3L411.3,479.85L422.725,502.7L457,525.55L594.1,525.55Z" style="fill:rgb(226,192,148);stroke:rgb(226,192,148);stroke-width:1px;"/>
            </g>
            <g transform="matrix(1,0,0,1,-30.5,-11.45)">
                <path d="M959.7,1211.05L959.7,1348.15L1005.4,1393.85L1051.1,1393.85L1096.8,1348.15L1096.8,1211.05L959.7,1211.05Z" style="fill:rgb(226,192,148);stroke:rgb(226,192,148);stroke-width:1px;"/>
            </g>
            <g transform="matrix(1,0,0,1,-30.5,-11.45)">
                <path d="M411.3,708.35L411.3,799.75L457,1051.1L479.85,1256.75L502.7,1302.45L525.55,1302.45L548.4,1256.75L548.4,1165.35L502.7,1051.1L502.7,708.35L411.3,708.35Z" style="fill:rgb(226,192,148);stroke:rgb(226,192,148);stroke-width:1px;"/>
            </g>
            <g transform="matrix(1,0,0,1,-30.5,-11.45)">
                <path d="M1736.6,1256.75L1873.7,1211.05L1919.4,1119.65L1919.4,1028.25L1919.4,891.15L1965.1,845.45L1965.1,1165.35L1919.4,1233.9L1828,1279.6L1736.6,1302.45L1736.6,1256.75Z" style="fill:rgb(226,192,148);stroke:rgb(226,192,148);stroke-width:1px;"/>
            </g>
        </g>
        <g id="Layer10">
            <g transform="matrix(1,0,0,1,-30.5,-11.45)">
                <path d="M639.8,594.1L685.5,571.25L731.2,594.1L685.5,616.95L639.8,594.1Z" style="fill:rgb(197,33,50);stroke:rgb(197,33,50);stroke-width:1px;"/>
            </g>
            <g transform="matrix(1,0,0,1,-30.5,-11.45)">
                <path d="M594.1,685.5L662.65,662.65L731.2,685.5L662.65,708.35L594.1,685.5Z" style="fill:rgb(197,33,50);stroke:rgb(197,33,50);stroke-width:1px;"/>
            </g>
            <g transform="matrix(1,0,0,1,-30.5,-11.45)">
                <path d="M662.65,754.05L731.2,776.9L662.65,799.75L594.1,776.9L662.65,754.05Z" style="fill:rgb(197,33,50);stroke:rgb(197,33,50);stroke-width:1px;"/>
            </g>
        </g>
        <g transform="matrix(1,0,0,1,-30.5,-11.45)">
            <g id="Layer9">
                <path d="M685.5,251.35L708.35,228.5L731.2,251.35L731.2,297.05L708.35,319.9L685.5,297.05" style="fill:rgb(206,193,120);stroke:rgb(206,193,120);stroke-width:1px;"/>
            </g>
        </g>
    </g>
</svg>
