<?xml version="1.0" encoding="UTF-8" standalone="no"?>
<!DOCTYPE svg PUBLIC "-//W3C//DTD SVG 1.1//EN" "http://www.w3.org/Graphics/SVG/1.1/DTD/svg11.dtd">
<svg width="100%" height="100%" viewBox="0 0 4634 3475" version="1.1" xmlns="http://www.w3.org/2000/svg" xmlns:xlink="http://www.w3.org/1999/xlink" xml:space="preserve" xmlns:serif="http://www.serif.com/" style="fill-rule:evenodd;clip-rule:evenodd;stroke-linecap:round;stroke-linejoin:round;stroke-miterlimit:1.5;">
    <g transform="matrix(2.08333,0,0,2.08333,0,0)">
        <g id="Layer8">
            <g transform="matrix(1,0,0,1,-30.5,-11.45)">
                <rect x="1233.9" y="662.65" width="182.8" height="137.1" style="fill:rgb(227,207,148);stroke:rgb(227,207,148);stroke-width:1px;"/>
            </g>
            <g transform="matrix(1,0,0,1,-30.5,-11.45)">
                <path d="M1416.7,616.95L1416.7,479.85L1325.3,388.45L959.7,388.45L914,434.15L914,845.45L776.9,936.85L708.35,936.85L616.95,959.7L594.1,982.55L799.75,982.55L822.6,1005.4L822.6,1188.2L799.75,1211.05L525.55,1211.05L502.7,1233.9L502.7,1256.75L868.3,1256.75L1005.4,1119.65L1005.4,479.85L1051.1,434.15L1188.2,434.15L1233.9,479.85L1233.9,616.95L1416.7,616.95Z" style="fill:rgb(227,207,148);stroke:rgb(227,207,148);stroke-width:1px;"/>
            </g>
            <g transform="matrix(1,0,0,1,-30.5,171.35)">
                <rect x="1233.9" y="662.65" width="182.8" height="137.1" style="fill:rgb(227,207,148);stroke:rgb(227,207,148);stroke-width:1px;"/>
            </g>
            <g transform="matrix(1,0,0,1,-30.5,354.15)">
                <rect x="1233.9" y="662.65" width="182.8" height="137.1" style="fill:rgb(227,207,148);stroke:rgb(227,207,148);stroke-width:1px;"/>
            </g>
            <g transform="matrix(1,0,0,1,-30.5,536.95)">
                <rect x="1233.9" y="662.65" width="182.8" height="137.1" style="fill:rgb(227,207,148);stroke:rgb(227,207,148);stroke-width:1px;"/>
            </g>
            <g transform="matrix(1,0,0,1,-30.5,-11.45)">
                <path d="M1371,1485.25L1416.7,1439.55L1416.7,1393.85L1188.2,1393.85L1142.5,1439.55L1142.5,1485.25L1371,1485.25Z" style="fill:rgb(227,207,148);stroke:rgb(227,207,148);stroke-width:1px;"/>
            </g>
        </g>
        <g id="Layer15">
            <g transform="matrix(1,0,0,1,-30.5,-11.45)">
                <path d="M548.4,639.8L411.3,502.7L411.3,365.6L434.15,342.75L502.7,342.75L639.8,479.85L548.4,639.8Z" style="fill:rgb(172,49,35);stroke:rgb(172,49,35);stroke-width:1px;"/>
            </g>
            <g transform="matrix(1,0,0,1,-30.5,-11.45)">
                <path d="M548.4,365.6L411.3,228.5L411.3,114.25L457,68.55L548.4,68.55L685.5,205.65L548.4,365.6Z" style="fill:rgb(172,49,35);stroke:rgb(172,49,35);stroke-width:1px;"/>
            </g>
            <g transform="matrix(1,0,0,1,-30.5,-11.45)">
                <path d="M731.2,205.65L616.95,91.4L616.95,68.55L822.6,68.55L868.3,114.25L891.15,159.95L731.2,205.65Z" style="fill:rgb(172,49,35);stroke:rgb(172,49,35);stroke-width:1px;"/>
            </g>
            <g transform="matrix(1,0,0,1,-30.5,-11.45)">
                <path d="M936.85,68.55L919.712,91.4L936.85,159.95L1142.5,159.95L1142.5,114.25L1096.8,68.55L936.85,68.55Z" style="fill:rgb(172,49,35);stroke:rgb(172,49,35);stroke-width:1px;"/>
            </g>
            <g transform="matrix(1,0,0,1,-30.5,-11.45)">
                <path d="M1188.2,159.95L1188.2,91.4L1211.05,68.55L1325.3,68.55L1325.3,159.95L1188.2,159.95Z" style="fill:rgb(172,49,35);stroke:rgb(172,49,35);stroke-width:1px;"/>
            </g>
            <g transform="matrix(1,0,0,1,152.3,-11.45)">
                <path d="M1188.2,159.95L1188.2,91.4L1211.05,68.55L1325.3,68.55L1325.3,159.95L1188.2,159.95Z" style="fill:rgb(172,49,35);stroke:rgb(172,49,35);stroke-width:1px;"/>
            </g>
            <g transform="matrix(1,0,0,1,-30.5,-11.45)">
                <path d="M1553.8,205.65L1599.5,114.25L1645.2,68.55L1668.05,68.55L1713.75,114.25L1759.45,182.8L1645.2,297.05L1553.8,205.65Z" style="fill:rgb(172,49,35);stroke:rgb(172,49,35);stroke-width:1px;"/>
            </g>
            <g transform="matrix(1,0,0,1,-30.5,-11.45)">
                <path d="M1690.9,479.85L1782.3,479.85L1828,434.15L1828,365.6L1805.15,342.75L1713.75,342.75L1690.9,365.6L1690.9,479.85Z" style="fill:rgb(172,49,35);stroke:rgb(172,49,35);stroke-width:1px;"/>
            </g>
            <g transform="matrix(1,0,0,1,-30.5,171.35)">
                <path d="M1690.9,479.85L1759.45,479.85L1816.22,434.15L1805.15,365.6L1782.3,342.75L1713.75,342.75L1690.9,365.6L1690.9,479.85Z" style="fill:rgb(172,49,35);stroke:rgb(172,49,35);stroke-width:1px;"/>
            </g>
            <g transform="matrix(1,0,0,1,-30.5,-11.45)">
                <path d="M1690.9,708.35L1759.45,708.35L1782.3,731.2L1782.3,799.75L1690.9,799.75L1690.9,708.35Z" style="fill:rgb(172,49,35);stroke:rgb(172,49,35);stroke-width:1px;"/>
            </g>
            <g transform="matrix(1,0,0,1,-30.5,-11.45)">
                <path d="M1690.9,845.45L1736.6,845.45L1759.45,868.3L1759.45,936.85L1690.9,936.85L1690.9,845.45Z" style="fill:rgb(172,49,35);stroke:rgb(172,49,35);stroke-width:1px;"/>
            </g>
            <g transform="matrix(1,0,0,1,-30.5,-11.45)">
                <path d="M1690.9,982.55L1713.75,982.55L1736.6,1005.4L1736.6,1028.25L1690.9,1073.95L1690.9,982.55Z" style="fill:rgb(172,49,35);stroke:rgb(172,49,35);stroke-width:1px;"/>
            </g>
            <g transform="matrix(1,0,0,1,-30.5,-11.45)">
                <path d="M1828,959.7L1896.55,891.15L1919.4,891.15L1919.4,959.7L1828,1051.1L1828,959.7Z" style="fill:rgb(172,49,35);stroke:rgb(172,49,35);stroke-width:1px;"/>
            </g>
            <g transform="matrix(1,0,0,1,-30.5,-11.45)">
                <path d="M1850.85,1073.95L1896.55,1028.25L1919.4,1028.25L1919.4,1096.8L1850.85,1165.35L1850.85,1073.95Z" style="fill:rgb(172,49,35);stroke:rgb(172,49,35);stroke-width:1px;"/>
            </g>
            <g transform="matrix(1,0,0,1,-30.5,-57.15)">
                <path d="M1873.7,1233.9L1896.55,1211.05L1919.4,1211.05L1919.4,1279.6L1873.7,1325.3L1873.7,1233.9Z" style="fill:rgb(172,49,35);stroke:rgb(172,49,35);stroke-width:1px;"/>
            </g>
            <g transform="matrix(1,0,0,1,-30.5,57.1)">
                <path d="M1668.05,1393.85L1690.9,1325.3L1759.45,1279.6L1828,1325.3L1850.85,1393.85L1668.05,1393.85Z" style="fill:rgb(172,49,35);stroke:rgb(172,49,35);stroke-width:1px;"/>
            </g>
        </g>
        <g id="Layer14">
            <g transform="matrix(1,0,0,1,-30.5,-11.45)">
                <path d="M685.5,822.6L685.5,776.9L548.4,639.8L548.4,571.25L594.1,479.85L639.8,479.85L754.05,594.1L754.05,776.9L720.129,822.6L685.5,822.6Z" style="fill:rgb(225,176,15);stroke:rgb(225,176,15);stroke-width:1px;"/>
            </g>
            <g transform="matrix(1,0,0,1,-30.5,-11.45)">
                <path d="M731.2,548.4L548.4,365.6L548.4,297.05L639.8,205.65L685.5,205.65L822.6,342.75L754.05,548.4L731.2,548.4Z" style="fill:rgb(225,176,15);stroke:rgb(225,176,15);stroke-width:1px;"/>
            </g>
            <g transform="matrix(1,0,0,1,-30.5,-11.45)">
                <path d="M822.6,319.9L731.2,205.65L754.05,182.8L822.6,159.95L891.15,159.95L982.55,297.05L845.45,342.75L822.6,319.9Z" style="fill:rgb(225,176,15);stroke:rgb(225,176,15);stroke-width:1px;"/>
            </g>
            <g transform="matrix(1,0,0,1,-30.5,-11.45)">
                <path d="M1005.4,297.05L936.85,159.95L1142.5,159.95L1142.5,319.9L1005.4,297.05Z" style="fill:rgb(225,176,15);stroke:rgb(225,176,15);stroke-width:1px;"/>
            </g>
            <g transform="matrix(1,0,0,1,-30.5,-11.45)">
                <rect x="1188.2" y="159.95" width="137.1" height="159.95" style="fill:rgb(225,176,15);stroke:rgb(225,176,15);stroke-width:1px;"/>
            </g>
            <g transform="matrix(1,0,0,1,152.3,-11.45)">
                <rect x="1188.2" y="159.95" width="137.1" height="159.95" style="fill:rgb(225,176,15);stroke:rgb(225,176,15);stroke-width:1px;"/>
            </g>
            <g transform="matrix(1,0,0,1,-30.5,-11.45)">
                <path d="M1530.95,297.05L1553.8,205.65L1645.2,297.05L1599.5,365.6L1530.95,297.05Z" style="fill:rgb(225,176,15);stroke:rgb(225,176,15);stroke-width:1px;"/>
            </g>
            <g transform="matrix(1,0,0,1,-30.5,-11.45)">
                <path d="M1645.2,479.85L1690.9,479.85L1690.9,365.6L1645.2,388.45L1645.2,479.85Z" style="fill:rgb(225,176,15);stroke:rgb(225,176,15);stroke-width:1px;"/>
            </g>
            <g transform="matrix(1,0,0,1,-30.5,171.35)">
                <path d="M1645.2,479.85L1690.9,479.85L1690.9,365.6L1645.2,388.45L1645.2,479.85Z" style="fill:rgb(225,176,15);stroke:rgb(225,176,15);stroke-width:1px;"/>
            </g>
            <g transform="matrix(1,0,0,1,-30.5,308.45)">
                <rect x="1645.2" y="388.45" width="45.7" height="91.4" style="fill:rgb(225,176,15);stroke:rgb(225,176,15);stroke-width:1px;"/>
            </g>
            <g transform="matrix(1,0,0,1,-30.5,445.55)">
                <rect x="1645.2" y="388.45" width="45.7" height="91.4" style="fill:rgb(225,176,15);stroke:rgb(225,176,15);stroke-width:1px;"/>
            </g>
            <g transform="matrix(1,0,0,1,-30.5,582.65)">
                <rect x="1645.2" y="388.45" width="45.7" height="91.4" style="fill:rgb(225,176,15);stroke:rgb(225,176,15);stroke-width:1px;"/>
            </g>
            <g transform="matrix(1,0,0,1,-30.5,-11.45)">
                <path d="M1645.2,1142.5L1805.15,982.55L1828,959.7L1828,1051.1L1668.05,1211.05L1645.2,1211.05L1645.2,1142.5Z" style="fill:rgb(225,176,15);stroke:rgb(225,176,15);stroke-width:1px;"/>
            </g>
            <g transform="matrix(1,0,0,1,-30.5,-11.45)">
                <path d="M1713.75,1279.6L1713.75,1211.05L1850.85,1073.95L1850.85,1165.35L1736.6,1279.6L1713.75,1279.6Z" style="fill:rgb(225,176,15);stroke:rgb(225,176,15);stroke-width:1px;"/>
            </g>
            <g transform="matrix(1,0,0,1,-30.5,-34.3)">
                <path d="M1782.3,1371L1782.3,1302.45L1873.7,1211.05L1873.7,1302.45L1805.15,1371L1782.3,1371Z" style="fill:rgb(225,176,15);stroke:rgb(225,176,15);stroke-width:1px;"/>
            </g>
            <g transform="matrix(1,0,0,1,-30.5,-11.45)">
                <path d="M1051.1,799.75L1051.1,685.5L1119.65,708.35L1119.65,822.6L1051.1,799.75Z" style="fill:rgb(225,176,15);stroke:rgb(225,176,15);stroke-width:1px;"/>
            </g>
            <g transform="matrix(1,0,0,1,-30.5,-11.45)">
                <path d="M1165.35,845.45L1165.35,776.9L1211.05,799.75L1211.05,868.3L1165.35,845.45Z" style="fill:rgb(225,176,15);stroke:rgb(225,176,15);stroke-width:1px;"/>
            </g>
            <g transform="matrix(1,0,0,1,-30.5,-34.3)">
                <path d="M1051.1,1096.8L1096.8,1119.65L1096.8,1188.2L1119.65,1211.05L1142.5,1211.05L1165.35,1188.2L1142.5,1142.5L1188.2,1142.5L1188.2,1233.9L1165.35,1256.75L1073.95,1256.75L1051.1,1233.9L1051.1,1096.8Z" style="fill:rgb(225,176,15);stroke:rgb(225,176,15);stroke-width:1px;"/>
            </g>
        </g>
        <g id="Layer11">
            <g transform="matrix(1,0,0,1,-30.5,-11.45)">
                <path d="M548.4,845.45L594.1,799.75L708.35,799.75L731.2,776.9L731.2,388.45L776.9,342.75L868.3,297.05L1553.8,297.05L1599.5,342.75L1599.5,1348.15L1508.1,1439.55L1462.4,1439.55L1462.4,457L1439.55,434.15L1371,434.15L1325.3,388.45L959.7,388.45L914,434.15L914,731.2L708.35,936.85L616.95,959.7L594.1,982.55L548.4,845.45Z" style="fill:rgb(98,126,14);stroke:rgb(98,126,14);stroke-width:1px;"/>
            </g>
            <g transform="matrix(1,0,0,1,-30.5,-11.45)">
                <path d="M1119.65,1485.25L662.65,1485.25L639.8,1508.1L662.65,1530.95L1690.9,1530.95L1690.9,1508.1L1713.75,1485.25L1805.15,1485.25L1828,1508.1L1828,1576.65L1782.3,1622.35L457,1622.35L411.3,1576.65L411.3,1348.15L457,1302.45L1142.5,1302.45L1211.05,1233.9L1211.05,1348.15L1119.65,1439.55L1119.65,1485.25Z" style="fill:rgb(98,126,14);stroke:rgb(98,126,14);stroke-width:1px;"/>
            </g>
            <g transform="matrix(1,0,0,1,-30.5,-11.45)">
                <path d="M1051.1,914L1119.65,914L1119.65,822.6L1051.1,799.75L1051.1,914Z" style="fill:rgb(98,126,14);stroke:rgb(98,126,14);stroke-width:1px;"/>
            </g>
            <g transform="matrix(1,0,0,1,-30.5,-11.45)">
                <path d="M1165.35,914L1211.05,936.85L1211.05,868.3L1165.35,845.45L1165.35,914Z" style="fill:rgb(98,126,14);stroke:rgb(98,126,14);stroke-width:1px;"/>
            </g>
        </g>
        <g id="Layer12">
            <g transform="matrix(1,0,0,1,-30.5,-11.45)">
                <path d="M731.2,548.4L754.05,525.55L799.75,525.55L822.6,548.4L822.6,594.1L799.75,616.95L754.05,616.95L731.2,594.1L731.2,548.4Z" style="fill:rgb(54,65,0);stroke:rgb(54,65,0);stroke-width:1px;"/>
            </g>
            <g transform="matrix(1,0,0,1,60.9,-194.25)">
                <path d="M731.2,548.4L754.05,525.55L799.75,525.55L822.6,548.4L822.6,594.1L799.75,616.95L754.05,616.95L731.2,594.1" style="fill:rgb(54,65,0);stroke:rgb(54,65,0);stroke-width:1px;"/>
            </g>
            <g transform="matrix(1,0,0,1,289.4,-239.95)">
                <path d="M731.2,548.4L754.05,525.55L799.75,525.55L822.6,548.4L822.6,594.1L799.75,616.95L754.05,616.95L731.2,594.1" style="fill:rgb(54,65,0);stroke:rgb(54,65,0);stroke-width:1px;"/>
            </g>
            <g transform="matrix(1,0,0,1,517.9,-239.95)">
                <path d="M731.2,548.4L754.05,525.55L799.75,525.55L822.6,548.4L822.6,594.1L799.75,616.95L754.05,616.95L731.2,594.1" style="fill:rgb(54,65,0);stroke:rgb(54,65,0);stroke-width:1px;"/>
            </g>
            <g transform="matrix(1,0,0,1,700.7,-148.55)">
                <path d="M731.2,548.4L754.05,525.55L799.75,525.55L822.6,548.4L822.6,594.1L799.75,616.95L754.05,616.95L731.2,594.1" style="fill:rgb(54,65,0);stroke:rgb(54,65,0);stroke-width:1px;"/>
            </g>
            <g transform="matrix(1,0,0,1,746.4,79.95)">
                <path d="M731.2,548.4L754.05,525.55L799.75,525.55L822.6,548.4L822.6,594.1L799.75,616.95L754.05,616.95L731.2,594.1" style="fill:rgb(54,65,0);stroke:rgb(54,65,0);stroke-width:1px;"/>
            </g>
            <g transform="matrix(1,0,0,1,700.7,308.45)">
                <path d="M731.2,548.4L754.05,525.55L799.75,525.55L822.6,548.4L822.6,594.1L799.75,616.95L754.05,616.95L731.2,594.1" style="fill:rgb(54,65,0);stroke:rgb(54,65,0);stroke-width:1px;"/>
            </g>
            <g transform="matrix(1,0,0,1,746.4,536.95)">
                <path d="M731.2,548.4L754.05,525.55L799.75,525.55L822.6,548.4L822.6,594.1L799.75,616.95L754.05,616.95L731.2,594.1" style="fill:rgb(54,65,0);stroke:rgb(54,65,0);stroke-width:1px;"/>
            </g>
            <g transform="matrix(1,0,0,1,700.7,719.75)">
                <path d="M731.2,548.4L754.05,525.55L799.75,525.55L822.6,548.4L822.6,594.1L799.75,616.95L754.05,616.95L731.2,594.1" style="fill:rgb(54,65,0);stroke:rgb(54,65,0);stroke-width:1px;"/>
            </g>
            <g transform="matrix(1,0,0,1,243.7,765.45)">
                <path d="M731.2,548.4L754.05,525.55L799.75,525.55L822.6,548.4L822.6,594.1L799.75,616.95L754.05,616.95L731.2,594.1" style="fill:rgb(54,65,0);stroke:rgb(54,65,0);stroke-width:1px;"/>
            </g>
            <g transform="matrix(1,0,0,1,-167.6,765.45)">
                <path d="M731.2,548.4L754.05,525.55L799.75,525.55L822.6,548.4L822.6,594.1L799.75,616.95L754.05,616.95L731.2,594.1" style="fill:rgb(54,65,0);stroke:rgb(54,65,0);stroke-width:1px;"/>
            </g>
            <g transform="matrix(1,0,0,1,60.9,856.85)">
                <path d="M731.2,548.4L754.05,525.55L799.75,525.55L822.6,548.4L822.6,594.1L799.75,616.95L754.05,616.95L731.2,594.1" style="fill:rgb(54,65,0);stroke:rgb(54,65,0);stroke-width:1px;"/>
            </g>
            <g transform="matrix(1,0,0,1,-121.9,993.95)">
                <path d="M731.2,548.4L754.05,525.55L799.75,525.55L822.6,548.4L822.6,594.1L799.75,616.95L754.05,616.95L731.2,594.1" style="fill:rgb(54,65,0);stroke:rgb(54,65,0);stroke-width:1px;"/>
            </g>
            <g transform="matrix(1,0,0,1,152.3,993.95)">
                <path d="M731.2,548.4L754.05,525.55L799.75,525.55L822.6,548.4L822.6,594.1L799.75,616.95L754.05,616.95L731.2,594.1" style="fill:rgb(54,65,0);stroke:rgb(54,65,0);stroke-width:1px;"/>
            </g>
            <g transform="matrix(1,0,0,1,426.5,993.95)">
                <path d="M731.2,548.4L754.05,525.55L799.75,525.55L822.6,548.4L822.6,594.1L799.75,616.95L754.05,616.95L731.2,594.1" style="fill:rgb(54,65,0);stroke:rgb(54,65,0);stroke-width:1px;"/>
            </g>
            <g transform="matrix(1,0,0,1,700.7,993.95)">
                <path d="M731.2,548.4L754.05,525.55L799.75,525.55L822.6,548.4L822.6,594.1L799.75,616.95L754.05,616.95L731.2,594.1" style="fill:rgb(54,65,0);stroke:rgb(54,65,0);stroke-width:1px;"/>
            </g>
            <g transform="matrix(1,0,0,1,-30.5,-11.45)">
                <path d="M548.4,845.45L594.1,936.85L616.95,959.7L594.1,982.55L457,982.55L411.3,936.85L365.6,936.85L365.6,891.15L411.3,845.45L548.4,845.45Z" style="fill:rgb(54,65,0);stroke:rgb(54,65,0);stroke-width:1px;"/>
            </g>
            <g transform="matrix(1,0,0,1,-304.7,902.55)">
                <path d="M731.2,548.4L754.05,525.55L799.75,525.55L822.6,548.4L822.6,594.1L799.75,616.95L754.05,616.95L731.2,594.1" style="fill:rgb(54,65,0);stroke:rgb(54,65,0);stroke-width:1px;"/>
            </g>
            <g transform="matrix(1,0,0,1,-30.5,-11.45)">
                <path d="M1668.05,1530.95L1645.2,1508.1L1668.05,1462.4L1759.45,1393.85L1850.85,1462.4L1873.7,1508.1L1850.85,1530.95L1828,1530.95L1828,1508.1L1805.15,1485.25L1713.75,1485.25L1690.9,1508.1L1690.9,1530.95L1668.05,1530.95Z" style="fill:rgb(54,65,0);stroke:rgb(54,65,0);stroke-width:1px;"/>
            </g>
            <g transform="matrix(1,0,0,1,-30.5,-11.45)">
                <path d="M708.35,936.85L914,731.2L914,845.45L845.45,845.45L776.9,914L776.9,936.85L708.35,936.85Z" style="fill:rgb(54,65,0);stroke:rgb(54,65,0);stroke-width:1px;"/>
            </g>
            <g transform="matrix(1,0,0,1,-30.5,-11.45)">
                <path d="M1211.05,982.55L1119.65,936.85L1051.1,936.85L1051.1,1051.1L1142.5,1073.95L1211.05,1073.95L1211.05,982.55Z" style="fill:rgb(54,65,0);stroke:rgb(54,65,0);stroke-width:1px;"/>
            </g>
        </g>
        <g id="Layer13">
            <g transform="matrix(1,0,0,1,-30.5,-11.45)">
                <path d="M776.9,914L845.45,845.45L959.7,845.45L1005.4,891.15L1005.4,1028.25L959.7,1073.95L891.15,1073.95L868.3,1051.1L868.3,959.7L868.3,936.85L891.15,1005.4L914,1028.25L936.85,1028.25L959.7,1005.4L959.7,914L936.85,891.15L868.3,891.15L822.6,936.85L776.9,936.85L776.9,914Z" style="fill:rgb(225,176,15);stroke:rgb(225,176,15);stroke-width:1px;"/>
            </g>
            <g transform="matrix(1,0,0,1,-30.5,-11.45)">
                <path d="M365.6,936.85L365.6,1165.35L411.3,1211.05L479.85,1211.05L434.15,1188.2L411.3,1142.5L434.15,1028.25L457,982.55L411.3,936.85L365.6,936.85Z" style="fill:rgb(225,176,15);stroke:rgb(225,176,15);stroke-width:1px;"/>
            </g>
            <g transform="matrix(1,0,0,1,-30.5,-11.45)">
                <path d="M502.7,982.55L502.7,1119.65L548.4,1165.35L639.8,1165.35L594.1,1142.5L548.4,1096.8L571.25,1028.25L594.1,982.55" style="fill:rgb(225,176,15);stroke:rgb(225,176,15);stroke-width:1px;"/>
            </g>
            <g transform="matrix(1,0,0,-1,152.3,2182.15)">
                <path d="M502.7,982.55L502.7,1096.8L548.4,1142.5L594.1,1142.5L571.25,1119.65L548.4,1073.95L548.4,1028.25L571.25,982.55" style="fill:rgb(225,176,15);stroke:rgb(225,176,15);stroke-width:1px;"/>
            </g>
        </g>
        <g transform="matrix(1,0,0,1,-30.5,11.4)">
            <g id="Layer9">
                <path d="M708.35,914L776.9,845.45L776.9,822.6L754.05,799.75L685.5,799.75L616.95,845.45L594.1,914L616.95,936.85L708.35,914Z" style="fill:rgb(172,49,35);stroke:rgb(172,49,35);stroke-width:1px;"/>
            </g>
        </g>
        <g transform="matrix(1,0,0,1,-30.5,11.4)">
            <g id="Layer10">
                <path d="M662.65,914L639.8,868.3L662.65,822.6L685.5,868.3L662.65,914Z" style="fill:rgb(243,157,65);stroke:rgb(243,157,65);stroke-width:1px;"/>
            </g>
        </g>
    </g>
</svg>
