<?xml version="1.0" encoding="UTF-8" standalone="no"?>
<!DOCTYPE svg PUBLIC "-//W3C//DTD SVG 1.1//EN" "http://www.w3.org/Graphics/SVG/1.1/DTD/svg11.dtd">
<svg width="100%" height="100%" viewBox="0 0 4634 3475" version="1.1" xmlns="http://www.w3.org/2000/svg" xmlns:xlink="http://www.w3.org/1999/xlink" xml:space="preserve" xmlns:serif="http://www.serif.com/" style="fill-rule:evenodd;clip-rule:evenodd;stroke-linecap:round;stroke-linejoin:round;stroke-miterlimit:1.5;">
    <g transform="matrix(2.08333,0,0,2.08333,0,0)">
        <g id="Layer17">
            <g transform="matrix(1,0,0,1,-30.5,34.25)">
                <path d="M731.2,1142.5L731.2,1073.95L754.05,1119.65L754.05,1142.5L731.2,1142.5Z" style="fill:rgb(207,226,206);stroke:rgb(207,226,206);stroke-width:1px;"/>
            </g>
            <g transform="matrix(-1,0,0,1,2254.5,34.25)">
                <path d="M731.2,1142.5L731.2,1073.95L754.05,1119.65L754.05,1142.5L731.2,1142.5Z" style="fill:rgb(207,226,206);stroke:rgb(207,226,206);stroke-width:1px;"/>
            </g>
            <g transform="matrix(1,0,0,1,-30.5,34.25)">
                <path d="M914,1051.1L914,936.85L1005.4,1028.25L1005.4,1051.1L914,1051.1Z" style="fill:rgb(207,226,206);stroke:rgb(207,226,206);stroke-width:1px;"/>
            </g>
            <g transform="matrix(-1,0,0,1,2254.5,34.25)">
                <path d="M914,1051.1L914,936.85L1005.4,1028.25L1005.4,1051.1L914,1051.1Z" style="fill:rgb(207,226,206);stroke:rgb(207,226,206);stroke-width:1px;"/>
            </g>
        </g>
        <g transform="matrix(1,0,0,1,-30.5,34.25)">
            <g id="Layer15">
                <path d="M731.2,1119.65L754.05,1119.65L776.9,1165.35L799.75,1165.35L822.6,1256.75L845.45,1256.75L868.3,1302.45L891.15,1302.45L936.85,1348.15L959.7,1348.15L914,1302.45L914,1028.25L1005.4,1028.25L1028.25,1119.65L1051.1,1119.65L1073.95,1211.05L1096.8,1211.05L1119.65,1348.15L1165.35,1348.15L1188.2,1211.05L1211.05,1211.05L1233.9,1119.65L1256.75,1119.65L1279.6,1028.25L1371,1028.25L1371,1302.45L1325.3,1348.15L1348.15,1348.15L1393.85,1302.45L1416.7,1302.45L1439.55,1256.75L1462.4,1256.75L1485.25,1165.35L1508.1,1165.35L1530.95,1119.65L1553.8,1119.65L1553.8,1393.85L1142.5,1393.85L731.2,1393.85L731.2,1119.65Z" style="fill:rgb(193,207,175);stroke:rgb(193,207,175);stroke-width:1px;"/>
            </g>
        </g>
        <g id="Layer16">
            <g transform="matrix(1,0,0,1,-30.5,34.25)">
                <path d="M685.5,1348.15L731.2,1302.45L776.9,1302.45L822.6,1348.15L822.6,1393.85L685.5,1393.85L685.5,1348.15Z" style="fill:rgb(159,191,160);stroke:rgb(159,191,160);stroke-width:1px;"/>
            </g>
            <g transform="matrix(-1,0,0,1,2254.5,34.25)">
                <path d="M685.5,1348.15L731.2,1302.45L776.9,1302.45L822.6,1348.15L822.6,1393.85L685.5,1393.85L685.5,1348.15Z" style="fill:rgb(159,191,160);stroke:rgb(159,191,160);stroke-width:1px;"/>
            </g>
            <g transform="matrix(1,0,0,1,198,34.25)">
                <path d="M685.5,1348.15L731.2,1302.45L776.9,1302.45L822.6,1348.15L822.6,1393.85L685.5,1393.85L685.5,1348.15Z" style="fill:rgb(159,191,160);stroke:rgb(159,191,160);stroke-width:1px;"/>
            </g>
            <g transform="matrix(-1,0,0,1,2026,34.25)">
                <path d="M685.5,1348.15L731.2,1302.45L776.9,1302.45L822.6,1348.15L822.6,1393.85L685.5,1393.85L685.5,1348.15Z" style="fill:rgb(159,191,160);stroke:rgb(159,191,160);stroke-width:1px;"/>
            </g>
        </g>
        <g id="Layer8">
            <g transform="matrix(1,0,0,1,-30.5,34.25)">
                <rect x="365.6" y="274.2" width="571.25" height="137.1" style="fill:rgb(43,33,125);stroke:rgb(43,33,125);stroke-width:1px;"/>
            </g>
            <g transform="matrix(-1,0,0,1,2254.5,34.25)">
                <rect x="365.6" y="274.2" width="571.25" height="137.1" style="fill:rgb(43,33,125);stroke:rgb(43,33,125);stroke-width:1px;"/>
            </g>
        </g>
        <g id="Layer13">
            <g transform="matrix(1,0,0,1,-30.5,34.25)">
                <path d="M1005.4,251.35L959.7,297.05L959.7,342.75L982.55,388.45L982.55,434.15L959.7,479.85L959.7,754.05L868.3,845.45L548.4,845.45L502.7,891.15L502.7,1393.85L548.4,1439.55L1005.4,1439.55L1096.8,1530.95L1096.8,1576.65L457,1576.65L365.6,1485.25L365.6,799.75L457,708.35L776.9,708.35L822.6,662.65L822.6,548.4L799.75,525.55L639.8,525.55L411.3,479.85L365.6,434.15L365.6,388.45L411.3,388.45L428.516,372.559L417.023,358.035L411.507,327.368L430.452,340.71L437.27,356.997L453.981,361.087L446.163,379.529L457,388.45L502.7,388.45L520.099,360.348L506.486,346.787L520.961,312.017L502.7,297.05L473.402,302.842L460.49,283.578L424.94,277.808L399.038,305.609L365.6,297.05L365.6,182.8L388.45,159.95L594.1,114.25L891.15,114.25L914,68.55L959.7,22.85L982.55,22.85L1005.4,45.7L1005.4,251.35ZM868.3,388.45L880.353,375.219L883.36,349.847L902.129,359.018L914,342.75L906.776,329.092L918.746,313.77L914,297.05L882.832,307.247L860.52,293.997L822.6,297.05L826.501,307.479L820.494,320.018L810.582,327.747L793.843,329.71L799.854,338.595L809.75,337.962L809.249,349.006L808.264,369.426L819.072,369.77L822.6,388.45L868.3,388.45ZM690.212,281.868L665.217,301.599L634.859,300.914L605.673,291.641L582.73,307.093L549.138,305.753L552.69,324.147L534.552,348.777L534.728,371.591L548.988,375.75L548.4,388.45L603.912,383.634L613.622,403.432L660.281,410.751L703.148,401.365L724.914,397.533L743.476,401.132L776.9,388.45L772.924,383.228L781.973,370.979L778.152,354.929L767.615,347.741L777.682,342.328L785.826,317.902L776.9,297.05L756.608,303.912L729.69,287.417L740.369,321.402L731.2,342.75L714.061,335.051L695.542,345.224L681.669,327.815L690.212,281.868Z" style="fill:rgb(207,226,206);stroke:rgb(207,226,206);stroke-width:1px;"/>
            </g>
            <g transform="matrix(-1,0,0,1,2254.5,34.25)">
                <path d="M1005.4,251.35L959.7,297.05L959.7,342.75L982.55,388.45L982.55,434.15L959.7,479.85L959.7,754.05L868.3,845.45L548.4,845.45L502.7,891.15L502.7,1393.85L548.4,1439.55L1005.4,1439.55L1096.8,1530.95L1096.8,1576.65L457,1576.65L365.6,1485.25L365.6,799.75L457,708.35L776.9,708.35L822.6,662.65L822.6,548.4L799.75,525.55L639.8,525.55L411.3,479.85L365.6,434.15L365.6,388.45L381.213,380.269L409.7,385.997L428.729,376.612L412.116,358.781L415.347,340.595L432.266,333.137L428.523,348.25L440.735,360.542L459.848,358.741L448.616,379.422L462.653,389.517L505.224,386.046L500.534,379.589L515.821,372.621L517.266,360.566L508.012,337.091L521.3,339.191L520.961,312.017L514.202,302.466L502.386,308.67L492.204,302.959L472.731,295.793L470.727,282.907L426.292,276.535L419.17,290.854L399.733,294.739L391.729,305.299L377.965,304.924L365.6,297.05L365.6,182.8L388.45,159.95L594.1,114.25L891.15,114.25L914,68.55L959.7,22.85L982.55,22.85L1005.4,45.7L1005.4,251.35ZM865.797,376.835L884.188,381.484L889.241,366.085L898.038,354.288L906.584,340.832L915.726,332.8L911.714,315.687L903.26,307.023L882.193,299.448L862.565,303.97L833.979,303.315L820.748,303.643L824.201,315.926L809.559,320.97L800.883,330.561L793.742,334.186L803.174,343.146L813.659,350.244L805.107,360.619L814.336,374.838L828.06,382.397L848.883,386.901L865.797,376.835ZM696.131,291.842L668.724,290.31L662.834,302.488L635.118,294.171L612.935,305.821L582.73,307.093L554.068,315.435L539.787,321.71L531.661,333.711L531.684,372.961L541.531,369.511L567.118,390.276L599.057,390.055L613.622,403.432L642.485,397.187L673.562,411.043L698.757,393.559L731.37,400.817L738.606,385.843L769.307,389.101L772.165,372.707L787.288,370.762L775.705,355.388L781.153,349.118L774.316,341.946L771.495,327.202L778.426,317.275L776.9,297.05L756.608,303.912L741.355,303.411L735.679,328.257L717.852,328.079L712.137,342.507L692.415,338.249L686.84,315.548L696.131,291.842Z" style="fill:rgb(207,226,206);stroke:rgb(207,226,206);stroke-width:1px;"/>
            </g>
            <g transform="matrix(1,0,0,1,-30.5,34.25)">
                <path d="M1005.4,548.4L1005.4,479.85L1028.25,479.85L1051.1,502.7L1051.1,525.55L1073.95,525.55L1096.8,548.4L1096.8,571.25L1028.25,571.25L1005.4,548.4Z" style="fill:rgb(207,226,206);stroke:rgb(207,226,206);stroke-width:1px;"/>
            </g>
            <g transform="matrix(-1,0,0,1,2254.5,34.25)">
                <path d="M1005.4,548.4L1005.4,479.85L1028.25,479.85L1051.1,502.7L1051.1,525.55L1073.95,525.55L1096.8,548.4L1096.8,571.25L1028.25,571.25L1005.4,548.4Z" style="fill:rgb(207,226,206);stroke:rgb(207,226,206);stroke-width:1px;"/>
            </g>
            <g transform="matrix(1,0,0,1,-30.5,308.45)">
                <path d="M1005.4,548.4L1005.4,479.85L1028.25,479.85L1051.1,502.7L1051.1,525.55L1073.95,525.55L1096.8,548.4L1096.8,571.25L1028.25,571.25L1005.4,548.4Z" style="fill:rgb(207,226,206);stroke:rgb(207,226,206);stroke-width:1px;"/>
            </g>
            <g transform="matrix(-1,0,0,1,2254.5,308.45)">
                <path d="M1005.4,548.4L1005.4,479.85L1028.25,479.85L1051.1,502.7L1051.1,525.55L1073.95,525.55L1096.8,548.4L1096.8,571.25L1028.25,571.25L1005.4,548.4Z" style="fill:rgb(207,226,206);stroke:rgb(207,226,206);stroke-width:1px;"/>
            </g>
            <g transform="matrix(1,0,0,1,-487.5,491.25)">
                <path d="M1005.4,548.4L1005.4,479.85L1028.25,479.85L1051.1,502.7L1051.1,525.55L1073.95,525.55L1096.8,548.4L1096.8,571.25L1028.25,571.25L1005.4,548.4Z" style="fill:rgb(207,226,206);stroke:rgb(207,226,206);stroke-width:1px;"/>
            </g>
            <g transform="matrix(-1,0,0,1,2711.5,491.25)">
                <path d="M1005.4,548.4L1005.4,479.85L1028.25,479.85L1051.1,502.7L1051.1,525.55L1073.95,525.55L1096.8,548.4L1096.8,571.25L1028.25,571.25L1005.4,548.4Z" style="fill:rgb(207,226,206);stroke:rgb(207,226,206);stroke-width:1px;"/>
            </g>
            <g transform="matrix(1,0,0,1,-487.5,719.75)">
                <path d="M1005.4,548.4L1005.4,479.85L1028.25,479.85L1051.1,502.7L1051.1,525.55L1073.95,525.55L1096.8,548.4L1096.8,571.25L1028.25,571.25L1005.4,548.4Z" style="fill:rgb(207,226,206);stroke:rgb(207,226,206);stroke-width:1px;"/>
            </g>
            <g transform="matrix(-1,0,0,1,2711.5,719.75)">
                <path d="M1005.4,548.4L1005.4,479.85L1028.25,479.85L1051.1,502.7L1051.1,525.55L1073.95,525.55L1096.8,548.4L1096.8,571.25L1028.25,571.25L1005.4,548.4Z" style="fill:rgb(207,226,206);stroke:rgb(207,226,206);stroke-width:1px;"/>
            </g>
        </g>
        <g id="Layer14">
            <g transform="matrix(1,0,0,1,-30.5,34.25)">
                <path d="M365.6,182.8L365.6,137.1L388.45,114.25L411.3,114.25L434.15,149.282L388.45,159.95L365.6,182.8Z" style="fill:rgb(41,34,25);stroke:rgb(41,34,25);stroke-width:1px;"/>
            </g>
            <g transform="matrix(-1,0,0,1,2254.5,34.25)">
                <path d="M365.6,182.8L365.6,137.1L388.45,114.25L411.3,114.25L434.15,149.282L388.45,159.95L365.6,182.8Z" style="fill:rgb(41,34,25);stroke:rgb(41,34,25);stroke-width:1px;"/>
            </g>
            <g transform="matrix(1,0,0,1,-30.5,34.25)">
                <path d="M685.5,228.5L685.5,182.8L708.35,159.95L822.6,159.95L822.6,205.65L776.9,251.35L708.35,251.35L685.5,228.5Z" style="fill:rgb(41,34,25);stroke:rgb(41,34,25);stroke-width:1px;"/>
            </g>
            <g transform="matrix(-1,0,0,1,2254.5,34.25)">
                <path d="M685.5,228.5L685.5,182.8L708.35,159.95L822.6,159.95L822.6,205.65L776.9,251.35L708.35,251.35L685.5,228.5Z" style="fill:rgb(41,34,25);stroke:rgb(41,34,25);stroke-width:1px;"/>
            </g>
        </g>
        <g id="Layer12">
            <g transform="matrix(6.12323e-17,1,-1,6.12323e-17,1409.05,102.8)">
                <path d="M708.35,708.35L731.2,731.2L731.2,754.05L685.5,754.05L685.5,708.35L708.35,708.35Z" style="fill:rgb(152,165,151);stroke:rgb(152,165,151);stroke-width:1px;"/>
            </g>
            <g transform="matrix(-6.12323e-17,1,1,6.12323e-17,814.95,102.8)">
                <path d="M708.35,708.35L731.2,731.2L731.2,754.05L685.5,754.05L685.5,708.35L708.35,708.35Z" style="fill:rgb(152,165,151);stroke:rgb(152,165,151);stroke-width:1px;"/>
            </g>
            <g transform="matrix(1,0,0,1,-259,79.95)">
                <path d="M708.35,708.35L731.2,731.2L731.2,754.05L685.5,754.05L685.5,708.35L708.35,708.35Z" style="fill:rgb(152,165,151);stroke:rgb(152,165,151);stroke-width:1px;"/>
            </g>
            <g transform="matrix(-1,0,0,1,2483,79.95)">
                <path d="M708.35,708.35L731.2,731.2L731.2,754.05L685.5,754.05L685.5,708.35L708.35,708.35Z" style="fill:rgb(152,165,151);stroke:rgb(152,165,151);stroke-width:1px;"/>
            </g>
            <g transform="matrix(1,0,0,1,-304.7,262.75)">
                <path d="M708.35,708.35L731.2,731.2L731.2,754.05L685.5,754.05L685.5,708.35L708.35,708.35Z" style="fill:rgb(152,165,151);stroke:rgb(152,165,151);stroke-width:1px;"/>
            </g>
            <g transform="matrix(-1,0,0,1,2528.7,262.75)">
                <path d="M708.35,708.35L731.2,731.2L731.2,754.05L685.5,754.05L685.5,708.35L708.35,708.35Z" style="fill:rgb(152,165,151);stroke:rgb(152,165,151);stroke-width:1px;"/>
            </g>
            <g transform="matrix(1,0,0,1,-304.7,445.55)">
                <path d="M708.35,708.35L731.2,731.2L731.2,754.05L685.5,754.05L685.5,708.35L708.35,708.35Z" style="fill:rgb(152,165,151);stroke:rgb(152,165,151);stroke-width:1px;"/>
            </g>
            <g transform="matrix(-1,0,0,1,2528.7,445.55)">
                <path d="M708.35,708.35L731.2,731.2L731.2,754.05L685.5,754.05L685.5,708.35L708.35,708.35Z" style="fill:rgb(152,165,151);stroke:rgb(152,165,151);stroke-width:1px;"/>
            </g>
            <g transform="matrix(1,0,0,1,-304.7,628.35)">
                <path d="M708.35,708.35L731.2,731.2L731.2,754.05L685.5,754.05L685.5,708.35L708.35,708.35Z" style="fill:rgb(152,165,151);stroke:rgb(152,165,151);stroke-width:1px;"/>
            </g>
            <g transform="matrix(-1,0,0,1,2528.7,628.35)">
                <path d="M708.35,708.35L731.2,731.2L731.2,754.05L685.5,754.05L685.5,708.35L708.35,708.35Z" style="fill:rgb(152,165,151);stroke:rgb(152,165,151);stroke-width:1px;"/>
            </g>
            <g transform="matrix(-1.83697e-16,-1,1,-1.83697e-16,-190.45,2250.7)">
                <path d="M708.35,708.35L731.2,731.2L731.2,754.05L685.5,754.05L685.5,708.35L708.35,708.35Z" style="fill:rgb(152,165,151);stroke:rgb(152,165,151);stroke-width:1px;"/>
            </g>
            <g transform="matrix(1.83697e-16,-1,-1,-1.83697e-16,2414.45,2250.7)">
                <path d="M708.35,708.35L731.2,731.2L731.2,754.05L685.5,754.05L685.5,708.35L708.35,708.35Z" style="fill:rgb(152,165,151);stroke:rgb(152,165,151);stroke-width:1px;"/>
            </g>
            <g transform="matrix(-1.83697e-16,-1,1,-1.83697e-16,38.05,2250.7)">
                <path d="M708.35,708.35L731.2,731.2L731.2,754.05L685.5,754.05L685.5,708.35L708.35,708.35Z" style="fill:rgb(152,165,151);stroke:rgb(152,165,151);stroke-width:1px;"/>
            </g>
            <g transform="matrix(1.83697e-16,-1,-1,-1.83697e-16,2185.95,2250.7)">
                <path d="M708.35,708.35L731.2,731.2L731.2,754.05L685.5,754.05L685.5,708.35L708.35,708.35Z" style="fill:rgb(152,165,151);stroke:rgb(152,165,151);stroke-width:1px;"/>
            </g>
            <g transform="matrix(6.12323e-17,1,-1,6.12323e-17,1591.85,57.1)">
                <path d="M708.35,708.35L731.2,731.2L731.2,754.05L685.5,754.05L685.5,708.35L708.35,708.35Z" style="fill:rgb(152,165,151);stroke:rgb(152,165,151);stroke-width:1px;"/>
            </g>
            <g transform="matrix(-6.12323e-17,1,1,6.12323e-17,632.15,57.1)">
                <path d="M708.35,708.35L731.2,731.2L731.2,754.05L685.5,754.05L685.5,708.35L708.35,708.35Z" style="fill:rgb(152,165,151);stroke:rgb(152,165,151);stroke-width:1px;"/>
            </g>
            <g transform="matrix(1,0,0,1,-30.5,34.25)">
                <path d="M738.625,834L755.374,814.457L753.63,795.96L785.001,795.077L764.055,826.545L738.625,834Z" style="fill:rgb(152,165,151);stroke:rgb(152,165,151);stroke-width:1px;"/>
            </g>
            <g transform="matrix(-1,0,0,1,2402.66,34.25)">
                <path d="M753.361,819.397L756.968,792.951L744.603,778.967L771.062,768.261L764.521,809.169L778.127,819.111L753.361,819.397Z" style="fill:rgb(152,165,151);stroke:rgb(152,165,151);stroke-width:1px;"/>
            </g>
            <g transform="matrix(1,0,0,1,-68.5767,33.1996)">
                <path d="M920.74,791.519L921.451,776.28L945.01,762.482L931.361,785.163L933.051,806.314L920.74,791.519Z" style="fill:rgb(152,165,151);stroke:rgb(152,165,151);stroke-width:1px;"/>
            </g>
            <g transform="matrix(-1,0,0,1,2379.04,28.3112)">
                <path d="M930.147,782.112L930.579,769.667L953.858,786.512L940.351,789.072L929.046,801.75L930.147,782.112Z" style="fill:rgb(152,165,151);stroke:rgb(152,165,151);stroke-width:1px;"/>
            </g>
            <g transform="matrix(1,0,0,1,-30.5,34.25)">
                <path d="M413.34,1079.61L418.676,1050.72L441.604,1061.87L470.422,1087.11L448.392,1101.45L431.67,1070.75L413.34,1079.61Z" style="fill:rgb(152,165,151);stroke:rgb(152,165,151);stroke-width:1px;"/>
            </g>
            <g transform="matrix(-1,0,0,1,2272.84,-153.546)">
                <path d="M394.137,1043.68L403.984,1021.8L432.585,1021.8L470.422,1087.11L454.551,1085.5L442.297,1109.74L445.462,1073.9L423.96,1034.53L394.137,1043.68Z" style="fill:rgb(152,165,151);stroke:rgb(152,165,151);stroke-width:1px;"/>
            </g>
            <g transform="matrix(1,0,0,1,-30.5,34.25)">
                <path d="M467.594,1279.88L451.942,1275.11L440.334,1262.62L461.807,1235.87L451.779,1264.41L467.594,1279.88Z" style="fill:rgb(152,165,151);stroke:rgb(152,165,151);stroke-width:1px;"/>
            </g>
            <g transform="matrix(-1,0,0,1,2229.14,-76.4726)">
                <path d="M446.057,1260.04L451.942,1275.11L439.651,1265.81L433.194,1246.12L450.543,1223.97L462.483,1246.37L448.447,1251.4L461.157,1260.31L446.057,1260.04Z" style="fill:rgb(152,165,151);stroke:rgb(152,165,151);stroke-width:1px;"/>
            </g>
            <g transform="matrix(1,0,0,1,-30.5,34.25)">
                <path d="M432.861,1471.94L488.763,1441.74L496.595,1500.23L495.076,1507.98L508.499,1507.74L527.545,1516.79L495.686,1516.92L486.966,1510.03L488.819,1480.92L480.194,1456.43L432.861,1471.94Z" style="fill:rgb(152,165,151);stroke:rgb(152,165,151);stroke-width:1px;"/>
            </g>
            <g transform="matrix(-1,0,0,1,2297.56,3.54829)">
                <path d="M473.157,1455.66L504.407,1460.23L496.595,1500.23L503.181,1515.43L508.499,1507.74L521.311,1530.15L501.475,1523.3L486.966,1510.03L476.177,1483.29L459.335,1482.35L473.157,1455.66Z" style="fill:rgb(152,165,151);stroke:rgb(152,165,151);stroke-width:1px;"/>
            </g>
            <g transform="matrix(1,0,0,1,-30.5,34.25)">
                <path d="M672.25,1503.85L690.366,1476.5L731.947,1448.19L717.586,1479.2L723.303,1487.93L697.648,1495.92L672.25,1503.85Z" style="fill:rgb(152,165,151);stroke:rgb(152,165,151);stroke-width:1px;"/>
            </g>
            <g transform="matrix(-1,0,0,1,2223.66,98.8404)">
                <path d="M672.25,1503.85L690.366,1476.5L731.947,1448.19L717.586,1479.2L730.736,1491.73L697.648,1495.92L672.25,1503.85Z" style="fill:rgb(152,165,151);stroke:rgb(152,165,151);stroke-width:1px;"/>
            </g>
            <g transform="matrix(1,0,0,1,-30.5,34.25)">
                <path d="M961.915,1501.08L972.222,1534.96L996.941,1532.58L961.915,1501.08Z" style="fill:rgb(152,165,151);stroke:rgb(152,165,151);stroke-width:1px;"/>
            </g>
            <g transform="matrix(-1,0,0,1,2313.46,13.8677)">
                <path d="M961.915,1501.08L982.317,1522.88L975.021,1531.98L984.112,1550.9L972.444,1570.48L993.84,1559.3L996.941,1532.58L991.808,1510.3L961.915,1501.08Z" style="fill:rgb(152,165,151);stroke:rgb(152,165,151);stroke-width:1px;"/>
            </g>
            <g transform="matrix(1,0,0,1,-30.5,34.25)">
                <path d="M1396.7,259.258L1411.02,213.829L1438.57,252.684L1413.53,282.829L1396.7,259.258Z" style="fill:rgb(152,165,151);stroke:rgb(152,165,151);stroke-width:1px;"/>
            </g>
            <g transform="matrix(1,0,0,1,-30.5,34.25)">
                <path d="M1511.52,476.896L1493.54,477.905L1505.95,436.279L1529.51,458.784L1526.65,483.816L1511.52,476.896Z" style="fill:rgb(152,165,151);stroke:rgb(152,165,151);stroke-width:1px;"/>
            </g>
            <g transform="matrix(1,0,0,1,-30.5,34.25)">
                <path d="M1772.56,250.853L1809.54,232.007L1802.33,190.537L1831.28,222.204L1874.45,220.496L1823,244.626L1813.44,266.258L1791.4,258.145L1746.32,289.902L1772.56,250.853Z" style="fill:rgb(152,165,151);stroke:rgb(152,165,151);stroke-width:1px;"/>
            </g>
            <g transform="matrix(1,0,0,1,-30.5,34.25)">
                <path d="M889.352,204.086L938.185,122.455L944.119,159.379L973.154,175.063L925.493,178.651L889.352,204.086Z" style="fill:rgb(152,165,151);stroke:rgb(152,165,151);stroke-width:1px;"/>
            </g>
            <g transform="matrix(1,0,0,1,-30.5,34.25)">
                <path d="M847.497,446.915L895.981,398.937L899.516,451.461L932.849,410.552L946.485,451.966L872.244,495.399L839.922,490.853L856.367,466.841L847.497,446.915Z" style="fill:rgb(152,165,151);stroke:rgb(152,165,151);stroke-width:1px;"/>
            </g>
            <g transform="matrix(1,0,0,1,-30.5,34.25)">
                <path d="M416.416,419.676L424.399,403.815L438.84,399.89L441.141,416.767L460.604,434.845L429.198,416.707L416.416,419.676Z" style="fill:rgb(152,165,151);stroke:rgb(152,165,151);stroke-width:1px;"/>
            </g>
        </g>
        <g id="Layer11">
            <g transform="matrix(6.12323e-17,1,-1,6.12323e-17,1409.05,102.8)">
                <path d="M662.65,708.35L639.8,731.2L639.8,754.05L685.5,754.05L685.5,708.35L662.65,708.35Z" style="fill:rgb(133,170,164);stroke:rgb(133,170,164);stroke-width:1px;"/>
            </g>
            <g transform="matrix(-6.12323e-17,1,1,6.12323e-17,814.95,102.8)">
                <path d="M662.65,708.35L639.8,731.2L639.8,754.05L685.5,754.05L685.5,708.35L662.65,708.35Z" style="fill:rgb(133,170,164);stroke:rgb(133,170,164);stroke-width:1px;"/>
            </g>
            <g transform="matrix(1,0,0,1,-259,79.95)">
                <path d="M662.65,708.35L639.8,731.2L639.8,754.05L685.5,754.05L685.5,708.35L662.65,708.35Z" style="fill:rgb(133,170,164);stroke:rgb(133,170,164);stroke-width:1px;"/>
            </g>
            <g transform="matrix(-1,0,0,1,2483,79.95)">
                <path d="M662.65,708.35L639.8,731.2L639.8,754.05L685.5,754.05L685.5,708.35L662.65,708.35Z" style="fill:rgb(133,170,164);stroke:rgb(133,170,164);stroke-width:1px;"/>
            </g>
            <g transform="matrix(1,0,0,1,-304.7,262.75)">
                <path d="M662.65,708.35L639.8,731.2L639.8,754.05L685.5,754.05L685.5,708.35L662.65,708.35Z" style="fill:rgb(133,170,164);stroke:rgb(133,170,164);stroke-width:1px;"/>
            </g>
            <g transform="matrix(-1,0,0,1,2528.7,262.75)">
                <path d="M662.65,708.35L639.8,731.2L639.8,754.05L685.5,754.05L685.5,708.35L662.65,708.35Z" style="fill:rgb(133,170,164);stroke:rgb(133,170,164);stroke-width:1px;"/>
            </g>
            <g transform="matrix(1,0,0,1,-304.7,445.55)">
                <path d="M662.65,708.35L639.8,731.2L639.8,754.05L685.5,754.05L685.5,708.35L662.65,708.35Z" style="fill:rgb(133,170,164);stroke:rgb(133,170,164);stroke-width:1px;"/>
            </g>
            <g transform="matrix(-1,0,0,1,2528.7,445.55)">
                <path d="M662.65,708.35L639.8,731.2L639.8,754.05L685.5,754.05L685.5,708.35L662.65,708.35Z" style="fill:rgb(133,170,164);stroke:rgb(133,170,164);stroke-width:1px;"/>
            </g>
            <g transform="matrix(1,0,0,1,-304.7,628.35)">
                <path d="M662.65,708.35L639.8,731.2L639.8,754.05L685.5,754.05L685.5,708.35L662.65,708.35Z" style="fill:rgb(133,170,164);stroke:rgb(133,170,164);stroke-width:1px;"/>
            </g>
            <g transform="matrix(-1,0,0,1,2528.7,628.35)">
                <path d="M662.65,708.35L639.8,731.2L639.8,754.05L685.5,754.05L685.5,708.35L662.65,708.35Z" style="fill:rgb(133,170,164);stroke:rgb(133,170,164);stroke-width:1px;"/>
            </g>
            <g transform="matrix(-1.83697e-16,-1,1,-1.83697e-16,-190.45,2250.7)">
                <path d="M662.65,708.35L639.8,731.2L639.8,754.05L685.5,754.05L685.5,708.35L662.65,708.35Z" style="fill:rgb(133,170,164);stroke:rgb(133,170,164);stroke-width:1px;"/>
            </g>
            <g transform="matrix(1.83697e-16,-1,-1,-1.83697e-16,2414.45,2250.7)">
                <path d="M662.65,708.35L639.8,731.2L639.8,754.05L685.5,754.05L685.5,708.35L662.65,708.35Z" style="fill:rgb(133,170,164);stroke:rgb(133,170,164);stroke-width:1px;"/>
            </g>
            <g transform="matrix(-1.83697e-16,-1,1,-1.83697e-16,38.05,2250.7)">
                <path d="M662.65,708.35L639.8,731.2L639.8,754.05L685.5,754.05L685.5,708.35L662.65,708.35Z" style="fill:rgb(133,170,164);stroke:rgb(133,170,164);stroke-width:1px;"/>
            </g>
            <g transform="matrix(1.83697e-16,-1,-1,-1.83697e-16,2185.95,2250.7)">
                <path d="M662.65,708.35L639.8,731.2L639.8,754.05L685.5,754.05L685.5,708.35L662.65,708.35Z" style="fill:rgb(133,170,164);stroke:rgb(133,170,164);stroke-width:1px;"/>
            </g>
            <g transform="matrix(6.12323e-17,1,-1,6.12323e-17,1591.85,57.1)">
                <path d="M662.65,708.35L639.8,731.2L639.8,754.05L685.5,754.05L685.5,708.35L662.65,708.35Z" style="fill:rgb(133,170,164);stroke:rgb(133,170,164);stroke-width:1px;"/>
            </g>
            <g transform="matrix(-6.12323e-17,1,1,6.12323e-17,632.15,57.1)">
                <path d="M662.65,708.35L639.8,731.2L639.8,754.05L685.5,754.05L685.5,708.35L662.65,708.35Z" style="fill:rgb(133,170,164);stroke:rgb(133,170,164);stroke-width:1px;"/>
            </g>
        </g>
        <g id="Layer10">
            <g transform="matrix(6.12323e-17,1,-1,6.12323e-17,1409.05,102.8)">
                <path d="M685.5,754.05L639.8,754.05L639.8,776.9L662.65,799.75L685.5,799.75L685.5,754.05Z" style="fill:rgb(79,195,199);stroke:rgb(79,195,199);stroke-width:1px;"/>
            </g>
            <g transform="matrix(-6.12323e-17,1,1,6.12323e-17,814.95,102.8)">
                <path d="M685.5,754.05L639.8,754.05L639.8,776.9L662.65,799.75L685.5,799.75L685.5,754.05Z" style="fill:rgb(79,195,199);stroke:rgb(79,195,199);stroke-width:1px;"/>
            </g>
            <g transform="matrix(1,0,0,1,-259,79.95)">
                <path d="M685.5,754.05L639.8,754.05L639.8,776.9L662.65,799.75L685.5,799.75L685.5,754.05Z" style="fill:rgb(79,195,199);stroke:rgb(79,195,199);stroke-width:1px;"/>
            </g>
            <g transform="matrix(-1,0,0,1,2483,79.95)">
                <path d="M685.5,754.05L639.8,754.05L639.8,776.9L662.65,799.75L685.5,799.75L685.5,754.05Z" style="fill:rgb(79,195,199);stroke:rgb(79,195,199);stroke-width:1px;"/>
            </g>
            <g transform="matrix(1,0,0,1,-304.7,262.75)">
                <path d="M685.5,754.05L639.8,754.05L639.8,776.9L662.65,799.75L685.5,799.75L685.5,754.05Z" style="fill:rgb(79,195,199);stroke:rgb(79,195,199);stroke-width:1px;"/>
            </g>
            <g transform="matrix(-1,0,0,1,2528.7,262.75)">
                <path d="M685.5,754.05L639.8,754.05L639.8,776.9L662.65,799.75L685.5,799.75L685.5,754.05Z" style="fill:rgb(79,195,199);stroke:rgb(79,195,199);stroke-width:1px;"/>
            </g>
            <g transform="matrix(1,0,0,1,-304.7,445.55)">
                <path d="M685.5,754.05L639.8,754.05L639.8,776.9L662.65,799.75L685.5,799.75L685.5,754.05Z" style="fill:rgb(79,195,199);stroke:rgb(79,195,199);stroke-width:1px;"/>
            </g>
            <g transform="matrix(-1,0,0,1,2528.7,445.55)">
                <path d="M685.5,754.05L639.8,754.05L639.8,776.9L662.65,799.75L685.5,799.75L685.5,754.05Z" style="fill:rgb(79,195,199);stroke:rgb(79,195,199);stroke-width:1px;"/>
            </g>
            <g transform="matrix(1,0,0,1,-304.7,628.35)">
                <path d="M685.5,754.05L639.8,754.05L639.8,776.9L662.65,799.75L685.5,799.75L685.5,754.05Z" style="fill:rgb(79,195,199);stroke:rgb(79,195,199);stroke-width:1px;"/>
            </g>
            <g transform="matrix(-1,0,0,1,2528.7,628.35)">
                <path d="M685.5,754.05L639.8,754.05L639.8,776.9L662.65,799.75L685.5,799.75L685.5,754.05Z" style="fill:rgb(79,195,199);stroke:rgb(79,195,199);stroke-width:1px;"/>
            </g>
            <g transform="matrix(-1.83697e-16,-1,1,-1.83697e-16,-190.45,2250.7)">
                <path d="M685.5,754.05L639.8,754.05L639.8,776.9L662.65,799.75L685.5,799.75L685.5,754.05Z" style="fill:rgb(79,195,199);stroke:rgb(79,195,199);stroke-width:1px;"/>
            </g>
            <g transform="matrix(1.83697e-16,-1,-1,-1.83697e-16,2414.45,2250.7)">
                <path d="M685.5,754.05L639.8,754.05L639.8,776.9L662.65,799.75L685.5,799.75L685.5,754.05Z" style="fill:rgb(79,195,199);stroke:rgb(79,195,199);stroke-width:1px;"/>
            </g>
            <g transform="matrix(-1.83697e-16,-1,1,-1.83697e-16,38.05,2250.7)">
                <path d="M685.5,754.05L639.8,754.05L639.8,776.9L662.65,799.75L685.5,799.75L685.5,754.05Z" style="fill:rgb(79,195,199);stroke:rgb(79,195,199);stroke-width:1px;"/>
            </g>
            <g transform="matrix(1.83697e-16,-1,-1,-1.83697e-16,2185.95,2250.7)">
                <path d="M685.5,754.05L639.8,754.05L639.8,776.9L662.65,799.75L685.5,799.75L685.5,754.05Z" style="fill:rgb(79,195,199);stroke:rgb(79,195,199);stroke-width:1px;"/>
            </g>
            <g transform="matrix(6.12323e-17,1,-1,6.12323e-17,1591.85,57.1)">
                <path d="M685.5,754.05L639.8,754.05L639.8,776.9L662.65,799.75L685.5,799.75L685.5,754.05Z" style="fill:rgb(79,195,199);stroke:rgb(79,195,199);stroke-width:1px;"/>
            </g>
            <g transform="matrix(-6.12323e-17,1,1,6.12323e-17,632.15,57.1)">
                <path d="M685.5,754.05L639.8,754.05L639.8,776.9L662.65,799.75L685.5,799.75L685.5,754.05Z" style="fill:rgb(79,195,199);stroke:rgb(79,195,199);stroke-width:1px;"/>
            </g>
            <g transform="matrix(6.12323e-17,-1,1,6.12323e-17,-53.35,879.7)">
                <path d="M685.5,776.9L662.65,754.05L639.8,754.05L639.8,799.75L685.5,799.75L685.5,776.9Z" style="fill:rgb(79,195,199);stroke:rgb(79,195,199);stroke-width:1px;"/>
            </g>
            <g transform="matrix(-6.12323e-17,-1,-1,6.12323e-17,2277.35,879.7)">
                <path d="M685.5,776.9L662.65,754.05L639.8,754.05L639.8,799.75L685.5,799.75L685.5,776.9Z" style="fill:rgb(79,195,199);stroke:rgb(79,195,199);stroke-width:1px;"/>
            </g>
        </g>
        <g id="Layer9">
            <g transform="matrix(6.12323e-17,1,-1,6.12323e-17,1409.05,102.8)">
                <path d="M708.35,799.75L731.2,776.9L731.2,754.05L685.5,754.05L685.5,799.75L708.35,799.75Z" style="fill:rgb(69,107,98);stroke:rgb(69,107,98);stroke-width:1px;"/>
            </g>
            <g transform="matrix(-6.12323e-17,1,1,6.12323e-17,814.95,102.8)">
                <path d="M708.35,799.75L731.2,776.9L731.2,754.05L685.5,754.05L685.5,799.75L708.35,799.75Z" style="fill:rgb(69,107,98);stroke:rgb(69,107,98);stroke-width:1px;"/>
            </g>
            <g transform="matrix(1,0,0,1,-259,79.95)">
                <path d="M708.35,799.75L731.2,776.9L731.2,754.05L685.5,754.05L685.5,799.75L708.35,799.75Z" style="fill:rgb(69,107,98);stroke:rgb(69,107,98);stroke-width:1px;"/>
            </g>
            <g transform="matrix(-1,0,0,1,2483,79.95)">
                <path d="M708.35,799.75L731.2,776.9L731.2,754.05L685.5,754.05L685.5,799.75L708.35,799.75Z" style="fill:rgb(69,107,98);stroke:rgb(69,107,98);stroke-width:1px;"/>
            </g>
            <g transform="matrix(1,0,0,1,-304.7,262.75)">
                <path d="M708.35,799.75L731.2,776.9L731.2,754.05L685.5,754.05L685.5,799.75L708.35,799.75Z" style="fill:rgb(69,107,98);stroke:rgb(69,107,98);stroke-width:1px;"/>
            </g>
            <g transform="matrix(-1,0,0,1,2528.7,262.75)">
                <path d="M708.35,799.75L731.2,776.9L731.2,754.05L685.5,754.05L685.5,799.75L708.35,799.75Z" style="fill:rgb(69,107,98);stroke:rgb(69,107,98);stroke-width:1px;"/>
            </g>
            <g transform="matrix(1,0,0,1,-304.7,445.55)">
                <path d="M708.35,799.75L731.2,776.9L731.2,754.05L685.5,754.05L685.5,799.75L708.35,799.75Z" style="fill:rgb(69,107,98);stroke:rgb(69,107,98);stroke-width:1px;"/>
            </g>
            <g transform="matrix(-1,0,0,1,2528.7,445.55)">
                <path d="M708.35,799.75L731.2,776.9L731.2,754.05L685.5,754.05L685.5,799.75L708.35,799.75Z" style="fill:rgb(69,107,98);stroke:rgb(69,107,98);stroke-width:1px;"/>
            </g>
            <g transform="matrix(1,0,0,1,-304.7,628.35)">
                <path d="M708.35,799.75L731.2,776.9L731.2,754.05L685.5,754.05L685.5,799.75L708.35,799.75Z" style="fill:rgb(69,107,98);stroke:rgb(69,107,98);stroke-width:1px;"/>
            </g>
            <g transform="matrix(-1,0,0,1,2528.7,628.35)">
                <path d="M708.35,799.75L731.2,776.9L731.2,754.05L685.5,754.05L685.5,799.75L708.35,799.75Z" style="fill:rgb(69,107,98);stroke:rgb(69,107,98);stroke-width:1px;"/>
            </g>
            <g transform="matrix(-1.83697e-16,-1,1,-1.83697e-16,-190.45,2250.7)">
                <path d="M708.35,799.75L731.2,776.9L731.2,754.05L685.5,754.05L685.5,799.75L708.35,799.75Z" style="fill:rgb(69,107,98);stroke:rgb(69,107,98);stroke-width:1px;"/>
            </g>
            <g transform="matrix(1.83697e-16,-1,-1,-1.83697e-16,2414.45,2250.7)">
                <path d="M708.35,799.75L731.2,776.9L731.2,754.05L685.5,754.05L685.5,799.75L708.35,799.75Z" style="fill:rgb(69,107,98);stroke:rgb(69,107,98);stroke-width:1px;"/>
            </g>
            <g transform="matrix(-1.83697e-16,-1,1,-1.83697e-16,38.05,2250.7)">
                <path d="M708.35,799.75L731.2,776.9L731.2,754.05L685.5,754.05L685.5,799.75L708.35,799.75Z" style="fill:rgb(69,107,98);stroke:rgb(69,107,98);stroke-width:1px;"/>
            </g>
            <g transform="matrix(1.83697e-16,-1,-1,-1.83697e-16,2185.95,2250.7)">
                <path d="M708.35,799.75L731.2,776.9L731.2,754.05L685.5,754.05L685.5,799.75L708.35,799.75Z" style="fill:rgb(69,107,98);stroke:rgb(69,107,98);stroke-width:1px;"/>
            </g>
            <g transform="matrix(6.12323e-17,1,-1,6.12323e-17,1591.85,57.1)">
                <path d="M708.35,799.75L731.2,776.9L731.2,754.05L685.5,754.05L685.5,799.75L708.35,799.75Z" style="fill:rgb(69,107,98);stroke:rgb(69,107,98);stroke-width:1px;"/>
            </g>
            <g transform="matrix(-6.12323e-17,1,1,6.12323e-17,632.15,57.1)">
                <path d="M708.35,799.75L731.2,776.9L731.2,754.05L685.5,754.05L685.5,799.75L708.35,799.75Z" style="fill:rgb(69,107,98);stroke:rgb(69,107,98);stroke-width:1px;"/>
            </g>
        </g>
        <g id="Layer18">
            <g transform="matrix(1,0,0,1,-30.5,34.25)">
                <path d="M959.7,479.85L915.298,496.408L879.452,515.449L852.528,510.795L799.75,525.55L822.6,548.4L822.6,594.1L863.526,564.302L907.173,568.422L942.737,548.499L959.7,548.4L959.7,479.85Z" style="fill:rgb(128,109,86);stroke:rgb(128,109,86);stroke-width:1px;"/>
            </g>
            <g transform="matrix(-1,0,0,1,2254.5,34.25)">
                <path d="M959.7,479.85L924.779,479.543L887.003,500.664L842.04,506.763L799.75,525.55L822.6,548.4L822.6,594.1L868.864,562.543L917.114,572.875L959.7,548.4L959.7,479.85Z" style="fill:rgb(128,109,86);stroke:rgb(128,109,86);stroke-width:1px;"/>
            </g>
        </g>
    </g>
</svg>
