<?xml version="1.0" encoding="UTF-8" standalone="no"?>
<!DOCTYPE svg PUBLIC "-//W3C//DTD SVG 1.1//EN" "http://www.w3.org/Graphics/SVG/1.1/DTD/svg11.dtd">
<svg width="100%" height="100%" viewBox="0 0 4634 3475" version="1.1" xmlns="http://www.w3.org/2000/svg" xmlns:xlink="http://www.w3.org/1999/xlink" xml:space="preserve" xmlns:serif="http://www.serif.com/" style="fill-rule:evenodd;clip-rule:evenodd;stroke-linecap:round;stroke-linejoin:round;stroke-miterlimit:1.5;">
    <g transform="matrix(2.08333,0,0,2.08333,0,0)">
        <g id="Layer8">
            <g transform="matrix(1,0,0,1,-53.35,-11.45)">
                <path d="M1782.3,1530.95L1690.9,1622.35L1325.3,1622.35L1279.6,1576.65L1279.6,1508.1L1302.45,1462.4L1325.3,1508.1L1325.3,1530.95L1371,1576.65L1462.4,1576.65L1508.1,1530.95L1599.5,1485.25L1645.2,1302.45L1736.6,1302.45L1782.3,1256.75L1782.3,1530.95Z" style="fill:rgb(192,95,15);stroke:rgb(192,95,15);stroke-width:1px;"/>
            </g>
            <g transform="matrix(-1,0,0,1,2277.35,-11.45)">
                <path d="M1782.3,1530.95L1690.9,1622.35L1325.3,1622.35L1279.6,1576.65L1279.6,1508.1L1302.45,1462.4L1325.3,1508.1L1325.3,1530.95L1371,1576.65L1462.4,1576.65L1508.1,1530.95L1599.5,1485.25L1645.2,1302.45L1736.6,1302.45L1782.3,1256.75L1782.3,1530.95Z" style="fill:rgb(192,95,15);stroke:rgb(192,95,15);stroke-width:1px;"/>
            </g>
        </g>
        <g id="Layer11">
            <g transform="matrix(1,0,0,1,-53.35,-11.45)">
                <path d="M1325.3,1188.2L1325.3,1279.6L1302.45,1302.45L1233.9,1348.15L1279.6,1348.15L1256.75,1393.85L1188.2,1439.55L1279.6,1439.55L1325.3,1393.85L1371,1348.15L1371,1165.35L1348.15,1142.5L1325.3,1188.2Z" style="fill:rgb(176,31,0);stroke:rgb(176,31,0);stroke-width:1px;"/>
            </g>
            <g transform="matrix(-1,0,0,1,2277.35,-11.45)">
                <path d="M1325.3,1188.2L1325.3,1279.6L1302.45,1302.45L1233.9,1348.15L1279.6,1348.15L1256.75,1393.85L1188.2,1439.55L1279.6,1439.55L1325.3,1393.85L1371,1348.15L1371,1165.35L1348.15,1142.5L1325.3,1188.2Z" style="fill:rgb(176,31,0);stroke:rgb(176,31,0);stroke-width:1px;"/>
            </g>
        </g>
        <g id="Layer9">
            <g transform="matrix(1,0,0,1,-53.35,-11.45)">
                <path d="M1622.35,1051.1L1576.65,1028.25L1416.7,1028.25L1416.7,1073.95L1530.95,1073.95L1576.65,1096.8L1622.35,1051.1Z" style="fill:rgb(176,176,95);stroke:rgb(176,176,95);stroke-width:1px;"/>
            </g>
            <g transform="matrix(-1,0,0,1,2277.35,-11.45)">
                <path d="M1622.35,1051.1L1576.65,1028.25L1416.7,1028.25L1416.7,1073.95L1530.95,1073.95L1576.65,1096.8L1622.35,1051.1Z" style="fill:rgb(176,176,95);stroke:rgb(176,176,95);stroke-width:1px;"/>
            </g>
            <g transform="matrix(1,0,0,1,-53.35,-11.45)">
                <path d="M1645.2,1256.75L1599.5,1211.05L1599.5,1119.65L1645.2,1073.95L1736.6,1073.95L1782.3,1119.65L1782.3,1211.05L1736.6,1256.75L1645.2,1256.75Z" style="fill:rgb(176,176,95);stroke:rgb(176,176,95);stroke-width:1px;"/>
            </g>
            <g transform="matrix(-1,0,0,1,2277.35,-11.45)">
                <path d="M1645.2,1256.75L1599.5,1211.05L1599.5,1119.65L1645.2,1073.95L1736.6,1073.95L1782.3,1119.65L1782.3,1211.05L1736.6,1256.75L1645.2,1256.75Z" style="fill:rgb(176,176,95);stroke:rgb(176,176,95);stroke-width:1px;"/>
            </g>
            <g transform="matrix(1,0,0,1,-53.35,-11.45)">
                <path d="M1416.7,868.3L1416.7,936.85L1599.5,936.85L1599.5,845.45L1439.55,845.45L1416.7,868.3Z" style="fill:rgb(176,176,95);stroke:rgb(176,176,95);stroke-width:1px;"/>
            </g>
            <g transform="matrix(-1,0,0,1,2277.35,-11.45)">
                <path d="M1416.7,868.3L1416.7,936.85L1599.5,936.85L1599.5,845.45L1439.55,845.45L1416.7,868.3Z" style="fill:rgb(176,176,95);stroke:rgb(176,176,95);stroke-width:1px;"/>
            </g>
            <g transform="matrix(-1,0,0,1,2231.65,-11.45)">
                <path d="M639.8,845.45L411.3,845.45L365.6,891.15L365.6,982.55L411.3,1028.25L548.4,1028.25L594.1,982.55L616.95,982.55L639.8,959.7L639.8,845.45Z" style="fill:rgb(176,176,95);stroke:rgb(176,176,95);stroke-width:1px;"/>
            </g>
            <g transform="matrix(1,0,0,1,-7.65,-11.45)">
                <path d="M639.8,845.45L411.3,845.45L365.6,891.15L365.6,982.55L411.3,1028.25L548.4,1028.25L594.1,982.55L616.95,982.55L639.8,959.7L639.8,845.45Z" style="fill:rgb(176,176,95);stroke:rgb(176,176,95);stroke-width:1px;"/>
            </g>
            <g transform="matrix(1,0,0,1,-53.35,-11.45)">
                <path d="M1142.5,1302.45L1096.8,1256.75L1028.25,1256.75L1005.4,1233.9L1005.4,1188.2L959.7,1119.65L959.7,936.85L1051.1,845.45L1279.6,845.45L1371,936.85L1371,1119.65L1325.3,1188.2L1325.3,1233.9L1302.45,1256.75L1233.9,1256.75L1188.2,1302.45L1142.5,1302.45Z" style="fill:rgb(176,176,95);stroke:rgb(176,176,95);stroke-width:1px;"/>
            </g>
            <g transform="matrix(1,0,0,1,-30.5,-34.3)">
                <path d="M1348.15,799.75L1393.85,845.45L1439.55,822.6L1462.4,776.9L1553.8,754.05L1599.5,708.35L1576.65,662.65L1508.1,662.65L1416.7,754.05L1348.15,799.75Z" style="fill:rgb(176,176,95);stroke:rgb(176,176,95);stroke-width:1px;"/>
            </g>
            <g transform="matrix(-1,0,0,1,2254.5,-34.3)">
                <path d="M1348.15,799.75L1393.85,845.45L1439.55,822.6L1462.4,776.9L1553.8,754.05L1599.5,708.35L1576.65,662.65L1508.1,662.65L1416.7,754.05L1348.15,799.75Z" style="fill:rgb(176,176,95);stroke:rgb(176,176,95);stroke-width:1px;"/>
            </g>
            <g transform="matrix(1,0,0,1,-53.35,-11.45)">
                <path d="M1645.2,616.95L1645.2,479.85L1690.9,434.15L1828,434.15L1828,548.4L1782.3,616.95L1736.6,662.65L1668.05,662.65L1645.2,616.95Z" style="fill:rgb(176,176,95);stroke:rgb(176,176,95);stroke-width:1px;"/>
            </g>
            <g transform="matrix(-1,0,0,1,2277.35,-11.45)">
                <path d="M1645.2,616.95L1645.2,479.85L1690.9,434.15L1828,434.15L1828,548.4L1782.3,616.95L1736.6,662.65L1668.05,662.65L1645.2,616.95Z" style="fill:rgb(176,176,95);stroke:rgb(176,176,95);stroke-width:1px;"/>
            </g>
        </g>
        <g transform="matrix(1,0,0,1,-53.35,-11.45)">
            <g id="Layer13">
                <path d="M1073.95,776.9L914,708.35L731.2,525.55L822.6,525.55L914,479.85L776.9,342.75L731.2,251.35L914,342.75L959.7,159.95L959.7,68.55L1051.1,159.95L1096.8,182.8L1233.9,182.8L1279.6,159.95L1371,68.55L1371,159.95L1416.7,342.75L1508.1,297.05L1599.5,251.35L1553.8,342.75L1416.7,479.85L1508.1,525.55L1599.5,525.55L1508.1,616.95L1416.7,708.35L1256.75,776.9L1073.95,776.9Z" style="fill:rgb(111,79,192);stroke:rgb(111,79,192);stroke-width:1px;"/>
            </g>
        </g>
        <g transform="matrix(1,0,0,1,-53.35,-11.45)">
            <g id="Layer12">
                <path d="M1096.8,799.75L1005.4,708.35L959.7,616.95L868.3,571.25L731.2,434.15L822.6,434.15L868.3,479.85L982.55,479.85L1005.4,457L1005.4,411.3L982.55,388.45L914,342.75L914,251.35L776.9,68.55L959.7,159.95L1005.4,205.65L1073.95,205.65L1096.8,159.95L1119.65,137.1L1211.05,137.1L1233.9,159.95L1256.75,205.65L1325.3,205.65L1371,159.95L1553.8,68.55L1416.7,251.35L1416.7,342.75L1348.15,388.45L1325.3,411.3L1325.3,457L1348.15,479.85L1462.4,479.85L1508.1,434.15L1599.5,434.15L1462.4,571.25L1371,616.95L1325.3,708.35L1233.9,799.75L1096.8,799.75ZM1188.2,662.65L1233.9,616.95L1233.9,388.45L1188.2,274.2L1165.35,251.35L1142.5,274.2L1096.8,388.45L1096.8,616.95L1142.5,662.65L1188.2,662.65Z" style="fill:rgb(15,15,47);stroke:rgb(15,15,47);stroke-width:1px;"/>
            </g>
        </g>
        <g id="Layer10">
            <g transform="matrix(1,0,0,1,-53.35,-11.45)">
                <path d="M1645.2,1188.2L1645.2,1142.5L1668.05,1119.65L1713.75,1119.65L1736.6,1142.5L1736.6,1188.2L1713.75,1211.05L1668.05,1211.05L1645.2,1188.2Z" style="fill:rgb(63,15,0);stroke:rgb(63,15,0);stroke-width:1px;"/>
            </g>
            <g transform="matrix(-1,0,0,1,2277.35,-11.45)">
                <path d="M1645.2,1188.2L1645.2,1142.5L1668.05,1119.65L1713.75,1119.65L1736.6,1142.5L1736.6,1188.2L1713.75,1211.05L1668.05,1211.05L1645.2,1188.2Z" style="fill:rgb(63,15,0);stroke:rgb(63,15,0);stroke-width:1px;"/>
            </g>
            <g transform="matrix(1,0,0,1,-53.35,-11.45)">
                <path d="M1782.3,959.7L1782.3,914L1805.15,891.15L1850.85,891.15L1873.7,914L1873.7,959.7L1850.85,982.55L1805.15,982.55L1782.3,959.7Z" style="fill:rgb(63,15,0);stroke:rgb(63,15,0);stroke-width:1px;"/>
            </g>
            <g transform="matrix(1,0,0,1,-144.75,-422.75)">
                <path d="M1782.3,959.7L1782.3,914L1805.15,891.15L1850.85,891.15L1873.7,914L1873.7,959.7L1850.85,982.55L1805.15,982.55L1782.3,959.7Z" style="fill:rgb(63,15,0);stroke:rgb(63,15,0);stroke-width:1px;"/>
            </g>
            <g transform="matrix(-1,0,0,1,2277.35,-11.45)">
                <path d="M1782.3,959.7L1782.3,914L1805.15,891.15L1850.85,891.15L1873.7,914L1873.7,959.7L1850.85,982.55L1805.15,982.55L1782.3,959.7Z" style="fill:rgb(63,15,0);stroke:rgb(63,15,0);stroke-width:1px;"/>
            </g>
            <g transform="matrix(-1,0,0,1,2368.75,-422.75)">
                <path d="M1782.3,959.7L1782.3,914L1805.15,891.15L1850.85,891.15L1873.7,914L1873.7,959.7L1850.85,982.55L1805.15,982.55L1782.3,959.7Z" style="fill:rgb(63,15,0);stroke:rgb(63,15,0);stroke-width:1px;"/>
            </g>
            <g transform="matrix(-1,0,0,1,2231.65,-0.025)">
                <path d="M365.6,1028.25L365.6,1393.85L411.3,1439.55L502.7,1439.55L457,1416.7L434.15,1371L411.3,1302.45L411.3,1233.9L434.15,1199.62L457,1165.35L457,1096.8L457,1051.1L411.3,1051.1L388.45,1028.25L365.6,1005.4L365.6,1028.25Z" style="fill:rgb(63,15,0);stroke:rgb(63,15,0);stroke-width:1px;"/>
            </g>
            <g transform="matrix(1,0,0,1,-7.65,-0.025)">
                <path d="M365.6,1028.25L365.6,1393.85L411.3,1439.55L502.7,1439.55L457,1416.7L434.15,1371L411.3,1302.45L411.3,1233.9L434.15,1199.62L457,1165.35L457,1096.8L457,1051.1L411.3,1051.1L388.45,1028.25L365.6,1005.4L365.6,1028.25Z" style="fill:rgb(63,15,0);stroke:rgb(63,15,0);stroke-width:1px;"/>
            </g>
            <g transform="matrix(1,0,0,1,-53.35,-11.45)">
                <path d="M1165.35,1165.35L1142.5,1142.5L1142.5,1096.8L1096.8,1073.95L1096.8,982.55L1142.5,959.7L1142.5,936.85L1188.2,936.85L1188.2,959.7L1233.9,982.55L1233.9,1073.95L1188.2,1096.8L1188.2,1142.5L1165.35,1165.35Z" style="fill:rgb(63,15,0);stroke:rgb(63,15,0);stroke-width:1px;"/>
            </g>
            <g transform="matrix(1,0,0,1,-53.35,-11.45)">
                <path d="M1233.9,1188.2L1256.75,1165.35L1302.45,1165.35L1325.3,1188.2L1325.3,1233.9L1302.45,1256.75L1256.75,1256.75L1233.9,1233.9L1233.9,1188.2Z" style="fill:rgb(63,15,0);stroke:rgb(63,15,0);stroke-width:1px;"/>
            </g>
            <g transform="matrix(-1,0,0,1,2277.35,-11.45)">
                <path d="M1233.9,1188.2L1256.75,1165.35L1302.45,1165.35L1325.3,1188.2L1325.3,1233.9L1302.45,1256.75L1256.75,1256.75L1233.9,1233.9L1233.9,1188.2Z" style="fill:rgb(63,15,0);stroke:rgb(63,15,0);stroke-width:1px;"/>
            </g>
            <g transform="matrix(1,0,0,1,-53.35,-11.45)">
                <path d="M1302.45,1073.95L1325.3,1096.8L1302.45,1119.65L1279.6,1096.8L1302.45,1073.95Z" style="fill:rgb(63,15,0);stroke:rgb(63,15,0);stroke-width:1px;"/>
            </g>
            <g transform="matrix(-1,0,0,1,2277.35,-11.45)">
                <path d="M1302.45,1073.95L1325.3,1096.8L1302.45,1119.65L1279.6,1096.8L1302.45,1073.95Z" style="fill:rgb(63,15,0);stroke:rgb(63,15,0);stroke-width:1px;"/>
            </g>
            <g transform="matrix(1,0,0,1,-53.35,-102.85)">
                <path d="M1302.45,1073.95L1325.3,1096.8L1302.45,1119.65L1279.6,1096.8L1302.45,1073.95Z" style="fill:rgb(63,15,0);stroke:rgb(63,15,0);stroke-width:1px;"/>
            </g>
            <g transform="matrix(-1,0,0,1,2277.35,-102.85)">
                <path d="M1302.45,1073.95L1325.3,1096.8L1302.45,1119.65L1279.6,1096.8L1302.45,1073.95Z" style="fill:rgb(63,15,0);stroke:rgb(63,15,0);stroke-width:1px;"/>
            </g>
            <g transform="matrix(1,0,0,1,-99.05,-194.25)">
                <path d="M1302.45,1073.95L1325.3,1096.8L1302.45,1119.65L1279.6,1096.8L1302.45,1073.95Z" style="fill:rgb(63,15,0);stroke:rgb(63,15,0);stroke-width:1px;"/>
            </g>
            <g transform="matrix(-1,0,0,1,2323.05,-194.25)">
                <path d="M1302.45,1073.95L1325.3,1096.8L1302.45,1119.65L1279.6,1096.8L1302.45,1073.95Z" style="fill:rgb(63,15,0);stroke:rgb(63,15,0);stroke-width:1px;"/>
            </g>
            <g transform="matrix(1,0,0,1,-53.35,-11.45)">
                <path d="M1690.9,388.45L1690.9,342.75L1828,205.65L1850.85,114.25L1736.6,68.55L1850.85,68.55L1919.4,114.25L1919.4,251.35L1850.85,319.9L1828,388.45L1690.9,388.45Z" style="fill:rgb(63,15,0);stroke:rgb(63,15,0);stroke-width:1px;"/>
            </g>
            <g transform="matrix(-1,0,0,1,2277.35,-11.45)">
                <path d="M1690.9,388.45L1690.9,342.75L1828,205.65L1850.85,114.25L1736.6,68.55L1850.85,68.55L1919.4,114.25L1919.4,251.35L1850.85,319.9L1828,388.45L1690.9,388.45Z" style="fill:rgb(63,15,0);stroke:rgb(63,15,0);stroke-width:1px;"/>
            </g>
            <g transform="matrix(1,0,0,1,-53.35,-11.45)">
                <path d="M1165.35,68.55L1096.8,159.95L1233.9,159.95L1165.35,68.55Z" style="fill:rgb(63,15,0);stroke:rgb(63,15,0);stroke-width:1px;"/>
            </g>
        </g>
    </g>
</svg>
