<?xml version="1.0" encoding="UTF-8" standalone="no"?>
<!DOCTYPE svg PUBLIC "-//W3C//DTD SVG 1.1//EN" "http://www.w3.org/Graphics/SVG/1.1/DTD/svg11.dtd">
<svg width="100%" height="100%" viewBox="0 0 4634 3475" version="1.1" xmlns="http://www.w3.org/2000/svg" xmlns:xlink="http://www.w3.org/1999/xlink" xml:space="preserve" xmlns:serif="http://www.serif.com/" style="fill-rule:evenodd;clip-rule:evenodd;stroke-linecap:round;stroke-linejoin:round;stroke-miterlimit:1.5;">
    <g transform="matrix(2.08333,0,0,2.08333,0,0)">
        <g transform="matrix(1,0,0,1,-28.75,34.5)">
            <g id="Layer6">
                <path d="M507,1384.5L1774.5,1384.5L1755,1209L526.5,1209L507,1384.5Z" style="fill:rgb(97,153,200);stroke:rgb(97,153,200);stroke-width:1px;"/>
            </g>
        </g>
        <g id="Layer7">
            <g transform="matrix(1,0,0,1,-28.75,34.5)">
                <path d="M604.5,1228.5L565.5,1189.5L526.5,1111.5L526.5,1092L507,1072.5L429,994.5L409.5,994.5L351,1053L351,1092L370.5,1111.5L448.5,1150.5L487.5,1189.5L370.5,1189.5L351,1209L351,1248L370.5,1267.5L487.5,1267.5L448.5,1306.5L409.5,1326L370.5,1345.5L351,1365L351,1404L409.5,1462.5L429,1462.5L604.5,1287L604.5,1228.5Z" style="fill:rgb(17,79,184);stroke:rgb(17,79,184);stroke-width:1px;"/>
            </g>
            <g transform="matrix(-1,0,0,1,2252.75,34.5)">
                <path d="M604.5,1228.5L565.5,1189.5L526.5,1111.5L526.5,1092L507,1072.5L429,994.5L409.5,994.5L351,1053L351,1092L370.5,1111.5L448.5,1150.5L487.5,1189.5L370.5,1189.5L351,1209L351,1248L370.5,1267.5L487.5,1267.5L448.5,1306.5L409.5,1326L370.5,1345.5L351,1365L351,1404L409.5,1462.5L429,1462.5L604.5,1287L604.5,1228.5Z" style="fill:rgb(17,79,184);stroke:rgb(17,79,184);stroke-width:1px;"/>
            </g>
        </g>
        <g id="Layer8">
            <g transform="matrix(1,0,0,1,-28.75,34.5)">
                <path d="M507,1384.5L390,1443L370.5,1462.5L370.5,1540.5L409.5,1579.5L1872,1579.5L1911,1540.5L1911,1462.5L1891.5,1443L1774.5,1384.5L507,1384.5Z" style="fill:rgb(159,148,84);stroke:rgb(159,148,84);stroke-width:1px;"/>
            </g>
            <g transform="matrix(1,0,0,1,-28.75,34.5)">
                <path d="M409.5,799.5L409.5,721.5L429,702L468,702L487.5,721.5L487.5,799.5L468,819L429,819L409.5,799.5Z" style="fill:rgb(159,148,84);stroke:rgb(159,148,84);stroke-width:1px;"/>
            </g>
            <g transform="matrix(1,0,0,1,-28.75,34.5)">
                <path d="M1677,351L1677,273L1696.5,253.5L1735.5,253.5L1755,273L1755,351L1735.5,370.5L1696.5,370.5L1677,351Z" style="fill:rgb(159,148,84);stroke:rgb(159,148,84);stroke-width:1px;"/>
            </g>
            <g transform="matrix(1,0,0,1,-28.75,34.5)">
                <path d="M1774.5,604.5L1735.5,585L1716,546L1716,448.5L1735.5,409.5L1774.5,390L1852.5,390L1891.5,409.5L1911,448.5L1911,546L1891.5,585L1852.5,604.5L1774.5,604.5Z" style="fill:rgb(159,148,84);stroke:rgb(159,148,84);stroke-width:1px;"/>
            </g>
            <g transform="matrix(1,0,0,1,-28.75,34.5)">
                <path d="M429,585L390,565.5L370.5,526.5L370.5,448.5L390,409.5L429,390L507,390L546,409.5L565.5,448.5L565.5,526.5L546,565.5L507,585" style="fill:rgb(159,148,84);stroke:rgb(159,148,84);stroke-width:1px;"/>
            </g>
            <g transform="matrix(1,0,0,1,88.25,-316.5)">
                <path d="M429,585L390,565.5L370.5,526.5L370.5,448.5L390,409.5L429,390L507,390L546,409.5L565.5,448.5L565.5,526.5L546,565.5L507,585" style="fill:rgb(159,148,84);stroke:rgb(159,148,84);stroke-width:1px;"/>
            </g>
            <g transform="matrix(1,0,0,1,926.75,-238.5)">
                <path d="M429,585L390,565.5L370.5,526.5L370.5,448.5L390,409.5L429,390L507,390L546,409.5L565.5,448.5L565.5,526.5L546,565.5L507,585" style="fill:rgb(159,148,84);stroke:rgb(159,148,84);stroke-width:1px;"/>
            </g>
        </g>
        <g transform="matrix(-1,0,0,1,2252.75,34.5)">
            <g id="Layer2">
                <path d="M1404,1228.5L877.5,1228.5L741,1189.5L663,1111.5L643.5,1072.5L643.5,897L682.5,780L760.5,624L877.5,507L936,468L1014,429L1072.5,409.5L1131,390L1150.5,390L1267.5,429L1345.5,468L1404,507L1521,624L1599,780L1638,897L1638,1072.5L1618.5,1111.5L1540.5,1189.5L1404,1228.5Z" style="fill:rgb(160,97,67);stroke:rgb(160,97,67);stroke-width:1px;"/>
            </g>
        </g>
        <g transform="matrix(1,0,0,1,-28.75,34.5)">
            <g id="Layer3">
                <path d="M1170,1092L1228.5,1053L1248,1014L1248,936L1228.5,897L1189.5,858L1189.5,819L1209,799.5L1287,799.5L1423.5,936L1462.5,1014L1462.5,1211.79L1404,1228.5L877.5,1228.5L819,1211.79L819,1014L858,936L994.5,799.5L1072.5,799.5L1092,819L1092,858L1053,897L1033.5,936L1033.5,1014L1053,1053L1112,1092L1170,1092Z" style="fill:rgb(117,78,59);stroke:rgb(117,78,59);stroke-width:1px;"/>
            </g>
        </g>
        <g transform="matrix(1,0,0,1,-28.75,34.5)">
            <g id="Layer4">
                <path d="M1092,819L1092,858L1053,897L1033.5,936L1033.5,1014L1053,1053L1112,1092L1170,1092L1228.5,1053L1248,1014L1248,936L1228.5,897L1189.5,858L1189.5,819L1209,799.5L1072.5,799.5L1092,819Z" style="fill:rgb(255,95,107);stroke:rgb(255,95,107);stroke-width:1px;"/>
            </g>
        </g>
        <g id="Layer5" transform="matrix(-1,0,0,1,2281.5,0)">
            <g transform="matrix(1,0,0,1,28.75,34.5)">
                <path d="M643.5,877.5L702,897L721.5,916.5L721.5,936L702,955.5L643.5,975L643.5,877.5Z" style="fill:rgb(215,204,144);stroke:rgb(215,204,144);stroke-width:1px;"/>
            </g>
            <g transform="matrix(1,0,0,1,28.75,34.5)">
                <path d="M663,819L741,799.5L760.5,780L760.5,760.5L741,741L702,721.5L663,819Z" style="fill:rgb(215,204,144);stroke:rgb(215,204,144);stroke-width:1px;"/>
            </g>
            <g transform="matrix(1,0,0,1,28.75,54)">
                <path d="M741,1189.5L780,1131L799.5,1111.5L819,1111.5L838.5,1131L838.5,1228.5L780,1228.5L741,1189.5Z" style="fill:rgb(215,204,144);stroke:rgb(215,204,144);stroke-width:1px;"/>
            </g>
            <g transform="matrix(1,-1.22465e-16,-1.22465e-16,-1,145.75,1692)">
                <path d="M741,1189.5L780,1131L799.5,1111.5L819,1111.5L838.5,1131L838.5,1228.5L780,1228.5L741,1189.5Z" style="fill:rgb(215,204,144);stroke:rgb(215,204,144);stroke-width:1px;"/>
            </g>
            <g transform="matrix(1,0,0,1,9.25,34.5)">
                <path d="M936,1228.5L955.5,1170L975,1150.5L994.5,1150.5L1014,1170L1033.5,1228.5L936,1228.5Z" style="fill:rgb(215,204,144);stroke:rgb(215,204,144);stroke-width:1px;"/>
            </g>
            <g transform="matrix(1,0,0,1,-10.25,34.5)">
                <path d="M1131,1228.5L1150.5,1170L1170,1150.5L1189.5,1150.5L1209,1170L1228.5,1228.5L1131,1228.5Z" style="fill:rgb(215,204,144);stroke:rgb(215,204,144);stroke-width:1px;"/>
            </g>
            <g transform="matrix(1,0,0,1,48.25,34.5)">
                <path d="M702,624L780,663L799.5,663L819,643.5L819,624L780,546L702,624Z" style="fill:rgb(215,204,144);stroke:rgb(215,204,144);stroke-width:1px;"/>
            </g>
            <g transform="matrix(1,0,0,-1,-68.75,1750.5)">
                <path d="M741,643.5L780,663L799.5,663L819,643.5L819,624L799.5,585L780,546L741,643.5Z" style="fill:rgb(215,204,144);stroke:rgb(215,204,144);stroke-width:1px;"/>
            </g>
            <g transform="matrix(1,0,0,1,28.75,15)">
                <path d="M1014,429L1033.5,487.5L1053,507L1072.5,507L1092,487.5L1112,409.5L1014,429Z" style="fill:rgb(215,204,144);stroke:rgb(215,204,144);stroke-width:1px;"/>
            </g>
            <g transform="matrix(-1,0,0,1,2310.25,34.5)">
                <path d="M643.5,877.5L702,897L721.5,916.5L721.5,936L702,955.5L643.5,975L643.5,877.5Z" style="fill:rgb(215,204,144);stroke:rgb(215,204,144);stroke-width:1px;"/>
            </g>
            <g transform="matrix(-1,0,0,1,2310.25,34.5)">
                <path d="M663,819L741,799.5L760.5,780L760.5,760.5L741,741L702,721.5L663,819Z" style="fill:rgb(215,204,144);stroke:rgb(215,204,144);stroke-width:1px;"/>
            </g>
            <g transform="matrix(-1,0,0,1,2310.25,54)">
                <path d="M741,1189.5L780,1131L799.5,1111.5L819,1111.5L838.5,1131L838.5,1228.5L780,1228.5L741,1189.5Z" style="fill:rgb(215,204,144);stroke:rgb(215,204,144);stroke-width:1px;"/>
            </g>
            <g transform="matrix(-1,-1.22465e-16,1.22465e-16,-1,2193.25,1692)">
                <path d="M741,1189.5L780,1131L799.5,1111.5L819,1111.5L838.5,1131L838.5,1228.5L780,1228.5L741,1189.5Z" style="fill:rgb(215,204,144);stroke:rgb(215,204,144);stroke-width:1px;"/>
            </g>
            <g transform="matrix(-1,0,0,1,2329.75,34.5)">
                <path d="M936,1228.5L955.5,1170L975,1150.5L994.5,1150.5L1014,1170L1033.5,1228.5L936,1228.5Z" style="fill:rgb(215,204,144);stroke:rgb(215,204,144);stroke-width:1px;"/>
            </g>
            <g transform="matrix(-1,0,0,1,2290.75,34.5)">
                <path d="M702,624L780,663L799.5,663L819,643.5L819,624L780,546L702,624Z" style="fill:rgb(215,204,144);stroke:rgb(215,204,144);stroke-width:1px;"/>
            </g>
            <g transform="matrix(-1,0,0,-1,2407.75,1750.5)">
                <path d="M741,643.5L780,663L799.5,663L819,643.5L819,624L799.5,585L780,546L741,643.5Z" style="fill:rgb(215,204,144);stroke:rgb(215,204,144);stroke-width:1px;"/>
            </g>
            <g transform="matrix(-1,0,0,1,2310.25,15)">
                <path d="M1014,429L1033.5,487.5L1053,507L1072.5,507L1092,487.5L1112,409.5L1014,429Z" style="fill:rgb(215,204,144);stroke:rgb(215,204,144);stroke-width:1px;"/>
            </g>
            <g transform="matrix(-1,0,0,1,2310.25,34.5)">
                <path d="M604.5,1384.5L526.5,1384.5L526.5,1443L643.5,1579.5L780,1579.5L604.5,1404L604.5,1384.5Z" style="fill:rgb(215,204,144);stroke:rgb(215,204,144);stroke-width:1px;"/>
            </g>
            <g transform="matrix(-1,0,0,1,2310.25,34.5)">
                <path d="M760.5,1384.5L760.5,1423.5L838.5,1501.5L1443,1501.5L1521,1423.5L1521,1384.5L760.5,1384.5Z" style="fill:rgb(215,204,144);stroke:rgb(215,204,144);stroke-width:1px;"/>
            </g>
            <g transform="matrix(-1,0,0,1,2310.25,34.5)">
                <path d="M1677,1384.5L1677,1404L1501.5,1579.5L1618.5,1579.5L1755,1443L1755,1384.5L1677,1384.5Z" style="fill:rgb(215,204,144);stroke:rgb(215,204,144);stroke-width:1px;"/>
            </g>
            <g transform="matrix(-1,0,0,1,2310.25,34.5)">
                <path d="M409.5,507L409.5,468L448.5,429L487.5,429L526.5,468L526.5,507L487.5,546L448.5,546L409.5,507Z" style="fill:rgb(215,204,144);stroke:rgb(215,204,144);stroke-width:1px;"/>
            </g>
            <g transform="matrix(-1,0,0,1,2193.25,-316.5)">
                <path d="M409.5,507L409.5,468L448.5,429L487.5,429L526.5,468L526.5,507L487.5,546L448.5,546L409.5,507Z" style="fill:rgb(215,204,144);stroke:rgb(215,204,144);stroke-width:1px;"/>
            </g>
            <g transform="matrix(-1,0,0,1,1354.75,-238.5)">
                <path d="M409.5,507L409.5,468L448.5,429L487.5,429L526.5,468L526.5,507L487.5,546L448.5,546L409.5,507Z" style="fill:rgb(215,204,144);stroke:rgb(215,204,144);stroke-width:1px;"/>
            </g>
            <g transform="matrix(-1,0,0,1,2310.25,34.5)">
                <path d="M1755,546L1794,585L1833,585L1872,546L1872,448.5L1833,409.5L1794,409.5L1755,448.5L1755,546Z" style="fill:rgb(215,204,144);stroke:rgb(215,204,144);stroke-width:1px;"/>
            </g>
            <g transform="matrix(-1,0,0,1,2310.25,34.5)">
                <path d="M721.5,312L741,292.5L780,292.5L799.5,312L799.5,390L780,409.5L741,409.5L721.5,390L721.5,312Z" style="fill:rgb(215,204,144);stroke:rgb(215,204,144);stroke-width:1px;"/>
            </g>
            <g transform="matrix(-1,0,0,1,2310.25,34.5)">
                <path d="M1677,117L1677,39L1696.5,19.5L1735.5,19.5L1755,39L1755,117L1735.5,136.5L1696.5,136.5L1677,117Z" style="fill:rgb(215,204,144);stroke:rgb(215,204,144);stroke-width:1px;"/>
            </g>
        </g>
        <g transform="matrix(1,0,0,1,-28.75,34.5)">
            <g id="Layer1">
                <path d="M1443,1345.5L838.5,1345.5L721.5,1306.5L643.5,1267.5L565.5,1189.5L526.5,1111.5L526.5,858L565.5,741L682.5,507L760.5,429L877.5,351L1033.5,292.5L1111.5,273L1170,273L1248,292.5L1404,351L1521,429L1599,507L1716,741L1755,858L1755,1111.5L1716,1189.5L1638,1267.5L1560,1306.5L1443,1345.5ZM1150.5,390L1131,390L1014,429L936,468L877.5,507L760.5,624L682.5,780L643.5,897L643.5,1072.5L663,1111.5L741,1189.5L877.5,1228.5L1404,1228.5L1540.5,1189.5L1618.5,1111.5L1638,1072.5L1638,897L1599,780L1521,624L1404,507L1345.5,468L1267.5,429L1150.5,390Z" style="fill:rgb(219,131,138);stroke:rgb(219,131,138);stroke-width:1px;"/>
            </g>
        </g>
    </g>
</svg>
