<?xml version="1.0" encoding="UTF-8" standalone="no"?>
<!DOCTYPE svg PUBLIC "-//W3C//DTD SVG 1.1//EN" "http://www.w3.org/Graphics/SVG/1.1/DTD/svg11.dtd">
<svg width="100%" height="100%" viewBox="0 0 4634 3475" version="1.1" xmlns="http://www.w3.org/2000/svg" xmlns:xlink="http://www.w3.org/1999/xlink" xml:space="preserve" xmlns:serif="http://www.serif.com/" style="fill-rule:evenodd;clip-rule:evenodd;stroke-linecap:round;stroke-linejoin:round;stroke-miterlimit:1.5;">
    <g transform="matrix(2.08333,0,0,2.08333,0,0)">
        <g id="Layer22">
            <g transform="matrix(1,0,0,1,-30.5,-11.45)">
                <path d="M822.6,1508.1L799.75,1530.95L799.75,1622.35L822.6,1599.5L891.15,1599.5L936.85,1622.35L959.7,1599.5L1028.25,1599.5L1073.95,1622.35L1096.8,1599.5L1119.65,1530.95L822.6,1508.1Z" style="fill:rgb(170,95,21);stroke:rgb(170,95,21);stroke-width:1px;"/>
            </g>
            <g transform="matrix(-1,0,0,1,2254.5,-11.45)">
                <path d="M822.6,1508.1L799.75,1530.95L799.75,1622.35L822.6,1599.5L891.15,1599.5L936.85,1622.35L959.7,1599.5L1028.25,1599.5L1073.95,1622.35L1096.8,1599.5L1119.65,1530.95L822.6,1508.1Z" style="fill:rgb(170,95,21);stroke:rgb(170,95,21);stroke-width:1px;"/>
            </g>
        </g>
        <g id="Layer21">
            <g transform="matrix(1,0,0,1,38.05,-11.45)">
                <path d="M731.2,1530.95L685.5,1530.95L639.8,1576.65L616.95,1622.35L662.65,1599.5L685.5,1599.5L708.35,1622.35L731.2,1622.35L731.2,1530.95Z" style="fill:rgb(0,16,22);stroke:rgb(0,16,22);stroke-width:1px;"/>
            </g>
            <g transform="matrix(1,0,0,1,175.15,-11.45)">
                <path d="M731.2,1530.95L685.5,1530.95L639.8,1576.65L616.95,1622.35L662.65,1599.5L685.5,1599.5L708.35,1622.35L731.2,1622.35L731.2,1530.95Z" style="fill:rgb(0,16,22);stroke:rgb(0,16,22);stroke-width:1px;"/>
            </g>
            <g transform="matrix(1,0,0,1,312.25,-11.45)">
                <path d="M731.2,1530.95L685.5,1530.95L639.8,1576.65L616.95,1622.35L662.65,1599.5L685.5,1599.5L708.35,1622.35L731.2,1622.35L731.2,1530.95Z" style="fill:rgb(0,16,22);stroke:rgb(0,16,22);stroke-width:1px;"/>
            </g>
            <g transform="matrix(-1,0,0,1,1911.75,-11.45)">
                <path d="M731.2,1530.95L685.5,1530.95L639.8,1576.65L616.95,1622.35L662.65,1599.5L685.5,1599.5L708.35,1622.35L731.2,1622.35L731.2,1530.95Z" style="fill:rgb(0,16,22);stroke:rgb(0,16,22);stroke-width:1px;"/>
            </g>
            <g transform="matrix(-1,0,0,1,2048.85,-11.45)">
                <path d="M731.2,1530.95L685.5,1530.95L639.8,1576.65L616.95,1622.35L662.65,1599.5L685.5,1599.5L708.35,1622.35L731.2,1622.35L731.2,1530.95Z" style="fill:rgb(0,16,22);stroke:rgb(0,16,22);stroke-width:1px;"/>
            </g>
            <g transform="matrix(-1,0,0,1,2185.95,-11.45)">
                <path d="M731.2,1530.95L685.5,1530.95L639.8,1576.65L616.95,1622.35L662.65,1599.5L685.5,1599.5L708.35,1622.35L731.2,1622.35L731.2,1530.95Z" style="fill:rgb(0,16,22);stroke:rgb(0,16,22);stroke-width:1px;"/>
            </g>
        </g>
        <g transform="matrix(1,0,0,1,-30.5,-11.45)">
            <g id="Layer9">
                <path d="M1256.75,159.95L1279.6,114.25L1325.3,68.55L1462.4,68.55L1599.5,114.25L1645.2,159.95L1736.6,205.65L1782.3,251.35L1850.85,251.35L1873.7,228.5L1873.7,205.65L1919.4,205.65L1919.4,297.05L1873.7,342.75L1713.75,342.75L1690.9,319.9L1622.35,274.2L1599.5,274.2L1530.95,228.5L1439.55,228.5L1393.85,251.35L1393.85,319.9L1302.45,365.6L1256.75,411.3L1211.05,411.3L1211.05,502.7L1073.95,502.7L1073.95,411.3L1028.25,411.3L982.55,365.6L891.15,319.9L891.15,251.35L845.45,228.5L754.05,228.5L685.5,274.2L662.65,274.2L594.1,319.9L571.25,342.75L411.3,342.75L365.6,297.05L365.6,205.65L411.3,205.65L411.3,228.5L434.15,251.35L502.7,251.35L548.4,205.65L639.8,159.95L685.5,114.25L822.6,68.55L959.7,68.55L1005.4,114.25L1028.25,159.95L1256.75,159.95Z" style="fill:rgb(32,15,51);stroke:rgb(32,15,51);stroke-width:1px;"/>
            </g>
        </g>
        <g transform="matrix(1,0,0,1,-30.5,-11.45)">
            <g id="Layer13">
                <path d="M1165.35,616.95L1119.65,616.95L1096.8,571.25L868.3,571.25L822.6,525.55L822.6,274.2L845.45,251.35L868.3,274.2L868.3,388.45L1005.4,388.45L1028.25,411.3L1051.1,388.45L1073.95,388.45L1096.8,411.3L1096.8,457L1119.65,479.85L1165.35,479.85L1188.2,457L1188.2,411.3L1211.05,388.45L1233.9,388.45L1256.75,411.3L1279.6,388.45L1416.7,388.45L1416.7,274.2L1439.55,251.35L1462.4,274.2L1462.4,525.55L1416.7,571.25L1188.2,571.25L1165.35,616.95Z" style="fill:rgb(191,176,126);stroke:rgb(191,176,126);stroke-width:1px;"/>
            </g>
        </g>
        <g id="Layer12">
            <g transform="matrix(1,0,0,1,-30.5,-11.45)">
                <path d="M868.3,274.2L868.3,411.3L891.15,434.15L914,525.55L959.7,525.55L1051.1,434.15L1051.1,388.45L1028.25,388.45L982.55,342.75L959.7,297.05L936.85,297.05L868.3,274.2Z" style="fill:rgb(56,44,46);stroke:rgb(56,44,46);stroke-width:1px;"/>
            </g>
            <g transform="matrix(-1,0,0,1,2254.5,-11.45)">
                <path d="M868.3,274.2L868.3,411.3L891.15,434.15L914,525.55L959.7,525.55L1051.1,434.15L1051.1,388.45L1028.25,388.45L982.55,342.75L959.7,297.05L936.85,297.05L868.3,274.2Z" style="fill:rgb(56,44,46);stroke:rgb(56,44,46);stroke-width:1px;"/>
            </g>
        </g>
        <g transform="matrix(1,0,0,1,-30.5,-11.45)">
            <g id="Layer19">
                <path d="M822.6,1485.25L868.3,1462.4L868.3,1416.7L845.45,1393.85L799.75,1325.3L1485.25,1325.3L1439.55,1393.85L1416.7,1416.7L1416.7,1462.4L1462.4,1485.25L1462.4,1508.1L1439.55,1530.95L1073.95,1530.95L845.45,1530.95L822.6,1508.1L822.6,1485.25Z" style="fill:rgb(160,15,27);stroke:rgb(160,15,27);stroke-width:1px;"/>
            </g>
        </g>
        <g transform="matrix(1,0,0,1,-30.5,-11.45)">
            <g id="Layer18">
                <path d="M639.8,982.55L639.8,1165.35L685.5,1256.75L799.75,1371L845.45,1393.85L822.6,1325.3L891.15,1393.85L914,1393.85L891.15,1348.15L959.7,1393.85L982.55,1393.85L982.55,1371L1028.25,1393.85L1256.75,1393.85L1302.45,1371L1302.45,1393.85L1325.3,1393.85L1393.85,1348.15L1371,1393.85L1393.85,1393.85L1462.4,1325.3L1439.55,1393.85L1485.25,1371L1599.5,1256.75L1645.2,1165.35L1645.2,982.55L1485.25,936.85L799.75,936.85L639.8,982.55Z" style="fill:rgb(34,29,81);stroke:rgb(34,29,81);stroke-width:1px;"/>
            </g>
        </g>
        <g transform="matrix(1,0,0,1,-30.5,-11.45)">
            <g id="Layer20">
                <path d="M1119.65,1393.85L1073.95,1439.55L1073.95,1462.4L1096.8,1485.25L1188.2,1485.25L1211.05,1462.4L1211.05,1439.55L1165.35,1393.85L1119.65,1393.85Z" style="fill:rgb(126,127,108);stroke:rgb(126,127,108);stroke-width:1px;"/>
            </g>
        </g>
        <g transform="matrix(1,0,0,1,-30.5,-11.45)">
            <g id="Layer17">
                <path d="M1051.1,1028.25L1096.8,982.55L1188.2,982.55L1233.9,1028.25L1233.9,1416.7L1211.05,1439.55L1188.2,1439.55L1165.35,1393.85L1119.65,1393.85L1096.8,1439.55L1073.95,1439.55L1051.1,1416.7L1051.1,1028.25Z" style="fill:rgb(98,95,112);stroke:rgb(98,95,112);stroke-width:1px;"/>
            </g>
        </g>
        <g transform="matrix(1,0,0,1,-30.5,-11.45)">
            <g id="Layer16">
                <path d="M685.5,754.05L662.65,776.9L639.8,822.6L639.8,982.55L662.65,982.55L685.5,1028.25L731.2,1028.25L754.05,982.55L776.9,982.55L799.75,936.85L845.45,936.85L868.3,982.55L891.15,982.55L914,1028.25L959.7,1028.25L982.55,982.55L1005.4,982.55L1028.25,936.85L1073.95,936.85L1096.8,982.55L1188.2,982.55L1211.05,936.85L1256.75,936.85L1279.6,982.55L1302.45,982.55L1325.3,1028.25L1371,1028.25L1393.85,982.55L1416.7,982.55L1439.55,936.85L1485.25,936.85L1508.1,982.55L1530.95,982.55L1553.8,1028.25L1599.5,1028.25L1622.35,982.55L1645.2,982.55L1645.2,822.6L1622.35,776.9L1599.5,754.05L1462.4,891.15L1302.45,891.15L1279.6,845.45L1233.9,845.45L1211.05,891.15L1073.95,891.15L1051.1,845.45L1005.4,845.45L982.55,891.15L822.6,891.15L685.5,754.05Z" style="fill:rgb(146,79,29);stroke:rgb(146,79,29);stroke-width:1px;"/>
            </g>
        </g>
        <g transform="matrix(1,0,0,1,-30.5,-11.45)">
            <g id="Layer15">
                <path d="M822.6,365.6L799.75,411.3L799.75,502.7L754.05,548.4L708.35,594.1L685.5,754.05L822.6,891.15L982.55,891.15L1028.25,936.85L1073.95,936.85L1096.8,982.55L1188.2,982.55L1211.05,936.85L1256.75,936.85L1302.45,891.15L1462.4,891.15L1599.5,754.05L1576.65,594.1L1530.95,548.4L1485.25,502.7L1485.25,411.3L1462.4,365.6L1462.4,525.55L1416.7,571.25L1188.2,571.25L1165.35,616.95L1119.65,616.95L1096.8,571.25L868.3,571.25L822.6,525.55L822.6,365.6Z" style="fill:rgb(188,143,3);stroke:rgb(188,143,3);stroke-width:1px;"/>
            </g>
        </g>
        <g id="Layer14">
            <g transform="matrix(1,0,0,1,-30.5,-11.45)">
                <path d="M731.2,662.65L868.3,662.65L868.3,685.5L845.45,708.35L822.6,754.05L776.9,754.05L754.05,708.35L731.2,685.5L731.2,662.65Z" style="fill:rgb(51,47,50);stroke:rgb(51,47,50);stroke-width:1px;"/>
            </g>
            <g transform="matrix(1,0,0,1,655,-11.45)">
                <path d="M731.2,662.65L868.3,662.65L868.3,685.5L845.45,708.35L822.6,754.05L776.9,754.05L754.05,708.35L731.2,685.5L731.2,662.65Z" style="fill:rgb(51,47,50);stroke:rgb(51,47,50);stroke-width:1px;"/>
            </g>
            <g transform="matrix(1,0,0,1,-30.5,-11.45)">
                <path d="M914,662.65L914,685.5L959.7,708.35L982.55,754.05L1028.25,754.05L1051.1,708.35L1096.8,685.5L1096.8,662.65" style="fill:rgb(51,47,50);stroke:rgb(51,47,50);stroke-width:1px;"/>
            </g>
            <g transform="matrix(1,0,0,1,-121.9,125.65)">
                <path d="M914,662.65L914,685.5L959.7,708.35L982.55,754.05L1028.25,754.05L1051.1,708.35L1096.8,685.5L1096.8,662.65" style="fill:rgb(51,47,50);stroke:rgb(51,47,50);stroke-width:1px;"/>
            </g>
            <g transform="matrix(1,0,0,1,243.7,-11.45)">
                <path d="M914,662.65L914,685.5L959.7,708.35L982.55,754.05L1028.25,754.05L1051.1,708.35L1096.8,685.5L1096.8,662.65" style="fill:rgb(51,47,50);stroke:rgb(51,47,50);stroke-width:1px;"/>
            </g>
            <g transform="matrix(1,0,0,1,335.1,125.65)">
                <path d="M914,662.65L914,685.5L959.7,708.35L982.55,754.05L1028.25,754.05L1051.1,708.35L1096.8,685.5L1096.8,662.65" style="fill:rgb(51,47,50);stroke:rgb(51,47,50);stroke-width:1px;"/>
            </g>
            <g transform="matrix(1,0,0,-1,106.6,1542.35)">
                <path d="M936.85,662.65L936.85,685.5L959.7,708.35L982.55,754.05L1028.25,754.05L1051.1,708.35L1073.95,685.5L1073.95,662.65" style="fill:rgb(51,47,50);stroke:rgb(51,47,50);stroke-width:1px;"/>
            </g>
        </g>
        <g id="Layer10">
            <g transform="matrix(1,0,0,1,-30.5,-11.45)">
                <path d="M1005.4,365.6L982.55,342.75L959.7,297.05L936.85,297.05L914,319.9L914,365.6L936.85,388.45L1028.25,388.45L1005.4,365.6Z" style="fill:rgb(160,15,27);stroke:rgb(160,15,27);stroke-width:1px;"/>
            </g>
            <g transform="matrix(-1,0,0,1,2254.5,-11.45)">
                <path d="M1005.4,365.6L982.55,342.75L959.7,297.05L936.85,297.05L914,319.9L914,365.6L936.85,388.45L1028.25,388.45L1005.4,365.6Z" style="fill:rgb(160,15,27);stroke:rgb(160,15,27);stroke-width:1px;"/>
            </g>
        </g>
        <g id="Layer23">
            <g transform="matrix(-1,0,0,1,2254.5,-11.45)">
                <path d="M479.85,525.55L434.15,548.4L411.3,571.25L365.6,708.35L342.75,936.85L342.75,982.55L388.45,1233.9L434.15,1302.45L479.85,1348.15L571.25,1393.85L685.5,1416.7L754.05,1416.7L731.2,1393.85L685.5,1348.15L639.8,1279.6L594.1,1142.5L571.25,959.7L594.1,731.2L616.95,616.95L616.95,571.25L616.95,548.4L594.1,525.55L479.85,525.55Z" style="fill:rgb(29,17,50);stroke:rgb(29,17,50);stroke-width:1px;"/>
            </g>
            <g transform="matrix(1,0,0,1,-30.5,-11.45)">
                <path d="M479.85,525.55L434.15,548.4L411.3,571.25L365.6,708.35L342.75,936.85L342.75,982.55L388.45,1233.9L434.15,1302.45L479.85,1348.15L571.25,1393.85L685.5,1416.7L754.05,1416.7L731.2,1393.85L685.5,1348.15L639.8,1279.6L594.1,1142.5L571.25,959.7L594.1,731.2L616.95,616.95L616.95,571.25L616.95,548.4L594.1,525.55L479.85,525.55Z" style="fill:rgb(29,17,50);stroke:rgb(29,17,50);stroke-width:1px;"/>
            </g>
        </g>
        <g id="Layer26">
            <g transform="matrix(-1,0,0,1,2254.5,-11.45)">
                <path d="M351.065,1028.25L400.026,1014.21L418.919,1028.25L462.112,1014.49L487.415,1039.17L502.7,1028.25L548.4,1005.4L576.964,1005.4L594.1,1142.5L639.8,1279.6L685.5,1348.15L525.55,1348.15L388.45,1233.9L351.065,1028.25Z" style="fill:rgb(192,63,67);stroke:rgb(192,63,67);stroke-width:1px;"/>
            </g>
            <g transform="matrix(1,0,0,1,-30.5,-11.45)">
                <path d="M351.065,1028.25L400.026,1014.21L418.919,1028.25L462.112,1014.49L487.415,1039.17L502.7,1028.25L548.4,1005.4L576.964,1005.4L594.1,1142.5L639.8,1279.6L685.5,1348.15L525.55,1348.15L388.45,1233.9L351.065,1028.25Z" style="fill:rgb(192,63,67);stroke:rgb(192,63,67);stroke-width:1px;"/>
            </g>
            <g transform="matrix(-1,0,0,1,2254.5,-11.45)">
                <path d="M525.55,731.2L479.85,776.9L525.55,822.6L571.25,776.9L525.55,731.2Z" style="fill:rgb(192,63,67);stroke:rgb(192,63,67);stroke-width:1px;"/>
            </g>
            <g transform="matrix(1,0,0,1,-30.5,-11.45)">
                <path d="M525.55,731.2L479.85,776.9L525.55,822.6L571.25,776.9L525.55,731.2Z" style="fill:rgb(192,63,67);stroke:rgb(192,63,67);stroke-width:1px;"/>
            </g>
            <g transform="matrix(-1,0,0,1,2254.5,-239.95)">
                <path d="M548.4,754.05L502.7,754.05L479.85,776.9L525.55,822.6L571.25,776.9L548.4,754.05Z" style="fill:rgb(192,63,67);stroke:rgb(192,63,67);stroke-width:1px;"/>
            </g>
            <g transform="matrix(1,0,0,1,-30.5,-239.95)">
                <path d="M548.4,754.05L502.7,754.05L479.85,776.9L525.55,822.6L571.25,776.9L548.4,754.05Z" style="fill:rgb(192,63,67);stroke:rgb(192,63,67);stroke-width:1px;"/>
            </g>
            <g transform="matrix(-1,0,0,1,2254.5,11.4)">
                <path d="M434.15,822.6L388.45,868.3L434.15,914L479.85,868.3L434.15,822.6Z" style="fill:rgb(192,63,67);stroke:rgb(192,63,67);stroke-width:1px;"/>
            </g>
            <g transform="matrix(1,0,0,1,-30.5,11.4)">
                <path d="M434.15,822.6L388.45,868.3L434.15,914L479.85,868.3L434.15,822.6Z" style="fill:rgb(192,63,67);stroke:rgb(192,63,67);stroke-width:1px;"/>
            </g>
            <g transform="matrix(-1,0,0,1,2254.5,-217.1)">
                <path d="M434.15,822.6L388.45,868.3L434.15,914L479.85,868.3L434.15,822.6Z" style="fill:rgb(192,63,67);stroke:rgb(192,63,67);stroke-width:1px;"/>
            </g>
            <g transform="matrix(1,0,0,1,-30.5,-217.1)">
                <path d="M434.15,822.6L388.45,868.3L434.15,914L479.85,868.3L434.15,822.6Z" style="fill:rgb(192,63,67);stroke:rgb(192,63,67);stroke-width:1px;"/>
            </g>
            <g transform="matrix(-1,0,0,1,2254.5,-11.45)">
                <path d="M525.55,959.7L571.25,1005.4L525.55,1051.1L479.85,1005.4L525.55,959.7Z" style="fill:rgb(192,63,67);stroke:rgb(192,63,67);stroke-width:1px;"/>
            </g>
            <g transform="matrix(1,0,0,1,-30.5,-11.45)">
                <path d="M525.55,959.7L571.25,1005.4L525.55,1051.1L479.85,1005.4L525.55,959.7Z" style="fill:rgb(192,63,67);stroke:rgb(192,63,67);stroke-width:1px;"/>
            </g>
            <g transform="matrix(-1,0,0,1,2254.5,11.4)">
                <path d="M434.15,1051.1L479.85,1096.8L434.15,1142.5L388.45,1096.8L434.15,1051.1Z" style="fill:rgb(192,63,67);stroke:rgb(192,63,67);stroke-width:1px;"/>
            </g>
            <g transform="matrix(1,0,0,1,-30.5,11.4)">
                <path d="M434.15,1051.1L479.85,1096.8L434.15,1142.5L388.45,1096.8L434.15,1051.1Z" style="fill:rgb(192,63,67);stroke:rgb(192,63,67);stroke-width:1px;"/>
            </g>
        </g>
        <g id="Layer25">
            <g transform="matrix(-1,0,0,1,2254.5,-11.45)">
                <path d="M754.05,1416.7L685.5,1416.7L571.25,1393.85L479.85,1348.15L434.15,1302.45L388.45,1233.9L367.678,1119.65L411.3,1165.35L502.7,1211.05L525.55,1233.9L571.25,1256.75L594.1,1302.45L616.95,1302.45L639.8,1325.3L685.5,1348.15L754.05,1416.7Z" style="fill:rgb(160,15,27);stroke:rgb(160,15,27);stroke-width:1px;"/>
            </g>
            <g transform="matrix(1,0,0,1,-30.5,-11.45)">
                <path d="M754.05,1416.7L685.5,1416.7L571.25,1393.85L479.85,1348.15L434.15,1302.45L388.45,1233.9L367.678,1119.65L411.3,1165.35L502.7,1211.05L525.55,1233.9L571.25,1256.75L594.1,1302.45L616.95,1302.45L639.8,1325.3L685.5,1348.15L754.05,1416.7Z" style="fill:rgb(160,15,27);stroke:rgb(160,15,27);stroke-width:1px;"/>
            </g>
        </g>
        <g id="Layer24">
            <g transform="matrix(-1,0,0,1,2254.5,-11.45)">
                <path d="M502.7,776.9L525.55,754.05L548.4,776.9L525.55,799.75L502.7,776.9Z" style="fill:rgb(160,15,27);stroke:rgb(160,15,27);stroke-width:1px;"/>
            </g>
            <g transform="matrix(1,0,0,1,-30.5,-11.45)">
                <path d="M502.7,776.9L525.55,754.05L548.4,776.9L525.55,799.75L502.7,776.9Z" style="fill:rgb(160,15,27);stroke:rgb(160,15,27);stroke-width:1px;"/>
            </g>
            <g transform="matrix(-1,0,0,1,2254.5,-239.95)">
                <path d="M502.7,776.9L525.55,754.05L548.4,776.9L525.55,799.75L502.7,776.9Z" style="fill:rgb(160,15,27);stroke:rgb(160,15,27);stroke-width:1px;"/>
            </g>
            <g transform="matrix(1,0,0,1,-30.5,-239.95)">
                <path d="M502.7,776.9L525.55,754.05L548.4,776.9L525.55,799.75L502.7,776.9Z" style="fill:rgb(160,15,27);stroke:rgb(160,15,27);stroke-width:1px;"/>
            </g>
            <g transform="matrix(-1,0,0,1,2345.9,102.8)">
                <path d="M502.7,776.9L525.55,754.05L548.4,776.9L525.55,799.75L502.7,776.9Z" style="fill:rgb(160,15,27);stroke:rgb(160,15,27);stroke-width:1px;"/>
            </g>
            <g transform="matrix(1,0,0,1,-121.9,102.8)">
                <path d="M502.7,776.9L525.55,754.05L548.4,776.9L525.55,799.75L502.7,776.9Z" style="fill:rgb(160,15,27);stroke:rgb(160,15,27);stroke-width:1px;"/>
            </g>
            <g transform="matrix(-1,0,0,1,2345.9,-125.7)">
                <path d="M502.7,776.9L525.55,754.05L548.4,776.9L525.55,799.75L502.7,776.9Z" style="fill:rgb(160,15,27);stroke:rgb(160,15,27);stroke-width:1px;"/>
            </g>
            <g transform="matrix(1,0,0,1,-121.9,-125.7)">
                <path d="M502.7,776.9L525.55,754.05L548.4,776.9L525.55,799.75L502.7,776.9Z" style="fill:rgb(160,15,27);stroke:rgb(160,15,27);stroke-width:1px;"/>
            </g>
            <g transform="matrix(-1,0,0,1,2254.5,217.05)">
                <path d="M502.7,776.9L525.55,754.05L548.4,776.9L525.55,799.75L502.7,776.9Z" style="fill:rgb(160,15,27);stroke:rgb(160,15,27);stroke-width:1px;"/>
            </g>
            <g transform="matrix(1,0,0,1,-30.5,217.05)">
                <path d="M502.7,776.9L525.55,754.05L548.4,776.9L525.55,799.75L502.7,776.9Z" style="fill:rgb(160,15,27);stroke:rgb(160,15,27);stroke-width:1px;"/>
            </g>
            <g transform="matrix(-1,0,0,1,2345.9,331.3)">
                <path d="M502.7,776.9L525.55,754.05L548.4,776.9L525.55,799.75L502.7,776.9Z" style="fill:rgb(160,15,27);stroke:rgb(160,15,27);stroke-width:1px;"/>
            </g>
            <g transform="matrix(1,0,0,1,-121.9,331.3)">
                <path d="M502.7,776.9L525.55,754.05L548.4,776.9L525.55,799.75L502.7,776.9Z" style="fill:rgb(160,15,27);stroke:rgb(160,15,27);stroke-width:1px;"/>
            </g>
        </g>
        <g id="Layer11">
            <g transform="matrix(1,0,0,1,-53.35,-11.45)">
                <path d="M959.7,297.05L914,297.05L868.3,251.35L799.75,251.35L754.05,274.2L662.65,297.05L594.1,342.75L434.15,342.75L388.45,297.05L388.45,205.65L434.15,205.65L434.15,297.05L479.85,319.9L548.4,319.9L594.1,297.05L662.65,251.35L776.9,205.65L868.3,205.65L936.85,251.35L1005.4,274.2L1073.95,342.75L1119.65,365.6L1211.05,365.6L1256.75,342.75L1325.3,274.2L1393.85,251.35L1462.4,205.65L1553.8,205.65L1668.05,251.35L1736.6,297.05L1782.3,319.9L1850.85,319.9L1896.55,297.05L1896.55,205.65L1942.25,205.65L1942.25,297.05L1896.55,342.75L1759.45,342.75L1736.6,342.75L1668.05,297.05L1576.65,274.2L1530.95,251.35L1462.4,251.35L1439.55,274.2L1416.7,297.05L1348.15,297.05L1325.3,342.75L1279.6,388.45L1233.9,388.45L1211.05,411.3L1211.05,457L1188.2,479.85L1142.5,479.85L1119.65,457L1119.65,411.3L1096.8,388.45L1051.1,388.45L1005.4,342.75L982.55,297.05L959.7,297.05Z" style="fill:rgb(188,143,3);stroke:rgb(188,143,3);stroke-width:1px;"/>
            </g>
            <g transform="matrix(1,0,0,1,-30.5,-11.45)">
                <path d="M411.3,205.65L388.45,68.55L365.6,91.4L365.6,205.65L411.3,205.65Z" style="fill:rgb(188,143,3);stroke:rgb(188,143,3);stroke-width:1px;"/>
            </g>
            <g transform="matrix(-1,0,0,1,2254.5,-11.45)">
                <path d="M411.3,205.65L388.45,68.55L365.6,91.4L365.6,205.65L411.3,205.65Z" style="fill:rgb(188,143,3);stroke:rgb(188,143,3);stroke-width:1px;"/>
            </g>
        </g>
    </g>
</svg>
