<?xml version="1.0" encoding="UTF-8" standalone="no"?>
<!DOCTYPE svg PUBLIC "-//W3C//DTD SVG 1.1//EN" "http://www.w3.org/Graphics/SVG/1.1/DTD/svg11.dtd">
<svg width="100%" height="100%" viewBox="0 0 4634 3475" version="1.1" xmlns="http://www.w3.org/2000/svg" xmlns:xlink="http://www.w3.org/1999/xlink" xml:space="preserve" xmlns:serif="http://www.serif.com/" style="fill-rule:evenodd;clip-rule:evenodd;stroke-linecap:round;stroke-linejoin:round;stroke-miterlimit:1.5;">
    <g transform="matrix(2.08333,0,0,2.08333,0,0)">
        <g transform="matrix(1,0,0,1,-41.925,-11.45)">
            <g id="Layer8">
                <path d="M411.3,228.5L434.15,297.05L479.85,388.45L597.364,502.7L662.65,536.975L708.35,548.4L1188.2,548.4L1233.9,594.1L1233.9,1279.6L1188.2,1325.3L1142.5,1325.3L1142.5,1508.1L1188.2,1553.8L1279.6,1553.8L1348.15,1508.1L1439.55,1279.6L1439.55,594.1L1142.5,297.05L548.4,297.05L411.3,182.8L411.3,228.5Z" style="fill:rgb(224,208,209);stroke:rgb(224,208,209);stroke-width:1px;"/>
            </g>
        </g>
        <g id="Layer12">
            <g transform="matrix(1,0,0,1,-41.925,-11.45)">
                <path d="M479.85,182.8L479.85,251.35L525.55,274.2L571.25,319.9L1165.35,319.9L1462.4,616.95L1462.4,1348.15L1371,1553.8L1416.7,1553.8L1462.4,1530.95L1508.1,1485.25L1530.95,1416.7L1576.65,1416.7L1599.5,1439.55L1599.5,1599.5L1645.2,1645.2L1736.6,1645.2L1736.6,1553.8L1690.9,1553.8L1690.9,1256.75L1645.2,1188.2L1599.5,1165.35L1599.5,708.35L1599.5,662.65L1576.65,594.1L1530.95,525.55L1211.05,205.65L1142.5,182.8L776.9,182.8L713.379,159.95L685.5,182.8L479.85,182.8Z" style="fill:rgb(51,84,157);stroke:rgb(51,84,157);stroke-width:1px;"/>
            </g>
            <g transform="matrix(1,0,0,1,-41.925,-11.45)">
                <path d="M502.7,1028.25L594.1,1028.25L594.1,1279.6L616.95,1325.3L822.6,1325.3L868.3,1348.15L891.15,1371L914,1416.7L914,1508.1L685.5,1508.1L594.1,1462.4L548.4,1416.7L514.125,1348.15L502.7,1302.45L502.7,1028.25Z" style="fill:rgb(51,84,157);stroke:rgb(51,84,157);stroke-width:1px;"/>
            </g>
            <g transform="matrix(1,0,0,1,-41.925,-11.45)">
                <path d="M1188.2,1188.2L1005.4,1188.2L959.7,1233.9L959.7,1530.95L936.85,1553.8L731.2,1553.8L731.2,1645.2L1051.1,1645.2L1096.8,1599.5L1096.8,1302.45L1119.65,1279.6L1188.2,1279.6L1188.2,1188.2Z" style="fill:rgb(51,84,157);stroke:rgb(51,84,157);stroke-width:1px;"/>
            </g>
        </g>
        <g id="Layer11">
            <g transform="matrix(1,0,0,1,-41.925,-11.45)">
                <path d="M1142.5,411.3L891.15,411.3L891.15,457L1119.65,457L1142.5,434.15L1142.5,411.3Z" style="fill:rgb(239,118,0);stroke:rgb(239,118,0);stroke-width:1px;"/>
            </g>
            <g transform="matrix(1,0,0,1,-41.925,-11.45)">
                <path d="M1142.5,365.6L1416.7,639.8L1416.7,1279.6L1393.85,1371L1348.15,1462.4L1279.6,1553.8L1393.85,1553.8L1439.55,1485.25L1485.25,1393.85L1508.1,1302.45L1508.1,616.95L1188.2,297.05L914,297.05L914,274.2L1142.5,274.2L1142.5,251.35L1119.65,228.5L891.15,228.5L868.3,251.35L868.3,297.05L616.95,297.05L502.7,182.8L411.3,182.8L594.1,365.6L1142.5,365.6Z" style="fill:rgb(239,118,0);stroke:rgb(239,118,0);stroke-width:1px;"/>
            </g>
            <g transform="matrix(1,0,0,1,-41.925,-11.45)">
                <path d="M799.75,137.1L799.75,45.7L1073.95,45.7L1096.8,68.55L1096.8,137.1L799.75,137.1Z" style="fill:rgb(239,118,0);stroke:rgb(239,118,0);stroke-width:1px;"/>
            </g>
            <g transform="matrix(1,0,0,1,-41.925,-11.45)">
                <path d="M388.45,1005.4L365.6,868.3L411.3,845.45L457,868.3L548.4,868.3L548.4,959.7L594.1,959.7L594.1,868.3L685.5,868.3L708.35,845.45L731.2,868.3L708.35,1005.4L685.5,1005.4L548.4,1028.25L411.3,1005.4L388.45,1005.4Z" style="fill:rgb(239,118,0);stroke:rgb(239,118,0);stroke-width:1px;"/>
            </g>
            <g transform="matrix(1,0,0,1,-41.925,-11.45)">
                <path d="M525.55,1645.2L525.55,1576.65L548.4,1553.8L685.5,1553.8L685.5,1645.2L616.95,1645.2L616.95,1599.5L571.25,1599.5L571.25,1645.2L525.55,1645.2Z" style="fill:rgb(239,118,0);stroke:rgb(239,118,0);stroke-width:1px;"/>
            </g>
            <g transform="matrix(1,0,0,1,-41.925,-11.45)">
                <path d="M868.3,1211.05L868.3,754.05L1142.5,754.05L1142.5,1096.8L1119.65,1119.65L1096.8,1096.8L1096.8,982.55L1051.1,982.55L1051.1,1096.8L1005.4,1119.65L959.7,1096.8L959.7,868.3L914,868.3L914,1279.6L891.15,1256.75L868.3,1211.05Z" style="fill:rgb(239,118,0);stroke:rgb(239,118,0);stroke-width:1px;"/>
            </g>
            <g transform="matrix(1,0,0,1,-41.925,-11.45)">
                <rect x="1439.55" y="137.1" width="365.6" height="45.7" style="fill:rgb(239,118,0);stroke:rgb(239,118,0);stroke-width:1px;"/>
            </g>
            <g transform="matrix(1,0,0,1,-41.925,-11.45)">
                <path d="M1439.55,228.5L1828,228.5L1782.3,319.9L1599.5,319.9L1599.5,365.6L1782.3,365.6L1782.3,411.3L1508.1,411.3L1462.4,365.6L1462.4,319.9L1439.55,319.9L1439.55,228.5Z" style="fill:rgb(239,118,0);stroke:rgb(239,118,0);stroke-width:1px;"/>
            </g>
            <g transform="matrix(1,0,0,1,-41.925,-11.45)">
                <path d="M1828,1416.7L1873.7,1393.85L1896.55,1371L1919.4,1325.3L1919.4,1233.9L1919.4,616.95L1736.6,616.95L1736.6,1416.7L1759.45,1393.85L1782.3,1348.15L1782.3,1325.3L1782.3,754.05L1805.15,731.2L1828,731.2L1828,1416.7Z" style="fill:rgb(239,118,0);stroke:rgb(239,118,0);stroke-width:1px;"/>
            </g>
            <g transform="matrix(1,0,0,1,-41.925,-11.45)">
                <path d="M1782.3,1645.2L1782.3,1553.8L1919.4,1553.8L1942.25,1576.65L1942.25,1645.2L1896.55,1645.2L1896.55,1599.5L1850.85,1599.5L1850.85,1645.2L1782.3,1645.2Z" style="fill:rgb(239,118,0);stroke:rgb(239,118,0);stroke-width:1px;"/>
            </g>
        </g>
        <g id="Layer10">
            <g transform="matrix(1,0,0,1,-41.925,-11.45)">
                <path d="M891.15,228.5L868.3,251.35L868.3,434.15L891.15,457L914,457L914,228.5L891.15,228.5Z" style="fill:rgb(255,239,101);stroke:rgb(255,239,101);stroke-width:1px;"/>
            </g>
            <g transform="matrix(1,0,0,1,-41.925,-11.45)">
                <path d="M685.5,182.8L685.5,114.25L754.05,45.7L822.6,45.7L822.6,137.1L799.75,137.1L776.9,159.95L776.9,182.8L685.5,182.8Z" style="fill:rgb(255,239,101);stroke:rgb(255,239,101);stroke-width:1px;"/>
            </g>
            <g transform="matrix(1,0,0,1,-41.925,-11.45)">
                <rect x="914" y="45.7" width="45.7" height="91.4" style="fill:rgb(255,239,101);stroke:rgb(255,239,101);stroke-width:1px;"/>
            </g>
            <g transform="matrix(1,0,0,1,-41.925,-11.45)">
                <rect x="1005.4" y="228.5" width="91.4" height="45.7" style="fill:rgb(255,239,101);stroke:rgb(255,239,101);stroke-width:1px;"/>
            </g>
            <g transform="matrix(1,0,0,1,-41.925,-11.45)">
                <rect x="1005.4" y="319.9" width="91.4" height="45.7" style="fill:rgb(255,239,101);stroke:rgb(255,239,101);stroke-width:1px;"/>
            </g>
            <g transform="matrix(1,0,0,1,-41.925,-11.45)">
                <rect x="1005.4" y="411.3" width="91.4" height="45.7" style="fill:rgb(255,239,101);stroke:rgb(255,239,101);stroke-width:1px;"/>
            </g>
            <g transform="matrix(1,0,0,1,-41.925,-11.45)">
                <path d="M708.35,1005.4L639.8,1096.8L594.1,1096.8L594.1,1073.95L571.25,1051.1L525.55,1051.1L502.7,1073.95L502.7,1096.8L457,1096.8L411.3,1051.1L388.45,1005.4L708.35,1005.4Z" style="fill:rgb(255,239,101);stroke:rgb(255,239,101);stroke-width:1px;"/>
            </g>
            <g transform="matrix(1,0,0,1,-41.925,-11.45)">
                <path d="M685.5,868.3L685.5,845.45L708.35,799.75L731.2,776.9L731.2,868.3L685.5,868.3Z" style="fill:rgb(255,239,101);stroke:rgb(255,239,101);stroke-width:1px;"/>
            </g>
            <g transform="matrix(1,0,0,1,-41.925,-11.45)">
                <path d="M639.8,868.3L639.8,799.75L616.95,822.6L594.1,868.3L594.1,891.15L639.8,868.3Z" style="fill:rgb(255,239,101);stroke:rgb(255,239,101);stroke-width:1px;"/>
            </g>
            <g transform="matrix(1,0,0,1,-41.925,-11.45)">
                <path d="M548.4,891.15L548.4,868.3L525.55,822.6L502.7,799.75L502.7,868.3L548.4,891.15Z" style="fill:rgb(255,239,101);stroke:rgb(255,239,101);stroke-width:1px;"/>
            </g>
            <g transform="matrix(1,0,0,1,-41.925,-11.45)">
                <path d="M365.6,868.3L365.6,776.9L388.45,776.9L434.15,799.75L457,834L457,868.3L365.6,868.3Z" style="fill:rgb(255,239,101);stroke:rgb(255,239,101);stroke-width:1px;"/>
            </g>
            <g transform="matrix(1,0,0,1,-41.925,-11.45)">
                <path d="M868.3,776.9L868.3,685.5L914,639.8L1188.2,639.8L1188.2,731.2L1142.5,776.9L868.3,776.9Z" style="fill:rgb(255,239,101);stroke:rgb(255,239,101);stroke-width:1px;"/>
            </g>
            <g transform="matrix(1,0,0,1,-41.925,-11.45)">
                <rect x="868.3" y="868.3" width="45.7" height="137.1" style="fill:rgb(255,239,101);stroke:rgb(255,239,101);stroke-width:1px;"/>
            </g>
            <g transform="matrix(1,0,0,1,-41.925,-11.45)">
                <rect x="868.3" y="1096.8" width="45.7" height="91.4" style="fill:rgb(255,239,101);stroke:rgb(255,239,101);stroke-width:1px;"/>
            </g>
            <g transform="matrix(1,0,0,1,-41.925,-11.45)">
                <rect x="959.7" y="868.3" width="182.8" height="137.1" style="fill:rgb(255,239,101);stroke:rgb(255,239,101);stroke-width:1px;"/>
            </g>
            <g transform="matrix(1,0,0,1,-41.925,-11.45)">
                <path d="M1462.4,182.8L1462.4,137.1L1233.9,137.1L1325.3,182.8L1416.7,274.2L1462.4,365.6L1462.4,228.5L1439.55,228.5L1416.7,205.65L1416.7,182.8L1462.4,182.8Z" style="fill:rgb(255,239,101);stroke:rgb(255,239,101);stroke-width:1px;"/>
            </g>
            <g transform="matrix(1,0,0,1,-41.925,-11.45)">
                <rect x="1599.5" y="137.1" width="91.4" height="45.7" style="fill:rgb(255,239,101);stroke:rgb(255,239,101);stroke-width:1px;"/>
            </g>
            <g transform="matrix(1,0,0,1,-41.925,-11.45)">
                <path d="M1782.3,182.8L1782.3,137.1L1896.55,137.1L1873.7,159.95L1828,182.8L1782.3,182.8Z" style="fill:rgb(255,239,101);stroke:rgb(255,239,101);stroke-width:1px;"/>
            </g>
            <g transform="matrix(1,0,0,1,-41.925,217.05)">
                <path d="M1782.3,182.8L1782.3,137.1L1850.85,137.1L1828,159.95L1782.3,182.8Z" style="fill:rgb(255,239,101);stroke:rgb(255,239,101);stroke-width:1px;"/>
            </g>
            <g transform="matrix(1,0,0,1,-41.925,-11.45)">
                <path d="M1782.3,228.5L1782.3,319.9L1828,297.05L1850.85,274.2L1873.7,228.5L1782.3,228.5Z" style="fill:rgb(255,239,101);stroke:rgb(255,239,101);stroke-width:1px;"/>
            </g>
            <g transform="matrix(1,0,0,1,-41.925,-11.45)">
                <rect x="1599.5" y="228.5" width="91.4" height="91.4" style="fill:rgb(255,239,101);stroke:rgb(255,239,101);stroke-width:1px;"/>
            </g>
            <g transform="matrix(1,0,0,1,-41.925,-11.45)">
                <rect x="1599.5" y="365.6" width="91.4" height="45.7" style="fill:rgb(255,239,101);stroke:rgb(255,239,101);stroke-width:1px;"/>
            </g>
            <g transform="matrix(1,0,0,1,-41.925,-11.45)">
                <path d="M1599.5,639.8L1599.5,548.4L1645.2,502.7L1873.7,502.7L1919.4,548.4L1919.4,639.8L1736.6,639.8L1736.6,616.95L1713.75,594.1L1668.05,594.1L1645.2,616.95L1645.2,639.8L1599.5,639.8Z" style="fill:rgb(255,239,101);stroke:rgb(255,239,101);stroke-width:1px;"/>
            </g>
            <g transform="matrix(1,0,0,1,-41.925,-11.45)">
                <rect x="1736.6" y="776.9" width="45.7" height="91.4" style="fill:rgb(255,239,101);stroke:rgb(255,239,101);stroke-width:1px;"/>
            </g>
            <g transform="matrix(1,0,0,1,-41.925,-11.45)">
                <rect x="1828" y="776.9" width="91.4" height="91.4" style="fill:rgb(255,239,101);stroke:rgb(255,239,101);stroke-width:1px;"/>
            </g>
            <g transform="matrix(1,0,0,1,-41.925,-11.45)">
                <rect x="1736.6" y="1005.4" width="45.7" height="91.4" style="fill:rgb(255,239,101);stroke:rgb(255,239,101);stroke-width:1px;"/>
            </g>
            <g transform="matrix(1,0,0,1,-41.925,-11.45)">
                <rect x="1828" y="1005.4" width="91.4" height="91.4" style="fill:rgb(255,239,101);stroke:rgb(255,239,101);stroke-width:1px;"/>
            </g>
            <g transform="matrix(1,0,0,1,-41.925,-11.45)">
                <rect x="1736.6" y="1233.9" width="45.7" height="91.4" style="fill:rgb(255,239,101);stroke:rgb(255,239,101);stroke-width:1px;"/>
            </g>
            <g transform="matrix(1,0,0,1,-41.925,-11.45)">
                <rect x="1828" y="1233.9" width="91.4" height="91.4" style="fill:rgb(255,239,101);stroke:rgb(255,239,101);stroke-width:1px;"/>
            </g>
            <g transform="matrix(1,0,0,1,-41.925,-11.45)">
                <path d="M959.7,1096.8L1051.1,1096.8L1051.1,1165.35L1005.4,1142.5L959.7,1096.8Z" style="fill:rgb(255,239,101);stroke:rgb(255,239,101);stroke-width:1px;"/>
            </g>
            <g transform="matrix(1,0,0,1,-41.925,-11.45)">
                <path d="M1096.8,1096.8L1142.5,1096.8L1142.5,1165.35L1119.65,1142.5L1096.8,1096.8Z" style="fill:rgb(255,239,101);stroke:rgb(255,239,101);stroke-width:1px;"/>
            </g>
        </g>
        <g transform="matrix(1,0,0,1,-41.925,11.4)">
            <g id="Layer13">
                <path d="M616.95,251.35L662.65,205.65L708.35,251.35L662.65,297.05L616.95,251.35Z" style="fill:rgb(43,47,51);stroke:rgb(43,47,51);stroke-width:1px;"/>
            </g>
        </g>
        <g transform="matrix(1,0,0,1,-41.925,11.4)">
            <g id="Layer9">
                <path d="M662.65,274.2L639.8,251.35L662.65,228.5L685.5,251.35L662.65,274.2Z" style="fill:rgb(178,184,161);stroke:rgb(178,184,161);stroke-width:1px;"/>
            </g>
        </g>
    </g>
</svg>
