<?xml version="1.0" encoding="UTF-8" standalone="no"?>
<!DOCTYPE svg PUBLIC "-//W3C//DTD SVG 1.1//EN" "http://www.w3.org/Graphics/SVG/1.1/DTD/svg11.dtd">
<svg width="100%" height="100%" viewBox="0 0 4634 3475" version="1.1" xmlns="http://www.w3.org/2000/svg" xmlns:xlink="http://www.w3.org/1999/xlink" xml:space="preserve" xmlns:serif="http://www.serif.com/" style="fill-rule:evenodd;clip-rule:evenodd;stroke-linecap:round;stroke-linejoin:round;stroke-miterlimit:1.5;">
    <g transform="matrix(2.08333,0,0,2.08333,0,0)">
        <g id="Layer8">
            <g transform="matrix(1,0,0,1,-7.65,-34.3)">
                <path d="M822.6,1302.45L822.6,1553.8L845.45,1576.65L1302.45,1576.65L1325.3,1553.8L1325.3,1302.45L822.6,1302.45Z" style="fill:rgb(17,30,46);stroke:rgb(17,30,46);stroke-width:1px;"/>
            </g>
            <g transform="matrix(1,0,0,1,-7.65,-34.3)">
                <path d="M457,1576.65L457,1439.55L548.4,1348.15L639.8,1348.15L731.2,1439.55L731.2,1576.65L457,1576.65Z" style="fill:rgb(17,30,46);stroke:rgb(17,30,46);stroke-width:1px;"/>
            </g>
            <g transform="matrix(1,0,0,1,-7.65,-34.3)">
                <path d="M1508.1,1576.65L1508.1,1439.55L1599.5,1348.15L1690.9,1348.15L1782.3,1439.55L1782.3,1576.65L1508.1,1576.65Z" style="fill:rgb(17,30,46);stroke:rgb(17,30,46);stroke-width:1px;"/>
            </g>
            <g transform="matrix(1,0,0,1,-7.65,-34.3)">
                <path d="M868.3,1165.35L822.6,982.55L822.6,754.05L1119.65,662.65L1142.5,639.8L1142.5,594.1L1112,571.25L1028.25,571.25L1005.4,594.1L1005.4,616.95L594.1,616.95L548.4,502.7L548.4,182.8L571.25,159.95L1622.35,159.95L1645.2,182.8L1690.9,434.15L1690.9,868.3L1668.05,891.15L1508.1,936.85L1302.45,936.85L1279.6,959.7L1279.6,1165.35L868.3,1165.35Z" style="fill:rgb(17,30,46);stroke:rgb(17,30,46);stroke-width:1px;"/>
            </g>
        </g>
        <g id="Layer11">
            <g transform="matrix(1,0,0,1,-7.65,-34.3)">
                <path d="M1599.5,1576.65L1599.5,1508.1L1622.35,1485.25L1668.05,1485.25L1690.9,1508.1L1690.9,1576.65L1599.5,1576.65Z" style="fill:rgb(34,77,108);stroke:rgb(34,77,108);stroke-width:1px;"/>
            </g>
            <g transform="matrix(1,0,0,1,-7.65,-34.3)">
                <path d="M548.4,1576.65L548.4,1508.1L571.25,1485.25L616.95,1485.25L639.8,1508.1L639.8,1576.65L548.4,1576.65Z" style="fill:rgb(34,77,108);stroke:rgb(34,77,108);stroke-width:1px;"/>
            </g>
        </g>
        <g id="Layer9">
            <g transform="matrix(1,0,0,1,-7.65,-34.3)">
                <path d="M868.3,1302.45L868.3,1508.1L891.15,1530.95L1256.75,1530.95L1279.6,1508.1L1279.6,1302.45L868.3,1302.45Z" style="fill:rgb(14,96,164);stroke:rgb(14,96,164);stroke-width:1px;"/>
            </g>
            <g transform="matrix(1,0,0,1,-7.65,-34.3)">
                <path d="M914,1165.35L868.3,891.15L868.3,799.75L1142.5,708.35L1188.2,662.65L1188.2,548.4L1165.35,525.55L982.55,525.55L959.7,548.4L959.7,571.25L662.65,571.25L639.8,548.4L594.1,434.15L594.1,228.5L616.95,205.65L1576.65,205.65L1599.5,228.5L1645.2,525.55L1645.2,822.6L1622.35,845.45L1416.7,891.15L1256.75,891.15L1233.9,914L1233.9,1165.35L914,1165.35Z" style="fill:rgb(14,96,164);stroke:rgb(14,96,164);stroke-width:1px;"/>
            </g>
        </g>
        <g id="Layer10">
            <g transform="matrix(1,0,0,1,-7.65,-34.3)">
                <path d="M914,571.25L685.5,571.25L639.8,388.45L639.8,274.2L662.65,251.35L1530.95,251.35L1553.8,274.2L1599.5,616.95L1599.5,776.9L1576.65,799.75L1325.3,845.45L1211.05,845.45L1188.2,868.3L1188.2,1165.35L959.7,1165.35L959.7,845.45L1233.9,754.05L1279.6,708.35L1279.6,457L1256.75,434.15L936.85,434.15L914,457L914,571.25Z" style="fill:rgb(176,96,16);stroke:rgb(176,96,16);stroke-width:1px;"/>
            </g>
            <g transform="matrix(1,0,0,1,-7.65,-34.3)">
                <path d="M914,1302.45L914,1462.4L936.85,1485.25L1211.05,1485.25L1233.9,1462.4L1233.9,1302.45L914,1302.45Z" style="fill:rgb(176,96,16);stroke:rgb(176,96,16);stroke-width:1px;"/>
            </g>
        </g>
    </g>
</svg>
