<?xml version="1.0" encoding="UTF-8" standalone="no"?>
<!DOCTYPE svg PUBLIC "-//W3C//DTD SVG 1.1//EN" "http://www.w3.org/Graphics/SVG/1.1/DTD/svg11.dtd">
<svg width="100%" height="100%" viewBox="0 0 4634 3475" version="1.1" xmlns="http://www.w3.org/2000/svg" xmlns:xlink="http://www.w3.org/1999/xlink" xml:space="preserve" xmlns:serif="http://www.serif.com/" style="fill-rule:evenodd;clip-rule:evenodd;stroke-linecap:round;stroke-linejoin:round;stroke-miterlimit:1.5;">
    <g transform="matrix(2.08333,0,0,2.08333,0,0)">
        <g id="Layer10" transform="matrix(1,0,0,1,30.5,11.45)">
            <g transform="matrix(1,0,0,1,-61,-22.9)">
                <path d="M1005.4,1622.35L754.05,1371L731.2,1371L731.2,1393.85L685.5,1439.55L662.65,1439.55L662.65,1462.4L616.95,1508.1L594.1,1508.1L594.1,1530.95L548.4,1576.65L525.55,1576.65L525.55,1599.5L548.4,1622.35L1005.4,1622.35Z" style="fill:rgb(31,15,16);stroke:rgb(31,15,16);stroke-width:1px;"/>
            </g>
            <g transform="matrix(-1,0,0,1,2224,-22.9)">
                <path d="M1005.4,1622.35L754.05,1371L731.2,1371L731.2,1393.85L685.5,1439.55L662.65,1439.55L662.65,1462.4L616.95,1508.1L594.1,1508.1L594.1,1530.95L548.4,1576.65L525.55,1576.65L525.55,1599.5L548.4,1622.35L1005.4,1622.35Z" style="fill:rgb(31,15,16);stroke:rgb(31,15,16);stroke-width:1px;"/>
            </g>
            <g transform="matrix(1,0,0,1,-61,-22.9)">
                <path d="M1233.9,1622.35L1805.15,1051.1L1850.85,891.15L1805.15,754.05L1690.9,571.25L1645.2,434.15L1599.5,525.55L1553.8,571.25L1508.1,479.85L1485.25,342.75L1393.85,205.65L1393.85,297.05L1371,365.6L1348.15,388.45L1233.9,205.65L1119.65,68.55L1051.1,205.65L914,365.6L891.15,342.75L914,205.65L776.9,411.3L754.05,525.55L731.2,571.25L685.5,525.55L662.65,434.15L639.8,388.45L639.8,457L616.95,525.55L571.25,616.95L502.7,731.2L457,868.3L479.85,1051.1L1051.1,1622.35L1233.9,1622.35Z" style="fill:rgb(31,15,16);stroke:rgb(31,15,16);stroke-width:1px;"/>
            </g>
        </g>
        <g id="Layer14">
            <g transform="matrix(1,0,0,1,-76.2,-11.45)">
                <path d="M817.034,1581.45L828.934,1554.18L822.6,1530.95L849.673,1533.25L851.594,1511.29L869.26,1491.58L836.813,1482.95L817.226,1465.66L806.66,1497.93L777.284,1502.53L761.344,1530.57L726.401,1536.32L750.019,1578.95L763.551,1586.82L761.048,1571.1L772.012,1577.54L776.9,1553.8L817.034,1581.45Z" style="fill:rgb(208,176,80);stroke:rgb(208,176,80);stroke-width:1px;"/>
            </g>
            <g transform="matrix(1,0,0,-1,698.704,3041.04)">
                <path d="M813.688,1566.13L844.299,1551.21L827.349,1540.45L849.032,1536.35L846.374,1502.95L873.271,1517.23L868.149,1499.02L850.252,1488.21L852.448,1459.03L817.226,1465.66L788.521,1501.98L763.372,1517.68L750.073,1518.41L744.716,1538.26L737.692,1553.42L763.551,1586.82L761.048,1571.1L772.012,1577.54L778.133,1560.84L795.477,1571.76L813.688,1566.13Z" style="fill:rgb(208,176,80);stroke:rgb(208,176,80);stroke-width:1px;"/>
            </g>
            <g transform="matrix(1,0,0,1,-30.5,-11.45)">
                <path d="M959.7,1393.85L927.12,1408.75L914,1393.85L910.229,1371.24L914.943,1337.59L894.181,1332.28L872.416,1360.4L868.3,1348.15L859.45,1314.11L843.332,1303.26L823.021,1290.23L827.236,1268.27L852.286,1261.25L850.835,1239.8L869.312,1220.03L868.3,1211.05L845.901,1202.66L816.313,1190.43L808.773,1212.14L786.986,1205.28L796.372,1222.39L772.493,1217.92L742.975,1203.07L731.2,1165.35L756.579,1164.21L785.259,1147.92L766.18,1128.97L797.116,1117.53L836.643,1125.79L866.958,1137.03L861.256,1116.55L878.412,1130.06L885.314,1109.89L904.109,1140.75L899.229,1178.66L914,1211.05L944.167,1222.41L963.324,1222.58L950.792,1262.26L968.464,1298.72L954.419,1346.53L959.7,1393.85Z" style="fill:rgb(208,176,80);stroke:rgb(208,176,80);stroke-width:1px;"/>
            </g>
            <g transform="matrix(-1,0,0,1,2266.27,-4.004)">
                <path d="M961.492,1382.6L924.622,1400.68L912.223,1387.25L904.085,1370.02L907.913,1332.14L899.531,1338.76L877.09,1333.81L870.537,1354.2L864.217,1349.11L855.11,1302.62L842.645,1304.79L822.605,1277.21L836.425,1273.58L845.278,1253.43L856.854,1242.76L868.593,1224.79L867.941,1205.3L836.317,1209.72L814.421,1197.37L799.441,1224.75L792.787,1212.22L776.195,1229.58L761.9,1217.41L741.209,1189.83L737.758,1156.78L766.794,1171.27L778.793,1147.92L781.267,1124.48L810.048,1111.42L850.25,1125.46L870.846,1151.28L872.271,1128.05L887.97,1127.79L903.195,1110.74L918.016,1143.88L887.592,1180.37L919.96,1199.98L935.085,1230.36L982.056,1234.78L951.076,1278.44L968.464,1298.72L954.419,1346.53L961.492,1382.6Z" style="fill:rgb(208,176,80);stroke:rgb(208,176,80);stroke-width:1px;"/>
            </g>
            <g transform="matrix(1,0,0,1,-30.5,-11.45)">
                <path d="M634.474,1024.22L616.95,982.55L579.69,958.933L571.25,936.85L539.101,939.988L517.877,915.074L533.552,891.15L1051.1,891.15L1051.1,936.85L917.465,955.337L881.202,940.811L836.125,960.431L807.409,946.11L783.78,969.109L742.042,936.85L720.539,961.754L699.236,976.049L679.63,972.762L658.044,1000.79L634.474,1024.22Z" style="fill:rgb(208,176,80);stroke:rgb(208,176,80);stroke-width:1px;"/>
            </g>
            <g transform="matrix(-1,0,0,1,2265.93,-11.45)">
                <path d="M640.132,1005.87L624.741,1024.32L626.856,984.858L608.535,962.758L580.939,955.899L554.405,961.67L533.204,935.923L519.157,911.535L492.653,900.676L559.356,884.681L1051.1,891.15L1051.1,936.85L947.749,965.612L946.159,942.556L920.197,963.939L882.12,945.703L858.644,965.271L836.493,939.48L800.943,924.552L813.125,952.179L773.679,930.947L780.108,959.193L735.818,942.966L702.648,947.083L686.399,965.254L661.794,971.444L670.275,996.946L640.132,1005.87Z" style="fill:rgb(208,176,80);stroke:rgb(208,176,80);stroke-width:1px;"/>
            </g>
            <g transform="matrix(1,0,0,1,-30.5,-11.45)">
                <path d="M457,868.3L982.55,891.15L982.55,959.7L1096.8,1005.4L1188.2,1005.4L1302.45,936.85L1302.45,891.15L1850.85,868.3L1805.15,754.05L1690.9,571.25L1645.2,434.15L1599.5,525.55L1553.8,571.25L1508.1,479.85L1485.25,342.75L1393.85,205.65L1393.85,297.05L1371,365.6L1348.15,388.45L1233.9,205.65L1119.65,68.55L1051.1,205.65L914,365.6L891.15,342.75L914,205.65L776.9,411.3L754.05,525.55L731.2,571.25L685.5,525.55L662.65,434.15L639.8,388.45L639.8,457L616.95,525.55L571.25,616.95L502.7,731.2L457,868.3Z" style="fill:rgb(208,176,80);stroke:rgb(208,176,80);stroke-width:1px;"/>
            </g>
        </g>
        <g id="Layer12" transform="matrix(1,0,0,1,30.5,11.45)">
            <g transform="matrix(1,0,0,1,-61,-22.9)">
                <path d="M891.15,982.55L914,1005.4L914,1073.95L822.6,1073.95L776.9,1051.1L685.5,1005.4L685.5,982.55L891.15,982.55Z" style="fill:rgb(111,95,96);stroke:rgb(111,95,96);stroke-width:1px;"/>
            </g>
            <g transform="matrix(-1,0,0,1,2224,-22.9)">
                <path d="M891.15,982.55L914,1005.4L914,1073.95L822.6,1073.95L776.9,1051.1L685.5,1005.4L685.5,982.55L891.15,982.55Z" style="fill:rgb(111,95,96);stroke:rgb(111,95,96);stroke-width:1px;"/>
            </g>
            <g transform="matrix(-1,0,0,1,2224,-22.9)">
                <path d="M959.7,959.7L982.55,936.85L1051.1,936.85L1096.8,982.55L1188.2,982.55L1233.9,936.85L1302.45,936.85L1325.3,959.7L1325.3,1073.95L1279.6,1096.8L1256.75,1096.8L1188.2,1119.65L1188.2,1279.6L1165.35,1302.45L1119.65,1302.45L1096.8,1279.6L1096.8,1119.65L1028.25,1096.8L1005.4,1096.8L959.7,1073.95L959.7,959.7Z" style="fill:rgb(111,95,96);stroke:rgb(111,95,96);stroke-width:1px;"/>
            </g>
            <g transform="matrix(1,0,0,1,-61,-22.9)">
                <path d="M1233.9,1530.95L1142.5,1530.95L1051.1,1530.95L1005.4,1485.25L959.7,1462.4L959.7,1439.55L1005.4,1416.7L1005.4,1439.55L1051.1,1485.25L1233.9,1485.25L1279.6,1439.55L1279.6,1416.7L1325.3,1439.55L1325.3,1462.4L1279.6,1485.25L1233.9,1530.95ZM1302.45,1416.7L1256.75,1416.7L1233.9,1439.55L1188.2,1462.4L1142.5,1462.4L1096.8,1462.4L1051.1,1439.55L1028.25,1416.7L982.55,1416.7L982.55,1348.15L1051.1,1371L1096.8,1416.7L1188.2,1416.7L1233.9,1371L1302.45,1348.15L1302.45,1416.7Z" style="fill:rgb(111,95,96);stroke:rgb(111,95,96);stroke-width:1px;"/>
            </g>
            <g transform="matrix(1,0,0,-1,-61,2696.25)">
                <path d="M1096.8,1371L1119.65,1348.15L1165.35,1348.15L1188.2,1371L1188.2,1393.85L1211.05,1348.15L1165.35,1325.3L1119.65,1325.3L1073.95,1348.15L1096.8,1393.85L1096.8,1371Z" style="fill:rgb(111,95,96);stroke:rgb(111,95,96);stroke-width:1px;"/>
            </g>
        </g>
        <g id="Layer13" transform="matrix(1,0,0,1,30.5,11.45)">
            <g transform="matrix(1,0,0,1,-61,-22.9)">
                <path d="M1005.4,1119.65L1051.1,1165.35L1051.1,1211.05L982.55,1211.05L959.7,1188.2L936.85,1119.65L1005.4,1119.65Z" style="fill:rgb(154,37,29);stroke:rgb(154,37,29);stroke-width:1px;"/>
            </g>
            <g transform="matrix(-1,0,0,1,2224,-22.9)">
                <path d="M1005.4,1119.65L1051.1,1165.35L1051.1,1211.05L982.55,1211.05L959.7,1188.2L936.85,1119.65L1005.4,1119.65Z" style="fill:rgb(154,37,29);stroke:rgb(154,37,29);stroke-width:1px;"/>
            </g>
        </g>
        <g id="Layer8" transform="matrix(1,0,0,1,30.5,11.45)">
            <g transform="matrix(-6.12323e-17,1,1,6.12323e-17,-746.5,662.6)">
                <path d="M685.5,1393.85L731.2,1348.15L571.25,1211.05L548.4,1211.05L525.55,1233.9L548.4,1233.9L685.5,1393.85Z" style="fill:rgb(161,144,95);stroke:rgb(161,144,95);stroke-width:1px;"/>
            </g>
            <g transform="matrix(6.12323e-17,1,-1,6.12323e-17,2909.5,662.6)">
                <path d="M685.5,1393.85L731.2,1348.15L571.25,1211.05L548.4,1211.05L525.55,1233.9L548.4,1233.9L685.5,1393.85Z" style="fill:rgb(161,144,95);stroke:rgb(161,144,95);stroke-width:1px;"/>
            </g>
            <g transform="matrix(-6.12323e-17,1,1,6.12323e-17,-815.05,731.15)">
                <path d="M685.5,1393.85L731.2,1348.15L571.25,1211.05L548.4,1211.05L525.55,1233.9L548.4,1233.9L685.5,1393.85Z" style="fill:rgb(161,144,95);stroke:rgb(161,144,95);stroke-width:1px;"/>
            </g>
            <g transform="matrix(6.12323e-17,1,-1,6.12323e-17,2978.05,731.15)">
                <path d="M685.5,1393.85L731.2,1348.15L571.25,1211.05L548.4,1211.05L525.55,1233.9L548.4,1233.9L685.5,1393.85Z" style="fill:rgb(161,144,95);stroke:rgb(161,144,95);stroke-width:1px;"/>
            </g>
            <g transform="matrix(-6.12323e-17,1,1,6.12323e-17,-883.6,799.7)">
                <path d="M685.5,1393.85L731.2,1348.15L571.25,1211.05L548.4,1211.05L525.55,1233.9L548.4,1233.9L685.5,1393.85Z" style="fill:rgb(161,144,95);stroke:rgb(161,144,95);stroke-width:1px;"/>
            </g>
            <g transform="matrix(6.12323e-17,1,-1,6.12323e-17,3046.6,799.7)">
                <path d="M685.5,1393.85L731.2,1348.15L571.25,1211.05L548.4,1211.05L525.55,1233.9L548.4,1233.9L685.5,1393.85Z" style="fill:rgb(161,144,95);stroke:rgb(161,144,95);stroke-width:1px;"/>
            </g>
            <g transform="matrix(1,0,0,1,-61,-22.9)">
                <path d="M959.7,1439.55L959.7,1393.85L982.55,1302.45L1005.4,1416.7L982.55,1439.55L959.7,1439.55Z" style="fill:rgb(161,144,95);stroke:rgb(161,144,95);stroke-width:1px;"/>
            </g>
            <g transform="matrix(-1,0,0,1,2224,-22.9)">
                <path d="M959.7,1439.55L959.7,1393.85L982.55,1302.45L1005.4,1416.7L982.55,1439.55L959.7,1439.55Z" style="fill:rgb(161,144,95);stroke:rgb(161,144,95);stroke-width:1px;"/>
            </g>
        </g>
        <g id="Layer15">
            <g transform="matrix(1,0,0,1,-30.5,-11.45)">
                <path d="M1028.25,891.15L1051.1,868.3L1051.1,845.45L1051.1,754.05L1028.25,731.2L982.55,708.35L502.7,708.35L411.3,731.2L365.6,799.75L365.6,936.85L388.45,1028.25L411.3,959.7L457,914L525.55,891.15L1028.25,891.15Z" style="fill:rgb(61,64,33);stroke:rgb(61,64,33);stroke-width:1px;"/>
            </g>
            <g transform="matrix(-1,0,0,1,2254.5,-11.45)">
                <path d="M1028.25,891.15L1051.1,868.3L1051.1,845.45L1051.1,754.05L1028.25,731.2L982.55,708.35L502.7,708.35L411.3,731.2L365.6,799.75L365.6,936.85L388.45,1028.25L411.3,959.7L457,914L525.55,891.15L1028.25,891.15Z" style="fill:rgb(61,64,33);stroke:rgb(61,64,33);stroke-width:1px;"/>
            </g>
        </g>
        <g id="Layer9" transform="matrix(1,0,0,1,30.5,11.45)">
            <g transform="matrix(1,0,0,1,-38.15,-22.9)">
                <rect x="868.3" y="708.35" width="91.4" height="182.8" style="fill:rgb(36,30,27);stroke:rgb(36,30,27);stroke-width:1px;"/>
            </g>
            <g transform="matrix(-1,0,0,1,2201.15,-22.9)">
                <rect x="868.3" y="708.35" width="91.4" height="182.8" style="fill:rgb(36,30,27);stroke:rgb(36,30,27);stroke-width:1px;"/>
            </g>
            <g transform="matrix(1,0,0,1,-38.15,-22.9)">
                <rect x="685.5" y="708.35" width="91.4" height="182.8" style="fill:rgb(36,30,27);stroke:rgb(36,30,27);stroke-width:1px;"/>
            </g>
            <g transform="matrix(-1,0,0,1,2201.15,-22.9)">
                <rect x="685.5" y="708.35" width="91.4" height="182.8" style="fill:rgb(36,30,27);stroke:rgb(36,30,27);stroke-width:1px;"/>
            </g>
            <g transform="matrix(1,0,0,1,-38.15,-22.9)">
                <rect x="502.7" y="708.35" width="91.4" height="182.8" style="fill:rgb(36,30,27);stroke:rgb(36,30,27);stroke-width:1px;"/>
            </g>
            <g transform="matrix(-1,0,0,1,2201.15,-22.9)">
                <rect x="502.7" y="708.35" width="91.4" height="182.8" style="fill:rgb(36,30,27);stroke:rgb(36,30,27);stroke-width:1px;"/>
            </g>
            <g transform="matrix(1,0,0,1,-61,-22.9)">
                <path d="M434.15,936.85L365.6,891.15L365.6,799.75L383.808,772.418L508.401,896.849L457,914L434.15,936.85Z" style="fill:rgb(36,30,27);stroke:rgb(36,30,27);stroke-width:1px;"/>
            </g>
            <g transform="matrix(-1,0,0,1,2224,-22.9)">
                <path d="M434.15,936.85L365.6,891.15L365.6,799.75L383.808,772.418L508.401,896.849L457,914L434.15,936.85Z" style="fill:rgb(36,30,27);stroke:rgb(36,30,27);stroke-width:1px;"/>
            </g>
            <g transform="matrix(1,0,0,1,-61,-45.75)">
                <rect x="1096.8" y="1165.35" width="91.4" height="45.7" style="fill:rgb(36,30,27);stroke:rgb(36,30,27);stroke-width:1px;"/>
            </g>
        </g>
    </g>
</svg>
