<?xml version="1.0" encoding="UTF-8" standalone="no"?>
<!DOCTYPE svg PUBLIC "-//W3C//DTD SVG 1.1//EN" "http://www.w3.org/Graphics/SVG/1.1/DTD/svg11.dtd">
<svg width="100%" height="100%" viewBox="0 0 4634 3475" version="1.1" xmlns="http://www.w3.org/2000/svg" xmlns:xlink="http://www.w3.org/1999/xlink" xml:space="preserve" xmlns:serif="http://www.serif.com/" style="fill-rule:evenodd;clip-rule:evenodd;stroke-linecap:round;stroke-linejoin:round;stroke-miterlimit:1.5;">
    <g transform="matrix(2.08333,0,0,2.08333,0,0)">
        <g id="Layer10">
            <g transform="matrix(1,0,0,1,-30.5,-11.45)">
                <path d="M1005.4,1622.35L754.05,1371L731.2,1371L731.2,1393.85L685.5,1439.55L662.65,1439.55L662.65,1462.4L616.95,1508.1L594.1,1508.1L594.1,1530.95L548.4,1576.65L525.55,1576.65L525.55,1599.5L548.4,1622.35L1005.4,1622.35Z" style="fill:rgb(31,15,16);stroke:rgb(31,15,16);stroke-width:1px;"/>
            </g>
            <g transform="matrix(-1,0,0,1,2254.5,-11.45)">
                <path d="M1005.4,1622.35L754.05,1371L731.2,1371L731.2,1393.85L685.5,1439.55L662.65,1439.55L662.65,1462.4L616.95,1508.1L594.1,1508.1L594.1,1530.95L548.4,1576.65L525.55,1576.65L525.55,1599.5L548.4,1622.35L1005.4,1622.35Z" style="fill:rgb(31,15,16);stroke:rgb(31,15,16);stroke-width:1px;"/>
            </g>
            <g transform="matrix(1,0,0,1,-30.5,-11.45)">
                <path d="M1233.9,1622.35L1805.15,1051.1L1850.85,891.15L1805.15,754.05L1690.9,571.25L1645.2,434.15L1599.5,525.55L1553.8,571.25L1508.1,479.85L1485.25,342.75L1393.85,205.65L1393.85,297.05L1371,365.6L1348.15,388.45L1233.9,205.65L1119.65,68.55L1051.1,205.65L914,365.6L891.15,342.75L914,205.65L776.9,411.3L754.05,525.55L731.2,571.25L685.5,525.55L662.65,434.15L639.8,388.45L639.8,457L616.95,525.55L571.25,616.95L502.7,731.2L457,868.3L479.85,1051.1L1051.1,1622.35L1233.9,1622.35Z" style="fill:rgb(31,15,16);stroke:rgb(31,15,16);stroke-width:1px;"/>
            </g>
        </g>
        <g id="Layer12">
            <g transform="matrix(1,0,0,1,-30.5,-11.45)">
                <path d="M891.15,982.55L914,1005.4L914,1073.95L822.6,1073.95L776.9,1051.1L685.5,1005.4L685.5,982.55L891.15,982.55Z" style="fill:rgb(111,95,96);stroke:rgb(111,95,96);stroke-width:1px;"/>
            </g>
            <g transform="matrix(-1,0,0,1,2254.5,-11.45)">
                <path d="M891.15,982.55L914,1005.4L914,1073.95L822.6,1073.95L776.9,1051.1L685.5,1005.4L685.5,982.55L891.15,982.55Z" style="fill:rgb(111,95,96);stroke:rgb(111,95,96);stroke-width:1px;"/>
            </g>
            <g transform="matrix(1,0,0,1,-30.5,-11.45)">
                <path d="M959.7,959.7L982.55,936.85L1051.1,936.85L1096.8,982.55L1188.2,982.55L1233.9,936.85L1302.45,936.85L1325.3,959.7L1325.3,1073.95L1279.6,1096.8L1256.75,1096.8L1188.2,1119.65L1188.2,1279.6L1165.35,1302.45L1119.65,1302.45L1096.8,1279.6L1096.8,1119.65L1028.25,1096.8L1005.4,1096.8L959.7,1073.95L959.7,959.7Z" style="fill:rgb(111,95,96);stroke:rgb(111,95,96);stroke-width:1px;"/>
            </g>
            <g transform="matrix(1,0,0,1,-30.5,-11.45)">
                <path d="M1233.9,1530.95L1142.5,1530.95L1051.1,1530.95L1005.4,1485.25L959.7,1462.4L959.7,1439.55L1005.4,1416.7L1005.4,1439.55L1051.1,1485.25L1233.9,1485.25L1279.6,1439.55L1279.6,1416.7L1325.3,1439.55L1325.3,1462.4L1279.6,1485.25L1233.9,1530.95ZM1302.45,1416.7L1256.75,1416.7L1233.9,1439.55L1188.2,1462.4L1142.5,1462.4L1096.8,1462.4L1051.1,1439.55L1028.25,1416.7L982.55,1416.7L982.55,1348.15L1051.1,1371L1096.8,1416.7L1188.2,1416.7L1233.9,1371L1302.45,1348.15L1302.45,1416.7Z" style="fill:rgb(111,95,96);stroke:rgb(111,95,96);stroke-width:1px;"/>
            </g>
            <g transform="matrix(1,0,0,-1,-30.5,2707.7)">
                <path d="M1096.8,1371L1119.65,1348.15L1165.35,1348.15L1188.2,1371L1188.2,1393.85L1211.05,1348.15L1165.35,1325.3L1119.65,1325.3L1073.95,1348.15L1096.8,1393.85L1096.8,1371Z" style="fill:rgb(111,95,96);stroke:rgb(111,95,96);stroke-width:1px;"/>
            </g>
        </g>
        <g id="Layer13">
            <g transform="matrix(1,0,0,1,-30.5,-11.45)">
                <path d="M1005.4,1119.65L1051.1,1165.35L1051.1,1211.05L982.55,1211.05L959.7,1188.2L936.85,1119.65L1005.4,1119.65Z" style="fill:rgb(154,37,29);stroke:rgb(154,37,29);stroke-width:1px;"/>
            </g>
            <g transform="matrix(-1,0,0,1,2254.5,-11.45)">
                <path d="M1005.4,1119.65L1051.1,1165.35L1051.1,1211.05L982.55,1211.05L959.7,1188.2L936.85,1119.65L1005.4,1119.65Z" style="fill:rgb(154,37,29);stroke:rgb(154,37,29);stroke-width:1px;"/>
            </g>
        </g>
        <g id="Layer8">
            <g transform="matrix(1,0,0,1,-30.5,-11.45)">
                <path d="M1028.25,891.15L1051.1,868.3L1051.1,845.45L1051.1,754.05L1028.25,731.2L982.55,708.35L502.7,708.35L411.3,731.2L365.6,799.75L365.6,936.85L388.45,1028.25L411.3,959.7L457,914L525.55,891.15L1028.25,891.15Z" style="fill:rgb(161,144,95);stroke:rgb(161,144,95);stroke-width:1px;"/>
            </g>
            <g transform="matrix(-1,0,0,1,2254.5,-11.45)">
                <path d="M1028.25,891.15L1051.1,868.3L1051.1,845.45L1051.1,754.05L1028.25,731.2L982.55,708.35L502.7,708.35L411.3,731.2L365.6,799.75L365.6,936.85L388.45,1028.25L411.3,959.7L457,914L525.55,891.15L1028.25,891.15Z" style="fill:rgb(161,144,95);stroke:rgb(161,144,95);stroke-width:1px;"/>
            </g>
            <g transform="matrix(-6.12323e-17,1,1,6.12323e-17,-716,674.05)">
                <path d="M685.5,1393.85L731.2,1348.15L571.25,1211.05L548.4,1211.05L525.55,1233.9L548.4,1233.9L685.5,1393.85Z" style="fill:rgb(161,144,95);stroke:rgb(161,144,95);stroke-width:1px;"/>
            </g>
            <g transform="matrix(6.12323e-17,1,-1,6.12323e-17,2940,674.05)">
                <path d="M685.5,1393.85L731.2,1348.15L571.25,1211.05L548.4,1211.05L525.55,1233.9L548.4,1233.9L685.5,1393.85Z" style="fill:rgb(161,144,95);stroke:rgb(161,144,95);stroke-width:1px;"/>
            </g>
            <g transform="matrix(-6.12323e-17,1,1,6.12323e-17,-784.55,742.6)">
                <path d="M685.5,1393.85L731.2,1348.15L571.25,1211.05L548.4,1211.05L525.55,1233.9L548.4,1233.9L685.5,1393.85Z" style="fill:rgb(161,144,95);stroke:rgb(161,144,95);stroke-width:1px;"/>
            </g>
            <g transform="matrix(6.12323e-17,1,-1,6.12323e-17,3008.55,742.6)">
                <path d="M685.5,1393.85L731.2,1348.15L571.25,1211.05L548.4,1211.05L525.55,1233.9L548.4,1233.9L685.5,1393.85Z" style="fill:rgb(161,144,95);stroke:rgb(161,144,95);stroke-width:1px;"/>
            </g>
            <g transform="matrix(-6.12323e-17,1,1,6.12323e-17,-853.1,811.15)">
                <path d="M685.5,1393.85L731.2,1348.15L571.25,1211.05L548.4,1211.05L525.55,1233.9L548.4,1233.9L685.5,1393.85Z" style="fill:rgb(161,144,95);stroke:rgb(161,144,95);stroke-width:1px;"/>
            </g>
            <g transform="matrix(6.12323e-17,1,-1,6.12323e-17,3077.1,811.15)">
                <path d="M685.5,1393.85L731.2,1348.15L571.25,1211.05L548.4,1211.05L525.55,1233.9L548.4,1233.9L685.5,1393.85Z" style="fill:rgb(161,144,95);stroke:rgb(161,144,95);stroke-width:1px;"/>
            </g>
            <g transform="matrix(1,0,0,1,-30.5,-11.45)">
                <path d="M959.7,1439.55L959.7,1393.85L982.55,1302.45L1005.4,1416.7L982.55,1439.55L959.7,1439.55Z" style="fill:rgb(161,144,95);stroke:rgb(161,144,95);stroke-width:1px;"/>
            </g>
            <g transform="matrix(-1,0,0,1,2254.5,-11.45)">
                <path d="M959.7,1439.55L959.7,1393.85L982.55,1302.45L1005.4,1416.7L982.55,1439.55L959.7,1439.55Z" style="fill:rgb(161,144,95);stroke:rgb(161,144,95);stroke-width:1px;"/>
            </g>
        </g>
        <g id="Layer9">
            <g transform="matrix(1,0,0,1,-7.65,-11.45)">
                <rect x="868.3" y="708.35" width="91.4" height="182.8" style="fill:rgb(61,64,33);stroke:rgb(61,64,33);stroke-width:1px;"/>
            </g>
            <g transform="matrix(-1,0,0,1,2231.65,-11.45)">
                <rect x="868.3" y="708.35" width="91.4" height="182.8" style="fill:rgb(61,64,33);stroke:rgb(61,64,33);stroke-width:1px;"/>
            </g>
            <g transform="matrix(1,0,0,1,-7.65,-11.45)">
                <rect x="685.5" y="708.35" width="91.4" height="182.8" style="fill:rgb(61,64,33);stroke:rgb(61,64,33);stroke-width:1px;"/>
            </g>
            <g transform="matrix(-1,0,0,1,2231.65,-11.45)">
                <rect x="685.5" y="708.35" width="91.4" height="182.8" style="fill:rgb(61,64,33);stroke:rgb(61,64,33);stroke-width:1px;"/>
            </g>
            <g transform="matrix(1,0,0,1,-7.65,-11.45)">
                <rect x="502.7" y="708.35" width="91.4" height="182.8" style="fill:rgb(61,64,33);stroke:rgb(61,64,33);stroke-width:1px;"/>
            </g>
            <g transform="matrix(-1,0,0,1,2231.65,-11.45)">
                <rect x="502.7" y="708.35" width="91.4" height="182.8" style="fill:rgb(61,64,33);stroke:rgb(61,64,33);stroke-width:1px;"/>
            </g>
            <g transform="matrix(1,0,0,1,-30.5,-11.45)">
                <path d="M434.15,936.85L365.6,891.15L365.6,799.75L383.808,772.418L508.401,896.849L457,914L434.15,936.85Z" style="fill:rgb(61,64,33);stroke:rgb(61,64,33);stroke-width:1px;"/>
            </g>
            <g transform="matrix(-1,0,0,1,2254.5,-11.45)">
                <path d="M434.15,936.85L365.6,891.15L365.6,799.75L383.808,772.418L508.401,896.849L457,914L434.15,936.85Z" style="fill:rgb(61,64,33);stroke:rgb(61,64,33);stroke-width:1px;"/>
            </g>
            <g transform="matrix(1,0,0,1,-30.5,-34.3)">
                <rect x="1096.8" y="1165.35" width="91.4" height="45.7" style="fill:rgb(61,64,33);stroke:rgb(61,64,33);stroke-width:1px;"/>
            </g>
        </g>
    </g>
</svg>
