<?xml version="1.0" encoding="UTF-8" standalone="no"?>
<!DOCTYPE svg PUBLIC "-//W3C//DTD SVG 1.1//EN" "http://www.w3.org/Graphics/SVG/1.1/DTD/svg11.dtd">
<svg width="100%" height="100%" viewBox="0 0 2224 1668" version="1.1" xmlns="http://www.w3.org/2000/svg" xmlns:xlink="http://www.w3.org/1999/xlink" xml:space="preserve" xmlns:serif="http://www.serif.com/" style="fill-rule:evenodd;clip-rule:evenodd;stroke-linecap:round;stroke-linejoin:round;stroke-miterlimit:1.5;">
    <g id="Layer1" transform="matrix(1,0,0,1,-55.65,23.4)">
        <path d="M482.5,347.4L579,443.9L656.2,482.5L694.8,521.1L694.8,598.3L617.6,752.7L540.4,829.9L501.8,868.5L482.5,907.1L501.8,945.7L521.1,907.1L579,849.2L617.6,834L636.9,810.6L656.2,752.7L675.5,714.1L694.8,714.1L694.8,907.1L656.2,945.7L617.6,965L521.1,1061.5L501.8,1100.1L463.2,1138.7L463.2,1158L482.5,1177.3L521.1,1196.6L540.4,1215.9L617.6,1215.9L656.2,1254.5L656.2,1408.9L617.6,1447.5L501.8,1447.5L424.6,1370.3L386,1254.5L386,1061.5L424.6,984.3L424.6,945.7L386,868.5L386,791.3L540.4,636.9L559.7,598.3L559.7,559.7L540.4,521.1L501.8,482.5L463.2,405.3L463.2,347.4L482.5,347.4ZM559.7,1370.3L579,1351L579,1312.4L559.7,1293.1L521.1,1293.1L501.8,1312.4L501.8,1351L521.1,1370.3L559.7,1370.3Z" style="fill:rgb(219,119,0);stroke:rgb(219,119,0);stroke-width:1px;"/>
    </g>
    <g id="Layer6" transform="matrix(1,0,0,1,-55.65,23.4)">
        <path d="M463.2,1138.7L501.8,1100.1L521.1,1061.5L559.7,1022.9L694.8,1022.9L810.6,1080.8L829.9,1100.1L849.2,1061.5L849.2,617.6L945.7,521.1L1080.8,521.1L1080.8,1042.2L1003.6,1158L1003.6,1331.7L694.8,1331.7L540.4,1177.3L463.2,1138.7Z" style="fill:rgb(104,144,9);stroke:rgb(104,144,9);stroke-width:1px;"/>
        <path d="M1389.6,1254.5L1814.2,834L1814.2,77.2L1814.2,57.9L1775.6,57.9L1737,96.5L1717.7,173.7L1717.7,212.3L1698.4,270.2L1698.4,521.1L1196.6,521.1L1196.6,1254.5L1389.6,1254.5Z" style="fill:rgb(104,144,9);stroke:rgb(104,144,9);stroke-width:1px;"/>
        <g transform="matrix(1,0,0,1,19.3,-19.3)">
            <path d="M1505.4,501.8L1505.4,308.8L1486.1,289.5L733.4,289.5L656.2,250.9L617.6,231.6L617.6,193L656.2,173.7L733.4,154.4L887.8,154.4L1061.5,135.1L1582.6,135.1L1659.8,212.3L1659.8,386L1582.6,463.2L1544,501.8L1505.4,501.8Z" style="fill:rgb(104,144,9);stroke:rgb(104,144,9);stroke-width:1px;"/>
        </g>
        <path d="M1351,1312.4L1486.1,1177.3L1775.6,1177.3L1775.6,1196.6L1601.9,1370.3L1370.3,1370.3L1351,1351L1351,1312.4Z" style="fill:rgb(104,144,9);stroke:rgb(104,144,9);stroke-width:1px;"/>
    </g>
    <g id="Layer3" transform="matrix(1,0,0,1,-55.65,23.4)">
        <path d="M1080.8,598.3L984.3,598.3L926.4,636.9L926.4,1138.7L945.7,1158L984.3,1158L1003.6,1138.7L1003.6,694.8L1042.2,675.5L1080.8,675.5L1080.8,598.3Z" style="fill:rgb(66,94,0);stroke:rgb(66,94,0);stroke-width:1px;"/>
        <path d="M1254.5,521.1L1158,521.1L1119.4,559.7L1119.4,1273.8L1138.7,1293.1L1351,1293.1L1389.6,1254.5L1428.2,1215.9L1215.9,1215.9L1196.6,1196.6L1196.6,598.3L1273.8,521.1L1254.5,521.1Z" style="fill:rgb(66,94,0);stroke:rgb(66,94,0);stroke-width:1px;"/>
        <path d="M1486.1,675.5L1389.6,675.5L1351,714.1L1351,965L1370.3,965L1717.7,617.6L1717.7,579L1698.4,559.7L1273.8,559.7L1235.2,598.3L1235.2,1100.1L1312.4,1177.3L1351,1177.3L1814.2,714.1L1814.2,57.9L1794.9,57.9L1775.6,57.9L1775.6,115.8L1756.3,135.1L1717.7,173.7L1717.7,212.3L1775.6,212.3L1775.6,328.1L1737,289.5L1717.7,250.9L1698.4,270.2L1698.4,347.4L1717.7,366.7L1756.3,366.7L1775.6,386L1775.6,482.5L1737,443.9L1717.7,405.3L1698.4,424.6L1698.4,501.8L1717.7,521.1L1756.3,521.1L1775.6,540.4L1775.6,617.6L1737,636.9L1331.7,1042.2L1312.4,1042.2L1312.4,675.5L1351,636.9L1544,636.9L1563.3,656.2L1447.5,772L1428.2,772L1447.5,733.4L1486.1,694.8L1486.1,675.5Z" style="fill:rgb(66,94,0);stroke:rgb(66,94,0);stroke-width:1px;"/>
        <g transform="matrix(1,0,0,1,19.3,-19.3)">
            <path d="M1582.6,463.2L1621.2,424.6L1621.2,250.9L1582.6,212.3L617.6,212.3L617.6,231.6L656.2,250.9L1544,250.9L1582.6,289.5L1582.6,463.2Z" style="fill:rgb(66,94,0);stroke:rgb(66,94,0);stroke-width:1px;"/>
        </g>
    </g>
    <g id="Layer7" transform="matrix(1,0,0,1,-55.65,23.4)">
        <path d="M1312.4,1351L1293.1,1331.7L1138.7,1331.7L1119.4,1351L1119.4,1486.1L1022.9,1582.6L1022.9,1601.9L1158,1601.9L1273.8,1486.1L1312.4,1408.9L1312.4,1351Z" style="fill:rgb(58,62,48);stroke:rgb(58,62,48);stroke-width:1px;"/>
        <path d="M1389.6,1428.2L1408.9,1408.9L1486.1,1408.9L1486.1,1447.5L1466.8,1466.8L1466.8,1505.4L1486.1,1563.3L1524.7,1601.9L1428.2,1601.9L1389.6,1563.3L1389.6,1428.2Z" style="fill:rgb(58,62,48);stroke:rgb(58,62,48);stroke-width:1px;"/>
        <path d="M1621.2,1408.9L1621.2,1466.8L1640.5,1486.1L1621.2,1524.7L1640.5,1563.3L1679.1,1601.9L1544,1601.9L1505.4,1563.3L1505.4,1428.2L1524.7,1408.9L1621.2,1408.9Z" style="fill:rgb(58,62,48);stroke:rgb(58,62,48);stroke-width:1px;"/>
        <path d="M1775.6,1486.1L1775.6,1428.2L1794.9,1408.9L1852.8,1408.9L1891.4,1447.5L1891.4,1563.3L1852.8,1601.9L1698.4,1601.9L1775.6,1563.3L1794.9,1505.4L1775.6,1486.1Z" style="fill:rgb(58,62,48);stroke:rgb(58,62,48);stroke-width:1px;"/>
        <path d="M849.2,868.5L849.2,1003.6L810.6,984.3L772,907.1L772,810.6L791.3,810.6L829.9,849.2L829.9,800.95L810.6,791.3L772,714.1L772,617.6L791.3,617.6L829.9,656.2L849.2,521.1L849.2,868.5ZM1080.8,521.1L945.7,521.1L868.5,598.3L849.2,656.2L849.2,579L849.2,521.1L887.8,443.9L907.1,424.6L926.4,424.6L944.823,498.291L984.3,482.5L1061.5,386L1080.8,386L1080.8,521.1Z" style="fill:rgb(58,62,48);stroke:rgb(58,62,48);stroke-width:1px;"/>
        <g transform="matrix(1,0,0,1,19.3,-19.3)">
            <path d="M772,250.9L772,386L791.3,386L887.8,289.5L887.8,250.9L772,250.9Z" style="fill:rgb(58,62,48);stroke:rgb(58,62,48);stroke-width:1px;"/>
        </g>
        <g transform="matrix(1,0,0,1,19.3,-19.3)">
            <path d="M965,250.9L965,386L984.3,386L1080.8,289.5L1080.8,250.9L965,250.9Z" style="fill:rgb(58,62,48);stroke:rgb(58,62,48);stroke-width:1px;"/>
        </g>
        <g transform="matrix(1,0,0,1,19.3,-19.3)">
            <path d="M1158,250.9L1158,347.4L1177.3,347.4L1196.6,328.1L1273.8,289.5L1293.1,270.2L1293.1,250.9L1158,250.9Z" style="fill:rgb(58,62,48);stroke:rgb(58,62,48);stroke-width:1px;"/>
        </g>
        <g transform="matrix(1,0,0,1,19.3,-19.3)">
            <path d="M1158,135.1L1158,38.6L1177.3,38.6L1196.6,57.9L1273.8,96.5L1293.1,115.8L1293.1,135.1L1158,135.1Z" style="fill:rgb(58,62,48);stroke:rgb(58,62,48);stroke-width:1px;"/>
        </g>
        <g transform="matrix(1,0,0,1,19.3,-19.3)">
            <path d="M965,154.4L965,38.6L984.3,38.6L1080.8,135.1L1080.8,154.4L965,154.4Z" style="fill:rgb(58,62,48);stroke:rgb(58,62,48);stroke-width:1px;"/>
        </g>
        <g transform="matrix(1,0,0,1,19.3,-9.65)">
            <path d="M772,173.7L772,38.6L791.3,38.6L887.8,135.1L887.8,173.7L772,173.7Z" style="fill:rgb(58,62,48);stroke:rgb(58,62,48);stroke-width:1px;"/>
        </g>
        <g transform="matrix(1,0,0,1,19.3,-19.3)">
            <path d="M733.4,173.7L733.4,77.2L714.1,57.9L656.2,57.9L463.2,154.4L405.3,173.7L386,193L405.3,212.3L463.2,231.6L656.2,328.1L714.1,328.1L733.4,308.8L733.4,250.9L656.2,250.9L617.6,231.6L617.6,193L656.2,173.7L733.4,173.7Z" style="fill:rgb(58,62,48);stroke:rgb(58,62,48);stroke-width:1px;"/>
        </g>
        <path d="M1158,521.1L1293.1,386L1312.4,386L1312.4,501.8L1370.3,501.8L1370.3,521.1L1158,521.1Z" style="fill:rgb(58,62,48);stroke:rgb(58,62,48);stroke-width:1px;"/>
        <path d="M1351,521.1L1486.1,386L1505.4,386L1505.4,501.8L1563.3,501.8L1563.3,521.1L1351,521.1Z" style="fill:rgb(58,62,48);stroke:rgb(58,62,48);stroke-width:1px;"/>
        <path d="M1544,521.1L1679.1,386L1698.4,386L1698.4,521.1L1544,521.1Z" style="fill:rgb(58,62,48);stroke:rgb(58,62,48);stroke-width:1px;"/>
        <path d="M1544,1100.1L1659.8,1100.1L1659.8,1003.6L1717.7,945.7L1717.7,926.4L1544,1100.1Z" style="fill:rgb(58,62,48);stroke:rgb(58,62,48);stroke-width:1px;"/>
        <path d="M1698.4,945.7L1814.2,945.7L1814.2,849.2L1833.5,829.9L1814.2,829.9L1698.4,945.7Z" style="fill:rgb(58,62,48);stroke:rgb(58,62,48);stroke-width:1px;"/>
        <path d="M1814.2,829.9L1833.5,829.9L1833.5,772L1949.3,656.2L1949.3,636.9L1833.5,636.9L1833.5,579L1814.2,579L1814.2,829.9Z" style="fill:rgb(58,62,48);stroke:rgb(58,62,48);stroke-width:1px;"/>
        <path d="M1814.2,598.3L1949.3,463.2L1949.3,443.9L1833.5,443.9L1833.5,386L1814.2,386L1814.2,598.3Z" style="fill:rgb(58,62,48);stroke:rgb(58,62,48);stroke-width:1px;"/>
        <path d="M1814.2,405.3L1949.3,270.2L1949.3,250.9L1833.5,250.9L1833.5,193L1814.2,193L1814.2,405.3Z" style="fill:rgb(58,62,48);stroke:rgb(58,62,48);stroke-width:1px;"/>
        <path d="M1814.2,212.3L1949.3,77.2L1949.3,57.9L1814.2,57.9L1814.2,212.3Z" style="fill:rgb(58,62,48);stroke:rgb(58,62,48);stroke-width:1px;"/>
    </g>
    <g id="Layer5" transform="matrix(1,0,0,1,-55.65,23.4)">
        <path d="M926.4,1389.6L926.4,1351L945.7,1331.7L984.3,1331.7L1003.6,1351L1003.6,1389.6L984.3,1408.9L945.7,1408.9L926.4,1389.6Z" style="fill:rgb(141,113,65);stroke:rgb(141,113,65);stroke-width:1px;"/>
        <path d="M984.3,1215.9L984.3,1177.3L1003.6,1158L1042.2,1158L1061.5,1177.3L1061.5,1215.9L1042.2,1235.2L1003.6,1235.2L984.3,1215.9Z" style="fill:rgb(141,113,65);stroke:rgb(141,113,65);stroke-width:1px;"/>
        <path d="M926.4,1119.4L945.7,1100.1L945.7,1061.5L926.4,1042.2L887.8,1042.2L868.5,1061.5L868.5,1100.1L887.8,1119.4L926.4,1119.4Z" style="fill:rgb(141,113,65);stroke:rgb(141,113,65);stroke-width:1px;"/>
        <path d="M1022.9,1601.9L1042.2,1582.6L1042.2,1524.7L1003.6,1447.5L945.7,1370.3L733.4,1370.3L714.1,1447.5L675.5,1486.1L598.3,1486.1L579,1466.8L540.4,1447.5L521.1,1447.5L501.8,1466.8L501.8,1582.6L521.1,1601.9L772,1601.9L829.9,1544L887.8,1524.7L907.1,1524.7L945.7,1544L1003.6,1601.9L1022.9,1601.9Z" style="fill:rgb(141,113,65);stroke:rgb(141,113,65);stroke-width:1px;"/>
        <path d="M1814.2,1196.6L1794.9,1196.6L1698.4,1293.1L1679.1,1351L1659.8,1389.6L1621.2,1408.9L1621.2,1466.8L1640.5,1486.1L1775.6,1486.1L1775.6,1428.2L1794.9,1408.9L1814.2,1408.9L1814.2,1196.6Z" style="fill:rgb(141,113,65);stroke:rgb(141,113,65);stroke-width:1px;"/>
    </g>
    <g id="Layer4" transform="matrix(1,0,0,1,-55.65,23.4)">
        <path d="M907.1,1158L868.5,1158L829.9,1119.4L829.9,1080.8L1003.6,907.1L1196.6,907.1L1254.5,965L1254.5,984.3L1138.7,984.3L1119.4,1003.6L1061.5,1003.6L907.1,1158ZM926.4,1119.4L945.7,1100.1L945.7,1061.5L926.4,1042.2L887.8,1042.2L868.5,1061.5L868.5,1100.1L887.8,1119.4L926.4,1119.4Z" style="fill:rgb(178,145,89);stroke:rgb(178,145,89);stroke-width:1px;"/>
        <path d="M1254.5,1100.1L1312.4,1158L1312.4,1177.3L1177.3,1196.6L1119.4,1215.9L1080.8,1254.5L965,1254.5L945.7,1235.2L945.7,1158L965,1138.7L1042.2,1100.1L1254.5,1100.1ZM1042.2,1235.2L1061.5,1215.9L1061.5,1177.3L1042.2,1158L1003.6,1158L984.3,1177.3L984.3,1215.9L1003.6,1235.2L1042.2,1235.2Z" style="fill:rgb(178,145,89);stroke:rgb(178,145,89);stroke-width:1px;"/>
        <path d="M887.8,1408.9L926.4,1447.5L1138.7,1447.5L1138.7,1428.2L1119.4,1389.6L1003.6,1293.1L907.1,1293.1L887.8,1312.4L887.8,1408.9ZM984.3,1408.9L1003.6,1389.6L1003.6,1351L984.3,1331.7L945.7,1331.7L926.4,1351L926.4,1389.6L945.7,1408.9L984.3,1408.9Z" style="fill:rgb(178,145,89);stroke:rgb(178,145,89);stroke-width:1px;"/>
    </g>
    <g id="Layer2" transform="matrix(1,0,0,1,-55.65,23.4)">
        <path d="M810.6,1235.2L810.6,1196.6L829.9,1177.3L868.5,1177.3L887.8,1196.6L887.8,1235.2L868.5,1254.5L829.9,1254.5L810.6,1235.2Z" style="fill:rgb(167,223,249);stroke:rgb(167,223,249);stroke-width:1px;"/>
    </g>
</svg>
