<?xml version="1.0" encoding="UTF-8" standalone="no"?>
<!DOCTYPE svg PUBLIC "-//W3C//DTD SVG 1.1//EN" "http://www.w3.org/Graphics/SVG/1.1/DTD/svg11.dtd">
<svg width="100%" height="100%" viewBox="0 0 4634 3475" version="1.1" xmlns="http://www.w3.org/2000/svg" xmlns:xlink="http://www.w3.org/1999/xlink" xml:space="preserve" xmlns:serif="http://www.serif.com/" style="fill-rule:evenodd;clip-rule:evenodd;stroke-linecap:round;stroke-linejoin:round;stroke-miterlimit:1.5;">
    <g transform="matrix(2.08333,0,0,2.08333,0,0)">
        <g id="Layer1">
            <path d="M1582.6,791.3L1563.3,810.6L1505.4,829.9L1428.2,907.1L1428.2,810.6L1640.5,598.3L1814.2,598.3L1814.2,656.2L1833.5,675.5L1852.8,714.1L1872.1,733.4L1852.8,752.7L1852.8,868.5L1891.4,907.1L1852.8,945.7L1852.8,1061.5L1891.4,1100.1L1852.8,1138.7L1852.8,1254.5L1891.4,1293.1L1852.8,1331.7L1852.8,1447.5L1872.1,1466.8L1891.4,1466.8L1891.4,1486.1L1852.8,1524.7L1814.2,1563.3L1235.2,1563.3L1235.2,1505.4L1254.5,1486.1L1601.9,1486.1L1756.3,1331.7L1756.3,887.8L1698.4,829.9L1640.5,810.6L1621.2,791.3L1582.6,791.3ZM463.2,1138.7L443.9,1138.7L424.6,1119.4L424.6,1080.8L443.9,1022.9L559.7,907.1L656.2,907.1L694.8,945.7L714.1,984.3L810.6,984.3L810.6,636.9L849.2,598.3L1158,598.3L1196.6,636.9L1196.6,598.3L849.2,250.9L849.2,154.4L868.5,135.1L1910.7,135.1L1930,154.4L1428.2,656.2L1428.2,1158L1408.9,1177.3L1138.7,1177.3L1080.8,1100.1L1080.8,887.8L1061.5,868.5L1042.2,868.5L1003.6,907.1L1003.6,965L1042.2,1100.1L1042.2,1293.1L1022.9,1293.1L984.3,1331.7L945.7,1331.7L907.1,1293.1L849.2,1293.1L656.2,1196.6L540.4,1138.7L521.1,1119.4L482.5,1119.4L463.2,1138.7Z" style="fill:rgb(191,80,58);stroke:rgb(191,80,58);stroke-width:1px;"/>
            <path d="M1428.2,1447.5L1621.2,1447.5L1737,1331.7L1737,1080.8L1717.7,1080.8L1698.4,1100.1L1621.2,1100.1L1563.3,1042.2L1563.3,945.7L1582.6,926.4L1659.8,926.4L1698.4,965L1698.4,1022.9L1679.1,1022.9L1659.8,1003.6L1659.8,965L1640.5,945.7L1601.9,945.7L1582.6,965L1582.6,1022.9L1640.5,1080.8L1698.4,1080.8L1737,1061.5L1737,907.1L1659.8,829.9L1544,829.9L1466.8,907.1L1466.8,1100.1L1544,1177.3L1563.3,1235.2L1582.6,1254.5L1582.6,1312.4L1563.3,1331.7L1544,1331.7L1428.2,1215.9L1428.2,1447.5Z" style="fill:rgb(191,80,58);stroke:rgb(191,80,58);stroke-width:1px;"/>
        </g>
        <g id="Layer5">
            <path d="M772,1119.4L772,1080.8L791.3,1061.5L829.9,1061.5L849.2,1080.8L849.2,1119.4L829.9,1138.7L791.3,1138.7L772,1119.4Z" style="fill:rgb(167,223,249);stroke:rgb(167,223,249);stroke-width:1px;"/>
        </g>
        <g id="Layer3">
            <path d="M617.6,1331.7L656.2,1293.1L656.2,1196.6L540.4,1138.7L521.1,1138.7L482.5,1177.3L463.2,1158L463.2,1138.7L443.9,1138.7L424.6,1119.4L424.6,1080.8L443.9,1022.9L559.7,907.1L579,907.1L656.2,829.9L675.5,791.3L694.8,752.7L733.4,694.8L752.7,656.2L733.4,559.7L636.9,463.2L617.6,463.2L617.6,521.1L656.2,559.7L656.2,675.5L617.6,714.1L598.3,714.1L559.7,675.5L559.7,579L579,559.7L579,366.7L559.7,289.5L540.4,193L521.1,193L501.8,212.3L463.2,289.5L463.2,366.7L482.5,386L482.5,501.8L386,598.3L386,675.5L424.6,752.7L443.9,772L443.9,849.2L424.6,868.5L386,945.7L386,1215.9L424.6,1293.1L463.2,1331.7L617.6,1331.7Z" style="fill:rgb(228,149,2);stroke:rgb(228,149,2);stroke-width:1px;"/>
        </g>
        <g id="Layer6">
            <path d="M1022.9,1119.4L887.8,984.3L810.6,984.3L810.6,945.7L1003.6,752.7L1061.5,752.7L1080.8,772L1080.8,829.9L1003.6,907.1L984.3,945.7L965,984.3L984.3,984.3L1061.5,907.1L1119.4,868.5L1138.7,868.5L1158,887.8L1158,945.7L1080.8,1022.9L1042.2,1100.1L1119.4,1061.5L1158,1022.9L1215.9,1022.9L1235.2,1042.2L1235.2,1061.5L1080.8,1215.9L1177.3,1215.9L1196.6,1235.2L1196.6,1254.5L1080.8,1293.1L1022.9,1293.1L1022.9,1119.4Z" style="fill:rgb(120,35,18);stroke:rgb(120,35,18);stroke-width:1px;"/>
            <path d="M810.6,926.4L675.5,791.3L675.5,772L772,772L791.3,752.7L791.3,733.4L810.6,752.7L810.6,926.4Z" style="fill:rgb(120,35,18);stroke:rgb(120,35,18);stroke-width:1px;"/>
            <path d="M810.6,752.7L675.5,636.9L675.5,617.6L849.2,579L849.2,598.3L810.6,636.9L810.6,752.7Z" style="fill:rgb(120,35,18);stroke:rgb(120,35,18);stroke-width:1px;"/>
            <path d="M849.2,598.3L849.2,463.2L868.5,463.2L1003.6,598.3L849.2,598.3Z" style="fill:rgb(120,35,18);stroke:rgb(120,35,18);stroke-width:1px;"/>
            <path d="M1196.6,1505.4L1177.3,1486.1L1003.6,1486.1L714.1,1582.6L714.1,1601.9L1196.6,1601.9L1196.6,1505.4Z" style="fill:rgb(120,35,18);stroke:rgb(120,35,18);stroke-width:1px;"/>
            <path d="M1428.2,1215.9L1273.8,1215.9L1196.6,1293.1L1196.6,1466.8L1215.9,1466.8L1312.4,1370.3L1370.3,1351L1428.2,1331.7L1428.2,1215.9Z" style="fill:rgb(120,35,18);stroke:rgb(120,35,18);stroke-width:1px;"/>
            <path d="M1428.2,1370.3L1331.7,1370.3L1273.8,1428.2L1273.8,1447.5L1428.2,1447.5L1428.2,1370.3Z" style="fill:rgb(120,35,18);stroke:rgb(120,35,18);stroke-width:1px;"/>
            <path d="M1659.8,559.7L1756.3,463.2L1775.6,463.2L1775.6,598.3L1640.5,598.3L1659.8,559.7Z" style="fill:rgb(120,35,18);stroke:rgb(120,35,18);stroke-width:1px;"/>
            <path d="M1775.6,598.3L1775.6,579L1794.9,579L1852.8,559.7L1968.6,559.7L1968.6,579L1930,598.3L1891.4,636.9L1891.4,675.5L1930,714.1L1930,829.9L1910.7,849.2L1891.4,887.8L1930,926.4L1930,1022.9L1910.7,1042.2L1891.4,1080.8L1930,1119.4L1930,1215.9L1910.7,1235.2L1891.4,1273.8L1930,1312.4L1930,1408.9L1910.7,1428.2L1891.4,1466.8L1872.1,1466.8L1852.8,1447.5L1852.8,1331.7L1891.4,1293.1L1852.8,1254.5L1852.8,1138.7L1891.4,1100.1L1852.8,1061.5L1852.8,945.7L1891.4,907.1L1852.8,868.5L1852.8,752.7L1852.8,714.1L1833.5,675.5L1814.2,656.2L1814.2,617.6L1775.6,598.3Z" style="fill:rgb(120,35,18);stroke:rgb(120,35,18);stroke-width:1px;"/>
            <path d="M1833.5,1524.7L1833.5,1544L1775.6,1601.9L1698.4,1601.9L1698.4,1544L1717.7,1524.7L1833.5,1524.7Z" style="fill:rgb(120,35,18);stroke:rgb(120,35,18);stroke-width:1px;"/>
            <path d="M1679.1,1544L1621.2,1601.9L1544,1601.9L1544,1544L1563.3,1524.7L1679.1,1524.7" style="fill:rgb(120,35,18);stroke:rgb(120,35,18);stroke-width:1px;"/>
            <path d="M1408.9,1524.7L1524.7,1524.7L1524.7,1544L1466.8,1601.9L1389.6,1601.9L1389.6,1544L1408.9,1524.7Z" style="fill:rgb(120,35,18);stroke:rgb(120,35,18);stroke-width:1px;"/>
            <path d="M1370.3,1524.7L1370.3,1544L1312.4,1601.9L1235.2,1601.9L1235.2,1544L1254.5,1524.7L1370.3,1524.7Z" style="fill:rgb(120,35,18);stroke:rgb(120,35,18);stroke-width:1px;"/>
            <path d="M1331.7,887.8L1312.4,887.8L1312.4,791.3L1331.7,772L1370.3,772L1428.2,829.9L1428.2,945.7L1351,1022.9L1312.4,1022.9L1196.6,907.1L1196.6,598.3L965,366.7L965,250.9L1003.6,212.3L1852.8,212.3L1852.8,231.6L1447.5,636.9L1428.2,636.9L1138.7,347.4L1138.7,328.1L1601.9,328.1L1601.9,347.4L1544,405.3L1331.7,405.3L1331.7,424.6L1447.5,540.4L1679.1,308.8L1679.1,289.5L1022.9,289.5L1022.9,308.8L1273.8,559.7L1273.8,868.5L1331.7,926.4L1389.6,868.5L1351,829.9L1351,868.5L1331.7,887.8Z" style="fill:rgb(120,35,18);stroke:rgb(120,35,18);stroke-width:1px;"/>
            <path d="M907.1,212.3L887.8,193L887.8,38.6L907.1,38.6L1022.9,154.4L1022.9,173.7L984.3,193L965,212.3L907.1,212.3Z" style="fill:rgb(120,35,18);stroke:rgb(120,35,18);stroke-width:1px;"/>
            <path d="M1100.1,173.7L1080.8,154.4L1080.8,38.6L1100.1,38.6L1177.3,115.8L1177.3,154.4L1158,173.7L1100.1,173.7Z" style="fill:rgb(120,35,18);stroke:rgb(120,35,18);stroke-width:1px;"/>
            <path d="M1293.1,173.7L1273.8,154.4L1273.8,38.6L1293.1,38.6L1370.3,115.8L1370.3,154.4L1351,173.7L1293.1,173.7Z" style="fill:rgb(120,35,18);stroke:rgb(120,35,18);stroke-width:1px;"/>
            <path d="M1563.3,154.4L1544,173.7L1486.1,173.7L1466.8,154.4L1466.8,38.6L1486.1,38.6L1563.3,115.8L1563.3,154.4Z" style="fill:rgb(120,35,18);stroke:rgb(120,35,18);stroke-width:1px;"/>
            <path d="M1737,173.7L1679.1,173.7L1659.8,154.4L1659.8,38.6L1679.1,38.6L1756.3,115.8L1756.3,154.4L1737,173.7Z" style="fill:rgb(120,35,18);stroke:rgb(120,35,18);stroke-width:1px;"/>
            <path d="M810.6,115.8L791.3,96.5L598.3,96.5L598.3,115.8L772,250.9L791.3,250.9L810.6,231.6L810.6,115.8Z" style="fill:rgb(120,35,18);stroke:rgb(120,35,18);stroke-width:1px;"/>
        </g>
        <g id="Layer2">
            <path d="M1042.2,1293.1L1158,1408.9L1158,1447.5L1022.9,1466.8L887.8,1486.1L521.1,1486.1L501.8,1466.8L501.8,1331.7L540.4,1331.7L579,1370.3L694.8,1370.3L772,1293.1L907.1,1293.1L945.7,1331.7L984.3,1331.7L1022.9,1293.1L1042.2,1293.1ZM907.1,1293.1L849.2,1293.1L849.2,1215.9L887.8,1177.3L965,1177.3L1003.6,1215.9L1003.6,1254.5L965,1293.1L926.4,1293.1L907.1,1273.8L926.4,1254.5L945.7,1254.5L945.7,1235.2L926.4,1215.9L887.8,1254.5L887.8,1273.8L907.1,1293.1Z" style="fill:rgb(255,142,101);stroke:rgb(255,142,101);stroke-width:1px;"/>
            <path d="M1447.5,810.6L1428.2,810.6L1428.2,752.7L1621.2,559.7L1659.8,559.7L1640.5,598.3L1582.6,675.5L1775.6,675.5L1814.2,714.1L1814.2,1408.9L1698.4,1524.7L1640.5,1524.7L1640.5,1505.4L1775.6,1370.3L1775.6,752.7C1775.6,752.7 1737.87,710.365 1737,714.1C1736.13,717.835 1544,714.1 1544,714.1L1447.5,810.6Z" style="fill:rgb(255,142,101);stroke:rgb(255,142,101);stroke-width:1px;"/>
            <path d="M887.8,868.5L887.8,714.1L926.4,675.5L1119.4,675.5L1158,714.1L1158,887.8L1138.7,868.5L1119.4,868.5L1119.4,752.7L1080.8,714.1L965,714.1L926.4,752.7L926.4,829.9L887.8,868.5Z" style="fill:rgb(255,142,101);stroke:rgb(255,142,101);stroke-width:1px;"/>
            <path d="M1158,945.7L1158,1022.9L1119.4,1061.5L1119.4,984.3L1158,945.7Z" style="fill:rgb(255,142,101);stroke:rgb(255,142,101);stroke-width:1px;"/>
            <path d="M1196.6,1100.1L1235.2,1061.5L1428.2,1061.5L1428.2,1100.1L1196.6,1100.1Z" style="fill:rgb(255,142,101);stroke:rgb(255,142,101);stroke-width:1px;"/>
            <path d="M1930,154.4L1930,250.9L1852.8,250.9L1852.8,328.1L1775.6,328.1L1775.6,405.3L1698.4,405.3L1698.4,482.5L1621.2,482.5L1621.2,559.7L1544,559.7L1544,636.9L1466.8,636.9L1466.8,714.1L1428.2,714.1L1428.2,656.2L1930,154.4Z" style="fill:rgb(255,142,101);stroke:rgb(255,142,101);stroke-width:1px;"/>
        </g>
        <g id="Layer4">
            <path d="M617.6,1254.5L617.6,1215.9L579,1177.3L540.4,1177.3L501.8,1215.9L501.8,1254.5L540.4,1293.1L579,1293.1L617.6,1254.5Z" style="fill:rgb(228,205,1);stroke:rgb(228,205,1);stroke-width:1px;"/>
        </g>
    </g>
</svg>
