<?xml version="1.0" encoding="UTF-8" standalone="no"?>
<!DOCTYPE svg PUBLIC "-//W3C//DTD SVG 1.1//EN" "http://www.w3.org/Graphics/SVG/1.1/DTD/svg11.dtd">
<svg width="100%" height="100%" viewBox="0 0 4634 3475" version="1.1" xmlns="http://www.w3.org/2000/svg" xmlns:xlink="http://www.w3.org/1999/xlink" xml:space="preserve" xmlns:serif="http://www.serif.com/" style="fill-rule:evenodd;clip-rule:evenodd;stroke-linecap:round;stroke-linejoin:round;stroke-miterlimit:1.5;">
    <g transform="matrix(2.08333,0,0,2.08333,0,0)">
        <g transform="matrix(1,0,0,1,-48.25,15)">
            <g id="Layer1">
                <path d="M1092,1345.5L1053,1306.5L897,1228.5L780,1209L663,1209L585,1131L507,975L507,585L526.5,546L546,487.5L565.5,448.5L585,390L760.5,214.5L799.5,195L858,175.5L936,156L1326,156L1404,175.5L1462.5,195L1501.5,214.5L1677,390L1696.5,448.5L1716,487.5L1735.5,546L1755,585L1755,975L1677,1131L1599,1209L1482,1209L1365,1228.5L1209,1306.5L1170,1345.5L1131,1365L1092,1345.5Z" style="fill:rgb(201,142,29);stroke:rgb(201,142,29);stroke-width:1px;"/>
            </g>
        </g>
        <g id="Layer7">
            <g transform="matrix(1,0,0,1,-48.25,15)">
                <path d="M1365,1150.5L1365,1111.5L1384.5,1092L1423.5,1092L1443,1111.5L1443,1150.5L1423.5,1170L1384.5,1170L1365,1150.5Z" style="fill:rgb(144,84,20);stroke:rgb(144,84,20);stroke-width:1px;"/>
            </g>
            <g transform="matrix(1,0,0,1,-438.25,54)">
                <path d="M1365,1150.5L1365,1111.5L1384.5,1092L1423.5,1092L1443,1111.5L1443,1150.5L1423.5,1170L1384.5,1170L1365,1150.5Z" style="fill:rgb(144,84,20);stroke:rgb(144,84,20);stroke-width:1px;"/>
            </g>
            <g transform="matrix(1,0,0,1,-867.25,-180)">
                <path d="M1365,1150.5L1365,1111.5L1384.5,1092L1423.5,1092L1443,1111.5L1443,1150.5L1423.5,1170L1384.5,1170L1365,1150.5Z" style="fill:rgb(144,84,20);stroke:rgb(144,84,20);stroke-width:1px;"/>
            </g>
            <g transform="matrix(1,0,0,1,107.75,-24)">
                <path d="M1365,1150.5L1365,1111.5L1384.5,1092L1423.5,1092L1443,1111.5L1443,1150.5L1423.5,1170L1384.5,1170L1365,1150.5Z" style="fill:rgb(144,84,20);stroke:rgb(144,84,20);stroke-width:1px;"/>
            </g>
            <g transform="matrix(1,0,0,1,185.75,-336)">
                <path d="M1365,1150.5L1365,1111.5L1384.5,1092L1423.5,1092L1443,1111.5L1443,1150.5L1423.5,1170L1384.5,1170L1365,1150.5Z" style="fill:rgb(144,84,20);stroke:rgb(144,84,20);stroke-width:1px;"/>
            </g>
            <g transform="matrix(1,0,0,1,-48.25,15)">
                <rect x="1404" y="1014" width="39" height="39" style="fill:rgb(144,84,20);stroke:rgb(144,84,20);stroke-width:1px;"/>
            </g>
            <g transform="matrix(1,0,0,1,-516.25,15)">
                <rect x="1404" y="1014" width="39" height="39" style="fill:rgb(144,84,20);stroke:rgb(144,84,20);stroke-width:1px;"/>
            </g>
            <g transform="matrix(1,0,0,1,-711.25,-63)">
                <rect x="1404" y="1014" width="39" height="39" style="fill:rgb(144,84,20);stroke:rgb(144,84,20);stroke-width:1px;"/>
            </g>
            <g transform="matrix(1,0,0,1,-789.25,-492)">
                <rect x="1404" y="1014" width="39" height="39" style="fill:rgb(144,84,20);stroke:rgb(144,84,20);stroke-width:1px;"/>
            </g>
            <g transform="matrix(1,0,0,1,-828.25,54)">
                <rect x="1404" y="1014" width="39" height="39" style="fill:rgb(144,84,20);stroke:rgb(144,84,20);stroke-width:1px;"/>
            </g>
            <g transform="matrix(1,0,0,1,-321.25,-24)">
                <rect x="1404" y="1014" width="39" height="39" style="fill:rgb(144,84,20);stroke:rgb(144,84,20);stroke-width:1px;"/>
            </g>
            <g transform="matrix(1,0,0,1,-243.25,132)">
                <rect x="1404" y="1014" width="39" height="39" style="fill:rgb(144,84,20);stroke:rgb(144,84,20);stroke-width:1px;"/>
            </g>
            <g transform="matrix(1,0,0,1,107.75,-453)">
                <rect x="1404" y="1014" width="39" height="39" style="fill:rgb(144,84,20);stroke:rgb(144,84,20);stroke-width:1px;"/>
            </g>
            <g transform="matrix(1,0,0,1,185.75,-24)">
                <rect x="1404" y="1014" width="39" height="39" style="fill:rgb(144,84,20);stroke:rgb(144,84,20);stroke-width:1px;"/>
            </g>
            <g transform="matrix(1,0,0,1,-48.25,15)">
                <path d="M1404,897L1423.5,916.5L1462.5,916.5L1482,897L1482,858L1404,858L1404,897Z" style="fill:rgb(144,84,20);stroke:rgb(144,84,20);stroke-width:1px;"/>
            </g>
            <g transform="matrix(1,0,0,1,-48.25,15)">
                <path d="M799.5,1092L780,1111.5L780,1170L819,1170L858,1131L858,1092L799.5,1092Z" style="fill:rgb(144,84,20);stroke:rgb(144,84,20);stroke-width:1px;"/>
            </g>
            <g transform="matrix(1,0,0,1,-48.25,15)">
                <path d="M663,702L663,741L624,780L585,780L546,741L546,702L585,663L624,663L663,702Z" style="fill:rgb(144,84,20);stroke:rgb(144,84,20);stroke-width:1px;"/>
            </g>
        </g>
        <g id="Layer3">
            <g transform="matrix(1,0,0,1,-48.25,15)">
                <path d="M780,663L741,624L741,351L760.5,351L819,468L858,507L858,546L780,663Z" style="fill:rgb(49,61,130);stroke:rgb(49,61,130);stroke-width:1px;"/>
            </g>
            <g transform="matrix(1,0,0,1,-48.25,15)">
                <path d="M897,526.5L897,253.5L916.5,253.5L975,312L1014,390L1014,448.5L897,526.5Z" style="fill:rgb(49,61,130);stroke:rgb(49,61,130);stroke-width:1px;"/>
            </g>
            <g transform="matrix(1,0,0,1,-48.25,15)">
                <path d="M1053,448.5L1053,312L1092,234L1131,234L1170,312L1170,448.5L1053,448.5Z" style="fill:rgb(49,61,130);stroke:rgb(49,61,130);stroke-width:1px;"/>
            </g>
            <g transform="matrix(1,0,0,1,-48.25,15)">
                <path d="M1209,448.5L1209,390L1248,312L1306.5,253.5L1326,253.5L1326,507L1209,448.5Z" style="fill:rgb(49,61,130);stroke:rgb(49,61,130);stroke-width:1px;"/>
            </g>
            <g transform="matrix(1,0,0,1,-48.25,15)">
                <path d="M1365,546L1365,507L1404,468L1462.5,351L1482,351L1482,624L1443,663L1365,546Z" style="fill:rgb(49,61,130);stroke:rgb(49,61,130);stroke-width:1px;"/>
            </g>
            <g transform="matrix(1,0,0,1,-48.25,15)">
                <path d="M643.5,1267.5L585,1248L526.5,1189.5L526.5,1170L604.5,1170L682.5,1228.5L643.5,1267.5Z" style="fill:rgb(49,61,130);stroke:rgb(49,61,130);stroke-width:1px;"/>
            </g>
            <g transform="matrix(-1,0,0,1,2213.75,15)">
                <path d="M643.5,1267.5L585,1248L526.5,1189.5L526.5,1170L604.5,1170L682.5,1228.5L643.5,1267.5Z" style="fill:rgb(49,61,130);stroke:rgb(49,61,130);stroke-width:1px;"/>
            </g>
            <g transform="matrix(1,0,0,1,-48.25,15)">
                <path d="M468,1443L468,1228.5L487.5,1228.5L585,1326L565.5,1404L468,1482L468,1443Z" style="fill:rgb(49,61,130);stroke:rgb(49,61,130);stroke-width:1px;"/>
            </g>
            <g transform="matrix(-1,0,0,1,2213.75,15)">
                <path d="M468,1443L468,1228.5L487.5,1228.5L585,1326L565.5,1404L468,1482L468,1443Z" style="fill:rgb(49,61,130);stroke:rgb(49,61,130);stroke-width:1px;"/>
            </g>
            <g transform="matrix(1,0,0,1,-48.25,15)">
                <path d="M468,1521L468,1560L507,1599L546,1599L546,1521L468,1521Z" style="fill:rgb(49,61,130);stroke:rgb(49,61,130);stroke-width:1px;"/>
            </g>
            <g transform="matrix(-1,0,0,1,2213.75,15)">
                <path d="M468,1521L468,1560L507,1599L546,1599L546,1521L468,1521Z" style="fill:rgb(49,61,130);stroke:rgb(49,61,130);stroke-width:1px;"/>
            </g>
            <g transform="matrix(1,0,0,1,-48.25,15)">
                <path d="M585,1521L585,1560L624,1599L663,1599L663,1521L585,1521Z" style="fill:rgb(49,61,130);stroke:rgb(49,61,130);stroke-width:1px;"/>
            </g>
            <g transform="matrix(-1,0,0,1,2213.75,15)">
                <path d="M585,1521L585,1560L624,1599L663,1599L663,1521L585,1521Z" style="fill:rgb(49,61,130);stroke:rgb(49,61,130);stroke-width:1px;"/>
            </g>
            <g transform="matrix(1,0,0,1,-48.25,15)">
                <path d="M702,1443L702,1560L741,1599L780,1599L780,1482L702,1404L702,1443Z" style="fill:rgb(49,61,130);stroke:rgb(49,61,130);stroke-width:1px;"/>
            </g>
            <g transform="matrix(-1,0,0,1,2213.75,15)">
                <path d="M702,1443L702,1560L741,1599L780,1599L780,1482L702,1404L702,1443Z" style="fill:rgb(49,61,130);stroke:rgb(49,61,130);stroke-width:1px;"/>
            </g>
        </g>
        <g id="Layer2">
            <g transform="matrix(1,0,0,1,-48.25,15)">
                <path d="M1053,916.5L1014,897L936,897L897,858L897,663L1014,546L1209,546L1326,663L1326,858L1287,897L1209,897L1170,916.5L1053,916.5Z" style="fill:rgb(112,103,37);stroke:rgb(112,103,37);stroke-width:1px;"/>
            </g>
            <g transform="matrix(1,0,0,1,-48.25,15)">
                <path d="M877.5,682.5L858,741L819,741L780,702L780,604.5L838.5,546L858,546L897,585L897,624L877.5,682.5Z" style="fill:rgb(112,103,37);stroke:rgb(112,103,37);stroke-width:1px;"/>
            </g>
            <g transform="matrix(-1,0,0,1,2174.75,15)">
                <path d="M877.5,682.5L858,741L819,741L780,702L780,604.5L838.5,546L858,546L897,585L897,624L877.5,682.5Z" style="fill:rgb(112,103,37);stroke:rgb(112,103,37);stroke-width:1px;"/>
            </g>
            <g transform="matrix(1,0,0,1,-48.25,15)">
                <path d="M897,507L975,429L1014,429L1014,526.5L936,565.5L916.5,585L897,585L897,507Z" style="fill:rgb(112,103,37);stroke:rgb(112,103,37);stroke-width:1px;"/>
            </g>
            <g transform="matrix(-1,0,0,1,2174.75,-4.5)">
                <path d="M897,526.5L975,448.5L1014,448.5L1014,546L936,585L916.5,604.5L897,604.5L897,526.5Z" style="fill:rgb(112,103,37);stroke:rgb(112,103,37);stroke-width:1px;"/>
            </g>
            <g transform="matrix(1,0,0,1,-48.25,15)">
                <path d="M1072.5,507L1053,487.5L1053,448.5L1092,409.5L1131,409.5L1170,448.5L1170,487.5L1150.5,507L1072.5,507Z" style="fill:rgb(112,103,37);stroke:rgb(112,103,37);stroke-width:1px;"/>
            </g>
            <g transform="matrix(1,0,0,1,-48.25,15)">
                <path d="M780,1209L663,1209L585,1287L565.5,1345.5L546,1384.5L487.5,1443L468,1462.5L468,1521L702,1521L702,1443L663,1443L604.5,1482L585,1482L585,1404L663,1326L741,1287L780,1248L780,1209Z" style="fill:rgb(112,103,37);stroke:rgb(112,103,37);stroke-width:1px;"/>
            </g>
            <g transform="matrix(-1,0,0,1,2213.75,15)">
                <path d="M780,1209L663,1209L585,1287L565.5,1345.5L546,1384.5L487.5,1443L468,1462.5L468,1521L702,1521L702,1443L663,1443L604.5,1482L585,1482L585,1404L663,1326L741,1287L780,1248L780,1209Z" style="fill:rgb(112,103,37);stroke:rgb(112,103,37);stroke-width:1px;"/>
            </g>
            <g transform="matrix(1,0,0,1,-48.25,15)">
                <path d="M1677,1111.5L1716,1111.5L1755,1092L1872,975L1911,858L1950,702L1950,565.5L1930.5,448.5L1911,429L1794,448.5L1774.5,468L1755,604.5L1755,975L1677,1111.5Z" style="fill:rgb(112,103,37);stroke:rgb(112,103,37);stroke-width:1px;"/>
            </g>
            <g transform="matrix(1,0,0,1,-48.25,15)">
                <path d="M1911,312L1872,234L1833,195L1813.5,195L1716,292.5L1716,351L1755,429L1774.5,429L1852.5,409.5L1911,390L1911,312Z" style="fill:rgb(112,103,37);stroke:rgb(112,103,37);stroke-width:1px;"/>
            </g>
            <g transform="matrix(1,0,0,1,-48.25,34.5)">
                <path d="M1696.5,273L1794,175.5L1794,156L1755,117L1657.5,58.5L1638,58.5L1560,175.5L1560,195L1638,273L1696.5,273Z" style="fill:rgb(112,103,37);stroke:rgb(112,103,37);stroke-width:1px;"/>
            </g>
            <g transform="matrix(1,0,0,1,-28.75,15)">
                <path d="M1521,195L1599,78L1599,58.5L1579.5,39L1404,39L1404,175.5L1521,195Z" style="fill:rgb(112,103,37);stroke:rgb(112,103,37);stroke-width:1px;"/>
            </g>
        </g>
        <g transform="matrix(1,0,0,1,-48.25,15)">
            <g id="Layer4">
                <path d="M897,858L897,819L936,780L1014,741L1053,702L1170,702L1209,741L1287,780L1326,819L1326,858L1287,897L1209,897L1150.5,838.5L1072.5,838.5L1014,897L936,897L897,858Z" style="fill:rgb(164,153,73);stroke:rgb(164,153,73);stroke-width:1px;"/>
            </g>
        </g>
        <g id="Layer5">
            <g transform="matrix(1,0,0,1,-48.25,15)">
                <path d="M936,858L936,819L994.5,799.5L1053,741L1170,741L1228.5,799.5L1287,819L1287,858L1209,858L1131,780L1092,780L1014,858L936,858Z" style="fill:rgb(69,64,21);stroke:rgb(69,64,21);stroke-width:1px;"/>
            </g>
            <g transform="matrix(1,0,0,1,-48.25,15)">
                <path d="M897,702L1014,702L1072.5,643.5L1072.5,624L936,624L897,663L897,702Z" style="fill:rgb(69,64,21);stroke:rgb(69,64,21);stroke-width:1px;"/>
            </g>
            <g transform="matrix(-1,0,0,1,2174.75,15)">
                <path d="M897,702L1014,702L1072.5,643.5L1072.5,624L936,624L897,663L897,702Z" style="fill:rgb(69,64,21);stroke:rgb(69,64,21);stroke-width:1px;"/>
            </g>
            <g transform="matrix(1,0,0,1,-48.25,15)">
                <path d="M1326,1443L936,1443L858,1365L838.5,1306.5L819,1306.5L799.5,1326L702,1443L663,1443L604.5,1482L585,1482L585,1404L663,1326L741,1287L780,1248L780,1209L897,1228.5L1053,1306.5L1092,1345.5L1131,1365L1170,1345.5L1209,1306.5L1365,1228.5L1482,1209L1482,1248L1521,1287L1599,1326L1677,1404L1677,1482L1657.5,1482L1599,1443L1560,1443L1462.5,1326L1423.5,1326L1404,1365L1326,1443Z" style="fill:rgb(69,64,21);stroke:rgb(69,64,21);stroke-width:1px;"/>
            </g>
            <g transform="matrix(1,0,0,1,-48.25,15)">
                <path d="M507,916.5L487.5,916.5L370.5,799.5L370.5,780L507,780L507,916.5Z" style="fill:rgb(69,64,21);stroke:rgb(69,64,21);stroke-width:1px;"/>
            </g>
            <g transform="matrix(-1,0,0,1,2213.75,15)">
                <path d="M507,916.5L487.5,916.5L370.5,799.5L370.5,780L507,780L507,916.5Z" style="fill:rgb(69,64,21);stroke:rgb(69,64,21);stroke-width:1px;"/>
            </g>
            <g transform="matrix(1,0,0,1,-48.25,15)">
                <path d="M507,702L487.5,702L429,585L370.5,526.5L370.5,507L539.5,507L526.5,546L507,585L507,702Z" style="fill:rgb(69,64,21);stroke:rgb(69,64,21);stroke-width:1px;"/>
            </g>
            <g transform="matrix(-1,0,0,1,2213.75,15)">
                <path d="M507,702L487.5,702L429,585L370.5,526.5L370.5,507L539.5,507L526.5,546L507,585L507,702Z" style="fill:rgb(69,64,21);stroke:rgb(69,64,21);stroke-width:1px;"/>
            </g>
            <g transform="matrix(1,0,0,1,-48.25,15)">
                <path d="M585,390L487.5,292.5L487.5,273L702,273L585,390Z" style="fill:rgb(69,64,21);stroke:rgb(69,64,21);stroke-width:1px;"/>
            </g>
            <g transform="matrix(-1,0,0,1,2213.75,15)">
                <path d="M585,390L487.5,292.5L487.5,273L702,273L585,390Z" style="fill:rgb(69,64,21);stroke:rgb(69,64,21);stroke-width:1px;"/>
            </g>
            <g transform="matrix(1,0,0,1,-48.25,15)">
                <path d="M741,234L702,156L682.5,136.5L682.5,117L819,117L858,156L858,175.5L799.5,195L741,234Z" style="fill:rgb(69,64,21);stroke:rgb(69,64,21);stroke-width:1px;"/>
            </g>
            <g transform="matrix(-1,0,0,1,2213.75,15)">
                <path d="M741,234L702,156L682.5,136.5L682.5,117L819,117L858,156L858,175.5L799.5,195L741,234Z" style="fill:rgb(69,64,21);stroke:rgb(69,64,21);stroke-width:1px;"/>
            </g>
            <g transform="matrix(1,0,0,1,-28.75,15)">
                <path d="M1365,156L1326,156L1248,136.5L1248,39L1365,39L1365,156Z" style="fill:rgb(69,64,21);stroke:rgb(69,64,21);stroke-width:1px;"/>
            </g>
            <g transform="matrix(1,0,0,1,-28.25,15)">
                <path d="M1209,136.5L1209,39L1092,39L1092,117L1170,136.5L1209,136.5Z" style="fill:rgb(69,64,21);stroke:rgb(69,64,21);stroke-width:1px;"/>
            </g>
            <g transform="matrix(1,0,0,1,-28.75,15)">
                <path d="M1053,117L1053,39L916.5,39L916.5,78L1014,117L1053,117Z" style="fill:rgb(69,64,21);stroke:rgb(69,64,21);stroke-width:1px;"/>
            </g>
            <g transform="matrix(1,0,0,1,-28.75,15)">
                <rect x="799.5" y="39" width="97.5" height="39" style="fill:rgb(69,64,21);stroke:rgb(69,64,21);stroke-width:1px;"/>
            </g>
            <g transform="matrix(1,0,0,1,-28.75,15)">
                <path d="M780,78L780,39L721.5,39L721.5,58.5L741,78L780,78Z" style="fill:rgb(69,64,21);stroke:rgb(69,64,21);stroke-width:1px;"/>
            </g>
        </g>
        <g id="Layer6">
            <g transform="matrix(1,0,0,1,-48.25,15)">
                <rect x="975" y="624" width="39" height="39" style="fill:rgb(121,155,200);stroke:rgb(121,155,200);stroke-width:1px;"/>
            </g>
            <g transform="matrix(1,0,0,1,-48.25,15)">
                <rect x="1209" y="624" width="39" height="39" style="fill:rgb(121,155,200);stroke:rgb(121,155,200);stroke-width:1px;"/>
            </g>
        </g>
    </g>
</svg>
