<?xml version="1.0" encoding="UTF-8" standalone="no"?>
<!DOCTYPE svg PUBLIC "-//W3C//DTD SVG 1.1//EN" "http://www.w3.org/Graphics/SVG/1.1/DTD/svg11.dtd">
<svg width="100%" height="100%" viewBox="0 0 4634 3475" version="1.1" xmlns="http://www.w3.org/2000/svg" xmlns:xlink="http://www.w3.org/1999/xlink" xml:space="preserve" xmlns:serif="http://www.serif.com/" style="fill-rule:evenodd;clip-rule:evenodd;stroke-linecap:round;stroke-linejoin:round;stroke-miterlimit:1.5;">
    <g transform="matrix(2.08333,0,0,2.08333,0,0)">
        <g id="Layer12">
            <g transform="matrix(1,0,0,1,-30.5,-34.275)">
                <path d="M982.55,845.45L982.55,776.9L1005.4,764.049L1028.25,776.9L1028.25,845.45L982.55,845.45Z" style="fill:rgb(33,31,27);stroke:rgb(33,31,27);stroke-width:1px;"/>
            </g>
            <g transform="matrix(1,0,0,1,243.7,-34.275)">
                <path d="M982.55,845.45L982.55,776.9L1005.4,764.049L1028.25,776.9L1028.25,845.45L982.55,845.45Z" style="fill:rgb(33,31,27);stroke:rgb(33,31,27);stroke-width:1px;"/>
            </g>
            <g transform="matrix(1,0,0,1,-30.5,-34.275)">
                <path d="M1073.95,708.35L1028.25,662.65L982.55,616.95L982.55,342.75L1005.4,342.75L1028.25,594.1L1096.8,662.65L1073.95,708.35Z" style="fill:rgb(33,31,27);stroke:rgb(33,31,27);stroke-width:1px;"/>
            </g>
            <g transform="matrix(-1,0,0,1,2254.5,-34.275)">
                <path d="M1073.95,708.35L1028.25,662.65L982.55,616.95L982.55,319.9L1005.4,342.75L1028.25,594.1L1096.8,662.65L1073.95,708.35Z" style="fill:rgb(33,31,27);stroke:rgb(33,31,27);stroke-width:1px;"/>
            </g>
        </g>
        <g id="Layer11">
            <g transform="matrix(1,0,0,1,-30.5,-34.275)">
                <path d="M1668.05,1485.25L1462.4,1485.25L1599.5,1348.15L1713.75,1348.15L1759.45,1393.85L1668.05,1485.25Z" style="fill:rgb(32,32,98);stroke:rgb(32,32,98);stroke-width:1px;"/>
            </g>
            <g transform="matrix(-1,0,0,1,2254.5,-34.275)">
                <path d="M1668.05,1485.25L1462.4,1485.25L1599.5,1348.15L1713.75,1348.15L1759.45,1393.85L1668.05,1485.25Z" style="fill:rgb(32,32,98);stroke:rgb(32,32,98);stroke-width:1px;"/>
            </g>
            <g transform="matrix(1,0,0,1,-30.5,-34.275)">
                <path d="M685.5,1073.95L731.2,959.7L616.95,845.45L525.55,845.45L525.55,936.85L548.4,936.85L685.5,1073.95Z" style="fill:rgb(32,32,98);stroke:rgb(32,32,98);stroke-width:1px;"/>
            </g>
            <g transform="matrix(-1,0,0,1,2254.5,-34.275)">
                <path d="M685.5,1073.95L731.2,959.7L616.95,845.45L525.55,845.45L525.55,936.85L548.4,936.85L685.5,1073.95Z" style="fill:rgb(32,32,98);stroke:rgb(32,32,98);stroke-width:1px;"/>
            </g>
            <g transform="matrix(1,0,0,1,-30.5,-34.275)">
                <path d="M388.45,936.85L388.45,868.3L411.3,845.45L479.85,845.45L479.85,936.85L388.45,936.85Z" style="fill:rgb(32,32,98);stroke:rgb(32,32,98);stroke-width:1px;"/>
            </g>
            <g transform="matrix(-1,0,0,1,2254.5,-34.275)">
                <path d="M388.45,936.85L388.45,868.3L411.3,845.45L479.85,845.45L479.85,936.85L388.45,936.85Z" style="fill:rgb(32,32,98);stroke:rgb(32,32,98);stroke-width:1px;"/>
            </g>
            <g transform="matrix(1,0,0,1,-30.5,-34.275)">
                <path d="M525.55,616.95L708.35,616.95L914,891.15L891.15,1028.25L845.45,982.55L525.55,616.95Z" style="fill:rgb(32,32,98);stroke:rgb(32,32,98);stroke-width:1px;"/>
            </g>
            <g transform="matrix(-1,0,0,1,2254.5,-34.275)">
                <path d="M525.55,616.95L708.35,616.95L914,891.15L891.15,1028.25L845.45,982.55L525.55,616.95Z" style="fill:rgb(32,32,98);stroke:rgb(32,32,98);stroke-width:1px;"/>
            </g>
            <g transform="matrix(1,0,0,1,-30.5,-34.275)">
                <path d="M1073.95,776.9L1073.95,594.1L1096.8,548.4L1119.65,525.55L1165.35,525.55L1188.2,548.4L1211.05,594.1L1211.05,776.9L1073.95,776.9Z" style="fill:rgb(32,32,98);stroke:rgb(32,32,98);stroke-width:1px;"/>
            </g>
            <g transform="matrix(1,0,0,1,-30.5,-34.275)">
                <path d="M434.15,571.25L502.7,457L685.5,297.05L959.7,114.25L1530.95,68.55L1599.5,68.55L1713.75,87.592L1759.45,114.25L1805.15,159.95L1832.57,205.65L1850.85,297.05L1805.15,274.2L1759.45,258.967L1713.75,251.35L1371,251.35L1211.05,274.2L1028.25,342.75L914,388.45L822.6,434.15L685.5,525.55L616.95,571.25L434.15,571.25Z" style="fill:rgb(32,32,98);stroke:rgb(32,32,98);stroke-width:1px;"/>
            </g>
            <g transform="matrix(-1,0,0,1,2254.5,-34.275)">
                <path d="M1599.5,77.23L1713.75,87.592L1759.45,114.25L1805.15,159.95L1832.57,205.65L1850.85,297.05L1805.15,274.2L1759.45,258.967L1713.75,251.35L1668.05,251.35L1530.95,114.25L1576.65,76.303L1599.5,77.23Z" style="fill:rgb(32,32,98);stroke:rgb(32,32,98);stroke-width:1px;"/>
            </g>
            <g transform="matrix(1,0,0,1,-30.5,-34.275)">
                <path d="M1850.85,571.25L1668.05,571.25L1645.2,525.55L1599.5,479.85L1530.95,434.15L1485.25,411.3L1485.25,319.9L1622.35,342.75L1759.45,457L1850.85,571.25Z" style="fill:rgb(32,32,98);stroke:rgb(32,32,98);stroke-width:1px;"/>
            </g>
        </g>
        <g id="Layer16">
            <g transform="matrix(1,0,0,1,312.25,34.275)">
                <path d="M251.35,776.9L274.2,776.9L388.45,891.15L382.103,907.023L251.35,776.9Z" style="fill:rgb(29,114,222);stroke:rgb(29,114,222);stroke-width:1px;"/>
            </g>
            <g transform="matrix(-1,0,0,1,1911.75,34.275)">
                <path d="M251.35,776.9L274.2,776.9L388.45,891.15L382.103,907.023L251.35,776.9Z" style="fill:rgb(29,114,222);stroke:rgb(29,114,222);stroke-width:1px;"/>
            </g>
            <g transform="matrix(1,0,0,1,312.25,34.275)">
                <path d="M365.6,548.4L571.25,822.6L571.25,845.45L548.4,845.45L342.75,548.4L365.6,548.4Z" style="fill:rgb(29,114,222);stroke:rgb(29,114,222);stroke-width:1px;"/>
            </g>
            <g transform="matrix(-1,0,0,1,1911.75,34.275)">
                <path d="M365.6,548.4L571.25,822.6L571.25,845.45L548.4,845.45L342.75,548.4L365.6,548.4Z" style="fill:rgb(29,114,222);stroke:rgb(29,114,222);stroke-width:1px;"/>
            </g>
            <g transform="matrix(1,0,0,1,312.25,34.275)">
                <path d="M342.75,1279.6L479.85,1416.7L457,1416.7L319.9,1279.6L342.75,1279.6Z" style="fill:rgb(29,114,222);stroke:rgb(29,114,222);stroke-width:1px;"/>
            </g>
            <g transform="matrix(-1,0,0,1,1911.75,34.275)">
                <path d="M342.75,1279.6L479.85,1416.7L457,1416.7L319.9,1279.6L342.75,1279.6Z" style="fill:rgb(29,114,222);stroke:rgb(29,114,222);stroke-width:1px;"/>
            </g>
        </g>
        <g transform="matrix(1,0,0,1,312.25,34.275)">
            <g id="Layer25">
                <path d="M251.35,182.8L251.35,22.85L411.3,45.7L274.2,182.8L251.35,182.8Z" style="fill:rgb(47,168,198);stroke:rgb(47,168,198);stroke-width:1px;"/>
            </g>
        </g>
        <g transform="matrix(1,0,0,1,312.25,34.275)">
            <g id="Layer26">
                <path d="M182.8,190.456L182.8,45.7L228.5,19.003L251.35,16.071L258.748,33.477L254.723,47.198L262.42,64.461L263.812,77.784L257.772,91.532L263.673,108.062L258.885,119.348L265.306,124.799L258.333,135.517L261.003,147.949L253.105,156.729L257.668,162.714L256.263,173.501L251.35,182.8L213.281,185.325L182.8,190.456Z" style="fill:rgb(63,128,215);stroke:rgb(63,128,215);stroke-width:1px;"/>
            </g>
        </g>
        <g transform="matrix(1,0,0,1,312.25,34.275)">
            <g id="Layer27">
                <path d="M91.4,228.5L109.547,137.1L137.1,91.4L182.8,45.7L190.612,64.081L184.975,77.565L188.634,94.652L182.251,108.026L190.922,127.797L183.2,151.44L187.959,166.806L184.24,175.391L187.521,182.909L186.835,187.67L182.8,190.516L137.1,205.65L91.4,228.5Z" style="fill:rgb(47,101,174);stroke:rgb(47,101,174);stroke-width:1px;"/>
            </g>
        </g>
        <g transform="matrix(-0.880034,0.387098,0.333094,0.757262,1052.15,-456.155)">
            <g id="Layer13">
                <path d="M731.2,502.7C746.817,475.028 791.037,470.751 791.037,470.751L787.79,502.7L776.9,548.4L766.78,571.25L754.05,594.1L749.294,558.811L740.5,525.55L731.2,502.7Z" style="fill:rgb(1,15,33);stroke:rgb(1,15,33);stroke-width:1.12px;"/>
            </g>
        </g>
        <g transform="matrix(1,0,0,1,-30.5,-34.275)">
            <g id="Layer10">
                <path d="M1211.05,754.05L1211.05,868.3L1233.9,891.15L1371,891.15L1393.85,914L1393.85,1073.95L1348.15,1119.65L1348.15,1325.3L1325.3,1371L1302.45,1393.85L1233.9,1439.55L1051.1,1439.55L982.55,1393.85L959.7,1371L936.85,1325.3L936.85,1119.65L891.15,1073.95L891.15,914L914,891.15L1051.1,891.15L1073.95,868.3L1073.95,754.05L1211.05,754.05ZM1188.2,1005.4L1188.2,982.55L1142.5,959.7L1096.8,982.55L1096.8,1005.4L1119.65,1028.25L1165.35,1028.25L1188.2,1005.4Z" style="fill:rgb(95,96,64);stroke:rgb(95,96,64);stroke-width:1px;"/>
            </g>
        </g>
        <g id="Layer15">
            <g transform="matrix(1,0,0,1,312.25,34.275)">
                <path d="M594.1,1142.5L754.05,1256.75L1005.4,1142.5L1005.4,1256.75L982.55,1302.45L959.7,1325.3L891.15,1371L708.35,1371L639.8,1325.3L616.95,1302.45L594.1,1256.75L594.1,1142.5Z" style="fill:rgb(112,112,99);stroke:rgb(112,112,99);stroke-width:1px;"/>
            </g>
            <g transform="matrix(1,0,0,1,-30.5,-34.275)">
                <path d="M1073.95,1576.65L1073.95,1485.25L1211.05,1485.25L1211.05,1576.65L1142.5,1622.35L1073.95,1576.65Z" style="fill:rgb(112,112,99);stroke:rgb(112,112,99);stroke-width:1px;"/>
            </g>
            <g transform="matrix(1,0,0,1,-30.5,-34.275)">
                <path d="M891.15,1211.05L891.15,1302.45L936.85,1393.85L936.85,1462.4L914,1485.25L868.3,1485.25L822.6,1439.55L776.9,1393.85L731.2,1348.15L662.65,1279.6L662.65,1256.75L708.35,1211.05L891.15,1211.05Z" style="fill:rgb(112,112,99);stroke:rgb(112,112,99);stroke-width:1px;"/>
            </g>
            <g transform="matrix(-1,0,0,1,2254.5,-34.275)">
                <path d="M891.15,1211.05L891.15,1302.45L936.85,1393.85L936.85,1462.4L914,1485.25L868.3,1485.25L822.6,1439.55L776.9,1393.85L731.2,1348.15L662.65,1279.6L662.65,1256.75L708.35,1211.05L891.15,1211.05Z" style="fill:rgb(112,112,99);stroke:rgb(112,112,99);stroke-width:1px;"/>
            </g>
        </g>
        <g id="Layer17">
            <g transform="matrix(1,0,0,1,312.25,34.275)">
                <path d="M525.55,91.4L488.896,147.808L485.377,180.491L470.44,200.811L472.921,230.522L484.272,257.889L470.664,295.738L476.259,316.873L461.215,331.646L465.997,354.506L479.85,365.6L685.5,274.2L594.1,68.55L525.55,91.4Z" style="fill:rgb(178,97,179);stroke:rgb(178,97,179);stroke-width:1px;"/>
            </g>
            <g transform="matrix(0.692043,0.721856,-0.721856,0.692043,1377.73,-239.016)">
                <path d="M544.074,256.628L594.238,336.375L658.853,335.013L659.761,317.83L646.594,301.939L647.869,291.842L636.854,285.524L645.99,264.603L633.652,256.559L636.222,239.845L623.821,206.464L544.074,256.628Z" style="fill:rgb(178,97,179);stroke:rgb(178,97,179);stroke-width:1px;"/>
            </g>
        </g>
        <g id="Layer18">
            <g transform="matrix(1,0,0,1,312.25,34.275)">
                <path d="M616.95,68.55L594.1,91.4L596.065,111.713L579.97,132.173L594.1,159.95L598.922,181.825L617.423,185.078L622.775,205.177L648.985,218.821L651.566,251.329L671.614,250.96L685.5,274.2L799.75,231.358L776.9,137.1L754.05,45.7L685.5,22.85L616.95,68.55Z" style="fill:rgb(170,50,154);stroke:rgb(170,50,154);stroke-width:1px;"/>
            </g>
            <g transform="matrix(1,0,0,1,312.25,34.275)">
                <path d="M1188.2,365.6L1188.2,251.35L1279.6,274.2L1267.87,320.921L1251.13,327.829L1255.94,335.466L1248.64,347.333L1251.3,357.16L1238.24,367.225L1238.02,379.417L1233.9,388.45L1188.2,365.6Z" style="fill:rgb(170,50,154);stroke:rgb(170,50,154);stroke-width:1px;"/>
            </g>
        </g>
        <g id="Layer19">
            <g transform="matrix(1,0,0,1,312.25,34.275)">
                <path d="M754.05,45.7L746.806,69.125L756.185,84.329L757.154,108.982L746.747,123.653L776.918,153.494L774.097,179.644L788.49,194.479L789.761,223.982L799.629,231.405L868.3,205.65L914,199.118L914,114.25L891.15,22.85L754.05,45.7Z" style="fill:rgb(76,132,154);stroke:rgb(76,132,154);stroke-width:1px;"/>
            </g>
            <g transform="matrix(1,0,0,1,312.25,34.275)">
                <path d="M1188.2,251.35L1142.5,251.35L1142.5,342.75L1188.2,365.6L1187.68,359.263L1192.38,352.916L1187.24,345.744L1192.99,332.976L1189.6,323.475L1195.57,313.359L1190.24,310.497L1194.99,300.238L1189.39,290.074L1194.11,277.954L1188.2,251.35Z" style="fill:rgb(76,132,154);stroke:rgb(76,132,154);stroke-width:1px;"/>
            </g>
        </g>
        <g transform="matrix(1,0,0,1,312.25,34.275)">
            <g id="Layer20">
                <path d="M914,205.65L892.888,202.146L889.438,197.651L888.068,174.655L903.138,141.098L891.286,129.091L891.15,114.25L875.885,100.159L871.937,78.962L883.782,54.432L868.3,22.85L982.55,22.85L1028.25,182.8L936.85,195.955L914,205.65Z" style="fill:rgb(42,163,147);stroke:rgb(42,163,147);stroke-width:1px;"/>
            </g>
        </g>
        <g transform="matrix(1,0,0,1,312.25,34.275)">
            <g id="Layer21">
                <path d="M1028.25,182.8L1009.81,161.736L1009.92,123.816L993.798,112.692L996.742,85.796L975.409,66.852L961.404,26.346L982.55,22.85L1142.5,0L1142.5,182.8L1028.25,182.8Z" style="fill:rgb(47,168,198);stroke:rgb(47,168,198);stroke-width:1px;"/>
            </g>
        </g>
        <g transform="matrix(1,0,0,1,312.25,34.275)">
            <g id="Layer23">
                <path d="M1119.65,159.95L1099.19,148.443L1112,128.171L1112,111.736L1103.99,98.441L1096.8,91.4L1100.1,79.658L1096.47,68.329L1101.79,55.545L1112,51.739L1103.12,43.546L1100.74,34.316L1087.77,25.224L1096.8,0L1233.9,0L1359.41,95.667L1256.75,182.8L1142.5,182.8L1119.65,159.95Z" style="fill:rgb(63,128,215);stroke:rgb(63,128,215);stroke-width:1px;"/>
            </g>
        </g>
        <g transform="matrix(1,0,0,1,312.25,34.275)">
            <g id="Layer22">
                <path d="M1256.75,182.8L1270.41,158.539L1256.68,138.729L1253.7,113.963L1245.22,101.367L1243.23,84.796L1253.08,69.928L1241.77,49.801L1256.4,35.032L1241.81,21.966L1243.55,10.056L1233.9,0L1256.75,0L1371,19.01L1416.7,45.7L1462.4,91.4L1489.97,137.1L1508.1,228.5L1462.4,205.65L1416.7,190.56L1371,182.8L1256.75,182.8Z" style="fill:rgb(47,101,174);stroke:rgb(47,101,174);stroke-width:1px;"/>
            </g>
        </g>
        <g id="Layer24">
            <g transform="matrix(1,0,0,1,312.25,34.275)">
                <path d="M137.1,502.7L205.65,388.45L251.35,342.75L457,182.8L525.55,137.1L571.25,114.25L616.95,91.4L525.55,114.25L342.75,228.5L182.8,342.75L68.55,502.7L137.1,502.7Z" style="fill:rgb(29,114,222);stroke:rgb(29,114,222);stroke-width:1px;"/>
            </g>
            <g transform="matrix(1,0,0,1,312.25,34.275)">
                <path d="M1508.1,502.7L1439.55,502.7L1348.15,365.6L1256.75,297.05L1142.5,251.35L1256.75,274.2L1348.15,319.9L1508.1,502.7Z" style="fill:rgb(29,114,222);stroke:rgb(29,114,222);stroke-width:1px;"/>
            </g>
        </g>
        <g id="Layer14">
            <g transform="matrix(1,0,0,1,-30.5,-34.275)">
                <path d="M388.45,571.25L388.45,548.4L479.85,411.3L639.8,251.35L754.05,159.95L845.45,105.11L891.15,87.032L959.7,73.928L1028.25,68.55L1599.5,68.55L1256.75,114.25L1096.8,137.1L982.55,153.202L891.15,182.8L799.75,228.5L708.35,297.05L548.4,418.917L510.317,457L434.15,571.25L388.45,571.25Z" style="fill:rgb(159,160,139);stroke:rgb(159,160,139);stroke-width:1px;"/>
            </g>
            <g transform="matrix(1,0,0,1,-30.5,-34.275)">
                <path d="M1485.25,297.05L1576.65,297.05L1668.05,314.822L1707.22,342.75L1765.98,411.3L1828,502.7L1850.85,548.4L1850.85,571.25L1828,571.25L1713.75,434.15L1690.9,411.3L1622.35,365.6L1576.65,342.75L1485.25,319.9L1485.25,297.05Z" style="fill:rgb(159,160,139);stroke:rgb(159,160,139);stroke-width:1px;"/>
            </g>
            <g transform="matrix(1,0,0,1,-30.5,-34.275)">
                <path d="M754.05,68.55L685.5,68.55L571.25,87.548L754.05,114.25L754.05,68.55Z" style="fill:rgb(159,160,139);stroke:rgb(159,160,139);stroke-width:1px;"/>
            </g>
        </g>
        <g id="Layer8">
            <g transform="matrix(1,0,0,1,-30.5,-34.275)">
                <path d="M1690.9,1508.1L1782.3,1416.7L1805.15,1462.4L1805.15,1668L1782.3,1622.35L1736.6,1553.8L1690.9,1508.1Z" style="fill:rgb(1,15,33);stroke:rgb(1,15,33);stroke-width:1px;"/>
            </g>
            <g transform="matrix(-1,0,0,1,2254.5,-34.275)">
                <path d="M1690.9,1508.1L1782.3,1416.7L1805.15,1462.4L1805.15,1668L1782.3,1622.35L1736.6,1553.8L1690.9,1508.1Z" style="fill:rgb(1,15,33);stroke:rgb(1,15,33);stroke-width:1px;"/>
            </g>
            <g transform="matrix(-1,0,0,1,2117.4,-445.525)">
                <path d="M1668.05,1462.35L1668.05,1393.8L1759.45,1393.8L1805.15,1462.4L1805.15,1668L1782.3,1622.35L1736.6,1553.8L1668.05,1462.35Z" style="fill:rgb(1,15,33);stroke:rgb(1,15,33);stroke-width:1px;"/>
            </g>
            <g transform="matrix(1,0,0,1,106.6,-445.525)">
                <path d="M1668.05,1462.35L1668.05,1393.8L1759.45,1393.8L1805.15,1462.4L1805.15,1668L1782.3,1622.35L1736.6,1553.8L1668.05,1462.35Z" style="fill:rgb(1,15,33);stroke:rgb(1,15,33);stroke-width:1px;"/>
            </g>
            <g transform="matrix(1,0,0,1,-30.5,-34.275)">
                <path d="M342.75,548.4L548.4,754.05L434.15,754.05L434.15,685.5L411.3,662.65L342.75,662.65L342.75,548.4Z" style="fill:rgb(1,15,33);stroke:rgb(1,15,33);stroke-width:1px;"/>
            </g>
            <g transform="matrix(-1,0,0,1,2254.5,-34.275)">
                <path d="M342.75,548.4L548.4,754.05L434.15,754.05L434.15,685.5L411.3,662.65L342.75,662.65L342.75,548.4Z" style="fill:rgb(1,15,33);stroke:rgb(1,15,33);stroke-width:1px;"/>
            </g>
            <g transform="matrix(1,0,0,1,-30.5,-34.275)">
                <path d="M708.35,502.7C729.395,479.245 752.059,463.164 776.9,457L799.75,502.7L788.325,548.4L776.9,571.25L754.05,594.1L731.2,525.55L708.35,502.7Z" style="fill:rgb(1,15,33);stroke:rgb(1,15,33);stroke-width:1px;"/>
            </g>
            <g transform="matrix(-1,0,0,1,2277.35,-57.125)">
                <path d="M708.35,502.7C729.395,479.245 752.059,463.164 776.9,457L799.75,502.7L788.325,548.4L776.9,571.25L754.05,594.1L731.2,525.55L708.35,502.7Z" style="fill:rgb(1,15,33);stroke:rgb(1,15,33);stroke-width:1px;"/>
            </g>
            <g transform="matrix(0.935688,0.352828,-0.354137,0.939161,353.03,-350.406)">
                <path d="M708.35,502.7C722.193,466.814 745.346,444.402 776.9,434.15L799.75,502.7L788.325,548.4L776.9,571.25L754.05,594.1L731.2,525.55L708.35,502.7Z" style="fill:rgb(1,15,33);stroke:rgb(1,15,33);stroke-width:1px;"/>
            </g>
            <g transform="matrix(1,0,0,1,289.4,-182.8)">
                <path d="M685.5,468.425C717.045,441.605 751.882,424.35 792.1,422.725L813.27,468.425L813.814,514.125L799.75,559.825L754.05,605.525L743.175,536.975L731.2,514.125L685.5,468.425Z" style="fill:rgb(1,15,33);stroke:rgb(1,15,33);stroke-width:1px;"/>
            </g>
            <g transform="matrix(0.992683,0.12075,-0.12075,0.992683,561.603,-349.479)">
                <path d="M708.35,502.7C718.142,468.459 740.538,445.213 776.9,434.15L799.75,502.7L788.325,548.4L776.9,571.25L754.05,594.1L731.2,525.55L708.35,502.7Z" style="fill:rgb(1,15,33);stroke:rgb(1,15,33);stroke-width:1px;"/>
            </g>
            <g transform="matrix(0.920771,0.390104,-0.390104,0.920771,908.767,-532.713)">
                <path d="M708.35,502.7C720.945,469.595 743.954,446.904 776.9,434.15L799.75,502.7L788.325,548.4L776.9,571.25L754.05,594.1L731.2,525.55L708.35,502.7Z" style="fill:rgb(1,15,33);stroke:rgb(1,15,33);stroke-width:1px;"/>
            </g>
            <g transform="matrix(0.886794,0.37135,-0.319544,0.763079,1103.05,-438.622)">
                <path d="M731.2,502.7C746.817,475.028 791.037,470.751 791.037,470.751L787.79,502.7L776.9,548.4L766.78,571.25L754.05,594.1L749.294,558.811L740.5,525.55L731.2,502.7Z" style="fill:rgb(1,15,33);stroke:rgb(1,15,33);stroke-width:1.12px;"/>
            </g>
        </g>
        <g id="Layer9">
            <g transform="matrix(1,0,0,1,-30.5,-34.275)">
                <path d="M936.85,1028.25L1028.25,1119.65L1028.25,1142.5L1051.1,1165.35L1073.95,1142.5L1073.95,1119.65L1119.65,1028.25L1165.35,1028.25L1211.05,1119.65L1211.05,1142.5L1233.9,1165.35L1256.75,1142.5L1256.75,1119.65L1348.15,1028.25L1393.85,1028.25L1393.85,1073.95L1348.15,1119.65L1348.15,1256.75L1211.05,1393.85L1073.95,1393.85L936.85,1256.75L936.85,1119.65L891.15,1073.95L891.15,1028.25L936.85,1028.25ZM1211.05,1233.9L1188.2,1211.05L1096.8,1211.05L1073.95,1233.9L1096.8,1264.37L1142.5,1279.6L1188.2,1264.37L1211.05,1233.9Z" style="fill:rgb(63,64,48);stroke:rgb(63,64,48);stroke-width:1px;"/>
            </g>
            <g transform="matrix(1,0,0,1,-30.5,-34.275)">
                <path d="M731.2,1165.35L708.35,1142.5L708.35,1096.8L754.05,982.55L799.75,982.55L891.15,1119.65L891.15,1165.35L731.2,1165.35Z" style="fill:rgb(63,64,48);stroke:rgb(63,64,48);stroke-width:1px;"/>
            </g>
            <g transform="matrix(-1,0,0,1,2254.5,-34.275)">
                <path d="M731.2,1165.35L708.35,1142.5L708.35,1096.8L754.05,982.55L799.75,982.55L891.15,1119.65L891.15,1165.35L731.2,1165.35Z" style="fill:rgb(63,64,48);stroke:rgb(63,64,48);stroke-width:1px;"/>
            </g>
            <g transform="matrix(1,0,0,1,-30.5,-34.275)">
                <path d="M936.85,1553.8L936.85,1485.25L1028.25,1485.25L1028.25,1553.8L1005.4,1576.65L959.7,1576.65L936.85,1553.8Z" style="fill:rgb(63,64,48);stroke:rgb(63,64,48);stroke-width:1px;"/>
            </g>
            <g transform="matrix(1,0,0,1,-30.5,-34.275)">
                <path d="M1256.75,1485.25L1256.75,1553.8L1279.6,1576.65L1325.3,1576.65L1348.15,1553.8L1348.15,1485.25L1256.75,1485.25Z" style="fill:rgb(63,64,48);stroke:rgb(63,64,48);stroke-width:1px;"/>
            </g>
        </g>
    </g>
</svg>
