<?xml version="1.0" encoding="UTF-8" standalone="no"?>
<!DOCTYPE svg PUBLIC "-//W3C//DTD SVG 1.1//EN" "http://www.w3.org/Graphics/SVG/1.1/DTD/svg11.dtd">
<svg width="100%" height="100%" viewBox="0 0 4634 3475" version="1.1" xmlns="http://www.w3.org/2000/svg" xmlns:xlink="http://www.w3.org/1999/xlink" xml:space="preserve" xmlns:serif="http://www.serif.com/" style="fill-rule:evenodd;clip-rule:evenodd;stroke-linecap:round;stroke-linejoin:round;stroke-miterlimit:1.5;">
    <g transform="matrix(2.08333,0,0,2.08333,0,0)">
        <g id="Layer9">
            <g transform="matrix(1,0,0,1,-19.075,-34.3)">
                <path d="M1393.85,799.75L1828,365.6L1896.55,434.15L1896.55,479.85L1873.7,502.7L1850.85,525.55L1828,548.4L1805.15,571.25L1782.3,594.1L1896.55,708.35L1896.55,776.9L1888.27,790.577L1873.7,799.75L1850.85,799.75L1805.15,799.75L1782.3,799.75L1736.6,799.75L1713.75,799.75L1668.05,799.75L1645.2,799.75L1599.5,799.75L1576.65,799.75L1530.95,799.75L1508.1,799.75L1462.4,799.75L1393.85,799.75Z" style="fill:rgb(96,111,146);stroke:rgb(96,111,146);stroke-width:1px;"/>
            </g>
            <g transform="matrix(1,0,0,1,-19.075,-34.3)">
                <path d="M1325.3,685.5L1348.15,662.65L1371,639.8L1393.85,616.95L1416.7,594.1L1439.55,571.25L1462.4,548.4L1485.25,525.55L1508.1,502.7L1530.95,479.85L1553.8,457L1576.65,434.15L1599.5,411.3L1622.35,388.45L1645.2,365.6L1668.05,342.75L1690.9,319.9L1713.75,297.05L1736.6,274.2L1759.45,251.35L1759.45,205.65L1736.6,182.8L1690.9,182.8L1668.05,205.65L1645.2,228.5L1622.35,251.35L1599.5,228.5L1576.65,205.65L1553.8,182.8L1530.95,159.95L1508.1,137.1L1462.4,137.1L1439.55,159.95L1416.7,182.8L1393.85,205.65L1371,228.5L1348.15,251.35L1325.3,228.5L1302.45,205.65L1279.6,182.8L1256.75,159.95L1233.9,137.1L1188.2,137.1L1165.35,159.95L1142.5,182.8L1119.65,205.65L1096.8,228.5L1073.95,251.35L1302.45,479.85L1325.3,685.5Z" style="fill:rgb(96,111,146);stroke:rgb(96,111,146);stroke-width:1px;"/>
            </g>
        </g>
        <g id="Layer8">
            <g transform="matrix(1,0,0,1,-19.075,-34.3)">
                <path d="M1553.8,342.75L1508.1,297.05L1462.4,297.05L1416.7,342.75L1416.7,365.6L1439.55,388.45L1530.95,388.45L1553.8,365.6L1553.8,342.75Z" style="fill:rgb(111,142,163);stroke:rgb(111,142,163);stroke-width:1px;"/>
            </g>
            <g transform="matrix(6.12323e-17,1,-1,6.12323e-17,1877.48,-788.35)">
                <path d="M1553.8,342.75L1508.1,297.05L1462.4,297.05L1416.7,342.75L1416.7,365.6L1439.55,388.45L1530.95,388.45L1553.8,365.6L1553.8,342.75Z" style="fill:rgb(111,142,163);stroke:rgb(111,142,163);stroke-width:1px;"/>
            </g>
            <g transform="matrix(6.12323e-17,1,-1,6.12323e-17,2014.57,-788.35)">
                <path d="M1553.8,342.75L1508.1,297.05L1462.4,297.05L1416.7,342.75L1416.7,365.6L1439.55,388.45L1530.95,388.45L1553.8,365.6L1553.8,342.75Z" style="fill:rgb(111,142,163);stroke:rgb(111,142,163);stroke-width:1px;"/>
            </g>
            <g transform="matrix(6.12323e-17,1,-1,6.12323e-17,2151.67,-788.35)">
                <path d="M1553.8,342.75L1508.1,297.05L1462.4,297.05L1416.7,342.75L1416.7,365.6L1439.55,388.45L1530.95,388.45L1553.8,365.6L1553.8,342.75Z" style="fill:rgb(111,142,163);stroke:rgb(111,142,163);stroke-width:1px;"/>
            </g>
            <g transform="matrix(1,0,0,1,-19.075,-171.4)">
                <path d="M1553.8,342.75L1508.1,297.05L1462.4,297.05L1416.7,342.75L1416.7,365.6L1439.55,388.45L1530.95,388.45L1553.8,365.6L1553.8,342.75Z" style="fill:rgb(111,142,163);stroke:rgb(111,142,163);stroke-width:1px;"/>
            </g>
            <g transform="matrix(1,0,0,1,-293.275,-171.4)">
                <path d="M1553.8,342.75L1508.1,297.05L1462.4,297.05L1416.7,342.75L1416.7,365.6L1439.55,388.45L1530.95,388.45L1553.8,365.6L1553.8,342.75Z" style="fill:rgb(111,142,163);stroke:rgb(111,142,163);stroke-width:1px;"/>
            </g>
            <g transform="matrix(1,0,0,1,-19.075,-34.3)">
                <path d="M1348.15,776.9L1348.15,754.05L1371,731.2L1393.85,708.35L1416.7,685.5L1439.55,662.65L1462.4,639.8L1485.25,616.95L1508.1,594.1L1530.95,571.25L1553.8,548.4L1576.65,525.55L1599.5,502.7L1622.35,479.85L1645.2,457L1668.05,434.15L1690.9,411.3L1713.75,388.45L1736.6,365.6L1759.45,342.75L1805.15,342.75L1828,365.6L1805.15,388.45L1782.3,411.3L1759.45,434.15L1736.6,457L1713.75,479.85L1690.9,502.7L1668.05,525.55L1645.2,548.4L1622.35,571.25L1599.5,594.1L1576.65,616.95L1553.8,639.8L1530.95,662.65L1508.1,685.5L1485.25,708.35L1462.4,731.2L1439.55,754.05L1416.7,776.9L1393.85,799.75L1371,799.75L1348.15,799.75L1348.15,776.9Z" style="fill:rgb(111,142,163);stroke:rgb(111,142,163);stroke-width:1px;"/>
            </g>
            <g transform="matrix(1,0,0,1,-19.075,-34.3)">
                <path d="M1279.6,708.35L1279.6,685.5L1279.6,662.65L1279.6,639.8L1279.6,616.95L1279.6,594.1L1279.6,571.25L1279.6,548.4L1279.6,525.55L1279.6,502.7L1256.75,479.85L1233.9,457L1211.05,434.15L1188.2,411.3L1165.35,388.45L1142.5,365.6L1119.65,342.75L1096.8,319.9L1073.95,297.05L1073.95,251.35L1096.8,228.5L1325.3,457L1325.3,685.5L1302.45,708.35L1279.6,708.35Z" style="fill:rgb(111,142,163);stroke:rgb(111,142,163);stroke-width:1px;"/>
            </g>
        </g>
        <g id="Layer10">
            <g transform="matrix(1,0,0,1,-19.075,-34.3)">
                <path d="M1462.4,1211.05L1690.9,1211.05L1690.9,1302.45L1645.2,1348.15L1508.1,1348.15L1462.4,1302.45L1462.4,1211.05Z" style="fill:rgb(34,64,0);stroke:rgb(34,64,0);stroke-width:1px;"/>
            </g>
            <g transform="matrix(1,0,0,1,-19.075,-11.45)">
                <path d="M1690.9,1165.35L1690.9,1028.25L1553.8,1028.25L1462.4,1073.95L1462.4,1165.35L1690.9,1165.35Z" style="fill:rgb(34,64,0);stroke:rgb(34,64,0);stroke-width:1px;"/>
            </g>
            <g transform="matrix(1,0,0,1,-19.075,-34.3)">
                <path d="M1371,982.55L1508.1,845.45L1553.8,845.45L1645.2,936.85L1645.2,982.55L1462.4,1073.95L1416.7,1073.95L1371,1028.25" style="fill:rgb(34,64,0);stroke:rgb(34,64,0);stroke-width:1px;"/>
            </g>
            <g transform="matrix(1,0,0,1,-41.925,-34.3)">
                <path d="M1371,982.55L1462.4,891.15L1462.4,845.45L1279.6,845.45L1233.9,891.15L1233.9,936.85L1279.6,982.55L1371,982.55Z" style="fill:rgb(34,64,0);stroke:rgb(34,64,0);stroke-width:1px;"/>
            </g>
            <g transform="matrix(1,0,0,1,-19.075,-34.3)">
                <path d="M1051.1,1028.25L1051.1,1119.65L1188.2,1256.75L1188.2,1348.15L1142.5,1393.85L1096.8,1485.25L1096.8,1530.95L1051.1,1576.65L1051.1,1622.35L1096.8,1622.35L1142.5,1576.65L1233.9,1485.25L1233.9,1439.55L1279.6,1393.85L1279.6,1211.05L1142.5,1073.95L1119.65,1073.95L1096.8,1051.1L1096.8,1028.25L1051.1,1028.25Z" style="fill:rgb(34,64,0);stroke:rgb(34,64,0);stroke-width:1px;"/>
            </g>
            <g transform="matrix(1,0,0,1,-19.075,-34.3)">
                <path d="M959.7,1028.25L959.7,1211.05L1005.4,1256.75L1005.4,1439.55L959.7,1485.25L959.7,1576.65L1005.4,1576.65L1051.1,1530.95L1096.8,1439.55L1096.8,1211.05L1005.4,1119.65L1005.4,1028.25L959.7,1028.25Z" style="fill:rgb(34,64,0);stroke:rgb(34,64,0);stroke-width:1px;"/>
            </g>
            <g transform="matrix(1,0,0,1,-19.075,-34.3)">
                <path d="M845.45,936.85L776.9,936.85L776.9,891.15L799.75,891.15L822.6,868.3L822.6,845.45L845.45,845.45L868.3,822.6L868.3,799.75L891.15,799.75L914,776.9L914,616.95L822.6,525.55L822.6,502.7L891.15,502.7L959.7,548.4L982.55,582.675L1051.1,616.95L1188.2,754.05L1188.2,936.85L1142.5,959.7L1119.65,936.85L982.55,936.85L936.85,891.15L868.3,891.15L845.45,914L845.45,936.85Z" style="fill:rgb(34,64,0);stroke:rgb(34,64,0);stroke-width:1px;"/>
            </g>
            <g transform="matrix(1,0,0,1,-19.075,-34.3)">
                <path d="M914,1119.65L914,1073.95L868.3,1073.95L822.6,1119.65L776.9,1119.65L731.2,1165.35L731.2,1211.05L685.5,1211.05L685.5,1256.75L776.9,1256.75L776.9,1211.05L822.6,1211.05L822.6,1165.35L868.3,1165.35L914,1119.65Z" style="fill:rgb(34,64,0);stroke:rgb(34,64,0);stroke-width:1px;"/>
            </g>
            <g transform="matrix(1,0,0,1,-64.775,-125.7)">
                <path d="M891.15,1142.5L891.15,1096.8L845.45,1096.8L822.6,1119.65L776.9,1119.65L731.2,1165.35L731.2,1211.05L685.5,1211.05L685.5,1256.75L776.9,1256.75L776.9,1211.05L822.6,1211.05L822.6,1165.35L868.3,1165.35L891.15,1142.5Z" style="fill:rgb(34,64,0);stroke:rgb(34,64,0);stroke-width:1px;"/>
            </g>
        </g>
        <g id="Layer11">
            <g transform="matrix(1,0,0,1,-19.075,-34.3)">
                <path d="M1439.55,1325.3L1279.6,1485.25L1188.2,1622.35L1325.3,1530.95L1485.25,1371L1439.55,1325.3Z" style="fill:rgb(45,32,0);stroke:rgb(45,32,0);stroke-width:1px;"/>
            </g>
            <g transform="matrix(1,0,0,1,-19.075,-34.3)">
                <path d="M1142.5,982.55L1096.8,1028.25L891.15,1028.25L868.3,1005.4L868.3,959.7L845.45,936.85L845.45,914L868.3,891.15L936.85,891.15L982.55,936.85L1119.65,936.85L1142.5,959.7L1142.5,982.55Z" style="fill:rgb(45,32,0);stroke:rgb(45,32,0);stroke-width:1px;"/>
            </g>
        </g>
        <g transform="matrix(1,0,0,1,-19.075,-34.3)">
            <g id="Layer15">
                <path d="M845.45,799.75L868.3,776.9L868.3,594.1L731.2,457L708.35,434.15L685.5,434.15L685.5,525.55L639.8,571.25L594.1,662.65L594.1,754.05L639.8,799.75L685.5,799.75L685.5,731.2L708.35,708.35L754.05,708.35L776.9,731.2L776.9,799.75L845.45,799.75Z" style="fill:rgb(0,112,66);stroke:rgb(0,112,66);stroke-width:1px;"/>
            </g>
        </g>
        <g id="Layer13">
            <g transform="matrix(1,0,0,1,-19.075,-34.3)">
                <path d="M1005.4,594.1L1005.4,845.45L1051.1,891.15L1096.8,891.15L1142.5,834L1142.5,799.75L1096.8,799.75L1096.8,822.6L1073.95,845.45L1051.1,822.6L1051.1,616.95L1005.4,594.1Z" style="fill:rgb(107,146,47);stroke:rgb(107,146,47);stroke-width:1px;"/>
            </g>
            <g transform="matrix(1,0,0,1,-19.075,-34.3)">
                <path d="M708.35,434.15L639.8,342.75L594.1,342.75L594.1,434.15L548.4,479.85L548.4,525.55L502.7,571.25L502.7,616.95L594.1,708.35L594.1,662.65L639.8,571.25L685.5,525.55L685.5,457L708.35,434.15Z" style="fill:rgb(107,146,47);stroke:rgb(107,146,47);stroke-width:1px;"/>
            </g>
        </g>
        <g id="Layer12">
            <g transform="matrix(1,0,0,1,-19.075,-34.3)">
                <path d="M868.3,982.55L868.3,936.85L891.15,914L914,914L914,982.55L868.3,982.55Z" style="fill:rgb(193,143,12);stroke:rgb(193,143,12);stroke-width:1px;"/>
            </g>
            <g transform="matrix(1,0,0,1,3.775,-11.45)">
                <path d="M1165.35,708.35L1188.2,685.5L1165.35,616.95L1165.35,548.4L1188.2,479.85L1142.5,502.7L1051.1,594.1L1165.35,708.35Z" style="fill:rgb(193,143,12);stroke:rgb(193,143,12);stroke-width:1px;"/>
            </g>
            <g transform="matrix(1,0,0,1,-19.075,-34.3)">
                <path d="M685.5,936.85L548.4,799.75L525.55,799.75L502.7,822.6L502.7,1439.55L548.4,1530.95L594.1,1576.65L639.8,1599.5L754.05,1622.35L799.75,1622.35L754.05,1599.5L708.35,1530.95L685.5,1439.55L685.5,936.85Z" style="fill:rgb(193,143,12);stroke:rgb(193,143,12);stroke-width:1px;"/>
            </g>
            <g transform="matrix(1,0,0,1,-19.075,-34.3)">
                <path d="M639.8,342.75L548.4,251.35L502.7,251.35L502.7,571.25L548.4,525.55L548.4,479.85L594.1,434.15L594.1,388.45L639.8,342.75Z" style="fill:rgb(193,143,12);stroke:rgb(193,143,12);stroke-width:1px;"/>
            </g>
        </g>
        <g id="Layer14">
            <g transform="matrix(1,0,0,1,-19.075,-34.3)">
                <path d="M685.5,1028.25L548.4,1165.35L502.7,1165.35L502.7,1119.65L639.8,982.55L685.5,982.55L685.5,1028.25Z" style="fill:rgb(113,7,0);stroke:rgb(113,7,0);stroke-width:1px;"/>
            </g>
            <g transform="matrix(1,0,0,1,-19.075,-57.15)">
                <path d="M685.5,1211.05L639.8,1211.05L502.7,1348.15L502.7,1393.85L548.4,1393.85L685.5,1256.75L685.5,1211.05Z" style="fill:rgb(113,7,0);stroke:rgb(113,7,0);stroke-width:1px;"/>
            </g>
            <g transform="matrix(1,0,0,1,-19.075,-34.3)">
                <path d="M685.5,1393.85L639.8,1393.85L533.223,1500.6L548.4,1530.95L594.1,1530.95L685.5,1439.55L685.5,1393.85Z" style="fill:rgb(113,7,0);stroke:rgb(113,7,0);stroke-width:1px;"/>
            </g>
            <g transform="matrix(1,0,0,1,-19.075,-34.3)">
                <path d="M548.4,251.35L502.7,205.65L365.6,114.25L411.3,251.35L457,342.75L502.7,388.45L502.7,297.05L548.4,251.35Z" style="fill:rgb(113,7,0);stroke:rgb(113,7,0);stroke-width:1px;"/>
            </g>
        </g>
    </g>
</svg>
