<?xml version="1.0" encoding="UTF-8" standalone="no"?>
<!DOCTYPE svg PUBLIC "-//W3C//DTD SVG 1.1//EN" "http://www.w3.org/Graphics/SVG/1.1/DTD/svg11.dtd">
<svg width="100%" height="100%" viewBox="0 0 4634 3475" version="1.1" xmlns="http://www.w3.org/2000/svg" xmlns:xlink="http://www.w3.org/1999/xlink" xml:space="preserve" xmlns:serif="http://www.serif.com/" style="fill-rule:evenodd;clip-rule:evenodd;stroke-linecap:round;stroke-linejoin:round;stroke-miterlimit:1.5;">
    <g transform="matrix(2.08333,0,0,2.08333,0,0)">
        <g id="Layer12" transform="matrix(1,0,0,1,159.95,68.55)">
            <g transform="matrix(1,0,0,1,-30.5,-22.875)">
                <path d="M845.45,1553.8L616.95,1325.3L616.95,799.75L594.1,776.9L479.85,662.65L479.85,571.25L502.7,548.4L616.95,548.4L708.35,594.1L1256.75,594.1L1348.15,548.4L1462.4,548.4L1485.25,571.25L1485.25,662.65L1348.15,799.75L1348.15,1325.3L1119.65,1553.8L1051.1,1553.8L1028.25,1530.95L1028.25,1142.5L936.85,1142.5L936.85,1530.95L914,1553.8L845.45,1553.8Z" style="fill:rgb(18,62,2);stroke:rgb(18,62,2);stroke-width:1px;"/>
            </g>
            <g transform="matrix(1,0,0,1,-190.45,-91.425)">
                <path d="M731.2,1508.1L731.2,845.45L548.4,662.65L502.7,662.65L365.6,799.75L365.6,1485.25L502.7,1622.35L731.2,1622.35L731.2,1508.1Z" style="fill:rgb(18,62,2);stroke:rgb(18,62,2);stroke-width:1px;"/>
            </g>
            <g transform="matrix(-1,0,0,1,2094.55,-91.425)">
                <path d="M731.2,1508.1L731.2,845.45L548.4,662.65L502.7,662.65L365.6,799.75L365.6,1485.25L502.7,1622.35L731.2,1622.35L731.2,1508.1Z" style="fill:rgb(18,62,2);stroke:rgb(18,62,2);stroke-width:1px;"/>
            </g>
            <g transform="matrix(1,0,0,1,-281.85,-91.425)">
                <path d="M1530.95,205.65L1599.5,205.65L1645.2,251.35L1645.2,388.45L1599.5,434.15L1530.95,434.15L1530.95,205.65Z" style="fill:rgb(18,62,2);stroke:rgb(18,62,2);stroke-width:1px;"/>
            </g>
            <g transform="matrix(0.707107,0.692903,0.707107,-0.692903,162.146,-554.528)">
                <path d="M1508.1,205.65L1599.5,205.65L1645.2,251.35L1645.2,388.45L1599.5,434.15L1508.1,434.15L1508.1,205.65Z" style="fill:rgb(18,62,2);stroke:rgb(18,62,2);stroke-width:1px;"/>
            </g>
            <g transform="matrix(6.12323e-17,1,-1,6.12323e-17,1911.75,-1096.82)">
                <path d="M1530.95,205.65L1599.5,205.65L1645.2,251.35L1645.2,388.45L1599.5,434.15L1530.95,434.15L1530.95,205.65Z" style="fill:rgb(18,62,2);stroke:rgb(18,62,2);stroke-width:1px;"/>
            </g>
            <g transform="matrix(1,0,0,1,-236.15,-68.575)">
                <rect x="1325.3" y="205.65" width="114.25" height="182.8" style="fill:rgb(18,62,2);stroke:rgb(18,62,2);stroke-width:1px;"/>
            </g>
        </g>
        <g id="Layer10" transform="matrix(1,0,0,1,159.95,68.55)">
            <g transform="matrix(1,0,0,1,-30.5,-22.875)">
                <path d="M616.95,822.6L662.65,822.6L754.05,914L982.55,914L982.55,1142.5L936.85,1142.5L914,1051.1L754.05,1051.1L662.65,959.7L616.95,959.7L616.95,822.6Z" style="fill:rgb(49,14,3);stroke:rgb(49,14,3);stroke-width:1px;"/>
            </g>
            <g transform="matrix(-1,0,0,1,1934.6,-22.875)">
                <path d="M616.95,822.6L662.65,822.6L754.05,914L982.55,914L982.55,1142.5L936.85,1142.5L914,1051.1L754.05,1051.1L662.65,959.7L616.95,959.7L616.95,822.6Z" style="fill:rgb(49,14,3);stroke:rgb(49,14,3);stroke-width:1px;"/>
            </g>
            <g transform="matrix(1,0,0,1,-30.5,-22.875)">
                <path d="M616.95,1142.5L708.35,1142.5L754.05,1188.2L799.75,1188.2L845.45,1233.9L936.85,1233.9L936.85,1279.6L799.75,1279.6L754.05,1233.9L708.35,1233.9L662.65,1188.2L616.95,1188.2L616.95,1142.5Z" style="fill:rgb(49,14,3);stroke:rgb(49,14,3);stroke-width:1px;"/>
            </g>
            <g transform="matrix(-1,0,0,1,1934.6,-22.875)">
                <path d="M616.95,1142.5L708.35,1142.5L754.05,1188.2L799.75,1188.2L845.45,1233.9L936.85,1233.9L936.85,1279.6L799.75,1279.6L754.05,1233.9L708.35,1233.9L662.65,1188.2L616.95,1188.2L616.95,1142.5Z" style="fill:rgb(49,14,3);stroke:rgb(49,14,3);stroke-width:1px;"/>
            </g>
            <g transform="matrix(1,0,0,1,-30.5,-22.875)">
                <path d="M571.25,1096.8L388.45,914L342.75,914L205.65,1051.1L205.65,1142.5L342.75,1005.4L388.45,1005.4L571.25,1188.2L571.25,1096.8Z" style="fill:rgb(49,14,3);stroke:rgb(49,14,3);stroke-width:1px;"/>
            </g>
            <g transform="matrix(1,0,0,1,-30.5,-342.775)">
                <path d="M571.25,1096.8L388.45,914L342.75,914L205.65,1051.1L205.65,1142.5L342.75,1005.4L388.45,1005.4L571.25,1188.2L571.25,1096.8Z" style="fill:rgb(49,14,3);stroke:rgb(49,14,3);stroke-width:1px;"/>
            </g>
            <g transform="matrix(-1,0,0,1,1934.6,-22.875)">
                <path d="M571.25,1096.8L388.45,914L342.75,914L205.65,1051.1L205.65,1142.5L342.75,1005.4L388.45,1005.4L571.25,1188.2L571.25,1096.8Z" style="fill:rgb(49,14,3);stroke:rgb(49,14,3);stroke-width:1px;"/>
            </g>
            <g transform="matrix(-1,0,0,1,1934.6,-342.775)">
                <path d="M571.25,1096.8L388.45,914L342.75,914L205.65,1051.1L205.65,1142.5L342.75,1005.4L388.45,1005.4L571.25,1188.2L571.25,1096.8Z" style="fill:rgb(49,14,3);stroke:rgb(49,14,3);stroke-width:1px;"/>
            </g>
            <g transform="matrix(1,0,0,1,-190.45,-91.425)">
                <path d="M365.6,1439.55L502.7,1302.45L548.4,1302.45L822.6,1576.65L822.6,1622.35L548.4,1622.35L548.4,1576.65L639.8,1485.25L548.4,1393.85L502.7,1393.85L388.45,1508.1L365.6,1485.25L365.6,1439.55Z" style="fill:rgb(49,14,3);stroke:rgb(49,14,3);stroke-width:1px;"/>
            </g>
            <g transform="matrix(-1,0,0,1,2094.55,-91.425)">
                <path d="M365.6,1439.55L502.7,1302.45L548.4,1302.45L822.6,1576.65L822.6,1622.35L548.4,1622.35L548.4,1576.65L639.8,1485.25L548.4,1393.85L502.7,1393.85L388.45,1508.1L365.6,1485.25L365.6,1439.55Z" style="fill:rgb(49,14,3);stroke:rgb(49,14,3);stroke-width:1px;"/>
            </g>
        </g>
        <g id="Layer8" transform="matrix(1,0,0,1,159.95,68.55)">
            <g transform="matrix(1,0,0,1,-30.5,-22.875)">
                <path d="M845.45,776.9L845.45,822.6L776.9,822.6L754.05,799.75L754.05,731.2L799.75,731.2L799.75,776.9L845.45,776.9Z" style="fill:rgb(0,110,64);stroke:rgb(0,110,64);stroke-width:1px;"/>
            </g>
            <g transform="matrix(-1,0,0,1,1934.6,-22.875)">
                <path d="M845.45,776.9L845.45,822.6L776.9,822.6L754.05,799.75L754.05,731.2L799.75,731.2L799.75,776.9L845.45,776.9Z" style="fill:rgb(0,110,64);stroke:rgb(0,110,64);stroke-width:1px;"/>
            </g>
            <g transform="matrix(-1,0,0,1,1934.6,-159.975)">
                <path d="M845.45,776.9L845.45,822.6L776.9,822.6L754.05,799.75L754.05,731.2L799.75,731.2L799.75,776.9L845.45,776.9Z" style="fill:rgb(0,110,64);stroke:rgb(0,110,64);stroke-width:1px;"/>
            </g>
            <g transform="matrix(1,0,0,1,-30.5,-159.975)">
                <path d="M845.45,776.9L845.45,822.6L776.9,822.6L754.05,799.75L754.05,731.2L799.75,731.2L799.75,776.9L845.45,776.9Z" style="fill:rgb(0,110,64);stroke:rgb(0,110,64);stroke-width:1px;"/>
            </g>
            <g transform="matrix(1,0,0,1,-30.5,-22.875)">
                <rect x="936.85" y="685.5" width="91.4" height="91.4" style="fill:rgb(0,110,64);stroke:rgb(0,110,64);stroke-width:1px;"/>
            </g>
            <g transform="matrix(1,0,0,1,-30.5,114.225)">
                <rect x="936.85" y="685.5" width="91.4" height="91.4" style="fill:rgb(0,110,64);stroke:rgb(0,110,64);stroke-width:1px;"/>
            </g>
            <g transform="matrix(1,0,0,1,-30.5,-22.875)">
                <rect x="936.85" y="594.1" width="91.4" height="45.7" style="fill:rgb(0,110,64);stroke:rgb(0,110,64);stroke-width:1px;"/>
            </g>
        </g>
        <g id="Layer9" transform="matrix(1,0,0,1,159.95,68.55)">
            <g transform="matrix(1,0,0,1,-30.5,-22.875)">
                <path d="M845.45,959.7L891.15,1005.4L822.6,1005.4L799.75,982.55L799.75,914L822.6,914L845.45,959.7Z" style="fill:rgb(237,224,25);stroke:rgb(237,224,25);stroke-width:1px;"/>
            </g>
            <g transform="matrix(-1,0,0,1,1934.6,-22.875)">
                <path d="M845.45,959.7L891.15,1005.4L822.6,1005.4L799.75,982.55L799.75,914L822.6,914L845.45,959.7Z" style="fill:rgb(237,224,25);stroke:rgb(237,224,25);stroke-width:1px;"/>
            </g>
        </g>
        <g id="Layer11" transform="matrix(1,0,0,1,159.95,68.55)">
            <g transform="matrix(1,0,0,1,-30.5,-22.875)">
                <path d="M708.35,1096.8L708.35,1051.1L662.65,1028.25L662.65,959.7L708.35,959.7L708.35,1005.4L754.05,1028.25L754.05,1096.8L708.35,1096.8Z" style="fill:rgb(158,163,93);stroke:rgb(158,163,93);stroke-width:1px;"/>
            </g>
            <g transform="matrix(1,0,0,1,106.6,68.525)">
                <path d="M708.35,1096.8L708.35,1051.1L662.65,1028.25L662.65,959.7L708.35,959.7L708.35,1005.4L754.05,1028.25L754.05,1096.8L708.35,1096.8Z" style="fill:rgb(158,163,93);stroke:rgb(158,163,93);stroke-width:1px;"/>
            </g>
            <g transform="matrix(-1,0,0,1,1934.6,-22.875)">
                <path d="M708.35,1096.8L708.35,1051.1L662.65,1028.25L662.65,959.7L708.35,959.7L708.35,1005.4L754.05,1028.25L754.05,1096.8L708.35,1096.8Z" style="fill:rgb(158,163,93);stroke:rgb(158,163,93);stroke-width:1px;"/>
            </g>
            <g transform="matrix(-1,0,0,1,1797.5,68.525)">
                <path d="M708.35,1096.8L708.35,1051.1L662.65,1028.25L662.65,959.7L708.35,959.7L708.35,1005.4L754.05,1028.25L754.05,1096.8L708.35,1096.8Z" style="fill:rgb(158,163,93);stroke:rgb(158,163,93);stroke-width:1px;"/>
            </g>
            <g transform="matrix(1,0,0,1,-190.45,-182.825)">
                <path d="M502.7,845.45L548.4,845.45L548.4,868.3L571.25,891.15L594.1,891.15L594.1,936.85L571.25,936.85L548.4,959.7L548.4,982.55L502.7,982.55L502.7,959.7L479.85,936.85L457,936.85L457,891.15L479.85,891.15L502.7,868.3L502.7,845.45Z" style="fill:rgb(158,163,93);stroke:rgb(158,163,93);stroke-width:1px;"/>
            </g>
            <g transform="matrix(1,0,0,1,1043.45,-182.825)">
                <path d="M502.7,845.45L548.4,845.45L548.4,868.3L571.25,891.15L594.1,891.15L594.1,936.85L571.25,936.85L548.4,959.7L548.4,982.55L502.7,982.55L502.7,959.7L479.85,936.85L457,936.85L457,891.15L479.85,891.15L502.7,868.3L502.7,845.45Z" style="fill:rgb(158,163,93);stroke:rgb(158,163,93);stroke-width:1px;"/>
            </g>
            <g transform="matrix(1,0,0,1,-190.45,137.075)">
                <path d="M502.7,845.45L548.4,845.45L548.4,868.3L571.25,891.15L594.1,891.15L594.1,936.85L571.25,936.85L548.4,959.7L548.4,982.55L502.7,982.55L502.7,959.7L479.85,936.85L457,936.85L457,891.15L479.85,891.15L502.7,868.3L502.7,845.45Z" style="fill:rgb(158,163,93);stroke:rgb(158,163,93);stroke-width:1px;"/>
            </g>
            <g transform="matrix(1,0,0,1,1043.45,137.075)">
                <path d="M502.7,845.45L548.4,845.45L548.4,868.3L571.25,891.15L594.1,891.15L594.1,936.85L571.25,936.85L548.4,959.7L548.4,982.55L502.7,982.55L502.7,959.7L479.85,936.85L457,936.85L457,891.15L479.85,891.15L502.7,868.3L502.7,845.45Z" style="fill:rgb(158,163,93);stroke:rgb(158,163,93);stroke-width:1px;"/>
            </g>
            <g transform="matrix(1,0,0,1,-190.45,456.975)">
                <path d="M502.7,845.45L548.4,845.45L548.4,868.3L571.25,891.15L594.1,891.15L594.1,936.85L571.25,936.85L548.4,959.7L548.4,982.55L502.7,982.55L502.7,959.7L479.85,936.85L457,936.85L457,891.15L479.85,891.15L502.7,868.3L502.7,845.45Z" style="fill:rgb(158,163,93);stroke:rgb(158,163,93);stroke-width:1px;"/>
            </g>
            <g transform="matrix(1,0,0,1,1043.45,456.975)">
                <path d="M502.7,845.45L548.4,845.45L548.4,868.3L571.25,891.15L594.1,891.15L594.1,936.85L571.25,936.85L548.4,959.7L548.4,982.55L502.7,982.55L502.7,959.7L479.85,936.85L457,936.85L457,891.15L479.85,891.15L502.7,868.3L502.7,845.45Z" style="fill:rgb(158,163,93);stroke:rgb(158,163,93);stroke-width:1px;"/>
            </g>
            <g transform="matrix(1,0,0,1,-259,-91.425)">
                <path d="M1508.1,205.65L1553.8,205.65L1553.8,159.95L1530.95,137.1L1485.25,137.1L1508.1,159.95L1508.1,205.65Z" style="fill:rgb(158,163,93);stroke:rgb(158,163,93);stroke-width:1px;"/>
            </g>
            <g transform="matrix(0.707107,0.692903,0.707107,-0.692903,162.171,-554.528)">
                <path d="M1508.1,205.65L1553.8,205.65L1553.8,159.95L1530.95,137.1L1485.25,137.1L1508.1,159.95L1508.1,205.65Z" style="fill:rgb(158,163,93);stroke:rgb(158,163,93);stroke-width:1px;"/>
            </g>
            <g transform="matrix(0.707107,0.692903,-0.707107,0.692903,614.544,-997.834)">
                <path d="M1508.1,205.65L1553.8,205.65L1553.8,159.95L1530.95,137.1L1485.25,137.1L1508.1,159.95L1508.1,205.65Z" style="fill:rgb(158,163,93);stroke:rgb(158,163,93);stroke-width:1.02px;"/>
            </g>
            <g transform="matrix(1,0,0,1,-418.95,-68.575)">
                <path d="M1508.1,205.65L1553.8,205.65L1553.8,159.95L1530.95,137.1L1485.25,137.1L1508.1,159.95L1508.1,205.65Z" style="fill:rgb(158,163,93);stroke:rgb(158,163,93);stroke-width:1px;"/>
            </g>
            <g transform="matrix(1,0,0,-1,-418.95,525.525)">
                <path d="M1508.1,205.65L1553.8,205.65L1553.8,159.95L1530.95,137.1L1485.25,137.1L1508.1,159.95L1508.1,205.65Z" style="fill:rgb(158,163,93);stroke:rgb(158,163,93);stroke-width:1px;"/>
            </g>
            <g transform="matrix(1,0,0,-1,-259,548.375)">
                <path d="M1508.1,205.65L1553.8,205.65L1553.8,159.95L1530.95,137.1L1485.25,137.1L1508.1,159.95L1508.1,205.65Z" style="fill:rgb(158,163,93);stroke:rgb(158,163,93);stroke-width:1px;"/>
            </g>
            <g transform="matrix(6.12323e-17,1,1,-6.12323e-17,1271.95,-1073.98)">
                <path d="M1508.1,205.65L1553.8,205.65L1553.8,159.95L1530.95,137.1L1485.25,137.1L1508.1,159.95L1508.1,205.65Z" style="fill:rgb(158,163,93);stroke:rgb(158,163,93);stroke-width:1px;"/>
            </g>
            <g transform="matrix(1,0,0,1,-236.15,-68.575)">
                <path d="M1188.2,205.65L1165.35,205.65L1142.5,114.25L1096.8,68.55L1005.4,68.55L1005.4,159.95L1051.1,182.8L1073.95,205.65L1096.8,251.35L1142.5,251.35L1188.2,205.65Z" style="fill:rgb(158,163,93);stroke:rgb(158,163,93);stroke-width:1px;"/>
            </g>
            <g transform="matrix(1,0,0,-1,-236.15,525.525)">
                <path d="M1188.2,205.65L1165.35,205.65L1142.5,114.25L1096.8,68.55L1005.4,68.55L1005.4,159.95L1051.1,182.8L1073.95,205.65L1096.8,251.35L1142.5,251.35L1188.2,205.65Z" style="fill:rgb(158,163,93);stroke:rgb(158,163,93);stroke-width:1px;"/>
            </g>
        </g>
        <g id="Layer13">
            <g transform="matrix(1,0,0,1,-30.5,-22.875)">
                <path d="M388.45,754.05L525.55,616.95L525.55,571.25L388.45,434.15L365.6,434.15L342.75,457L342.75,731.2L365.6,754.05L388.45,754.05Z" style="fill:rgb(112,1,0);stroke:rgb(112,1,0);stroke-width:1px;"/>
            </g>
            <g transform="matrix(-1,0,0,1,2254.5,-22.875)">
                <path d="M388.45,754.05L525.55,616.95L525.55,571.25L388.45,434.15L365.6,434.15L342.75,457L342.75,731.2L365.6,754.05L388.45,754.05Z" style="fill:rgb(112,1,0);stroke:rgb(112,1,0);stroke-width:1px;"/>
            </g>
            <g transform="matrix(1,0,0,-1,-53.35,822.575)">
                <path d="M662.65,365.6L685.5,342.75L799.75,297.05L845.45,297.05L799.75,388.45L754.05,388.45L708.35,411.3L662.65,502.7L662.65,365.6Z" style="fill:rgb(112,1,0);stroke:rgb(112,1,0);stroke-width:1px;"/>
            </g>
            <g transform="matrix(1,0,0,1,-53.35,-228.525)">
                <path d="M662.65,365.6L685.5,342.75L799.75,297.05L845.45,297.05L799.75,388.45L754.05,388.45L708.35,411.3L662.65,502.7L662.65,365.6Z" style="fill:rgb(112,1,0);stroke:rgb(112,1,0);stroke-width:1px;"/>
            </g>
        </g>
        <g id="Layer14">
            <g transform="matrix(1,0,0,1,-76.0389,-0.025)">
                <path d="M1279.6,205.65L1188.2,205.65L1142.5,251.35L1096.8,251.35L1096.64,342.75L1142.5,342.75L1188.2,388.45L1279.6,388.45L1279.6,205.65Z" style="fill:rgb(176,46,15);stroke:rgb(176,46,15);stroke-width:1px;"/>
            </g>
            <g transform="matrix(1,0,0,1,-76.2,-0.025)">
                <path d="M1005.4,68.55L868.3,68.55L845.45,91.4L822.6,159.95L845.45,228.5L868.3,182.8L914,159.95L1005.4,159.95L1005.4,68.55Z" style="fill:rgb(176,46,15);stroke:rgb(176,46,15);stroke-width:1px;"/>
            </g>
            <g transform="matrix(1,0,0,-1,-76.2,594.075)">
                <path d="M1005.4,68.55L868.3,68.55L845.45,91.4L822.6,159.95L845.45,228.5L868.3,182.8L914,159.95L1005.4,159.95L1005.4,68.55Z" style="fill:rgb(176,46,15);stroke:rgb(176,46,15);stroke-width:1px;"/>
            </g>
        </g>
    </g>
</svg>
