<?xml version="1.0" encoding="UTF-8" standalone="no"?>
<!DOCTYPE svg PUBLIC "-//W3C//DTD SVG 1.1//EN" "http://www.w3.org/Graphics/SVG/1.1/DTD/svg11.dtd">
<svg width="100%" height="100%" viewBox="0 0 4634 3475" version="1.1" xmlns="http://www.w3.org/2000/svg" xmlns:xlink="http://www.w3.org/1999/xlink" xml:space="preserve" xmlns:serif="http://www.serif.com/" style="fill-rule:evenodd;clip-rule:evenodd;stroke-linecap:round;stroke-linejoin:round;stroke-miterlimit:1.5;">
    <g transform="matrix(2.08333,0,0,2.08333,0,0)">
        <g id="Layer8">
            <g transform="matrix(1,0,0,1,-30.5,-11.45)">
                <path d="M1188.2,342.75L1096.8,434.15L1051.1,571.25L1005.4,708.35L914,799.75L868.3,891.15L822.6,936.85L731.2,982.55L685.5,1028.25L548.4,1051.1L434.15,1073.95L365.6,1073.95L479.85,1028.25L502.7,1005.4L457,982.55L434.15,936.85L434.15,868.3L457,914L502.7,936.85L548.4,936.85L548.4,891.15L571.25,845.45L571.25,868.3L594.1,914L639.8,891.15L639.8,845.45L662.65,799.75L662.65,822.6L685.5,868.3L708.35,845.45L776.9,731.2L822.6,708.35L868.3,616.95L868.3,571.25L891.15,525.55L959.7,457L1005.4,411.3L1096.8,342.75L1188.2,342.75Z" style="fill:rgb(225,207,161);stroke:rgb(225,207,161);stroke-width:1px;"/>
            </g>
            <g transform="matrix(1,0,0,1,-30.5,-11.45)">
                <path d="M365.6,616.95L388.45,754.05L457,822.6L457,754.05L502.7,708.35L525.55,776.9L548.4,799.75L548.4,776.9L571.25,708.35L616.95,685.5L639.8,754.05L662.65,776.9L662.65,754.05L685.5,685.5L731.2,662.65L457,662.65L365.6,616.95Z" style="fill:rgb(225,207,161);stroke:rgb(225,207,161);stroke-width:1px;"/>
            </g>
            <g transform="matrix(1,0,0,1,-7.65,-22.875)">
                <path d="M342.75,468.425L342.75,377.025L388.45,331.325L388.45,422.725L457,536.975L411.3,559.825L342.75,468.425Z" style="fill:rgb(225,207,161);stroke:rgb(225,207,161);stroke-width:1px;"/>
            </g>
            <g transform="matrix(1,0,0,1,-30.5,-11.45)">
                <path d="M594.1,457L639.8,434.15L639.8,342.75L662.65,297.05L708.35,297.05L708.35,205.65L731.2,137.1L822.6,91.4L708.35,68.55L525.55,159.95L457,297.05L457,365.6L502.7,434.15L594.1,457Z" style="fill:rgb(225,207,161);stroke:rgb(225,207,161);stroke-width:1px;"/>
            </g>
            <g transform="matrix(1,0,0,1,-30.5,-11.45)">
                <path d="M1736.6,845.45L1713.75,891.15L1599.5,936.85L1622.35,1005.4L1690.9,1051.1L1690.9,1371L1645.2,1416.7L1073.95,1439.55L1165.35,1485.25L1256.75,1439.55L1348.15,1485.25L1439.55,1439.55L1530.95,1485.25L1690.9,1485.25L1782.3,1393.85L1782.3,891.15L1736.6,845.45Z" style="fill:rgb(225,207,161);stroke:rgb(225,207,161);stroke-width:1px;"/>
            </g>
            <g transform="matrix(1,0,0,1,-30.5,-11.45)">
                <path d="M1508.1,1233.9L1622.35,1348.15L1622.35,1371L1462.4,1393.85L1325.3,1302.45L1256.75,1302.45L1188.2,1256.75L1142.5,1233.9L1142.5,1142.5L1325.3,1233.9L1508.1,1233.9Z" style="fill:rgb(225,207,161);stroke:rgb(225,207,161);stroke-width:1px;"/>
            </g>
        </g>
        <g id="Layer11">
            <g transform="matrix(1,0,0,1,-30.5,-11.45)">
                <path d="M616.95,479.85L639.8,525.55L776.9,525.55L1096.8,342.75L1188.2,342.75L1279.6,365.6L1371,434.15L1416.7,548.4L1462.4,571.25L1599.5,434.15L1599.5,251.35L1553.8,205.65L1462.4,137.1L1439.55,114.25L1485.25,68.55L1371,91.4L1348.15,114.25L1279.6,114.25L1325.3,68.55L1188.2,91.4L1165.35,114.25L1096.8,114.25L1142.5,68.55L1005.4,91.4L959.7,114.25L822.6,228.5L685.5,365.6L616.95,479.85Z" style="fill:rgb(207,176,32);stroke:rgb(207,176,32);stroke-width:1px;"/>
            </g>
            <g transform="matrix(1,0,0,1,-30.5,-11.45)">
                <path d="M1736.6,319.9L1736.6,342.75L1759.45,388.45L1850.85,297.05L1919.4,297.05L1919.4,502.7L1690.9,834L1371,936.85L1233.9,1005.4L1051.1,1051.1L845.45,1165.35L754.05,1165.35L754.05,1119.65L1142.5,754.05L1188.2,434.15L1256.75,434.15L1325.3,479.85L1348.15,525.55L1416.7,616.95L1462.4,639.8L1645.2,457L1736.6,319.9Z" style="fill:rgb(207,176,32);stroke:rgb(207,176,32);stroke-width:1px;"/>
            </g>
            <g transform="matrix(1,0,0,1,-30.5,-11.45)">
                <path d="M1850.85,662.65L1805.15,731.2L1873.7,799.75L1782.3,1530.95L1096.8,1508.1L1073.95,1439.55L822.6,1348.15L639.8,1393.85L639.8,1576.65L708.35,1622.35L1005.4,1622.35L1073.95,1599.5L1713.75,1622.35L1828,1576.65L1919.4,1485.25L1919.4,754.05L1850.85,662.65Z" style="fill:rgb(207,176,32);stroke:rgb(207,176,32);stroke-width:1px;"/>
            </g>
            <g transform="matrix(1,0,0,1,-30.5,-11.45)">
                <path d="M1622.35,1119.65L1485.25,1005.4L1393.85,1005.4L1302.45,1096.8L1325.3,1165.35L1371,1211.05L1325.3,1211.05L1142.5,1073.95L1096.8,1096.8L1051.1,1142.5L1165.35,1165.35L1279.6,1256.75L1553.8,1279.6L1508.1,1233.9L1416.7,1188.2L1393.85,1119.65L1439.55,1096.8L1462.4,1119.65L1576.65,1188.2L1622.35,1119.65Z" style="fill:rgb(207,176,32);stroke:rgb(207,176,32);stroke-width:1px;"/>
            </g>
        </g>
        <g id="Layer10">
            <g transform="matrix(1,0,0,1,-30.5,-11.45)">
                <path d="M365.6,616.95L457,662.65L731.2,662.65L799.75,616.95L776.9,731.2L822.6,708.35L868.3,616.95L868.3,571.25L891.15,525.55L959.7,457L1028.25,457L1073.95,365.6L1188.2,274.2L1233.9,319.9L1302.45,297.05L1325.3,342.75L1416.7,342.75L1416.7,388.45L1462.4,411.3L1462.4,479.85L1553.8,479.85L1599.5,434.15L1599.5,342.75L1530.95,365.6L1508.1,319.9L1462.4,297.05L1439.55,205.65L1325.3,205.65L1233.9,159.95L1096.8,205.65L982.55,228.5L936.85,297.05L868.3,297.05L845.45,411.3L776.9,434.15L776.9,479.85L708.35,479.85L639.8,525.55L616.95,479.85L457,571.25L411.3,571.25L365.6,502.7L365.6,616.95Z" style="fill:rgb(147,30,33);stroke:rgb(147,30,33);stroke-width:1px;"/>
            </g>
            <g transform="matrix(1,0,0,1,-30.5,-11.45)">
                <path d="M502.7,502.7L594.1,457L571.25,411.3L571.25,365.6L594.1,342.75L616.95,342.75L639.8,297.05L639.8,228.5L639.8,182.8L662.65,137.1L616.95,159.95L548.4,251.35L502.7,342.75L479.85,457L502.7,502.7Z" style="fill:rgb(147,30,33);stroke:rgb(147,30,33);stroke-width:1px;"/>
            </g>
            <g transform="matrix(1,0,0,1,-30.5,-11.45)">
                <path d="M799.75,1028.25L822.6,1073.95L868.3,1028.25L959.7,1028.25L1028.25,936.85L1096.8,959.7L1165.35,845.45L1233.9,891.15L1279.6,776.9L1393.85,822.6L1485.25,708.35L1622.35,708.35L1645.2,639.8L1759.45,616.95L1713.75,434.15L1713.75,319.9L1668.05,365.6L1645.2,434.15L1416.7,662.65L1233.9,662.65L1188.2,616.95L1188.2,502.7L1211.05,479.85L1256.75,457L1279.6,502.7L1256.75,525.55L1233.9,502.7L1233.9,548.4L1256.75,571.25L1302.45,571.25L1325.3,525.55L1325.3,479.85L1279.6,411.3L1188.2,411.3L1119.65,479.85L1096.8,662.65L1142.5,754.05L1028.25,799.75L799.75,1028.25Z" style="fill:rgb(147,30,33);stroke:rgb(147,30,33);stroke-width:1px;"/>
            </g>
            <g transform="matrix(1,0,0,1,-30.5,-11.45)">
                <path d="M1736.6,845.45L1782.3,891.15L1782.3,1393.85L1690.9,1485.25L1530.95,1485.25L1439.55,1439.55L1348.15,1485.25L1256.75,1439.55L1165.35,1485.25L1073.95,1439.55L982.55,1485.25L822.6,1393.85L685.5,1485.25L685.5,1530.95L822.6,1576.65L982.55,1530.95L1073.95,1576.65L1165.35,1530.95L1256.75,1576.65L1348.15,1530.95L1439.55,1576.65L1530.95,1530.95L1782.3,1530.95L1873.7,1439.55L1873.7,799.75L1805.15,731.2L1736.6,845.45Z" style="fill:rgb(147,30,33);stroke:rgb(147,30,33);stroke-width:1px;"/>
            </g>
            <g transform="matrix(1,0,0,1,-30.5,-11.45)">
                <path d="M1325.3,1165.35L1233.9,1096.8L1256.75,1051.1L1348.15,982.55L1530.95,959.7L1599.5,1028.25L1645.2,1119.65L1645.2,1188.2L1622.35,1211.05L1508.1,1188.2L1462.4,1142.5L1462.4,1096.8L1485.25,1073.95L1508.1,1073.95L1485.25,1096.8L1485.25,1119.65L1553.8,1165.35L1576.65,1165.35L1599.5,1142.5L1599.5,1119.65L1553.8,1073.95L1485.25,1028.25L1416.7,1028.25L1325.3,1096.8L1325.3,1165.35Z" style="fill:rgb(147,30,33);stroke:rgb(147,30,33);stroke-width:1px;"/>
            </g>
        </g>
        <g id="Layer12">
            <g transform="matrix(1,0,0,1,-30.5,-11.45)">
                <path d="M548.4,662.65L571.25,594.1L639.8,548.4L662.65,571.25L662.65,639.8L571.25,662.65L548.4,662.65Z" style="fill:rgb(28,28,15);stroke:rgb(28,28,15);stroke-width:1px;"/>
            </g>
            <g transform="matrix(1,0,0,1,-30.5,-11.45)">
                <path d="M799.75,1028.25L662.65,1073.95L594.1,1142.5L616.95,1256.75L662.65,1302.45L776.9,1302.45L708.35,1279.6L685.5,1256.75L685.5,1211.05L799.75,1142.5L822.6,1073.95L799.75,1028.25Z" style="fill:rgb(28,28,15);stroke:rgb(28,28,15);stroke-width:1px;"/>
            </g>
            <g transform="matrix(1,0,0,1,-30.5,-11.45)">
                <path d="M1668.05,365.6L1668.05,205.65L1645.2,91.4L1668.05,114.25L1713.75,182.8L1736.6,251.35L1736.6,319.9L1713.75,365.6L1668.05,365.6Z" style="fill:rgb(28,28,15);stroke:rgb(28,28,15);stroke-width:1px;"/>
            </g>
            <g transform="matrix(1,0,0,1,152.3,-34.3)">
                <path d="M1668.05,365.6L1645.2,342.75L1668.05,205.65L1645.2,91.4L1668.05,114.25L1713.75,182.8L1736.6,251.35L1736.6,319.9L1713.75,365.6L1668.05,365.6Z" style="fill:rgb(28,28,15);stroke:rgb(28,28,15);stroke-width:1px;"/>
            </g>
            <g transform="matrix(1,0,0,1,-30.5,-11.45)">
                <path d="M731.2,1508.1L616.95,1348.15L388.45,1256.75L548.4,1530.95L639.8,1576.65L731.2,1508.1Z" style="fill:rgb(28,28,15);stroke:rgb(28,28,15);stroke-width:1px;"/>
            </g>
            <g transform="matrix(1,0,0,1,-30.5,-11.45)">
                <path d="M1073.95,1119.65L1005.4,1165.35L959.7,1211.05L959.7,1302.45L1028.25,1393.85L1073.95,1393.85L1096.8,1371L1073.95,1371L1051.1,1348.15L1028.25,1302.45L1028.25,1279.6L1073.95,1233.9L1142.5,1233.9L1165.35,1142.5L1073.95,1119.65Z" style="fill:rgb(28,28,15);stroke:rgb(28,28,15);stroke-width:1px;"/>
            </g>
            <g transform="matrix(1,0,0,1,-30.5,-11.45)">
                <path d="M1165.35,1279.6L1142.5,1302.45L1142.5,1393.85L1188.2,1416.7L1233.9,1393.85L1211.05,1393.85L1188.2,1371L1188.2,1348.15L1211.05,1325.3L1233.9,1325.3L1279.6,1302.45L1279.6,1256.75L1256.75,1233.9L1165.35,1279.6Z" style="fill:rgb(28,28,15);stroke:rgb(28,28,15);stroke-width:1px;"/>
            </g>
        </g>
        <g transform="matrix(1,0,0,1,-30.5,-11.45)">
            <g id="Layer9">
                <path d="M571.25,639.8L594.1,594.1L639.8,571.25L639.8,616.95L571.25,639.8Z" style="fill:rgb(60,154,134);stroke:rgb(60,154,134);stroke-width:1px;"/>
            </g>
        </g>
    </g>
</svg>
