<?xml version="1.0" encoding="UTF-8" standalone="no"?>
<!DOCTYPE svg PUBLIC "-//W3C//DTD SVG 1.1//EN" "http://www.w3.org/Graphics/SVG/1.1/DTD/svg11.dtd">
<svg width="100%" height="100%" viewBox="0 0 4634 3475" version="1.1" xmlns="http://www.w3.org/2000/svg" xmlns:xlink="http://www.w3.org/1999/xlink" xml:space="preserve" xmlns:serif="http://www.serif.com/" style="fill-rule:evenodd;clip-rule:evenodd;stroke-linecap:round;stroke-linejoin:round;stroke-miterlimit:1.5;">
    <g transform="matrix(2.08333,0,0,2.08333,0,0)">
        <g id="Layer11">
            <g transform="matrix(0.932096,0.36221,-0.36221,0.932096,555.258,-545.817)">
                <path d="M1736.6,1393.85L1725.17,1325.3L1713.75,1302.45L1713.75,1325.3L1702.33,1371L1690.9,1393.85L1736.6,1393.85Z" style="fill:rgb(240,241,195);stroke:rgb(240,241,195);stroke-width:1px;"/>
            </g>
            <g transform="matrix(0.920135,0.391602,-0.391602,0.920135,673.228,-542.309)">
                <path d="M1736.6,1393.85L1725.17,1325.3L1713.75,1302.45L1713.75,1325.3L1702.33,1371L1690.9,1393.85L1736.6,1393.85Z" style="fill:rgb(240,241,195);stroke:rgb(240,241,195);stroke-width:1px;"/>
            </g>
            <g transform="matrix(1,0,0,-1,83.75,2593.45)">
                <path d="M1736.6,1393.85L1725.17,1325.3L1713.75,1302.45L1713.75,1325.3L1702.33,1371L1690.9,1393.85L1736.6,1393.85Z" style="fill:rgb(240,241,195);stroke:rgb(240,241,195);stroke-width:1px;"/>
            </g>
            <g transform="matrix(1,0,0,-1,-7.65,2593.45)">
                <path d="M1736.6,1393.85L1725.17,1325.3L1713.75,1302.45L1713.75,1325.3L1702.33,1371L1690.9,1393.85L1736.6,1393.85Z" style="fill:rgb(240,241,195);stroke:rgb(240,241,195);stroke-width:1px;"/>
            </g>
        </g>
        <g transform="matrix(1,0,0,1,-53.35,-11.45)">
            <g id="Layer8">
                <path d="M1896.55,1073.95L1919.4,1119.65L1919.4,1211.05L1896.55,1256.75L1873.7,1233.9L1828,1211.05L1782.3,1211.05L1713.75,1256.75L1690.9,1302.45L1690.9,1348.15L1713.75,1393.85L1599.5,1393.85L1553.8,1348.15L1508.1,1302.45L1462.4,1256.75L1416.7,1165.35L1371,1096.8L1348.15,1073.95L1165.35,1073.95L1142.5,1096.8L1142.5,1211.05L1188.2,1279.6L1256.75,1348.15L1485.25,1462.4L1713.75,1553.8L1919.4,1622.35L1553.8,1622.35L1371,1576.65L1188.2,1485.25L1119.65,1439.55L1005.4,1348.15L959.7,1302.45L936.85,1302.45L914,1325.3L959.7,1393.85L776.9,1439.55L754.05,1439.55L731.2,1462.4L731.2,1485.25L776.9,1553.8L891.15,1622.35L822.6,1622.35L708.35,1599.5L616.95,1530.95L594.1,1485.25L571.25,1485.25L548.4,1508.1L594.1,1576.65L662.65,1622.35L594.1,1622.35L502.7,1599.5L411.3,1530.95L388.45,1485.25L365.6,1393.85L365.6,388.45L388.45,319.9L457,251.35L548.4,159.95L639.8,114.25L731.2,68.55L1530.95,68.55L1553.8,91.4L1553.8,159.95L1508.1,251.35L1462.4,297.05L1439.55,365.6L1439.55,388.45L1462.4,479.85L1485.25,548.4L1508.1,754.05L1553.8,868.3L1599.5,936.85L1645.2,982.55L1736.6,1028.25L1896.55,1073.95Z" style="fill:rgb(176,176,146);stroke:rgb(176,176,146);stroke-width:1px;"/>
            </g>
        </g>
        <g id="Layer13">
            <g transform="matrix(1,0,0,1,-53.35,-11.45)">
                <path d="M1462.4,457L1485.25,365.6L1599.5,365.6L1645.2,388.45L1668.05,434.15L1668.05,616.95L1622.35,639.8L1622.35,525.55L1599.5,479.85L1553.8,457L1462.4,457Z" style="fill:rgb(31,15,16);stroke:rgb(31,15,16);stroke-width:1px;"/>
            </g>
            <g transform="matrix(1,0,0,1,-53.35,-11.45)">
                <path d="M1713.75,594.1L1782.3,548.4L1782.3,274.2L1759.45,228.5L1713.75,205.65L1553.8,205.65L1530.95,297.05L1645.2,297.05L1690.9,319.9L1713.75,365.6L1713.75,594.1Z" style="fill:rgb(31,15,16);stroke:rgb(31,15,16);stroke-width:1px;"/>
            </g>
            <g transform="matrix(1,0,0,1,-53.35,-11.45)">
                <path d="M1599.5,159.95L1622.35,68.55L1850.85,68.55L1896.55,91.4L1919.4,137.1L1919.4,479.85L1828,525.55L1828,228.5L1782.3,182.8L1736.6,159.95L1599.5,159.95Z" style="fill:rgb(31,15,16);stroke:rgb(31,15,16);stroke-width:1px;"/>
            </g>
            <g transform="matrix(1,0,0,1,-53.35,-11.45)">
                <path d="M1736.6,1028.25L1782.3,982.55L1850.85,868.3L1896.55,731.2L1919.4,616.95L1942.25,662.65L1965.1,776.9L1965.1,868.3L1942.25,959.7L1919.4,1051.1L1896.55,1073.95L1850.85,1081.77L1782.3,1061.26L1736.6,1028.25Z" style="fill:rgb(31,15,16);stroke:rgb(31,15,16);stroke-width:1px;"/>
            </g>
            <g transform="matrix(1,0,0,1,-236.15,-102.85)">
                <path d="M1759.45,993.95L1828,959.7L1873.7,914L1896.55,845.45L1919.4,891.15L1919.4,959.7L1873.7,1028.25L1828,1073.95L1782.3,1028.25L1759.45,993.95Z" style="fill:rgb(31,15,16);stroke:rgb(31,15,16);stroke-width:1px;"/>
            </g>
            <g transform="matrix(1,0,0,1,-53.35,-11.45)">
                <path d="M616.95,434.15L594.1,411.3L594.1,388.45L685.5,297.05L708.35,297.05L731.2,319.9L731.2,388.45L685.5,434.15L616.95,434.15Z" style="fill:rgb(31,15,16);stroke:rgb(31,15,16);stroke-width:1px;"/>
            </g>
            <g transform="matrix(1,0,0,1,-53.35,-11.45)">
                <path d="M822.6,68.55L819.532,96.407L785.72,121.034L742.264,129.218L692.957,131.249L719.28,109.862L733.059,87.727L731.2,68.55L822.6,68.55Z" style="fill:rgb(31,15,16);stroke:rgb(31,15,16);stroke-width:1px;"/>
            </g>
            <g transform="matrix(1,0,0,1,-53.35,-11.45)">
                <path d="M799.75,799.75L776.9,822.6L776.9,868.3L799.75,891.15L891.15,891.15L925.27,866.276L913.024,811.15L870.461,829.784L799.75,799.75Z" style="fill:rgb(31,15,16);stroke:rgb(31,15,16);stroke-width:1px;"/>
            </g>
            <g transform="matrix(1,0,0,1,-53.35,-11.45)">
                <path d="M930.067,958.118L911.162,987.357L914,1051.1L891.15,1073.95L822.6,1073.95L776.9,1028.25L776.9,982.55L822.6,936.85L891.15,936.85L930.067,958.118Z" style="fill:rgb(31,15,16);stroke:rgb(31,15,16);stroke-width:1px;"/>
            </g>
            <g transform="matrix(1,0,0,1,-53.35,-11.45)">
                <path d="M1308.67,133.394L1254.89,139.116L1279.6,68.55L1371,68.55L1385.28,120.739L1359.41,151.891L1321.54,161.06L1308.67,133.394Z" style="fill:rgb(31,15,16);stroke:rgb(31,15,16);stroke-width:1px;"/>
            </g>
            <g transform="matrix(1,0,0,1,-53.35,-11.45)">
                <path d="M936.85,1119.65L972.271,1127.61L1034.5,1159.21L1035.62,1190.11L1014.75,1218.12L936.85,1211.05L914,1188.2L914,1142.5L936.85,1119.65Z" style="fill:rgb(31,15,16);stroke:rgb(31,15,16);stroke-width:1px;"/>
            </g>
            <g transform="matrix(1,0,0,1,-53.35,-11.45)">
                <path d="M1131.45,138.552L1129.97,105.674L1096.8,68.55L1188.2,68.55L1226.25,89.511L1226.25,137.747L1185.19,132.745L1131.45,138.552Z" style="fill:rgb(31,15,16);stroke:rgb(31,15,16);stroke-width:1px;"/>
            </g>
            <g transform="matrix(1,0,0,1,-53.35,-11.45)">
                <path d="M1258.42,223.47L1286.2,185.163L1165.35,205.65L1142.5,228.5L1142.5,274.2L1165.35,297.05L1233.9,297.05L1269.45,270.584L1258.42,223.47Z" style="fill:rgb(31,15,16);stroke:rgb(31,15,16);stroke-width:1px;"/>
            </g>
            <g transform="matrix(1,0,0,1,-53.35,-11.45)">
                <path d="M1096.8,251.35L1082.63,234.602L1054.97,222.94L1037.48,190.765L996.534,185.341L948.715,239.947L959.7,274.2L982.55,297.05L1051.1,297.05L1096.8,251.35Z" style="fill:rgb(31,15,16);stroke:rgb(31,15,16);stroke-width:1px;"/>
            </g>
            <g transform="matrix(1,0,0,1,-53.35,-11.45)">
                <path d="M914,479.85L959.7,434.15L1016.8,412.357L1059,461.862L1053.79,497.225L1065.57,539.422L1019.72,553.951L955.52,565.516L919.781,506.22L914,479.85Z" style="fill:rgb(31,15,16);stroke:rgb(31,15,16);stroke-width:1px;"/>
            </g>
            <g transform="matrix(1,0,0,1,-53.35,-11.45)">
                <path d="M1305.48,708.617L1204.15,656.991L1180.51,631.244L1288.11,611.469L1319.71,620.813L1310.82,656.98L1328.34,680.753L1325.3,731.2L1305.48,708.617Z" style="fill:rgb(31,15,16);stroke:rgb(31,15,16);stroke-width:1px;"/>
            </g>
            <g transform="matrix(1,0,0,1,-53.35,-11.45)">
                <path d="M1272.47,898.464L1294.56,883.25L1279.6,822.6L1256.75,776.9L1211.05,754.05L1171.66,750.196L1134,765.742L1147.64,811.15L1166.68,822.276L1190.4,811.15L1226.25,849.73L1256.16,863.875L1272.47,898.464Z" style="fill:rgb(31,15,16);stroke:rgb(31,15,16);stroke-width:1px;"/>
            </g>
            <g transform="matrix(1,0,0,1,-53.35,-11.45)">
                <path d="M1188.2,914L1119.65,845.45L1096.8,845.45L1096.8,914L1119.65,936.85L1188.2,936.85L1188.2,914Z" style="fill:rgb(31,15,16);stroke:rgb(31,15,16);stroke-width:1px;"/>
            </g>
            <g transform="matrix(1,0,0,1,-53.35,-11.45)">
                <path d="M868.3,114.25L868.3,68.55L1005.4,68.55L1019.9,139.909L983.6,144.782L932.491,172.412L868.3,114.25Z" style="fill:rgb(31,15,16);stroke:rgb(31,15,16);stroke-width:1px;"/>
            </g>
            <g transform="matrix(1,0,0,1,-53.35,-11.45)">
                <path d="M914,228.5L891.15,205.65L822.6,205.65L776.9,251.35L776.9,319.9L799.75,342.75L831.452,288.597L914,251.35L914,228.5Z" style="fill:rgb(31,15,16);stroke:rgb(31,15,16);stroke-width:1px;"/>
            </g>
            <g transform="matrix(1,0,0,1,-53.35,-11.45)">
                <path d="M845.45,616.95L936.85,616.95L959.7,639.8L975.11,726.776L914,754.05L868.3,754.05L822.6,708.35L822.6,639.8L845.45,616.95Z" style="fill:rgb(31,15,16);stroke:rgb(31,15,16);stroke-width:1px;"/>
            </g>
            <g transform="matrix(1,0,0,1,-53.35,-11.45)">
                <path d="M1462.4,68.55L1432.91,128.988L1464.18,126.521L1477.09,161.308L1499.67,178.718L1507.33,148.956L1553.8,137.1L1553.8,91.4L1530.95,68.55L1462.4,68.55Z" style="fill:rgb(31,15,16);stroke:rgb(31,15,16);stroke-width:1px;"/>
            </g>
            <g transform="matrix(1,0,0,1,-53.35,-11.45)">
                <path d="M1422.89,233.23L1464.76,202.031L1435.89,192.85L1364.81,201.399L1342.95,258.59L1314.18,291.842L1348.15,297.05L1388.36,276.206L1422.89,233.23Z" style="fill:rgb(31,15,16);stroke:rgb(31,15,16);stroke-width:1px;"/>
            </g>
            <g transform="matrix(1,0,0,1,-53.35,-11.45)">
                <path d="M1112,477.251L1086.67,437.867L1092.44,366.971L1132.24,337.621L1191.32,335.739L1231.04,355.733L1274.43,332.888L1342.75,328.191L1371,365.6L1384.99,397.834L1371.58,432.044L1334.42,450.804L1279.6,434.15L1225.13,448.733L1187.41,482.613L1112,477.251Z" style="fill:rgb(31,15,16);stroke:rgb(31,15,16);stroke-width:1px;"/>
            </g>
            <g transform="matrix(1,0,0,1,312.25,57.1)">
                <path d="M662.65,1188.2L720.954,1204.42L784.588,1241.95L810.555,1293.32L845.45,1325.3L1051.1,1416.7L1211.05,1462.4L1348.15,1485.25L1553.8,1553.8L1188.2,1553.8L1005.4,1508.1L822.6,1416.7L685.5,1325.3L662.65,1188.2Z" style="fill:rgb(31,15,16);stroke:rgb(31,15,16);stroke-width:1px;"/>
            </g>
            <g transform="matrix(1,0,0,1,312.25,57.1)">
                <path d="M167.948,1254.74L275.917,1270.85L357.218,1333.92L365.6,1393.85L365.6,1416.7L411.3,1485.25L525.55,1553.8L457,1553.8L342.75,1530.95L251.35,1462.4L205.65,1371L167.948,1254.74Z" style="fill:rgb(31,15,16);stroke:rgb(31,15,16);stroke-width:1px;"/>
            </g>
            <g transform="matrix(1,0,0,1,312.25,57.1)">
                <path d="M140.488,1348.71L182.8,1439.55L228.5,1508.1L297.05,1553.8L228.5,1553.8L137.1,1530.95L45.7,1462.4L22.85,1416.7L87.097,1347.6L140.488,1348.71Z" style="fill:rgb(31,15,16);stroke:rgb(31,15,16);stroke-width:1px;"/>
            </g>
        </g>
        <g id="Layer16">
            <g transform="matrix(1,0,0,1,-30.5,-11.45)">
                <path d="M548.4,662.65L639.8,571.25L731.2,525.55L776.9,525.55L814.848,753.237L804.481,811.15L856.646,898.482L852.336,980.249L890.811,1033.49L886.664,1106.84L945.325,1167.35L1008.43,1261.41L1028.84,1370.86L1028.62,1393.51L822.6,1462.4L708.35,1462.4L581.763,1279.15L567.548,1197.61L532.81,1122.24L532.824,964.967L554.138,867.821L517.44,761.724L548.4,662.65Z" style="fill:rgb(240,242,189);stroke:rgb(240,242,189);stroke-width:1px;"/>
            </g>
            <g transform="matrix(1,0,0,1,-30.5,-11.45)">
                <path d="M594.1,1508.1L639.8,1485.25L639.8,1439.55L548.4,1348.15L502.7,1256.75L457,914L457,754.05L479.85,616.95L502.7,571.25L479.85,502.7L413.045,476.068L365.6,548.4L342.75,571.25L342.75,1256.75L365.6,1371L434.15,1462.4L525.55,1508.1L594.1,1508.1Z" style="fill:rgb(240,242,189);stroke:rgb(240,242,189);stroke-width:1px;"/>
            </g>
        </g>
        <g id="Layer17">
            <g transform="matrix(1,0,0,1,-30.5,-11.45)">
                <path d="M583.98,765.698L594.1,708.35L653.72,685.492L685.5,708.35L688.89,784.107L583.98,765.698Z" style="fill:rgb(207,193,127);stroke:rgb(207,193,127);stroke-width:1px;"/>
            </g>
            <g transform="matrix(1,0,0,1,-30.5,-11.45)">
                <path d="M716.877,987.428L672.208,915.898L736.598,871.186L789.682,897.972L795.604,950.566L716.877,987.428Z" style="fill:rgb(207,193,127);stroke:rgb(207,193,127);stroke-width:1px;"/>
            </g>
            <g transform="matrix(1,0,0,1,-30.5,-11.45)">
                <path d="M617.783,1125.29L577.587,1062.66L626.565,1012.74L694.727,1018.18L702.532,1069.6L670.343,1117.62L617.783,1125.29Z" style="fill:rgb(207,193,127);stroke:rgb(207,193,127);stroke-width:1px;"/>
            </g>
            <g transform="matrix(1,0,0,1,-30.5,-11.45)">
                <path d="M712.597,1271.76L682.693,1270.57L707.354,1248.08L727.296,1258.34L724.212,1299.25L712.597,1271.76Z" style="fill:rgb(207,193,127);stroke:rgb(207,193,127);stroke-width:1px;"/>
            </g>
            <g transform="matrix(1,0,0,1,-30.5,-11.45)">
                <path d="M775.613,1225.09L800.566,1192.15L848.146,1159.94L873.876,1201.08L851.552,1242.02L795.455,1250.2L775.613,1225.09Z" style="fill:rgb(207,193,127);stroke:rgb(207,193,127);stroke-width:1px;"/>
            </g>
            <g transform="matrix(1,0,0,1,-30.5,-11.45)">
                <path d="M824.449,1379.62L828.628,1326.47L872.347,1361.47L854.334,1399.56L824.449,1379.62Z" style="fill:rgb(207,193,127);stroke:rgb(207,193,127);stroke-width:1px;"/>
            </g>
            <g transform="matrix(1,0,0,1,-30.5,-11.45)">
                <path d="M548.4,662.65L572.872,658.805L645.656,634.405L664.305,588.933L736.709,537.311L761.218,567.486L770.421,649.474L787.343,693.973L809.515,718.77L868.3,571.25L914,479.85L959.7,434.15L1142.5,342.75L1308.55,337.699L1248.53,283.696L1135.75,263.079L1005.4,251.35L822.6,297.05L731.2,342.75L594.1,479.85L548.4,571.25L548.4,662.65Z" style="fill:rgb(207,193,127);stroke:rgb(207,193,127);stroke-width:1px;"/>
            </g>
            <g transform="matrix(1,0,0,1,-30.5,-11.45)">
                <path d="M380.916,811.15L359.613,739.76L400.334,702.084L464.784,707.658L457,753.816L457,799.75L380.916,811.15Z" style="fill:rgb(207,193,127);stroke:rgb(207,193,127);stroke-width:1px;"/>
            </g>
            <g transform="matrix(1,0,0,1,-30.5,-11.45)">
                <path d="M350.753,1079.99L371.644,999.57L411.713,1016.86L426.43,1076.89L350.753,1079.99Z" style="fill:rgb(207,193,127);stroke:rgb(207,193,127);stroke-width:1px;"/>
            </g>
            <g transform="matrix(1,0,0,1,-30.5,-11.45)">
                <path d="M365.6,548.4L365.6,525.55L457,342.75L502.7,297.05L594.1,251.35L639.8,205.65L731.2,159.95L831.641,149.381L920.301,190.111L868.3,205.65L822.6,251.35L731.2,297.05L685.5,342.75L594.1,434.15L548.4,502.7L502.7,571.25L439.965,555.045L426.687,534.494L423.281,502.413L414.594,490.675L365.6,548.4Z" style="fill:rgb(207,193,127);stroke:rgb(207,193,127);stroke-width:1px;"/>
            </g>
            <g transform="matrix(1,0,0,1,312.25,57.1)">
                <path d="M1279.6,936.85L1215.54,967.555L1155.31,977.453L1102.08,1043.07L1043.45,1063.91L1142.5,1211.05L1256.75,1211.05L1279.6,1142.5L1279.6,936.85Z" style="fill:rgb(207,193,127);stroke:rgb(207,193,127);stroke-width:1px;"/>
            </g>
        </g>
        <g id="Layer18">
            <g transform="matrix(1,0,0,1,-53.35,11.4)">
                <path d="M1497.53,788.3L1449.21,750.649L1432.88,634.547L1462.4,571.25L1439.55,502.7L1371,479.85L1314.33,507.31L1371,525.55L1416.7,571.25L1391.54,631.392L1401.96,757.545L1462.69,833.181L1483.74,919.456L1551.93,937.847L1511.34,889.209L1497.53,788.3Z" style="fill:rgb(92,111,94);stroke:rgb(92,111,94);stroke-width:1px;"/>
            </g>
            <g transform="matrix(1,0,0,1,-30.5,-11.45)">
                <path d="M1645.2,1279.6L1645.2,1005.4L1622.35,982.55L1599.5,1005.4L1622.35,1211.05L1599.5,1211.05L1508.1,1028.25L1485.25,1051.1L1553.8,1233.9L1530.95,1256.75L1508.1,1256.75L1393.85,1119.65L1371,1119.65L1439.55,1256.75L1485.25,1302.45L1622.35,1302.45L1645.2,1279.6Z" style="fill:rgb(92,111,94);stroke:rgb(92,111,94);stroke-width:1px;"/>
            </g>
            <g transform="matrix(1,0,0,1,-53.35,-11.45)">
                <path d="M1211.05,1028.25L1211.05,1016.83L1279.6,982.55L1325.3,936.85L1325.3,914L1348.15,891.15L1371,891.15L1416.7,936.85L1416.7,982.55L1371,1028.25L1211.05,1028.25Z" style="fill:rgb(92,111,94);stroke:rgb(92,111,94);stroke-width:1px;"/>
            </g>
            <g transform="matrix(1,0,0,1,-53.35,-11.45)">
                <path d="M1061.81,938.645L1054.95,913.258L1002.42,872.771L962.002,811.15L967.445,890.173L994.149,930.346L1061.81,938.645Z" style="fill:rgb(92,111,94);stroke:rgb(92,111,94);stroke-width:1px;"/>
            </g>
            <g transform="matrix(1,0,0,1,-53.35,-11.45)">
                <path d="M1074.4,1112.84L1060.89,1119.65L1024.08,1009.53L1007.32,998.748L1005.4,982.55L1142.5,982.55L1152.29,1005.4L1119.57,1023.74L1097.23,1052.74L1074.4,1112.84Z" style="fill:rgb(92,111,94);stroke:rgb(92,111,94);stroke-width:1px;"/>
            </g>
            <g transform="matrix(1,0,0,1,-53.35,-11.45)">
                <path d="M1599.5,1393.85L1635.33,1388.79L1648.54,1355.51L1690.9,1348.15L1759.45,1393.85L1782.3,1416.7L1782.3,1508.1L1759.45,1530.95L1736.6,1485.25L1668.05,1462.4L1599.5,1393.85Z" style="fill:rgb(92,111,94);stroke:rgb(92,111,94);stroke-width:1px;"/>
            </g>
        </g>
        <g transform="matrix(1,0,0,1,-30.5,-11.45)">
            <g id="Layer19">
                <path d="M1690.9,1165.35L1690.9,1142.5L1721.27,1096.94L1759.56,1084.47L1828,1142.5L1828,1165.35L1690.9,1165.35Z" style="fill:rgb(27,17,5);stroke:rgb(27,17,5);stroke-width:1px;"/>
            </g>
        </g>
        <g transform="matrix(1,0,0,1,-30.5,-11.45)">
            <g id="Layer20">
                <path d="M1746.79,1116.36L1728.34,1142.99L1736.6,1165.35L1782.3,1165.35L1780.27,1141.4L1767.01,1124.11L1746.79,1116.36Z" style="fill:rgb(140,23,13);stroke:rgb(140,23,13);stroke-width:1px;"/>
            </g>
        </g>
    </g>
</svg>
