<?xml version="1.0" encoding="UTF-8" standalone="no"?>
<!DOCTYPE svg PUBLIC "-//W3C//DTD SVG 1.1//EN" "http://www.w3.org/Graphics/SVG/1.1/DTD/svg11.dtd">
<svg width="100%" height="100%" viewBox="0 0 4634 3475" version="1.1" xmlns="http://www.w3.org/2000/svg" xmlns:xlink="http://www.w3.org/1999/xlink" xml:space="preserve" xmlns:serif="http://www.serif.com/" style="fill-rule:evenodd;clip-rule:evenodd;stroke-linecap:round;stroke-linejoin:round;stroke-miterlimit:1.5;">
    <g transform="matrix(2.08333,0,0,2.08333,0,0)">
        <g id="Layer12">
            <g transform="matrix(1,0,0,1,-30.5,-34.275)">
                <path d="M982.55,845.45L982.55,776.9L1005.4,764.049L1028.25,776.9L1028.25,845.45L982.55,845.45Z" style="fill:rgb(33,31,27);stroke:rgb(33,31,27);stroke-width:1px;"/>
            </g>
            <g transform="matrix(1,0,0,1,243.7,-34.275)">
                <path d="M982.55,845.45L982.55,776.9L1005.4,764.049L1028.25,776.9L1028.25,845.45L982.55,845.45Z" style="fill:rgb(33,31,27);stroke:rgb(33,31,27);stroke-width:1px;"/>
            </g>
            <g transform="matrix(1,0,0,1,-30.5,-34.275)">
                <path d="M1073.95,708.35L1028.25,662.65L982.55,616.95L982.55,342.75L1005.4,342.75L1028.25,594.1L1073.95,639.8L1073.95,708.35Z" style="fill:rgb(33,31,27);stroke:rgb(33,31,27);stroke-width:1px;"/>
            </g>
            <g transform="matrix(-1,0,0,1,2254.5,-34.275)">
                <path d="M1073.95,708.35L1028.25,662.65L982.55,616.95L982.55,319.9L1005.4,342.75L1028.25,594.1L1073.95,639.8L1073.95,708.35Z" style="fill:rgb(33,31,27);stroke:rgb(33,31,27);stroke-width:1px;"/>
            </g>
        </g>
        <g id="Layer11">
            <g transform="matrix(1,0,0,1,-30.5,-34.275)">
                <path d="M1668.05,1485.25L1462.4,1485.25L1599.5,1348.15L1713.75,1348.15L1759.45,1393.85L1668.05,1485.25Z" style="fill:rgb(9,109,232);stroke:rgb(9,109,232);stroke-width:1px;"/>
            </g>
            <g transform="matrix(-1,0,0,1,2254.5,-34.275)">
                <path d="M1668.05,1485.25L1462.4,1485.25L1599.5,1348.15L1713.75,1348.15L1759.45,1393.85L1668.05,1485.25Z" style="fill:rgb(9,109,232);stroke:rgb(9,109,232);stroke-width:1px;"/>
            </g>
            <g transform="matrix(1,0,0,1,-30.5,-34.275)">
                <path d="M685.5,1073.95L731.2,959.7L616.95,845.45L525.55,845.45L525.55,936.85L548.4,936.85L685.5,1073.95Z" style="fill:rgb(9,109,232);stroke:rgb(9,109,232);stroke-width:1px;"/>
            </g>
            <g transform="matrix(-1,0,0,1,2254.5,-34.275)">
                <path d="M685.5,1073.95L731.2,959.7L616.95,845.45L525.55,845.45L525.55,936.85L548.4,936.85L685.5,1073.95Z" style="fill:rgb(9,109,232);stroke:rgb(9,109,232);stroke-width:1px;"/>
            </g>
            <g transform="matrix(1,0,0,1,-30.5,-34.275)">
                <path d="M388.45,936.85L388.45,868.3L411.3,845.45L479.85,845.45L479.85,936.85L388.45,936.85Z" style="fill:rgb(9,109,232);stroke:rgb(9,109,232);stroke-width:1px;"/>
            </g>
            <g transform="matrix(-1,0,0,1,2254.5,-34.275)">
                <path d="M388.45,936.85L388.45,868.3L411.3,845.45L479.85,845.45L479.85,936.85L388.45,936.85Z" style="fill:rgb(9,109,232);stroke:rgb(9,109,232);stroke-width:1px;"/>
            </g>
            <g transform="matrix(1,0,0,1,-30.5,-34.275)">
                <path d="M525.55,616.95L708.35,616.95L914,891.15L891.15,1028.25L845.45,982.55L525.55,616.95Z" style="fill:rgb(9,109,232);stroke:rgb(9,109,232);stroke-width:1px;"/>
            </g>
            <g transform="matrix(-1,0,0,1,2254.5,-34.275)">
                <path d="M525.55,616.95L708.35,616.95L914,891.15L891.15,1028.25L845.45,982.55L525.55,616.95Z" style="fill:rgb(9,109,232);stroke:rgb(9,109,232);stroke-width:1px;"/>
            </g>
            <g transform="matrix(1,0,0,1,-30.5,-34.275)">
                <path d="M1073.95,776.9L1073.95,594.1L1096.8,548.4L1119.65,525.55L1165.35,525.55L1188.2,548.4L1211.05,594.1L1211.05,776.9L1073.95,776.9Z" style="fill:rgb(9,109,232);stroke:rgb(9,109,232);stroke-width:1px;"/>
            </g>
            <g transform="matrix(1,0,0,1,-30.5,-34.275)">
                <path d="M434.15,571.25L502.7,457L685.5,297.05L959.7,114.25L1530.95,68.55L1599.5,68.55L1713.75,87.592L1759.45,114.25L1805.15,159.95L1832.57,205.65L1850.85,297.05L1805.15,274.2L1759.45,258.967L1713.75,251.35L1371,251.35L1211.05,274.2L1028.25,342.75L914,388.45L822.6,434.15L685.5,525.55L616.95,571.25L434.15,571.25Z" style="fill:rgb(9,109,232);stroke:rgb(9,109,232);stroke-width:1px;"/>
            </g>
            <g transform="matrix(-1,0,0,1,2254.5,-34.275)">
                <path d="M1599.5,77.23L1713.75,87.592L1759.45,114.25L1805.15,159.95L1832.57,205.65L1850.85,297.05L1805.15,274.2L1759.45,258.967L1713.75,251.35L1668.05,251.35L1530.95,114.25L1576.65,76.303L1599.5,77.23Z" style="fill:rgb(9,109,232);stroke:rgb(9,109,232);stroke-width:1px;"/>
            </g>
            <g transform="matrix(1,0,0,1,-30.5,-34.275)">
                <path d="M1850.85,571.25L1668.05,571.25L1645.2,525.55L1599.5,479.85L1530.95,434.15L1485.25,411.3L1485.25,319.9L1622.35,342.75L1759.45,457L1850.85,571.25Z" style="fill:rgb(9,109,232);stroke:rgb(9,109,232);stroke-width:1px;"/>
            </g>
        </g>
        <g transform="matrix(-0.880034,0.387098,0.333094,0.757262,1052.15,-456.155)">
            <path d="M731.2,502.7C746.817,475.028 791.037,470.751 791.037,470.751L787.79,502.7L776.9,548.4L766.78,571.25L754.05,594.1L749.294,558.811L740.5,525.55L731.2,502.7Z" style="fill:rgb(15,30,61);stroke:rgb(15,30,61);stroke-width:1.12px;"/>
        </g>
        <g id="Layer10">
            <g transform="matrix(1,0,0,1,-30.5,-34.275)">
                <path d="M1211.05,754.05L1211.05,868.3L1233.9,891.15L1371,891.15L1393.85,914L1393.85,1073.95L1348.15,1119.65L1348.15,1325.3L1325.3,1371L1302.45,1393.85L1233.9,1439.55L1051.1,1439.55L982.55,1393.85L959.7,1371L936.85,1325.3L936.85,1119.65L891.15,1073.95L891.15,914L914,891.15L1051.1,891.15L1073.95,868.3L1073.95,754.05L1211.05,754.05ZM1188.2,1005.4L1188.2,982.55L1142.5,959.7L1096.8,982.55L1096.8,1005.4L1119.65,1028.25L1165.35,1028.25L1188.2,1005.4Z" style="fill:rgb(145,145,129);stroke:rgb(145,145,129);stroke-width:1px;"/>
            </g>
            <g transform="matrix(1,0,0,1,-30.5,-34.275)">
                <path d="M1073.95,1576.65L1073.95,1485.25L1211.05,1485.25L1211.05,1576.65L1142.5,1622.35L1073.95,1576.65Z" style="fill:rgb(145,145,129);stroke:rgb(145,145,129);stroke-width:1px;"/>
            </g>
            <g transform="matrix(1,0,0,1,-30.5,-34.275)">
                <path d="M891.15,1211.05L891.15,1302.45L936.85,1393.85L936.85,1462.4L914,1485.25L868.3,1485.25L822.6,1439.55L776.9,1393.85L731.2,1348.15L662.65,1279.6L662.65,1256.75L708.35,1211.05L891.15,1211.05Z" style="fill:rgb(145,145,129);stroke:rgb(145,145,129);stroke-width:1px;"/>
            </g>
            <g transform="matrix(-1,0,0,1,2254.5,-34.275)">
                <path d="M891.15,1211.05L891.15,1302.45L936.85,1393.85L936.85,1462.4L914,1485.25L868.3,1485.25L822.6,1439.55L776.9,1393.85L731.2,1348.15L662.65,1279.6L662.65,1256.75L708.35,1211.05L891.15,1211.05Z" style="fill:rgb(145,145,129);stroke:rgb(145,145,129);stroke-width:1px;"/>
            </g>
            <g transform="matrix(1,0,0,1,-30.5,-34.275)">
                <path d="M388.45,571.25L388.45,548.4L479.85,411.3L639.8,251.35L754.05,159.95L845.45,105.11L891.15,87.032L959.7,73.928L1028.25,68.55L1599.5,68.55L1256.75,114.25L1096.8,137.1L982.55,153.202L891.15,182.8L799.75,228.5L708.35,297.05L548.4,418.917L510.317,457L434.15,571.25L388.45,571.25Z" style="fill:rgb(145,145,129);stroke:rgb(145,145,129);stroke-width:1px;"/>
            </g>
            <g transform="matrix(1,0,0,1,-30.5,-34.275)">
                <path d="M1485.25,297.05L1576.65,297.05L1668.05,314.822L1707.22,342.75L1765.98,411.3L1828,502.7L1850.85,548.4L1850.85,571.25L1828,571.25L1713.75,434.15L1690.9,411.3L1622.35,365.6L1576.65,342.75L1485.25,319.9L1485.25,297.05Z" style="fill:rgb(145,145,129);stroke:rgb(145,145,129);stroke-width:1px;"/>
            </g>
            <g transform="matrix(1,0,0,1,-30.5,-34.275)">
                <path d="M754.05,68.55L685.5,68.55L571.25,87.085L754.05,114.25L754.05,68.55Z" style="fill:rgb(145,145,129);stroke:rgb(145,145,129);stroke-width:1px;"/>
            </g>
        </g>
        <g id="Layer8">
            <g transform="matrix(1,0,0,1,-30.5,-34.275)">
                <path d="M1690.9,1508.1L1782.3,1416.7L1805.15,1462.4L1805.15,1668L1782.3,1622.35L1736.6,1553.8L1690.9,1508.1Z" style="fill:rgb(15,30,61);stroke:rgb(15,30,61);stroke-width:1px;"/>
            </g>
            <g transform="matrix(-1,0,0,1,2254.5,-34.275)">
                <path d="M1690.9,1508.1L1782.3,1416.7L1805.15,1462.4L1805.15,1668L1782.3,1622.35L1736.6,1553.8L1690.9,1508.1Z" style="fill:rgb(15,30,61);stroke:rgb(15,30,61);stroke-width:1px;"/>
            </g>
            <g transform="matrix(-1,0,0,1,2117.4,-445.525)">
                <path d="M1668.05,1462.35L1668.05,1393.8L1759.45,1393.8L1805.15,1462.4L1805.15,1668L1782.3,1622.35L1736.6,1553.8L1668.05,1462.35Z" style="fill:rgb(15,30,61);stroke:rgb(15,30,61);stroke-width:1px;"/>
            </g>
            <g transform="matrix(1,0,0,1,106.6,-445.525)">
                <path d="M1668.05,1462.35L1668.05,1393.8L1759.45,1393.8L1805.15,1462.4L1805.15,1668L1782.3,1622.35L1736.6,1553.8L1668.05,1462.35Z" style="fill:rgb(15,30,61);stroke:rgb(15,30,61);stroke-width:1px;"/>
            </g>
            <g transform="matrix(1,0,0,1,-30.5,-34.275)">
                <path d="M342.75,548.4L548.4,754.05L434.15,754.05L434.15,685.5L411.3,662.65L342.75,662.65L342.75,548.4Z" style="fill:rgb(15,30,61);stroke:rgb(15,30,61);stroke-width:1px;"/>
            </g>
            <g transform="matrix(-1,0,0,1,2254.5,-34.275)">
                <path d="M342.75,548.4L548.4,754.05L434.15,754.05L434.15,685.5L411.3,662.65L342.75,662.65L342.75,548.4Z" style="fill:rgb(15,30,61);stroke:rgb(15,30,61);stroke-width:1px;"/>
            </g>
            <g transform="matrix(1,0,0,1,-30.5,-34.275)">
                <path d="M708.35,502.7C729.395,479.245 752.059,463.164 776.9,457L799.75,502.7L788.325,548.4L776.9,571.25L754.05,594.1L731.2,525.55L708.35,502.7Z" style="fill:rgb(15,30,61);stroke:rgb(15,30,61);stroke-width:1px;"/>
            </g>
            <g transform="matrix(-1,0,0,1,2277.35,-57.125)">
                <path d="M708.35,502.7C729.395,479.245 752.059,463.164 776.9,457L799.75,502.7L788.325,548.4L776.9,571.25L754.05,594.1L731.2,525.55L708.35,502.7Z" style="fill:rgb(15,30,61);stroke:rgb(15,30,61);stroke-width:1px;"/>
            </g>
            <g transform="matrix(0.935688,0.352828,-0.354137,0.939161,353.03,-350.406)">
                <path d="M708.35,502.7C722.193,466.814 745.346,444.402 776.9,434.15L799.75,502.7L788.325,548.4L776.9,571.25L754.05,594.1L731.2,525.55L708.35,502.7Z" style="fill:rgb(15,30,61);stroke:rgb(15,30,61);stroke-width:1px;"/>
            </g>
            <g transform="matrix(1,0,0,1,289.4,-182.8)">
                <path d="M685.5,468.425C717.045,441.605 751.882,424.35 792.1,422.725L813.27,468.425L813.814,514.125L799.75,559.825L754.05,605.525L743.175,536.975L731.2,514.125L685.5,468.425Z" style="fill:rgb(15,30,61);stroke:rgb(15,30,61);stroke-width:1px;"/>
            </g>
            <g transform="matrix(0.992683,0.12075,-0.12075,0.992683,561.603,-349.479)">
                <path d="M708.35,502.7C718.142,468.459 740.538,445.213 776.9,434.15L799.75,502.7L788.325,548.4L776.9,571.25L754.05,594.1L731.2,525.55L708.35,502.7Z" style="fill:rgb(15,30,61);stroke:rgb(15,30,61);stroke-width:1px;"/>
            </g>
            <g transform="matrix(0.920771,0.390104,-0.390104,0.920771,908.767,-532.713)">
                <path d="M708.35,502.7C720.945,469.595 743.954,446.904 776.9,434.15L799.75,502.7L788.325,548.4L776.9,571.25L754.05,594.1L731.2,525.55L708.35,502.7Z" style="fill:rgb(15,30,61);stroke:rgb(15,30,61);stroke-width:1px;"/>
            </g>
            <g transform="matrix(0.886794,0.37135,-0.319544,0.763079,1103.05,-438.622)">
                <path d="M731.2,502.7C746.817,475.028 791.037,470.751 791.037,470.751L787.79,502.7L776.9,548.4L766.78,571.25L754.05,594.1L749.294,558.811L740.5,525.55L731.2,502.7Z" style="fill:rgb(15,30,61);stroke:rgb(15,30,61);stroke-width:1.12px;"/>
            </g>
        </g>
        <g id="Layer9">
            <g transform="matrix(1,0,0,1,-30.5,-34.275)">
                <path d="M936.85,1028.25L1028.25,1119.65L1028.25,1142.5L1051.1,1165.35L1073.95,1142.5L1073.95,1119.65L1119.65,1028.25L1165.35,1028.25L1211.05,1119.65L1211.05,1142.5L1233.9,1165.35L1256.75,1142.5L1256.75,1119.65L1348.15,1028.25L1393.85,1028.25L1393.85,1073.95L1348.15,1119.65L1348.15,1256.75L1211.05,1393.85L1073.95,1393.85L936.85,1256.75L936.85,1119.65L891.15,1073.95L891.15,1028.25L936.85,1028.25ZM1211.05,1233.9L1188.2,1211.05L1096.8,1211.05L1073.95,1233.9L1096.8,1264.37L1142.5,1279.6L1188.2,1264.37L1211.05,1233.9Z" style="fill:rgb(113,109,105);stroke:rgb(113,109,105);stroke-width:1px;"/>
            </g>
            <g transform="matrix(1,0,0,1,-30.5,-34.275)">
                <path d="M731.2,1165.35L708.35,1142.5L708.35,1096.8L754.05,982.55L799.75,982.55L891.15,1119.65L891.15,1165.35L731.2,1165.35Z" style="fill:rgb(113,109,105);stroke:rgb(113,109,105);stroke-width:1px;"/>
            </g>
            <g transform="matrix(-1,0,0,1,2254.5,-34.275)">
                <path d="M731.2,1165.35L708.35,1142.5L708.35,1096.8L754.05,982.55L799.75,982.55L891.15,1119.65L891.15,1165.35L731.2,1165.35Z" style="fill:rgb(113,109,105);stroke:rgb(113,109,105);stroke-width:1px;"/>
            </g>
            <g transform="matrix(1,0,0,1,-30.5,-34.275)">
                <path d="M936.85,1553.8L936.85,1485.25L1028.25,1485.25L1028.25,1553.8L1005.4,1576.65L959.7,1576.65L936.85,1553.8Z" style="fill:rgb(113,109,105);stroke:rgb(113,109,105);stroke-width:1px;"/>
            </g>
            <g transform="matrix(1,0,0,1,-30.5,-34.275)">
                <path d="M1256.75,1485.25L1256.75,1553.8L1279.6,1576.65L1325.3,1576.65L1348.15,1553.8L1348.15,1485.25L1256.75,1485.25Z" style="fill:rgb(113,109,105);stroke:rgb(113,109,105);stroke-width:1px;"/>
            </g>
        </g>
    </g>
</svg>
