<?xml version="1.0" encoding="UTF-8" standalone="no"?>
<!DOCTYPE svg PUBLIC "-//W3C//DTD SVG 1.1//EN" "http://www.w3.org/Graphics/SVG/1.1/DTD/svg11.dtd">
<svg width="100%" height="100%" viewBox="0 0 4634 3475" version="1.1" xmlns="http://www.w3.org/2000/svg" xmlns:xlink="http://www.w3.org/1999/xlink" xml:space="preserve" xmlns:serif="http://www.serif.com/" style="fill-rule:evenodd;clip-rule:evenodd;stroke-linecap:round;stroke-linejoin:round;stroke-miterlimit:1.5;">
    <g transform="matrix(2.08333,0,0,2.08333,0,0)">
        <g id="Layer2">
            <g transform="matrix(1,0,0,1,-39,0)">
                <path d="M390,195L351,234L351,468L523.787,515.015L571.381,468L643.5,468L643.5,331.5L721.5,331.5L760.5,292.5L1287,292.5L1345.5,351L1345.5,702L1365,721.5L1404,721.5L1501.5,624L1540.5,624L1657.5,741L1696.5,741L1774.5,702L1774.5,175.5L1657.5,58.5L526.5,58.5L487.5,97.5L390,195Z" style="fill:rgb(0,47,63);stroke:rgb(0,47,63);stroke-width:1px;"/>
            </g>
            <g transform="matrix(1,0,0,1,-39,0)">
                <path d="M1813.5,390L1813.5,702L1833,721.5L1872,721.5L1891.5,702L1891.5,448.5L1833,390L1813.5,390Z" style="fill:rgb(0,47,63);stroke:rgb(0,47,63);stroke-width:1px;"/>
            </g>
            <g transform="matrix(1,0,0,1,-39,0)">
                <path d="M1306.5,702L1306.5,468L1287,448.5L1150.5,448.5L1072.5,487.5C1072.5,487.5 1037.04,526.099 1033.5,526.5C1029.96,526.901 1033.5,936 1033.5,936L1053,955.5L1150.5,858L1150.5,838.5L1072.5,760.5L1072.5,721.5L1092,702L1306.5,702Z" style="fill:rgb(0,47,63);stroke:rgb(0,47,63);stroke-width:1px;"/>
            </g>
            <g transform="matrix(1,0,0,1,-39,0)">
                <path d="M1735.5,780L1735.5,877.5L1755,916.5L1794,916.5L1911,799.5L1891.5,780L1735.5,780Z" style="fill:rgb(0,47,63);stroke:rgb(0,47,63);stroke-width:1px;"/>
            </g>
            <g transform="matrix(1,0,0,1,-39,0)">
                <path d="M1501.5,643.5L1540.5,643.5L1657.5,760.5L1657.5,780L1540.5,897L1501.5,897L1384.5,780L1384.5,760.5L1501.5,643.5Z" style="fill:rgb(0,47,63);stroke:rgb(0,47,63);stroke-width:1px;"/>
            </g>
            <g transform="matrix(-1,0,0,1,3003,0)">
                <path d="M1735.5,780L1735.5,877.5L1755,916.5L1794,916.5L1911,799.5L1891.5,780L1735.5,780Z" style="fill:rgb(0,47,63);stroke:rgb(0,47,63);stroke-width:1px;"/>
            </g>
            <g transform="matrix(1,0,0,1,-39,0)">
                <path d="M1540.5,916.5L1638,819L1657.5,819L1677,834L1696.5,877.5L1755,936L1833,936L1833,955.5L1696.5,1092L1521,1092L1345.5,1092L1209,955.5L1209,936L1287,936L1345.5,877.5L1365,834L1384.5,819L1404,819L1501.5,916.5L1540.5,916.5Z" style="fill:rgb(0,47,63);stroke:rgb(0,47,63);stroke-width:1px;"/>
            </g>
            <g transform="matrix(1,0,0,1,-39,0)">
                <path d="M1131,1326L1131,1287L1150.5,1248L1267.5,1111.5L1326,1111.5L1326,1092L1150.5,916.5L1131,916.5L1014,1033.5L1014,1209L1131,1326Z" style="fill:rgb(0,47,63);stroke:rgb(0,47,63);stroke-width:1px;"/>
            </g>
        </g>
        <g id="Layer4">
            <g transform="matrix(1,0,0,1,-39,0)">
                <path d="M1170,1521L1189.5,1501.5L1189.5,1404L994.5,1209L994.5,799.5L916.5,448.5L897,390L877.5,390L877.5,799.5L858,799.5L780,390L760.5,390L760.5,1228.5L858,1326L897,1404L975,1482L975,1560L1150.5,1560L1150.5,1521L1170,1521Z" style="fill:rgb(0,64,83);stroke:rgb(0,64,83);stroke-width:1px;"/>
            </g>
            <g transform="matrix(1,0,0,1,-19.5,0)">
                <path d="M1872,1501.5L1852.5,1482L1833,1482L1794,1501.5L1794,1482L1774.5,1482L1774.5,1501.5L1755,1482L1716,1482L1696.5,1501.5L1677,1482L1677,1462.5L1852.5,1287L1872,1287L1872,1501.5Z" style="fill:rgb(0,64,83);stroke:rgb(0,64,83);stroke-width:1px;"/>
            </g>
            <g transform="matrix(1,0,0,1,-39,0)">
                <path d="M1267.5,1228.5L1267.5,1189.5L1326,1131L1677,1131L1872,936L1891.5,936L1891.5,994.5L1677,1209L1404,1209L1365,1248L1267.5,1248L1267.5,1228.5Z" style="fill:rgb(0,64,83);stroke:rgb(0,64,83);stroke-width:1px;"/>
            </g>
            <g transform="matrix(1,0,0,1,-39,0)">
                <path d="M1813.5,1326L1657.5,1482L1579.5,1482L1579.5,1365L1540.5,1326L1696.5,1326L1794,1209L1813.5,1209L1813.5,1326Z" style="fill:rgb(0,64,83);stroke:rgb(0,64,83);stroke-width:1px;"/>
            </g>
        </g>
        <g transform="matrix(1,0,0,1,-39,0)">
            <g id="Layer8">
                <path d="M585,468L351,468L351,1033.5L429,1131L643.5,1345.5L702,1345.5L702,1287L604.5,1170L624,1092L604.5,1092L585,1014L585,468Z" style="fill:rgb(148,142,94);stroke:rgb(148,142,94);stroke-width:1px;"/>
            </g>
        </g>
        <g transform="matrix(1,0,0,1,-39,0)">
            <g id="Layer9">
                <path d="M1540.5,1521L1248,1521L1287,1443L1521,1443L1540.5,1423.5L1521,1404L1384.5,1404L1365,1423.5L1287,1423.5L1228.5,1501.5L1209,1501.5L1209,1267.5L1228.5,1248L1365,1248L1365,1267.5L1306.5,1306.5L1287,1326L1540.5,1326L1579.5,1365L1579.5,1482L1540.5,1521Z" style="fill:rgb(104,141,135);stroke:rgb(104,141,135);stroke-width:1px;"/>
            </g>
        </g>
        <g transform="matrix(1,0,0,1,-39,0)">
            <g id="Layer5">
                <path d="M1891.5,994.5L1891.5,1131L1813.5,1209L1794,1209L1696.5,1326L1287,1326L1306.5,1306.5L1365,1267.5L1365,1248L1404,1209L1677,1209L1891.5,994.5Z" style="fill:rgb(127,31,50);stroke:rgb(127,31,50);stroke-width:1px;"/>
            </g>
        </g>
        <g transform="matrix(1,0,0,1,-39,0)">
            <g id="Layer6">
                <path d="M1423.5,1267.5L1423.5,1228.5L1443,1209L1482,1209L1501.5,1228.5L1501.5,1267.5L1482,1287L1448.08,1287L1423.5,1267.5Z" style="fill:rgb(206,192,67);stroke:rgb(206,192,67);stroke-width:1px;"/>
            </g>
        </g>
        <g transform="matrix(1,0,0,1,312,58.5)">
            <path d="M1112,799.5L1092,780L1150.5,721.5L1189.5,721.5L1248,780L1228.5,799.5L1170,741L1112,799.5Z" style="fill:rgb(177,209,209);stroke:rgb(177,209,209);stroke-width:1px;"/>
        </g>
        <g transform="matrix(1,0,0,1,312,253.5)">
            <path d="M1072.5,819L1072.5,780L1150.5,702L1189.5,702L1267.5,780L1267.5,819L1170,721.5L1072.5,819Z" style="fill:rgb(177,209,209);stroke:rgb(177,209,209);stroke-width:1px;"/>
        </g>
        <g id="Layer3">
            <g transform="matrix(1,0,0,1,-39,0)">
                <path d="M1501.5,643.5L1540.5,643.5L1657.5,760.5L1657.5,780L1638,799.5L1521,682.5L1404,799.5L1384.5,780L1384.5,760.5L1501.5,643.5Z" style="fill:rgb(177,209,209);stroke:rgb(177,209,209);stroke-width:1px;"/>
            </g>
            <g transform="matrix(1,0,0,1,-39,0)">
                <path d="M1735.5,877.5L1696.5,838.5L1696.5,780L1716,760.5L1891.5,760.5L1911,780L1911,799.5L1891.5,799.5L1755,799.5L1735.5,819L1735.5,877.5Z" style="fill:rgb(177,209,209);stroke:rgb(177,209,209);stroke-width:1px;"/>
            </g>
            <g transform="matrix(-1,0,0,1,3003,0)">
                <path d="M1735.5,877.5L1716,858L1696.5,838.5L1696.5,780L1716,760.5L1891.5,760.5L1911,780L1911,799.5L1891.5,799.5L1755,799.5L1735.5,819L1735.5,877.5Z" style="fill:rgb(177,209,209);stroke:rgb(177,209,209);stroke-width:1px;"/>
            </g>
            <g transform="matrix(1,0,0,1,-39,0)">
                <path d="M1189.5,370.5L1150.5,370.5L1072.5,292.5L1072.5,253.5L1112,214.5L1228.5,214.5L1267.5,253.5L1267.5,292.5L1189.5,370.5" style="fill:rgb(177,209,209);stroke:rgb(177,209,209);stroke-width:1px;"/>
            </g>
            <g transform="matrix(1,0,0,1,-39,0)">
                <path d="M897,370.5L858,370.5L780,292.5L780,253.5L819,214.5L936,214.5L975,253.5L975,292.5L897,370.5Z" style="fill:rgb(177,209,209);stroke:rgb(177,209,209);stroke-width:1px;"/>
            </g>
            <g transform="matrix(1,0,0,1,-39,0)">
                <path d="M409.5,273L565.5,117L565.5,97.5L390,97.5L390,273L409.5,273Z" style="fill:rgb(177,209,209);stroke:rgb(177,209,209);stroke-width:1px;"/>
            </g>
            <g transform="matrix(1,0,0,1,-39,0)">
                <path d="M546,409.5L624,331.5L663,331.5L702,448.5L721.5,468L721.5,487.5L585,487.5L546,448.5" style="fill:rgb(177,209,209);stroke:rgb(177,209,209);stroke-width:1px;"/>
            </g>
            <g transform="matrix(1,0,0,1,-39,0)">
                <path d="M429,370.5L370.5,312L351,312L351,507L370.5,507L429,448.5L429,370.5Z" style="fill:rgb(177,209,209);stroke:rgb(177,209,209);stroke-width:1px;"/>
            </g>
            <g transform="matrix(1,0,0,1,-39,0)">
                <path d="M448.5,741L448.5,702L370.5,624L351,624L351,819L370.5,819L448.5,741Z" style="fill:rgb(177,209,209);stroke:rgb(177,209,209);stroke-width:1px;"/>
            </g>
            <g transform="matrix(1,0,0,1,-39,0)">
                <path d="M546,838.5L565.5,838.5L663,741L663,702L565.5,604.5L546,604.5L546,838.5Z" style="fill:rgb(177,209,209);stroke:rgb(177,209,209);stroke-width:1px;"/>
            </g>
            <g transform="matrix(1,0,0,1,-39,0)">
                <path d="M429,1384.5L429,1248L468,1170L507,1170L565.5,1228.5L565.5,1267.5L448.5,1384.5L429,1384.5Z" style="fill:rgb(177,209,209);stroke:rgb(177,209,209);stroke-width:1px;"/>
            </g>
            <g transform="matrix(1,0,0,1,-39,0)">
                <path d="M663,1345.5L604.5,1365L604.5,1384.5L741,1540.5L780,1540.5L780,1326L760.5,1306.5L721.5,1306.5L702,1326L663,1345.5Z" style="fill:rgb(177,209,209);stroke:rgb(177,209,209);stroke-width:1px;"/>
            </g>
            <g transform="matrix(1,0,0,1,-39,0)">
                <path d="M604.5,1170L604.5,1111.5L624,1092L643.5,1092L760.5,1209L760.5,1228.5L780,1248L663,1248L624,1209L604.5,1170Z" style="fill:rgb(177,209,209);stroke:rgb(177,209,209);stroke-width:1px;"/>
            </g>
            <g transform="matrix(1,0,0,1,-39,0)">
                <path d="M429,1053L429,994.5L351,916.5L351,1072.5L409.5,1072.5L429,1053Z" style="fill:rgb(177,209,209);stroke:rgb(177,209,209);stroke-width:1px;"/>
            </g>
            <g transform="matrix(1,0,0,1,-39,0)">
                <path d="M546,1014L546,897L565.5,877.5L585,877.5L624,916.5L663,936L682.5,955.5L682.5,994.5L624,1072.5L585,1072.5L546,1014Z" style="fill:rgb(177,209,209);stroke:rgb(177,209,209);stroke-width:1px;"/>
            </g>
            <g transform="matrix(1,0,0,1,312,58.5)">
                <path d="M936,1267.5L936,1248L994.5,1189.5L994.5,1170L1033.5,1131L1306.5,1111.5L1540.5,877.5L1540.5,936L1326,1150.5L1053,1150.5L1014,1189.5L1014,1209L955.5,1248L936,1267.5Z" style="fill:rgb(177,209,209);stroke:rgb(177,209,209);stroke-width:1px;"/>
            </g>
        </g>
        <g id="Layer10">
            <g transform="matrix(1,0,0,1,312,58.5)">
                <path d="M760.5,117L760.5,78L780,58.5L819,58.5L838.5,78L838.5,117L819,136.5L780,136.5L760.5,117Z" style="fill:rgb(148,142,94);stroke:rgb(148,142,94);stroke-width:1px;"/>
            </g>
            <g transform="matrix(1,0,0,1,546,58.5)">
                <path d="M760.5,117L760.5,78L780,58.5L819,58.5L838.5,78L838.5,117L819,136.5L780,136.5L760.5,117Z" style="fill:rgb(148,142,94);stroke:rgb(148,142,94);stroke-width:1px;"/>
            </g>
            <g transform="matrix(1,0,0,1,721.5,156)">
                <path d="M760.5,117L760.5,78L780,58.5L819,58.5L838.5,78L838.5,117L819,136.5L780,136.5L760.5,117Z" style="fill:rgb(148,142,94);stroke:rgb(148,142,94);stroke-width:1px;"/>
            </g>
            <g transform="matrix(1,0,0,1,721.5,390)">
                <path d="M760.5,117L760.5,78L780,58.5L819,58.5L838.5,78L838.5,117L819,136.5L780,136.5L760.5,117Z" style="fill:rgb(148,142,94);stroke:rgb(148,142,94);stroke-width:1px;"/>
            </g>
            <g transform="matrix(1,0,0,1,585,273)">
                <path d="M760.5,117L760.5,78L780,58.5L819,58.5L838.5,78L838.5,117L819,136.5L780,136.5L760.5,117Z" style="fill:rgb(148,142,94);stroke:rgb(148,142,94);stroke-width:1px;"/>
            </g>
            <g transform="matrix(1,0,0,1,858,273)">
                <path d="M760.5,117L760.5,78L780,58.5L819,58.5L838.5,78L838.5,117L819,136.5L780,136.5L760.5,117Z" style="fill:rgb(148,142,94);stroke:rgb(148,142,94);stroke-width:1px;"/>
            </g>
            <g transform="matrix(1,0,0,1,78,58.5)">
                <path d="M760.5,117L760.5,78L780,58.5L819,58.5L838.5,78L838.5,117L819,136.5L780,136.5L760.5,117Z" style="fill:rgb(148,142,94);stroke:rgb(148,142,94);stroke-width:1px;"/>
            </g>
            <g transform="matrix(1,0,0,1,-136.5,97.5)">
                <path d="M760.5,117L760.5,78L780,58.5L819,58.5L838.5,78L838.5,117L819,136.5L780,136.5L760.5,117Z" style="fill:rgb(148,142,94);stroke:rgb(148,142,94);stroke-width:1px;"/>
            </g>
            <g transform="matrix(1,0,0,1,0,19.5)">
                <path d="M780,838.5L819,819L819,799.5L858,838.5L858,1189.5L994.5,1326L1033.5,1326L1092,1384.5L1092,1462.5L1053,1462.5L1053,1404L1014,1365L994.5,1384.5L994.5,1462.5L955.5,1462.5L955.5,1345.5L819,1209L780,1209L760.5,1189.5L780,1189.5L819,1170L819,1092L780,1092L760.5,1072.5L780,1072.5L819,1053L819,975L780,975L760.5,955.5L780,955.5L819,936L819,858L780,858L760.5,838.5L780,838.5Z" style="fill:rgb(148,142,94);"/>
            </g>
            <g transform="matrix(-1,0,0,1,2788.5,19.5)">
                <path d="M994.5,1326L1014,1326L1092,1404L1092,1462.5L1053,1462.5L1053,1404L1014,1365L994.5,1384.5L994.5,1462.5L955.5,1462.5L955.5,1345.5L994.5,1326Z" style="fill:rgb(148,142,94);"/>
            </g>
        </g>
        <g id="Layer7">
            <g transform="matrix(1,0,0,1,-39,0)">
                <path d="M1891.5,1560L1833,1618.5L1813.5,1618.5L1813.5,1501.5L1833,1482L1872,1482L1891.5,1501.5L1891.5,1560Z" style="fill:rgb(3,15,29);stroke:rgb(3,15,29);stroke-width:1px;"/>
            </g>
            <g transform="matrix(1,0,0,1,-19.5,0)">
                <path d="M1716,1618.5L1696.5,1618.5L1696.5,1501.5L1716,1482L1755,1482L1774.5,1501.5L1774.5,1560L1716,1618.5Z" style="fill:rgb(3,15,29);stroke:rgb(3,15,29);stroke-width:1px;"/>
            </g>
            <g transform="matrix(1,0,0,1,-39,0)">
                <path d="M1150.5,1618.5L1131,1618.5L1072.5,1560L1072.5,1501.5L1092,1482L1131,1482L1150.5,1501.5L1150.5,1618.5Z" style="fill:rgb(3,15,29);stroke:rgb(3,15,29);stroke-width:1px;"/>
            </g>
            <g transform="matrix(1,0,0,1,-39,0)">
                <path d="M1053,1618.5L1033.5,1618.5L975,1560L975,1501.5L994.5,1482L1033.5,1482L1053,1501.5L1053,1618.5Z" style="fill:rgb(3,15,29);stroke:rgb(3,15,29);stroke-width:1px;"/>
            </g>
        </g>
    </g>
</svg>
