<?xml version="1.0" encoding="UTF-8" standalone="no"?>
<!DOCTYPE svg PUBLIC "-//W3C//DTD SVG 1.1//EN" "http://www.w3.org/Graphics/SVG/1.1/DTD/svg11.dtd">
<svg width="100%" height="100%" viewBox="0 0 4634 3475" version="1.1" xmlns="http://www.w3.org/2000/svg" xmlns:xlink="http://www.w3.org/1999/xlink" xml:space="preserve" xmlns:serif="http://www.serif.com/" style="fill-rule:evenodd;clip-rule:evenodd;stroke-linecap:round;stroke-linejoin:round;stroke-miterlimit:1.5;">
    <g transform="matrix(2.08333,0,0,2.08333,0,0)">
        <g id="Layer12">
            <path d="M1096.8,616.95L1051.1,594.1L1028.25,571.25L982.55,502.7L1028.25,342.75L457,114.25L457,91.4L479.85,68.55L616.95,68.55L891.15,159.95L982.55,205.65L1051.1,251.35L1142.5,388.45L1233.9,251.35L1302.45,205.65L1393.85,159.95L1530.95,114.25L1668.05,68.55L1805.15,68.55L1828,91.4L1828,114.25L1256.75,342.75L1302.45,502.7L1256.75,571.25L1233.9,594.1L1188.2,616.95L1096.8,616.95Z" style="fill:rgb(48,46,45);stroke:rgb(48,46,45);stroke-width:1px;"/>
            <path d="M1371,1622.35L914,1622.35L868.3,1576.65L776.9,1439.55L776.9,1325.3L799.75,1302.45L891.15,1302.45L891.15,1256.75L845.45,1188.2L822.6,1119.65L822.6,1005.4L914,868.3L1028.25,754.05L1096.8,708.35L1188.2,708.35L1256.75,754.05L1371,868.3L1462.4,1005.4L1462.4,1119.65L1439.55,1188.2L1393.85,1256.75L1393.85,1302.45L1485.25,1302.45L1508.1,1325.3L1508.1,1439.55L1416.7,1576.65L1371,1622.35Z" style="fill:rgb(48,46,45);stroke:rgb(48,46,45);stroke-width:1px;"/>
        </g>
        <g id="Layer17">
            <path d="M731.2,1119.65L731.2,1188.2L754.05,1233.9L799.75,1256.75L845.45,1256.75L868.3,1233.9L845.45,1233.9L822.6,1233.9L799.75,1211.05L776.9,1165.35L776.9,1119.65L731.2,1119.65Z" style="fill:rgb(203,145,8);stroke:rgb(203,145,8);stroke-width:1px;"/>
            <g transform="matrix(-1,0,0,1,2285,0)">
                <path d="M731.2,1119.65L731.2,1188.2L754.05,1233.9L799.75,1256.75L845.45,1256.75L868.3,1233.9L845.45,1233.9L822.6,1233.9L799.75,1211.05L776.9,1165.35L776.9,1119.65L731.2,1119.65Z" style="fill:rgb(203,145,8);stroke:rgb(203,145,8);stroke-width:1px;"/>
            </g>
            <g transform="matrix(1,0,0,1,-91.4,45.7)">
                <path d="M731.2,1119.65L731.2,1188.2L754.05,1233.9L799.75,1256.75L845.45,1256.75L868.3,1233.9L845.45,1233.9L822.6,1233.9L799.75,1211.05L776.9,1165.35L776.9,1142.5L754.05,1119.65L731.2,1119.65Z" style="fill:rgb(203,145,8);stroke:rgb(203,145,8);stroke-width:1px;"/>
            </g>
            <g transform="matrix(-1,0,0,1,2376.4,45.7)">
                <path d="M731.2,1119.65L731.2,1188.2L754.05,1233.9L799.75,1256.75L845.45,1256.75L868.3,1233.9L845.45,1233.9L822.6,1233.9L799.75,1211.05L776.9,1165.35L776.9,1142.5L754.05,1119.65L731.2,1119.65Z" style="fill:rgb(203,145,8);stroke:rgb(203,145,8);stroke-width:1px;"/>
            </g>
            <path d="M594.1,1576.65L571.25,1553.8L525.55,1530.95L502.7,1530.95L434.15,1553.8L388.45,1576.65L365.6,1599.5L365.6,1622.35L594.1,1622.35L594.1,1576.65Z" style="fill:rgb(203,145,8);stroke:rgb(203,145,8);stroke-width:1px;"/>
            <g transform="matrix(-1,0,0,1,2285,0)">
                <path d="M594.1,1576.65L571.25,1553.8L525.55,1530.95L502.7,1530.95L434.15,1553.8L388.45,1576.65L365.6,1599.5L365.6,1622.35L594.1,1622.35L594.1,1576.65Z" style="fill:rgb(203,145,8);stroke:rgb(203,145,8);stroke-width:1px;"/>
            </g>
            <g transform="matrix(-1,0,0,1,1371,0)">
                <path d="M662.65,1530.95L685.5,1530.95L731.2,1576.65L731.2,1622.35L708.35,1622.35L662.65,1622.35L639.8,1599.5L639.8,1553.8L662.65,1530.95Z" style="fill:rgb(203,145,8);stroke:rgb(203,145,8);stroke-width:1px;"/>
            </g>
            <g transform="matrix(1,0,0,1,914,0)">
                <path d="M662.65,1530.95L685.5,1530.95L731.2,1576.65L731.2,1622.35L708.35,1622.35L662.65,1622.35L639.8,1599.5L639.8,1553.8L662.65,1530.95Z" style="fill:rgb(203,145,8);stroke:rgb(203,145,8);stroke-width:1px;"/>
            </g>
        </g>
        <g id="Layer15">
            <path d="M959.7,662.65L891.15,628.375L868.3,594.1L868.3,548.4L891.15,502.7L914,479.85L982.55,548.4L1005.4,548.4L1051.1,594.1L1142.5,616.95L1233.9,594.1L1279.6,548.4L1302.45,548.4L1371,479.85L1393.85,502.7L1416.7,548.4L1416.7,594.1L1393.85,628.375L1325.3,662.65L959.7,662.65Z" style="fill:rgb(192,177,127);stroke:rgb(192,177,127);stroke-width:1px;"/>
            <path d="M1096.8,708.35L891.15,708.35L845.45,685.5L822.6,662.65L799.75,662.65L776.9,685.5L731.2,754.05L685.5,799.75L639.8,891.15L639.8,936.85L594.1,1028.25L594.1,1073.95L639.8,1119.65L776.9,1051.1L822.6,1005.4L914,868.3L1028.25,754.05L1096.8,708.35" style="fill:rgb(192,177,127);stroke:rgb(192,177,127);stroke-width:1px;"/>
            <g transform="matrix(-1,0,0,1,2285,0)">
                <path d="M1096.8,708.35L891.15,708.35L845.45,685.5L822.6,662.65L799.75,662.65L776.9,685.5L731.2,754.05L685.5,799.75L639.8,891.15L639.8,936.85L594.1,1028.25L594.1,1073.95L639.8,1119.65L776.9,1051.1L822.6,1005.4L914,868.3L1028.25,754.05L1096.8,708.35" style="fill:rgb(192,177,127);stroke:rgb(192,177,127);stroke-width:1px;"/>
            </g>
        </g>
        <g id="Layer14">
            <path d="M1005.4,571.25L1028.25,571.25L1005.4,525.55L1005.4,502.7L1028.25,457L1051.1,434.15L1051.1,388.45L1028.25,342.75L1005.4,342.75L936.85,434.15L914,479.85L891.15,525.55L896.437,548.4L914,571.25L936.85,571.25L959.7,548.4L982.55,571.25L1005.4,571.25Z" style="fill:rgb(16,14,12);stroke:rgb(16,14,12);stroke-width:1px;"/>
            <g transform="matrix(-1,0,0,1,2285,0)">
                <path d="M1005.4,571.25L1028.25,571.25L1005.4,525.55L1005.4,502.7L1028.25,457L1051.1,434.15L1051.1,388.45L1028.25,342.75L1005.4,342.75L936.85,434.15L914,479.85L891.15,525.55L896.437,548.4L914,571.25L936.85,571.25L959.7,548.4L982.55,571.25L1005.4,571.25Z" style="fill:rgb(16,14,12);stroke:rgb(16,14,12);stroke-width:1px;"/>
            </g>
            <path d="M594.1,1165.35L548.4,1165.35L502.7,1302.45L457,1393.85L457,1439.55L502.7,1508.1L639.8,1576.65L685.5,1530.95L708.35,1530.95L731.2,1553.8L731.2,1599.5L708.35,1622.35L799.75,1622.35L799.75,1599.5L731.2,1485.25L731.2,1325.3L708.35,1325.3L662.65,1302.45L616.95,1233.9L616.95,1211.05L594.1,1165.35Z" style="fill:rgb(16,14,12);stroke:rgb(16,14,12);stroke-width:1px;"/>
            <g transform="matrix(-1,0,0,1,2285,0)">
                <path d="M594.1,1165.35L548.4,1165.35L502.7,1302.45L457,1393.85L457,1439.55L502.7,1508.1L639.8,1576.65L685.5,1530.95L708.35,1530.95L731.2,1553.8L731.2,1599.5L708.35,1622.35L799.75,1622.35L799.75,1599.5L731.2,1485.25L731.2,1325.3L708.35,1325.3L662.65,1302.45L616.95,1233.9L616.95,1211.05L594.1,1165.35Z" style="fill:rgb(16,14,12);stroke:rgb(16,14,12);stroke-width:1px;"/>
            </g>
            <g transform="matrix(1,0,0,1,22.85,0)">
                <path d="M502.7,1165.35L479.85,1256.75L457,1302.45L388.45,1256.75L365.6,1188.2L342.75,1096.8L388.45,1142.5L434.15,1165.35L502.7,1165.35Z" style="fill:rgb(16,14,12);stroke:rgb(16,14,12);stroke-width:1px;"/>
            </g>
            <g transform="matrix(1,0,0,1,388.45,-685.5)">
                <path d="M479.85,1188.2L457,1233.9L457,1279.6L411.3,1233.9L388.45,1165.35L388.45,1119.65L434.15,1165.35L479.85,1188.2Z" style="fill:rgb(16,14,12);stroke:rgb(16,14,12);stroke-width:1px;"/>
            </g>
            <g transform="matrix(-1,0,0,1,1896.55,-685.5)">
                <path d="M479.85,1188.2L457,1233.9L457,1279.6L411.3,1233.9L388.45,1165.35L388.45,1119.65L434.15,1165.35L479.85,1188.2Z" style="fill:rgb(16,14,12);stroke:rgb(16,14,12);stroke-width:1px;"/>
            </g>
            <g transform="matrix(1,0,0,1,457,-776.9)">
                <path d="M479.85,1188.2L457,1233.9L434.15,1256.75L411.3,1233.9L388.45,1165.35L388.45,1119.65L434.15,1165.35L479.85,1188.2Z" style="fill:rgb(16,14,12);stroke:rgb(16,14,12);stroke-width:1px;"/>
            </g>
            <g transform="matrix(-1,0,0,1,1828,-776.9)">
                <path d="M479.85,1188.2L457,1233.9L434.15,1256.75L411.3,1233.9L388.45,1165.35L388.45,1119.65L434.15,1165.35L479.85,1188.2Z" style="fill:rgb(16,14,12);stroke:rgb(16,14,12);stroke-width:1px;"/>
            </g>
            <g transform="matrix(-1,0,0,1,2262.15,0)">
                <path d="M502.7,1165.35L479.85,1256.75L457,1302.45L388.45,1256.75L365.6,1188.2L342.75,1096.8L388.45,1142.5L434.15,1165.35L502.7,1165.35Z" style="fill:rgb(16,14,12);stroke:rgb(16,14,12);stroke-width:1px;"/>
            </g>
        </g>
        <g id="Layer18">
            <path d="M616.95,982.55L639.8,936.85L685.5,891.15L731.2,891.15L868.3,936.85L837.834,982.55L616.95,982.55Z" style="fill:rgb(129,63,0);stroke:rgb(129,63,0);stroke-width:1px;"/>
            <g transform="matrix(-1,0,0,1,2285,0)">
                <path d="M616.95,982.55L639.8,936.85L685.5,891.15L731.2,891.15L868.3,936.85L837.834,982.55L616.95,982.55Z" style="fill:rgb(129,63,0);stroke:rgb(129,63,0);stroke-width:1px;"/>
            </g>
            <path d="M639.8,1073.95L685.5,1028.25L754.05,1028.25L776.9,1051.1L776.9,1119.65L754.05,1119.65L731.2,1142.5L731.2,1188.2L708.35,1211.05L685.5,1211.05L685.5,1188.2L662.65,1165.35L639.8,1165.35L639.8,1073.95Z" style="fill:rgb(129,63,0);stroke:rgb(129,63,0);stroke-width:1px;"/>
            <g transform="matrix(-1,0,0,1,2285,0)">
                <path d="M639.8,1073.95L685.5,1028.25L754.05,1028.25L776.9,1051.1L776.9,1119.65L754.05,1119.65L731.2,1142.5L731.2,1188.2L708.35,1211.05L685.5,1211.05L685.5,1188.2L662.65,1165.35L639.8,1165.35L639.8,1073.95Z" style="fill:rgb(129,63,0);stroke:rgb(129,63,0);stroke-width:1px;"/>
            </g>
        </g>
        <g id="Layer16">
            <path d="M1233.9,1622.35L1051.1,1622.35L1051.1,1256.75L1062.53,1165.35L1096.8,1028.25L1188.2,1028.25L1222.48,1165.35L1233.9,1256.75L1233.9,1622.35Z" style="fill:rgb(80,63,112);stroke:rgb(80,63,112);stroke-width:1px;"/>
            <path d="M959.7,1165.35L914,1165.35L875.917,1279.6L868.3,1348.15L868.3,1576.65L914,1622.35L959.7,1622.35L959.7,1165.35Z" style="fill:rgb(80,63,112);stroke:rgb(80,63,112);stroke-width:1px;"/>
            <g transform="matrix(-1,0,0,1,2285,0)">
                <path d="M959.7,1165.35L914,1165.35L875.917,1279.6L868.3,1348.15L868.3,1576.65L914,1622.35L959.7,1622.35L959.7,1165.35Z" style="fill:rgb(80,63,112);stroke:rgb(80,63,112);stroke-width:1px;"/>
            </g>
        </g>
        <g id="Layer19">
            <path d="M1051.1,1622.35L1051.1,1530.95L1119.65,1462.4L1165.35,1462.4L1233.9,1530.95L1233.9,1622.35L1051.1,1622.35Z" style="fill:rgb(16,14,12);"/>
            <path d="M959.7,1622.35L914,1622.35L868.3,1576.65L868.3,1553.8L891.15,1530.95L936.85,1530.95L959.7,1553.8L959.7,1622.35Z" style="fill:rgb(16,14,12);"/>
            <g transform="matrix(-1,0,0,1,2285,0)">
                <path d="M959.7,1622.35L914,1622.35L868.3,1576.65L868.3,1553.8L891.15,1530.95L936.85,1530.95L959.7,1553.8L959.7,1622.35Z" style="fill:rgb(16,14,12);"/>
            </g>
        </g>
        <g id="Layer13">
            <path d="M1188.2,388.45L1096.8,388.45L1051.1,342.75L1051.1,205.65L1112,159.95L1173,159.95L1233.9,205.65L1233.9,342.75L1188.2,388.45Z" style="fill:rgb(174,165,137);stroke:rgb(192,177,127);stroke-width:1px;"/>
            <g transform="matrix(1,0,0,1,22.85,22.85)">
                <path d="M982.55,594.1L1005.4,639.8L1028.25,662.65L1028.25,571.25L1005.4,548.4L982.55,548.4L982.55,594.1Z" style="fill:rgb(174,165,137);stroke:rgb(192,177,127);stroke-width:1px;"/>
            </g>
            <g transform="matrix(-1,0,0,1,2262.15,22.85)">
                <path d="M982.55,594.1L1005.4,639.8L1028.25,662.65L1028.25,571.25L1005.4,548.4L982.55,548.4L982.55,594.1Z" style="fill:rgb(174,165,137);stroke:rgb(192,177,127);stroke-width:1px;"/>
            </g>
        </g>
        <g id="Layer8">
            <path d="M982.55,251.35L959.7,228.5L982.55,205.65L1005.4,228.5L982.55,251.35Z" style="fill:rgb(156,159,151);stroke:rgb(156,159,151);stroke-width:1px;"/>
            <g transform="matrix(-1,0,0,1,2285,0)">
                <path d="M982.55,251.35L959.7,228.5L982.55,205.65L1005.4,228.5L982.55,251.35Z" style="fill:rgb(156,159,151);stroke:rgb(156,159,151);stroke-width:1px;"/>
            </g>
            <g transform="matrix(1,0,0,1,-91.4,-45.7)">
                <path d="M982.55,251.35L959.7,228.5L982.55,205.65L1005.4,228.5L982.55,251.35Z" style="fill:rgb(156,159,151);stroke:rgb(156,159,151);stroke-width:1px;"/>
            </g>
            <g transform="matrix(-1,0,0,1,2376.4,-45.7)">
                <path d="M982.55,251.35L959.7,228.5L982.55,205.65L1005.4,228.5L982.55,251.35Z" style="fill:rgb(156,159,151);stroke:rgb(156,159,151);stroke-width:1px;"/>
            </g>
            <g transform="matrix(1,0,0,1,-228.5,-91.4)">
                <path d="M982.55,251.35L959.7,228.5L982.55,205.65L1005.4,228.5L982.55,251.35Z" style="fill:rgb(156,159,151);stroke:rgb(156,159,151);stroke-width:1px;"/>
            </g>
            <g transform="matrix(-1,0,0,1,2513.5,-91.4)">
                <path d="M982.55,251.35L959.7,228.5L982.55,205.65L1005.4,228.5L982.55,251.35Z" style="fill:rgb(156,159,151);stroke:rgb(156,159,151);stroke-width:1px;"/>
            </g>
            <g transform="matrix(1,0,0,1,-365.6,-137.1)">
                <path d="M982.55,251.35L959.7,228.5L982.55,205.65L1005.4,228.5L982.55,251.35Z" style="fill:rgb(156,159,151);stroke:rgb(156,159,151);stroke-width:1px;"/>
            </g>
            <g transform="matrix(-1,0,0,1,2650.6,-137.1)">
                <path d="M982.55,251.35L959.7,228.5L982.55,205.65L1005.4,228.5L982.55,251.35Z" style="fill:rgb(156,159,151);stroke:rgb(156,159,151);stroke-width:1px;"/>
            </g>
        </g>
        <g id="Layer11">
            <path d="M1028.25,342.75L914,251.35L776.9,205.65L594.1,159.95L502.7,114.25L457,114.25L457,159.95L479.85,228.5L502.7,251.35L639.8,319.9L731.2,342.75L1028.25,342.75Z" style="fill:rgb(127,96,145);stroke:rgb(127,96,145);stroke-width:1px;"/>
            <g transform="matrix(-1,0,0,1,2285,0)">
                <path d="M1028.25,342.75L914,251.35L776.9,205.65L594.1,159.95L502.7,114.25L457,114.25L457,159.95L479.85,228.5L502.7,251.35L639.8,319.9L731.2,342.75L1028.25,342.75Z" style="fill:rgb(127,96,145);stroke:rgb(127,96,145);stroke-width:1px;"/>
            </g>
        </g>
        <g id="Layer10">
            <path d="M1119.65,936.85L1096.8,914L1096.8,868.3L1119.65,845.45L1165.35,845.45L1188.2,868.3L1188.2,914L1165.35,936.85L1119.65,936.85Z" style="fill:rgb(207,146,1);stroke:rgb(207,146,1);stroke-width:1px;"/>
            <path d="M959.7,914L982.55,891.15L1005.4,891.15L1005.4,982.55L982.55,982.55L959.7,959.7L959.7,914Z" style="fill:rgb(207,146,1);stroke:rgb(207,146,1);stroke-width:1px;"/>
            <g transform="matrix(-1,0,0,1,2285,0)">
                <path d="M959.7,914L982.55,891.15L1005.4,891.15L1005.4,982.55L982.55,982.55L959.7,959.7L959.7,914Z" style="fill:rgb(207,146,1);stroke:rgb(207,146,1);stroke-width:1px;"/>
            </g>
            <path d="M891.15,936.85L868.3,959.7L868.3,1005.4L891.15,1028.25L914,1028.25L914,936.85L891.15,936.85Z" style="fill:rgb(207,146,1);stroke:rgb(207,146,1);stroke-width:1px;"/>
            <g transform="matrix(-1,0,0,1,2285,0)">
                <path d="M891.15,936.85L868.3,959.7L868.3,1005.4L891.15,1028.25L914,1028.25L914,936.85L891.15,936.85Z" style="fill:rgb(207,146,1);stroke:rgb(207,146,1);stroke-width:1px;"/>
            </g>
        </g>
        <g id="Layer9">
            <path d="M1005.4,411.3L1005.4,388.45L1028.25,388.45L1051.1,411.3L1051.1,434.15L1005.4,411.3Z" style="fill:rgb(108,23,17);stroke:rgb(108,23,17);stroke-width:1px;"/>
            <g transform="matrix(-1,0,0,1,2285,0)">
                <path d="M1005.4,411.3L1005.4,388.45L1028.25,388.45L1051.1,411.3L1051.1,434.15L1005.4,411.3Z" style="fill:rgb(108,23,17);stroke:rgb(108,23,17);stroke-width:1px;"/>
            </g>
        </g>
    </g>
</svg>
