<?xml version="1.0" encoding="UTF-8" standalone="no"?>
<!DOCTYPE svg PUBLIC "-//W3C//DTD SVG 1.1//EN" "http://www.w3.org/Graphics/SVG/1.1/DTD/svg11.dtd">
<svg width="100%" height="100%" viewBox="0 0 4634 3475" version="1.1" xmlns="http://www.w3.org/2000/svg" xmlns:xlink="http://www.w3.org/1999/xlink" xml:space="preserve" xmlns:serif="http://www.serif.com/" style="fill-rule:evenodd;clip-rule:evenodd;stroke-linecap:round;stroke-linejoin:round;stroke-miterlimit:1.5;">
    <g transform="matrix(2.08333,0,0,2.08333,0,0)">
        <g transform="matrix(1,0,0,1,-30.5,-11.45)">
            <g id="Layer12">
                <path d="M1325.3,388.45L1142.5,388.45L1142.5,342.75L1325.3,342.75L1325.3,297.05L1233.9,297.05L1279.6,251.35L1279.6,159.95L1233.9,114.25L1119.65,114.25L1119.65,68.55L1416.7,68.55L1462.4,114.25L1508.1,205.65L1873.7,205.65L1919.4,251.35L1873.7,297.05L1668.05,297.05L1645.2,319.9L1645.2,365.6L1668.05,388.45L1919.4,388.45L1919.4,411.3L1896.55,434.15L1850.85,479.85L1668.05,479.85L1645.2,502.7L1645.2,594.1L1690.9,616.95L1828,754.05L1850.85,1051.1L1805.15,1165.35L1668.05,1325.3L1439.55,1485.25L1462.4,1508.1L1462.4,1530.95L1416.7,1553.8L1393.85,1576.65L1302.45,1576.65L1279.6,1553.8L1279.6,1439.55L1051.1,1439.55L1051.1,1508.1L1073.95,1530.95L1119.65,1530.95L1096.8,1576.65L868.3,1576.65L868.3,1439.55L754.05,1439.55L685.5,1393.85L662.65,1348.15L639.8,1279.6L639.8,845.45L822.6,662.65L868.3,571.25L868.3,137.1L845.45,114.25L822.6,91.4L776.9,68.55L822.6,68.55L868.3,91.4L914,137.1L959.7,205.65L959.7,616.95L914,708.35L731.2,891.15L731.2,1302.45L776.9,1348.15L868.3,1348.15L914,1302.45L914,1119.65L982.55,1051.1L1073.95,1028.25L1279.6,1028.25L1371,1073.95L1416.7,1165.35L1416.7,1233.9L1439.55,1256.75L1508.1,1256.75L1599.5,1211.05L1645.2,1165.35L1690.9,1073.95L1690.9,891.15L1645.2,754.05L1599.5,662.65L1553.8,616.95L1553.8,502.7L1530.95,479.85L1439.55,525.55L1439.55,616.95L1416.7,639.8L1325.3,639.8L1302.45,616.95L1371,502.7L1325.3,388.45Z" style="fill:rgb(206,207,161);stroke:rgb(206,207,161);stroke-width:1px;"/>
            </g>
        </g>
        <g id="Layer10">
            <g transform="matrix(1,0,0,1,-30.5,-11.45)">
                <path d="M457,159.95L388.45,137.1L365.6,114.25L365.6,68.55L662.65,68.55L731.2,81.19L765.716,102.671L776.9,137.1L776.9,525.55L731.2,616.95L594.1,754.05L594.1,1393.85L639.8,1485.25L731.2,1530.95L936.85,1530.95L959.7,1508.1L959.7,1576.65L594.1,1576.65L502.7,1485.25L502.7,1393.85L548.4,1393.85L548.4,1291.03L479.85,1279.6L434.15,1211.05L388.45,1188.2L365.6,1165.35L365.6,1119.65L479.85,1119.65L479.85,1051.1L434.15,982.55L388.45,959.7L365.6,936.85L365.6,891.15L525.55,891.15L502.7,776.9L434.15,708.35L388.45,685.5L365.6,662.65L365.6,616.95L571.25,616.95L479.85,479.85L434.15,434.15L388.45,411.3L365.6,388.45L365.6,342.75L571.25,342.75L525.55,228.5L457,159.95ZM571.25,708.35M639.8,656.938L632.183,662.65L639.8,662.65L639.8,656.938Z" style="fill:rgb(128,1,32);stroke:rgb(128,1,32);stroke-width:1px;"/>
            </g>
            <g transform="matrix(1,0,0,1,-30.5,-11.45)">
                <path d="M1371,1622.35L1371,1553.8L1393.85,1530.95L1736.6,1530.95L1736.6,1485.25L1782.3,1485.25L1782.3,1553.8L1759.45,1576.65L1690.9,1576.65L1690.9,1622.35L1645.2,1622.35L1645.2,1576.65L1508.1,1576.65L1508.1,1622.35L1462.4,1622.35L1462.4,1576.65L1416.7,1576.65L1416.7,1622.35L1371,1622.35Z" style="fill:rgb(128,1,32);stroke:rgb(128,1,32);stroke-width:1px;"/>
            </g>
        </g>
        <g transform="matrix(1,0,0,1,-30.5,-11.45)">
            <g id="Layer13">
                <path d="M1573.39,763.843L1553.8,685.5L1508.1,639.8L1508.1,548.4L1462.4,525.55L1462.4,502.7L1485.25,479.85L1530.95,479.85L1553.8,502.7L1553.8,616.95L1599.5,662.65L1645.2,754.05L1690.9,891.15L1690.9,1073.95L1645.2,1165.35L1599.5,1211.05L1508.1,1256.75L1439.55,1256.75L1416.7,1233.9L1416.7,1165.35L1371,1073.95L1279.6,1028.25L1073.95,1028.25L982.55,1051.1L914,1119.65L914,1302.45L868.3,1348.15L776.9,1348.15L731.2,1302.45L731.2,1233.9L754.05,1256.75L799.75,1256.75L822.6,1233.9L822.6,1073.95L868.3,982.55L959.7,891.15L1073.95,799.75L1119.65,776.9L1188.2,754.05L1279.6,754.05L1371,799.75L1416.7,845.45L1462.4,914L1485.25,1051.1L1508.1,1073.95L1530.95,1073.95L1576.65,1051.1L1599.5,1005.4L1599.5,914L1599.5,876.869L1599.5,868.3L1582.36,799.75L1573.39,763.843Z" style="fill:rgb(141,81,96);stroke:rgb(141,81,96);stroke-width:1px;"/>
            </g>
        </g>
        <g id="Layer17">
            <g transform="matrix(1,0,0,1,-30.5,-11.45)">
                <path d="M639.8,388.45L639.8,228.5L616.95,205.65L411.3,205.65L411.3,251.35L525.55,297.05L594.1,388.45L639.8,388.45Z" style="fill:rgb(174,48,82);stroke:rgb(174,48,82);stroke-width:1px;"/>
            </g>
            <g transform="matrix(1,0,0,1,-30.5,262.75)">
                <path d="M639.8,388.45L639.8,228.5L616.95,205.65L411.3,205.65L411.3,251.35L525.55,297.05L594.1,388.45L639.8,388.45Z" style="fill:rgb(174,48,82);stroke:rgb(174,48,82);stroke-width:1px;"/>
            </g>
            <g transform="matrix(1,0,0,1,-30.5,-11.45)">
                <path d="M548.4,891.15L548.4,776.9L525.55,754.05L365.6,754.05L365.6,799.75L411.3,799.75L502.7,868.3L502.7,891.15L548.4,891.15Z" style="fill:rgb(174,48,82);stroke:rgb(174,48,82);stroke-width:1px;"/>
            </g>
            <g transform="matrix(1,0,0,1,-30.5,262.75)">
                <path d="M548.4,891.15L548.4,776.9L525.55,754.05L365.6,754.05L365.6,799.75L411.3,799.75L502.7,868.3L502.7,891.15L548.4,891.15Z" style="fill:rgb(174,48,82);stroke:rgb(174,48,82);stroke-width:1px;"/>
            </g>
            <g transform="matrix(1,0,0,1,-30.5,491.25)">
                <path d="M548.4,891.15L548.4,776.9L525.55,754.05L365.6,754.05L365.6,799.75L411.3,799.75L502.7,868.3L502.7,891.15L548.4,891.15Z" style="fill:rgb(174,48,82);stroke:rgb(174,48,82);stroke-width:1px;"/>
            </g>
        </g>
        <g id="Layer15">
            <g transform="matrix(1,0,0,1,-30.5,-11.45)">
                <path d="M1233.9,114.25L1279.6,159.95L1279.6,251.35L1233.9,297.05L1142.5,297.05L1073.95,205.65L1028.25,137.1L1119.65,114.25L1233.9,114.25Z" style="fill:rgb(125,2,32);stroke:rgb(125,2,32);stroke-width:1px;"/>
            </g>
            <g transform="matrix(1,0,0,1,-30.5,-11.45)">
                <path d="M1462.4,525.55L1462.4,639.8L1439.55,662.65L1233.9,639.8L1302.45,594.1L1325.3,525.55L1188.2,525.55L1119.65,479.85L1096.8,388.45L1325.3,388.45L1371,434.15L1393.85,479.85L1393.85,525.55L1371,571.25L1302.45,616.95L1416.7,639.8L1439.55,616.95L1439.55,525.55L1462.4,502.7" style="fill:rgb(125,2,32);stroke:rgb(125,2,32);stroke-width:1px;"/>
            </g>
            <g transform="matrix(1,0,0,1,60.9,-11.45)">
                <path d="M1736.6,457L1736.6,548.4L1713.75,594.1L1690.9,616.95L1736.6,594.1L1759.45,571.25L1782.3,457L1759.45,434.15L1736.6,457Z" style="fill:rgb(125,2,32);stroke:rgb(125,2,32);stroke-width:1px;"/>
            </g>
            <g transform="matrix(1,0,0,1,-30.5,-11.45)">
                <path d="M1736.6,457L1736.6,525.55L1713.75,571.25L1690.9,594.1L1736.6,571.25L1759.45,548.4L1782.3,457L1759.45,434.15L1736.6,457Z" style="fill:rgb(125,2,32);stroke:rgb(125,2,32);stroke-width:1px;"/>
            </g>
        </g>
        <g id="Layer11">
            <g transform="matrix(1,0,0,1,-30.5,-11.45)">
                <path d="M1371,1439.55L1576.65,1439.55L1645.2,1416.7L1713.75,1371L1782.3,1302.45L1850.85,1211.05L1873.7,1119.65L1873.7,868.3L1850.85,799.75L1828,754.05L1782.3,708.35L1805.15,754.05L1828,834L1828,1073.95L1782.3,1165.35L1645.2,1302.45L1553.8,1348.15L1462.4,1348.15L1416.7,1348.15L1393.85,1371L1371,1371L1371,1439.55Z" style="fill:rgb(98,30,71);stroke:rgb(98,30,71);stroke-width:1px;"/>
            </g>
            <g transform="matrix(1,0,0,1,-30.5,-11.45)">
                <path d="M776.9,68.55L822.6,91.4L868.3,137.1L868.3,571.25L822.6,662.65L639.8,845.45L639.8,1279.6L662.65,1348.15L685.5,1393.85L754.05,1439.55L891.15,1439.55L914,1416.7L936.85,1393.85L1211.05,1393.85L1233.9,1371L1233.9,1165.35L1211.05,1142.5L1028.25,1142.5L1005.4,1165.35L1005.4,1279.6L1028.25,1302.45L1119.65,1302.45L1142.5,1279.6L1142.5,1256.75L1119.65,1233.9L1096.8,1233.9L1073.95,1256.75L1073.95,1279.6L1051.1,1256.75L1051.1,1211.05L1073.95,1188.2L1165.35,1188.2L1188.2,1211.05L1188.2,1325.3L1165.35,1348.15L982.55,1348.15L959.7,1325.3L959.7,1119.65L982.55,1096.8L1256.75,1096.8L1279.6,1119.65L1279.6,1416.7L1256.75,1439.55L982.55,1439.55L959.7,1462.4L959.7,1530.95L936.85,1530.95L731.2,1530.95L639.8,1485.25L594.1,1393.85L594.1,754.05L731.2,616.95L776.9,525.55L776.9,205.65L754.05,137.1L685.5,91.4L594.1,68.55L776.9,68.55Z" style="fill:rgb(98,30,71);stroke:rgb(98,30,71);stroke-width:1px;"/>
            </g>
        </g>
        <g id="Layer18">
            <g transform="matrix(1,0,0,1,-30.5,-11.45)">
                <path d="M1233.9,1622.35L1233.9,1553.8L1211.05,1530.95L1119.65,1530.95L1096.8,1553.8L1096.8,1622.35L1142.5,1622.35L1142.5,1576.65L1188.2,1576.65L1188.2,1622.35L1233.9,1622.35Z" style="fill:rgb(46,16,33);stroke:rgb(46,16,33);stroke-width:1px;"/>
            </g>
            <g transform="matrix(1,0,0,1,-30.5,-11.45)">
                <path d="M1371,1439.55L1371,1485.25L1690.9,1485.25L1759.45,1462.4L1873.7,1348.15L1919.4,1256.75L1919.4,868.3L1896.55,822.6L1828,754.05L1850.85,799.75L1873.7,868.3L1873.7,1119.65L1850.85,1211.05L1782.3,1302.45L1713.75,1371L1645.2,1416.7L1576.65,1439.55L1371,1439.55Z" style="fill:rgb(46,16,33);stroke:rgb(46,16,33);stroke-width:1px;"/>
            </g>
            <g transform="matrix(1,0,0,1,-7.65,-11.45)">
                <path d="M525.55,68.55L708.35,68.55L754.05,91.4L799.75,137.1L799.75,571.25L754.05,662.65L616.95,845.45L616.95,1279.6L639.8,1348.15L662.65,1393.85L799.75,1485.25L936.85,1485.25L936.85,1576.65L708.35,1576.65L616.95,1485.25L571.25,1393.85L571.25,754.05L662.65,616.95L685.5,525.55L685.5,205.65L662.65,137.1L594.1,91.4L525.55,68.55Z" style="fill:rgb(46,16,33);stroke:rgb(46,16,33);stroke-width:1px;"/>
            </g>
        </g>
        <g id="Layer14">
            <g transform="matrix(1,0,0,1,-30.5,-11.45)">
                <path d="M1690.9,388.45L1713.75,342.75L1736.6,342.75L1736.6,388.45L1690.9,388.45Z" style="fill:rgb(177,173,125);stroke:rgb(177,173,125);stroke-width:1px;"/>
            </g>
            <g transform="matrix(1,0,0,1,60.9,-11.45)">
                <path d="M1690.9,388.45L1713.75,342.75L1736.6,342.75L1736.6,388.45L1690.9,388.45Z" style="fill:rgb(177,173,125);stroke:rgb(177,173,125);stroke-width:1px;"/>
            </g>
            <g transform="matrix(1,0,0,1,152.3,-11.45)">
                <path d="M1690.9,388.45L1713.75,342.75L1736.6,342.75L1736.6,388.45L1690.9,388.45Z" style="fill:rgb(177,173,125);stroke:rgb(177,173,125);stroke-width:1px;"/>
            </g>
        </g>
        <g transform="matrix(1,0,0,1,-30.5,-11.45)">
            <g id="Layer19">
                <path d="M1919.4,251.35L1919.4,228.5L1896.55,205.65L1873.7,205.65L1919.4,251.35Z" style="fill:rgb(154,131,50);stroke:rgb(154,131,50);stroke-width:1px;"/>
            </g>
        </g>
        <g id="Layer16">
            <g transform="matrix(1,0,0,1,-30.5,-11.45)">
                <path d="M776.9,1005.4L845.45,936.85L936.85,936.85L1005.4,959.7L1005.4,982.55L982.55,997.783L936.85,982.55L845.45,982.55L776.9,1005.4Z" style="fill:rgb(195,145,49);stroke:rgb(195,145,49);stroke-width:1px;"/>
            </g>
            <g transform="matrix(1,0,0,1,60.9,-114.3)">
                <path d="M776.9,1005.4L845.45,936.85L936.85,936.85L1005.4,959.7L1005.4,982.55L982.55,997.783L936.85,982.55L845.45,982.55L776.9,1005.4Z" style="fill:rgb(195,145,49);stroke:rgb(195,145,49);stroke-width:1px;"/>
            </g>
            <g transform="matrix(1,0,0,1,152.3,-205.675)">
                <path d="M776.9,1005.4L845.45,936.85L936.85,936.85L1005.4,959.7L1005.4,982.55L982.55,997.783L936.85,982.55L845.45,982.55L776.9,1005.4Z" style="fill:rgb(195,145,49);stroke:rgb(195,145,49);stroke-width:1px;"/>
            </g>
            <g transform="matrix(1,0,0,1,-30.5,-11.45)">
                <path d="M1119.65,114.25L1028.25,137.1L982.55,114.25L936.85,68.55L1005.4,91.4L1051.1,91.4L1096.8,68.55L1119.65,68.55L1119.65,114.25Z" style="fill:rgb(195,145,49);stroke:rgb(195,145,49);stroke-width:1px;"/>
            </g>
            <g transform="matrix(1,0,0,1,-30.5,-11.45)">
                <path d="M1142.5,342.75L1142.5,388.45L1051.1,388.45L1005.4,319.9L1051.1,342.75L1142.5,342.75Z" style="fill:rgb(195,145,49);stroke:rgb(195,145,49);stroke-width:1px;"/>
            </g>
            <g transform="matrix(1,0,0,1,-30.5,-11.45)">
                <path d="M1599.5,914L1565.23,914L1519.53,936.85L1496.67,959.7L1519.53,914L1542.38,891.15L1599.5,876.869" style="fill:rgb(195,145,49);stroke:rgb(195,145,49);stroke-width:1px;"/>
            </g>
            <g transform="matrix(1,0,0,1,-30.5,-11.45)">
                <path d="M1582.36,799.75L1530.95,799.75L1485.25,822.6L1462.4,845.45L1485.25,799.75L1508.1,776.9L1573.39,763.843L1582.36,799.75Z" style="fill:rgb(195,145,49);stroke:rgb(195,145,49);stroke-width:1px;"/>
            </g>
        </g>
        <g transform="matrix(1,0,0,1,-30.5,-34.3)">
            <g id="Layer8">
                <path d="M1553.8,251.35L1645.2,342.75L1645.2,388.45L1462.4,388.45L1371,297.05L1371,251.35L1553.8,251.35Z" style="fill:rgb(78,47,12);stroke:rgb(78,47,12);stroke-width:1px;"/>
            </g>
        </g>
        <g transform="matrix(1,0,0,1,-7.65,-11.45)">
            <g id="Layer9">
                <path d="M1573.42,211.522L1559.69,245.279L1485.25,274.2L1475.3,310.689L1431.98,324.675L1400.84,377.048L1381.13,384.058L1350.66,408.526L1382.71,395.788L1419.3,397.554L1429.39,368.431L1459.14,335.807L1496.57,333.69L1523.03,288.597L1562.38,271.252L1572.79,250.312L1573.42,211.522Z" style="fill:rgb(44,29,16);stroke:rgb(44,29,16);stroke-width:1px;"/>
            </g>
        </g>
    </g>
</svg>
