<?xml version="1.0" encoding="UTF-8" standalone="no"?>
<!DOCTYPE svg PUBLIC "-//W3C//DTD SVG 1.1//EN" "http://www.w3.org/Graphics/SVG/1.1/DTD/svg11.dtd">
<svg width="100%" height="100%" viewBox="0 0 4634 3475" version="1.1" xmlns="http://www.w3.org/2000/svg" xmlns:xlink="http://www.w3.org/1999/xlink" xml:space="preserve" xmlns:serif="http://www.serif.com/" style="fill-rule:evenodd;clip-rule:evenodd;stroke-linecap:round;stroke-linejoin:round;stroke-miterlimit:1.5;">
    <g transform="matrix(2.08333,0,0,2.08333,0,0)">
        <g transform="matrix(1,0,0,1,-30.5,-14.4412)">
            <g id="Layer10">
                <path d="M868.3,479.85L914,479.85L1028.25,548.4L1051.1,639.8L1233.9,639.8L1256.75,548.4L1371,479.85L1416.7,479.85L1416.7,616.95L1371,754.05L1325.3,845.45L1576.65,845.45L1599.5,868.3L1599.5,891.15L1530.95,936.85L1393.85,1051.1L1416.7,1154.75L1462.4,1119.65L1462.4,1073.95L1508.1,1028.25L1599.5,1028.25L1645.2,1073.95L1645.2,1348.15L1599.5,1393.85L1462.4,1393.85L1348.15,1279.6L1142.5,1256.75L936.85,1279.6L822.6,1393.85L685.5,1393.85L639.8,1348.15L639.8,1073.95L685.5,1028.25L776.9,1028.25L822.6,1073.95L822.6,1119.65L868.3,1142.5L891.15,1051.1L754.05,914L685.5,891.15L685.5,868.3L708.35,845.45L959.7,845.45L914,754.05L868.3,616.95L868.3,479.85Z" style="fill:rgb(162,62,114);stroke:rgb(162,62,114);stroke-width:1px;"/>
            </g>
        </g>
        <g id="Layer16">
            <g transform="matrix(1,0,0,1,-30.5,-14.4412)">
                <path d="M1096.8,548.4L1073.95,594.1L1051.1,616.95L1028.25,571.25L936.85,525.55L914,479.85L868.3,479.85L868.3,388.45L868.3,434.15L845.45,411.3L845.45,502.7L708.35,708.35L616.95,708.35L594.1,799.75L594.1,914L457,914L457,754.05L365.6,685.5L365.6,91.4L388.45,68.55L502.7,68.55L571.25,114.25L594.1,137.1L685.5,159.95L731.2,205.65L959.7,205.65L1005.4,251.35L1051.1,251.35L1073.95,274.2L1096.8,319.9L1096.8,548.4Z" style="fill:rgb(109,31,62);stroke:rgb(109,31,62);stroke-width:1px;"/>
            </g>
            <g transform="matrix(-1,0,0,1,2254.5,-14.4412)">
                <path d="M1096.8,548.4L1073.95,594.1L1051.1,616.95L1028.25,571.25L936.85,525.55L914,479.85L868.3,479.85L868.3,388.45L868.3,434.15L845.45,411.3L845.45,502.7L708.35,708.35L616.95,708.35L594.1,799.75L594.1,914L457,914L457,754.05L365.6,685.5L365.6,91.4L388.45,68.55L502.7,68.55L571.25,114.25L594.1,137.1L685.5,159.95L731.2,205.65L959.7,205.65L1005.4,251.35L1051.1,251.35L1073.95,274.2L1096.8,319.9L1096.8,548.4Z" style="fill:rgb(109,31,62);stroke:rgb(109,31,62);stroke-width:1px;"/>
            </g>
            <g transform="matrix(1,0,0,1,-30.5,-14.4412)">
                <path d="M1073.95,891.15L1096.8,914L1096.8,982.55L1073.95,982.55L1073.95,1028.25L1096.8,1028.25L1119.65,1051.1L1165.35,1051.1L1188.2,1028.25L1211.05,1028.25L1211.05,982.55L1188.2,982.55L1188.2,914L1211.05,891.15L1211.05,868.3L1073.95,868.3L1073.95,891.15Z" style="fill:rgb(109,31,62);stroke:rgb(109,31,62);stroke-width:1px;"/>
            </g>
            <g transform="matrix(1,0,0,1,-30.5,-14.4412)">
                <path d="M982.55,1302.45L1005.4,1325.3L1005.4,1348.15L1051.1,1371L1233.9,1371L1279.6,1348.15L1279.6,1325.3L1302.45,1302.45L1279.6,1302.45L1256.75,1256.75L1256.75,1233.9L1302.45,1211.05L1302.45,1051.1L1233.9,1051.1L1211.05,1096.8L1188.2,1096.8L1188.2,1119.65L1096.8,1119.65L1096.8,1096.8L1073.95,1096.8L1073.95,1051.1L982.55,1051.1L982.55,1211.05L1028.25,1233.9L1042.5,1256.75L1028.25,1279.6L982.55,1302.45Z" style="fill:rgb(109,31,62);stroke:rgb(109,31,62);stroke-width:1px;"/>
            </g>
            <g transform="matrix(1,0,0,1,-30.5,-14.4412)">
                <path d="M845.45,1279.6L845.45,1188.2L776.9,1119.65L754.05,1119.65L708.35,1165.35L685.5,1165.35L639.8,1119.65L639.8,1211.05L685.5,1256.75L708.35,1256.75L754.05,1211.05L776.9,1211.05L845.45,1279.6Z" style="fill:rgb(109,31,62);stroke:rgb(109,31,62);stroke-width:1px;"/>
            </g>
            <g transform="matrix(-1,0,0,1,2254.5,-14.4412)">
                <path d="M845.45,1279.6L845.45,1188.2L776.9,1119.65L754.05,1119.65L708.35,1165.35L685.5,1165.35L639.8,1119.65L639.8,1211.05L685.5,1256.75L708.35,1256.75L754.05,1211.05L776.9,1211.05L845.45,1279.6Z" style="fill:rgb(109,31,62);stroke:rgb(109,31,62);stroke-width:1px;"/>
            </g>
            <g transform="matrix(1,0,0,1,-30.5,-14.4412)">
                <path d="M571.25,1233.9L578.353,1331.84L594.1,1348.15L616.95,1371L616.95,1416.7L571.25,1485.25L525.55,1530.95L502.7,1576.65L479.85,1576.65L388.45,1576.65L365.6,1553.8L365.6,1508.1L388.45,1485.25L479.85,1485.25L502.7,1462.4L502.7,1393.85L479.85,1348.15L479.85,1233.9L571.25,1233.9Z" style="fill:rgb(109,31,62);stroke:rgb(109,31,62);stroke-width:1px;"/>
            </g>
            <g transform="matrix(-1,0,0,1,2254.5,-14.4412)">
                <path d="M571.25,1233.9L578.353,1331.84L594.1,1348.15L616.95,1371L616.95,1416.7L571.25,1485.25L525.55,1530.95L502.7,1576.65L479.85,1576.65L388.45,1576.65L365.6,1553.8L365.6,1508.1L388.45,1485.25L479.85,1485.25L502.7,1462.4L502.7,1393.85L479.85,1348.15L479.85,1233.9L571.25,1233.9Z" style="fill:rgb(109,31,62);stroke:rgb(109,31,62);stroke-width:1px;"/>
            </g>
            <g transform="matrix(1,0,0,1,-30.5,-14.4412)">
                <path d="M936.85,1073.95L936.85,959.7L914,936.85L822.6,936.85L776.9,891.15L685.5,891.15L868.3,1073.95L936.85,1073.95Z" style="fill:rgb(109,31,62);stroke:rgb(109,31,62);stroke-width:1px;"/>
            </g>
            <g transform="matrix(-1,0,0,1,2254.5,-14.4412)">
                <path d="M936.85,1073.95L936.85,959.7L914,936.85L822.6,936.85L776.9,891.15L685.5,891.15L868.3,1073.95L936.85,1073.95Z" style="fill:rgb(109,31,62);stroke:rgb(109,31,62);stroke-width:1px;"/>
            </g>
            <g transform="matrix(-1,0,0,1,2254.5,-14.4412)">
                <path d="M936.85,1073.95L936.85,959.7L914,936.85L822.6,936.85L776.9,891.15L685.5,891.15L868.3,1073.95L936.85,1073.95Z" style="fill:rgb(109,31,62);stroke:rgb(109,31,62);stroke-width:1px;"/>
            </g>
        </g>
        <g id="Layer15">
            <g transform="matrix(1,0,0,1,-30.5,-14.4412)">
                <path d="M936.85,1371L914,1416.7L914,1485.25L868.3,1599.5L845.45,1622.35L616.95,1622.35L594.1,1599.5L594.1,1530.95L594.1,1508.1L616.95,1485.25L662.65,1485.25L685.5,1462.4L685.5,1393.85L708.35,1393.85L731.2,1348.15L776.9,1348.15L799.75,1393.85L822.6,1393.85L868.3,1348.15L845.45,1279.6L868.3,1279.6L891.15,1371L936.85,1371Z" style="fill:rgb(81,15,28);stroke:rgb(81,15,28);stroke-width:1px;"/>
            </g>
            <g transform="matrix(1,0,0,1,-30.5,-14.4412)">
                <path d="M1051.1,1233.9L1073.95,1211.05L1211.05,1211.05L1233.9,1233.9L1211.05,1279.6L1188.2,1302.45L1096.8,1302.45L1073.95,1279.6L1051.1,1233.9Z" style="fill:rgb(81,15,28);stroke:rgb(81,15,28);stroke-width:1px;"/>
            </g>
            <g transform="matrix(-1,0,0,1,2254.5,-14.4412)">
                <path d="M936.85,1371L914,1416.7L914,1485.25L868.3,1599.5L845.45,1622.35L616.95,1622.35L594.1,1599.5L594.1,1530.95L594.1,1508.1L616.95,1485.25L662.65,1485.25L685.5,1462.4L685.5,1393.85L708.35,1393.85L731.2,1348.15L776.9,1348.15L799.75,1393.85L822.6,1393.85L868.3,1348.15L868.3,1302.45L845.45,1279.6L868.3,1279.6L891.15,1371L936.85,1371Z" style="fill:rgb(81,15,28);stroke:rgb(81,15,28);stroke-width:1px;"/>
            </g>
            <g transform="matrix(1,0,0,1,-30.5,-14.4412)">
                <path d="M594.1,1348.15L594.1,1119.65L548.4,1119.65L502.7,1165.35L457,1211.05L457,1348.15L502.7,1393.85L502.7,1279.6L525.55,1256.75L548.4,1279.6L548.4,1348.15L594.1,1348.15Z" style="fill:rgb(81,15,28);stroke:rgb(81,15,28);stroke-width:1px;"/>
            </g>
            <g transform="matrix(-1,0,0,1,2254.5,-14.4412)">
                <path d="M594.1,1348.15L594.1,1119.65L548.4,1119.65L502.7,1165.35L457,1211.05L457,1348.15L502.7,1393.85L502.7,1279.6L525.55,1256.75L548.4,1279.6L548.4,1348.15L594.1,1348.15Z" style="fill:rgb(81,15,28);stroke:rgb(81,15,28);stroke-width:1px;"/>
            </g>
            <g transform="matrix(1,0,0,1,-30.5,-14.4412)">
                <path d="M594.1,799.75L565.788,731.847L530.524,666.494L491.703,656.621L482.497,597.598L467.429,559.883L462.742,502.348L485.122,537.854L508.523,555.272L513.922,588.986L532.259,603.36L544.697,626.883L577.179,651.246L591.146,666.062L598.451,687.474L612.503,671.513L615.678,646.906L640.26,638.177L651.754,606.422L640.048,569.478L631.248,542.97L597.65,531.896L576.848,487.371L535.215,458.32L537.022,408.793L507.458,388.896L493.332,345.129L452.985,307.956L456.393,211.613L481.163,271.673L509.492,288.363L534.185,314.108L540.132,350.68L580.11,371.518L599.221,421.253L635.817,449.512L649.128,473.587L694.465,474.049L716.507,502.866L714.779,528.587L726.397,544.079L708.35,708.35L639.8,754.05L594.1,799.75Z" style="fill:rgb(81,15,28);stroke:rgb(81,15,28);stroke-width:1px;"/>
            </g>
            <g transform="matrix(-1,0,0,1,2254.5,-14.4412)">
                <path d="M594.1,799.75L565.788,731.847L530.524,666.494L491.703,656.621L482.497,597.598L467.429,559.883L462.742,502.348L485.122,537.854L508.523,555.272L513.922,588.986L532.259,603.36L544.697,626.883L577.179,651.246L591.146,666.062L598.451,687.474L612.503,671.513L615.678,646.906L640.26,638.177L651.754,606.422L640.048,569.478L631.248,542.97L597.65,531.896L576.848,487.371L535.215,458.32L537.022,408.793L507.458,388.896L493.332,345.129L452.985,307.956L456.393,211.613L481.163,271.673L509.492,288.363L534.185,314.108L540.132,350.68L580.11,371.518L599.221,421.253L635.817,449.512L649.128,473.587L694.465,474.049L716.507,502.866L714.779,528.587L726.397,544.079L708.35,708.35L639.8,754.05L594.1,799.75Z" style="fill:rgb(81,15,28);stroke:rgb(81,15,28);stroke-width:1px;"/>
            </g>
            <g transform="matrix(1,0,0,1,-30.5,-14.4412)">
                <path d="M818.914,423.993L845.45,502.7L799.75,571.25L766.583,544.733L763.798,502.686L745.778,470.794L719.935,444.31L721.549,402.415L685.299,391.51L675.611,371.255L671.678,345.228L680.803,322.461L658.922,297.651L666.537,271.96L662.407,239.699L683.335,203.569L681.152,250.983L704.612,282.587L705.839,319.332L716.614,329.441L725.821,348.334L747.677,348.68L765.352,366.754L786.32,419.242L818.914,423.993Z" style="fill:rgb(81,15,28);stroke:rgb(81,15,28);stroke-width:1px;"/>
            </g>
            <g transform="matrix(-1,0,0,1,2254.5,-14.4412)">
                <path d="M818.914,423.993L845.45,502.7L799.75,571.25L766.583,544.733L763.798,502.686L745.778,470.794L719.935,444.31L721.549,402.415L685.299,391.51L675.611,371.255L671.678,345.228L680.803,322.461L658.922,297.651L666.537,271.96L662.407,239.699L683.335,203.569L681.152,250.983L704.612,282.587L705.839,319.332L716.614,329.441L725.821,348.334L747.677,348.68L765.352,366.754L786.32,419.242L818.914,423.993Z" style="fill:rgb(81,15,28);stroke:rgb(81,15,28);stroke-width:1px;"/>
            </g>
            <g transform="matrix(1,0,0,1,-30.5,-14.4412)">
                <path d="M1096.8,982.55L1096.8,1096.8L1119.65,1119.65L1142.5,1119.65L1142.5,1165.35L1096.8,1165.35L1051.1,1119.65L1005.4,1073.95L959.7,1028.25L959.7,891.15L936.85,891.15L914,868.3L914,845.45L959.7,845.45L959.7,891.15L1005.4,891.15L1096.8,982.55Z" style="fill:rgb(81,15,28);stroke:rgb(81,15,28);stroke-width:1px;"/>
            </g>
            <g transform="matrix(-1,0,0,1,2254.5,-14.4412)">
                <path d="M1096.8,982.55L1096.8,1096.8L1119.65,1119.65L1142.5,1119.65L1142.5,1165.35L1096.8,1165.35L1051.1,1119.65L1005.4,1073.95L959.7,1028.25L959.7,891.15L936.85,891.15L914,868.3L914,845.45L959.7,845.45L959.7,891.15L1005.4,891.15L1096.8,982.55Z" style="fill:rgb(81,15,28);stroke:rgb(81,15,28);stroke-width:1px;"/>
            </g>
        </g>
        <g id="Layer14">
            <g transform="matrix(1,0,0,1,-30.5,-14.4412)">
                <path d="M1013.9,1143.66L1022.36,1110.26L1009.22,1064.27L973.807,1034.27L956.54,1007.55L956.736,974.954L941.134,933.467L924.315,909.916L907.574,970.806L871.027,1010.9L865.118,1066.97L818.22,1143.01L835.198,1220.86L830.994,1283.47L840.568,1299.44L838.671,1328.84L873.775,1375.6L888.139,1380.11L894.082,1407.84L914,1416.7L933.77,1417.35L953.704,1407.59L970.713,1385.13L1005.4,1371L1020.48,1347.61L1022.67,1304.99L1047.43,1284.37L1051.1,1256.75L1049.83,1228.13L1034.43,1202.87L1031.06,1172.88L1013.9,1143.66Z" style="fill:rgb(178,14,14);stroke:rgb(178,14,14);stroke-width:1px;"/>
            </g>
            <g transform="matrix(-1,0,0,1,2254.5,-14.4412)">
                <path d="M1005.4,1165.35L997.778,1147.98L1002.2,1110.93L983.613,1068.92L985.271,1046.57L971.85,1032.48L954.627,1024.29L949.842,1011.09L940.784,987.75L916.228,957.271L899.586,1013.05L874.852,1037.42L854.934,1096.7L822.6,1105.62L809.584,1144.79L824.242,1172.88L814.659,1210.27L828.677,1243.73L821.062,1277.47L830.594,1293.79L861.098,1315.41L862.218,1355.58L868.3,1393.85L874.955,1406.81L898.24,1410.64L911.919,1423.1L936.85,1416.7L955.711,1391.98L1005.4,1371L1023.58,1357.13L1028.25,1325.3L1037.86,1311.35L1036.58,1288.28L1051.1,1256.75L1042.14,1234.81L1046.19,1221.01L1028.77,1205.54L1025.9,1186.51L1005.4,1165.35Z" style="fill:rgb(178,14,14);stroke:rgb(178,14,14);stroke-width:1px;"/>
            </g>
            <g transform="matrix(1,0,0,1,-30.5,-14.4412)">
                <path d="M1096.8,1302.45L1070.53,1337.7L1051.1,1348.15L1037.27,1399.05L1009.39,1434.99L1007.13,1486.98L999.152,1528.31L1028.49,1562.95L1044.85,1604.55L1085.02,1610.69L1096.8,1622.35L1162.59,1628.33L1229.73,1617.2L1288.71,1616.04L1326.88,1593.37L1288.74,1593.01L1260.6,1574.55L1237.61,1561.36L1234.6,1541.18L1249.35,1530.78L1252.67,1507.26L1271,1470.55L1272.82,1418.86L1256.75,1403.47L1246.67,1351.77L1213.33,1331.59L1188.2,1302.45L1096.8,1302.45Z" style="fill:rgb(178,14,14);stroke:rgb(178,14,14);stroke-width:1px;"/>
            </g>
        </g>
        <g id="Layer13">
            <g transform="matrix(1,0,0,1,-53.35,-14.4412)">
                <path d="M822.6,571.25L776.9,662.65L799.75,708.35L868.3,754.05L754.05,754.05L685.5,708.35L685.5,571.25L731.2,525.55L799.75,525.55L822.6,571.25Z" style="fill:rgb(195,191,129);stroke:rgb(195,191,129);stroke-width:1px;"/>
            </g>
            <g transform="matrix(-1,0,0,1,2277.35,-14.4412)">
                <path d="M822.6,571.25L776.9,662.65L799.75,708.35L868.3,754.05L754.05,754.05L685.5,708.35L685.5,571.25L731.2,525.55L799.75,525.55L822.6,571.25Z" style="fill:rgb(195,191,129);stroke:rgb(195,191,129);stroke-width:1px;"/>
            </g>
            <g transform="matrix(-0.707042,0.707172,-0.707172,-0.707042,1719.75,326.608)">
                <path d="M822.6,571.25L776.9,639.8L799.75,685.5L868.3,731.2L776.9,731.2L708.35,662.65L708.35,571.25L754.05,525.55L799.75,525.55L822.6,571.25Z" style="fill:rgb(195,191,129);stroke:rgb(195,191,129);stroke-width:1px;"/>
            </g>
            <g transform="matrix(0.707042,0.707172,0.707172,-0.707042,504.251,326.608)">
                <path d="M822.6,571.25L776.9,639.8L799.75,685.5L868.3,731.2L776.9,731.2L708.35,662.65L708.35,571.25L754.05,525.55L799.75,525.55L822.6,571.25Z" style="fill:rgb(195,191,129);stroke:rgb(195,191,129);stroke-width:1px;"/>
            </g>
        </g>
        <g id="Layer12">
            <g transform="matrix(1,0,0,1,-30.5,-14.4412)">
                <path d="M457,799.75L548.4,891.15L594.1,891.15L594.1,982.55L639.8,1028.25L548.4,1028.25L502.7,982.55L457,936.85L457,799.75Z" style="fill:rgb(29,13,13);stroke:rgb(29,13,13);stroke-width:1px;"/>
            </g>
            <g transform="matrix(-1,0,0,1,2254.5,-14.4412)">
                <path d="M457,799.75L548.4,891.15L594.1,891.15L594.1,982.55L639.8,1028.25L548.4,1028.25L502.7,982.55L457,936.85L457,799.75Z" style="fill:rgb(29,13,13);stroke:rgb(29,13,13);stroke-width:1px;"/>
            </g>
            <g transform="matrix(1,0,0,1,-30.5,-14.4412)">
                <path d="M457,754.05L411.3,708.35L365.6,662.65L365.6,799.75L411.3,754.05L457,754.05Z" style="fill:rgb(29,13,13);stroke:rgb(29,13,13);stroke-width:1px;"/>
            </g>
            <g transform="matrix(-1,0,0,1,2254.5,-14.4412)">
                <path d="M457,754.05L411.3,708.35L365.6,662.65L365.6,799.75L411.3,754.05L457,754.05Z" style="fill:rgb(29,13,13);stroke:rgb(29,13,13);stroke-width:1px;"/>
            </g>
            <g transform="matrix(1,0,0,1,-30.5,-14.4412)">
                <path d="M799.75,1599.5L799.75,1553.8L776.9,1536.66L708.35,1553.8L708.35,1622.35L731.2,1576.65L799.75,1599.5Z" style="fill:rgb(29,13,13);stroke:rgb(29,13,13);stroke-width:1px;"/>
            </g>
            <g transform="matrix(-1,0,0,1,2254.5,-14.4412)">
                <path d="M799.75,1599.5L799.75,1553.8L776.9,1536.66L708.35,1553.8L708.35,1622.35L731.2,1576.65L799.75,1599.5Z" style="fill:rgb(29,13,13);stroke:rgb(29,13,13);stroke-width:1px;"/>
            </g>
            <g transform="matrix(1,0,0,1,-190.45,-14.4412)">
                <path d="M799.75,1599.5L799.75,1553.8L776.9,1536.66L708.35,1553.8L708.35,1622.35L731.2,1576.65L799.75,1599.5Z" style="fill:rgb(29,13,13);stroke:rgb(29,13,13);stroke-width:1px;"/>
            </g>
            <g transform="matrix(-1,0,0,1,2414.45,-14.4412)">
                <path d="M799.75,1599.5L799.75,1553.8L776.9,1536.66L708.35,1553.8L708.35,1622.35L731.2,1576.65L799.75,1599.5Z" style="fill:rgb(29,13,13);stroke:rgb(29,13,13);stroke-width:1px;"/>
            </g>
            <g transform="matrix(1,0,0,1,-30.5,-14.4412)">
                <path d="M388.45,1622.35L388.45,1576.65L411.3,1530.95L388.45,1530.95L365.6,1553.8L388.45,1622.35Z" style="fill:rgb(29,13,13);stroke:rgb(29,13,13);stroke-width:1px;"/>
            </g>
            <g transform="matrix(-1,0,0,1,2254.5,-14.4412)">
                <path d="M388.45,1622.35L388.45,1576.65L411.3,1530.95L388.45,1530.95L365.6,1553.8L388.45,1622.35Z" style="fill:rgb(29,13,13);stroke:rgb(29,13,13);stroke-width:1px;"/>
            </g>
            <g transform="matrix(1,0,0,1,60.9,-14.4412)">
                <path d="M388.45,1622.35L388.45,1576.65L411.3,1530.95L388.45,1530.95L365.6,1553.8L388.45,1622.35Z" style="fill:rgb(29,13,13);stroke:rgb(29,13,13);stroke-width:1px;"/>
            </g>
            <g transform="matrix(-1,0,0,1,2163.1,-14.4412)">
                <path d="M388.45,1622.35L388.45,1576.65L411.3,1530.95L388.45,1530.95L365.6,1553.8L388.45,1622.35Z" style="fill:rgb(29,13,13);stroke:rgb(29,13,13);stroke-width:1px;"/>
            </g>
        </g>
        <g id="Layer11">
            <g transform="matrix(1,0,0,1,-53.35,31.2588)">
                <path d="M1211.05,1211.05L1233.9,1188.2L1233.9,1165.35L1188.2,1165.35L1211.05,1188.2L1211.05,1211.05Z" style="fill:rgb(225,168,141);stroke:rgb(225,168,141);stroke-width:1px;"/>
            </g>
            <g transform="matrix(1,0,0,1,-30.5,31.2588)">
                <path d="M1188.2,1233.9L1165.35,1211.05L1165.35,1233.9L1142.5,1256.75L1119.65,1233.9L1119.65,1211.05L1096.8,1233.9L1096.8,1256.75L1188.2,1256.75L1188.2,1233.9Z" style="fill:rgb(225,168,141);stroke:rgb(225,168,141);stroke-width:1px;"/>
            </g>
            <g transform="matrix(1,0,0,1,-7.65,31.2588)">
                <path d="M1096.8,1165.35L1051.1,1165.35L1051.1,1188.2L1073.95,1211.05L1073.95,1188.2L1096.8,1165.35Z" style="fill:rgb(225,168,141);stroke:rgb(225,168,141);stroke-width:1px;"/>
            </g>
            <g transform="matrix(1,0,0,1,-7.65,8.40879)">
                <path d="M1051.1,1256.75L1051.1,1233.9L1028.25,1211.05L982.55,1188.2L959.7,1142.5L936.85,1073.95L936.85,1211.05L982.55,1256.75L1051.1,1256.75Z" style="fill:rgb(225,168,141);stroke:rgb(225,168,141);stroke-width:1px;"/>
            </g>
            <g transform="matrix(-1,0,0,1,2231.65,8.40879)">
                <path d="M1051.1,1256.75L1051.1,1233.9L1028.25,1211.05L982.55,1188.2L959.7,1142.5L936.85,1073.95L936.85,1211.05L982.55,1256.75L1051.1,1256.75Z" style="fill:rgb(225,168,141);stroke:rgb(225,168,141);stroke-width:1px;"/>
            </g>
        </g>
        <g transform="matrix(1,0,0,1,-30.5,-14.4412)">
            <g id="Layer8">
                <path d="M1096.8,891.15L1077.32,882.25L1065.59,860.074L1071.82,834L1056.33,813.114L1051.76,774.104L1036.06,756.886L1038.09,729.289L1015.19,693.806L1005.4,662.65L1018.74,613.133L1012.96,575.794L1028.25,525.55L1038.32,563.38L1052.29,573.635L1051.89,602.449L1063.02,618.938L1083.38,614.944L1091.54,597.184L1086.36,581.416L1112,590.668L1126.61,571.693L1139.32,560.191L1149.81,535.789L1134.21,483.721L1157.06,499.382L1173.34,512.838L1176.91,541.185L1188.2,548.4L1195.36,586.457L1204.92,594.169L1211.05,616.95L1226.65,608.549L1233.34,588.745L1243.03,576.863L1255.62,562.913L1254.99,535.209L1275.83,503.622L1270.48,536.885L1281.83,555.83L1284.7,591.935L1274.66,630.555L1279.6,662.65L1270.28,689.817L1258.94,694.713L1247.41,723.328L1236.46,737.712L1241.99,771.314L1234.41,807.39L1237.91,834L1227.42,855.024L1214.38,862.264L1206.82,879.544L1188.2,891.15L1096.8,891.15Z" style="fill:rgb(209,191,63);stroke:rgb(209,191,63);stroke-width:1px;"/>
            </g>
        </g>
        <g id="Layer9">
            <g transform="matrix(-3.06162e-16,-1,-1,3.06162e-16,2231.65,2247.71)">
                <path d="M1233.9,1028.25L1233.9,1005.4L1233.9,982.55L1279.6,982.55L1279.6,1005.4L1256.75,1028.25L1233.9,1028.25Z" style="fill:rgb(132,130,160);stroke:rgb(132,130,160);stroke-width:1px;"/>
            </g>
            <g transform="matrix(1,0,0,1,-30.5,-14.4412)">
                <path d="M1051.1,1028.25L1051.1,1005.4L1028.25,982.55L1005.4,982.55L1005.4,1028.25L1051.1,1028.25Z" style="fill:rgb(132,130,160);stroke:rgb(132,130,160);stroke-width:1px;"/>
            </g>
            <g transform="matrix(-1,0,0,1,2254.5,-14.4412)">
                <path d="M1051.1,1028.25L1051.1,1005.4L1028.25,982.55L1005.4,982.55L1005.4,1028.25L1051.1,1028.25Z" style="fill:rgb(132,130,160);stroke:rgb(132,130,160);stroke-width:1px;"/>
            </g>
        </g>
    </g>
</svg>
