<?xml version="1.0" encoding="UTF-8" standalone="no"?>
<!DOCTYPE svg PUBLIC "-//W3C//DTD SVG 1.1//EN" "http://www.w3.org/Graphics/SVG/1.1/DTD/svg11.dtd">
<svg width="100%" height="100%" viewBox="0 0 4634 3475" version="1.1" xmlns="http://www.w3.org/2000/svg" xmlns:xlink="http://www.w3.org/1999/xlink" xml:space="preserve" xmlns:serif="http://www.serif.com/" style="fill-rule:evenodd;clip-rule:evenodd;stroke-linecap:round;stroke-linejoin:round;stroke-miterlimit:1.5;">
    <g transform="matrix(2.08333,0,0,2.08333,0,0)">
        <g id="Layer13">
            <g transform="matrix(1,0,0,1,-30.5,-12.4526)">
                <path d="M365.6,936.85L388.45,891.15L411.3,868.3L457,845.45L525.55,845.45L548.4,868.3L548.4,1279.6L571.25,1371L365.6,1371L365.6,936.85Z" style="fill:rgb(146,46,16);stroke:rgb(146,46,16);stroke-width:1px;"/>
            </g>
            <g transform="matrix(-1,0,0,1,2254.5,-12.4526)">
                <path d="M365.6,936.85L388.45,891.15L411.3,868.3L457,845.45L525.55,845.45L548.4,868.3L548.4,1279.6L571.25,1371L365.6,1371L365.6,936.85Z" style="fill:rgb(146,46,16);stroke:rgb(146,46,16);stroke-width:1px;"/>
            </g>
            <g transform="matrix(1,0,0,1,-30.5,-12.4526)">
                <path d="M1051.1,1028.25L959.7,982.55L914,936.85L868.3,845.45L845.45,822.6L799.75,845.45L776.9,868.3L708.35,776.9L685.5,685.5L685.5,571.25L731.2,434.15L799.75,342.75L868.3,274.2L936.85,251.35L1142.5,228.5L1348.15,251.35L1416.7,274.2L1485.25,342.75L1553.8,434.15L1599.5,571.25L1599.5,685.5L1576.65,776.9L1508.1,868.3L1485.25,845.45L1439.55,822.6L1416.7,845.45L1371,936.85L1325.3,982.55L1233.9,1028.25L1142.5,1051.1L1051.1,1028.25Z" style="fill:rgb(146,46,16);stroke:rgb(146,46,16);stroke-width:1px;"/>
            </g>
        </g>
        <g id="Layer14">
            <g transform="matrix(1,0,0,1,-30.5,-12.4526)">
                <path d="M1325.3,731.2L1302.45,754.05L1233.9,822.6L1233.9,845.45L1302.45,845.45L1325.3,822.6L1325.3,731.2Z" style="fill:rgb(26,205,142);stroke:rgb(26,205,142);stroke-width:1px;"/>
            </g>
            <g transform="matrix(-1,0,0,1,2254.5,-12.4526)">
                <path d="M1325.3,731.2L1302.45,754.05L1233.9,822.6L1233.9,845.45L1302.45,845.45L1325.3,822.6L1325.3,731.2Z" style="fill:rgb(26,205,142);stroke:rgb(26,205,142);stroke-width:1px;"/>
            </g>
        </g>
        <g id="Layer15">
            <g transform="matrix(1,0,0,1,-53.35,-12.4526)">
                <path d="M845.45,274.2L776.9,228.5L685.5,159.95L662.65,137.1L685.5,297.05L731.2,342.75L799.75,342.75L822.6,319.9L845.45,274.2Z" style="fill:rgb(98,13,3);stroke:rgb(98,13,3);stroke-width:1px;"/>
            </g>
            <g transform="matrix(-1,0,0,1,2277.35,-12.4526)">
                <path d="M845.45,274.2L776.9,228.5L685.5,159.95L662.65,137.1L685.5,297.05L731.2,342.75L799.75,342.75L822.6,319.9L845.45,274.2Z" style="fill:rgb(98,13,3);stroke:rgb(98,13,3);stroke-width:1px;"/>
            </g>
            <g transform="matrix(1,0,0,1,-30.5,-35.3026)">
                <path d="M1028.25,205.65L1073.95,159.95L1119.65,137.1L1142.5,114.25L1165.35,137.1L1211.05,159.95L1256.75,205.65L1256.75,228.5L1142.5,205.65L1028.25,228.5L1028.25,205.65Z" style="fill:rgb(98,13,3);stroke:rgb(98,13,3);stroke-width:1px;"/>
            </g>
            <g transform="matrix(1,0,0,1,-30.5,-12.4526)">
                <path d="M1165.35,891.15L1233.9,845.45L1302.45,754.05L1325.3,708.35L1325.3,639.8L1279.6,708.35L1233.9,754.05L1165.35,799.75L1119.65,799.75L1051.1,754.05L1005.4,708.35L959.7,639.8L959.7,708.35L982.55,754.05L1051.1,845.45L1119.65,891.15L1165.35,891.15Z" style="fill:rgb(98,13,3);stroke:rgb(98,13,3);stroke-width:1px;"/>
            </g>
            <g transform="matrix(1,0,0,1,-30.5,-58.1526)">
                <path d="M731.2,708.35L754.05,776.9L799.75,845.45L822.6,776.9L868.3,708.35L731.2,708.35Z" style="fill:rgb(98,13,3);stroke:rgb(98,13,3);stroke-width:1px;"/>
            </g>
            <g transform="matrix(-1,0,0,1,2254.5,-58.1526)">
                <path d="M731.2,708.35L754.05,776.9L799.75,845.45L822.6,776.9L868.3,708.35L731.2,708.35Z" style="fill:rgb(98,13,3);stroke:rgb(98,13,3);stroke-width:1px;"/>
            </g>
        </g>
        <g id="Layer11">
            <g transform="matrix(1,0,0,1,-30.5,-12.4526)">
                <path d="M365.6,1096.8L434.15,1028.25L479.85,1028.25L548.4,1096.8L548.4,1188.2L479.85,1119.65L434.15,1119.65L365.6,1188.2L365.6,1096.8Z" style="fill:rgb(45,66,73);stroke:rgb(45,66,73);stroke-width:1px;"/>
            </g>
            <g transform="matrix(-1,0,0,1,2254.5,-12.4526)">
                <path d="M365.6,1096.8L434.15,1028.25L479.85,1028.25L548.4,1096.8L548.4,1188.2L479.85,1119.65L434.15,1119.65L365.6,1188.2L365.6,1096.8Z" style="fill:rgb(45,66,73);stroke:rgb(45,66,73);stroke-width:1px;"/>
            </g>
            <g transform="matrix(1,0,0,1,-30.5,-12.4526)">
                <path d="M365.6,1508.1L365.6,1325.3L434.15,1256.75L479.85,1256.75L548.4,1325.3L616.95,1439.55L639.8,1485.25L639.8,1622.35L365.6,1622.35L365.6,1508.1Z" style="fill:rgb(45,66,73);stroke:rgb(45,66,73);stroke-width:1px;"/>
            </g>
            <g transform="matrix(-1,0,0,1,2254.5,-12.4526)">
                <path d="M365.6,1508.1L365.6,1325.3L434.15,1256.75L479.85,1256.75L548.4,1325.3L616.95,1439.55L639.8,1485.25L639.8,1622.35L365.6,1622.35L365.6,1508.1Z" style="fill:rgb(45,66,73);stroke:rgb(45,66,73);stroke-width:1px;"/>
            </g>
            <g transform="matrix(1,0,0,1,-30.5,-35.3026)">
                <path d="M1096.8,457L1119.65,434.15L1142.5,388.45L1165.35,434.15L1188.2,457L1165.35,479.85L1119.65,479.85L1096.8,457Z" style="fill:rgb(45,66,73);stroke:rgb(45,66,73);stroke-width:1px;"/>
            </g>
            <g transform="matrix(1,0,0,1,-30.5,-12.4526)">
                <path d="M1348.15,525.55L1416.7,594.1L1439.55,594.1L1462.4,525.55L1462.4,479.85L1416.7,479.85L1348.15,502.7L1348.15,525.55Z" style="fill:rgb(45,66,73);stroke:rgb(45,66,73);stroke-width:1px;"/>
            </g>
            <g transform="matrix(-1,0,0,1,2254.5,-12.4526)">
                <path d="M1348.15,525.55L1416.7,594.1L1439.55,594.1L1462.4,525.55L1462.4,479.85L1416.7,479.85L1348.15,502.7L1348.15,525.55Z" style="fill:rgb(45,66,73);stroke:rgb(45,66,73);stroke-width:1px;"/>
            </g>
            <g transform="matrix(1,0,0,1,-30.5,-12.4526)">
                <path d="M1553.8,388.45L1599.5,525.55L1645.2,434.15L1713.75,365.6L1668.05,365.6L1553.8,388.45Z" style="fill:rgb(45,66,73);stroke:rgb(45,66,73);stroke-width:1px;"/>
            </g>
            <g transform="matrix(-1,0,0,1,2254.5,-12.4526)">
                <path d="M1553.8,388.45L1599.5,525.55L1645.2,434.15L1713.75,365.6L1668.05,365.6L1553.8,388.45Z" style="fill:rgb(45,66,73);stroke:rgb(45,66,73);stroke-width:1px;"/>
            </g>
            <g transform="matrix(1,0,0,1,-30.5,-12.4526)">
                <path d="M1302.45,205.65L1371,251.35L1416.7,251.35L1439.55,159.95L1462.4,68.55L1439.55,91.4L1393.85,114.25L1325.3,137.1L1302.45,159.95L1302.45,205.65Z" style="fill:rgb(45,66,73);stroke:rgb(45,66,73);stroke-width:1px;"/>
            </g>
            <g transform="matrix(-1,0,0,1,2254.5,-12.4526)">
                <path d="M1302.45,205.65L1371,251.35L1416.7,251.35L1439.55,159.95L1462.4,68.55L1439.55,91.4L1393.85,114.25L1325.3,137.1L1302.45,159.95L1302.45,205.65Z" style="fill:rgb(45,66,73);stroke:rgb(45,66,73);stroke-width:1px;"/>
            </g>
        </g>
        <g id="Layer12">
            <g transform="matrix(1,0,0,1,-30.5,-12.4526)">
                <path d="M594.1,1622.35L594.1,1508.1L616.95,1485.25L639.8,1485.25L685.5,1530.95L708.35,1622.35L594.1,1622.35Z" style="fill:rgb(31,29,16);stroke:rgb(31,29,16);stroke-width:1px;"/>
            </g>
            <g transform="matrix(-1,0,0,1,2254.5,-12.4526)">
                <path d="M594.1,1622.35L594.1,1508.1L616.95,1485.25L639.8,1485.25L685.5,1530.95L708.35,1622.35L594.1,1622.35Z" style="fill:rgb(31,29,16);stroke:rgb(31,29,16);stroke-width:1px;"/>
            </g>
            <g transform="matrix(1,0,0,1,-30.5,-12.4526)">
                <path d="M457,1622.35L457,1508.1L479.85,1485.25L502.7,1485.25L525.55,1530.95L548.4,1622.35L457,1622.35Z" style="fill:rgb(31,29,16);stroke:rgb(31,29,16);stroke-width:1px;"/>
            </g>
            <g transform="matrix(-1,0,0,1,2254.5,-12.4526)">
                <path d="M457,1622.35L457,1508.1L479.85,1485.25L502.7,1485.25L525.55,1530.95L548.4,1622.35L457,1622.35Z" style="fill:rgb(31,29,16);stroke:rgb(31,29,16);stroke-width:1px;"/>
            </g>
            <g transform="matrix(1,0,0,1,-30.5,-12.4526)">
                <path d="M365.6,1622.35L365.6,1508.1L388.45,1485.25L411.3,1485.25L434.15,1622.35L365.6,1622.35Z" style="fill:rgb(31,29,16);stroke:rgb(31,29,16);stroke-width:1px;"/>
            </g>
            <g transform="matrix(-1,0,0,1,2254.5,-12.4526)">
                <path d="M365.6,1622.35L365.6,1508.1L388.45,1485.25L411.3,1485.25L434.15,1622.35L365.6,1622.35Z" style="fill:rgb(31,29,16);stroke:rgb(31,29,16);stroke-width:1px;"/>
            </g>
        </g>
        <g id="Layer10">
            <g transform="matrix(1,0,0,1,-30.5,-12.4526)">
                <path d="M776.9,891.15L799.75,868.3L845.45,845.45L891.15,936.85L959.7,1051.1L1028.25,1119.65L868.3,1096.8L799.75,1051.1L754.05,936.85L765.458,913.967L776.9,891.15Z" style="fill:rgb(176,142,53);stroke:rgb(176,142,53);stroke-width:1px;"/>
            </g>
            <g transform="matrix(-1,0,0,1,2254.5,-12.4526)">
                <path d="M776.9,891.15L799.75,868.3L845.45,845.45L891.15,936.85L959.7,1051.1L1028.25,1119.65L868.3,1096.8L799.75,1051.1L754.05,936.85L765.458,913.967L776.9,891.15Z" style="fill:rgb(176,142,53);stroke:rgb(176,142,53);stroke-width:1px;"/>
            </g>
            <g transform="matrix(1,0,0,1,-30.5,-12.4526)">
                <path d="M1051.1,1553.8L1233.9,1553.8L1302.45,1462.4L982.55,1462.4" style="fill:rgb(176,142,53);stroke:rgb(176,142,53);stroke-width:1px;"/>
            </g>
        </g>
        <g id="Layer8">
            <g transform="matrix(1,0,0,1,-30.5,-12.4526)">
                <path d="M1096.8,1439.55L982.55,1485.25L914,1530.95L822.6,1622.35L776.9,1622.35L685.5,1530.95L594.1,1348.15L548.4,1211.05L571.25,708.35L616.95,525.55L685.5,754.05L822.6,1028.25L868.3,1073.95L1096.8,1119.65L1188.2,1119.65L1416.7,1073.95L1462.4,1028.25L1508.1,936.85L1599.5,754.05L1668.05,525.55L1713.75,708.35L1736.6,1211.05L1690.9,1348.15L1599.5,1530.95L1508.1,1622.35L1462.4,1622.35L1371,1530.95L1302.45,1485.25L1188.2,1439.55L1096.8,1439.55Z" style="fill:rgb(208,192,79);stroke:rgb(208,192,79);stroke-width:1px;"/>
            </g>
            <g transform="matrix(1,0,0,1,-30.5,-12.4526)">
                <path d="M1096.8,479.85L1028.25,434.15L982.55,365.6L959.7,502.7L959.7,525.55L1005.4,571.25L1051.1,571.25L1096.8,525.55L1096.8,479.85Z" style="fill:rgb(208,192,79);stroke:rgb(208,192,79);stroke-width:1px;"/>
            </g>
            <g transform="matrix(-1,0,0,1,2254.5,-12.4526)">
                <path d="M1096.8,479.85L1028.25,434.15L982.55,365.6L959.7,502.7L959.7,525.55L1005.4,571.25L1051.1,571.25L1096.8,525.55L1096.8,479.85Z" style="fill:rgb(208,192,79);stroke:rgb(208,192,79);stroke-width:1px;"/>
            </g>
            <g transform="matrix(1,0,0,1,-30.5,-12.4526)">
                <path d="M1073.95,662.65L1051.1,685.5L1051.1,708.35L1096.8,754.05L1096.8,708.35L1073.95,662.65Z" style="fill:rgb(208,192,79);stroke:rgb(208,192,79);stroke-width:1px;"/>
            </g>
            <g transform="matrix(-1,0,0,1,2254.5,-12.4526)">
                <path d="M1073.95,662.65L1051.1,685.5L1051.1,708.35L1096.8,754.05L1096.8,708.35L1073.95,662.65Z" style="fill:rgb(208,192,79);stroke:rgb(208,192,79);stroke-width:1px;"/>
            </g>
        </g>
        <g id="Layer9">
            <g transform="matrix(1,0,0,1,-7.65,-12.4526)">
                <path d="M594.1,1233.9L662.65,1165.35L731.2,1233.9L731.2,1256.75L594.1,1256.75L594.1,1233.9Z" style="fill:rgb(176,142,53);stroke:rgb(176,142,53);stroke-width:1px;"/>
            </g>
            <g transform="matrix(-1,0,0,1,2231.65,-12.4526)">
                <path d="M594.1,1233.9L662.65,1165.35L731.2,1233.9L731.2,1256.75L594.1,1256.75L594.1,1233.9Z" style="fill:rgb(176,142,53);stroke:rgb(176,142,53);stroke-width:1px;"/>
            </g>
            <g transform="matrix(1,0,0,1,-30.5,-195.253)">
                <path d="M594.1,1233.9L662.65,1165.35L731.2,1233.9L731.2,1256.75L594.1,1256.75L594.1,1233.9Z" style="fill:rgb(176,142,53);stroke:rgb(176,142,53);stroke-width:1px;"/>
            </g>
            <g transform="matrix(-1,0,0,1,2254.5,-195.253)">
                <path d="M594.1,1233.9L662.65,1165.35L731.2,1233.9L731.2,1256.75L594.1,1256.75L594.1,1233.9Z" style="fill:rgb(176,142,53);stroke:rgb(176,142,53);stroke-width:1px;"/>
            </g>
            <g transform="matrix(1,0,0,1,-53.35,-378.053)">
                <path d="M594.1,1233.9L662.65,1165.35L731.2,1233.9L731.2,1256.75L594.1,1256.75L594.1,1233.9Z" style="fill:rgb(176,142,53);stroke:rgb(176,142,53);stroke-width:1px;"/>
            </g>
            <g transform="matrix(-1,0,0,1,2277.35,-378.053)">
                <path d="M594.1,1233.9L662.65,1165.35L731.2,1233.9L731.2,1256.75L594.1,1256.75L594.1,1233.9Z" style="fill:rgb(176,142,53);stroke:rgb(176,142,53);stroke-width:1px;"/>
            </g>
        </g>
    </g>
</svg>
