<?xml version="1.0" encoding="UTF-8" standalone="no"?>
<!DOCTYPE svg PUBLIC "-//W3C//DTD SVG 1.1//EN" "http://www.w3.org/Graphics/SVG/1.1/DTD/svg11.dtd">
<svg width="100%" height="100%" viewBox="0 0 4634 3475" version="1.1" xmlns="http://www.w3.org/2000/svg" xmlns:xlink="http://www.w3.org/1999/xlink" xml:space="preserve" xmlns:serif="http://www.serif.com/" style="fill-rule:evenodd;clip-rule:evenodd;stroke-linecap:round;stroke-linejoin:round;stroke-miterlimit:1.5;">
    <g transform="matrix(2.08333,0,0,2.08333,0,0)">
        <g id="Layer15">
            <g transform="matrix(1,0,0,1,-30.5,-34.325)">
                <path d="M434.15,319.9L708.35,319.9L708.35,342.75L685.5,388.45L685.5,411.3L662.65,388.45L662.65,342.75L616.95,342.75L594.1,388.45L594.1,411.3L571.25,388.45L571.25,342.75L525.55,342.75L502.7,388.45L502.7,411.3L479.85,388.45L479.85,342.75L434.15,342.75L411.3,388.45L411.3,411.3L388.45,388.45L388.45,342.75L388.45,319.9L434.15,319.9Z" style="fill:rgb(212,223,194);stroke:rgb(212,223,194);stroke-width:1px;"/>
            </g>
            <g transform="matrix(1,0,0,1,-30.5,-34.325)">
                <path d="M457,616.95L502.7,616.95L502.7,571.25L525.55,548.4L525.55,571.25L548.4,616.95L594.1,616.95L594.1,571.25L616.95,548.4L616.95,571.25L639.8,616.95L685.5,616.95L685.5,571.25L708.35,548.4L708.35,571.25L731.2,616.95L731.2,639.8L411.3,639.8L411.3,571.25L434.15,548.4L434.15,571.25L457,616.95Z" style="fill:rgb(212,223,194);stroke:rgb(212,223,194);stroke-width:1px;"/>
            </g>
        </g>
        <g id="Layer12">
            <g transform="matrix(1,0,0,1,-30.5,-34.325)">
                <path d="M959.7,365.6L959.7,662.65L914,708.35L434.15,708.35L411.3,685.5L411.3,616.95L685.5,616.95L731.2,571.25L731.2,411.3L685.5,342.75L959.7,365.6Z" style="fill:rgb(173,162,143);stroke:rgb(173,162,143);stroke-width:1px;"/>
            </g>
            <g transform="matrix(1,0,0,1,-30.5,-34.325)">
                <path d="M1005.4,502.7L1005.4,662.65L1051.1,708.35L1051.1,754.05L914,891.15L868.3,982.55L868.3,1119.65L891.15,1165.35L959.7,1211.05L1233.9,1211.05L1233.9,1073.95L1142.5,982.55L1142.5,891.15L1211.05,685.5L1188.2,502.7L1005.4,502.7Z" style="fill:rgb(173,162,143);stroke:rgb(173,162,143);stroke-width:1px;"/>
            </g>
            <g transform="matrix(1,0,0,1,-30.5,-34.325)">
                <path d="M571.25,1096.8L822.6,1096.8L822.6,1188.2L799.75,1211.05L685.5,1211.05L594.1,1302.45L571.25,1302.45L571.25,1096.8Z" style="fill:rgb(173,162,143);stroke:rgb(173,162,143);stroke-width:1px;"/>
            </g>
            <g transform="matrix(1,0,0,1,-30.5,-34.325)">
                <path d="M1302.45,1211.05L1279.6,1188.2L1279.6,1096.8L1576.65,1096.8L1576.65,1211.05L1302.45,1211.05Z" style="fill:rgb(173,162,143);stroke:rgb(173,162,143);stroke-width:1px;"/>
            </g>
        </g>
        <g id="Layer8">
            <g transform="matrix(1,0,0,1,-30.5,-34.325)">
                <path d="M822.6,1119.65L822.6,1005.4L799.75,982.55L502.7,982.55L457,1028.25L411.3,1119.65L411.3,1439.55L594.1,1439.55L594.1,1165.35L639.8,1119.65L822.6,1119.65Z" style="fill:rgb(28,146,165);stroke:rgb(28,146,165);stroke-width:1px;"/>
            </g>
            <g transform="matrix(1,0,0,1,-30.5,-34.325)">
                <path d="M868.3,1439.55L868.3,1256.75L708.35,1256.75L685.5,1279.6L685.5,1416.7L708.35,1439.55L731.2,1439.55L822.6,1462.4L868.3,1439.55Z" style="fill:rgb(28,146,165);stroke:rgb(28,146,165);stroke-width:1px;"/>
            </g>
            <g transform="matrix(1,0,0,1,-30.5,-34.325)">
                <path d="M1371,1439.55L1485.25,1439.55L1508.1,1416.7L1508.1,1279.6L1485.25,1256.75L1348.15,1256.75L1325.3,1279.6L1325.3,1393.85L1371,1439.55Z" style="fill:rgb(28,146,165);stroke:rgb(28,146,165);stroke-width:1px;"/>
            </g>
            <g transform="matrix(1,0,0,1,-30.5,-34.325)">
                <path d="M1553.8,1462.4L1553.8,1165.35L1508.1,1119.65L1279.6,1119.65L1279.6,845.45L1462.4,822.6L1508.1,982.55L1645.2,982.55L1690.9,1028.25L1736.6,1119.65L1736.6,1462.4L1553.8,1462.4Z" style="fill:rgb(28,146,165);stroke:rgb(28,146,165);stroke-width:1px;"/>
            </g>
            <g transform="matrix(1,0,0,1,-30.5,-34.325)">
                <rect x="1782.3" y="639.8" width="137.1" height="548.4" style="fill:rgb(28,146,165);stroke:rgb(28,146,165);stroke-width:1px;"/>
            </g>
            <g transform="matrix(1,0,0,1,-30.5,-34.325)">
                <path d="M1325.3,708.35L1188.2,845.45L1188.2,525.55L1005.4,525.55L1005.4,434.15L1279.6,434.15L1325.3,479.85L1325.3,708.35Z" style="fill:rgb(28,146,165);stroke:rgb(28,146,165);stroke-width:1px;"/>
            </g>
            <g transform="matrix(1,0,0,1,-30.5,-34.325)">
                <path d="M1028.25,388.45L1073.95,388.45L1096.8,365.6L1096.8,342.75L1005.4,251.35L1005.4,159.95L1142.5,159.95L1142.5,114.25L731.2,114.25L685.5,159.95L594.1,159.95L548.4,114.25L411.3,114.25L365.6,159.95L365.6,319.9L388.45,342.75L708.35,342.75L754.05,365.6L1028.25,388.45Z" style="fill:rgb(28,146,165);stroke:rgb(28,146,165);stroke-width:1px;"/>
            </g>
            <g transform="matrix(1,0,0,1,-30.5,-34.325)">
                <path d="M1690.9,525.55L1736.6,571.25L1782.3,571.25L1828,525.55L1873.7,479.85L1873.7,434.15L1828,388.45L1736.6,434.15L1690.9,525.55Z" style="fill:rgb(28,146,165);stroke:rgb(28,146,165);stroke-width:1px;"/>
            </g>
            <g transform="matrix(1,0,0,1,-30.5,-34.325)">
                <path d="M1919.4,365.6L1919.4,434.15L1896.55,434.15L1873.7,411.3L1873.7,365.6L1919.4,365.6Z" style="fill:rgb(28,146,165);stroke:rgb(28,146,165);stroke-width:1px;"/>
            </g>
            <g transform="matrix(1,0,0,1,-30.5,-34.325)">
                <path d="M1736.6,297.05L1736.6,251.35L1690.9,205.65L1599.5,251.35L1553.8,342.75L1599.5,388.45L1645.2,388.45L1690.9,342.75L1736.6,297.05Z" style="fill:rgb(28,146,165);stroke:rgb(28,146,165);stroke-width:1px;"/>
            </g>
            <g transform="matrix(1,0,0,1,-30.5,-34.325)">
                <path d="M1782.3,182.8L1782.3,251.35L1759.45,251.35L1736.6,228.5L1736.6,182.8L1782.3,182.8Z" style="fill:rgb(28,146,165);stroke:rgb(28,146,165);stroke-width:1px;"/>
            </g>
            <g transform="matrix(1,0,0,1,-30.5,-34.325)">
                <path d="M1553.8,114.25L1416.7,114.25L1416.7,251.35L1462.4,251.35L1508.1,205.65L1553.8,159.95L1553.8,114.25Z" style="fill:rgb(28,146,165);stroke:rgb(28,146,165);stroke-width:1px;"/>
            </g>
        </g>
        <g transform="matrix(1,0,0,1,-30.5,-34.325)">
            <g id="Layer14">
                <path d="M411.3,525.55L418.94,454.437L457.587,427.037L526.796,435.994L556.831,477.479L591.202,495.658L622.675,480.377L641.816,458.038L674.505,448.932L704.855,479.029L731.2,479.85L731.2,525.55L693.434,527.242L667.073,502.416L648.855,518.077L604.375,540.304L582.614,550.542L564.638,544.2L548.4,525.55L526.533,498.556L510.077,466.94L460.952,465.887L411.3,525.55Z" style="fill:rgb(189,64,61);stroke:rgb(189,64,61);stroke-width:1px;"/>
            </g>
        </g>
        <g id="Layer13">
            <g transform="matrix(1,0,0,1,-30.5,-34.325)">
                <path d="M868.3,388.45L868.3,525.55L776.9,571.25L731.2,571.25L731.2,479.85L776.9,434.15L776.9,388.45L868.3,388.45Z" style="fill:rgb(149,108,95);stroke:rgb(149,108,95);stroke-width:1px;"/>
            </g>
            <g transform="matrix(1,0,0,1,-30.5,-34.325)">
                <path d="M845.45,571.25L914,571.25L914,662.65L845.45,662.65L822.6,639.8L822.6,594.1L845.45,571.25Z" style="fill:rgb(149,108,95);stroke:rgb(149,108,95);stroke-width:1px;"/>
            </g>
            <g transform="matrix(1,0,0,1,-53.35,-34.325)">
                <path d="M1279.6,1256.75L1325.3,1393.85L1325.3,1416.7L1302.45,1439.55L1188.2,1439.55L1142.5,1393.85L1051.1,1348.15L1051.1,1279.6L1073.95,1256.75L1279.6,1256.75Z" style="fill:rgb(149,108,95);stroke:rgb(149,108,95);stroke-width:1px;"/>
            </g>
            <g transform="matrix(1,0,0,1,-30.5,-34.325)">
                <path d="M982.55,182.8L1051.1,251.35L1096.8,251.35L1119.65,159.95L982.55,159.95L982.55,182.8Z" style="fill:rgb(149,108,95);stroke:rgb(149,108,95);stroke-width:1px;"/>
            </g>
        </g>
        <g id="Layer11">
            <g transform="matrix(1,0,0,1,-30.5,-34.325)">
                <path d="M1096.8,342.75L1096.8,297.05L1051.1,251.35L1005.4,251.35L959.7,205.65L914,205.65L776.9,342.75L731.2,342.75L685.5,297.05L434.15,297.05L411.3,342.75L685.5,342.75L731.2,388.45L1051.1,388.45L1096.8,342.75Z" style="fill:rgb(206,146,14);stroke:rgb(206,146,14);stroke-width:1px;"/>
            </g>
            <g transform="matrix(1,0,0,1,-30.5,-34.325)">
                <path d="M457,936.85L457,799.75L502.7,799.75L594.1,891.15L594.1,936.85L457,936.85Z" style="fill:rgb(206,146,14);stroke:rgb(206,146,14);stroke-width:1px;"/>
            </g>
            <g transform="matrix(1,0,0,1,-30.5,-34.325)">
                <path d="M639.8,914L639.8,754.05L685.5,754.05L822.6,891.15L822.6,936.85L662.65,936.85L639.8,914Z" style="fill:rgb(206,146,14);stroke:rgb(206,146,14);stroke-width:1px;"/>
            </g>
            <g transform="matrix(1,0,0,1,-30.5,-34.325)">
                <path d="M1553.8,936.85L1553.8,891.15L1645.2,799.75L1690.9,799.75L1690.9,914L1668.05,936.85L1553.8,936.85Z" style="fill:rgb(206,146,14);stroke:rgb(206,146,14);stroke-width:1px;"/>
            </g>
            <g transform="matrix(1,0,0,1,-30.5,-34.325)">
                <path d="M525.55,1119.65L548.4,1096.8L548.4,1051.1L525.55,1028.25L457,1028.25L411.3,1073.95L411.3,1119.65L525.55,1119.65Z" style="fill:rgb(206,146,14);stroke:rgb(206,146,14);stroke-width:1px;"/>
            </g>
            <g transform="matrix(1,0,0,1,-30.5,-34.325)">
                <path d="M525.55,1211.05L411.3,1211.05L411.3,1302.45L525.55,1302.45L548.4,1279.6L548.4,1233.9L525.55,1211.05Z" style="fill:rgb(206,146,14);stroke:rgb(206,146,14);stroke-width:1px;"/>
            </g>
            <g transform="matrix(1,0,0,1,-30.5,-34.325)">
                <path d="M548.4,1348.15L457,1393.85L411.3,1439.55L411.3,1599.5L434.15,1622.35L571.25,1622.35L594.1,1599.5L594.1,1348.15L548.4,1348.15Z" style="fill:rgb(206,146,14);stroke:rgb(206,146,14);stroke-width:1px;"/>
            </g>
            <g transform="matrix(1,0,0,1,-30.5,-34.325)">
                <path d="M1622.35,1028.25L1690.9,1028.25L1736.6,1073.95L1736.6,1119.65L1622.35,1119.65L1599.5,1096.8L1599.5,1051.1L1622.35,1028.25Z" style="fill:rgb(206,146,14);stroke:rgb(206,146,14);stroke-width:1px;"/>
            </g>
            <g transform="matrix(1,0,0,1,-30.5,-34.325)">
                <path d="M1622.35,1302.45L1599.5,1279.6L1599.5,1233.9L1622.35,1211.05L1736.6,1211.05L1736.6,1302.45L1622.35,1302.45Z" style="fill:rgb(206,146,14);stroke:rgb(206,146,14);stroke-width:1px;"/>
            </g>
            <g transform="matrix(1,0,0,1,-30.5,-34.325)">
                <path d="M1736.6,1348.15L1690.9,1348.15L1599.5,1393.85L1553.8,1439.55L1508.1,1485.25L1462.4,1485.25L1371,1530.95L1371,1599.5L1393.85,1622.35L1690.9,1622.35L1736.6,1576.65L1736.6,1348.15Z" style="fill:rgb(206,146,14);stroke:rgb(206,146,14);stroke-width:1px;"/>
            </g>
            <g transform="matrix(1,0,0,1,-30.5,-34.325)">
                <path d="M1325.3,1348.15L1325.3,1302.45L1439.55,1302.45L1462.4,1279.6L1462.4,1256.75L1485.25,1256.75L1508.1,1279.6L1508.1,1348.15L1325.3,1348.15Z" style="fill:rgb(206,146,14);stroke:rgb(206,146,14);stroke-width:1px;"/>
            </g>
            <g transform="matrix(1,0,0,1,-30.5,-34.325)">
                <path d="M1096.8,1576.65L1096.8,1530.95L776.9,1530.95L731.2,1576.65L731.2,1599.5L754.05,1622.35L1051.1,1622.35L1096.8,1576.65Z" style="fill:rgb(206,146,14);stroke:rgb(206,146,14);stroke-width:1px;"/>
            </g>
            <g transform="matrix(1,0,0,1,-30.5,-34.325)">
                <path d="M1096.8,434.15L1096.8,571.25L1142.5,616.95L1325.3,616.95L1325.3,525.55L1211.05,525.55L1188.2,502.7L1188.2,434.15L1096.8,434.15Z" style="fill:rgb(206,146,14);stroke:rgb(206,146,14);stroke-width:1px;"/>
            </g>
            <g transform="matrix(1,0,0,-1,-30.5,1290.98)">
                <path d="M1142.5,434.15L1142.5,571.25L1188.2,616.95L1325.3,616.95L1233.9,525.55L1211.05,525.55L1188.2,502.7L1188.2,479.85L1142.5,434.15Z" style="fill:rgb(206,146,14);stroke:rgb(206,146,14);stroke-width:1px;"/>
            </g>
            <g transform="matrix(1,0,0,1,-30.5,-34.325)">
                <path d="M1142.5,251.35L1233.9,159.95L1233.9,114.25L1142.5,114.25L1096.8,205.65L1096.8,251.35L1142.5,251.35Z" style="fill:rgb(206,146,14);stroke:rgb(206,146,14);stroke-width:1px;"/>
            </g>
            <g transform="matrix(1,0,0,1,-30.5,-34.325)">
                <path d="M1416.7,708.35L1233.9,891.15L1233.9,982.55L1279.6,1028.25L1393.85,1028.25L1416.7,1005.4L1416.7,914L1393.85,891.15L1348.15,891.15L1325.3,914L1325.3,936.85L1348.15,959.7L1348.15,936.85L1371,959.7L1348.15,982.55L1302.45,982.55L1279.6,959.7L1279.6,891.15L1325.3,845.45L1416.7,845.45L1462.4,891.15L1462.4,982.55L1508.1,982.55L1508.1,891.15L1462.4,708.35L1416.7,708.35Z" style="fill:rgb(206,146,14);stroke:rgb(206,146,14);stroke-width:1px;"/>
            </g>
            <g transform="matrix(1,0,0,1,-30.5,-34.325)">
                <path d="M1782.3,1165.35L1782.3,1348.15L1828,1348.15L1919.4,1256.75L1919.4,1165.35L1782.3,1165.35Z" style="fill:rgb(206,146,14);stroke:rgb(206,146,14);stroke-width:1px;"/>
            </g>
            <g transform="matrix(1,0,0,1,-30.5,-34.325)">
                <rect x="1782.3" y="982.55" width="137.1" height="91.4" style="fill:rgb(206,146,14);stroke:rgb(206,146,14);stroke-width:1px;"/>
            </g>
            <g transform="matrix(1,0,0,1,-30.5,-34.325)">
                <rect x="1782.3" y="799.75" width="137.1" height="91.4" style="fill:rgb(206,146,14);stroke:rgb(206,146,14);stroke-width:1px;"/>
            </g>
            <g transform="matrix(1,0,0,1,-30.5,-34.325)">
                <path d="M1828,708.35L1782.3,662.65L1782.3,616.95L1873.7,525.55L1919.4,525.55L1919.4,708.35L1828,708.35Z" style="fill:rgb(206,146,14);stroke:rgb(206,146,14);stroke-width:1px;"/>
            </g>
            <g transform="matrix(1,0,0,1,-30.5,-34.325)">
                <path d="M1325.3,205.65L1325.3,159.95L1371,114.25L1462.4,114.25L1462.4,159.95L1416.7,251.35L1371,251.35L1325.3,205.65Z" style="fill:rgb(206,146,14);stroke:rgb(206,146,14);stroke-width:1px;"/>
            </g>
            <g transform="matrix(1,0,0,1,-30.5,-34.325)">
                <path d="M1508.1,297.05L1508.1,251.35L1553.8,205.65L1599.5,159.95L1645.2,159.95L1690.9,205.65L1690.9,251.35L1645.2,297.05L1599.5,342.75L1553.8,342.75L1508.1,297.05Z" style="fill:rgb(206,146,14);stroke:rgb(206,146,14);stroke-width:1px;"/>
            </g>
            <g transform="matrix(1,0,0,1,-30.5,-34.325)">
                <path d="M1713.75,159.95L1736.6,159.95L1736.6,137.1L1759.45,114.25L1782.3,114.25L1782.3,205.65L1736.6,205.65L1713.75,205.65L1690.9,182.8L1713.75,159.95Z" style="fill:rgb(206,146,14);stroke:rgb(206,146,14);stroke-width:1px;"/>
            </g>
            <g transform="matrix(1,0,0,1,-30.5,-34.325)">
                <path d="M1919.4,297.05L1896.55,297.05L1873.7,319.9L1873.7,342.75L1850.85,342.75L1828,365.6L1850.85,388.45L1919.4,388.45L1919.4,297.05Z" style="fill:rgb(206,146,14);stroke:rgb(206,146,14);stroke-width:1px;"/>
            </g>
            <g transform="matrix(1,0,0,1,-30.5,-34.325)">
                <path d="M1736.6,525.55L1690.9,525.55L1645.2,479.85L1645.2,434.15L1690.9,388.45L1736.6,342.75L1782.3,342.75L1828,388.45L1828,434.15L1782.3,479.85L1736.6,525.55Z" style="fill:rgb(206,146,14);stroke:rgb(206,146,14);stroke-width:1px;"/>
            </g>
            <g transform="matrix(1,0,0,1,-30.5,-34.325)">
                <path d="M822.6,1256.75L822.6,1279.6L799.75,1302.45L685.5,1302.45L685.5,1348.15L845.45,1348.15L868.3,1371L868.3,1416.7L845.45,1439.55L708.35,1439.55L754.05,1485.25L1051.1,1485.25L1096.8,1439.55L1096.8,1416.7L1073.95,1393.85L1051.1,1393.85L1005.4,1348.15L1005.4,1279.6L982.55,1256.75L822.6,1256.75Z" style="fill:rgb(206,146,14);stroke:rgb(206,146,14);stroke-width:1px;"/>
            </g>
        </g>
        <g id="Layer16">
            <g transform="matrix(1,0,0,1,-30.5,-34.325)">
                <path d="M1462.4,1485.25L1371,1485.25L1325.3,1530.95L1325.3,1622.35L1348.15,1576.65L1371,1553.8L1416.7,1530.95L1439.55,1530.95L1462.4,1508.1L1462.4,1485.25Z" style="fill:rgb(50,31,6);stroke:rgb(50,31,6);stroke-width:1px;"/>
            </g>
            <g transform="matrix(1,0,0,1,-167.6,-1405.33)">
                <path d="M1508.1,1485.25L1462.4,1530.95L1439.55,1530.95L1393.85,1508.1L1416.7,1530.95L1348.15,1553.8L1416.7,1576.65L1393.85,1599.5L1439.55,1576.65L1462.4,1576.65L1508.1,1622.35L1485.25,1576.65L1485.25,1530.95L1508.1,1485.25Z" style="fill:rgb(50,31,6);stroke:rgb(50,31,6);stroke-width:1px;"/>
            </g>
            <g transform="matrix(0.666667,0,0,0.667031,-205.683,505.917)">
                <path d="M1462.4,1485.25L1371,1485.25L1325.3,1530.95L1325.3,1622.35L1348.15,1576.65L1371,1553.8L1416.7,1530.95L1439.55,1530.95L1462.4,1508.1L1462.4,1485.25Z" style="fill:rgb(50,31,6);stroke:rgb(50,31,6);stroke-width:1.5px;"/>
            </g>
            <g transform="matrix(0.666667,0,0,0.667031,-91.4333,505.917)">
                <path d="M1462.4,1485.25L1371,1485.25L1325.3,1530.95L1325.3,1622.35L1348.15,1576.65L1371,1553.8L1416.7,1530.95L1439.55,1530.95L1462.4,1508.1L1462.4,1485.25Z" style="fill:rgb(50,31,6);stroke:rgb(50,31,6);stroke-width:1.5px;"/>
            </g>
            <g transform="matrix(0.666667,0,0,1,-525.583,-34.325)">
                <path d="M1462.4,1485.25L1371,1485.25L1325.3,1530.95L1325.3,1622.35L1348.15,1576.65L1371,1553.8L1416.7,1530.95L1439.55,1530.95L1462.4,1508.1L1462.4,1485.25Z" style="fill:rgb(50,31,6);stroke:rgb(50,31,6);stroke-width:1.18px;"/>
            </g>
            <g transform="matrix(0.666667,0,0,1,-411.333,-34.325)">
                <path d="M1462.4,1485.25L1371,1485.25L1325.3,1530.95L1325.3,1622.35L1348.15,1576.65L1371,1553.8L1416.7,1530.95L1439.55,1530.95L1462.4,1508.1L1462.4,1485.25Z" style="fill:rgb(50,31,6);stroke:rgb(50,31,6);stroke-width:1.18px;"/>
            </g>
            <g transform="matrix(1,0,0,1,106.6,-34.325)">
                <path d="M1462.4,1485.25L1371,1485.25L1325.3,1530.95L1325.3,1622.35L1348.15,1576.65L1371,1553.8L1416.7,1530.95L1439.55,1530.95L1462.4,1508.1L1462.4,1485.25Z" style="fill:rgb(50,31,6);stroke:rgb(50,31,6);stroke-width:1px;"/>
            </g>
        </g>
        <g transform="matrix(1,0,0,1,-30.5,-34.325)">
            <g id="Layer10">
                <path d="M411.3,228.5L457,205.65L479.85,159.95L525.55,159.95L502.7,182.8L502.7,205.65L685.5,205.65L731.2,159.95L891.15,159.95L914,114.25L959.7,114.25L936.85,137.1L936.85,159.95L1005.4,159.95L1005.4,205.65L868.3,205.65L822.6,251.35L434.15,251.35L411.3,274.2L411.3,228.5Z" style="fill:rgb(1,48,55);stroke:rgb(1,48,55);stroke-width:1px;"/>
            </g>
        </g>
        <g transform="matrix(1,0,0,1,-30.5,-34.325)">
            <g id="Layer9">
                <path d="M708.35,251.35L731.2,221.151L754.05,205.65L776.9,205.65L776.9,228.5L754.05,251.35L708.35,251.35Z" style="fill:rgb(182,199,134);stroke:rgb(182,199,134);stroke-width:1px;"/>
            </g>
        </g>
    </g>
</svg>
