<?xml version="1.0" encoding="UTF-8" standalone="no"?>
<!DOCTYPE svg PUBLIC "-//W3C//DTD SVG 1.1//EN" "http://www.w3.org/Graphics/SVG/1.1/DTD/svg11.dtd">
<svg width="100%" height="100%" viewBox="0 0 4634 3475" version="1.1" xmlns="http://www.w3.org/2000/svg" xmlns:xlink="http://www.w3.org/1999/xlink" xml:space="preserve" xmlns:serif="http://www.serif.com/" style="fill-rule:evenodd;clip-rule:evenodd;stroke-linecap:round;stroke-linejoin:round;stroke-miterlimit:1.5;">
    <g transform="matrix(2.08333,0,0,2.08333,0,0)">
        <g id="Layer6" transform="matrix(1,0,0,1,137,-4.5)">
            <path d="M448.5,312L409.5,331.5L312,429L273,429L253.5,409.5L253.5,390L292.5,370.5L312,370.5L292.5,351L253.5,351L214.5,370.5L214.5,429L234,468L273,487.5L351,487.5L390,448.5L409.5,448.5L448.5,409.5L448.5,312Z" style="fill:rgb(172,90,87);stroke:rgb(172,90,87);stroke-width:1px;"/>
        </g>
        <g id="Layer3" transform="matrix(1,0,0,1,137,-4.5)">
            <path d="M253.5,565.5L253.5,468L273,468L292.5,487.5L292.5,546L253.5,565.5Z" style="fill:rgb(187,194,148);"/>
            <path d="M331.5,507L331.5,468L351,468L370.5,487.5L370.5,507L331.5,507Z" style="fill:rgb(187,194,148);"/>
            <path d="M409.5,468L409.5,390L429,390L448.5,409.5L448.5,468L409.5,468Z" style="fill:rgb(187,194,148);"/>
            <path d="M214.5,175.5L214.5,312L234,312L253.5,292.5L253.5,175.5L214.5,175.5Z" style="fill:rgb(187,194,148);"/>
            <g transform="matrix(1,0,0,-1,39,741)">
                <path d="M214.5,175.5L214.5,312L234,312L253.5,292.5L253.5,175.5L214.5,175.5Z" style="fill:rgb(187,194,148);"/>
            </g>
            <g transform="matrix(1,0,0,-1,117,721.5)">
                <path d="M214.5,175.5L214.5,312L234,312L253.5,292.5L253.5,175.5L214.5,175.5Z" style="fill:rgb(187,194,148);"/>
            </g>
            <path d="M292.5,214.5L292.5,312L312,312L331.5,292.5L331.5,214.5L292.5,214.5Z" style="fill:rgb(187,194,148);"/>
            <path d="M370.5,214.5L370.5,312L390,312L409.5,292.5L409.5,214.5L370.5,214.5Z" style="fill:rgb(187,194,148);"/>
        </g>
        <g id="Layer2" transform="matrix(1,0,0,1,137,-4.5)">
            <path d="M780,234L877.5,136.5L702,136.5L682.5,156L682.5,175.5L721.5,234" style="fill:rgb(176,141,130);"/>
            <path d="M273,643.5L253.5,624L253.5,565.5L292.5,526.5L331.5,507L370.5,487.5L448.5,448.5L448.5,253.5L838.5,253.5L838.5,448.5L780,468L448.5,643.5L273,643.5Z" style="fill:rgb(176,141,130);"/>
            <path d="M897,448.5L916.5,468L916.5,663L799.5,780L799.5,1170L838.5,1209L1053,1209L1150.5,1111.5L1209,1111.5L1228.5,1092L1287,1092L1345.5,1033.5L1345.5,1014L1228.5,1014L1209,994.5L1150.5,994.5L1014,858L1014,682.5L1053,624L1053,331.5L1014,292.5L819,292.5L819,448.5L897,448.5Z" style="fill:rgb(176,141,130);"/>
            <path d="M1482,1443L1404,1443L1404,1423.5L1404,1033.5L1345.5,975L1189.5,975L1112,897L1423.5,897L1482,936L1482,1443Z" style="fill:rgb(176,141,130);"/>
            <path d="M741,955.5L741,897L546,897L487.5,955.5L487.5,1404L507,1443L526.5,1443L526.5,1053L604.5,975L721.5,975L741,955.5Z" style="fill:rgb(176,141,130);"/>
            <path d="M1092,1404L1072.5,1384.5L1072.5,1306.5L1053,1306.5L955.5,1423.5L955.5,1462.5L702,1482L643.5,1521L585,1579.5L585,1599L1072.5,1599L1092,1579.5L1092,1404Z" style="fill:rgb(176,141,130);"/>
        </g>
        <g id="Layer5" transform="matrix(1,0,0,1,137,-4.5)">
            <path d="M448.5,175.5L526.5,97.5L936,97.5L897,136.5L702,136.5L682.5,156L682.5,175.5L448.5,175.5Z" style="fill:rgb(49,80,88);"/>
        </g>
        <g id="Layer4" transform="matrix(1,0,0,1,137,-4.5)">
            <path d="M448.5,214.5L448.5,448.5L526.5,429L565.5,390L604.5,370.5L604.5,331.5L565.5,292.5L546,292.5L468,214.5L448.5,214.5Z" style="fill:rgb(207,181,104);"/>
            <path d="M546,175.5L526.5,156L526.5,136.5L546,117L565.5,117L585,136.5L585,156L565.5,175.5L546,175.5Z" style="fill:rgb(207,181,104);"/>
        </g>
        <g id="Layer1" transform="matrix(1,0,0,1,137,-4.5)">
            <path d="M214.5,175.5L214.5,78L234,58.5L975,58.5L955.5,97.5L526.5,97.5L448.5,175.5L682.5,175.5L721.5,234L780,234L858,156L877.5,175.5L1092,175.5L1131,214.5L1131,624L1111.5,643.5L1072.5,643.5L1053,624L1053,331.5L1014,292.5L780,292.5L780,390L741,429L663,429L604.5,370.5L604.5,292.5L624,273L702,273L721.5,292.5L721.5,331.5L702,331.5L682.5,312L663,312L643.5,331.5L643.5,351L682.5,390L721.5,390L741,370.5L741,292.5L702,253.5L604.5,253.5L565.5,292.5L546,292.5L468,214.5L253.5,214.5L214.5,175.5Z" style="fill:rgb(62,133,152);stroke:rgb(62,133,152);stroke-width:1px;"/>
            <path d="M1072.5,1306.5L1072.5,1267.5L1053,1248L819,1248L760.5,1189.5L760.5,1072.5L741,1053L682.5,1053L604.5,1092L565.5,1131L565.5,1423.5L585,1443L955.5,1443L955.5,1423.5L1053,1306.5L1072.5,1306.5Z" style="fill:rgb(62,133,152);stroke:rgb(176,141,130);stroke-width:1px;"/>
            <path d="M741,897L741,819L643.5,858L604.5,819L604.5,702L643.5,663L604.5,663L565.5,702L546,838.5L507,838.5L487.5,760.5L409.5,760.5L370.5,799.5L370.5,916.5L468,936L468,975L370.5,994.5L370.5,1072.5L468,1092L468,1131L370.5,1150.5L370.5,1228.5L468,1248L468,1287L370.5,1306.5L370.5,1443L390,1443L468,1365L487.5,1365L487.5,955.5L546,897L741,897Z" style="fill:rgb(62,133,152);stroke:rgb(62,133,152);stroke-width:1px;"/>
            <path d="M1150.5,897L1228.5,819L1228.5,702L1209,682.5L1112,682.5L1092,702L1092,760.5L1111.5,780L1170,780L1189.5,760.5L1189.5,741L1170,721.5L1150.5,721.5L1150.5,760.5L1131,760.5L1112,741L1112,721.5L1131,702L1189.5,702L1209,721.5L1209,799.5L1131,877.5L1092,877.5L1112,897L1150.5,897Z" style="fill:rgb(62,133,152);stroke:rgb(62,133,152);stroke-width:1px;"/>
            <path d="M1345.5,1404L1365,1384.5L1365,1053L1306.5,1111.5L1248,1111.5L1228.5,1131L1170,1131L1131,1170L1111.5,1209L1112,1384.5L1131,1404L1345.5,1404Z" style="fill:rgb(62,133,152);"/>
            <path d="M1248,897L1326,819L1326,643.5L1404,702L1404,741L1560,741L1599,780L1599,1443L1482,1443L1482,936L1423.5,897L1248,897Z" style="fill:rgb(62,133,152);stroke:rgb(62,133,151);stroke-width:1px;"/>
            <path d="M1677,1267.5L1677,117L1696.5,97.5L1716,97.5L1755,136.5L1755,1189.5L1677,1267.5Z" style="fill:rgb(62,133,152);"/>
        </g>
        <g id="Layer8" transform="matrix(1,0,0,1,137,-4.5)">
            <path d="M741,819L741,780L858,663L858,468L838.5,468L624,663L604.5,702C604.5,702 606.241,820.546 604.5,819C602.759,817.454 643.5,858 643.5,858L702,858L741,819Z" style="fill:rgb(181,71,11);stroke:rgb(181,71,11);stroke-width:1px;"/>
            <path d="M565.5,760.5L487.5,760.5L487.5,838.5L507,858L546,858L565.5,838.5L565.5,760.5Z" style="fill:rgb(181,71,11);stroke:rgb(181,71,11);stroke-width:1px;"/>
            <path d="M370.5,916.5L468,916.5L487.5,936L487.5,975L468,994.5L370.5,994.5L370.5,916.5Z" style="fill:rgb(181,71,11);stroke:rgb(181,71,11);stroke-width:1px;"/>
            <path d="M370.5,1072.5L468,1072.5L487.5,1092L487.5,1131L468,1150.5L370.5,1150.5L370.5,1072.5Z" style="fill:rgb(181,71,11);stroke:rgb(181,71,11);stroke-width:1px;"/>
            <path d="M370.5,1228.5L468,1228.5L487.5,1248L487.5,1287L468,1306.5L370.5,1306.5L370.5,1228.5Z" style="fill:rgb(181,71,11);stroke:rgb(181,71,11);stroke-width:1px;"/>
            <path d="M487.5,1365L468,1365L390,1443L370.5,1443L331.5,1482L312,1540.5L312,1599L409.5,1599L526.5,1482L526.5,1443L507,1443L487.5,1404L487.5,1365Z" style="fill:rgb(181,71,11);stroke:rgb(181,71,11);stroke-width:1px;"/>
            <path d="M1092,877.5L1014,799.5L1014,682.5L1053,624L1248,487.5L1306.5,487.5L1326,507L1326,819L1248,897L1150.5,897L1228.5,819L1228.5,702L1209,682.5L1112,682.5L1092,702L1092,760.5L1112,780L1170,780L1189.5,760.5L1189.5,741L1170,721.5L1150.5,721.5L1150.5,760.5L1131,760.5L1112,741L1112,721.5L1131,702L1189.5,702L1209,721.5L1209,799.5L1131,877.5L1092,877.5Z" style="fill:rgb(181,71,11);stroke:rgb(181,71,11);stroke-width:1px;"/>
            <path d="M1267.5,1404L1287,1384.5L1287,1345.5L1267.5,1326L1112,1326L1112,1384.5L1131,1404L1267.5,1404Z" style="fill:rgb(181,71,11);stroke:rgb(181,71,11);stroke-width:1px;"/>
            <path d="M1267.5,1248L1287,1228.5L1287,1189.5L1267.5,1170L1131,1170L1112,1209L1112,1248L1267.5,1248Z" style="fill:rgb(181,71,11);stroke:rgb(181,71,11);stroke-width:1px;"/>
            <path d="M565.5,1404L702,1404L721.5,1384.5L721.5,1345.5L702,1326L565.5,1326L565.5,1404Z" style="fill:rgb(181,71,11);stroke:rgb(181,71,11);stroke-width:1px;"/>
            <path d="M565.5,1248L702,1248L721.5,1228.5L721.5,1189.5L702,1170L565.5,1170L565.5,1248Z" style="fill:rgb(181,71,11);stroke:rgb(181,71,11);stroke-width:1px;"/>
            <path d="M1404,741L1404,838.5L1423.5,858L1462.5,858L1482,838.5L1482,741L1404,741Z" style="fill:rgb(181,71,11);stroke:rgb(181,71,11);stroke-width:1px;"/>
            <path d="M1599,916.5L1501.5,916.5L1482,936L1482,975L1501.5,994.5L1599,994.5L1599,916.5Z" style="fill:rgb(181,71,11);stroke:rgb(181,71,11);stroke-width:1px;"/>
            <path d="M1599,1072.5L1501.5,1072.5L1482,1092L1482,1131L1501.5,1150.5L1599,1150.5L1599,1072.5Z" style="fill:rgb(181,71,11);stroke:rgb(181,71,11);stroke-width:1px;"/>
            <path d="M1599,1228.5L1501.5,1228.5L1482,1248L1482,1287L1501.5,1306.5L1599,1306.5L1599,1228.5Z" style="fill:rgb(181,71,11);stroke:rgb(181,71,11);stroke-width:1px;"/>
            <path d="M1326,1599L1326,1443L1501.5,1443L1755,1189.5L1755,1404L1560,1599L1326,1599Z" style="fill:rgb(181,71,11);stroke:rgb(181,71,11);stroke-width:1px;"/>
            <g transform="matrix(1.16667,0,0,1,-208,0)">
                <path d="M1248,1599L1248,1501.5L1264.71,1443L1365,1443L1365,1482L1348.29,1501.5L1348.29,1521L1331.57,1540.5L1331.57,1599L1248,1599Z" style="fill:rgb(181,71,11);stroke:rgb(181,71,11);stroke-width:0.92px;"/>
            </g>
            <path d="M1696.5,1170L1677,1170L1677,1092L1735.5,1092L1755,1111.5L1755,1150.5L1735.5,1170L1696.5,1170Z" style="fill:rgb(181,71,11);"/>
            <path d="M1677,1014L1677,936L1735.5,936L1755,955.5L1755,994.5L1735.5,1014L1677,1014Z" style="fill:rgb(181,71,11);"/>
            <path d="M1677,858L1677,780L1735.5,780L1755,799.5L1755,838.5L1735.5,858L1677,858Z" style="fill:rgb(181,71,11);"/>
            <path d="M1677,702L1677,624L1735.5,624L1755,643.5L1755,682.5L1735.5,702L1677,702Z" style="fill:rgb(181,71,11);"/>
            <path d="M1677,546L1677,468L1735.5,468L1755,487.5L1755,526.5L1735.5,546L1677,546Z" style="fill:rgb(181,71,11);"/>
            <path d="M1677,390L1677,312L1735.5,312L1755,331.5L1755,370.5L1735.5,390L1677,390Z" style="fill:rgb(181,71,11);"/>
            <path d="M1677,234L1677,156L1735.5,156L1755,175.5L1755,214.5L1735.5,234L1677,234Z" style="fill:rgb(181,71,11);"/>
        </g>
        <g id="Layer7" transform="matrix(1,0,0,1,137,-4.5)">
            <path d="M643.5,1521L507,1521L448.5,1579.5L448.5,1599L585,1599L585,1579.5L643.5,1521Z" style="fill:rgb(133,102,40);stroke:rgb(133,102,40);stroke-width:1px;"/>
            <path d="M370.5,1443L253.5,1443L214.5,1482L195,1579.5L234,1618.5L234,1599L273,1560L312,1540.5L331.5,1482L370.5,1443Z" style="fill:rgb(133,102,40);stroke:rgb(133,102,40);stroke-width:1px;"/>
            <g transform="matrix(1,0,0,1,936,0)">
                <path d="M390,1443L253.5,1443L214.5,1482L195,1579.5L234,1618.5L234,1599L273,1560L312,1540.5L331.5,1482L351,1462.5L390,1443Z" style="fill:rgb(133,102,40);stroke:rgb(133,102,40);stroke-width:1px;"/>
            </g>
            <g transform="matrix(1,0,0,1,1111.5,0)">
                <path d="M390,1443L253.5,1443L214.5,1482L195,1579.5L234,1618.5L234,1599L273,1560L312,1540.5L331.5,1482L351,1462.5L390,1443Z" style="fill:rgb(133,102,40);stroke:rgb(133,102,40);stroke-width:1px;"/>
            </g>
            <path d="M1599,1345.5L1677,1267.5L1677,117L1521,273L1482,273L1365,136.5L1326,136.5L1170,292.5L1170,331.5L1599,760.5L1599,1345.5Z" style="fill:rgb(133,102,40);"/>
        </g>
        <g id="Layer9" transform="matrix(1,0,0,1,137,-4.5)">
            <path d="M1677,331.5L1560,331.5L1560,292.5L1638,214.5L1677,214.5L1677,331.5Z" style="fill:rgb(187,194,148);"/>
            <path d="M1248,331.5L1443,331.5L1443,292.5L1365,214.5L1326,214.5L1248,292.5L1248,331.5Z" style="fill:rgb(187,194,148);"/>
        </g>
    </g>
</svg>
