<?xml version="1.0" encoding="UTF-8" standalone="no"?>
<!DOCTYPE svg PUBLIC "-//W3C//DTD SVG 1.1//EN" "http://www.w3.org/Graphics/SVG/1.1/DTD/svg11.dtd">
<svg width="100%" height="100%" viewBox="0 0 4634 3475" version="1.1" xmlns="http://www.w3.org/2000/svg" xmlns:xlink="http://www.w3.org/1999/xlink" xml:space="preserve" xmlns:serif="http://www.serif.com/" style="fill-rule:evenodd;clip-rule:evenodd;stroke-linecap:round;stroke-linejoin:round;stroke-miterlimit:1.5;">
    <g transform="matrix(2.08333,0,0,2.08333,0,0)">
        <g id="Layer8">
            <g transform="matrix(1,0,0,1,-41.925,-22.875)">
                <path d="M1142.5,936.85L1165.35,936.85L1233.9,1005.4L1279.6,1005.4L1348.15,936.85L1348.15,914L1325.3,891.15L1325.3,365.6L1348.15,365.6L1439.55,251.35L1462.4,251.35L1462.4,411.3L1485.25,434.15L1462.4,1073.95L1279.6,1188.2L1028.25,1188.2L845.45,1073.95L822.6,434.15L845.45,411.3L845.45,251.35L868.3,251.35L959.7,365.6L982.55,365.6L982.55,891.15L959.7,914L959.7,936.85L1028.25,1005.4L1073.95,1005.4L1142.5,936.85Z" style="fill:rgb(158,160,171);stroke:rgb(158,160,171);stroke-width:1px;"/>
            </g>
            <g transform="matrix(1,0,0,1,-41.925,-22.875)">
                <path d="M639.8,914L525.55,1028.25L525.55,1096.8L571.25,1142.5L685.5,1005.4L685.5,914L639.8,914Z" style="fill:rgb(158,160,171);stroke:rgb(158,160,171);stroke-width:1px;"/>
            </g>
            <g transform="matrix(-1,0,0,1,2265.93,-22.875)">
                <path d="M639.8,914L525.55,1028.25L525.55,1096.8L571.25,1142.5L685.5,1005.4L685.5,914L639.8,914Z" style="fill:rgb(158,160,171);stroke:rgb(158,160,171);stroke-width:1px;"/>
            </g>
            <g transform="matrix(1,0,0,1,-41.925,-22.875)">
                <path d="M1393.85,1211.05L1530.95,1005.4L1530.95,639.8L1622.35,639.8L1622.35,1211.05L1553.8,1325.3L1462.4,1416.7L1393.85,1439.55L1302.45,1462.4L1188.2,1485.25L1119.65,1485.25L1005.4,1462.4L914,1439.55L845.45,1416.7L754.05,1325.3L685.5,1211.05L685.5,639.8L776.9,639.8L776.9,1005.4L914,1211.05L1393.85,1211.05Z" style="fill:rgb(158,160,171);stroke:rgb(158,160,171);stroke-width:1px;"/>
            </g>
        </g>
        <g id="Layer10">
            <g transform="matrix(1,0,0,1,-41.925,-22.875)">
                <path d="M1188.2,68.55L1256.75,205.65L1302.45,251.35L1348.15,365.6L1348.15,914L1279.6,982.55L1233.9,982.55L1165.35,914L1152,914L1142.5,914L1073.95,982.55L1028.25,982.55L959.7,914L959.7,365.6L1005.4,251.35L1051.1,205.65L1119.65,68.55L1188.2,68.55Z" style="fill:rgb(96,114,129);stroke:rgb(96,114,129);stroke-width:1px;"/>
            </g>
            <g transform="matrix(1,0,0,1,-41.925,-22.875)">
                <path d="M1279.6,1142.5L1348.15,1096.8L1393.85,1051.1L1439.55,936.85L1462.4,776.9L1462.4,388.45L1759.45,388.45L1759.45,411.3L1553.8,616.95L1553.8,982.55L1530.95,1096.8L1393.85,1233.9L914,1233.9L776.9,1096.8L754.05,982.55L754.05,616.95L548.4,411.3L548.4,388.45L845.45,388.45L845.45,776.9L868.3,936.85L914,1051.1L959.7,1096.8L1028.25,1142.5L1279.6,1142.5Z" style="fill:rgb(96,114,129);stroke:rgb(96,114,129);stroke-width:1px;"/>
            </g>
            <g transform="matrix(1,0,0,1,-41.925,-22.875)">
                <path d="M1188.2,1462.4L1302.45,1439.55L1393.85,1416.7L1462.4,1393.85L1553.8,1302.45L1599.5,1211.05L1599.5,959.7L1622.35,959.7L1622.35,1256.75L1553.8,1416.7L1393.85,1576.65L914,1576.65L754.05,1416.7L685.5,1256.75L685.5,959.7L708.35,959.7L708.35,1211.05L754.05,1302.45L845.45,1393.85L914,1416.7L1005.4,1439.55L1119.65,1462.4L1188.2,1462.4Z" style="fill:rgb(96,114,129);stroke:rgb(96,114,129);stroke-width:1px;"/>
            </g>
            <g transform="matrix(1,0,0,1,-41.925,-22.875)">
                <path d="M616.95,662.65L594.1,708.35L571.25,731.2L411.3,891.15L411.3,1416.7L365.6,1462.4L365.6,1553.8L411.3,1599.5L479.85,1622.35L616.95,1622.35L685.5,1576.65L685.5,1462.4L662.65,1439.55L639.8,1439.55L639.8,1233.9L594.1,1188.2L594.1,982.55L685.5,822.6L685.5,662.65L616.95,662.65Z" style="fill:rgb(96,114,129);stroke:rgb(96,114,129);stroke-width:1px;"/>
            </g>
            <g transform="matrix(-1,0,0,1,2265.93,-22.875)">
                <path d="M616.95,662.65L594.1,708.35L571.25,731.2L411.3,891.15L411.3,1416.7L365.6,1462.4L365.6,1553.8L411.3,1599.5L479.85,1622.35L616.95,1622.35L685.5,1576.65L685.5,1462.4L662.65,1439.55L639.8,1439.55L639.8,1233.9L594.1,1188.2L594.1,982.55L685.5,822.6L685.5,662.65L616.95,662.65Z" style="fill:rgb(96,114,129);stroke:rgb(96,114,129);stroke-width:1px;"/>
            </g>
        </g>
        <g id="Layer9">
            <g transform="matrix(1,0,0,1,-41.925,-22.875)">
                <path d="M479.85,342.75L479.85,114.25L708.35,114.25L708.35,137.1L502.7,342.75L479.85,342.75Z" style="fill:rgb(67,72,77);stroke:rgb(67,72,77);stroke-width:1px;"/>
            </g>
            <g transform="matrix(-1,0,0,1,2265.93,-22.875)">
                <path d="M479.85,342.75L479.85,114.25L708.35,114.25L708.35,137.1L502.7,342.75L479.85,342.75Z" style="fill:rgb(67,72,77);stroke:rgb(67,72,77);stroke-width:1px;"/>
            </g>
            <g transform="matrix(1,0,0,1,-41.925,-22.875)">
                <path d="M754.05,639.8L754.05,502.7L868.3,616.95L868.3,639.8L754.05,639.8Z" style="fill:rgb(67,72,77);stroke:rgb(67,72,77);stroke-width:1px;"/>
            </g>
            <g transform="matrix(-1,0,0,1,2265.93,-22.875)">
                <path d="M754.05,639.8L754.05,502.7L868.3,616.95L868.3,639.8L754.05,639.8Z" style="fill:rgb(67,72,77);stroke:rgb(67,72,77);stroke-width:1px;"/>
            </g>
            <g transform="matrix(1,0,0,1,-41.925,137.075)">
                <path d="M754.05,639.8L754.05,502.7L868.3,616.95L868.3,639.8L754.05,639.8Z" style="fill:rgb(67,72,77);stroke:rgb(67,72,77);stroke-width:1px;"/>
            </g>
            <g transform="matrix(-1,0,0,1,2265.93,137.075)">
                <path d="M754.05,639.8L754.05,502.7L868.3,616.95L868.3,639.8L754.05,639.8Z" style="fill:rgb(67,72,77);stroke:rgb(67,72,77);stroke-width:1px;"/>
            </g>
            <g transform="matrix(1,0,0,1,-41.925,319.875)">
                <path d="M754.05,639.8L754.05,479.85L891.15,616.95L891.15,639.8L754.05,639.8Z" style="fill:rgb(67,72,77);stroke:rgb(67,72,77);stroke-width:1px;"/>
            </g>
            <g transform="matrix(-1,0,0,1,2265.93,319.875)">
                <path d="M754.05,639.8L754.05,479.85L891.15,616.95L891.15,639.8L754.05,639.8Z" style="fill:rgb(67,72,77);stroke:rgb(67,72,77);stroke-width:1px;"/>
            </g>
            <g transform="matrix(1,0,0,1,-41.925,-22.875)">
                <path d="M959.7,708.35L959.7,571.25L1073.95,685.5L1073.95,708.35L959.7,708.35Z" style="fill:rgb(67,72,77);stroke:rgb(67,72,77);stroke-width:1px;"/>
            </g>
            <g transform="matrix(-1,0,0,1,2265.93,-22.875)">
                <path d="M959.7,708.35L959.7,571.25L1073.95,685.5L1073.95,708.35L959.7,708.35Z" style="fill:rgb(67,72,77);stroke:rgb(67,72,77);stroke-width:1px;"/>
            </g>
            <g transform="matrix(1,0,0,1,-41.925,-22.875)">
                <path d="M959.7,342.75L982.55,365.6L1028.25,457L1096.8,525.55L1096.8,548.4L959.7,548.4L959.7,342.75Z" style="fill:rgb(67,72,77);stroke:rgb(67,72,77);stroke-width:1px;"/>
            </g>
            <g transform="matrix(-1,0,0,1,2265.93,-22.875)">
                <path d="M959.7,342.75L982.55,365.6L1028.25,457L1096.8,525.55L1096.8,548.4L959.7,548.4L959.7,342.75Z" style="fill:rgb(67,72,77);stroke:rgb(67,72,77);stroke-width:1px;"/>
            </g>
            <g transform="matrix(1,0,0,1,-41.925,-22.875)">
                <path d="M959.7,731.2L982.55,731.2L1073.95,822.6L1073.95,914L1051.1,936.85L1028.25,914L982.55,891.15L959.7,868.3L959.7,731.2Z" style="fill:rgb(67,72,77);stroke:rgb(67,72,77);stroke-width:1px;"/>
            </g>
            <g transform="matrix(-1,0,0,1,2265.93,-22.875)">
                <path d="M959.7,731.2L982.55,731.2L1073.95,822.6L1073.95,914L1051.1,936.85L1028.25,914L982.55,891.15L959.7,868.3L959.7,731.2Z" style="fill:rgb(67,72,77);stroke:rgb(67,72,77);stroke-width:1px;"/>
            </g>
            <g transform="matrix(1,0,0,1,-41.925,-22.875)">
                <path d="M776.9,1073.95L936.85,1073.95L936.85,1096.8L891.15,1142.5L822.6,1142.5L776.9,1096.8L776.9,1073.95Z" style="fill:rgb(67,72,77);stroke:rgb(67,72,77);stroke-width:1px;"/>
            </g>
            <g transform="matrix(-1,0,0,1,2265.93,-22.875)">
                <path d="M776.9,1073.95L936.85,1073.95L936.85,1096.8L891.15,1142.5L822.6,1142.5L776.9,1096.8L776.9,1073.95Z" style="fill:rgb(67,72,77);stroke:rgb(67,72,77);stroke-width:1px;"/>
            </g>
            <g transform="matrix(1,0,0,1,-41.925,-22.875)">
                <path d="M708.35,639.8L548.4,639.8L571.25,662.65L685.5,754.05L685.5,776.9L594.1,868.3L594.1,891.15L685.5,982.55L708.35,982.55L708.35,639.8Z" style="fill:rgb(67,72,77);stroke:rgb(67,72,77);stroke-width:1px;"/>
            </g>
            <g transform="matrix(-1,0,0,1,2265.93,-22.875)">
                <path d="M708.35,639.8L548.4,639.8L571.25,662.65L685.5,754.05L685.5,776.9L594.1,868.3L594.1,891.15L685.5,982.55L708.35,982.55L708.35,639.8Z" style="fill:rgb(67,72,77);stroke:rgb(67,72,77);stroke-width:1px;"/>
            </g>
            <g transform="matrix(1,0,0,1,-41.925,-22.875)">
                <path d="M685.5,1005.4L662.65,1005.4L571.25,1096.8L571.25,1142.5L662.65,1233.9L685.5,1233.9L685.5,1005.4Z" style="fill:rgb(67,72,77);stroke:rgb(67,72,77);stroke-width:1px;"/>
            </g>
            <g transform="matrix(-1,0,0,1,2265.93,-22.875)">
                <path d="M685.5,1005.4L662.65,1005.4L571.25,1096.8L571.25,1142.5L662.65,1233.9L685.5,1233.9L685.5,1005.4Z" style="fill:rgb(67,72,77);stroke:rgb(67,72,77);stroke-width:1px;"/>
            </g>
            <g transform="matrix(1,0,0,1,-41.925,-22.875)">
                <path d="M594.1,708.35L571.25,685.5L479.85,639.8L457,616.95L434.15,594.1L434.15,708.35L457,754.05L479.85,776.9L479.85,799.75L388.45,754.05L365.6,731.2L342.75,708.35L342.75,822.6L411.3,891.15L594.1,708.35Z" style="fill:rgb(67,72,77);stroke:rgb(67,72,77);stroke-width:1px;"/>
            </g>
            <g transform="matrix(-1,0,0,1,2265.93,-22.875)">
                <path d="M594.1,708.35L571.25,685.5L479.85,639.8L457,616.95L434.15,594.1L434.15,708.35L457,754.05L479.85,776.9L479.85,799.75L388.45,754.05L365.6,731.2L342.75,708.35L342.75,822.6L411.3,891.15L594.1,708.35Z" style="fill:rgb(67,72,77);stroke:rgb(67,72,77);stroke-width:1px;"/>
            </g>
            <g transform="matrix(1,0,0,1,-41.925,-22.875)">
                <path d="M457,1051.1L434.15,1051.1L342.75,959.7L319.9,936.85L457,936.85L457,1051.1Z" style="fill:rgb(67,72,77);stroke:rgb(67,72,77);stroke-width:1px;"/>
            </g>
            <g transform="matrix(-1,0,0,1,2265.93,-22.875)">
                <path d="M457,1051.1L434.15,1051.1L342.75,959.7L319.9,936.85L457,936.85L457,1051.1Z" style="fill:rgb(67,72,77);stroke:rgb(67,72,77);stroke-width:1px;"/>
            </g>
            <g transform="matrix(1,0,0,1,-41.925,137.075)">
                <path d="M457,1051.1L434.15,1051.1L342.75,959.7L319.9,936.85L457,936.85L457,1051.1Z" style="fill:rgb(67,72,77);stroke:rgb(67,72,77);stroke-width:1px;"/>
            </g>
            <g transform="matrix(-1,0,0,1,2265.93,137.075)">
                <path d="M457,1051.1L434.15,1051.1L342.75,959.7L319.9,936.85L457,936.85L457,1051.1Z" style="fill:rgb(67,72,77);stroke:rgb(67,72,77);stroke-width:1px;"/>
            </g>
            <g transform="matrix(1,0,0,1,-41.925,-22.875)">
                <path d="M479.85,1348.15L457,1348.15L365.6,1302.45L342.75,1279.6L319.9,1256.75L479.85,1256.75L479.85,1348.15Z" style="fill:rgb(67,72,77);stroke:rgb(67,72,77);stroke-width:1px;"/>
            </g>
            <g transform="matrix(-1,0,0,1,2265.93,-22.875)">
                <path d="M479.85,1348.15L457,1348.15L365.6,1302.45L342.75,1279.6L319.9,1256.75L479.85,1256.75L479.85,1348.15Z" style="fill:rgb(67,72,77);stroke:rgb(67,72,77);stroke-width:1px;"/>
            </g>
            <g transform="matrix(1,0,0,1,-41.925,-22.875)">
                <path d="M411.3,1485.25L434.15,1485.25L479.85,1530.95L479.85,1622.35L457,1645.2L434.15,1645.2L411.3,1622.35L411.3,1485.25Z" style="fill:rgb(67,72,77);stroke:rgb(67,72,77);stroke-width:1px;"/>
            </g>
            <g transform="matrix(-1,0,0,1,2265.93,-22.875)">
                <path d="M411.3,1485.25L434.15,1485.25L479.85,1530.95L479.85,1622.35L457,1645.2L434.15,1645.2L411.3,1622.35L411.3,1485.25Z" style="fill:rgb(67,72,77);stroke:rgb(67,72,77);stroke-width:1px;"/>
            </g>
            <g transform="matrix(1,0,0,1,-41.925,-22.875)">
                <path d="M571.25,1485.25L594.1,1485.25L594.1,1622.35L571.25,1645.2L548.4,1645.2L525.55,1622.35L525.55,1530.95L571.25,1485.25Z" style="fill:rgb(67,72,77);stroke:rgb(67,72,77);stroke-width:1px;"/>
            </g>
            <g transform="matrix(-1,0,0,1,2265.93,-22.875)">
                <path d="M571.25,1485.25L594.1,1485.25L594.1,1622.35L571.25,1645.2L548.4,1645.2L525.55,1622.35L525.55,1530.95L571.25,1485.25Z" style="fill:rgb(67,72,77);stroke:rgb(67,72,77);stroke-width:1px;"/>
            </g>
            <g transform="matrix(1,0,0,1,-41.925,-22.875)">
                <path d="M685.5,1256.75L708.35,1256.75L754.05,1371L914,1530.95L1005.4,1530.95L1028.25,1553.8L1028.25,1576.65L959.7,1599.5L914,1622.35L845.45,1622.35L776.9,1485.25L731.2,1462.4L708.35,1462.4L685.5,1439.55L685.5,1256.75Z" style="fill:rgb(67,72,77);stroke:rgb(67,72,77);stroke-width:1px;"/>
            </g>
            <g transform="matrix(-1,0,0,1,2265.93,-22.875)">
                <path d="M685.5,1256.75L708.35,1256.75L754.05,1371L914,1530.95L1005.4,1530.95L1028.25,1553.8L1028.25,1576.65L959.7,1599.5L914,1622.35L845.45,1622.35L776.9,1485.25L731.2,1462.4L708.35,1462.4L685.5,1439.55L685.5,1256.75Z" style="fill:rgb(67,72,77);stroke:rgb(67,72,77);stroke-width:1px;"/>
            </g>
            <g transform="matrix(1,0,0,1,-41.925,-22.875)">
                <path d="M639.8,1439.55L662.65,1439.55L822.6,1599.5L822.6,1622.35L616.95,1622.35L616.95,1599.5L685.5,1530.95L685.5,1508.1L639.8,1462.4L639.8,1439.55Z" style="fill:rgb(67,72,77);stroke:rgb(67,72,77);stroke-width:1px;"/>
            </g>
            <g transform="matrix(-1,0,0,1,2265.93,-22.875)">
                <path d="M639.8,1439.55L662.65,1439.55L822.6,1599.5L822.6,1622.35L616.95,1622.35L616.95,1599.5L685.5,1530.95L685.5,1508.1L639.8,1462.4L639.8,1439.55Z" style="fill:rgb(67,72,77);stroke:rgb(67,72,77);stroke-width:1px;"/>
            </g>
        </g>
        <g id="Layer11">
            <g transform="matrix(1,0,0,1,-41.925,-22.875)">
                <path d="M982.55,868.3L1005.4,868.3L1051.1,936.85L982.55,914L982.55,868.3Z" style="fill:rgb(223,127,15);stroke:rgb(223,127,15);stroke-width:1px;"/>
            </g>
            <g transform="matrix(-1,0,0,1,2265.93,-22.875)">
                <path d="M982.55,868.3L1005.4,868.3L1051.1,936.85L982.55,914L982.55,868.3Z" style="fill:rgb(223,127,15);stroke:rgb(223,127,15);stroke-width:1px;"/>
            </g>
        </g>
    </g>
</svg>
