<?xml version="1.0" encoding="UTF-8" standalone="no"?>
<!DOCTYPE svg PUBLIC "-//W3C//DTD SVG 1.1//EN" "http://www.w3.org/Graphics/SVG/1.1/DTD/svg11.dtd">
<svg width="100%" height="100%" viewBox="0 0 4634 3475" version="1.1" xmlns="http://www.w3.org/2000/svg" xmlns:xlink="http://www.w3.org/1999/xlink" xml:space="preserve" xmlns:serif="http://www.serif.com/" style="fill-rule:evenodd;clip-rule:evenodd;stroke-linecap:round;stroke-linejoin:round;stroke-miterlimit:1.5;">
    <g transform="matrix(2.08333,0,0,2.08333,0,0)">
        <g transform="matrix(1,0,0,1,14.4,-8.8)">
            <g id="Layer3">
                <path d="M980,882L980,529.2L1058.4,450.8L1685.6,450.8L1764,529.2L1764,1430.8L1685.6,1509.2L1097.6,1509.2L1097.6,1470L1215.2,1352.4L1587.6,1352.4L1607.2,1332.8L1607.2,646.8L1685.6,568.4L1646.4,529.2L1136.8,529.2L1097.6,568.4L1097.6,862.4L1078,882L980,882Z" style="fill:rgb(111,113,67);stroke:rgb(111,113,67);stroke-width:1px;"/>
            </g>
        </g>
        <g id="Layer7">
            <g transform="matrix(1,0,0,1,14.4,-8.8)">
                <path d="M980,1293.6L980,1470L940.8,1509.2L803.6,1548.4L333.2,1548.4L313.6,1528.8L313.6,1313.2L509.6,1117.2L568.4,1117.2L588,1097.6L588,1078L960.4,1078L980,1293.6Z" style="fill:rgb(83,53,37);stroke:rgb(83,53,37);stroke-width:1px;"/>
            </g>
            <g transform="matrix(1,0,0,1,14.4,-8.8)">
                <path d="M1293.6,1038.8L1117.2,1038.8L1117.2,1058.4L1136.8,1078L1176,1097.6L1215.2,1097.6L1215.2,1117.2L1117.2,1117.2L1117.2,1136.8L1156.4,1176L1176,1176L1176,1195.6L1136.8,1195.6L1117.2,1215.2L1117.2,1234.8L1274,1234.8L1293.6,1215.2L1293.6,1038.8Z" style="fill:rgb(83,53,37);stroke:rgb(83,53,37);stroke-width:1px;"/>
            </g>
            <g transform="matrix(1,0,0,1,14.4,-8.8)">
                <path d="M1215.2,882L1136.8,882L1097.6,921.2L1097.6,1019.2L1112,1019.2L1156.4,980L1156.4,960.4L1176,960.4L1176,1019.2L1195.6,1019.2L1215.2,999.6L1215.2,882Z" style="fill:rgb(83,53,37);stroke:rgb(83,53,37);stroke-width:1px;"/>
            </g>
        </g>
        <g id="Layer6">
            <g transform="matrix(1,0,0,1,14.4,-8.8)">
                <path d="M1293.6,1038.8L1352.4,1038.8L1372,1019.2L1372,607.6L1411.2,568.4L1685.6,568.4L1724.8,607.6L1724.8,921.2L1685.6,960.4L1587.6,960.4L1568,980L1568,1156.4L1528.8,1195.6L1293.6,1195.6L1293.6,1038.8Z" style="fill:rgb(132,83,55);stroke:rgb(132,83,55);stroke-width:1px;"/>
            </g>
            <g transform="matrix(1,0,0,1,14.4,-8.8)">
                <path d="M1293.6,568.4L1332.8,607.6L1332.8,921.2L1293.6,960.4L1215.2,960.4L1215.2,882L1234.8,882L1254.4,862.4L1254.4,823.2L1234.8,803.6L1136.8,803.6L1097.6,764.4L1097.6,607.6L1136.8,568.4L1293.6,568.4Z" style="fill:rgb(132,83,55);stroke:rgb(132,83,55);stroke-width:1px;"/>
            </g>
            <g transform="matrix(1,0,0,1,14.4,-8.8)">
                <path d="M1842.4,529.2L1881.6,529.2L1881.6,627.2L1862,646.8L1842.4,646.8L1842.4,529.2Z" style="fill:rgb(132,83,55);stroke:rgb(132,83,55);stroke-width:1px;"/>
            </g>
            <g transform="matrix(1,0,0,1,14.4,148)">
                <path d="M1842.4,529.2L1881.6,529.2L1881.6,627.2L1862,646.8L1842.4,646.8L1842.4,529.2Z" style="fill:rgb(132,83,55);stroke:rgb(132,83,55);stroke-width:1px;"/>
            </g>
            <g transform="matrix(1,0,0,1,14.4,461.6)">
                <path d="M1842.4,529.2L1881.6,529.2L1881.6,627.2L1862,646.8L1842.4,646.8L1842.4,529.2Z" style="fill:rgb(132,83,55);stroke:rgb(132,83,55);stroke-width:1px;"/>
            </g>
            <g transform="matrix(1,0,0,1,14.4,304.8)">
                <path d="M1842.4,529.2L1881.6,529.2L1881.6,627.2L1862,646.8L1842.4,646.8L1842.4,529.2Z" style="fill:rgb(132,83,55);stroke:rgb(132,83,55);stroke-width:1px;"/>
            </g>
            <g transform="matrix(1,0,0,1,14.4,618.4)">
                <path d="M1842.4,529.2L1881.6,529.2L1881.6,627.2L1862,646.8L1842.4,646.8L1842.4,529.2Z" style="fill:rgb(132,83,55);stroke:rgb(132,83,55);stroke-width:1px;"/>
            </g>
            <g transform="matrix(1,0,0,1,14.4,775.2)">
                <path d="M1842.4,529.2L1881.6,529.2L1881.6,627.2L1862,646.8L1842.4,646.8L1842.4,529.2Z" style="fill:rgb(132,83,55);stroke:rgb(132,83,55);stroke-width:1px;"/>
            </g>
            <g transform="matrix(1,0,0,1,14.4,-8.8)">
                <path d="M1842.4,1470L1881.6,1470L1881.6,1548.4L1803.2,1626.8L1744.4,1626.8L1724.8,1607.2L1724.8,1587.6L1842.4,1470Z" style="fill:rgb(132,83,55);stroke:rgb(132,83,55);stroke-width:1px;"/>
            </g>
            <g transform="matrix(1,0,0,1,14.4,-8.8)">
                <path d="M1685.6,1587.6L1685.6,1626.8L1587.6,1626.8L1568,1607.2L1568,1587.6L1685.6,1587.6Z" style="fill:rgb(132,83,55);stroke:rgb(132,83,55);stroke-width:1px;"/>
            </g>
            <g transform="matrix(1,0,0,1,-142.4,-8.8)">
                <path d="M1685.6,1587.6L1685.6,1626.8L1587.6,1626.8L1568,1607.2L1568,1587.6L1685.6,1587.6Z" style="fill:rgb(132,83,55);stroke:rgb(132,83,55);stroke-width:1px;"/>
            </g>
            <g transform="matrix(1,0,0,1,-299.2,-8.8)">
                <path d="M1685.6,1587.6L1685.6,1626.8L1587.6,1626.8L1568,1607.2L1568,1587.6L1685.6,1587.6Z" style="fill:rgb(132,83,55);stroke:rgb(132,83,55);stroke-width:1px;"/>
            </g>
            <g transform="matrix(0.666667,0,0,1,105.867,-8.8)">
                <path d="M1685.6,1587.6L1685.6,1626.8L1597.4,1626.8L1568,1607.2L1568,1587.6L1685.6,1587.6Z" style="fill:rgb(132,83,55);stroke:rgb(132,83,55);stroke-width:1.18px;"/>
            </g>
            <g transform="matrix(0.333333,0,0,1,550.133,-8.8)">
                <path d="M1685.6,1587.6L1685.6,1626.8L1626.8,1626.8L1568,1607.2L1568,1587.6L1685.6,1587.6Z" style="fill:rgb(132,83,55);stroke:rgb(132,83,55);stroke-width:1.34px;"/>
            </g>
            <g transform="matrix(1,0,0,1,14.4,-8.8)">
                <path d="M588,1078L588,999.6L470.4,882L470.4,842.8L548.8,764.4L588,764.4L744.8,921.2L1058.4,921.2L1097.6,960.4L1097.6,1176L1117.2,1195.6L1136.8,1195.6L1117.2,1215.2L1117.2,1234.8L1176,1234.8L1176,1313.2L1136.8,1352.4L1058.4,1352.4L1019.2,1313.2L960.4,1293.6L901.6,1274L862.4,1234.8L862.4,1097.6L842.8,1078L588,1078Z" style="fill:rgb(132,83,55);stroke:rgb(132,83,55);stroke-width:1px;"/>
            </g>
            <g transform="matrix(1,0,0,1,14.4,-8.8)">
                <path d="M921.2,882L940.8,862.4L940.8,529.2L1058.4,411.6L1685.6,411.6L1764,490L1881.6,490L1881.6,333.2L1822.8,274.4L1881.6,215.6L1881.6,137.2L1803.2,98L1764,98L1724.8,176.4L1685.6,215.6L1646.4,215.6L1685.6,137.2L1685.6,78.4L1666,58.8L1568,58.8L1548.4,78.4L1528.8,176.4L1509.2,215.6L1489.6,215.6L1489.6,78.4L1470,58.8L1352.4,58.8L1332.8,78.4L1332.8,215.6L1293.6,215.6L1293.6,78.4L1274,58.8L1156.4,58.8L1136.8,78.4L1136.8,215.6L1097.6,215.6L1097.6,78.4L1078,58.8L960.4,58.8L940.8,78.4L940.8,215.6L901.6,215.6L862.4,176.4L823.2,98L784,58.8L705.6,58.8L627.2,137.2L627.2,176.4L705.6,254.8L744.8,333.2L764.4,352.8L744.8,372.4L548.8,176.4L470.4,176.4L392,254.8L392,333.2L509.6,450.8L588,490L725.2,627.2L725.2,646.8L686,607.6L607.6,568.4L450.8,411.6L431.2,411.6L352.8,490L352.8,509.6L725.2,882L921.2,882Z" style="fill:rgb(132,83,55);stroke:rgb(132,83,55);stroke-width:1px;"/>
            </g>
        </g>
        <g id="Layer4">
            <g transform="matrix(1,0,0,1,14.4,-8.8)">
                <path d="M823.2,882L823.2,450.8L940.8,333.2L1724.8,333.2L1764,372.4L1764,490L1842.4,490L1842.4,333.2L1764,254.8L901.6,254.8L744.8,411.6L744.8,882L823.2,882Z" style="fill:rgb(123,50,50);stroke:rgb(123,50,50);stroke-width:1px;"/>
            </g>
            <g transform="matrix(1,0,0,1,14.4,-8.8)">
                <rect x="1764" y="529.2" width="78.4" height="117.6" style="fill:rgb(123,50,50);stroke:rgb(123,50,50);stroke-width:1px;"/>
            </g>
            <g transform="matrix(1,0,0,1,14.4,148)">
                <rect x="1764" y="529.2" width="78.4" height="117.6" style="fill:rgb(123,50,50);stroke:rgb(123,50,50);stroke-width:1px;"/>
            </g>
            <g transform="matrix(1,0,0,1,14.4,304.8)">
                <rect x="1764" y="529.2" width="78.4" height="117.6" style="fill:rgb(123,50,50);stroke:rgb(123,50,50);stroke-width:1px;"/>
            </g>
            <g transform="matrix(1,0,0,1,14.4,461.6)">
                <rect x="1764" y="529.2" width="78.4" height="117.6" style="fill:rgb(123,50,50);stroke:rgb(123,50,50);stroke-width:1px;"/>
            </g>
            <g transform="matrix(1,0,0,1,14.4,618.4)">
                <rect x="1764" y="529.2" width="78.4" height="117.6" style="fill:rgb(123,50,50);stroke:rgb(123,50,50);stroke-width:1px;"/>
            </g>
            <g transform="matrix(1,0,0,1,14.4,775.2)">
                <rect x="1764" y="529.2" width="78.4" height="117.6" style="fill:rgb(123,50,50);stroke:rgb(123,50,50);stroke-width:1px;"/>
            </g>
            <g transform="matrix(1,0,0,1,14.4,-8.8)">
                <path d="M1842.4,1470L1842.4,1509.2L1764,1587.6L1724.8,1587.6L1724.8,1509.2L1764,1470L1842.4,1470Z" style="fill:rgb(123,50,50);stroke:rgb(123,50,50);stroke-width:1px;"/>
            </g>
            <g transform="matrix(1,0,0,1,14.4,-8.8)">
                <rect x="1568" y="1528.8" width="117.6" height="58.8" style="fill:rgb(123,50,50);stroke:rgb(123,50,50);stroke-width:1px;"/>
            </g>
            <g transform="matrix(1,0,0,1,-142.4,-8.8)">
                <rect x="1568" y="1528.8" width="117.6" height="58.8" style="fill:rgb(123,50,50);stroke:rgb(123,50,50);stroke-width:1px;"/>
            </g>
            <g transform="matrix(1,0,0,1,-299.2,-8.8)">
                <rect x="1568" y="1528.8" width="117.6" height="58.8" style="fill:rgb(123,50,50);stroke:rgb(123,50,50);stroke-width:1px;"/>
            </g>
            <g transform="matrix(0.666667,0,0,1,105.867,-8.8)">
                <path d="M1685.6,1587.6L1685.6,1528.8L1597.4,1528.8L1568,1548.4L1568,1587.6L1685.6,1587.6Z" style="fill:rgb(123,50,50);stroke:rgb(123,50,50);stroke-width:1.18px;"/>
            </g>
            <g transform="matrix(1,0,0,1,14.4,-8.8)">
                <path d="M1509.2,803.6L1489.6,784L1489.6,705.6L1509.2,686L1587.6,686L1607.2,705.6L1607.2,784L1587.6,803.6L1509.2,803.6Z" style="fill:rgb(123,50,50);stroke:rgb(123,50,50);stroke-width:1px;"/>
            </g>
            <g transform="matrix(1,0,0,1,14.4,-8.8)">
                <path d="M1234.8,725.2L1254.4,705.6L1254.4,666.4L1234.8,646.8L1195.6,646.8L1176,666.4L1176,705.6L1195.6,725.2L1234.8,725.2Z" style="fill:rgb(123,50,50);stroke:rgb(123,50,50);stroke-width:1px;"/>
            </g>
            <g transform="matrix(1,0,0,1,14.4,-8.8)">
                <path d="M842.8,1078L862.4,1058.4L862.4,1019.2L882,999.6L980,999.6L1019.2,1038.8L1019.2,1176L999.6,1195.6L960.4,1195.6L940.8,1176L940.8,1097.6L960.4,1078L980,1078L980,1097.6L999.6,1078L999.6,1058.4L980,1038.8L940.8,1038.8L901.6,1078L901.6,1195.6L940.8,1234.8L1019.2,1234.8L1058.4,1195.6L1058.4,999.6L980,921.2L744.8,921.2L705.6,960.4L705.6,1078L842.8,1078Z" style="fill:rgb(123,50,50);stroke:rgb(123,50,50);stroke-width:1px;"/>
            </g>
            <g transform="matrix(0.333333,0,0,0.666667,550.133,520.4)">
                <path d="M1685.6,1587.6L1685.6,1528.8L1626.8,1528.8L1568,1558.2L1568,1587.6L1685.6,1587.6Z" style="fill:rgb(123,50,50);stroke:rgb(123,50,50);stroke-width:1.9px;"/>
            </g>
        </g>
        <g id="Layer5">
            <g transform="matrix(1,0,0,1,14.4,-8.8)">
                <path d="M725.2,1117.2L744.8,1097.6L744.8,999.6L686,999.6L666.4,1019.2L666.4,1117.2L725.2,1117.2Z" style="fill:rgb(193,155,119);stroke:rgb(193,155,119);stroke-width:1px;"/>
            </g>
            <g transform="matrix(1,0,0,1,14.4,-8.8)">
                <path d="M568.4,1117.2L588,1097.6L588,999.6L529.2,999.6L509.6,1019.2L509.6,1117.2L568.4,1117.2Z" style="fill:rgb(193,155,119);stroke:rgb(193,155,119);stroke-width:1px;"/>
            </g>
        </g>
        <g id="Layer2">
            <g transform="matrix(1,0,0,1,14.4,-8.8)">
                <path d="M1019.2,1626.8L1097.6,1470L1097.6,1352.4L1078,1352.4L1019.2,1470L940.8,1548.4L921.2,1587.6L921.2,1607.2L940.8,1626.8L1019.2,1626.8Z" style="fill:rgb(145,181,140);stroke:rgb(145,181,140);stroke-width:1px;"/>
            </g>
            <g transform="matrix(1,0,0,1,14.4,-8.8)">
                <path d="M862.4,1626.8L901.6,1548.4L901.6,1352.4L882,1352.4L764.4,1587.6L764.4,1607.2L784,1626.8L862.4,1626.8Z" style="fill:rgb(145,181,140);stroke:rgb(145,181,140);stroke-width:1px;"/>
            </g>
            <g transform="matrix(1,0,0,1,14.4,-8.8)">
                <path d="M725.2,1568L666.4,1509.2L568.4,1313.2L548.8,1313.2L548.8,1430.8L588,1587.6L627.2,1626.8L705.6,1626.8L725.2,1607.2L725.2,1568Z" style="fill:rgb(145,181,140);stroke:rgb(145,181,140);stroke-width:1px;"/>
            </g>
            <g transform="matrix(1,0,0,1,14.4,-8.8)">
                <path d="M509.6,1626.8L529.2,1607.2L529.2,1587.6L372.4,1430.8L352.8,1430.8L352.8,1509.2L392,1587.6L431.2,1626.8L509.6,1626.8Z" style="fill:rgb(145,181,140);stroke:rgb(145,181,140);stroke-width:1px;"/>
            </g>
        </g>
        <g id="Layer1">
            <g transform="matrix(1,0,0,1,14.4,-8.8)">
                <path d="M431.2,1372L431.2,1332.8L450.8,1313.2L490,1313.2L509.6,1332.8L509.6,1372L490,1391.6L450.8,1391.6L431.2,1372Z" style="fill:rgb(136,144,52);stroke:rgb(136,144,52);stroke-width:1px;"/>
            </g>
            <g transform="matrix(1,0,0,1,14.4,-8.8)">
                <path d="M705.6,1450.4L705.6,1411.2L725.2,1391.6L764.4,1391.6L784,1411.2L784,1450.4L764.4,1470L725.2,1470L705.6,1450.4Z" style="fill:rgb(144,83,51);stroke:rgb(144,83,51);stroke-width:1px;"/>
            </g>
            <g transform="matrix(1,0,0,1,14.4,-8.8)">
                <path d="M686,1274L666.4,1254.4L666.4,1215.2L686,1195.6L725.2,1195.6L744.8,1215.2L744.8,1254.4L725.2,1274L686,1274Z" style="fill:rgb(142,51,144);stroke:rgb(142,51,144);stroke-width:1px;"/>
            </g>
            <g transform="matrix(1,0,0,1,14.4,-8.8)">
                <path d="M803.6,1038.8L784,1019.2L784,980L803.6,960.4L842.8,960.4L862.4,980L862.4,1019.2L842.8,1038.8L803.6,1038.8Z" style="fill:rgb(52,70,209);stroke:rgb(52,70,209);stroke-width:1px;"/>
            </g>
        </g>
    </g>
</svg>
