<?xml version="1.0" encoding="UTF-8" standalone="no"?>
<!DOCTYPE svg PUBLIC "-//W3C//DTD SVG 1.1//EN" "http://www.w3.org/Graphics/SVG/1.1/DTD/svg11.dtd">
<svg width="100%" height="100%" viewBox="0 0 4634 3475" version="1.1" xmlns="http://www.w3.org/2000/svg" xmlns:xlink="http://www.w3.org/1999/xlink" xml:space="preserve" xmlns:serif="http://www.serif.com/" style="fill-rule:evenodd;clip-rule:evenodd;stroke-linecap:round;stroke-linejoin:round;stroke-miterlimit:1.5;">
    <g transform="matrix(2.08333,0,0,2.08333,0,0)">
        <g id="Layer8">
            <g transform="matrix(1,0,0,1,-30.5,-11.45)">
                <path d="M799.75,1576.65L776.9,1553.8L776.9,1530.95L936.85,1530.95L959.7,1508.1L959.7,1485.25L616.95,1485.25L616.95,1439.55L845.45,1348.15L891.15,1256.75L1096.8,1073.95L1188.2,1028.25L1416.7,799.75L1462.4,799.75L1462.4,754.05L1233.9,754.05L868.3,1119.65L662.65,1119.65L639.8,1142.5L639.8,1165.35L594.1,1302.45L502.7,1393.85L457,1439.55L411.3,1485.25L365.6,1485.25L365.6,1256.75L411.3,1211.05L411.3,411.3L616.95,365.6L616.95,411.3L731.2,434.15L731.2,365.6L1096.8,388.45L1119.65,434.15L1439.55,434.15L1439.55,616.95L1188.2,616.95L776.9,1028.25L776.9,1051.1L799.75,1073.95L822.6,1073.95L1233.9,662.65L1508.1,662.65L1553.8,708.35L1553.8,868.3L1576.65,868.3L1576.65,1576.65L1416.7,1576.65L1371,1599.5L1348.15,1599.5L1348.15,1508.1L1371,1485.25L1371,1462.4L1393.85,1439.55L1416.7,1416.7L1416.7,1371L1393.85,1348.15L1188.2,1348.15L1051.1,1485.25L1051.1,1553.8L1028.25,1576.65L799.75,1576.65Z" style="fill:rgb(224,224,222);stroke:rgb(224,224,222);stroke-width:1px;"/>
            </g>
            <g transform="matrix(1,0,0,1,-30.5,-11.45)">
                <path d="M1690.9,914L1690.9,1256.75L1782.3,1302.45L1782.3,1325.3L1896.55,1325.3L1873.7,1051.1L1736.6,914L1690.9,914Z" style="fill:rgb(224,224,222);stroke:rgb(224,224,222);stroke-width:1px;"/>
            </g>
            <g transform="matrix(1,0,0,1,-30.5,-11.45)">
                <path d="M1805.15,502.7L1805.15,639.8L1690.9,754.05L1622.35,754.05L1599.5,731.2L1599.5,571.25L1645.2,525.55L1690.9,502.7L1805.15,502.7Z" style="fill:rgb(224,224,222);stroke:rgb(224,224,222);stroke-width:1px;"/>
            </g>
        </g>
        <g id="Layer14">
            <g transform="matrix(1,0,0,1,-30.5,-11.45)">
                <path d="M868.3,1416.7L868.3,1302.45L936.85,1302.45L914,1256.75L822.6,1256.75L776.9,1302.45L776.9,1439.55L845.45,1439.55L868.3,1416.7Z" style="fill:rgb(158,158,158);stroke:rgb(158,158,158);stroke-width:1px;"/>
            </g>
            <g transform="matrix(1,0,0,1,-30.5,-11.45)">
                <path d="M731.2,1439.55L731.2,1256.75L685.5,1302.45L685.5,1439.55L731.2,1439.55Z" style="fill:rgb(158,158,158);stroke:rgb(158,158,158);stroke-width:1px;"/>
            </g>
            <g transform="matrix(1,0,0,1,-30.5,-11.45)">
                <path d="M1233.9,434.15L1439.55,228.5L1690.9,228.5L1690.9,251.35L1736.6,251.35L1850.85,228.5L1599.5,479.85L1462.4,616.95L1416.7,616.95L1416.7,457L1393.85,434.15C1393.85,434.15 1238.07,432.579 1233.9,434.15Z" style="fill:rgb(158,158,158);stroke:rgb(158,158,158);stroke-width:1px;"/>
            </g>
            <g transform="matrix(1,0,0,1,-30.5,-11.45)">
                <path d="M1279.6,616.95L1279.6,548.4L1256.75,525.55L1142.5,525.55L1073.95,594.1L1142.5,662.65L1188.2,616.95L1279.6,616.95Z" style="fill:rgb(158,158,158);stroke:rgb(158,158,158);stroke-width:1px;"/>
            </g>
            <g transform="matrix(1,0,0,1,-30.5,-11.45)">
                <path d="M936.85,731.2L1005.4,799.75L959.7,845.45L891.15,776.9L936.85,731.2Z" style="fill:rgb(158,158,158);stroke:rgb(158,158,158);stroke-width:1px;"/>
            </g>
            <g transform="matrix(1,0,0,1,-30.5,-80)">
                <path d="M822.6,799.75L822.6,845.45L731.2,936.85L731.2,799.75L822.6,799.75Z" style="fill:rgb(158,158,158);stroke:rgb(158,158,158);stroke-width:1px;"/>
            </g>
            <g transform="matrix(1,0,0,1,-30.5,-11.45)">
                <path d="M731.2,662.65L776.9,616.95L822.6,571.25L868.3,525.55L959.7,525.55L959.7,479.85L708.35,479.85L708.35,662.65L731.2,662.65Z" style="fill:rgb(158,158,158);stroke:rgb(158,158,158);stroke-width:1px;"/>
            </g>
            <g transform="matrix(1,0,0,1,-30.5,-11.45)">
                <path d="M1096.8,388.45L1256.75,251.35L1256.75,228.5L1233.9,251.35L1188.2,251.35L1188.2,228.5L845.45,228.5L731.2,342.75L731.2,388.45L1096.8,388.45Z" style="fill:rgb(158,158,158);stroke:rgb(158,158,158);stroke-width:1px;"/>
            </g>
            <g transform="matrix(1,0,0,1,-30.5,-11.45)">
                <path d="M411.3,571.25L731.2,251.35L662.65,228.5L639.8,251.35L594.1,251.35L548.4,228.5L411.3,388.45L411.3,571.25Z" style="fill:rgb(158,158,158);stroke:rgb(158,158,158);stroke-width:1px;"/>
            </g>
            <g transform="matrix(1,0,0,1,-30.5,-11.45)">
                <path d="M411.3,822.6L411.3,616.95L616.95,616.95L616.95,662.65L594.1,662.65L411.3,822.6Z" style="fill:rgb(158,158,158);stroke:rgb(158,158,158);stroke-width:1px;"/>
            </g>
            <g transform="matrix(1,0,0,1,-30.5,217.05)">
                <path d="M411.3,822.6L411.3,616.95L616.95,616.95L616.95,662.65L594.1,662.65L411.3,822.6Z" style="fill:rgb(158,158,158);stroke:rgb(158,158,158);stroke-width:1px;"/>
            </g>
            <g transform="matrix(1,0,0,1,-30.5,-11.45)">
                <path d="M411.3,1165.35L411.3,1211.05L457,1233.9L457,1325.3L479.85,1348.15L548.4,1348.15L594.1,1302.45L525.55,1302.45L502.7,1279.6L502.7,1211.05L411.3,1165.35Z" style="fill:rgb(158,158,158);stroke:rgb(158,158,158);stroke-width:1px;"/>
            </g>
        </g>
        <g id="Layer13">
            <g transform="matrix(1,0,0,1,-30.5,-11.45)">
                <path d="M1919.4,662.65L1919.4,1302.45L1873.7,1302.45L1828,1211.05L1782.3,1119.65L1736.6,1028.25L1690.9,936.85L1690.9,799.75L1782.3,799.75L1919.4,662.65ZM1873.7,982.55L1873.7,936.85L1828,936.85L1828,982.55L1873.7,982.55ZM1873.7,891.15L1873.7,845.45L1828,845.45L1828,891.15L1873.7,891.15Z" style="fill:rgb(32,32,48);stroke:rgb(32,32,48);stroke-width:1px;"/>
            </g>
            <g transform="matrix(1,0,0,1,-30.5,-11.45)">
                <path d="M1508.1,936.85L1325.3,1073.95L1325.3,1211.05L1508.1,1348.15L1508.1,936.85ZM1416.7,1211.05L1416.7,1165.35L1462.4,1165.35L1462.4,1211.05L1416.7,1211.05ZM1462.4,1073.95L1416.7,1073.95L1416.7,1119.65L1462.4,1119.65L1462.4,1073.95Z" style="fill:rgb(32,32,48);stroke:rgb(32,32,48);stroke-width:1px;"/>
            </g>
            <g transform="matrix(1,0,0,1,-30.5,-11.45)">
                <path d="M1165.35,1165.35L1165.35,1119.65L1211.05,1119.65L1233.9,1142.5L1233.9,1302.45L1188.2,1279.6L1188.2,1165.35L1165.35,1165.35Z" style="fill:rgb(32,32,48);stroke:rgb(32,32,48);stroke-width:1px;"/>
            </g>
            <g transform="matrix(1,0,0,1,-30.5,-11.45)">
                <path d="M1073.95,1211.05L1119.65,1211.05L1142.5,1233.9L1142.5,1348.15L1096.8,1325.3L1096.8,1256.75L1073.95,1211.05Z" style="fill:rgb(32,32,48);stroke:rgb(32,32,48);stroke-width:1px;"/>
            </g>
            <g transform="matrix(1,0,0,1,-30.5,-11.45)">
                <path d="M982.55,1302.45L1028.25,1302.45L1051.1,1325.3L1051.1,1416.7L1005.4,1416.7L1005.4,1348.15L982.55,1348.15L982.55,1302.45Z" style="fill:rgb(32,32,48);stroke:rgb(32,32,48);stroke-width:1px;"/>
            </g>
            <g transform="matrix(1,0,0,1,-30.5,-11.45)">
                <path d="M1690.9,754.05L1919.4,571.25L1919.4,297.05L1645.2,525.55L1759.45,525.55L1782.3,548.4L1759.45,571.25L1713.75,571.25L1690.9,594.1L1713.75,616.95L1759.45,616.95L1782.3,639.8L1759.45,662.65L1713.75,662.65L1690.9,685.5L1690.9,754.05Z" style="fill:rgb(32,32,48);stroke:rgb(32,32,48);stroke-width:1px;"/>
            </g>
            <g transform="matrix(1,0,0,1,-30.5,-11.45)">
                <path d="M1416.7,251.35L1599.5,68.55L1919.4,68.55L1919.4,159.95L1828,251.35L1782.3,251.35L1416.7,251.35ZM1736.6,251.35L1736.6,205.65L1690.9,205.65L1690.9,251.35L1736.6,251.35ZM1782.3,159.95L1736.6,159.95L1736.6,205.65L1782.3,205.65L1782.3,159.95ZM1828,159.95L1828,114.25L1782.3,114.25L1782.3,159.95L1828,159.95Z" style="fill:rgb(32,32,48);stroke:rgb(32,32,48);stroke-width:1px;"/>
            </g>
            <g transform="matrix(1,0,0,1,-624.6,-11.45)">
                <path d="M1416.7,251.35L1599.5,68.55L2102.2,68.55L1919.4,251.35L1416.7,251.35ZM1828,251.35L1828,205.65L1782.3,205.65L1782.3,251.35L1828,251.35ZM1873.7,159.95L1828,159.95L1828,205.65L1873.7,205.65L1873.7,159.95ZM1919.4,159.95L1919.4,114.25L1873.7,114.25L1873.7,159.95L1919.4,159.95Z" style="fill:rgb(32,32,48);stroke:rgb(32,32,48);stroke-width:1px;"/>
            </g>
            <g transform="matrix(1,0,0,1,-30.5,-11.45)">
                <path d="M548.4,251.35L411.3,388.45L411.3,114.25L457,68.55L868.3,68.55L868.3,114.25L731.2,251.35L548.4,251.35ZM639.8,251.35L639.8,205.65L594.1,205.65L594.1,251.35L639.8,251.35ZM639.8,205.65L685.5,205.65L685.5,159.95L731.2,159.95L731.2,114.25L685.5,114.25L685.5,159.95L639.8,159.95L639.8,205.65Z" style="fill:rgb(32,32,48);stroke:rgb(32,32,48);stroke-width:1px;"/>
            </g>
            <g transform="matrix(1,0,0,1,-30.5,-11.45)">
                <path d="M731.2,1256.75L776.9,1211.05L799.75,1211.05L822.6,1233.9L822.6,1256.75L776.9,1302.45L731.2,1325.3L731.2,1256.75Z" style="fill:rgb(32,32,48);stroke:rgb(32,32,48);stroke-width:1px;"/>
            </g>
            <g transform="matrix(1,0,0,1,-30.5,-11.45)">
                <path d="M731.2,1371L731.2,1393.85L776.9,1439.55L799.75,1439.55L868.3,1371L868.3,1348.15L914,1348.15L936.85,1302.45L845.45,1302.45L822.6,1325.3L776.9,1348.15L731.2,1371Z" style="fill:rgb(32,32,48);stroke:rgb(32,32,48);stroke-width:1px;"/>
            </g>
            <g transform="matrix(1,0,0,1,-30.5,-11.45)">
                <path d="M685.5,1302.45L571.25,1371L548.4,1416.7L548.4,1530.95L594.1,1576.65L685.5,1576.65L639.8,1553.8L616.95,1508.1L628.375,1462.4L662.65,1439.55L685.5,1439.55L685.5,1302.45Z" style="fill:rgb(32,32,48);stroke:rgb(32,32,48);stroke-width:1px;"/>
            </g>
            <g transform="matrix(1,0,0,1,-30.5,-11.45)">
                <path d="M868.3,1256.75L822.6,1211.05L822.6,1165.35L868.3,1119.65L914,1073.95L1005.4,1028.25L1142.5,891.15L1233.9,845.45L1279.6,845.45L868.3,1256.75Z" style="fill:rgb(32,32,48);stroke:rgb(32,32,48);stroke-width:1px;"/>
            </g>
        </g>
        <g id="Layer12">
            <g transform="matrix(1,0,0,1,-30.5,-11.45)">
                <path d="M1668.05,1622.35L1690.9,1553.8L1690.9,1439.55L1736.6,1348.15L1782.3,1302.45L1896.55,1302.45L1896.55,1622.35L1828,1622.35L1828,1439.55L1782.3,1439.55L1782.3,1576.65L1736.6,1622.35L1668.05,1622.35Z" style="fill:rgb(15,15,17);stroke:rgb(15,15,17);stroke-width:1px;"/>
            </g>
            <g transform="matrix(1,0,0,1,-30.5,-11.45)">
                <path d="M1096.8,1599.5L1096.8,1485.25L1142.5,1439.55L1325.3,1439.55L1371,1462.4L1371,1599.5L1325.3,1622.35L1119.65,1622.35L1096.8,1599.5Z" style="fill:rgb(15,15,17);stroke:rgb(15,15,17);stroke-width:1px;"/>
            </g>
            <g transform="matrix(1,0,0,1,-30.5,-11.45)">
                <path d="M1553.8,868.3L1645.2,776.9L1645.2,1485.25L1599.5,1576.65L1416.7,1576.65L1439.55,1553.8L1485.25,1485.25L1530.95,1393.85L1553.8,1233.9L1553.8,868.3Z" style="fill:rgb(15,15,17);stroke:rgb(15,15,17);stroke-width:1px;"/>
            </g>
        </g>
        <g id="Layer9">
            <g transform="matrix(1,0,0,1,-30.5,-11.45)">
                <path d="M1371,1530.95L1325.3,1485.25L1188.2,1485.25L1142.5,1530.95L1142.5,1622.35L1188.2,1622.35L1188.2,1553.8L1211.05,1530.95L1302.45,1530.95L1371,1599.5L1371,1530.95Z" style="fill:rgb(126,57,60);stroke:rgb(126,57,60);stroke-width:1px;"/>
            </g>
            <g transform="matrix(1,0,0,1,-30.5,-11.45)">
                <path d="M1599.5,1622.35L1599.5,1599.5L1645.2,1553.8L1690.9,1553.8L1690.9,1622.35L1599.5,1622.35Z" style="fill:rgb(126,57,60);stroke:rgb(126,57,60);stroke-width:1px;"/>
            </g>
            <g transform="matrix(1,0,0,1,-30.5,-11.45)">
                <path d="M1736.6,1622.35L1736.6,1599.5L1782.3,1553.8L1828,1553.8L1828,1622.35L1736.6,1622.35Z" style="fill:rgb(126,57,60);stroke:rgb(126,57,60);stroke-width:1px;"/>
            </g>
            <g transform="matrix(1,0,0,1,-30.5,-11.45)">
                <path d="M1919.4,1302.45L1873.7,1302.45L1873.7,1622.35L1896.55,1622.35L1919.4,1599.5L1919.4,1302.45Z" style="fill:rgb(126,57,60);stroke:rgb(126,57,60);stroke-width:1px;"/>
            </g>
            <g transform="matrix(1,0,0,1,-30.5,-11.45)">
                <path d="M914,1256.75L1279.6,891.15L1279.6,845.45L868.3,1256.75L914,1256.75Z" style="fill:rgb(126,57,60);stroke:rgb(126,57,60);stroke-width:1px;"/>
            </g>
            <g transform="matrix(1,0,0,1,-30.5,-11.45)">
                <path d="M959.7,1348.15L936.85,1302.45L1005.4,1302.45L1005.4,1348.15L959.7,1348.15Z" style="fill:rgb(126,57,60);stroke:rgb(126,57,60);stroke-width:1px;"/>
            </g>
            <g transform="matrix(1,0,0,1,-30.5,-11.45)">
                <path d="M1005.4,1393.85L1051.1,1393.85L1051.1,1439.55L1005.4,1416.7L1005.4,1393.85Z" style="fill:rgb(126,57,60);stroke:rgb(126,57,60);stroke-width:1px;"/>
            </g>
            <g transform="matrix(1,0,0,1,-30.5,-11.45)">
                <path d="M1051.1,1256.75L1028.25,1211.05L1096.8,1211.05L1096.8,1256.75L1051.1,1256.75Z" style="fill:rgb(126,57,60);stroke:rgb(126,57,60);stroke-width:1px;"/>
            </g>
            <g transform="matrix(1,0,0,1,-30.5,-11.45)">
                <path d="M1142.5,1165.35L1119.65,1119.65L1188.2,1119.65L1188.2,1165.35L1142.5,1165.35Z" style="fill:rgb(126,57,60);stroke:rgb(126,57,60);stroke-width:1px;"/>
            </g>
        </g>
        <g id="Layer11">
            <g transform="matrix(1,0,0,1,-30.5,-11.45)">
                <path d="M594.1,1073.95L731.2,936.85L731.2,434.15L616.95,365.6L594.1,388.45C590.41,695.669 593.786,835.616 594.1,1073.95Z" style="fill:rgb(93,16,1);stroke:rgb(93,16,1);stroke-width:1px;"/>
            </g>
            <g transform="matrix(1,0,0,1,-30.5,-11.45)">
                <path d="M822.6,616.95L822.6,845.45L1233.9,434.15L1165.35,434.15L1119.65,411.3L1096.8,388.45L1051.1,388.45L822.6,616.95Z" style="fill:rgb(93,16,1);stroke:rgb(93,16,1);stroke-width:1px;"/>
            </g>
        </g>
        <g transform="matrix(1,0,0,1,-30.5,-11.45)">
            <g id="Layer10">
                <path d="M731.2,1393.85L754.05,1393.85L776.9,1416.7L776.9,1439.55L731.2,1439.55L731.2,1393.85Z" style="fill:rgb(51,128,186);stroke:rgb(51,128,186);stroke-width:1px;"/>
            </g>
        </g>
    </g>
</svg>
