<?xml version="1.0" encoding="UTF-8" standalone="no"?>
<!DOCTYPE svg PUBLIC "-//W3C//DTD SVG 1.1//EN" "http://www.w3.org/Graphics/SVG/1.1/DTD/svg11.dtd">
<svg width="100%" height="100%" viewBox="0 0 4634 3475" version="1.1" xmlns="http://www.w3.org/2000/svg" xmlns:xlink="http://www.w3.org/1999/xlink" xml:space="preserve" xmlns:serif="http://www.serif.com/" style="fill-rule:evenodd;clip-rule:evenodd;stroke-linecap:round;stroke-linejoin:round;stroke-miterlimit:1.5;">
    <g transform="matrix(2.08333,0,0,2.08333,0,0)">
        <g transform="matrix(1,0,0,1,0,-0.025)">
            <g id="Layer14">
                <path d="M959.7,342.775L1005.4,388.475L1096.8,388.45L1233.9,388.45L1348.15,388.475L1371,365.625L1371,251.35L1416.7,205.675L1782.3,205.675L1828,251.35L1873.7,388.475L1873.7,1348.17L1828,1439.58L1782.3,1485.28L1690.9,1530.98L411.3,1530.95L411.3,1508.12L1576.65,1416.73L1668.05,1393.88L1736.6,1325.33L1736.6,1233.92L1713.75,1211.08L1668.05,1211.08L1622.35,1165.38L1622.35,1119.67L1668.05,1073.97L1713.75,1073.96L1736.6,1051.12L1736.6,1028.28L1713.75,1005.43L1599.5,1005.43L1576.65,1028.28L1576.65,1165.38L1508.1,1119.67L1508.1,982.575L1553.8,936.875L1599.5,891.175L1713.75,891.175L1736.6,868.325L1736.6,502.725L1713.75,479.875L1530.95,479.875L1508.1,502.725L1508.1,776.925L1485.25,799.775L1325.3,799.775L1325.3,708.375L1416.7,708.375L1439.55,685.525L1439.55,502.725L1416.7,479.875L1005.4,479.875L982.55,502.725L982.55,525.575L959.7,525.575L936.85,502.725L936.85,479.875L868.3,411.325L868.3,342.775L959.7,342.775Z" style="fill:rgb(63,144,192);stroke:rgb(63,144,192);stroke-width:1px;"/>
            </g>
        </g>
        <g transform="matrix(1,0,0,1,-22.85,0)">
            <g id="Layer17">
                <path d="M1302.45,1119.65L1485.25,1119.65L1576.65,1188.2L1576.65,1211.05L1302.45,1211.05L1302.45,1119.65Z" style="fill:rgb(208,176,47);stroke:rgb(208,176,47);stroke-width:1px;"/>
            </g>
        </g>
        <g id="Layer18">
            <g transform="matrix(1,0,0,1,22.85,22.85)">
                <path d="M914,571.25L959.7,571.25L959.7,639.8L936.85,662.65L914,639.8L914,571.25Z" style="fill:rgb(224,208,176);stroke:rgb(224,208,176);stroke-width:1px;"/>
            </g>
            <g transform="matrix(0.707107,-0.707107,0.707107,0.707107,-44.8303,833.689)">
                <path d="M914,571.25L959.7,571.25L959.7,639.8L936.85,662.65L914,639.8L914,571.25Z" style="fill:rgb(224,208,176);stroke:rgb(224,208,176);stroke-width:1px;"/>
            </g>
            <g transform="matrix(6.12323e-17,1,-1,6.12323e-17,1713.75,-411.3)">
                <path d="M936.85,571.25L959.7,594.1L959.7,662.65L914,662.65L914,594.1L936.85,571.25Z" style="fill:rgb(224,208,176);stroke:rgb(224,208,176);stroke-width:1px;"/>
            </g>
        </g>
        <g id="Layer16">
            <path d="M1782.3,1233.9L1805.15,1211.05L1828,1233.9L1805.15,1256.75L1782.3,1233.9Z" style="fill:rgb(15,79,144);stroke:rgb(15,79,144);stroke-width:1px;"/>
            <g transform="matrix(1,0,0,1,-45.7,137.1)">
                <path d="M1782.3,1233.9L1805.15,1211.05L1828,1233.9L1805.15,1256.75L1782.3,1233.9Z" style="fill:rgb(15,79,144);stroke:rgb(15,79,144);stroke-width:1px;"/>
            </g>
            <g transform="matrix(1,0,0,1,-137.1,228.5)">
                <path d="M1782.3,1233.9L1805.15,1211.05L1828,1233.9L1805.15,1256.75L1782.3,1233.9Z" style="fill:rgb(15,79,144);stroke:rgb(15,79,144);stroke-width:1px;"/>
            </g>
            <g transform="matrix(1,0,0,1,-365.6,274.2)">
                <path d="M1782.3,1233.9L1805.15,1211.05L1828,1233.9L1805.15,1256.75L1782.3,1233.9Z" style="fill:rgb(15,79,144);stroke:rgb(15,79,144);stroke-width:1px;"/>
            </g>
            <g transform="matrix(1,0,0,1,-548.4,274.2)">
                <path d="M1782.3,1233.9L1805.15,1211.05L1828,1233.9L1805.15,1256.75L1782.3,1233.9Z" style="fill:rgb(15,79,144);stroke:rgb(15,79,144);stroke-width:1px;"/>
            </g>
            <g transform="matrix(1,0,0,1,-685.5,274.2)">
                <path d="M1782.3,1233.9L1805.15,1211.05L1828,1233.9L1805.15,1256.75L1782.3,1233.9Z" style="fill:rgb(15,79,144);stroke:rgb(15,79,144);stroke-width:1px;"/>
            </g>
            <g transform="matrix(1,0,0,1,-776.9,274.2)">
                <path d="M1782.3,1233.9L1805.15,1211.05L1828,1233.9L1805.15,1256.75L1782.3,1233.9Z" style="fill:rgb(15,79,144);stroke:rgb(15,79,144);stroke-width:1px;"/>
            </g>
        </g>
        <g transform="matrix(1,0,0,1,0,-45.7)">
            <g id="Layer8">
                <path d="M1576.65,571.25L1553.8,594.1L1553.8,891.15L1690.9,891.15L1690.9,571.25L1576.65,571.25Z" style="fill:rgb(240,208,111);stroke:rgb(240,208,111);stroke-width:1px;"/>
            </g>
        </g>
        <g id="Layer12">
            <g transform="matrix(1,0,0,1,0,-91.4)">
                <rect x="1782.3" y="1028.25" width="91.4" height="91.4" style="fill:rgb(0,47,47);stroke:rgb(0,47,47);stroke-width:1px;"/>
            </g>
            <g transform="matrix(1,0,0,1,0,45.7)">
                <rect x="1782.3" y="1028.25" width="91.4" height="91.4" style="fill:rgb(0,47,47);stroke:rgb(0,47,47);stroke-width:1px;"/>
            </g>
            <g transform="matrix(1,0,0,1,2.27374e-13,-228.5)">
                <path d="M1873.7,1028.25L1782.3,1028.28L1782.3,1119.67L1873.7,1119.65L1873.7,1028.25Z" style="fill:rgb(0,47,47);stroke:rgb(0,47,47);stroke-width:1px;"/>
            </g>
            <g transform="matrix(1,0,0,1,2.27374e-13,-502.7)">
                <rect x="1782.3" y="1028.25" width="91.4" height="91.4" style="fill:rgb(0,47,47);stroke:rgb(0,47,47);stroke-width:1px;"/>
            </g>
            <g transform="matrix(1,0,0,1,4.54747e-13,-365.6)">
                <rect x="1782.3" y="1028.25" width="91.4" height="91.4" style="fill:rgb(0,47,47);stroke:rgb(0,47,47);stroke-width:1px;"/>
            </g>
            <g transform="matrix(1,0,0,1,2.27374e-13,-45.7)">
                <path d="M1873.7,434.15L1828,434.15L1782.3,479.85L1782.3,525.55L1873.7,525.55L1873.7,434.15Z" style="fill:rgb(0,47,47);stroke:rgb(0,47,47);stroke-width:1px;"/>
            </g>
            <g transform="matrix(1,0,0,1,-45.7,-45.7)">
                <path d="M1828,251.35L1873.7,297.05L1890.38,347.068L1805.15,411.3L1736.6,411.3L1736.6,342.75L1828,251.35Z" style="fill:rgb(0,47,47);stroke:rgb(0,47,47);stroke-width:1px;"/>
            </g>
            <g transform="matrix(1,0,0,1,-91.4,-45.7)">
                <path d="M1553.8,251.35L1599.5,342.75L1599.5,411.3L1530.95,411.3L1462.4,342.75L1462.4,297.05L1508.1,251.35L1553.8,251.35Z" style="fill:rgb(0,47,47);stroke:rgb(0,47,47);stroke-width:1px;"/>
            </g>
            <g transform="matrix(1,0,0,1,45.7,-45.7)">
                <rect x="1508.1" y="251.35" width="91.4" height="137.1" style="fill:rgb(0,47,47);stroke:rgb(0,47,47);stroke-width:1px;"/>
            </g>
            <g transform="matrix(1,0,0,1,45.7,45.7)">
                <path d="M1165.35,1165.35L1188.2,1142.5L1188.2,1051.1L1165.35,1028.25L959.7,1028.25L914,1073.95L1119.65,1073.95L1142.5,1096.8L1119.65,1119.65L959.7,1119.65L914,1165.35L1165.35,1165.35Z" style="fill:rgb(0,47,47);stroke:rgb(0,47,47);stroke-width:1px;"/>
            </g>
            <g transform="matrix(1,0,0,1,0,22.85)">
                <path d="M1279.6,822.6L1279.6,731.2L1256.75,708.35L1051.1,708.35L1005.4,754.05L1211.05,754.05L1233.9,776.9L1211.05,799.75L1051.1,799.75L1005.4,845.45L1256.75,845.45L1279.6,822.6Z" style="fill:rgb(0,47,47);stroke:rgb(0,47,47);stroke-width:1px;"/>
            </g>
            <g transform="matrix(1,0,0,1,2.27374e-13,-45.7)">
                <path d="M1393.85,754.05L1371,731.2L1371,685.5L1393.85,662.65L1348.15,662.65L1325.3,685.5L1325.3,754.05L1393.85,754.05Z" style="fill:rgb(0,47,47);stroke:rgb(0,47,47);stroke-width:1px;"/>
            </g>
        </g>
        <g id="Layer11">
            <g transform="matrix(1,0,0,1,45.7,-22.85)">
                <rect x="1371" y="159.95" width="45.7" height="45.7" style="fill:rgb(224,192,111);stroke:rgb(224,192,111);stroke-width:1px;"/>
            </g>
            <g transform="matrix(1,0,0,1,182.8,-22.85)">
                <rect x="1371" y="159.95" width="45.7" height="45.7" style="fill:rgb(224,192,111);stroke:rgb(224,192,111);stroke-width:1px;"/>
            </g>
            <g transform="matrix(1,0,0,1,319.9,-22.85)">
                <rect x="1371" y="159.95" width="45.7" height="45.7" style="fill:rgb(224,192,111);stroke:rgb(224,192,111);stroke-width:1px;"/>
            </g>
            <g transform="matrix(1,0,0,1,457,22.85)">
                <rect x="1371" y="159.95" width="45.7" height="45.7" style="fill:rgb(224,192,111);stroke:rgb(224,192,111);stroke-width:1px;"/>
            </g>
            <g transform="matrix(1,0,0,1,525.55,182.8)">
                <rect x="1371" y="159.95" width="45.7" height="45.7" style="fill:rgb(224,192,111);stroke:rgb(224,192,111);stroke-width:1px;"/>
            </g>
            <g transform="matrix(1,0,0,1,525.55,319.9)">
                <rect x="1371" y="159.95" width="45.7" height="45.7" style="fill:rgb(224,192,111);stroke:rgb(224,192,111);stroke-width:1px;"/>
            </g>
            <g transform="matrix(1,0,0,1,525.55,502.7)">
                <rect x="1371" y="159.95" width="45.7" height="45.7" style="fill:rgb(224,192,111);stroke:rgb(224,192,111);stroke-width:1px;"/>
            </g>
            <g transform="matrix(1,0,0,1,525.55,639.8)">
                <rect x="1371" y="159.95" width="45.7" height="45.7" style="fill:rgb(224,192,111);stroke:rgb(224,192,111);stroke-width:1px;"/>
            </g>
            <g transform="matrix(1,0,0,1,525.55,822.6)">
                <rect x="1371" y="159.95" width="45.7" height="45.7" style="fill:rgb(224,192,111);stroke:rgb(224,192,111);stroke-width:1px;"/>
            </g>
            <g transform="matrix(1,0,0,1,525.55,959.7)">
                <rect x="1371" y="159.95" width="45.7" height="45.7" style="fill:rgb(224,192,111);stroke:rgb(224,192,111);stroke-width:1px;"/>
            </g>
            <g transform="matrix(1,0,0,1,525.55,1096.8)">
                <rect x="1371" y="159.95" width="45.7" height="45.7" style="fill:rgb(224,192,111);stroke:rgb(224,192,111);stroke-width:1px;"/>
            </g>
            <g transform="matrix(1,0,0,1,319.9,1393.85)">
                <rect x="1371" y="159.95" width="45.7" height="45.7" style="fill:rgb(224,192,111);stroke:rgb(224,192,111);stroke-width:1px;"/>
            </g>
            <g transform="matrix(1,0,0,1,-45.7,1393.85)">
                <rect x="1371" y="159.95" width="45.7" height="45.7" style="fill:rgb(224,192,111);stroke:rgb(224,192,111);stroke-width:1px;"/>
            </g>
            <g transform="matrix(1,0,0,1,-228.5,1393.85)">
                <rect x="1371" y="159.95" width="45.7" height="45.7" style="fill:rgb(224,192,111);stroke:rgb(224,192,111);stroke-width:1px;"/>
            </g>
            <g transform="matrix(1,0,0,1,-411.3,1393.85)">
                <rect x="1371" y="159.95" width="45.7" height="45.7" style="fill:rgb(224,192,111);stroke:rgb(224,192,111);stroke-width:1px;"/>
            </g>
            <g transform="matrix(1,0,0,1,-594.1,1393.85)">
                <rect x="1371" y="159.95" width="45.7" height="45.7" style="fill:rgb(224,192,111);stroke:rgb(224,192,111);stroke-width:1px;"/>
            </g>
            <g transform="matrix(1,0,0,1,137.1,1393.85)">
                <rect x="1371" y="159.95" width="45.7" height="45.7" style="fill:rgb(224,192,111);stroke:rgb(224,192,111);stroke-width:1px;"/>
            </g>
            <g transform="matrix(1,0,0,1,434.15,1348.15)">
                <rect x="1371" y="159.95" width="45.7" height="45.7" style="fill:rgb(224,192,111);stroke:rgb(224,192,111);stroke-width:1px;"/>
            </g>
            <g transform="matrix(1,0,0,1,502.7,1233.9)">
                <rect x="1371" y="159.95" width="45.7" height="45.7" style="fill:rgb(224,192,111);stroke:rgb(224,192,111);stroke-width:1px;"/>
            </g>
        </g>
        <g id="Layer10" transform="matrix(1,0,0,1,-2.27374e-13,-45.675)">
            <g transform="matrix(1,0,0,1,0,-0.025)">
                <rect x="1553.8" y="616.95" width="137.1" height="45.7" style="fill:rgb(127,95,47);stroke:rgb(127,95,47);stroke-width:1px;"/>
            </g>
            <g transform="matrix(1,0,0,1,2.27374e-13,91.375)">
                <rect x="1553.8" y="616.95" width="137.1" height="45.7" style="fill:rgb(127,95,47);stroke:rgb(127,95,47);stroke-width:1px;"/>
            </g>
            <g transform="matrix(1,0,0,1,0,182.775)">
                <rect x="1553.8" y="616.95" width="137.1" height="45.7" style="fill:rgb(127,95,47);stroke:rgb(127,95,47);stroke-width:1px;"/>
            </g>
        </g>
        <g id="Layer15">
            <path d="M388.45,479.85L365.6,388.45L388.45,365.6L457,342.75L616.95,342.75L708.35,388.45L754.05,434.15L868.3,434.15L914,479.85L914,571.25L868.3,616.95L434.15,616.95L411.3,594.1L434.15,525.55L457,571.25L502.7,571.25L525.55,525.55L548.4,571.25L594.1,571.25L616.95,525.55L639.8,571.25L685.5,571.25L708.35,525.55L731.2,571.25L799.75,571.25L822.6,548.4L822.6,502.7L799.75,479.85L685.5,479.85L629.129,434.15L594.1,434.15L571.25,479.85L548.4,434.15L502.7,434.15L479.85,479.85L457,434.15L411.3,434.15L388.45,479.85Z" style="fill:rgb(240,192,31);stroke:rgb(240,192,31);stroke-width:1px;"/>
        </g>
        <g id="Layer9">
            <g transform="matrix(1,0,0,1,0,-22.85)">
                <path d="M731.2,411.3L731.2,365.6L754.05,342.75L799.75,342.75L822.6,365.6L822.6,411.3L799.75,434.15L754.05,434.15L731.2,411.3Z" style="fill:rgb(240,47,31);stroke:rgb(240,47,31);stroke-width:1px;"/>
            </g>
            <g transform="matrix(1,0,0,1,0,-0.025)">
                <path d="M822.6,1371.03L914,1416.73L1028.25,1416.73L1096.8,1393.88L1165.35,1348.17L1051.1,1371.03L959.7,1371.03L891.15,1348.17L799.75,1256.78L776.9,1188.23L776.9,1051.12L799.75,982.575L868.3,891.175L914,845.475L822.6,868.325L731.2,936.85L685.5,1028.28L685.5,1233.92L731.2,1302.48L822.6,1371.03Z" style="fill:rgb(240,31,15);stroke:rgb(240,31,15);stroke-width:1px;"/>
            </g>
            <path d="M639.8,251.35L685.5,205.65L754.05,159.95L1051.1,159.95L1096.8,114.25L1188.2,114.25L1119.65,159.95L1073.95,228.5L1028.25,251.35L1028.25,274.2L1051.1,297.05L1096.8,274.2L1142.5,205.65L1211.05,182.8L1165.35,228.5L1142.5,297.05L1096.8,342.75L1005.4,342.75L959.7,297.05L708.35,297.05L685.5,319.9L685.5,342.75L662.65,342.75L639.8,319.9L639.8,251.35Z" style="fill:rgb(240,31,15);stroke:rgb(240,31,15);stroke-width:1px;"/>
            <path d="M1256.75,731.2L1256.75,685.5L1233.9,662.65L1051.1,662.65L982.55,708.35L959.7,731.2L1256.75,731.2Z" style="fill:rgb(240,31,15);stroke:rgb(240,31,15);stroke-width:1px;"/>
        </g>
    </g>
</svg>
