<?xml version="1.0" encoding="UTF-8" standalone="no"?>
<!DOCTYPE svg PUBLIC "-//W3C//DTD SVG 1.1//EN" "http://www.w3.org/Graphics/SVG/1.1/DTD/svg11.dtd">
<svg width="100%" height="100%" viewBox="0 0 4634 3475" version="1.1" xmlns="http://www.w3.org/2000/svg" xmlns:xlink="http://www.w3.org/1999/xlink" xml:space="preserve" xmlns:serif="http://www.serif.com/" style="fill-rule:evenodd;clip-rule:evenodd;stroke-linecap:round;stroke-linejoin:round;stroke-miterlimit:1.5;">
    <g transform="matrix(2.08333,0,0,2.08333,0,0)">
        <g id="Layer4">
            <path d="M1069.2,851.4L1069.2,891L1049.4,930.6L970.2,930.6L891,851.4L871.2,851.4L831.6,772.2L792,732.6L792,653.4L910.8,653.4L950.4,772.2L990,811.8L1069.2,851.4Z" style="fill:rgb(164,132,171);stroke:rgb(164,132,171);stroke-width:1px;"/>
            <g transform="matrix(-1,0,0,1,2296.8,0)">
                <path d="M1069.2,851.4L1069.2,891L1049.4,930.6L970.2,930.6L891,851.4L871.2,851.4L831.6,772.2L792,732.6L792,653.4L910.8,653.4L950.4,772.2L990,811.8L1069.2,851.4Z" style="fill:rgb(164,132,171);stroke:rgb(164,132,171);stroke-width:1px;"/>
            </g>
            <path d="M396,1465.2L396,1564.2L455.4,1623.6L475.2,1623.6L475.2,1485L435.6,1465.2L396,1465.2Z" style="fill:rgb(164,132,171);stroke:rgb(164,132,171);stroke-width:1px;"/>
            <g transform="matrix(-1,0,0,1,2296.8,0)">
                <path d="M396,1465.2L396,1564.2L455.4,1623.6L475.2,1623.6L475.2,1485L435.6,1465.2L396,1465.2Z" style="fill:rgb(164,132,171);stroke:rgb(164,132,171);stroke-width:1px;"/>
            </g>
            <path d="M594,1485L574.2,1465.2L534.6,1465.2L514.8,1485L514.8,1603.8L534.6,1623.6L574.2,1623.6L594,1603.8L594,1485Z" style="fill:rgb(164,132,171);stroke:rgb(164,132,171);stroke-width:1px;"/>
            <g transform="matrix(-1,0,0,1,2296.8,0)">
                <path d="M594,1485L574.2,1465.2L534.6,1465.2L514.8,1485L514.8,1603.8L534.6,1623.6L574.2,1623.6L594,1603.8L594,1485Z" style="fill:rgb(164,132,171);stroke:rgb(164,132,171);stroke-width:1px;"/>
            </g>
            <path d="M673.2,1485L673.2,1524.6L693,1564.2L752.4,1623.6L792,1623.6L792,1485L673.2,1485Z" style="fill:rgb(164,132,171);stroke:rgb(164,132,171);stroke-width:1px;"/>
            <g transform="matrix(-1,0,0,1,2296.8,0)">
                <path d="M673.2,1485L673.2,1524.6L693,1564.2L752.4,1623.6L792,1623.6L792,1485L673.2,1485Z" style="fill:rgb(164,132,171);stroke:rgb(164,132,171);stroke-width:1px;"/>
            </g>
            <path d="M792,1326.6L891,1326.6L990,1425.6L990,1603.8L970.2,1623.6L891,1623.6L871.2,1603.8L871.2,1544.4L851.4,1485L792,1366.2L792,1346.4L792,1326.6Z" style="fill:rgb(164,132,171);stroke:rgb(164,132,171);stroke-width:1px;"/>
            <g transform="matrix(-1,0,0,1,2296.8,0)">
                <path d="M792,1326.6L891,1326.6L990,1425.6L990,1603.8L970.2,1623.6L891,1623.6L871.2,1603.8L871.2,1544.4L851.4,1485L792,1366.2L792,1346.4L792,1326.6Z" style="fill:rgb(164,132,171);stroke:rgb(164,132,171);stroke-width:1px;"/>
            </g>
        </g>
        <g id="Layer2" transform="matrix(-1,0,0,1,2296.8,0)">
            <path d="M554.4,970.2L475.2,970.2L356.4,1089L356.4,1306.8L376.2,1326.6L554.4,1326.6L554.4,970.2" style="fill:rgb(161,57,48);stroke:rgb(161,57,48);stroke-width:1px;"/>
            <path d="M910.8,653.4L435.6,653.4L435.6,455.4L455.4,415.8L475.2,396L495,376.2L514.8,336.6L752.4,336.6L752.4,435.6L910.8,594L910.8,653.4Z" style="fill:rgb(161,57,48);stroke:rgb(161,57,48);stroke-width:1px;"/>
            <g transform="matrix(-1,0,0,1,2296.8,0)">
                <path d="M554.4,970.2L475.2,970.2L356.4,1089L356.4,1306.8L376.2,1326.6L554.4,1326.6L554.4,970.2" style="fill:rgb(161,57,48);stroke:rgb(161,57,48);stroke-width:1px;"/>
            </g>
            <g transform="matrix(-1,0,0,1,2296.8,0)">
                <path d="M910.8,653.4L435.6,653.4L435.6,455.4L455.4,415.8L475.2,396L495,376.2L514.8,336.6L752.4,336.6L752.4,435.6L910.8,594L910.8,653.4Z" style="fill:rgb(161,57,48);stroke:rgb(161,57,48);stroke-width:1px;"/>
            </g>
            <g transform="matrix(-1,0,0,1,2296.8,0)">
                <path d="M1108.8,1168.2L1069.2,1168.2L1029.6,1148.4L979.375,1098.59L970.2,1049.4L1009.8,976.659L1029.6,950.4L1049.4,930.6L1069.2,891L1069.2,851.4L1049.4,831.6L990,811.8L950.4,772.2L950.4,633.6L930.6,633.6L930.6,415.8L871.2,356.4L950.4,257.4L990,237.6L1306.8,237.6L1366.2,257.4L1425.6,356.4L1366.2,415.8L1366.2,633.6L1346.4,633.6L1346.4,772.2L1306.8,811.8L1247.4,831.6L1227.6,851.4L1227.6,891L1247.4,930.6L1257.31,950.4L1275.5,970.2L1326.6,1049.4L1326.6,1089L1287,1128.6L1247.4,1148.4L1188,1168.2L1168.2,1168.2L1128.6,1168.2L1108.8,1168.2Z" style="fill:rgb(161,57,48);stroke:rgb(161,57,48);stroke-width:1px;"/>
            </g>
        </g>
        <g id="Layer1">
            <path d="M1128.6,1346.4L1069.2,1188L1069.2,1148.4L1108.8,1148.4L1128.6,1168.2L1168.2,1168.2L1188,1148.4L1227.6,1148.4L1227.6,1188L1168.2,1346.4L1148.4,1366.2L1128.6,1346.4Z" style="fill:rgb(214,132,81);stroke:rgb(214,132,81);stroke-width:1px;"/>
            <path d="M594,653.4L594,693L554.4,732.6L514.8,732.6L475.2,693L475.2,653.4L594,653.4Z" style="fill:rgb(214,132,81);stroke:rgb(214,132,81);stroke-width:1px;"/>
            <g transform="matrix(-1,0,0,1,2296.8,0)">
                <path d="M594,653.4L594,693L554.4,732.6L514.8,732.6L475.2,693L475.2,653.4L594,653.4Z" style="fill:rgb(214,132,81);stroke:rgb(214,132,81);stroke-width:1px;"/>
            </g>
            <g transform="matrix(1,0,0,1,198,0)">
                <path d="M594,653.4L594,693L554.4,732.6L514.8,732.6L475.2,693L475.2,653.4L594,653.4Z" style="fill:rgb(214,132,81);stroke:rgb(214,132,81);stroke-width:1px;"/>
            </g>
            <g transform="matrix(-1,0,0,1,2098.8,0)">
                <path d="M594,653.4L594,693L554.4,732.6L514.8,732.6L475.2,693L475.2,653.4L594,653.4Z" style="fill:rgb(214,132,81);stroke:rgb(214,132,81);stroke-width:1px;"/>
            </g>
            <path d="M435.6,653.4L396,653.4L356.4,613.8L356.4,574.2L396,534.6L435.6,534.6L435.6,653.4Z" style="fill:rgb(214,132,81);stroke:rgb(214,132,81);stroke-width:1px;"/>
            <g transform="matrix(-1,0,0,1,2296.8,0)">
                <path d="M435.6,653.4L396,653.4L356.4,613.8L356.4,574.2L396,534.6L435.6,534.6L435.6,653.4Z" style="fill:rgb(214,132,81);stroke:rgb(214,132,81);stroke-width:1px;"/>
            </g>
            <path d="M554.4,930.6L514.8,930.6L475.2,891L475.2,851.4L514.8,811.8L554.4,811.8L554.4,930.6Z" style="fill:rgb(214,132,81);stroke:rgb(214,132,81);stroke-width:1px;"/>
            <g transform="matrix(-1,0,0,1,2296.8,0)">
                <path d="M554.4,930.6L514.8,930.6L475.2,891L475.2,851.4L514.8,811.8L554.4,811.8L554.4,930.6Z" style="fill:rgb(214,132,81);stroke:rgb(214,132,81);stroke-width:1px;"/>
            </g>
            <path d="M554.4,1049.4L534.6,1049.4L495,1089L475.2,1128.6L475.2,1168.2L495,1207.8L534.6,1247.4L554.4,1247.4L554.4,1049.4Z" style="fill:rgb(214,132,81);stroke:rgb(214,132,81);stroke-width:1px;"/>
            <g transform="matrix(-1,0,0,1,2296.8,0)">
                <path d="M554.4,1049.4L534.6,1049.4L495,1089L475.2,1128.6L475.2,1168.2L495,1207.8L534.6,1247.4L554.4,1247.4L554.4,1049.4Z" style="fill:rgb(214,132,81);stroke:rgb(214,132,81);stroke-width:1px;"/>
            </g>
            <path d="M930.6,169.051L995.674,237.6L990,257.4L950.4,277.2L881.1,346.5L950.4,415.8L950.4,514.8L930.6,514.8L752.4,336.6L742.643,297L772.2,267.251L811.8,268.444L856.84,316.8L903.481,269.423L910.8,170.423L930.6,169.051Z" style="fill:rgb(214,132,81);stroke:rgb(214,132,81);stroke-width:1px;"/>
            <g transform="matrix(-1,0,0,1,2296.8,0)">
                <path d="M930.6,158.4L1009.8,237.6L990,257.4L950.4,277.2L881.1,346.5L950.4,415.8L950.4,505.929L930.6,504.68L752.4,327.902L732.6,297L772.2,257.4L811.8,257.4L851.4,316.8L891,257.4L910.8,158.4L930.6,158.4Z" style="fill:rgb(214,132,81);stroke:rgb(214,132,81);stroke-width:1px;"/>
            </g>
            <path d="M1029.6,237.6L1089,178.2L1108.8,178.2L1112,257.4L1029.6,257.4L1029.6,237.6Z" style="fill:rgb(214,132,81);stroke:rgb(214,132,81);stroke-width:1px;"/>
            <g transform="matrix(-1,0,0,1,2296.8,0)">
                <path d="M1029.6,237.6L1089,178.2L1108.8,178.2L1112,257.4L1029.6,257.4L1029.6,237.6Z" style="fill:rgb(214,132,81);stroke:rgb(214,132,81);stroke-width:1px;"/>
            </g>
        </g>
        <g id="Layer5">
            <path d="M693,693L772.2,732.6L772.2,1306.8L792,1326.6L792,1366.2L851.4,1485L613.8,1485L554.4,1425.6L554.4,732.6L594,693L693,693Z" style="fill:rgb(127,29,21);stroke:rgb(127,29,21);stroke-width:1px;"/>
            <g transform="matrix(-1,0,0,1,2296.8,0)">
                <path d="M693,693L772.2,732.6L772.2,1287L792,1326.6L792,1366.2L851.4,1485L613.8,1485L554.4,1425.6L554.4,732.6L594,693L693,693Z" style="fill:rgb(127,29,21);stroke:rgb(127,29,21);stroke-width:1px;"/>
            </g>
            <path d="M613.8,653.4L613.8,633.6L633.6,594L653.4,574.2L693,574.2L712.8,594L732.6,633.6L732.6,653.4L613.8,653.4Z" style="fill:rgb(127,29,21);stroke:rgb(127,29,21);stroke-width:1px;"/>
            <g transform="matrix(-1,0,0,1,2296.8,0)">
                <path d="M613.8,653.4L613.8,633.6L633.6,594L653.4,574.2L693,574.2L712.8,594L732.6,633.6L732.6,653.4L613.8,653.4Z" style="fill:rgb(127,29,21);stroke:rgb(127,29,21);stroke-width:1px;"/>
            </g>
            <path d="M772.2,653.4L772.2,633.6L792,594L811.8,574.2L851.4,574.2L871.2,594L891,633.6L891,653.4L772.2,653.4Z" style="fill:rgb(127,29,21);stroke:rgb(127,29,21);stroke-width:1px;"/>
            <g transform="matrix(-1,0,0,1,2296.8,0)">
                <path d="M772.2,653.4L772.2,633.6L792,594L811.8,574.2L851.4,574.2L871.2,594L891,633.6L891,653.4L772.2,653.4Z" style="fill:rgb(127,29,21);stroke:rgb(127,29,21);stroke-width:1px;"/>
            </g>
            <path d="M712.8,554.4L712.8,514.8L732.6,495L772.2,495L792,514.8L792,554.4L772.2,574.2L732.6,574.2L712.8,554.4Z" style="fill:rgb(127,29,21);stroke:rgb(127,29,21);stroke-width:1px;"/>
            <g transform="matrix(-1,0,0,1,2296.8,0)">
                <path d="M712.8,554.4L712.8,514.8L732.6,495L772.2,495L792,514.8L792,554.4L772.2,574.2L732.6,574.2L712.8,554.4Z" style="fill:rgb(127,29,21);stroke:rgb(127,29,21);stroke-width:1px;"/>
            </g>
            <g transform="matrix(1,0,0,1,-79.2,-79.2)">
                <path d="M712.8,554.4L712.8,514.8L732.6,495L772.2,495L792,514.8L792,554.4L772.2,574.2L732.6,574.2L712.8,554.4Z" style="fill:rgb(127,29,21);stroke:rgb(127,29,21);stroke-width:1px;"/>
            </g>
            <g transform="matrix(-1,0,0,1,2376,-79.2)">
                <path d="M712.8,554.4L712.8,514.8L732.6,495L772.2,495L792,514.8L792,554.4L772.2,574.2L732.6,574.2L712.8,554.4Z" style="fill:rgb(127,29,21);stroke:rgb(127,29,21);stroke-width:1px;"/>
            </g>
            <g transform="matrix(1,0,0,1,-158.4,1.7053e-13)">
                <path d="M712.8,554.4L712.8,514.8L732.6,495L772.2,495L792,514.8L792,554.4L772.2,574.2L732.6,574.2L712.8,554.4Z" style="fill:rgb(127,29,21);stroke:rgb(127,29,21);stroke-width:1px;"/>
            </g>
            <g transform="matrix(-1,0,0,1,2455.2,1.7053e-13)">
                <path d="M712.8,554.4L712.8,514.8L732.6,495L772.2,495L792,514.8L792,554.4L772.2,574.2L732.6,574.2L712.8,554.4Z" style="fill:rgb(127,29,21);stroke:rgb(127,29,21);stroke-width:1px;"/>
            </g>
            <path d="M574.2,653.4L574.2,633.6L554.4,594L534.6,574.2L495,554.4L475.2,534.6L495,514.8L534.6,495L554.4,475.2L554.4,435.6L534.6,415.8L495,396L475.2,396L455.4,415.8L435.6,455.4L415.8,495L415.8,534.6L435.6,534.6L435.6,653.4L574.2,653.4Z" style="fill:rgb(127,29,21);stroke:rgb(127,29,21);stroke-width:1px;"/>
            <g transform="matrix(-1,0,0,1,2296.8,0)">
                <path d="M574.2,653.4L574.2,633.6L554.4,594L534.6,574.2L495,554.4L475.2,534.6L495,514.8L534.6,495L554.4,475.2L554.4,435.6L534.6,415.8L495,396L475.2,396L455.4,415.8L435.6,455.4L415.8,495L415.8,534.6L435.6,534.6L435.6,653.4L574.2,653.4Z" style="fill:rgb(127,29,21);stroke:rgb(127,29,21);stroke-width:1px;"/>
            </g>
            <path d="M1108.8,178.2L1089,178.2L1029.6,237.6L1029.6,257.4L990,257.4L990,237.6L930.6,178.2L910.8,178.2L910.8,277.2L851.4,336.6L811.8,277.2L772.2,277.2L752.4,297L752.4,415.8L732.6,415.8L712.8,396L693,356.4L673.2,336.6L653.4,356.4L633.6,396L613.8,415.8L574.2,415.8L554.4,396L534.6,356.4L514.8,336.6L534.6,297L554.4,257.4L594,178.2L633.6,138.6L712.8,99L831.6,59.4L1465.2,59.4L1584,99L1663.2,138.6L1702.8,178.2L1782,336.6L1762.2,356.4L1742.4,396L1722.6,415.8L1683,415.8L1663.2,396L1643.4,356.4L1623.6,336.6L1603.8,356.4L1584,396L1564.2,415.8L1544.4,415.8L1544.4,297L1524.6,277.2L1485,277.2L1445.4,336.6L1386,277.2L1386,178.2L1366.2,178.2L1306.8,237.6L1306.8,257.4L1267.2,257.4L1267.2,237.6L1207.8,178.2L1188,178.2L1188,257.4L1108.8,257.4L1108.8,178.2Z" style="fill:rgb(127,29,21);stroke:rgb(127,29,21);stroke-width:1px;"/>
        </g>
        <g id="Layer3">
            <path d="M1069.2,811.8L1029.6,811.8L1009.8,732.6L990,693L990,653.4L990,554.4L1009.8,554.4L1029.6,574.2L1049.4,613.8L1069.2,693L1069.2,811.8Z" style="fill:rgb(109,72,69);stroke:rgb(109,72,69);stroke-width:1px;"/>
            <g transform="matrix(-1,0,0,1,2296.8,0)">
                <path d="M1069.2,811.8L1029.6,811.8L1009.8,732.6L990,693L990,653.4L990,554.4L1009.8,554.4L1029.6,574.2L1049.4,613.8L1069.2,693L1069.2,811.8Z" style="fill:rgb(109,72,69);stroke:rgb(109,72,69);stroke-width:1px;"/>
            </g>
            <path d="M1267.2,1445.4L1029.6,1445.4L871.2,1287L871.2,851.4L891,851.4L970.2,930.6L1049.4,930.6L1049.4,950.4L1029.6,970.2L990,1049.4L990,1089L1029.6,1128.6L1069.2,1148.4L1069.2,1188L1128.6,1346.4L1148.4,1366.2L1168.2,1346.4L1227.6,1188L1227.6,1148.4L1267.2,1128.6L1306.8,1089L1306.8,1049.4L1267.2,970.2L1247.4,950.4L1247.4,930.6L1326.6,930.6L1405.8,851.4L1425.6,851.4L1425.6,1287L1267.2,1445.4Z" style="fill:rgb(109,72,69);stroke:rgb(109,72,69);stroke-width:1px;"/>
            <path d="M891,1326.6L871.2,1306.8L851.4,1287L831.6,1207.8L831.6,871.2L811.8,792L792,752.4L772.2,732.6L752.4,722.7L752.4,1306.8L792,1346.4L811.8,1326.6L891,1326.6Z" style="fill:rgb(109,72,69);stroke:rgb(109,72,69);stroke-width:1px;"/>
            <g transform="matrix(-1,0,0,1,2296.8,0)">
                <path d="M891,1326.6L871.2,1306.8L851.4,1287L831.6,1207.8L831.6,871.2L811.8,792L792,752.4L772.2,732.6L752.4,722.7L752.4,1306.8L792,1346.4L811.8,1326.6L891,1326.6Z" style="fill:rgb(109,72,69);stroke:rgb(109,72,69);stroke-width:1px;"/>
            </g>
            <path d="M376.2,1326.6L396,1386L396,1465.2L435.6,1465.2L475.2,1485L475.2,1524.6L514.8,1524.6L514.8,1485L534.6,1465.2L554.4,1465.2L554.4,1326.6L376.2,1326.6Z" style="fill:rgb(109,72,69);stroke:rgb(109,72,69);stroke-width:1px;"/>
            <g transform="matrix(-1,0,0,1,2296.8,0)">
                <path d="M376.2,1326.6L396,1386L396,1465.2L435.6,1465.2L475.2,1485L475.2,1524.6L514.8,1524.6L514.8,1485L534.6,1465.2L554.4,1465.2L554.4,1326.6L376.2,1326.6Z" style="fill:rgb(109,72,69);stroke:rgb(109,72,69);stroke-width:1px;"/>
            </g>
        </g>
        <g id="Layer6">
            <path d="M752.4,316.8L752.4,435.6L910.8,594L930.6,633.6L950.4,633.6L950.4,495L930.6,495L752.4,316.8Z" style="fill:rgb(98,135,118);stroke:rgb(98,135,118);stroke-width:1px;"/>
            <g transform="matrix(-1,0,0,1,2296.8,0)">
                <path d="M752.4,316.8L752.4,435.6L910.8,594L930.6,633.6L950.4,633.6L950.4,495L930.6,495L752.4,316.8Z" style="fill:rgb(98,135,118);stroke:rgb(98,135,118);stroke-width:1px;"/>
            </g>
            <path d="M1009.8,653.4L1029.6,673.2L1009.8,693L990,673.2L1009.8,653.4Z" style="fill:rgb(98,135,118);stroke:rgb(98,135,118);stroke-width:1px;"/>
            <g transform="matrix(-1,0,0,1,2296.8,0)">
                <path d="M1009.8,653.4L1029.6,673.2L1009.8,693L990,673.2L1009.8,653.4Z" style="fill:rgb(98,135,118);stroke:rgb(98,135,118);stroke-width:1px;"/>
            </g>
        </g>
    </g>
</svg>
