<?xml version="1.0" encoding="UTF-8" standalone="no"?>
<!DOCTYPE svg PUBLIC "-//W3C//DTD SVG 1.1//EN" "http://www.w3.org/Graphics/SVG/1.1/DTD/svg11.dtd">
<svg width="100%" height="100%" viewBox="0 0 4634 3475" version="1.1" xmlns="http://www.w3.org/2000/svg" xmlns:xlink="http://www.w3.org/1999/xlink" xml:space="preserve" xmlns:serif="http://www.serif.com/" style="fill-rule:evenodd;clip-rule:evenodd;stroke-linecap:round;stroke-linejoin:round;stroke-miterlimit:1.5;">
    <g transform="matrix(2.08333,0,0,2.08333,0,0)">
        <g id="Layer8">
            <g transform="matrix(1,0,0,1,-30.5,-11.45)">
                <path d="M548.4,1622.35L548.4,1530.95L502.7,1485.25L411.3,1485.25L411.3,1576.65L457,1622.35L548.4,1622.35Z" style="fill:rgb(33,0,81);stroke:rgb(33,0,81);stroke-width:1px;"/>
            </g>
            <g transform="matrix(1,0,0,1,-30.5,-11.45)">
                <rect x="594.1" y="1530.95" width="137.1" height="91.4" style="fill:rgb(33,0,81);stroke:rgb(33,0,81);stroke-width:1px;"/>
            </g>
            <g transform="matrix(1,0,0,1,152.3,-11.45)">
                <rect x="594.1" y="1530.95" width="137.1" height="91.4" style="fill:rgb(33,0,81);stroke:rgb(33,0,81);stroke-width:1px;"/>
            </g>
            <g transform="matrix(1,0,0,1,335.1,-11.45)">
                <rect x="594.1" y="1530.95" width="137.1" height="91.4" style="fill:rgb(33,0,81);stroke:rgb(33,0,81);stroke-width:1px;"/>
            </g>
            <g transform="matrix(1,0,0,1,517.9,-11.45)">
                <rect x="594.1" y="1530.95" width="137.1" height="91.4" style="fill:rgb(33,0,81);stroke:rgb(33,0,81);stroke-width:1px;"/>
            </g>
            <g transform="matrix(1,0,0,1,700.7,-11.45)">
                <rect x="594.1" y="1530.95" width="137.1" height="91.4" style="fill:rgb(33,0,81);stroke:rgb(33,0,81);stroke-width:1px;"/>
            </g>
            <g transform="matrix(1,0,0,1,883.5,-11.45)">
                <rect x="594.1" y="1530.95" width="137.1" height="91.4" style="fill:rgb(33,0,81);stroke:rgb(33,0,81);stroke-width:1px;"/>
            </g>
            <g transform="matrix(1,0,0,1,-30.5,-11.45)">
                <path d="M1690.9,1530.95L1759.45,1462.4L1805.15,1462.4L1873.7,1530.95L1873.7,1576.65L1828,1622.35L1690.9,1622.35L1690.9,1530.95Z" style="fill:rgb(33,0,81);stroke:rgb(33,0,81);stroke-width:1px;"/>
            </g>
            <g transform="matrix(1,0,0,1,-30.5,-11.45)">
                <path d="M1828,1439.55L1828,1256.75L1919.4,1256.75L1919.4,1485.25L1873.7,1485.25L1828,1439.55Z" style="fill:rgb(33,0,81);stroke:rgb(33,0,81);stroke-width:1px;"/>
            </g>
            <g transform="matrix(1,0,0,1,-30.5,-11.45)">
                <rect x="1828" y="1073.95" width="91.4" height="137.1" style="fill:rgb(33,0,81);stroke:rgb(33,0,81);stroke-width:1px;"/>
            </g>
            <g transform="matrix(1,0,0,1,-30.5,-11.45)">
                <rect x="1828" y="891.15" width="91.4" height="137.1" style="fill:rgb(33,0,81);stroke:rgb(33,0,81);stroke-width:1px;"/>
            </g>
            <g transform="matrix(1,0,0,1,-30.5,-11.45)">
                <path d="M1325.3,1439.55L1211.05,1439.55L1188.2,1416.7L1188.2,1393.85L1165.35,1371L1142.5,1371L1142.5,1462.4L1165.35,1485.25L1302.45,1485.25L1325.3,1462.4L1325.3,1439.55Z" style="fill:rgb(33,0,81);stroke:rgb(33,0,81);stroke-width:1px;"/>
            </g>
            <g transform="matrix(1,0,0,1,-30.5,-11.45)">
                <path d="M868.3,754.05L868.3,708.35L822.6,662.65L685.5,662.65L639.8,616.95L548.4,571.25L411.3,571.25L411.3,594.1L502.7,662.65L639.8,708.35L754.05,708.35L822.6,731.2L845.45,754.05L868.3,754.05Z" style="fill:rgb(33,0,81);stroke:rgb(33,0,81);stroke-width:1px;"/>
            </g>
            <g transform="matrix(1,0,0,1,-30.5,-11.45)">
                <path d="M639.8,502.7L616.95,525.55L594.1,525.55L502.7,479.85L411.3,411.3L411.3,388.45L616.95,388.45L639.8,411.3L639.8,502.7Z" style="fill:rgb(33,0,81);stroke:rgb(33,0,81);stroke-width:1px;"/>
            </g>
            <g transform="matrix(1,0,0,1,-30.5,-11.45)">
                <path d="M685.5,319.9L685.5,251.35L639.8,205.65L502.7,159.95L411.3,159.95L411.3,182.8L457,251.35L525.55,319.9L594.1,342.75L662.65,342.75L685.5,319.9Z" style="fill:rgb(33,0,81);stroke:rgb(33,0,81);stroke-width:1px;"/>
            </g>
            <g transform="matrix(1,0,0,1,-30.5,-11.45)">
                <path d="M685.5,205.65L662.65,68.55L776.9,159.95L822.6,205.65L822.6,274.2L799.75,297.05L731.2,297.05L685.5,205.65Z" style="fill:rgb(33,0,81);stroke:rgb(33,0,81);stroke-width:1px;"/>
            </g>
            <g transform="matrix(1,0,0,1,-30.5,-11.45)">
                <path d="M868.3,297.05L868.3,228.5L891.15,205.65L959.7,205.65L959.7,251.35L936.85,251.35L914,274.2L914,297.05L868.3,297.05Z" style="fill:rgb(33,0,81);stroke:rgb(33,0,81);stroke-width:1px;"/>
            </g>
            <g transform="matrix(1,0,0,1,-30.5,-11.45)">
                <path d="M1005.4,342.75L1051.1,342.75L1096.8,388.45L1096.8,525.55L1142.5,571.25L1211.05,571.25L1233.9,594.1L1233.9,639.8L1211.05,662.65L1096.8,662.65L1051.1,616.95L1005.4,571.25L1005.4,342.75Z" style="fill:rgb(33,0,81);stroke:rgb(33,0,81);stroke-width:1px;"/>
            </g>
            <g transform="matrix(1,0,0,1,-30.5,-11.45)">
                <path d="M1416.7,1233.9L1416.7,1188.2L1371,1119.65L1302.45,1073.95L1279.6,1073.95L1188.2,1096.8L1142.5,1119.65L1142.5,1165.35L1165.35,1165.35L1188.2,1142.5L1233.9,1142.5L1256.75,1165.35L1302.45,1188.2L1325.3,1211.05L1325.3,1233.9L1348.15,1256.75L1393.85,1256.75L1416.7,1233.9Z" style="fill:rgb(33,0,81);stroke:rgb(33,0,81);stroke-width:1px;"/>
            </g>
            <g transform="matrix(1,0,0,1,-30.5,-11.45)">
                <path d="M1279.6,639.8L1279.6,479.85L1233.9,434.15L1188.2,388.45L1142.5,342.75L1096.8,297.05L1051.1,251.35L1005.4,205.65L1005.4,114.25L1051.1,68.55L1919.4,68.55L1919.4,114.25L1873.7,159.95L1873.7,205.65L1828,205.65L1828,251.35L1850.85,251.35L1850.85,274.2L1828,297.05L1805.15,297.05L1782.3,388.45L1805.15,388.45L1805.15,411.3L1782.3,434.15L1759.45,434.15L1622.35,525.55L1371,525.55L1371,639.8L1348.15,662.65L1302.45,662.65L1279.6,639.8Z" style="fill:rgb(33,0,81);stroke:rgb(33,0,81);stroke-width:1px;"/>
            </g>
            <g transform="matrix(1,0,0,1,-30.5,-11.45)">
                <path d="M1919.4,845.45L1919.4,662.65L1873.7,616.95L1828,571.25L1462.4,571.25L1416.7,616.95L1371,662.65L1371,1028.25L1462.4,1119.65L1668.05,1119.65L1690.9,1142.5L1690.9,1256.75L1645.2,1302.45L1599.5,1348.15L1553.8,1393.85L1530.95,1393.85L1416.7,1348.15L1325.3,1302.45L1279.6,1256.75L1233.9,1211.05L1165.35,1211.05L1142.5,1233.9L1142.5,1302.45L1188.2,1348.15L1462.4,1485.25L1599.5,1485.25L1645.2,1439.55L1690.9,1393.85L1736.6,1348.15L1782.3,1302.45L1782.3,1119.65L1736.6,1073.95L1736.6,1028.25L1782.3,982.55L1782.3,799.75L1736.6,754.05L1553.8,754.05L1508.1,799.75L1508.1,936.85L1553.8,982.55L1599.5,982.55L1645.2,936.85L1645.2,891.15L1645.2,868.3L1622.35,891.15L1599.5,891.15L1599.5,868.3L1622.35,845.45L1690.9,845.45L1690.9,1028.25L1508.1,1028.25L1462.4,982.55L1462.4,731.2L1485.25,708.35L1805.15,708.35L1828,731.2L1828,845.45L1919.4,845.45Z" style="fill:rgb(33,0,81);stroke:rgb(33,0,81);stroke-width:1px;"/>
            </g>
        </g>
        <g id="Layer14">
            <g transform="matrix(1,0,0,1,-30.5,-11.45)">
                <path d="M1096.8,251.35L1051.1,205.65L1051.1,182.8L1073.95,159.95L1873.7,159.95L1873.7,205.65L1828,251.35L1096.8,251.35Z" style="fill:rgb(31,95,162);stroke:rgb(31,95,162);stroke-width:1px;"/>
            </g>
            <g transform="matrix(1,0,0,1,-30.5,-11.45)">
                <path d="M1188.2,342.75L1188.2,319.9L1211.05,297.05L1828,297.05L1828,342.75L1782.3,388.45L1233.9,388.45L1188.2,342.75Z" style="fill:rgb(31,95,162);stroke:rgb(31,95,162);stroke-width:1px;"/>
            </g>
            <g transform="matrix(1,0,0,1,-30.5,-11.45)">
                <path d="M1348.15,434.15L1325.3,457L1325.3,479.85L1371,525.55L1736.6,525.55L1782.3,479.85L1782.3,434.15L1348.15,434.15Z" style="fill:rgb(31,95,162);stroke:rgb(31,95,162);stroke-width:1px;"/>
            </g>
        </g>
        <g id="Layer13">
            <g transform="matrix(1,0,0,1,-30.5,-11.45)">
                <path d="M685.5,914L685.5,845.45L639.8,799.75L594.1,754.05L548.4,731.2L502.7,708.35L479.85,662.65L434.15,639.8L388.45,639.8L365.6,662.65L365.6,776.9L434.15,845.45L616.95,891.15L639.8,914L685.5,914Z" style="fill:rgb(195,13,238);stroke:rgb(195,13,238);stroke-width:1px;"/>
            </g>
            <g transform="matrix(1,0,0,1,-30.5,-11.45)">
                <path d="M868.3,891.15L868.3,799.75L891.15,754.05L959.7,708.35L982.55,708.35L1005.4,731.2L1005.4,845.45L959.7,891.15L868.3,891.15Z" style="fill:rgb(195,13,238);stroke:rgb(195,13,238);stroke-width:1px;"/>
            </g>
            <g transform="matrix(1,0,0,1,-30.5,-11.45)">
                <path d="M1096.8,457L1096.8,388.45L1142.5,434.15L1188.2,411.3L1142.5,479.85L1096.8,457Z" style="fill:rgb(195,13,238);stroke:rgb(195,13,238);stroke-width:1px;"/>
            </g>
            <g transform="matrix(1,0,0,1,-30.5,-11.45)">
                <path d="M1051.1,319.9L1005.4,297.05L982.55,251.35L959.7,342.75L1051.1,319.9Z" style="fill:rgb(195,13,238);stroke:rgb(195,13,238);stroke-width:1px;"/>
            </g>
            <g transform="matrix(1,0,0,1,-30.5,-11.45)">
                <path d="M959.7,137.1L959.7,91.4L936.85,68.55L776.9,68.55L776.9,91.4L868.3,159.95L936.85,159.95L959.7,137.1Z" style="fill:rgb(195,13,238);stroke:rgb(195,13,238);stroke-width:1px;"/>
            </g>
        </g>
        <g id="Layer12">
            <g transform="matrix(1,0,0,1,-30.5,-11.45)">
                <path d="M502.7,1439.55L502.7,1371L470.057,1302.45L457,1256.75L457,1211.05L426.533,1256.75L411.3,1348.15L411.3,1439.55L502.7,1439.55Z" style="fill:rgb(161,193,150);stroke:rgb(161,193,150);stroke-width:1px;"/>
            </g>
            <g transform="matrix(1,0,0,1,-30.5,-11.45)">
                <path d="M1028.25,1165.35L1028.25,1142.5L1073.95,1096.8L1096.8,1096.8L1119.65,1119.65L1119.65,1165.35L1051.1,1165.35L1028.25,1188.2L1028.25,1165.35Z" style="fill:rgb(161,193,150);stroke:rgb(161,193,150);stroke-width:1px;"/>
            </g>
            <g transform="matrix(1,0,0,1,-30.5,125.65)">
                <path d="M1028.25,1165.35L1028.25,1142.5L1073.95,1096.8L1096.8,1096.8L1119.65,1119.65L1119.65,1165.35L1051.1,1165.35L1028.25,1188.2L1028.25,1165.35Z" style="fill:rgb(161,193,150);stroke:rgb(161,193,150);stroke-width:1px;"/>
            </g>
            <g transform="matrix(1,0,0,1,-30.5,262.75)">
                <path d="M1028.25,1165.35L1028.25,1142.5L1073.95,1096.8L1096.8,1096.8L1119.65,1119.65L1119.65,1165.35L1051.1,1165.35L1028.25,1188.2L1028.25,1165.35Z" style="fill:rgb(161,193,150);stroke:rgb(161,193,150);stroke-width:1px;"/>
            </g>
        </g>
        <g transform="matrix(1,0,0,1,-30.5,-11.45)">
            <g id="Layer11">
                <path d="M799.75,914L845.45,936.85L936.85,936.85L959.7,959.7L959.7,1348.15L914,1439.55L868.3,1485.25L708.35,1485.25L639.8,1439.55L685.5,1439.55L776.9,1416.7L822.6,1393.85L822.6,1302.45L799.75,1302.45L776.9,1279.6L799.75,1279.6L868.3,1233.9L868.3,1119.65L822.6,1119.65L799.75,1096.8L822.6,1096.8L868.3,1073.95L868.3,1005.4L845.45,982.55L799.75,982.55L799.75,914Z" style="fill:rgb(158,128,145);stroke:rgb(158,128,145);stroke-width:1px;"/>
            </g>
        </g>
        <g id="Layer10">
            <g transform="matrix(1,0,0,1,-30.5,-11.45)">
                <path d="M502.7,891.15L457,891.15L457,914L502.7,936.85L548.4,982.55L548.4,1211.05L594.1,1302.45L639.8,1348.15L731.2,1348.15L776.9,1325.3L754.05,1325.3L731.2,1302.45L731.2,1211.05L776.9,1211.05L822.6,1188.2L799.75,1188.2L754.05,1165.35L731.2,1119.65L731.2,1028.25L822.6,982.55L822.6,754.05L799.75,754.05L776.9,776.9L776.9,799.75L754.05,868.3L731.2,914L708.35,936.85L616.95,936.85L594.1,914L594.1,891.15L502.7,891.15Z" style="fill:rgb(143,95,97);stroke:rgb(143,95,97);stroke-width:1px;"/>
            </g>
            <g transform="matrix(1,0,0,1,-30.5,-11.45)">
                <path d="M959.7,365.6L959.7,411.3L936.85,434.15L799.75,434.15L776.9,457L776.9,548.4L799.75,571.25L914,571.25L959.7,616.95L959.7,685.5L936.85,708.35L914,708.35L914,662.65L868.3,616.95L731.2,616.95L685.5,571.25L685.5,388.45L731.2,342.75L936.85,342.75L959.7,365.6Z" style="fill:rgb(143,95,97);stroke:rgb(143,95,97);stroke-width:1px;"/>
            </g>
            <g transform="matrix(1,0,0,1,-30.5,-11.45)">
                <path d="M1005.4,616.95L1005.4,708.35L1051.1,754.05L1188.2,776.9L1188.2,914L1256.75,982.55L1302.45,982.55L1325.3,959.7L1325.3,731.2L1302.45,708.35L1119.65,708.35L1051.1,662.65L1028.25,616.95L1005.4,616.95Z" style="fill:rgb(143,95,97);stroke:rgb(143,95,97);stroke-width:1px;"/>
            </g>
        </g>
        <g transform="matrix(1,0,0,1,-30.5,-11.45)">
            <g id="Layer9">
                <path d="M685.5,936.85L662.65,959.7L639.8,1005.4L639.8,1028.25L662.65,1051.1L708.35,1062.53L731.2,1051.1L731.2,1028.25L708.35,1005.4L685.5,959.7L685.5,936.85Z" style="fill:rgb(240,222,12);stroke:rgb(240,222,12);stroke-width:1px;"/>
            </g>
        </g>
    </g>
</svg>
