<?xml version="1.0" encoding="UTF-8" standalone="no"?>
<!DOCTYPE svg PUBLIC "-//W3C//DTD SVG 1.1//EN" "http://www.w3.org/Graphics/SVG/1.1/DTD/svg11.dtd">
<svg width="100%" height="100%" viewBox="0 0 4634 3475" version="1.1" xmlns="http://www.w3.org/2000/svg" xmlns:xlink="http://www.w3.org/1999/xlink" xml:space="preserve" xmlns:serif="http://www.serif.com/" style="fill-rule:evenodd;clip-rule:evenodd;stroke-linecap:round;stroke-linejoin:round;stroke-miterlimit:1.5;">
    <g transform="matrix(2.08333,0,0,2.08333,0,0)">
        <g id="Layer14">
            <g transform="matrix(1,0,0,1,-30.5,-11.45)">
                <path d="M1142.5,799.75L1348.15,799.75L1416.7,754.05L1462.4,685.5L1462.4,114.25L1508.1,68.55L1805.15,68.55L1828,91.4L1828,251.35L1805.15,319.9L1782.3,342.75L1782.3,639.8L1759.45,708.35L1736.6,731.2L1736.6,868.3L1713.75,891.15L1142.5,891.15L1142.5,799.75Z" style="fill:rgb(210,94,65);stroke:rgb(210,94,65);stroke-width:1px;"/>
            </g>
            <g transform="matrix(1,0,0,1,-30.5,-11.45)">
                <path d="M1096.8,936.85L1599.5,936.85L1690.9,959.7L1782.3,1005.4L1828,1073.95L1873.7,1165.35L1873.7,1485.25L1850.85,1530.95L1805.15,1576.65L1736.6,1622.35L639.8,1622.35L639.8,1530.95L1576.65,1530.95L1599.5,1508.1L1599.5,1279.6L1576.65,1256.75L1165.35,1256.75L1142.5,1279.6L1165.35,1302.45L1325.3,1302.45L1371,1348.15L1371,1439.55L1325.3,1485.25L914,1485.25L914,1393.85L1256.75,1393.85L1279.6,1371L1256.75,1348.15L799.75,1348.15L776.9,1325.3L776.9,1233.9L799.75,1211.05L1142.5,1211.05L1188.2,1119.65L1233.9,1073.95L1348.15,1073.95L1371,1051.1L1348.15,1028.25L1211.05,1028.25L1165.35,1073.95L1142.5,1119.65L1096.8,1119.65L1096.8,936.85Z" style="fill:rgb(210,94,65);stroke:rgb(210,94,65);stroke-width:1px;"/>
            </g>
            <g transform="matrix(1,0,0,1,-30.5,-11.45)">
                <rect x="502.7" y="1530.95" width="91.4" height="91.4" style="fill:rgb(210,94,65);stroke:rgb(210,94,65);stroke-width:1px;"/>
            </g>
        </g>
        <g id="Layer16">
            <g transform="matrix(1,0,0,1,15.2,-11.45)">
                <path d="M1371,936.85L1371,959.7L1393.85,982.55L1416.7,959.7L1416.7,936.85L1371,936.85Z" style="fill:rgb(205,179,108);stroke:rgb(205,179,108);stroke-width:1px;"/>
            </g>
            <g transform="matrix(1,0,0,1,-30.5,-11.45)">
                <path d="M1553.8,936.85L1553.8,1005.4L1576.65,1028.25L1599.5,1005.4L1599.5,936.85L1553.8,936.85Z" style="fill:rgb(205,179,108);stroke:rgb(205,179,108);stroke-width:1px;"/>
            </g>
            <g transform="matrix(1,0,0,1,-30.5,-11.45)">
                <path d="M1690.9,959.7L1690.9,1073.95L1713.75,1096.8L1736.6,1073.95L1736.6,982.55L1690.9,959.7Z" style="fill:rgb(205,179,108);stroke:rgb(205,179,108);stroke-width:1px;"/>
            </g>
            <g transform="matrix(1,0,0,1,-30.5,-11.45)">
                <path d="M1828,1073.95L1850.85,1119.65L1866.11,1150.09L1850.85,1165.35L1828,1142.5L1828,1073.95Z" style="fill:rgb(205,179,108);stroke:rgb(205,179,108);stroke-width:1px;"/>
            </g>
        </g>
        <g id="Layer15">
            <g transform="matrix(1,0,0,1,-30.5,-11.45)">
                <rect x="1873.7" y="68.55" width="45.7" height="91.4" style="fill:rgb(112,58,40);stroke:rgb(112,58,40);stroke-width:1px;"/>
            </g>
            <g transform="matrix(1,0,0,1,-30.5,-11.45)">
                <rect x="1850.85" y="251.35" width="68.55" height="91.4" style="fill:rgb(112,58,40);stroke:rgb(112,58,40);stroke-width:1px;"/>
            </g>
            <g transform="matrix(1,0,0,1,-30.5,-11.45)">
                <rect x="1828" y="434.15" width="91.4" height="91.4" style="fill:rgb(112,58,40);stroke:rgb(112,58,40);stroke-width:1px;"/>
            </g>
            <g transform="matrix(1,0,0,1,-53.35,-11.45)">
                <rect x="1828" y="616.95" width="91.4" height="91.4" style="fill:rgb(112,58,40);stroke:rgb(112,58,40);stroke-width:1px;"/>
            </g>
            <g transform="matrix(1,0,0,1,-30.5,-11.45)">
                <rect x="1782.3" y="799.75" width="91.4" height="91.4" style="fill:rgb(112,58,40);stroke:rgb(112,58,40);stroke-width:1px;"/>
            </g>
        </g>
        <g id="Layer12">
            <g transform="matrix(1,0,0,1,-30.5,-11.45)">
                <path d="M685.5,799.75L639.8,708.35L594.1,708.35L548.4,754.05L548.4,822.6L571.25,845.45L685.5,845.45L685.5,799.75Z" style="fill:rgb(204,162,110);stroke:rgb(204,162,110);stroke-width:1px;"/>
            </g>
            <g transform="matrix(1,0,0,1,-30.5,-11.45)">
                <path d="M548.4,891.15L685.5,891.15L708.35,914L594.1,1028.25L548.4,1028.25L548.4,891.15Z" style="fill:rgb(204,162,110);stroke:rgb(204,162,110);stroke-width:1px;"/>
            </g>
            <g transform="matrix(1,0,0,1,-30.5,-11.45)">
                <path d="M776.9,936.85L639.8,1073.95L639.8,1119.65L776.9,1119.65L776.9,936.85Z" style="fill:rgb(204,162,110);stroke:rgb(204,162,110);stroke-width:1px;"/>
            </g>
            <g transform="matrix(1,0,0,1,-30.5,-11.45)">
                <rect x="822.6" y="936.85" width="91.4" height="182.8" style="fill:rgb(204,162,110);stroke:rgb(204,162,110);stroke-width:1px;"/>
            </g>
            <g transform="matrix(1,0,0,1,-30.5,-11.45)">
                <rect x="959.7" y="936.85" width="91.4" height="182.8" style="fill:rgb(204,162,110);stroke:rgb(204,162,110);stroke-width:1px;"/>
            </g>
            <g transform="matrix(1,0,0,1,-30.5,-11.45)">
                <path d="M914,1393.85L868.3,1393.85L776.9,1409.08L754.05,1439.55L754.05,1485.25L776.9,1462.4L799.75,1462.4L868.3,1485.25L914,1485.25L914,1393.85Z" style="fill:rgb(204,162,110);stroke:rgb(204,162,110);stroke-width:1px;"/>
            </g>
            <g transform="matrix(0.571429,0,0,1,-95.7857,125.65)">
                <path d="M914,1393.85L868.3,1393.85L794.038,1428.15L794.038,1451L868.3,1485.25L914,1485.25L914,1393.85Z" style="fill:rgb(204,162,110);stroke:rgb(204,162,110);stroke-width:1.23px;"/>
            </g>
            <g transform="matrix(1,0,0,1,-30.5,34.25)">
                <path d="M1416.7,68.55L1371,68.55L1416.7,114.25L1416.7,68.55Z" style="fill:rgb(204,162,110);stroke:rgb(204,162,110);stroke-width:1px;"/>
            </g>
            <g transform="matrix(1,0,0,1,-30.5,217.05)">
                <path d="M1416.7,68.55L1371,68.55L1416.7,114.25L1416.7,68.55Z" style="fill:rgb(204,162,110);stroke:rgb(204,162,110);stroke-width:1px;"/>
            </g>
            <g transform="matrix(1,0,0,1,-30.5,399.85)">
                <path d="M1416.7,68.55L1371,68.55L1416.7,114.25L1416.7,68.55Z" style="fill:rgb(204,162,110);stroke:rgb(204,162,110);stroke-width:1px;"/>
            </g>
            <g transform="matrix(1,0,0,1,-30.5,582.65)">
                <path d="M1416.7,68.55L1371,68.55L1416.7,114.25L1416.7,68.55Z" style="fill:rgb(204,162,110);stroke:rgb(204,162,110);stroke-width:1px;"/>
            </g>
        </g>
        <g id="Layer13">
            <g transform="matrix(1,0,0,1,-53.35,-11.45)">
                <path d="M616.95,457L616.95,411.3L639.8,388.45L685.5,388.45L708.35,411.3L708.35,457L685.5,479.85L639.8,479.85L616.95,457Z" style="fill:rgb(47,96,157);stroke:rgb(47,96,157);stroke-width:1px;"/>
            </g>
            <g transform="matrix(1,0,0,1,403.65,-11.45)">
                <path d="M616.95,411.3L639.8,388.45L685.5,388.45L708.35,411.3L708.35,457L685.5,479.85L639.8,479.85L616.95,457L616.95,411.3Z" style="fill:rgb(47,96,157);stroke:rgb(47,96,157);stroke-width:1px;"/>
            </g>
            <g transform="matrix(1,0,0,1,-30.5,-11.45)">
                <rect x="1553.8" y="159.95" width="274.2" height="91.4" style="fill:rgb(47,96,157);stroke:rgb(47,96,157);stroke-width:1px;"/>
            </g>
            <g transform="matrix(1,0,0,1,-30.5,-11.45)">
                <rect x="1553.8" y="342.75" width="228.5" height="91.4" style="fill:rgb(47,96,157);stroke:rgb(47,96,157);stroke-width:1px;"/>
            </g>
            <g transform="matrix(1,0,0,1,-30.5,-11.45)">
                <rect x="1576.65" y="548.4" width="205.65" height="91.4" style="fill:rgb(47,96,157);stroke:rgb(47,96,157);stroke-width:1px;"/>
            </g>
            <g transform="matrix(1,0,0,1,-30.5,-11.45)">
                <rect x="1576.65" y="731.2" width="159.95" height="91.4" style="fill:rgb(47,96,157);stroke:rgb(47,96,157);stroke-width:1px;"/>
            </g>
        </g>
        <g id="Layer8">
            <g transform="matrix(1,0,0,1,-53.35,-11.45)">
                <path d="M639.8,434.15L662.65,411.3L685.5,434.15L662.65,457L639.8,434.15Z" style="fill:rgb(205,179,108);stroke:rgb(205,179,108);stroke-width:1px;"/>
            </g>
            <g transform="matrix(1,0,0,1,403.65,-11.45)">
                <path d="M639.8,434.15L662.65,411.3L685.5,434.15L662.65,457L639.8,434.15Z" style="fill:rgb(205,179,108);stroke:rgb(205,179,108);stroke-width:1px;"/>
            </g>
        </g>
        <g id="Layer11">
            <g transform="matrix(1,0,0,1,-30.5,-11.45)">
                <path d="M365.6,159.95L411.3,114.25L548.4,68.55L662.65,68.55L685.5,91.4L731.2,297.05L731.2,365.6L708.35,388.45L685.5,388.45L685.5,365.6L662.65,342.75L616.95,342.75L594.1,365.6L594.1,479.85L616.95,525.55L662.65,525.55L662.65,548.4L639.8,571.25L457,571.25L411.3,525.55L365.6,434.15L365.6,274.2L388.45,251.35L457,251.35L457,205.65L388.45,205.65L365.6,182.8L365.6,159.95Z" style="fill:rgb(207,192,143);stroke:rgb(207,192,143);stroke-width:1px;"/>
            </g>
            <g transform="matrix(-1,0,0,1,1728.95,-11.45)">
                <path d="M434.15,228.5L434.15,159.95L457,114.25L548.4,68.55L662.65,68.55L685.5,91.4L731.2,297.05L731.2,365.6L708.35,388.45L685.5,388.45L685.5,365.6L662.65,342.75L639.8,342.75L616.95,365.6L616.95,502.7L639.8,525.55L685.5,525.55L685.5,548.4L662.65,571.25L571.25,571.25L502.7,525.55L457,479.85L457,457L479.85,434.15L594.1,434.15L594.1,388.45L457,388.45L411.3,342.75L411.3,319.9L434.15,297.05L594.1,297.05L594.1,251.35L457,251.35L434.15,228.5Z" style="fill:rgb(207,192,143);stroke:rgb(207,192,143);stroke-width:1px;"/>
            </g>
        </g>
        <g id="Layer10">
            <g transform="matrix(1,0,0,1,-30.5,-11.45)">
                <path d="M685.5,502.7L685.5,479.85L594.1,479.85L594.1,502.7L616.95,525.55L662.65,525.55L685.5,502.7Z" style="fill:rgb(173,16,5);stroke:rgb(173,16,5);stroke-width:1px;"/>
            </g>
            <g transform="matrix(1,0,0,1,426.5,-11.45)">
                <path d="M662.65,525.55L685.5,502.7L685.5,479.85L594.1,479.85L594.1,502.7L616.95,525.55L662.65,525.55Z" style="fill:rgb(173,16,5);stroke:rgb(173,16,5);stroke-width:1px;"/>
            </g>
            <g transform="matrix(1,0,0,1,-53.35,-11.45)">
                <path d="M822.6,434.15L822.6,365.6L799.75,328.355L799.75,274.2L811.175,251.35L845.45,228.5L959.7,228.5L1005.4,251.35L1028.25,365.6L982.55,434.15L959.7,365.6L914,434.15L891.15,365.6L822.6,434.15Z" style="fill:rgb(173,16,5);stroke:rgb(173,16,5);stroke-width:1px;"/>
            </g>
        </g>
        <g transform="matrix(1,0,0,1,-53.35,-11.45)">
            <g id="Layer9">
                <path d="M822.6,799.75L776.9,784.517L731.2,754.05L685.5,685.5L685.5,594.1L708.35,525.55L731.2,479.85L799.75,388.45L822.6,479.85L891.15,388.45L914,479.85L959.7,388.45L982.55,479.85L1028.25,388.45L1073.95,502.7L1096.8,594.1L1096.8,685.5L1051.1,754.05L1005.4,784.517L959.7,799.75L822.6,799.75Z" style="fill:rgb(225,192,46);stroke:rgb(225,192,46);stroke-width:1px;"/>
            </g>
        </g>
    </g>
</svg>
