<?xml version="1.0" encoding="UTF-8" standalone="no"?>
<!DOCTYPE svg PUBLIC "-//W3C//DTD SVG 1.1//EN" "http://www.w3.org/Graphics/SVG/1.1/DTD/svg11.dtd">
<svg width="100%" height="100%" viewBox="0 0 4634 3475" version="1.1" xmlns="http://www.w3.org/2000/svg" xmlns:xlink="http://www.w3.org/1999/xlink" xml:space="preserve" xmlns:serif="http://www.serif.com/" style="fill-rule:evenodd;clip-rule:evenodd;stroke-linecap:round;stroke-linejoin:round;stroke-miterlimit:1.5;">
    <g transform="matrix(2.08333,0,0,2.08333,0,0)">
        <g id="Layer9">
            <g transform="matrix(1,0,0,1,-30.5,-22.875)">
                <path d="M959.7,571.25L1096.8,708.35L1073.95,776.9L959.7,891.15L822.6,959.7L731.2,982.55L548.4,982.55L525.55,974.931L548.4,936.85L594.1,891.15L685.5,799.75L776.9,754.05L822.6,662.65L914,571.25L959.7,571.25Z" style="fill:rgb(195,191,190);stroke:rgb(195,191,190);stroke-width:1px;"/>
            </g>
            <g transform="matrix(1,0,0,1,-30.5,-22.875)">
                <path d="M1233.9,571.25L1233.9,616.95L1279.6,662.65L1462.4,662.65L1553.8,754.05L1713.75,776.9L1508.1,571.25L1233.9,571.25Z" style="fill:rgb(195,191,190);stroke:rgb(195,191,190);stroke-width:1px;"/>
            </g>
        </g>
        <g id="Layer13">
            <g transform="matrix(1,0,0,1,-30.5,-22.875)">
                <path d="M914,571.25L822.6,662.65L799.75,708.35L776.9,754.05L685.5,799.75L639.8,845.45L479.85,936.85L457,914L411.3,891.15L365.6,845.45L365.6,731.2L388.45,685.5L502.7,571.25L594.1,479.85L708.35,388.45L776.9,342.75L1530.95,342.75L1576.65,365.6L1828,616.95L1919.4,754.05L1919.4,1439.55L1782.3,1576.65L1690.9,1622.35L639.8,1622.35L639.8,1576.65L914,1302.45L1005.4,1302.45L1188.2,1485.25L1599.5,1485.25L1690.9,1439.55L1736.6,1393.85L1782.3,1302.45L1782.3,845.45L1508.1,571.25L1165.35,571.25L1279.6,685.5L1279.6,731.2L1211.05,754.05L1188.2,754.05L1188.2,799.75L1005.4,1165.35L914,1256.75L776.9,1256.75L822.6,1233.9L822.6,1188.2L799.75,1165.35L776.9,1165.35L776.9,1211.05L731.2,1256.75L685.5,1302.45L502.7,1302.45L457,1256.75L457,1119.65L502.7,1073.95L822.6,1073.95L1142.5,754.05L1142.5,731.2L1119.65,708.35L1096.8,708.35L959.7,571.25L914,571.25Z" style="fill:rgb(46,144,161);stroke:rgb(46,144,161);stroke-width:1px;"/>
            </g>
            <g transform="matrix(1,0,0,1,-30.5,-22.875)">
                <path d="M799.75,319.9L982.55,182.8L1096.8,159.95L891.15,319.9L799.75,319.9Z" style="fill:rgb(46,144,161);stroke:rgb(46,144,161);stroke-width:1px;"/>
            </g>
            <g transform="matrix(1,0,0,1,-30.5,-22.875)">
                <path d="M1736.6,1096.8L1736.6,845.45L1690.9,799.75L1462.4,799.75L1348.15,914L1325.3,959.7L1325.3,1005.4L1348.15,1051.1L1553.8,1256.75L1553.8,1279.6L1530.95,1302.45L1416.7,1302.45L1325.3,1211.05L1325.3,1188.2L1302.45,1165.35L1165.35,1165.35L1142.5,1188.2L1142.5,1393.85L1165.35,1439.55L1211.05,1439.55L1233.9,1393.85L1348.15,1393.85L1371,1439.55L1599.5,1439.55L1736.6,1302.45L1736.6,1188.2L1713.75,1165.35L1690.9,1165.35L1553.8,1028.25L1553.8,982.55L1690.9,1119.65L1713.75,1119.65L1736.6,1096.8Z" style="fill:rgb(46,144,161);stroke:rgb(46,144,161);stroke-width:1px;"/>
            </g>
            <g transform="matrix(1,0,0,1,-30.5,-22.875)">
                <path d="M1645.2,388.45L1668.05,365.6L1850.85,365.6L1919.4,388.45L1873.7,434.15L1828,571.25L1805.15,571.25L1645.2,411.3L1645.2,388.45Z" style="fill:rgb(46,144,161);stroke:rgb(46,144,161);stroke-width:1px;"/>
            </g>
        </g>
        <g id="Layer11">
            <g transform="matrix(1,0,0,1,-30.5,-22.875)">
                <path d="M457,616.95L499.494,601.67L528.082,605.922L573.522,637.248L595.676,626.013L613.658,645.185L622.671,659.366L626.397,699.562L681.362,702.122L692.88,679.386L673.229,693.32L638.458,690.648L635.405,649.243L621.195,624.142L597.222,602.408L565.198,606.04L534.714,578.006L502.7,571.25L457,616.95Z" style="fill:rgb(9,79,99);stroke:rgb(9,79,99);stroke-width:1px;"/>
            </g>
            <g transform="matrix(1,0,0,1,-30.5,-22.875)">
                <path d="M662.65,425.663L649.998,502.689L659.065,514.029L655.135,533.927L701.935,560.037L744.596,560.256L766.28,582.848L773.737,601.269L784.069,637.193L815.776,663.628L800.248,633.187L800.248,578.765L773.867,544.249L731.693,539.031L694.047,521.278L709.06,485.043L698.828,470.605L720.742,401.777L708.35,388.45L662.65,425.663Z" style="fill:rgb(9,79,99);stroke:rgb(9,79,99);stroke-width:1px;"/>
            </g>
            <g transform="matrix(1,0,0,1,-7.65,-22.875)">
                <path d="M776.9,342.75L845.45,342.75L848.747,373.625L885.17,403.6L876.996,431.086L920.413,442.368L943.804,453.503L970.178,516.141L1006.77,530.213L952.161,526.531L932.848,501.746L907.373,475.556L868.831,487.246L830.95,459.624L838.585,417.026L794.978,398.947L786.205,378.191L729.749,358.95L754.05,342.75L776.9,342.75Z" style="fill:rgb(9,79,99);stroke:rgb(9,79,99);stroke-width:1px;"/>
            </g>
            <g transform="matrix(1,0,0,1,-30.5,-22.875)">
                <path d="M1051.1,342.75L1075.4,380.54L1061.35,416.071L1063.78,437.342L1057.92,462.388L1089.65,479.12L1151.85,488.958L1181.76,473.833L1231.36,472.782L1161.35,450.57L1103.81,440.423L1101.94,403.352L1115.46,378.681L1096.8,342.75L1051.1,342.75Z" style="fill:rgb(9,79,99);stroke:rgb(9,79,99);stroke-width:1px;"/>
            </g>
            <g transform="matrix(1,0,0,1,-30.5,-22.875)">
                <path d="M1371,342.75L1377.07,368.056L1341.4,431.339L1359.99,441.374L1400.15,447.539L1413.48,467.273L1451.81,475.831L1474,502.465L1454.68,491.563L1414.73,483.711L1367.64,473.231L1324.2,460.677L1314.44,396.691L1330.82,365.254L1325.3,342.75L1371,342.75Z" style="fill:rgb(9,79,99);stroke:rgb(9,79,99);stroke-width:1px;"/>
            </g>
            <g transform="matrix(1,0,0,1,-30.5,-22.875)">
                <path d="M1233.9,571.25L1233.9,616.95L1279.6,662.65L1280.89,626.696L1265.64,600.818L1279.6,571.25L1233.9,571.25Z" style="fill:rgb(9,79,99);stroke:rgb(9,79,99);stroke-width:1px;"/>
            </g>
            <g transform="matrix(1,0,0,1,-30.5,-22.875)">
                <path d="M1325.3,571.25L1309.96,603.738L1328.79,630.689L1325.3,662.65L1371,662.65L1375.3,640.571L1355.91,610.233L1371,571.25L1325.3,571.25Z" style="fill:rgb(9,79,99);stroke:rgb(9,79,99);stroke-width:1px;"/>
            </g>
            <g transform="matrix(1,0,0,1,-30.5,-22.875)">
                <path d="M1416.7,571.25L1396.9,603.288L1420.23,637.988L1416.7,662.65L1462.4,662.65L1458.88,636.166L1444.15,612.574L1462.4,571.25L1416.7,571.25Z" style="fill:rgb(9,79,99);stroke:rgb(9,79,99);stroke-width:1px;"/>
            </g>
            <g transform="matrix(1,0,0,1,-30.5,-22.875)">
                <path d="M365.6,845.45L431.335,828.824L450.294,800.139L469.643,754.05L472.561,802.473L460.604,850.118L411.3,891.15L365.6,845.45Z" style="fill:rgb(9,79,99);stroke:rgb(9,79,99);stroke-width:1px;"/>
            </g>
            <g transform="matrix(1,0,0,1,-30.5,-22.875)">
                <path d="M548.4,1302.45L502.7,1302.45L601.736,1233.98L617.991,1174.4L712.497,1129.27L731.2,1073.95L822.6,1073.95L802.04,1124.85L684.519,1191.32L647.306,1276.21L594.1,1302.45L548.4,1302.45Z" style="fill:rgb(9,79,99);stroke:rgb(9,79,99);stroke-width:1px;"/>
            </g>
            <g transform="matrix(1,0,0,1,-30.5,-22.875)">
                <path d="M594.1,1073.95L564.192,1098.64L533.401,1153.99L477.065,1148.54L457,1211.05L457,1256.75L479.85,1279.6L496.523,1228.76L550.962,1228.31L604.639,1131.47L685.5,1073.95L639.8,1073.95L594.1,1073.95Z" style="fill:rgb(9,79,99);stroke:rgb(9,79,99);stroke-width:1px;"/>
            </g>
            <g transform="matrix(1,0,0,1,-7.65,-45.725)">
                <path d="M1645.2,479.85L1612.49,482.808L1588.64,518.15L1608,550.146L1606.81,573.547L1653.34,609.643L1595.95,598.276L1582.95,572.531L1563.91,562.852L1553.8,525.55L1564.45,473.795L1599.5,434.15L1645.2,479.85Z" style="fill:rgb(9,79,99);stroke:rgb(9,79,99);stroke-width:1px;"/>
            </g>
            <g transform="matrix(1,0,0,1,129.45,91.375)">
                <path d="M1645.2,479.85L1606.92,490.908L1587.07,533.108L1611.64,559.689L1612.02,592.56L1636.53,647.585L1593.14,613.175L1555.25,551.272L1540.79,504.416L1543.51,482.534L1599.5,434.15L1645.2,479.85Z" style="fill:rgb(9,79,99);stroke:rgb(9,79,99);stroke-width:1px;"/>
            </g>
            <g transform="matrix(1,0,0,1,-30.5,-22.875)">
                <path d="M1919.4,982.55L1896.19,989.001L1873.7,982.55L1812.82,930.91L1841.45,977.868L1869.21,1015.4L1909.25,1022.58L1919.4,1028.25L1919.4,982.55Z" style="fill:rgb(9,79,99);stroke:rgb(9,79,99);stroke-width:1px;"/>
            </g>
            <g transform="matrix(1,0,0,1,-30.5,-22.875)">
                <path d="M1919.4,1073.95L1901.31,1076.48L1884.15,1092.31L1863.21,1105.91L1828,1165.35L1883.48,1125.67L1919.4,1119.65L1919.4,1073.95Z" style="fill:rgb(9,79,99);stroke:rgb(9,79,99);stroke-width:1px;"/>
            </g>
            <g transform="matrix(1,0,0,1,-30.5,-22.875)">
                <path d="M1919.4,1393.85L1884.71,1404.8L1850.85,1393.85L1805.15,1348.15L1850.85,1439.55L1874.24,1449.08L1919.4,1439.55L1919.4,1393.85Z" style="fill:rgb(9,79,99);stroke:rgb(9,79,99);stroke-width:1px;"/>
            </g>
            <g transform="matrix(1,0,0,1,-30.5,-22.875)">
                <path d="M1462.4,1622.35L1484.06,1600.79L1496.68,1558.78L1485.52,1539.2L1460.32,1533.76L1462.52,1513.23L1455.11,1498.24L1462.4,1485.25L1416.7,1485.25L1414.76,1505.89L1440.15,1539.97L1463.61,1557.52L1457.01,1576.51L1416.7,1622.35L1462.4,1622.35Z" style="fill:rgb(9,79,99);stroke:rgb(9,79,99);stroke-width:1px;"/>
            </g>
            <g transform="matrix(1,0,0,1,-30.5,-22.875)">
                <path d="M1279.6,1485.25L1288.51,1501.53L1276.66,1530.49L1260.13,1547.3L1239.78,1585.01L1272.15,1563.13L1309.94,1557.68L1331.18,1538.07L1341.71,1498.05L1325.3,1485.25L1279.6,1485.25Z" style="fill:rgb(9,79,99);stroke:rgb(9,79,99);stroke-width:1px;"/>
            </g>
            <g transform="matrix(1,0,0,1,-76.2,-22.875)">
                <path d="M776.9,1485.25L843.249,1501.51L880.923,1521.9L897.485,1543.86L933.826,1568.8L900.978,1560.32L853.703,1535.81L804.476,1525.82L731.2,1530.95L776.9,1485.25Z" style="fill:rgb(9,79,99);stroke:rgb(9,79,99);stroke-width:1px;"/>
            </g>
            <g transform="matrix(1,0,0,1,-76.2,-68.575)">
                <path d="M959.7,1348.15L1016.98,1394.55L1074.52,1536.16L1101.47,1542.03L1067.48,1563.65L1017.89,1502.37L982.55,1416.7L914,1393.85L959.7,1348.15Z" style="fill:rgb(9,79,99);stroke:rgb(9,79,99);stroke-width:1px;"/>
            </g>
            <g transform="matrix(1,0,0,1,-30.5,-22.875)">
                <path d="M1439.55,1142.5L1476.4,1087.02L1500.08,1049.99L1466.57,994.632L1467.37,1042.36L1441.87,1062.81L1440.63,1092.2L1416.7,1119.65L1439.55,1142.5Z" style="fill:rgb(9,79,99);stroke:rgb(9,79,99);stroke-width:1px;"/>
            </g>
            <g transform="matrix(1,0,0,1,-30.5,-22.875)">
                <path d="M1508.1,799.75L1547.78,884.285L1599.5,914L1606.93,942.316L1639.21,971.742L1633.86,936.781L1645.99,899.815L1587.42,866.131L1553.8,799.75L1508.1,799.75Z" style="fill:rgb(9,79,99);stroke:rgb(9,79,99);stroke-width:1px;"/>
            </g>
            <g transform="matrix(1,0,0,1,-30.5,-22.875)">
                <path d="M1142.5,1211.05L1187.75,1222.57L1233.58,1192.9L1288.88,1218.85L1325.3,1211.05L1371,1256.75L1291.7,1265.27L1242.31,1238.34L1169.38,1270.94L1142.5,1256.75L1142.5,1211.05Z" style="fill:rgb(9,79,99);stroke:rgb(9,79,99);stroke-width:1px;"/>
            </g>
            <g transform="matrix(1,0,0,1,-30.5,-22.875)">
                <path d="M1393.85,1302.45L1416.7,1325.3L1439.55,1371L1382.46,1355L1314.77,1365.97L1257.99,1351.87L1200.85,1388.2L1165.35,1371L1155.75,1356.35L1166.83,1325.26L1142.5,1302.45L1198.97,1313.73L1234.21,1297.33L1302.77,1318.85L1361.59,1297.6L1393.85,1302.45Z" style="fill:rgb(9,79,99);stroke:rgb(9,79,99);stroke-width:1px;"/>
            </g>
        </g>
        <g transform="matrix(1,0,0,1,-30.5,-22.875)">
            <g id="Layer10">
                <path d="M804.819,678.081L776.9,731.2L754.05,754.05L680.445,776.398L667.581,787.238L655.875,828.344L636.3,847.818L572.88,852.24L513.503,888.029L462.585,894.853L457,914L480.12,939.376L501.676,941.266L504.474,958.359L525.961,978.271L543.845,973.991L548.4,959.7L603.804,885.793L656.762,872.361L680.389,851.255L679.97,819.754L692.396,803.458L777.654,786.5L797.432,752.797L814.65,682.252L804.189,662.1L804.819,678.081Z" style="fill:rgb(163,50,20);stroke:rgb(163,50,20);stroke-width:1px;"/>
            </g>
        </g>
        <g transform="matrix(1,0,0,1,-30.5,-22.875)">
            <g id="Layer12">
                <path d="M479.85,799.75L515.305,754.05L571.25,731.2L571.25,776.9L479.85,799.75Z" style="fill:rgb(178,200,138);stroke:rgb(178,200,138);stroke-width:1px;"/>
            </g>
        </g>
        <g id="Layer14">
            <g transform="matrix(1,0,0,1,15.2,-22.875)">
                <path d="M1051.1,159.95L1188.2,137.1L959.7,319.9L845.45,319.9L1051.1,159.95Z" style="fill:rgb(93,165,132);stroke:rgb(93,165,132);stroke-width:1px;"/>
            </g>
            <g transform="matrix(1,0,0,1,-30.5,-22.875)">
                <path d="M1188.2,754.05L1279.6,731.2L936.85,1256.75L868.3,1256.75L1188.2,754.05Z" style="fill:rgb(93,165,132);stroke:rgb(93,165,132);stroke-width:1px;"/>
            </g>
        </g>
        <g id="Layer15">
            <g transform="matrix(1,0,0,1,15.2,-22.875)">
                <path d="M959.7,319.9L1066.3,319.9L1325.3,114.25L1188.2,137.1L959.7,319.9Z" style="fill:rgb(147,182,118);stroke:rgb(147,182,118);stroke-width:1px;"/>
            </g>
            <g transform="matrix(1,0,0,1,-30.5,-22.875)">
                <path d="M936.85,1256.75L1279.6,731.2L1371,708.35L1005.4,1256.75L936.85,1256.75Z" style="fill:rgb(147,182,118);stroke:rgb(147,182,118);stroke-width:1px;"/>
            </g>
        </g>
        <g id="Layer16">
            <g transform="matrix(1,0,0,1,15.2,-22.875)">
                <path d="M1325.3,114.25L1462.4,91.4L1188.2,319.9L1066.3,319.9L1325.3,114.25Z" style="fill:rgb(218,193,79);stroke:rgb(218,193,79);stroke-width:1px;"/>
            </g>
            <g transform="matrix(1,0,0,1,-30.5,-22.875)">
                <path d="M1005.4,1256.75L1371,708.35L1462.4,708.35L1073.95,1256.75L1005.4,1256.75Z" style="fill:rgb(218,193,79);stroke:rgb(218,193,79);stroke-width:1px;"/>
            </g>
        </g>
        <g transform="matrix(1,0,0,1,15.2,-22.875)">
            <g id="Layer17">
                <path d="M1462.4,91.4L1645.2,91.4L1508.1,159.95L1348.15,319.9L1188.2,319.9L1462.4,91.4Z" style="fill:rgb(231,131,17);stroke:rgb(231,131,17);stroke-width:1px;"/>
            </g>
        </g>
    </g>
</svg>
