<?xml version="1.0" encoding="UTF-8" standalone="no"?>
<!DOCTYPE svg PUBLIC "-//W3C//DTD SVG 1.1//EN" "http://www.w3.org/Graphics/SVG/1.1/DTD/svg11.dtd">
<svg width="100%" height="100%" viewBox="0 0 4634 3475" version="1.1" xmlns="http://www.w3.org/2000/svg" xmlns:xlink="http://www.w3.org/1999/xlink" xml:space="preserve" xmlns:serif="http://www.serif.com/" style="fill-rule:evenodd;clip-rule:evenodd;stroke-linecap:round;stroke-linejoin:round;stroke-miterlimit:1.5;">
    <g transform="matrix(2.08333,0,0,2.08333,0,0)">
        <g id="Layer6">
            <g transform="matrix(1,0,0,1,-19,-14.25)">
                <path d="M1072.5,663L1462.5,390L1696.5,390L1774.5,468L1794,526.5L1813.5,565.5L1833,585L1911,585L1911,565.5L1755,409.5L1755,390L1872,273L1872,253.5L1677,253.5L1657.5,234L1657.5,58.5L1638,58.5L1462.5,234L1423.5,273L1423.5,58.5L1404,58.5L1228.5,234L1228.5,390L1111.5,507L916.5,507L1072.5,663Z" style="fill:rgb(212,214,136);stroke:rgb(212,214,136);stroke-width:1px;"/>
            </g>
            <g transform="matrix(1,0,0,1,-19,-14.25)">
                <path d="M1813.5,702L1911,799.5L1911,819L1794,819L1774.5,799.5L1774.5,721.5L1794,702L1813.5,702Z" style="fill:rgb(212,214,136);stroke:rgb(212,214,136);stroke-width:1px;"/>
            </g>
            <g transform="matrix(1,0,0,1,-19,-14.25)">
                <path d="M1911,1053L1911,1033.5L1794,916.5L1774.5,936L1774.5,1033.5L1794,1053L1911,1053Z" style="fill:rgb(212,214,136);stroke:rgb(212,214,136);stroke-width:1px;"/>
            </g>
            <g transform="matrix(1,0,0,1,-19,-14.25)">
                <path d="M1911,1287L1911,1267.5L1794,1150.5L1774.5,1189.5L1774.5,1267.5L1794,1287L1911,1287Z" style="fill:rgb(212,214,136);stroke:rgb(212,214,136);stroke-width:1px;"/>
            </g>
            <g transform="matrix(1,0,0,1,-19,-14.25)">
                <path d="M1813.5,1423.5L1813.5,1638L1599,1638L1813.5,1423.5Z" style="fill:rgb(212,214,136);stroke:rgb(212,214,136);stroke-width:1px;"/>
            </g>
            <g transform="matrix(1,0,0,1,-19,-14.25)">
                <path d="M1618.5,936L1618.5,780L1599,780L1501.5,877.5L1501.5,897L1579.5,897L1618.5,936Z" style="fill:rgb(212,214,136);stroke:rgb(212,214,136);stroke-width:1px;"/>
            </g>
            <g transform="matrix(1,0,0,1,-19,-14.25)">
                <path d="M1462.5,897L1462.5,780L1443,780L1345.5,877.5L1345.5,897L1462.5,897Z" style="fill:rgb(212,214,136);stroke:rgb(212,214,136);stroke-width:1px;"/>
            </g>
            <g transform="matrix(1,0,0,1,-19,-14.25)">
                <path d="M936,994.5L916.5,975L838.5,975L799.5,1014L799.5,1053L858,1111.5L877.5,1170L1053,1345.5L1092,1306.5L1111.5,1306.5L1150.5,1404L1170,1423.5L1189.5,1423.5L1209,1404L1189.5,1384.5L916.5,1111.5L916.5,1014L936,994.5Z" style="fill:rgb(212,214,136);stroke:rgb(212,214,136);stroke-width:1px;"/>
            </g>
        </g>
        <g id="Layer1">
            <g transform="matrix(1,0,0,1,-19,-14.25)">
                <path d="M448.5,234L1228.5,234L1228.5,351L1053,351L975,409.5L916.5,409.5L897,429L877.5,429L858,448.5L682.5,448.5L409.5,312L351,253.5L351,234L448.5,234Z" style="fill:rgb(180,152,8);stroke:rgb(180,152,8);stroke-width:1px;"/>
            </g>
            <g transform="matrix(1,0,0,1,-19,-14.25)">
                <path d="M429,663L448.5,663L487.5,624L526.5,604.5L546,585L565.5,585L682.5,565.5L760.5,526.5L799.5,468L838.5,468L897,507L916.5,507L994.5,585L994.5,663L916.5,741L877.5,741L760.5,624L702,624L585,663L507,663L487.5,682.5L468,682.5L429,702L409.5,702L409.5,682.5L429,663Z" style="fill:rgb(180,152,8);stroke:rgb(180,152,8);stroke-width:1px;"/>
            </g>
            <g transform="matrix(1,0,0,1,-19,-14.25)">
                <path d="M877.5,897L955.5,819L975,819L1014,780L1053,702L1072.5,682.5L1072.5,663L1267.5,468L1384.5,429L1462.5,390L1696.5,390L1774.5,468L1794,526.5L1813.5,565.5L1833,585L1911,585L1911,604.5L1813.5,702L1794,702L1657.5,565.5L1638,565.5L1599,526.5L1579.5,507L1443,507L1384.5,526.5L936,975L916.5,975L877.5,936L877.5,897Z" style="fill:rgb(180,152,8);stroke:rgb(180,152,8);stroke-width:1px;"/>
            </g>
            <g transform="matrix(1,0,0,1,-19,-14.25)">
                <path d="M1657.5,546L1657.5,1287L1540.5,1423.5L1423.5,1423.5L1326,1306.5L1287,1306.5L1189.5,1423.5L1170,1423.5L1150.5,1404L1111.5,1306.5L1092,1306.5L975,1423.5L936,1423.5L897,1384.5L877.5,1306.5L858,1306.5L721.5,1443L721.5,1384.5L819,1287L819,1267.5L780,1267.5L721.5,1228.5L429,1228.5L351,1287L351,1306.5L448.5,1306.5L448.5,1326L351,1423.5L351,1443L409.5,1462.5L448.5,1482L448.5,1501.5L409.5,1521L351,1579.5L351,1599L409.5,1618.5L448.5,1638L1599,1638L1813.5,1423.5L1813.5,1384.5L1911,1306.5L1911,1287L1794,1287L1774.5,1267.5L1774.5,1189.5L1911,1072.5L1911,1053L1794,1053L1774.5,1033.5L1774.5,955.5L1911,838.5L1911,819L1794,819L1774.5,799.5L1774.5,721.5L1813.5,682.5L1657.5,546Z" style="fill:rgb(180,152,8);stroke:rgb(180,152,8);stroke-width:1px;"/>
            </g>
            <g transform="matrix(1,0,0,1,-19,-14.25)">
                <path d="M604.5,1072.5L604.5,1189.5L624,1209L702,1209L721.5,1189.5L721.5,1170L624,1072.5L604.5,1072.5Z" style="fill:rgb(180,152,8);stroke:rgb(180,152,8);stroke-width:1px;"/>
            </g>
            <g transform="matrix(1,0,0,1,-19,-14.25)">
                <path d="M546,1209L565.5,1189.5L565.5,1170L487.5,1092L468,1053L448.5,1053L429,1111.5L409.5,1150.5L409.5,1189.5L429,1209L546,1209" style="fill:rgb(180,152,8);stroke:rgb(180,152,8);stroke-width:1px;"/>
            </g>
            <g transform="matrix(1,0,0,1,-19,-14.25)">
                <path d="M1599,1053L1560,1053L1501.5,1014L1482,994.5L1287,994.5L1228.5,1053L1228.5,1150.5L1287,1209L1345.5,1209L1384.5,1170L1384.5,1111.5L1365,1092L1287,1092L1287,1072.5L1306.5,1053L1384.5,1053L1423.5,1092L1423.5,1189.5L1365,1248L1248,1248L1150.5,1150.5L1150.5,975L1228.5,897L1579.5,897L1618.5,936L1618.5,1033.5L1599,1053Z" style="fill:rgb(180,152,8);stroke:rgb(180,152,8);stroke-width:1px;"/>
            </g>
            <g transform="matrix(1,0,0,1,-19,-14.25)">
                <path d="M1560,624L1540.5,604.5L1560,585L1579.5,604.5L1560,624Z" style="fill:rgb(180,152,8);stroke:rgb(180,152,8);stroke-width:1px;"/>
            </g>
            <g transform="matrix(1,0,0,1,-19,-14.25)">
                <path d="M1423.5,604.5L1443,585L1462.5,604.5L1443,624L1423.5,604.5Z" style="fill:rgb(180,152,8);stroke:rgb(180,152,8);stroke-width:1px;"/>
            </g>
            <g transform="matrix(1,0,0,1,-19,-14.25)">
                <path d="M1365,663L1384.5,682.5L1365,702L1345.5,682.5L1365,663Z" style="fill:rgb(180,152,8);stroke:rgb(180,152,8);stroke-width:1px;"/>
            </g>
            <g transform="matrix(1,0,0,1,-19,-14.25)">
                <path d="M1287,780L1267.5,760.5L1287,741L1306.5,760.5L1287,780Z" style="fill:rgb(180,152,8);stroke:rgb(180,152,8);stroke-width:1px;"/>
            </g>
            <g transform="matrix(1,0,0,1,-19,-14.25)">
                <path d="M1209,858L1189.5,838.5L1209,819L1228.5,838.5L1209,858Z" style="fill:rgb(180,152,8);stroke:rgb(180,152,8);stroke-width:1px;"/>
            </g>
            <g transform="matrix(1,0,0,1,-19,-14.25)">
                <path d="M1131,936L1112,916.5L1131,897L1150.5,916.5L1131,936Z" style="fill:rgb(180,152,8);stroke:rgb(180,152,8);stroke-width:1px;"/>
            </g>
            <g transform="matrix(1,0,0,1,-19,-14.25)">
                <path d="M1072.5,1053L1033.5,1053L994.5,1014L994.5,975L1033.5,936L1072.5,936L1111.5,975L1112,1014L1072.5,1053Z" style="fill:rgb(180,152,8);stroke:rgb(180,152,8);stroke-width:1px;"/>
            </g>
        </g>
        <g id="Layer4">
            <g transform="matrix(1,0,0,1,-19,-14.25)">
                <path d="M760.5,624L760.5,604.5L741,585L643.5,585L585,643.5L585,663L643.5,663" style="fill:rgb(122,106,5);stroke:rgb(122,106,5);stroke-width:1px;"/>
            </g>
            <g transform="matrix(1,0,0,1,-19,-14.25)">
                <path d="M819,682.5L916.5,585L975,565.5L936,526.5L877.5,546L780,643.5L819,682.5Z" style="fill:rgb(122,106,5);stroke:rgb(122,106,5);stroke-width:1px;"/>
            </g>
            <g transform="matrix(1,0,0,1,-19,-14.25)">
                <path d="M1033.5,877.5L1033.5,741L1053,702L1072.5,682.5L1072.5,838.5L1033.5,877.5Z" style="fill:rgb(122,106,5);stroke:rgb(122,106,5);stroke-width:1px;"/>
            </g>
            <g transform="matrix(1,0,0,1,-19,-14.25)">
                <path d="M1150.5,760.5L1150.5,585L1189.5,546L1189.5,721.5L1150.5,760.5Z" style="fill:rgb(122,106,5);stroke:rgb(122,106,5);stroke-width:1px;"/>
            </g>
            <g transform="matrix(1,0,0,1,-19,-14.25)">
                <path d="M1306.5,604.5L1306.5,448.5L1345.5,429L1345.5,565.5L1306.5,604.5Z" style="fill:rgb(122,106,5);stroke:rgb(122,106,5);stroke-width:1px;"/>
            </g>
            <g transform="matrix(1,0,0,1,-19,-14.25)">
                <path d="M1501.5,507L1462.5,507L1462.5,390L1501.5,390L1501.5,507Z" style="fill:rgb(122,106,5);stroke:rgb(122,106,5);stroke-width:1px;"/>
            </g>
            <g transform="matrix(1,0,0,1,-19,-14.25)">
                <path d="M351,253.5L351,234L448.5,234L682.5,351L760.5,429L760.5,448.5L682.5,448.5L409.5,312L351,253.5Z" style="fill:rgb(122,106,5);stroke:rgb(122,106,5);stroke-width:1px;"/>
            </g>
            <g transform="matrix(1,0,0,1,-19,-14.25)">
                <path d="M819,448.5L721.5,351L682.5,273L663,253.5L643.5,234L721.5,234L760.5,273L799.5,351L877.5,429L858,448.5L838.5,448.5L819,448.5Z" style="fill:rgb(122,106,5);stroke:rgb(122,106,5);stroke-width:1px;"/>
            </g>
            <g transform="matrix(1,0,0,1,-19,-14.25)">
                <path d="M936,409.5L916.5,409.5L897,429L877.5,429L877.5,370.5L858,351L858,273L819,234L877.5,234L916.5,273L936,331.5L936,409.5Z" style="fill:rgb(122,106,5);stroke:rgb(122,106,5);stroke-width:1px;"/>
            </g>
            <g transform="matrix(1,0,0,1,-19,-14.25)">
                <path d="M1072.5,351L1072.5,331.5L1092,312L1111.5,273L1150.5,234L1072.5,234L1033.5,273L1014,351L975,390L1072.5,390L1072.5,351Z" style="fill:rgb(122,106,5);stroke:rgb(122,106,5);stroke-width:1px;"/>
            </g>
            <g transform="matrix(1,0,0,1,-19,-14.25)">
                <path d="M1112,351L1189.5,351L1189.5,331.5L1209,292.5L1228.5,273L1228.5,234L1189.5,234L1150.5,273L1131,312L1131,331.5L1112,351Z" style="fill:rgb(122,106,5);stroke:rgb(122,106,5);stroke-width:1px;"/>
            </g>
            <g transform="matrix(1,0,0,1,-19,-14.25)">
                <path d="M1755,1482L1813.5,1423.5L1813.5,1404L1677,1267.5L1657.5,1267.5L1657.5,1287L1638,1309.76L1618.5,1332.5" style="fill:rgb(122,106,5);stroke:rgb(122,106,5);stroke-width:1px;"/>
            </g>
            <g transform="matrix(1,0,0,1,-19,-14.25)">
                <path d="M1657.5,1033.5L1657.5,1131L1755,1228.5L1774.5,1228.5L1774.5,1189.5L1794,1172.11L1794,1150.5L1677,1033.5L1657.5,1033.5Z" style="fill:rgb(120,104,5);stroke:rgb(122,106,5);stroke-width:1px;"/>
            </g>
            <g transform="matrix(1,0,0,1,-19,-248.25)">
                <path d="M1657.5,1033.5L1657.5,1131L1755,1228.5L1774.5,1228.5L1774.5,1189.5L1794,1172.11L1794,1150.5L1677,1033.5L1657.5,1033.5Z" style="fill:rgb(120,104,5);stroke:rgb(122,106,5);stroke-width:1px;"/>
            </g>
            <g transform="matrix(1,0,0,1,-19,-482.25)">
                <path d="M1657.5,1033.5L1657.5,1131L1755,1228.5L1774.5,1228.5L1774.5,1189.5L1794,1170L1794,1150.5L1677,1033.5L1657.5,1033.5Z" style="fill:rgb(120,104,5);stroke:rgb(122,106,5);stroke-width:1px;"/>
            </g>
            <g transform="matrix(1,0,0,1,-19,-14.25)">
                <path d="M1579.5,507L1579.5,468L1638,409.5L1657.5,409.5L1657.5,468L1638,487.5L1618.5,546L1579.5,507Z" style="fill:rgb(120,104,5);stroke:rgb(122,106,5);stroke-width:1px;"/>
            </g>
        </g>
        <g id="Layer2">
            <g transform="matrix(1,0,0,1,-19,-14.25)">
                <path d="M468,468L663,468L682.5,448.5L858,448.5L877.5,429L897,429L916.5,409.5L955.5,409.5L975,390L1053,351L1228.5,351L1228.5,390L1111.5,507L897,507L838.5,468L799.5,468L760.5,526.5L682.5,565.5L565.5,585L468,468Z" style="fill:rgb(56,87,80);stroke:rgb(56,87,80);stroke-width:1px;"/>
            </g>
            <g transform="matrix(1,0,0,1,-19,-14.25)">
                <path d="M955.5,819L877.5,741L916.5,741L994.5,663L994.5,585L1072.5,663L1072.5,682.5L1053,702L1033.5,741L1014,780L975,819L955.5,819Z" style="fill:rgb(56,87,80);stroke:rgb(56,87,80);stroke-width:1px;"/>
            </g>
            <g transform="matrix(1,0,0,1,-19,-14.25)">
                <path d="M1287,1306.5L1209,1404L916.5,1111.5L916.5,1014L1384.5,546L1579.5,546L1618.5,585L1618.5,780L1599,780L1501.5,877.5L1501.5,897L1462.5,897L1462.5,780L1443,780L1345.5,877.5L1345.5,897L1228.5,897L1150.5,975L1150.5,1150.5L1248,1248L1365,1248L1423.5,1189.5L1423.5,1092L1384.5,1053L1306.5,1053L1287,1072.5L1287,1092L1365,1092L1384.5,1111.5L1384.5,1170L1345.5,1209L1287,1209L1228.5,1150.5L1228.5,1053L1287,994.5L1482,994.5L1501.5,1014L1560,1053L1599,1053L1618.5,1033.5L1618.5,1306.5L1521,1423.5L1423.5,1423.5L1326,1306.5L1287,1306.5ZM1072.5,936L1033.5,936L994.5,975L994.5,1014L1033.5,1053L1072.5,1053L1112,1014L1112,975.5L1092,955.5L1092,955.253L1072.5,936ZM1150.5,916.5L1131,897L1111.5,916.5L1131,936L1150.5,916.5ZM1228.5,838.5L1209,819L1189.5,838.5L1209,858L1228.5,838.5ZM1306.5,760.5L1287,741L1267.5,760.5L1287,780L1306.5,760.5ZM1384.5,682.5L1365,663L1345.5,682.5L1365,702L1384.5,682.5ZM1462.5,604.5L1443,585L1423.5,604.5L1443,624L1462.5,604.5ZM1540.5,604.5L1560,585L1579.5,604.5L1560,624L1540.5,604.5Z" style="fill:rgb(56,87,80);stroke:rgb(56,87,80);stroke-width:1px;"/>
            </g>
            <g transform="matrix(1,0,0,1,-19,-14.25)">
                <path d="M624,1267.5L604.5,1287L604.5,1521L702,1618.5L721.5,1618.5L721.5,1599L682.5,1560L682.5,1287L663,1267.5L624,1267.5Z" style="fill:rgb(56,87,80);stroke:rgb(56,87,80);stroke-width:1px;"/>
            </g>
            <g transform="matrix(1,0,0,1,-19,-14.25)">
                <path d="M546,1267.5L507,1267.5L487.5,1287L487.5,1579.5L546,1599L585,1638L604.5,1638L604.5,1618.5L565.5,1579.5L565.5,1287L546,1267.5Z" style="fill:rgb(56,87,80);stroke:rgb(56,87,80);stroke-width:1px;"/>
            </g>
        </g>
        <g id="Layer3">
            <g transform="matrix(1,0,0,1,-19,-14.25)">
                <path d="M468,468L429,468L429,487.5L546,585L565.5,585L565.5,565.5L468,468Z" style="fill:rgb(39,56,60);stroke:rgb(39,56,60);stroke-width:1px;"/>
            </g>
            <g transform="matrix(1,0,0,1,-19,-14.25)">
                <path d="M682.5,507L721.5,468L799.5,468L760.5,526.5L721.5,546L682.5,565.5L682.5,507Z" style="fill:rgb(39,56,60);stroke:rgb(39,56,60);stroke-width:1px;"/>
            </g>
            <g transform="matrix(1,0,0,1,-19,-14.25)">
                <path d="M1033.5,507L1072.5,468L1072.5,448.5L1053,429L1014,429L994.5,448.5L975,468L955.5,468L916.5,429L916.5,409.5L897,429L877.5,429L838.5,448.5L916.5,507L1033.5,507Z" style="fill:rgb(39,56,60);stroke:rgb(39,56,60);stroke-width:1px;"/>
            </g>
        </g>
        <g id="Layer5">
            <g transform="matrix(1,0,0,1,-19,-14.25)">
                <path d="M780,663L780,682.5L760.5,702L721.5,780L702,799.5L702,819L799.5,916.5L799.5,975L663,1111.5L624,1072.5L604.5,1072.5L487.5,975L487.5,897L526.5,858L604.5,858L663,916.5L663,936L585,916.5L565.5,936L565.5,975L624,994.5L643.5,994.5L702,936L702,897L604.5,799.5L604.5,780L721.5,663L780,663Z" style="fill:rgb(109,235,232);stroke:rgb(109,235,232);stroke-width:1px;"/>
            </g>
            <g transform="matrix(1,0,0,1,-19,-14.25)">
                <path d="M1267.5,468L1209,526.5L1209,507L1228.5,468L1462.5,234L1579.5,195L1716,58.5L1735.5,78L1735.5,117L1462.5,390L1384.5,429L1267.5,468Z" style="fill:rgb(109,235,232);stroke:rgb(109,235,232);stroke-width:1px;"/>
            </g>
            <g transform="matrix(1,0,0,1,-19,-14.25)">
                <path d="M1443,1423.5L1462.5,1443L1462.5,1540.5L1501.5,1579.5L1501.5,1599L1482,1599L1443,1560L1423.5,1521L1384.5,1482L1345.5,1462.5L1287,1462.5L1267.5,1482L1267.5,1540.5L1306.5,1579.5L1306.5,1599L1287,1599L1248,1560L1228.5,1521L1189.5,1482L1150.5,1462.5L1092,1462.5L1072.5,1482L1072.5,1540.5L1112,1579.5L1111.5,1599L1092,1599L1053,1560L1033.5,1521L994.5,1482L955.5,1462.5L897,1462.5L877.5,1482L877.5,1540.5L916.5,1579.5L916.5,1599L897,1599L858,1560L838.5,1521L799.5,1482L760.5,1462.5L721.5,1462.5L721.5,1443L741,1423.5L1443,1423.5Z" style="fill:rgb(109,235,232);stroke:rgb(109,235,232);stroke-width:1px;"/>
            </g>
            <g transform="matrix(1,0,0,1,-19,-14.25)">
                <path d="M1423.5,1326L1423.5,1287L1443,1267.5L1482,1267.5L1501.5,1287L1501.5,1326L1482,1345.5L1443,1345.5L1423.5,1326Z" style="fill:rgb(109,235,232);stroke:rgb(109,235,232);stroke-width:1px;"/>
            </g>
        </g>
    </g>
</svg>
